%TF.GenerationSoftware,KiCad,Pcbnew,8.0.0*%
%TF.CreationDate,2024-03-28T16:54:28+01:00*%
%TF.ProjectId,BAT2024,42415432-3032-4342-9e6b-696361645f70,1.0*%
%TF.SameCoordinates,Original*%
%TF.FileFunction,Legend,Top*%
%TF.FilePolarity,Positive*%
%FSLAX46Y46*%
G04 Gerber Fmt 4.6, Leading zero omitted, Abs format (unit mm)*
G04 Created by KiCad (PCBNEW 8.0.0) date 2024-03-28 16:54:28*
%MOMM*%
%LPD*%
G01*
G04 APERTURE LIST*
%ADD10C,0.300000*%
%ADD11C,0.150000*%
%ADD12C,0.254000*%
%ADD13C,0.120000*%
%ADD14C,0.250000*%
%ADD15C,0.200000*%
G04 APERTURE END LIST*
D10*
X101282510Y-64498366D02*
X101496796Y-64569794D01*
X101496796Y-64569794D02*
X101568225Y-64641223D01*
X101568225Y-64641223D02*
X101639653Y-64784080D01*
X101639653Y-64784080D02*
X101639653Y-64998366D01*
X101639653Y-64998366D02*
X101568225Y-65141223D01*
X101568225Y-65141223D02*
X101496796Y-65212652D01*
X101496796Y-65212652D02*
X101353939Y-65284080D01*
X101353939Y-65284080D02*
X100782510Y-65284080D01*
X100782510Y-65284080D02*
X100782510Y-63784080D01*
X100782510Y-63784080D02*
X101282510Y-63784080D01*
X101282510Y-63784080D02*
X101425368Y-63855509D01*
X101425368Y-63855509D02*
X101496796Y-63926937D01*
X101496796Y-63926937D02*
X101568225Y-64069794D01*
X101568225Y-64069794D02*
X101568225Y-64212652D01*
X101568225Y-64212652D02*
X101496796Y-64355509D01*
X101496796Y-64355509D02*
X101425368Y-64426937D01*
X101425368Y-64426937D02*
X101282510Y-64498366D01*
X101282510Y-64498366D02*
X100782510Y-64498366D01*
X102925368Y-65284080D02*
X102925368Y-64498366D01*
X102925368Y-64498366D02*
X102853939Y-64355509D01*
X102853939Y-64355509D02*
X102711082Y-64284080D01*
X102711082Y-64284080D02*
X102425368Y-64284080D01*
X102425368Y-64284080D02*
X102282510Y-64355509D01*
X102925368Y-65212652D02*
X102782510Y-65284080D01*
X102782510Y-65284080D02*
X102425368Y-65284080D01*
X102425368Y-65284080D02*
X102282510Y-65212652D01*
X102282510Y-65212652D02*
X102211082Y-65069794D01*
X102211082Y-65069794D02*
X102211082Y-64926937D01*
X102211082Y-64926937D02*
X102282510Y-64784080D01*
X102282510Y-64784080D02*
X102425368Y-64712652D01*
X102425368Y-64712652D02*
X102782510Y-64712652D01*
X102782510Y-64712652D02*
X102925368Y-64641223D01*
X104282511Y-65212652D02*
X104139653Y-65284080D01*
X104139653Y-65284080D02*
X103853939Y-65284080D01*
X103853939Y-65284080D02*
X103711082Y-65212652D01*
X103711082Y-65212652D02*
X103639653Y-65141223D01*
X103639653Y-65141223D02*
X103568225Y-64998366D01*
X103568225Y-64998366D02*
X103568225Y-64569794D01*
X103568225Y-64569794D02*
X103639653Y-64426937D01*
X103639653Y-64426937D02*
X103711082Y-64355509D01*
X103711082Y-64355509D02*
X103853939Y-64284080D01*
X103853939Y-64284080D02*
X104139653Y-64284080D01*
X104139653Y-64284080D02*
X104282511Y-64355509D01*
X104925367Y-65284080D02*
X104925367Y-63784080D01*
X105568225Y-65284080D02*
X105568225Y-64498366D01*
X105568225Y-64498366D02*
X105496796Y-64355509D01*
X105496796Y-64355509D02*
X105353939Y-64284080D01*
X105353939Y-64284080D02*
X105139653Y-64284080D01*
X105139653Y-64284080D02*
X104996796Y-64355509D01*
X104996796Y-64355509D02*
X104925367Y-64426937D01*
X106853939Y-65212652D02*
X106711082Y-65284080D01*
X106711082Y-65284080D02*
X106425368Y-65284080D01*
X106425368Y-65284080D02*
X106282510Y-65212652D01*
X106282510Y-65212652D02*
X106211082Y-65069794D01*
X106211082Y-65069794D02*
X106211082Y-64498366D01*
X106211082Y-64498366D02*
X106282510Y-64355509D01*
X106282510Y-64355509D02*
X106425368Y-64284080D01*
X106425368Y-64284080D02*
X106711082Y-64284080D01*
X106711082Y-64284080D02*
X106853939Y-64355509D01*
X106853939Y-64355509D02*
X106925368Y-64498366D01*
X106925368Y-64498366D02*
X106925368Y-64641223D01*
X106925368Y-64641223D02*
X106211082Y-64784080D01*
X107782510Y-65284080D02*
X107639653Y-65212652D01*
X107639653Y-65212652D02*
X107568224Y-65069794D01*
X107568224Y-65069794D02*
X107568224Y-63784080D01*
X108568224Y-65284080D02*
X108425367Y-65212652D01*
X108425367Y-65212652D02*
X108353938Y-65141223D01*
X108353938Y-65141223D02*
X108282510Y-64998366D01*
X108282510Y-64998366D02*
X108282510Y-64569794D01*
X108282510Y-64569794D02*
X108353938Y-64426937D01*
X108353938Y-64426937D02*
X108425367Y-64355509D01*
X108425367Y-64355509D02*
X108568224Y-64284080D01*
X108568224Y-64284080D02*
X108782510Y-64284080D01*
X108782510Y-64284080D02*
X108925367Y-64355509D01*
X108925367Y-64355509D02*
X108996796Y-64426937D01*
X108996796Y-64426937D02*
X109068224Y-64569794D01*
X109068224Y-64569794D02*
X109068224Y-64998366D01*
X109068224Y-64998366D02*
X108996796Y-65141223D01*
X108996796Y-65141223D02*
X108925367Y-65212652D01*
X108925367Y-65212652D02*
X108782510Y-65284080D01*
X108782510Y-65284080D02*
X108568224Y-65284080D01*
X109711081Y-65284080D02*
X109711081Y-64284080D01*
X109711081Y-64569794D02*
X109782510Y-64426937D01*
X109782510Y-64426937D02*
X109853939Y-64355509D01*
X109853939Y-64355509D02*
X109996796Y-64284080D01*
X109996796Y-64284080D02*
X110139653Y-64284080D01*
X111282510Y-65284080D02*
X111282510Y-64498366D01*
X111282510Y-64498366D02*
X111211081Y-64355509D01*
X111211081Y-64355509D02*
X111068224Y-64284080D01*
X111068224Y-64284080D02*
X110782510Y-64284080D01*
X110782510Y-64284080D02*
X110639652Y-64355509D01*
X111282510Y-65212652D02*
X111139652Y-65284080D01*
X111139652Y-65284080D02*
X110782510Y-65284080D01*
X110782510Y-65284080D02*
X110639652Y-65212652D01*
X110639652Y-65212652D02*
X110568224Y-65069794D01*
X110568224Y-65069794D02*
X110568224Y-64926937D01*
X110568224Y-64926937D02*
X110639652Y-64784080D01*
X110639652Y-64784080D02*
X110782510Y-64712652D01*
X110782510Y-64712652D02*
X111139652Y-64712652D01*
X111139652Y-64712652D02*
X111282510Y-64641223D01*
X111996795Y-65284080D02*
X111996795Y-64284080D01*
X111996795Y-64569794D02*
X112068224Y-64426937D01*
X112068224Y-64426937D02*
X112139653Y-64355509D01*
X112139653Y-64355509D02*
X112282510Y-64284080D01*
X112282510Y-64284080D02*
X112425367Y-64284080D01*
X112925366Y-65284080D02*
X112925366Y-63784080D01*
X112925366Y-64355509D02*
X113068224Y-64284080D01*
X113068224Y-64284080D02*
X113353938Y-64284080D01*
X113353938Y-64284080D02*
X113496795Y-64355509D01*
X113496795Y-64355509D02*
X113568224Y-64426937D01*
X113568224Y-64426937D02*
X113639652Y-64569794D01*
X113639652Y-64569794D02*
X113639652Y-64998366D01*
X113639652Y-64998366D02*
X113568224Y-65141223D01*
X113568224Y-65141223D02*
X113496795Y-65212652D01*
X113496795Y-65212652D02*
X113353938Y-65284080D01*
X113353938Y-65284080D02*
X113068224Y-65284080D01*
X113068224Y-65284080D02*
X112925366Y-65212652D01*
X114853938Y-65212652D02*
X114711081Y-65284080D01*
X114711081Y-65284080D02*
X114425367Y-65284080D01*
X114425367Y-65284080D02*
X114282509Y-65212652D01*
X114282509Y-65212652D02*
X114211081Y-65069794D01*
X114211081Y-65069794D02*
X114211081Y-64498366D01*
X114211081Y-64498366D02*
X114282509Y-64355509D01*
X114282509Y-64355509D02*
X114425367Y-64284080D01*
X114425367Y-64284080D02*
X114711081Y-64284080D01*
X114711081Y-64284080D02*
X114853938Y-64355509D01*
X114853938Y-64355509D02*
X114925367Y-64498366D01*
X114925367Y-64498366D02*
X114925367Y-64641223D01*
X114925367Y-64641223D02*
X114211081Y-64784080D01*
X115568223Y-65284080D02*
X115568223Y-64284080D01*
X115568223Y-63784080D02*
X115496795Y-63855509D01*
X115496795Y-63855509D02*
X115568223Y-63926937D01*
X115568223Y-63926937D02*
X115639652Y-63855509D01*
X115639652Y-63855509D02*
X115568223Y-63784080D01*
X115568223Y-63784080D02*
X115568223Y-63926937D01*
X116068224Y-64284080D02*
X116639652Y-64284080D01*
X116282509Y-63784080D02*
X116282509Y-65069794D01*
X116282509Y-65069794D02*
X116353938Y-65212652D01*
X116353938Y-65212652D02*
X116496795Y-65284080D01*
X116496795Y-65284080D02*
X116639652Y-65284080D01*
X118211081Y-63926937D02*
X118282509Y-63855509D01*
X118282509Y-63855509D02*
X118425367Y-63784080D01*
X118425367Y-63784080D02*
X118782509Y-63784080D01*
X118782509Y-63784080D02*
X118925367Y-63855509D01*
X118925367Y-63855509D02*
X118996795Y-63926937D01*
X118996795Y-63926937D02*
X119068224Y-64069794D01*
X119068224Y-64069794D02*
X119068224Y-64212652D01*
X119068224Y-64212652D02*
X118996795Y-64426937D01*
X118996795Y-64426937D02*
X118139652Y-65284080D01*
X118139652Y-65284080D02*
X119068224Y-65284080D01*
X119996795Y-63784080D02*
X120139652Y-63784080D01*
X120139652Y-63784080D02*
X120282509Y-63855509D01*
X120282509Y-63855509D02*
X120353938Y-63926937D01*
X120353938Y-63926937D02*
X120425366Y-64069794D01*
X120425366Y-64069794D02*
X120496795Y-64355509D01*
X120496795Y-64355509D02*
X120496795Y-64712652D01*
X120496795Y-64712652D02*
X120425366Y-64998366D01*
X120425366Y-64998366D02*
X120353938Y-65141223D01*
X120353938Y-65141223D02*
X120282509Y-65212652D01*
X120282509Y-65212652D02*
X120139652Y-65284080D01*
X120139652Y-65284080D02*
X119996795Y-65284080D01*
X119996795Y-65284080D02*
X119853938Y-65212652D01*
X119853938Y-65212652D02*
X119782509Y-65141223D01*
X119782509Y-65141223D02*
X119711080Y-64998366D01*
X119711080Y-64998366D02*
X119639652Y-64712652D01*
X119639652Y-64712652D02*
X119639652Y-64355509D01*
X119639652Y-64355509D02*
X119711080Y-64069794D01*
X119711080Y-64069794D02*
X119782509Y-63926937D01*
X119782509Y-63926937D02*
X119853938Y-63855509D01*
X119853938Y-63855509D02*
X119996795Y-63784080D01*
X121068223Y-63926937D02*
X121139651Y-63855509D01*
X121139651Y-63855509D02*
X121282509Y-63784080D01*
X121282509Y-63784080D02*
X121639651Y-63784080D01*
X121639651Y-63784080D02*
X121782509Y-63855509D01*
X121782509Y-63855509D02*
X121853937Y-63926937D01*
X121853937Y-63926937D02*
X121925366Y-64069794D01*
X121925366Y-64069794D02*
X121925366Y-64212652D01*
X121925366Y-64212652D02*
X121853937Y-64426937D01*
X121853937Y-64426937D02*
X120996794Y-65284080D01*
X120996794Y-65284080D02*
X121925366Y-65284080D01*
X123211080Y-64284080D02*
X123211080Y-65284080D01*
X122853937Y-63712652D02*
X122496794Y-64784080D01*
X122496794Y-64784080D02*
X123425365Y-64784080D01*
X100711082Y-67627568D02*
X100925368Y-67698996D01*
X100925368Y-67698996D02*
X101282510Y-67698996D01*
X101282510Y-67698996D02*
X101425368Y-67627568D01*
X101425368Y-67627568D02*
X101496796Y-67556139D01*
X101496796Y-67556139D02*
X101568225Y-67413282D01*
X101568225Y-67413282D02*
X101568225Y-67270425D01*
X101568225Y-67270425D02*
X101496796Y-67127568D01*
X101496796Y-67127568D02*
X101425368Y-67056139D01*
X101425368Y-67056139D02*
X101282510Y-66984710D01*
X101282510Y-66984710D02*
X100996796Y-66913282D01*
X100996796Y-66913282D02*
X100853939Y-66841853D01*
X100853939Y-66841853D02*
X100782510Y-66770425D01*
X100782510Y-66770425D02*
X100711082Y-66627568D01*
X100711082Y-66627568D02*
X100711082Y-66484710D01*
X100711082Y-66484710D02*
X100782510Y-66341853D01*
X100782510Y-66341853D02*
X100853939Y-66270425D01*
X100853939Y-66270425D02*
X100996796Y-66198996D01*
X100996796Y-66198996D02*
X101353939Y-66198996D01*
X101353939Y-66198996D02*
X101568225Y-66270425D01*
X102853939Y-67627568D02*
X102711081Y-67698996D01*
X102711081Y-67698996D02*
X102425367Y-67698996D01*
X102425367Y-67698996D02*
X102282510Y-67627568D01*
X102282510Y-67627568D02*
X102211081Y-67556139D01*
X102211081Y-67556139D02*
X102139653Y-67413282D01*
X102139653Y-67413282D02*
X102139653Y-66984710D01*
X102139653Y-66984710D02*
X102211081Y-66841853D01*
X102211081Y-66841853D02*
X102282510Y-66770425D01*
X102282510Y-66770425D02*
X102425367Y-66698996D01*
X102425367Y-66698996D02*
X102711081Y-66698996D01*
X102711081Y-66698996D02*
X102853939Y-66770425D01*
X103496795Y-67698996D02*
X103496795Y-66198996D01*
X104139653Y-67698996D02*
X104139653Y-66913282D01*
X104139653Y-66913282D02*
X104068224Y-66770425D01*
X104068224Y-66770425D02*
X103925367Y-66698996D01*
X103925367Y-66698996D02*
X103711081Y-66698996D01*
X103711081Y-66698996D02*
X103568224Y-66770425D01*
X103568224Y-66770425D02*
X103496795Y-66841853D01*
X105496796Y-67698996D02*
X105496796Y-66913282D01*
X105496796Y-66913282D02*
X105425367Y-66770425D01*
X105425367Y-66770425D02*
X105282510Y-66698996D01*
X105282510Y-66698996D02*
X104996796Y-66698996D01*
X104996796Y-66698996D02*
X104853938Y-66770425D01*
X105496796Y-67627568D02*
X105353938Y-67698996D01*
X105353938Y-67698996D02*
X104996796Y-67698996D01*
X104996796Y-67698996D02*
X104853938Y-67627568D01*
X104853938Y-67627568D02*
X104782510Y-67484710D01*
X104782510Y-67484710D02*
X104782510Y-67341853D01*
X104782510Y-67341853D02*
X104853938Y-67198996D01*
X104853938Y-67198996D02*
X104996796Y-67127568D01*
X104996796Y-67127568D02*
X105353938Y-67127568D01*
X105353938Y-67127568D02*
X105496796Y-67056139D01*
X106425367Y-67698996D02*
X106282510Y-67627568D01*
X106282510Y-67627568D02*
X106211081Y-67484710D01*
X106211081Y-67484710D02*
X106211081Y-66198996D01*
X107211081Y-67698996D02*
X107068224Y-67627568D01*
X107068224Y-67627568D02*
X106996795Y-67484710D01*
X106996795Y-67484710D02*
X106996795Y-66198996D01*
X108425367Y-67698996D02*
X108425367Y-66198996D01*
X108425367Y-67627568D02*
X108282509Y-67698996D01*
X108282509Y-67698996D02*
X107996795Y-67698996D01*
X107996795Y-67698996D02*
X107853938Y-67627568D01*
X107853938Y-67627568D02*
X107782509Y-67556139D01*
X107782509Y-67556139D02*
X107711081Y-67413282D01*
X107711081Y-67413282D02*
X107711081Y-66984710D01*
X107711081Y-66984710D02*
X107782509Y-66841853D01*
X107782509Y-66841853D02*
X107853938Y-66770425D01*
X107853938Y-66770425D02*
X107996795Y-66698996D01*
X107996795Y-66698996D02*
X108282509Y-66698996D01*
X108282509Y-66698996D02*
X108425367Y-66770425D01*
X109139652Y-67698996D02*
X109139652Y-66698996D01*
X109139652Y-66984710D02*
X109211081Y-66841853D01*
X109211081Y-66841853D02*
X109282510Y-66770425D01*
X109282510Y-66770425D02*
X109425367Y-66698996D01*
X109425367Y-66698996D02*
X109568224Y-66698996D01*
X110711081Y-66698996D02*
X110711081Y-67698996D01*
X110068223Y-66698996D02*
X110068223Y-67484710D01*
X110068223Y-67484710D02*
X110139652Y-67627568D01*
X110139652Y-67627568D02*
X110282509Y-67698996D01*
X110282509Y-67698996D02*
X110496795Y-67698996D01*
X110496795Y-67698996D02*
X110639652Y-67627568D01*
X110639652Y-67627568D02*
X110711081Y-67556139D01*
X112068224Y-67627568D02*
X111925366Y-67698996D01*
X111925366Y-67698996D02*
X111639652Y-67698996D01*
X111639652Y-67698996D02*
X111496795Y-67627568D01*
X111496795Y-67627568D02*
X111425366Y-67556139D01*
X111425366Y-67556139D02*
X111353938Y-67413282D01*
X111353938Y-67413282D02*
X111353938Y-66984710D01*
X111353938Y-66984710D02*
X111425366Y-66841853D01*
X111425366Y-66841853D02*
X111496795Y-66770425D01*
X111496795Y-66770425D02*
X111639652Y-66698996D01*
X111639652Y-66698996D02*
X111925366Y-66698996D01*
X111925366Y-66698996D02*
X112068224Y-66770425D01*
X112711080Y-67698996D02*
X112711080Y-66198996D01*
X112853938Y-67127568D02*
X113282509Y-67698996D01*
X113282509Y-66698996D02*
X112711080Y-67270425D01*
X113925366Y-66698996D02*
X113925366Y-68198996D01*
X113925366Y-66770425D02*
X114068224Y-66698996D01*
X114068224Y-66698996D02*
X114353938Y-66698996D01*
X114353938Y-66698996D02*
X114496795Y-66770425D01*
X114496795Y-66770425D02*
X114568224Y-66841853D01*
X114568224Y-66841853D02*
X114639652Y-66984710D01*
X114639652Y-66984710D02*
X114639652Y-67413282D01*
X114639652Y-67413282D02*
X114568224Y-67556139D01*
X114568224Y-67556139D02*
X114496795Y-67627568D01*
X114496795Y-67627568D02*
X114353938Y-67698996D01*
X114353938Y-67698996D02*
X114068224Y-67698996D01*
X114068224Y-67698996D02*
X113925366Y-67627568D01*
X115853938Y-67627568D02*
X115711081Y-67698996D01*
X115711081Y-67698996D02*
X115425367Y-67698996D01*
X115425367Y-67698996D02*
X115282509Y-67627568D01*
X115282509Y-67627568D02*
X115211081Y-67484710D01*
X115211081Y-67484710D02*
X115211081Y-66913282D01*
X115211081Y-66913282D02*
X115282509Y-66770425D01*
X115282509Y-66770425D02*
X115425367Y-66698996D01*
X115425367Y-66698996D02*
X115711081Y-66698996D01*
X115711081Y-66698996D02*
X115853938Y-66770425D01*
X115853938Y-66770425D02*
X115925367Y-66913282D01*
X115925367Y-66913282D02*
X115925367Y-67056139D01*
X115925367Y-67056139D02*
X115211081Y-67198996D01*
X117211081Y-66698996D02*
X117211081Y-67913282D01*
X117211081Y-67913282D02*
X117139652Y-68056139D01*
X117139652Y-68056139D02*
X117068223Y-68127568D01*
X117068223Y-68127568D02*
X116925366Y-68198996D01*
X116925366Y-68198996D02*
X116711081Y-68198996D01*
X116711081Y-68198996D02*
X116568223Y-68127568D01*
X117211081Y-67627568D02*
X117068223Y-67698996D01*
X117068223Y-67698996D02*
X116782509Y-67698996D01*
X116782509Y-67698996D02*
X116639652Y-67627568D01*
X116639652Y-67627568D02*
X116568223Y-67556139D01*
X116568223Y-67556139D02*
X116496795Y-67413282D01*
X116496795Y-67413282D02*
X116496795Y-66984710D01*
X116496795Y-66984710D02*
X116568223Y-66841853D01*
X116568223Y-66841853D02*
X116639652Y-66770425D01*
X116639652Y-66770425D02*
X116782509Y-66698996D01*
X116782509Y-66698996D02*
X117068223Y-66698996D01*
X117068223Y-66698996D02*
X117211081Y-66770425D01*
X118496795Y-67627568D02*
X118353938Y-67698996D01*
X118353938Y-67698996D02*
X118068224Y-67698996D01*
X118068224Y-67698996D02*
X117925366Y-67627568D01*
X117925366Y-67627568D02*
X117853938Y-67484710D01*
X117853938Y-67484710D02*
X117853938Y-66913282D01*
X117853938Y-66913282D02*
X117925366Y-66770425D01*
X117925366Y-66770425D02*
X118068224Y-66698996D01*
X118068224Y-66698996D02*
X118353938Y-66698996D01*
X118353938Y-66698996D02*
X118496795Y-66770425D01*
X118496795Y-66770425D02*
X118568224Y-66913282D01*
X118568224Y-66913282D02*
X118568224Y-67056139D01*
X118568224Y-67056139D02*
X117853938Y-67198996D01*
X119425366Y-67698996D02*
X119282509Y-67627568D01*
X119282509Y-67627568D02*
X119211080Y-67484710D01*
X119211080Y-67484710D02*
X119211080Y-66198996D01*
X119996794Y-67127568D02*
X121139652Y-67127568D01*
X121853937Y-67698996D02*
X121853937Y-66198996D01*
X121853937Y-66198996D02*
X122353937Y-67270425D01*
X122353937Y-67270425D02*
X122853937Y-66198996D01*
X122853937Y-66198996D02*
X122853937Y-67698996D01*
X124139652Y-67627568D02*
X123996795Y-67698996D01*
X123996795Y-67698996D02*
X123711081Y-67698996D01*
X123711081Y-67698996D02*
X123568223Y-67627568D01*
X123568223Y-67627568D02*
X123496795Y-67484710D01*
X123496795Y-67484710D02*
X123496795Y-66913282D01*
X123496795Y-66913282D02*
X123568223Y-66770425D01*
X123568223Y-66770425D02*
X123711081Y-66698996D01*
X123711081Y-66698996D02*
X123996795Y-66698996D01*
X123996795Y-66698996D02*
X124139652Y-66770425D01*
X124139652Y-66770425D02*
X124211081Y-66913282D01*
X124211081Y-66913282D02*
X124211081Y-67056139D01*
X124211081Y-67056139D02*
X123496795Y-67198996D01*
X124782509Y-67627568D02*
X124925366Y-67698996D01*
X124925366Y-67698996D02*
X125211080Y-67698996D01*
X125211080Y-67698996D02*
X125353937Y-67627568D01*
X125353937Y-67627568D02*
X125425366Y-67484710D01*
X125425366Y-67484710D02*
X125425366Y-67413282D01*
X125425366Y-67413282D02*
X125353937Y-67270425D01*
X125353937Y-67270425D02*
X125211080Y-67198996D01*
X125211080Y-67198996D02*
X124996795Y-67198996D01*
X124996795Y-67198996D02*
X124853937Y-67127568D01*
X124853937Y-67127568D02*
X124782509Y-66984710D01*
X124782509Y-66984710D02*
X124782509Y-66913282D01*
X124782509Y-66913282D02*
X124853937Y-66770425D01*
X124853937Y-66770425D02*
X124996795Y-66698996D01*
X124996795Y-66698996D02*
X125211080Y-66698996D01*
X125211080Y-66698996D02*
X125353937Y-66770425D01*
X125996795Y-67627568D02*
X126139652Y-67698996D01*
X126139652Y-67698996D02*
X126425366Y-67698996D01*
X126425366Y-67698996D02*
X126568223Y-67627568D01*
X126568223Y-67627568D02*
X126639652Y-67484710D01*
X126639652Y-67484710D02*
X126639652Y-67413282D01*
X126639652Y-67413282D02*
X126568223Y-67270425D01*
X126568223Y-67270425D02*
X126425366Y-67198996D01*
X126425366Y-67198996D02*
X126211081Y-67198996D01*
X126211081Y-67198996D02*
X126068223Y-67127568D01*
X126068223Y-67127568D02*
X125996795Y-66984710D01*
X125996795Y-66984710D02*
X125996795Y-66913282D01*
X125996795Y-66913282D02*
X126068223Y-66770425D01*
X126068223Y-66770425D02*
X126211081Y-66698996D01*
X126211081Y-66698996D02*
X126425366Y-66698996D01*
X126425366Y-66698996D02*
X126568223Y-66770425D01*
X127925367Y-66698996D02*
X127925367Y-67913282D01*
X127925367Y-67913282D02*
X127853938Y-68056139D01*
X127853938Y-68056139D02*
X127782509Y-68127568D01*
X127782509Y-68127568D02*
X127639652Y-68198996D01*
X127639652Y-68198996D02*
X127425367Y-68198996D01*
X127425367Y-68198996D02*
X127282509Y-68127568D01*
X127925367Y-67627568D02*
X127782509Y-67698996D01*
X127782509Y-67698996D02*
X127496795Y-67698996D01*
X127496795Y-67698996D02*
X127353938Y-67627568D01*
X127353938Y-67627568D02*
X127282509Y-67556139D01*
X127282509Y-67556139D02*
X127211081Y-67413282D01*
X127211081Y-67413282D02*
X127211081Y-66984710D01*
X127211081Y-66984710D02*
X127282509Y-66841853D01*
X127282509Y-66841853D02*
X127353938Y-66770425D01*
X127353938Y-66770425D02*
X127496795Y-66698996D01*
X127496795Y-66698996D02*
X127782509Y-66698996D01*
X127782509Y-66698996D02*
X127925367Y-66770425D01*
X129211081Y-67627568D02*
X129068224Y-67698996D01*
X129068224Y-67698996D02*
X128782510Y-67698996D01*
X128782510Y-67698996D02*
X128639652Y-67627568D01*
X128639652Y-67627568D02*
X128568224Y-67484710D01*
X128568224Y-67484710D02*
X128568224Y-66913282D01*
X128568224Y-66913282D02*
X128639652Y-66770425D01*
X128639652Y-66770425D02*
X128782510Y-66698996D01*
X128782510Y-66698996D02*
X129068224Y-66698996D01*
X129068224Y-66698996D02*
X129211081Y-66770425D01*
X129211081Y-66770425D02*
X129282510Y-66913282D01*
X129282510Y-66913282D02*
X129282510Y-67056139D01*
X129282510Y-67056139D02*
X128568224Y-67198996D01*
X129925366Y-67698996D02*
X129925366Y-66698996D01*
X129925366Y-66984710D02*
X129996795Y-66841853D01*
X129996795Y-66841853D02*
X130068224Y-66770425D01*
X130068224Y-66770425D02*
X130211081Y-66698996D01*
X130211081Y-66698996D02*
X130353938Y-66698996D01*
X131496795Y-67698996D02*
X131496795Y-66913282D01*
X131496795Y-66913282D02*
X131425366Y-66770425D01*
X131425366Y-66770425D02*
X131282509Y-66698996D01*
X131282509Y-66698996D02*
X130996795Y-66698996D01*
X130996795Y-66698996D02*
X130853937Y-66770425D01*
X131496795Y-67627568D02*
X131353937Y-67698996D01*
X131353937Y-67698996D02*
X130996795Y-67698996D01*
X130996795Y-67698996D02*
X130853937Y-67627568D01*
X130853937Y-67627568D02*
X130782509Y-67484710D01*
X130782509Y-67484710D02*
X130782509Y-67341853D01*
X130782509Y-67341853D02*
X130853937Y-67198996D01*
X130853937Y-67198996D02*
X130996795Y-67127568D01*
X130996795Y-67127568D02*
X131353937Y-67127568D01*
X131353937Y-67127568D02*
X131496795Y-67056139D01*
X130853937Y-66198996D02*
X130925366Y-66270425D01*
X130925366Y-66270425D02*
X130853937Y-66341853D01*
X130853937Y-66341853D02*
X130782509Y-66270425D01*
X130782509Y-66270425D02*
X130853937Y-66198996D01*
X130853937Y-66198996D02*
X130853937Y-66341853D01*
X131425366Y-66198996D02*
X131496795Y-66270425D01*
X131496795Y-66270425D02*
X131425366Y-66341853D01*
X131425366Y-66341853D02*
X131353937Y-66270425D01*
X131353937Y-66270425D02*
X131425366Y-66198996D01*
X131425366Y-66198996D02*
X131425366Y-66341853D01*
X131996795Y-66698996D02*
X132568223Y-66698996D01*
X132211080Y-66198996D02*
X132211080Y-67484710D01*
X132211080Y-67484710D02*
X132282509Y-67627568D01*
X132282509Y-67627568D02*
X132425366Y-67698996D01*
X132425366Y-67698996D02*
X132568223Y-67698996D01*
X100711082Y-70042484D02*
X100925368Y-70113912D01*
X100925368Y-70113912D02*
X101282510Y-70113912D01*
X101282510Y-70113912D02*
X101425368Y-70042484D01*
X101425368Y-70042484D02*
X101496796Y-69971055D01*
X101496796Y-69971055D02*
X101568225Y-69828198D01*
X101568225Y-69828198D02*
X101568225Y-69685341D01*
X101568225Y-69685341D02*
X101496796Y-69542484D01*
X101496796Y-69542484D02*
X101425368Y-69471055D01*
X101425368Y-69471055D02*
X101282510Y-69399626D01*
X101282510Y-69399626D02*
X100996796Y-69328198D01*
X100996796Y-69328198D02*
X100853939Y-69256769D01*
X100853939Y-69256769D02*
X100782510Y-69185341D01*
X100782510Y-69185341D02*
X100711082Y-69042484D01*
X100711082Y-69042484D02*
X100711082Y-68899626D01*
X100711082Y-68899626D02*
X100782510Y-68756769D01*
X100782510Y-68756769D02*
X100853939Y-68685341D01*
X100853939Y-68685341D02*
X100996796Y-68613912D01*
X100996796Y-68613912D02*
X101353939Y-68613912D01*
X101353939Y-68613912D02*
X101568225Y-68685341D01*
X101996796Y-69113912D02*
X102568224Y-69113912D01*
X102211081Y-68613912D02*
X102211081Y-69899626D01*
X102211081Y-69899626D02*
X102282510Y-70042484D01*
X102282510Y-70042484D02*
X102425367Y-70113912D01*
X102425367Y-70113912D02*
X102568224Y-70113912D01*
X103639653Y-70042484D02*
X103496796Y-70113912D01*
X103496796Y-70113912D02*
X103211082Y-70113912D01*
X103211082Y-70113912D02*
X103068224Y-70042484D01*
X103068224Y-70042484D02*
X102996796Y-69899626D01*
X102996796Y-69899626D02*
X102996796Y-69328198D01*
X102996796Y-69328198D02*
X103068224Y-69185341D01*
X103068224Y-69185341D02*
X103211082Y-69113912D01*
X103211082Y-69113912D02*
X103496796Y-69113912D01*
X103496796Y-69113912D02*
X103639653Y-69185341D01*
X103639653Y-69185341D02*
X103711082Y-69328198D01*
X103711082Y-69328198D02*
X103711082Y-69471055D01*
X103711082Y-69471055D02*
X102996796Y-69613912D01*
X104139653Y-69113912D02*
X104711081Y-69113912D01*
X104353938Y-70113912D02*
X104353938Y-68828198D01*
X104353938Y-68828198D02*
X104425367Y-68685341D01*
X104425367Y-68685341D02*
X104568224Y-68613912D01*
X104568224Y-68613912D02*
X104711081Y-68613912D01*
X105853939Y-70113912D02*
X105853939Y-69328198D01*
X105853939Y-69328198D02*
X105782510Y-69185341D01*
X105782510Y-69185341D02*
X105639653Y-69113912D01*
X105639653Y-69113912D02*
X105353939Y-69113912D01*
X105353939Y-69113912D02*
X105211081Y-69185341D01*
X105853939Y-70042484D02*
X105711081Y-70113912D01*
X105711081Y-70113912D02*
X105353939Y-70113912D01*
X105353939Y-70113912D02*
X105211081Y-70042484D01*
X105211081Y-70042484D02*
X105139653Y-69899626D01*
X105139653Y-69899626D02*
X105139653Y-69756769D01*
X105139653Y-69756769D02*
X105211081Y-69613912D01*
X105211081Y-69613912D02*
X105353939Y-69542484D01*
X105353939Y-69542484D02*
X105711081Y-69542484D01*
X105711081Y-69542484D02*
X105853939Y-69471055D01*
X106568224Y-69113912D02*
X106568224Y-70113912D01*
X106568224Y-69256769D02*
X106639653Y-69185341D01*
X106639653Y-69185341D02*
X106782510Y-69113912D01*
X106782510Y-69113912D02*
X106996796Y-69113912D01*
X106996796Y-69113912D02*
X107139653Y-69185341D01*
X107139653Y-69185341D02*
X107211082Y-69328198D01*
X107211082Y-69328198D02*
X107211082Y-70113912D01*
X108139653Y-70113912D02*
X107996796Y-70042484D01*
X107996796Y-70042484D02*
X107925367Y-69971055D01*
X107925367Y-69971055D02*
X107853939Y-69828198D01*
X107853939Y-69828198D02*
X107853939Y-69399626D01*
X107853939Y-69399626D02*
X107925367Y-69256769D01*
X107925367Y-69256769D02*
X107996796Y-69185341D01*
X107996796Y-69185341D02*
X108139653Y-69113912D01*
X108139653Y-69113912D02*
X108353939Y-69113912D01*
X108353939Y-69113912D02*
X108496796Y-69185341D01*
X108496796Y-69185341D02*
X108568225Y-69256769D01*
X108568225Y-69256769D02*
X108639653Y-69399626D01*
X108639653Y-69399626D02*
X108639653Y-69828198D01*
X108639653Y-69828198D02*
X108568225Y-69971055D01*
X108568225Y-69971055D02*
X108496796Y-70042484D01*
X108496796Y-70042484D02*
X108353939Y-70113912D01*
X108353939Y-70113912D02*
X108139653Y-70113912D01*
X110425367Y-70113912D02*
X110425367Y-68613912D01*
X110425367Y-68613912D02*
X111282510Y-70113912D01*
X111282510Y-70113912D02*
X111282510Y-68613912D01*
X111996796Y-70113912D02*
X111996796Y-69113912D01*
X111996796Y-68613912D02*
X111925368Y-68685341D01*
X111925368Y-68685341D02*
X111996796Y-68756769D01*
X111996796Y-68756769D02*
X112068225Y-68685341D01*
X112068225Y-68685341D02*
X111996796Y-68613912D01*
X111996796Y-68613912D02*
X111996796Y-68756769D01*
X113353940Y-70042484D02*
X113211082Y-70113912D01*
X113211082Y-70113912D02*
X112925368Y-70113912D01*
X112925368Y-70113912D02*
X112782511Y-70042484D01*
X112782511Y-70042484D02*
X112711082Y-69971055D01*
X112711082Y-69971055D02*
X112639654Y-69828198D01*
X112639654Y-69828198D02*
X112639654Y-69399626D01*
X112639654Y-69399626D02*
X112711082Y-69256769D01*
X112711082Y-69256769D02*
X112782511Y-69185341D01*
X112782511Y-69185341D02*
X112925368Y-69113912D01*
X112925368Y-69113912D02*
X113211082Y-69113912D01*
X113211082Y-69113912D02*
X113353940Y-69185341D01*
X114211082Y-70113912D02*
X114068225Y-70042484D01*
X114068225Y-70042484D02*
X113996796Y-69971055D01*
X113996796Y-69971055D02*
X113925368Y-69828198D01*
X113925368Y-69828198D02*
X113925368Y-69399626D01*
X113925368Y-69399626D02*
X113996796Y-69256769D01*
X113996796Y-69256769D02*
X114068225Y-69185341D01*
X114068225Y-69185341D02*
X114211082Y-69113912D01*
X114211082Y-69113912D02*
X114425368Y-69113912D01*
X114425368Y-69113912D02*
X114568225Y-69185341D01*
X114568225Y-69185341D02*
X114639654Y-69256769D01*
X114639654Y-69256769D02*
X114711082Y-69399626D01*
X114711082Y-69399626D02*
X114711082Y-69828198D01*
X114711082Y-69828198D02*
X114639654Y-69971055D01*
X114639654Y-69971055D02*
X114568225Y-70042484D01*
X114568225Y-70042484D02*
X114425368Y-70113912D01*
X114425368Y-70113912D02*
X114211082Y-70113912D01*
X115353939Y-70113912D02*
X115353939Y-69113912D01*
X115353939Y-69399626D02*
X115425368Y-69256769D01*
X115425368Y-69256769D02*
X115496797Y-69185341D01*
X115496797Y-69185341D02*
X115639654Y-69113912D01*
X115639654Y-69113912D02*
X115782511Y-69113912D01*
X116925368Y-70113912D02*
X116925368Y-69328198D01*
X116925368Y-69328198D02*
X116853939Y-69185341D01*
X116853939Y-69185341D02*
X116711082Y-69113912D01*
X116711082Y-69113912D02*
X116425368Y-69113912D01*
X116425368Y-69113912D02*
X116282510Y-69185341D01*
X116925368Y-70042484D02*
X116782510Y-70113912D01*
X116782510Y-70113912D02*
X116425368Y-70113912D01*
X116425368Y-70113912D02*
X116282510Y-70042484D01*
X116282510Y-70042484D02*
X116211082Y-69899626D01*
X116211082Y-69899626D02*
X116211082Y-69756769D01*
X116211082Y-69756769D02*
X116282510Y-69613912D01*
X116282510Y-69613912D02*
X116425368Y-69542484D01*
X116425368Y-69542484D02*
X116782510Y-69542484D01*
X116782510Y-69542484D02*
X116925368Y-69471055D01*
X100782510Y-72528828D02*
X100782510Y-71028828D01*
X100782510Y-71743114D02*
X101639653Y-71743114D01*
X101639653Y-72528828D02*
X101639653Y-71028828D01*
X102282511Y-72457400D02*
X102496797Y-72528828D01*
X102496797Y-72528828D02*
X102853939Y-72528828D01*
X102853939Y-72528828D02*
X102996797Y-72457400D01*
X102996797Y-72457400D02*
X103068225Y-72385971D01*
X103068225Y-72385971D02*
X103139654Y-72243114D01*
X103139654Y-72243114D02*
X103139654Y-72100257D01*
X103139654Y-72100257D02*
X103068225Y-71957400D01*
X103068225Y-71957400D02*
X102996797Y-71885971D01*
X102996797Y-71885971D02*
X102853939Y-71814542D01*
X102853939Y-71814542D02*
X102568225Y-71743114D01*
X102568225Y-71743114D02*
X102425368Y-71671685D01*
X102425368Y-71671685D02*
X102353939Y-71600257D01*
X102353939Y-71600257D02*
X102282511Y-71457400D01*
X102282511Y-71457400D02*
X102282511Y-71314542D01*
X102282511Y-71314542D02*
X102353939Y-71171685D01*
X102353939Y-71171685D02*
X102425368Y-71100257D01*
X102425368Y-71100257D02*
X102568225Y-71028828D01*
X102568225Y-71028828D02*
X102925368Y-71028828D01*
X102925368Y-71028828D02*
X103139654Y-71100257D01*
X104496796Y-72528828D02*
X103782510Y-72528828D01*
X103782510Y-72528828D02*
X103782510Y-71028828D01*
X104996796Y-71028828D02*
X104996796Y-72243114D01*
X104996796Y-72243114D02*
X105068225Y-72385971D01*
X105068225Y-72385971D02*
X105139654Y-72457400D01*
X105139654Y-72457400D02*
X105282511Y-72528828D01*
X105282511Y-72528828D02*
X105568225Y-72528828D01*
X105568225Y-72528828D02*
X105711082Y-72457400D01*
X105711082Y-72457400D02*
X105782511Y-72385971D01*
X105782511Y-72385971D02*
X105853939Y-72243114D01*
X105853939Y-72243114D02*
X105853939Y-71028828D01*
X107496797Y-71028828D02*
X108353940Y-71028828D01*
X107925368Y-72528828D02*
X107925368Y-71028828D01*
X110068225Y-72528828D02*
X109996797Y-72528828D01*
X109996797Y-72528828D02*
X109853939Y-72457400D01*
X109853939Y-72457400D02*
X109639654Y-72243114D01*
X109639654Y-72243114D02*
X109282511Y-71814542D01*
X109282511Y-71814542D02*
X109139654Y-71600257D01*
X109139654Y-71600257D02*
X109068225Y-71385971D01*
X109068225Y-71385971D02*
X109068225Y-71243114D01*
X109068225Y-71243114D02*
X109139654Y-71100257D01*
X109139654Y-71100257D02*
X109282511Y-71028828D01*
X109282511Y-71028828D02*
X109353939Y-71028828D01*
X109353939Y-71028828D02*
X109496797Y-71100257D01*
X109496797Y-71100257D02*
X109568225Y-71243114D01*
X109568225Y-71243114D02*
X109568225Y-71314542D01*
X109568225Y-71314542D02*
X109496797Y-71457400D01*
X109496797Y-71457400D02*
X109425368Y-71528828D01*
X109425368Y-71528828D02*
X108996797Y-71814542D01*
X108996797Y-71814542D02*
X108925368Y-71885971D01*
X108925368Y-71885971D02*
X108853939Y-72028828D01*
X108853939Y-72028828D02*
X108853939Y-72243114D01*
X108853939Y-72243114D02*
X108925368Y-72385971D01*
X108925368Y-72385971D02*
X108996797Y-72457400D01*
X108996797Y-72457400D02*
X109139654Y-72528828D01*
X109139654Y-72528828D02*
X109353939Y-72528828D01*
X109353939Y-72528828D02*
X109496797Y-72457400D01*
X109496797Y-72457400D02*
X109568225Y-72385971D01*
X109568225Y-72385971D02*
X109782511Y-72100257D01*
X109782511Y-72100257D02*
X109853939Y-71885971D01*
X109853939Y-71885971D02*
X109853939Y-71743114D01*
X110639654Y-72100257D02*
X111353940Y-72100257D01*
X110496797Y-72528828D02*
X110996797Y-71028828D01*
X110996797Y-71028828D02*
X111496797Y-72528828D01*
X113496796Y-73028828D02*
X113496796Y-70885971D01*
X115496796Y-71028828D02*
X115996796Y-72528828D01*
X115996796Y-72528828D02*
X116496796Y-71028828D01*
X117782510Y-72528828D02*
X116925367Y-72528828D01*
X117353938Y-72528828D02*
X117353938Y-71028828D01*
X117353938Y-71028828D02*
X117211081Y-71243114D01*
X117211081Y-71243114D02*
X117068224Y-71385971D01*
X117068224Y-71385971D02*
X116925367Y-71457400D01*
X118425366Y-72385971D02*
X118496795Y-72457400D01*
X118496795Y-72457400D02*
X118425366Y-72528828D01*
X118425366Y-72528828D02*
X118353938Y-72457400D01*
X118353938Y-72457400D02*
X118425366Y-72385971D01*
X118425366Y-72385971D02*
X118425366Y-72528828D01*
X119068224Y-71171685D02*
X119139652Y-71100257D01*
X119139652Y-71100257D02*
X119282510Y-71028828D01*
X119282510Y-71028828D02*
X119639652Y-71028828D01*
X119639652Y-71028828D02*
X119782510Y-71100257D01*
X119782510Y-71100257D02*
X119853938Y-71171685D01*
X119853938Y-71171685D02*
X119925367Y-71314542D01*
X119925367Y-71314542D02*
X119925367Y-71457400D01*
X119925367Y-71457400D02*
X119853938Y-71671685D01*
X119853938Y-71671685D02*
X118996795Y-72528828D01*
X118996795Y-72528828D02*
X119925367Y-72528828D01*
D11*
X100961333Y-46582818D02*
X100628000Y-46106627D01*
X100389905Y-46582818D02*
X100389905Y-45582818D01*
X100389905Y-45582818D02*
X100770857Y-45582818D01*
X100770857Y-45582818D02*
X100866095Y-45630437D01*
X100866095Y-45630437D02*
X100913714Y-45678056D01*
X100913714Y-45678056D02*
X100961333Y-45773294D01*
X100961333Y-45773294D02*
X100961333Y-45916151D01*
X100961333Y-45916151D02*
X100913714Y-46011389D01*
X100913714Y-46011389D02*
X100866095Y-46059008D01*
X100866095Y-46059008D02*
X100770857Y-46106627D01*
X100770857Y-46106627D02*
X100389905Y-46106627D01*
X101532762Y-46011389D02*
X101437524Y-45963770D01*
X101437524Y-45963770D02*
X101389905Y-45916151D01*
X101389905Y-45916151D02*
X101342286Y-45820913D01*
X101342286Y-45820913D02*
X101342286Y-45773294D01*
X101342286Y-45773294D02*
X101389905Y-45678056D01*
X101389905Y-45678056D02*
X101437524Y-45630437D01*
X101437524Y-45630437D02*
X101532762Y-45582818D01*
X101532762Y-45582818D02*
X101723238Y-45582818D01*
X101723238Y-45582818D02*
X101818476Y-45630437D01*
X101818476Y-45630437D02*
X101866095Y-45678056D01*
X101866095Y-45678056D02*
X101913714Y-45773294D01*
X101913714Y-45773294D02*
X101913714Y-45820913D01*
X101913714Y-45820913D02*
X101866095Y-45916151D01*
X101866095Y-45916151D02*
X101818476Y-45963770D01*
X101818476Y-45963770D02*
X101723238Y-46011389D01*
X101723238Y-46011389D02*
X101532762Y-46011389D01*
X101532762Y-46011389D02*
X101437524Y-46059008D01*
X101437524Y-46059008D02*
X101389905Y-46106627D01*
X101389905Y-46106627D02*
X101342286Y-46201865D01*
X101342286Y-46201865D02*
X101342286Y-46392341D01*
X101342286Y-46392341D02*
X101389905Y-46487579D01*
X101389905Y-46487579D02*
X101437524Y-46535199D01*
X101437524Y-46535199D02*
X101532762Y-46582818D01*
X101532762Y-46582818D02*
X101723238Y-46582818D01*
X101723238Y-46582818D02*
X101818476Y-46535199D01*
X101818476Y-46535199D02*
X101866095Y-46487579D01*
X101866095Y-46487579D02*
X101913714Y-46392341D01*
X101913714Y-46392341D02*
X101913714Y-46201865D01*
X101913714Y-46201865D02*
X101866095Y-46106627D01*
X101866095Y-46106627D02*
X101818476Y-46059008D01*
X101818476Y-46059008D02*
X101723238Y-46011389D01*
D12*
X88009775Y-47993152D02*
X87812884Y-48564966D01*
X87812884Y-48564966D02*
X86612075Y-48151494D01*
X87518604Y-47376302D02*
X87656427Y-46976033D01*
X88344490Y-47021069D02*
X88147599Y-47592883D01*
X88147599Y-47592883D02*
X86946790Y-47179411D01*
X86946790Y-47179411D02*
X87143681Y-46607597D01*
X88521692Y-46506436D02*
X87320883Y-46092965D01*
X87320883Y-46092965D02*
X87419329Y-45807058D01*
X87419329Y-45807058D02*
X87535578Y-45655203D01*
X87535578Y-45655203D02*
X87689319Y-45580219D01*
X87689319Y-45580219D02*
X87823371Y-45562415D01*
X87823371Y-45562415D02*
X88071785Y-45583991D01*
X88071785Y-45583991D02*
X88243329Y-45643058D01*
X88243329Y-45643058D02*
X88452366Y-45778996D01*
X88452366Y-45778996D02*
X88547039Y-45875555D01*
X88547039Y-45875555D02*
X88622024Y-46029296D01*
X88622024Y-46029296D02*
X88620138Y-46220530D01*
X88620138Y-46220530D02*
X88521692Y-46506436D01*
X87694977Y-45006519D02*
X87970624Y-44205980D01*
X87970624Y-44205980D02*
X88994231Y-45134084D01*
X126341838Y-83097032D02*
X126906431Y-82880305D01*
X126906431Y-82880305D02*
X127361559Y-84065952D01*
X126185022Y-83869795D02*
X125789806Y-84021504D01*
X125382028Y-83465469D02*
X125946622Y-83248741D01*
X125946622Y-83248741D02*
X126401749Y-84434388D01*
X126401749Y-84434388D02*
X125837155Y-84651116D01*
X124873893Y-83660523D02*
X125329021Y-84846170D01*
X125329021Y-84846170D02*
X125046724Y-84954534D01*
X125046724Y-84954534D02*
X124855673Y-84963093D01*
X124855673Y-84963093D02*
X124699409Y-84893520D01*
X124699409Y-84893520D02*
X124599604Y-84802273D01*
X124599604Y-84802273D02*
X124456453Y-84598109D01*
X124456453Y-84598109D02*
X124391435Y-84428731D01*
X124391435Y-84428731D02*
X124361204Y-84181220D01*
X124361204Y-84181220D02*
X124374318Y-84046629D01*
X124374318Y-84046629D02*
X124443891Y-83890364D01*
X124443891Y-83890364D02*
X124591596Y-83768887D01*
X124591596Y-83768887D02*
X124873893Y-83660523D01*
X123483530Y-85101137D02*
X123180112Y-84310705D01*
X123939209Y-85444448D02*
X123896415Y-84489194D01*
X123896415Y-84489194D02*
X123162443Y-84770939D01*
X140182518Y-45607021D02*
X139965791Y-45042428D01*
X139965791Y-45042428D02*
X141151438Y-44587300D01*
X140955281Y-45763837D02*
X141106990Y-46159053D01*
X140550955Y-46566831D02*
X140334227Y-46002237D01*
X140334227Y-46002237D02*
X141519874Y-45547110D01*
X141519874Y-45547110D02*
X141736602Y-46111704D01*
X140746009Y-47074966D02*
X141931656Y-46619838D01*
X141931656Y-46619838D02*
X142040020Y-46902135D01*
X142040020Y-46902135D02*
X142048579Y-47093186D01*
X142048579Y-47093186D02*
X141979006Y-47249450D01*
X141979006Y-47249450D02*
X141887759Y-47349255D01*
X141887759Y-47349255D02*
X141683595Y-47492406D01*
X141683595Y-47492406D02*
X141514217Y-47557424D01*
X141514217Y-47557424D02*
X141266706Y-47587655D01*
X141266706Y-47587655D02*
X141132115Y-47574541D01*
X141132115Y-47574541D02*
X140975850Y-47504968D01*
X140975850Y-47504968D02*
X140854373Y-47357263D01*
X140854373Y-47357263D02*
X140746009Y-47074966D01*
X142252192Y-47792372D02*
X142330324Y-47827158D01*
X142330324Y-47827158D02*
X142430129Y-47918404D01*
X142430129Y-47918404D02*
X142538493Y-48200701D01*
X142538493Y-48200701D02*
X142525379Y-48335293D01*
X142525379Y-48335293D02*
X142490592Y-48413425D01*
X142490592Y-48413425D02*
X142399346Y-48513230D01*
X142399346Y-48513230D02*
X142286427Y-48556575D01*
X142286427Y-48556575D02*
X142095377Y-48565134D01*
X142095377Y-48565134D02*
X141157791Y-48147694D01*
X141157791Y-48147694D02*
X141439537Y-48881666D01*
X124457720Y-30893180D02*
X123905243Y-30647201D01*
X123905243Y-30647201D02*
X124421798Y-29486999D01*
X125115031Y-30457640D02*
X125501765Y-30629825D01*
X125396932Y-31311344D02*
X124844454Y-31065365D01*
X124844454Y-31065365D02*
X125361010Y-29905163D01*
X125361010Y-29905163D02*
X125913488Y-30151141D01*
X125894162Y-31532725D02*
X126410718Y-30372522D01*
X126410718Y-30372522D02*
X126686956Y-30495512D01*
X126686956Y-30495512D02*
X126828102Y-30624553D01*
X126828102Y-30624553D02*
X126889401Y-30784245D01*
X126889401Y-30784245D02*
X126895453Y-30919338D01*
X126895453Y-30919338D02*
X126852310Y-31164927D01*
X126852310Y-31164927D02*
X126778516Y-31330670D01*
X126778516Y-31330670D02*
X126624877Y-31527063D01*
X126624877Y-31527063D02*
X126520433Y-31612961D01*
X126520433Y-31612961D02*
X126360742Y-31674260D01*
X126360742Y-31674260D02*
X126170401Y-31655715D01*
X126170401Y-31655715D02*
X125894162Y-31532725D01*
X127662090Y-32319857D02*
X126999117Y-32024683D01*
X127330604Y-32172270D02*
X127847159Y-31012067D01*
X127847159Y-31012067D02*
X127662870Y-31128615D01*
X127662870Y-31128615D02*
X127503179Y-31189915D01*
X127503179Y-31189915D02*
X127368085Y-31195967D01*
X88532218Y-69311819D02*
X88698913Y-69893153D01*
X88698913Y-69893153D02*
X87478110Y-70243212D01*
X87776063Y-69088249D02*
X87659377Y-68681315D01*
X88248836Y-68323550D02*
X88415531Y-68904885D01*
X88415531Y-68904885D02*
X87194729Y-69254944D01*
X87194729Y-69254944D02*
X87028034Y-68673610D01*
X88098811Y-67800349D02*
X86878008Y-68150408D01*
X86878008Y-68150408D02*
X86794661Y-67859741D01*
X86794661Y-67859741D02*
X86802786Y-67668671D01*
X86802786Y-67668671D02*
X86885714Y-67519065D01*
X86885714Y-67519065D02*
X86985311Y-67427593D01*
X86985311Y-67427593D02*
X87201175Y-67302782D01*
X87201175Y-67302782D02*
X87375576Y-67252773D01*
X87375576Y-67252773D02*
X87624779Y-67244228D01*
X87624779Y-67244228D02*
X87757715Y-67269023D01*
X87757715Y-67269023D02*
X87907321Y-67351951D01*
X87907321Y-67351951D02*
X88015463Y-67509682D01*
X88015463Y-67509682D02*
X88098811Y-67800349D01*
X86377923Y-66406405D02*
X86444601Y-66638939D01*
X86444601Y-66638939D02*
X86536074Y-66738536D01*
X86536074Y-66738536D02*
X86610877Y-66780000D01*
X86610877Y-66780000D02*
X86818616Y-66846258D01*
X86818616Y-66846258D02*
X87067819Y-66837714D01*
X87067819Y-66837714D02*
X87532887Y-66704358D01*
X87532887Y-66704358D02*
X87632484Y-66612886D01*
X87632484Y-66612886D02*
X87673948Y-66538083D01*
X87673948Y-66538083D02*
X87698743Y-66405146D01*
X87698743Y-66405146D02*
X87632065Y-66172612D01*
X87632065Y-66172612D02*
X87540592Y-66073015D01*
X87540592Y-66073015D02*
X87465789Y-66031551D01*
X87465789Y-66031551D02*
X87332853Y-66006757D01*
X87332853Y-66006757D02*
X87042186Y-66090104D01*
X87042186Y-66090104D02*
X86942588Y-66181577D01*
X86942588Y-66181577D02*
X86901124Y-66256379D01*
X86901124Y-66256379D02*
X86876330Y-66389316D01*
X86876330Y-66389316D02*
X86943008Y-66621850D01*
X86943008Y-66621850D02*
X87034480Y-66721447D01*
X87034480Y-66721447D02*
X87109283Y-66762911D01*
X87109283Y-66762911D02*
X87242220Y-66787705D01*
D11*
X94482819Y-41770857D02*
X94006628Y-42104190D01*
X94482819Y-42342285D02*
X93482819Y-42342285D01*
X93482819Y-42342285D02*
X93482819Y-41961333D01*
X93482819Y-41961333D02*
X93530438Y-41866095D01*
X93530438Y-41866095D02*
X93578057Y-41818476D01*
X93578057Y-41818476D02*
X93673295Y-41770857D01*
X93673295Y-41770857D02*
X93816152Y-41770857D01*
X93816152Y-41770857D02*
X93911390Y-41818476D01*
X93911390Y-41818476D02*
X93959009Y-41866095D01*
X93959009Y-41866095D02*
X94006628Y-41961333D01*
X94006628Y-41961333D02*
X94006628Y-42342285D01*
X94482819Y-40818476D02*
X94482819Y-41389904D01*
X94482819Y-41104190D02*
X93482819Y-41104190D01*
X93482819Y-41104190D02*
X93625676Y-41199428D01*
X93625676Y-41199428D02*
X93720914Y-41294666D01*
X93720914Y-41294666D02*
X93768533Y-41389904D01*
X94482819Y-39866095D02*
X94482819Y-40437523D01*
X94482819Y-40151809D02*
X93482819Y-40151809D01*
X93482819Y-40151809D02*
X93625676Y-40247047D01*
X93625676Y-40247047D02*
X93720914Y-40342285D01*
X93720914Y-40342285D02*
X93768533Y-40437523D01*
D12*
X104684535Y-84015329D02*
X105237012Y-84261308D01*
X105237012Y-84261308D02*
X104720457Y-85421510D01*
X104027224Y-84450869D02*
X103640490Y-84278684D01*
X103745323Y-83597165D02*
X104297801Y-83843144D01*
X104297801Y-83843144D02*
X103781245Y-85003346D01*
X103781245Y-85003346D02*
X103228767Y-84757368D01*
X103248093Y-83375784D02*
X102731537Y-84535987D01*
X102731537Y-84535987D02*
X102455299Y-84412997D01*
X102455299Y-84412997D02*
X102314153Y-84283956D01*
X102314153Y-84283956D02*
X102252854Y-84124264D01*
X102252854Y-84124264D02*
X102246802Y-83989171D01*
X102246802Y-83989171D02*
X102289945Y-83743582D01*
X102289945Y-83743582D02*
X102363739Y-83577839D01*
X102363739Y-83577839D02*
X102517378Y-83381446D01*
X102517378Y-83381446D02*
X102621822Y-83295548D01*
X102621822Y-83295548D02*
X102781513Y-83234249D01*
X102781513Y-83234249D02*
X102971854Y-83252794D01*
X102971854Y-83252794D02*
X103248093Y-83375784D01*
X101018857Y-83773452D02*
X101571335Y-84019431D01*
X101571335Y-84019431D02*
X101872561Y-83491551D01*
X101872561Y-83491551D02*
X101792716Y-83522201D01*
X101792716Y-83522201D02*
X101657622Y-83528253D01*
X101657622Y-83528253D02*
X101381383Y-83405264D01*
X101381383Y-83405264D02*
X101295486Y-83300820D01*
X101295486Y-83300820D02*
X101264836Y-83220975D01*
X101264836Y-83220975D02*
X101258784Y-83085881D01*
X101258784Y-83085881D02*
X101381773Y-82809643D01*
X101381773Y-82809643D02*
X101486217Y-82723745D01*
X101486217Y-82723745D02*
X101566063Y-82693095D01*
X101566063Y-82693095D02*
X101701156Y-82687043D01*
X101701156Y-82687043D02*
X101977395Y-82810033D01*
X101977395Y-82810033D02*
X102063292Y-82914476D01*
X102063292Y-82914476D02*
X102093942Y-82994322D01*
X88988237Y-50202318D02*
X88988237Y-48932318D01*
X90318714Y-50081365D02*
X90258238Y-50141842D01*
X90258238Y-50141842D02*
X90076809Y-50202318D01*
X90076809Y-50202318D02*
X89955857Y-50202318D01*
X89955857Y-50202318D02*
X89774428Y-50141842D01*
X89774428Y-50141842D02*
X89653476Y-50020889D01*
X89653476Y-50020889D02*
X89592999Y-49899937D01*
X89592999Y-49899937D02*
X89532523Y-49658032D01*
X89532523Y-49658032D02*
X89532523Y-49476603D01*
X89532523Y-49476603D02*
X89592999Y-49234699D01*
X89592999Y-49234699D02*
X89653476Y-49113746D01*
X89653476Y-49113746D02*
X89774428Y-48992794D01*
X89774428Y-48992794D02*
X89955857Y-48932318D01*
X89955857Y-48932318D02*
X90076809Y-48932318D01*
X90076809Y-48932318D02*
X90258238Y-48992794D01*
X90258238Y-48992794D02*
X90318714Y-49053270D01*
X90742047Y-48932318D02*
X91528238Y-48932318D01*
X91528238Y-48932318D02*
X91104904Y-49416127D01*
X91104904Y-49416127D02*
X91286333Y-49416127D01*
X91286333Y-49416127D02*
X91407285Y-49476603D01*
X91407285Y-49476603D02*
X91467761Y-49537080D01*
X91467761Y-49537080D02*
X91528238Y-49658032D01*
X91528238Y-49658032D02*
X91528238Y-49960413D01*
X91528238Y-49960413D02*
X91467761Y-50081365D01*
X91467761Y-50081365D02*
X91407285Y-50141842D01*
X91407285Y-50141842D02*
X91286333Y-50202318D01*
X91286333Y-50202318D02*
X90923476Y-50202318D01*
X90923476Y-50202318D02*
X90802523Y-50141842D01*
X90802523Y-50141842D02*
X90742047Y-50081365D01*
D11*
X98628834Y-55812579D02*
X98581215Y-55860199D01*
X98581215Y-55860199D02*
X98438358Y-55907818D01*
X98438358Y-55907818D02*
X98343120Y-55907818D01*
X98343120Y-55907818D02*
X98200263Y-55860199D01*
X98200263Y-55860199D02*
X98105025Y-55764960D01*
X98105025Y-55764960D02*
X98057406Y-55669722D01*
X98057406Y-55669722D02*
X98009787Y-55479246D01*
X98009787Y-55479246D02*
X98009787Y-55336389D01*
X98009787Y-55336389D02*
X98057406Y-55145913D01*
X98057406Y-55145913D02*
X98105025Y-55050675D01*
X98105025Y-55050675D02*
X98200263Y-54955437D01*
X98200263Y-54955437D02*
X98343120Y-54907818D01*
X98343120Y-54907818D02*
X98438358Y-54907818D01*
X98438358Y-54907818D02*
X98581215Y-54955437D01*
X98581215Y-54955437D02*
X98628834Y-55003056D01*
X98962168Y-54907818D02*
X99581215Y-54907818D01*
X99581215Y-54907818D02*
X99247882Y-55288770D01*
X99247882Y-55288770D02*
X99390739Y-55288770D01*
X99390739Y-55288770D02*
X99485977Y-55336389D01*
X99485977Y-55336389D02*
X99533596Y-55384008D01*
X99533596Y-55384008D02*
X99581215Y-55479246D01*
X99581215Y-55479246D02*
X99581215Y-55717341D01*
X99581215Y-55717341D02*
X99533596Y-55812579D01*
X99533596Y-55812579D02*
X99485977Y-55860199D01*
X99485977Y-55860199D02*
X99390739Y-55907818D01*
X99390739Y-55907818D02*
X99105025Y-55907818D01*
X99105025Y-55907818D02*
X99009787Y-55860199D01*
X99009787Y-55860199D02*
X98962168Y-55812579D01*
X112361333Y-87082819D02*
X112028000Y-86606628D01*
X111789905Y-87082819D02*
X111789905Y-86082819D01*
X111789905Y-86082819D02*
X112170857Y-86082819D01*
X112170857Y-86082819D02*
X112266095Y-86130438D01*
X112266095Y-86130438D02*
X112313714Y-86178057D01*
X112313714Y-86178057D02*
X112361333Y-86273295D01*
X112361333Y-86273295D02*
X112361333Y-86416152D01*
X112361333Y-86416152D02*
X112313714Y-86511390D01*
X112313714Y-86511390D02*
X112266095Y-86559009D01*
X112266095Y-86559009D02*
X112170857Y-86606628D01*
X112170857Y-86606628D02*
X111789905Y-86606628D01*
X113218476Y-86416152D02*
X113218476Y-87082819D01*
X112980381Y-86035200D02*
X112742286Y-86749485D01*
X112742286Y-86749485D02*
X113361333Y-86749485D01*
X96082819Y-41770857D02*
X95606628Y-42104190D01*
X96082819Y-42342285D02*
X95082819Y-42342285D01*
X95082819Y-42342285D02*
X95082819Y-41961333D01*
X95082819Y-41961333D02*
X95130438Y-41866095D01*
X95130438Y-41866095D02*
X95178057Y-41818476D01*
X95178057Y-41818476D02*
X95273295Y-41770857D01*
X95273295Y-41770857D02*
X95416152Y-41770857D01*
X95416152Y-41770857D02*
X95511390Y-41818476D01*
X95511390Y-41818476D02*
X95559009Y-41866095D01*
X95559009Y-41866095D02*
X95606628Y-41961333D01*
X95606628Y-41961333D02*
X95606628Y-42342285D01*
X96082819Y-40818476D02*
X96082819Y-41389904D01*
X96082819Y-41104190D02*
X95082819Y-41104190D01*
X95082819Y-41104190D02*
X95225676Y-41199428D01*
X95225676Y-41199428D02*
X95320914Y-41294666D01*
X95320914Y-41294666D02*
X95368533Y-41389904D01*
X95082819Y-40199428D02*
X95082819Y-40104190D01*
X95082819Y-40104190D02*
X95130438Y-40008952D01*
X95130438Y-40008952D02*
X95178057Y-39961333D01*
X95178057Y-39961333D02*
X95273295Y-39913714D01*
X95273295Y-39913714D02*
X95463771Y-39866095D01*
X95463771Y-39866095D02*
X95701866Y-39866095D01*
X95701866Y-39866095D02*
X95892342Y-39913714D01*
X95892342Y-39913714D02*
X95987580Y-39961333D01*
X95987580Y-39961333D02*
X96035200Y-40008952D01*
X96035200Y-40008952D02*
X96082819Y-40104190D01*
X96082819Y-40104190D02*
X96082819Y-40199428D01*
X96082819Y-40199428D02*
X96035200Y-40294666D01*
X96035200Y-40294666D02*
X95987580Y-40342285D01*
X95987580Y-40342285D02*
X95892342Y-40389904D01*
X95892342Y-40389904D02*
X95701866Y-40437523D01*
X95701866Y-40437523D02*
X95463771Y-40437523D01*
X95463771Y-40437523D02*
X95273295Y-40389904D01*
X95273295Y-40389904D02*
X95178057Y-40342285D01*
X95178057Y-40342285D02*
X95130438Y-40294666D01*
X95130438Y-40294666D02*
X95082819Y-40199428D01*
D12*
X141145219Y-66774017D02*
X141391198Y-66221540D01*
X141391198Y-66221540D02*
X142551400Y-66738095D01*
X141580759Y-67431328D02*
X141408574Y-67818062D01*
X140727055Y-67713229D02*
X140973034Y-67160751D01*
X140973034Y-67160751D02*
X142133236Y-67677307D01*
X142133236Y-67677307D02*
X141887258Y-68229785D01*
X140505674Y-68210459D02*
X141665877Y-68727015D01*
X141665877Y-68727015D02*
X141542887Y-69003253D01*
X141542887Y-69003253D02*
X141413846Y-69144399D01*
X141413846Y-69144399D02*
X141254154Y-69205698D01*
X141254154Y-69205698D02*
X141119061Y-69211750D01*
X141119061Y-69211750D02*
X140873472Y-69168607D01*
X140873472Y-69168607D02*
X140707729Y-69094813D01*
X140707729Y-69094813D02*
X140511336Y-68941174D01*
X140511336Y-68941174D02*
X140425438Y-68836730D01*
X140425438Y-68836730D02*
X140364139Y-68677039D01*
X140364139Y-68677039D02*
X140382684Y-68486698D01*
X140382684Y-68486698D02*
X140505674Y-68210459D01*
X141198517Y-69776722D02*
X140878744Y-70494943D01*
X140878744Y-70494943D02*
X140608947Y-69911425D01*
X140608947Y-69911425D02*
X140535154Y-70077169D01*
X140535154Y-70077169D02*
X140430710Y-70163066D01*
X140430710Y-70163066D02*
X140350865Y-70193716D01*
X140350865Y-70193716D02*
X140215771Y-70199768D01*
X140215771Y-70199768D02*
X139939533Y-70076779D01*
X139939533Y-70076779D02*
X139853635Y-69972335D01*
X139853635Y-69972335D02*
X139822985Y-69892489D01*
X139822985Y-69892489D02*
X139816933Y-69757396D01*
X139816933Y-69757396D02*
X139964520Y-69425910D01*
X139964520Y-69425910D02*
X140068964Y-69340012D01*
X140068964Y-69340012D02*
X140148810Y-69309362D01*
D11*
X93461333Y-58287580D02*
X93413714Y-58335200D01*
X93413714Y-58335200D02*
X93270857Y-58382819D01*
X93270857Y-58382819D02*
X93175619Y-58382819D01*
X93175619Y-58382819D02*
X93032762Y-58335200D01*
X93032762Y-58335200D02*
X92937524Y-58239961D01*
X92937524Y-58239961D02*
X92889905Y-58144723D01*
X92889905Y-58144723D02*
X92842286Y-57954247D01*
X92842286Y-57954247D02*
X92842286Y-57811390D01*
X92842286Y-57811390D02*
X92889905Y-57620914D01*
X92889905Y-57620914D02*
X92937524Y-57525676D01*
X92937524Y-57525676D02*
X93032762Y-57430438D01*
X93032762Y-57430438D02*
X93175619Y-57382819D01*
X93175619Y-57382819D02*
X93270857Y-57382819D01*
X93270857Y-57382819D02*
X93413714Y-57430438D01*
X93413714Y-57430438D02*
X93461333Y-57478057D01*
X93842286Y-57478057D02*
X93889905Y-57430438D01*
X93889905Y-57430438D02*
X93985143Y-57382819D01*
X93985143Y-57382819D02*
X94223238Y-57382819D01*
X94223238Y-57382819D02*
X94318476Y-57430438D01*
X94318476Y-57430438D02*
X94366095Y-57478057D01*
X94366095Y-57478057D02*
X94413714Y-57573295D01*
X94413714Y-57573295D02*
X94413714Y-57668533D01*
X94413714Y-57668533D02*
X94366095Y-57811390D01*
X94366095Y-57811390D02*
X93794667Y-58382819D01*
X93794667Y-58382819D02*
X94413714Y-58382819D01*
D12*
X102800414Y-31811475D02*
X102235821Y-32028202D01*
X102235821Y-32028202D02*
X101780693Y-30842555D01*
X102957230Y-31038712D02*
X103352446Y-30887003D01*
X103760224Y-31443038D02*
X103195630Y-31659766D01*
X103195630Y-31659766D02*
X102740503Y-30474119D01*
X102740503Y-30474119D02*
X103305097Y-30257391D01*
X104268359Y-31247984D02*
X103813231Y-30062337D01*
X103813231Y-30062337D02*
X104095528Y-29953973D01*
X104095528Y-29953973D02*
X104286579Y-29945414D01*
X104286579Y-29945414D02*
X104442843Y-30014987D01*
X104442843Y-30014987D02*
X104542648Y-30106234D01*
X104542648Y-30106234D02*
X104685799Y-30310398D01*
X104685799Y-30310398D02*
X104750817Y-30479776D01*
X104750817Y-30479776D02*
X104781048Y-30727287D01*
X104781048Y-30727287D02*
X104767934Y-30861878D01*
X104767934Y-30861878D02*
X104698361Y-31018143D01*
X104698361Y-31018143D02*
X104550656Y-31139620D01*
X104550656Y-31139620D02*
X104268359Y-31247984D01*
X105363311Y-30050326D02*
X105228720Y-30037212D01*
X105228720Y-30037212D02*
X105150588Y-30002425D01*
X105150588Y-30002425D02*
X105050783Y-29911179D01*
X105050783Y-29911179D02*
X105029110Y-29854720D01*
X105029110Y-29854720D02*
X105042224Y-29720128D01*
X105042224Y-29720128D02*
X105077011Y-29641996D01*
X105077011Y-29641996D02*
X105168257Y-29542191D01*
X105168257Y-29542191D02*
X105394094Y-29455500D01*
X105394094Y-29455500D02*
X105528686Y-29468614D01*
X105528686Y-29468614D02*
X105606818Y-29503401D01*
X105606818Y-29503401D02*
X105706623Y-29594647D01*
X105706623Y-29594647D02*
X105728295Y-29651106D01*
X105728295Y-29651106D02*
X105715181Y-29785698D01*
X105715181Y-29785698D02*
X105680395Y-29863830D01*
X105680395Y-29863830D02*
X105589149Y-29963635D01*
X105589149Y-29963635D02*
X105363311Y-30050326D01*
X105363311Y-30050326D02*
X105272065Y-30150130D01*
X105272065Y-30150130D02*
X105237279Y-30228263D01*
X105237279Y-30228263D02*
X105224165Y-30362854D01*
X105224165Y-30362854D02*
X105310855Y-30588692D01*
X105310855Y-30588692D02*
X105410660Y-30679938D01*
X105410660Y-30679938D02*
X105488792Y-30714724D01*
X105488792Y-30714724D02*
X105623384Y-30727838D01*
X105623384Y-30727838D02*
X105849222Y-30641147D01*
X105849222Y-30641147D02*
X105940468Y-30541342D01*
X105940468Y-30541342D02*
X105975254Y-30463210D01*
X105975254Y-30463210D02*
X105988368Y-30328619D01*
X105988368Y-30328619D02*
X105901677Y-30102781D01*
X105901677Y-30102781D02*
X105801872Y-30011535D01*
X105801872Y-30011535D02*
X105723740Y-29976749D01*
X105723740Y-29976749D02*
X105589149Y-29963635D01*
D11*
X115727333Y-87082819D02*
X115394000Y-86606628D01*
X115155905Y-87082819D02*
X115155905Y-86082819D01*
X115155905Y-86082819D02*
X115536857Y-86082819D01*
X115536857Y-86082819D02*
X115632095Y-86130438D01*
X115632095Y-86130438D02*
X115679714Y-86178057D01*
X115679714Y-86178057D02*
X115727333Y-86273295D01*
X115727333Y-86273295D02*
X115727333Y-86416152D01*
X115727333Y-86416152D02*
X115679714Y-86511390D01*
X115679714Y-86511390D02*
X115632095Y-86559009D01*
X115632095Y-86559009D02*
X115536857Y-86606628D01*
X115536857Y-86606628D02*
X115155905Y-86606628D01*
X116060667Y-86082819D02*
X116679714Y-86082819D01*
X116679714Y-86082819D02*
X116346381Y-86463771D01*
X116346381Y-86463771D02*
X116489238Y-86463771D01*
X116489238Y-86463771D02*
X116584476Y-86511390D01*
X116584476Y-86511390D02*
X116632095Y-86559009D01*
X116632095Y-86559009D02*
X116679714Y-86654247D01*
X116679714Y-86654247D02*
X116679714Y-86892342D01*
X116679714Y-86892342D02*
X116632095Y-86987580D01*
X116632095Y-86987580D02*
X116584476Y-87035200D01*
X116584476Y-87035200D02*
X116489238Y-87082819D01*
X116489238Y-87082819D02*
X116203524Y-87082819D01*
X116203524Y-87082819D02*
X116108286Y-87035200D01*
X116108286Y-87035200D02*
X116060667Y-86987580D01*
D12*
X112764904Y-55002318D02*
X112764904Y-53732318D01*
X112764904Y-53732318D02*
X113188238Y-54639461D01*
X113188238Y-54639461D02*
X113611571Y-53732318D01*
X113611571Y-53732318D02*
X113611571Y-55002318D01*
X114216333Y-55002318D02*
X114216333Y-53732318D01*
X114942048Y-55002318D02*
X114397762Y-54276603D01*
X114942048Y-53732318D02*
X114216333Y-54458032D01*
X116151572Y-55002318D02*
X115425857Y-55002318D01*
X115788714Y-55002318D02*
X115788714Y-53732318D01*
X115788714Y-53732318D02*
X115667762Y-53913746D01*
X115667762Y-53913746D02*
X115546810Y-54034699D01*
X115546810Y-54034699D02*
X115425857Y-54095175D01*
D11*
X96061333Y-56428580D02*
X96013714Y-56476200D01*
X96013714Y-56476200D02*
X95870857Y-56523819D01*
X95870857Y-56523819D02*
X95775619Y-56523819D01*
X95775619Y-56523819D02*
X95632762Y-56476200D01*
X95632762Y-56476200D02*
X95537524Y-56380961D01*
X95537524Y-56380961D02*
X95489905Y-56285723D01*
X95489905Y-56285723D02*
X95442286Y-56095247D01*
X95442286Y-56095247D02*
X95442286Y-55952390D01*
X95442286Y-55952390D02*
X95489905Y-55761914D01*
X95489905Y-55761914D02*
X95537524Y-55666676D01*
X95537524Y-55666676D02*
X95632762Y-55571438D01*
X95632762Y-55571438D02*
X95775619Y-55523819D01*
X95775619Y-55523819D02*
X95870857Y-55523819D01*
X95870857Y-55523819D02*
X96013714Y-55571438D01*
X96013714Y-55571438D02*
X96061333Y-55619057D01*
X96918476Y-55857152D02*
X96918476Y-56523819D01*
X96680381Y-55476200D02*
X96442286Y-56190485D01*
X96442286Y-56190485D02*
X97061333Y-56190485D01*
X114166334Y-62087580D02*
X114118715Y-62135200D01*
X114118715Y-62135200D02*
X113975858Y-62182819D01*
X113975858Y-62182819D02*
X113880620Y-62182819D01*
X113880620Y-62182819D02*
X113737763Y-62135200D01*
X113737763Y-62135200D02*
X113642525Y-62039961D01*
X113642525Y-62039961D02*
X113594906Y-61944723D01*
X113594906Y-61944723D02*
X113547287Y-61754247D01*
X113547287Y-61754247D02*
X113547287Y-61611390D01*
X113547287Y-61611390D02*
X113594906Y-61420914D01*
X113594906Y-61420914D02*
X113642525Y-61325676D01*
X113642525Y-61325676D02*
X113737763Y-61230438D01*
X113737763Y-61230438D02*
X113880620Y-61182819D01*
X113880620Y-61182819D02*
X113975858Y-61182819D01*
X113975858Y-61182819D02*
X114118715Y-61230438D01*
X114118715Y-61230438D02*
X114166334Y-61278057D01*
X114642525Y-62182819D02*
X114833001Y-62182819D01*
X114833001Y-62182819D02*
X114928239Y-62135200D01*
X114928239Y-62135200D02*
X114975858Y-62087580D01*
X114975858Y-62087580D02*
X115071096Y-61944723D01*
X115071096Y-61944723D02*
X115118715Y-61754247D01*
X115118715Y-61754247D02*
X115118715Y-61373295D01*
X115118715Y-61373295D02*
X115071096Y-61278057D01*
X115071096Y-61278057D02*
X115023477Y-61230438D01*
X115023477Y-61230438D02*
X114928239Y-61182819D01*
X114928239Y-61182819D02*
X114737763Y-61182819D01*
X114737763Y-61182819D02*
X114642525Y-61230438D01*
X114642525Y-61230438D02*
X114594906Y-61278057D01*
X114594906Y-61278057D02*
X114547287Y-61373295D01*
X114547287Y-61373295D02*
X114547287Y-61611390D01*
X114547287Y-61611390D02*
X114594906Y-61706628D01*
X114594906Y-61706628D02*
X114642525Y-61754247D01*
X114642525Y-61754247D02*
X114737763Y-61801866D01*
X114737763Y-61801866D02*
X114928239Y-61801866D01*
X114928239Y-61801866D02*
X115023477Y-61754247D01*
X115023477Y-61754247D02*
X115071096Y-61706628D01*
X115071096Y-61706628D02*
X115118715Y-61611390D01*
X98628833Y-46412580D02*
X98581214Y-46460200D01*
X98581214Y-46460200D02*
X98438357Y-46507819D01*
X98438357Y-46507819D02*
X98343119Y-46507819D01*
X98343119Y-46507819D02*
X98200262Y-46460200D01*
X98200262Y-46460200D02*
X98105024Y-46364961D01*
X98105024Y-46364961D02*
X98057405Y-46269723D01*
X98057405Y-46269723D02*
X98009786Y-46079247D01*
X98009786Y-46079247D02*
X98009786Y-45936390D01*
X98009786Y-45936390D02*
X98057405Y-45745914D01*
X98057405Y-45745914D02*
X98105024Y-45650676D01*
X98105024Y-45650676D02*
X98200262Y-45555438D01*
X98200262Y-45555438D02*
X98343119Y-45507819D01*
X98343119Y-45507819D02*
X98438357Y-45507819D01*
X98438357Y-45507819D02*
X98581214Y-45555438D01*
X98581214Y-45555438D02*
X98628833Y-45603057D01*
X99581214Y-46507819D02*
X99009786Y-46507819D01*
X99295500Y-46507819D02*
X99295500Y-45507819D01*
X99295500Y-45507819D02*
X99200262Y-45650676D01*
X99200262Y-45650676D02*
X99105024Y-45745914D01*
X99105024Y-45745914D02*
X99009786Y-45793533D01*
D13*
%TO.C,R8*%
X101650500Y-48573276D02*
X101650500Y-49082724D01*
X100605500Y-48573276D02*
X100605500Y-49082724D01*
%TO.C,LED7*%
X88861860Y-47204685D02*
X89219985Y-46164617D01*
X88802981Y-46761365D02*
X89089757Y-46542825D01*
X88897535Y-46793922D02*
X89040923Y-46684651D01*
X88992087Y-46826479D02*
X89135475Y-46717208D01*
X89181191Y-46891593D02*
X88802981Y-46761365D01*
X88900654Y-46477710D02*
X89278862Y-46607937D01*
X89386572Y-46909430D02*
X89735342Y-46817998D01*
X89481125Y-46941987D02*
X89702785Y-46912549D01*
X89089757Y-46542825D02*
X89181191Y-46891593D01*
X89702785Y-46912549D02*
X89764780Y-47039658D01*
X89953884Y-47104771D02*
X89386572Y-46909430D01*
X89735342Y-46817998D02*
X89953884Y-47104771D01*
%TO.C,LED4*%
X124853286Y-83390231D02*
X124709940Y-83016798D01*
X124781614Y-83203515D02*
X124990014Y-82909288D01*
X125133363Y-83282721D02*
X124781614Y-83203515D01*
X125097525Y-83189362D02*
X124921652Y-83149760D01*
X125061687Y-83096004D02*
X124885815Y-83056402D01*
X124577434Y-82532090D02*
X124656640Y-82180343D01*
X124990014Y-82909288D02*
X125133363Y-83282721D01*
X124871661Y-82740491D02*
X124577434Y-82532090D01*
X124670793Y-82496253D02*
X124728315Y-82367057D01*
X124835824Y-82647132D02*
X124670793Y-82496253D01*
X125435118Y-82952656D02*
X124408182Y-83346861D01*
X124656640Y-82180343D02*
X124871661Y-82740491D01*
%TO.C,LED2*%
X139274470Y-47362065D02*
X139834618Y-47147044D01*
X139626217Y-47441271D02*
X139274470Y-47362065D01*
X139590380Y-47347912D02*
X139461184Y-47290390D01*
X139741259Y-47182881D02*
X139590380Y-47347912D01*
X139834618Y-47147044D02*
X139626217Y-47441271D01*
X140003415Y-47028691D02*
X140376848Y-46885342D01*
X140297642Y-47237091D02*
X140003415Y-47028691D01*
X140190131Y-46957018D02*
X140150529Y-47132890D01*
X140484358Y-47165419D02*
X140110925Y-47308765D01*
X140283489Y-46921180D02*
X140243887Y-47097053D01*
X140046783Y-46583587D02*
X140440988Y-47610523D01*
X140376848Y-46885342D02*
X140297642Y-47237091D01*
%TO.C,LED1*%
X124892783Y-32842048D02*
X125136826Y-32293920D01*
X125106159Y-32608657D02*
X124974130Y-32659338D01*
X125197513Y-32649331D02*
X124892783Y-32842048D01*
X125096152Y-32385274D02*
X125106159Y-32608657D01*
X125136826Y-32293920D02*
X125197513Y-32649331D01*
X125172496Y-32090875D02*
X125335190Y-31725456D01*
X124888426Y-31745471D02*
X125893324Y-32192881D01*
X125253842Y-31908165D02*
X125350201Y-32060530D01*
X125294516Y-31816810D02*
X125390876Y-31969176D01*
X125527906Y-32030185D02*
X125172496Y-32090875D01*
X125335190Y-31725456D02*
X125527906Y-32030185D01*
X125609253Y-31847479D02*
X125446560Y-32212896D01*
%TO.C,LED6*%
X89543943Y-67590099D02*
X88967185Y-67755483D01*
X89200436Y-67480539D02*
X89543943Y-67590099D01*
X89228000Y-67576665D02*
X89351691Y-67645228D01*
X89063313Y-67727919D02*
X89228000Y-67576665D01*
X88967185Y-67755483D02*
X89200436Y-67480539D01*
X88788714Y-67858672D02*
X88404210Y-67968928D01*
X88513771Y-67625422D02*
X88788714Y-67858672D01*
X88596463Y-67913801D02*
X88651243Y-67742047D01*
X88321518Y-67680550D02*
X88706024Y-67570294D01*
X88500336Y-67941364D02*
X88555117Y-67769612D01*
X88404210Y-67968928D02*
X88513771Y-67625422D01*
X88706717Y-68298305D02*
X88403516Y-67240918D01*
%TO.C,R11*%
X93455500Y-44398276D02*
X93455500Y-44907724D01*
X94500500Y-44398276D02*
X94500500Y-44907724D01*
%TO.C,LED5*%
X103503583Y-83077097D02*
X103666276Y-82711680D01*
X103777646Y-83199120D02*
X103584930Y-82894391D01*
X103584930Y-82894391D02*
X103940340Y-82833701D01*
X103818320Y-83107766D02*
X103721960Y-82955400D01*
X103858994Y-83016411D02*
X103762635Y-82864046D01*
X104224410Y-83179105D02*
X103219512Y-82731695D01*
X103940340Y-82833701D02*
X103777646Y-83199120D01*
X103976010Y-82630656D02*
X103915323Y-82275245D01*
X104016684Y-82539302D02*
X104006677Y-82315919D01*
X103915323Y-82275245D02*
X104220053Y-82082528D01*
X104006677Y-82315919D02*
X104138706Y-82265238D01*
X104220053Y-82082528D02*
X103976010Y-82630656D01*
D14*
%TO.C,IC3*%
X96878000Y-51653000D02*
G75*
G02*
X96628000Y-51653000I-125000J0D01*
G01*
X96628000Y-51653000D02*
G75*
G02*
X96878000Y-51653000I125000J0D01*
G01*
D13*
%TO.C,C3*%
X98285500Y-52506733D02*
X98285500Y-52799267D01*
X99305500Y-52506733D02*
X99305500Y-52799267D01*
%TO.C,R4*%
X111939500Y-84682724D02*
X111939500Y-84173276D01*
X112984500Y-84682724D02*
X112984500Y-84173276D01*
%TO.C,R10*%
X95055500Y-44398276D02*
X95055500Y-44907724D01*
X96100500Y-44398276D02*
X96100500Y-44907724D01*
%TO.C,LED3*%
X139387326Y-67819354D02*
X139194609Y-67514624D01*
X139194609Y-67514624D02*
X139742737Y-67758667D01*
X139428000Y-67728000D02*
X139377319Y-67595971D01*
X140006472Y-68149747D02*
X139945782Y-67794337D01*
X139651383Y-67717993D02*
X139428000Y-67728000D01*
X140189178Y-68231094D02*
X139823761Y-68068401D01*
X139742737Y-67758667D02*
X139387326Y-67819354D01*
X139945782Y-67794337D02*
X140311201Y-67957031D01*
X140128492Y-67875683D02*
X139976127Y-67972042D01*
X140219847Y-67916357D02*
X140067481Y-68012717D01*
X140311201Y-67957031D02*
X140006472Y-68149747D01*
X140291186Y-67510267D02*
X139843776Y-68515165D01*
%TO.C,C2*%
X93118000Y-55044233D02*
X93118000Y-55336767D01*
X94138000Y-55044233D02*
X94138000Y-55336767D01*
%TO.C,LED8*%
X104456191Y-32744236D02*
X104241170Y-32184088D01*
X103677713Y-31971923D02*
X104704649Y-31577718D01*
X104277007Y-32277447D02*
X104442038Y-32428326D01*
X104442038Y-32428326D02*
X104384516Y-32557522D01*
X104241170Y-32184088D02*
X104535397Y-32392489D01*
X104122817Y-32015291D02*
X103979468Y-31641858D01*
X104535397Y-32392489D02*
X104456191Y-32744236D01*
X104051144Y-31828575D02*
X104227016Y-31868177D01*
X104015306Y-31735217D02*
X104191179Y-31774819D01*
X103979468Y-31641858D02*
X104331217Y-31721064D01*
X104331217Y-31721064D02*
X104122817Y-32015291D01*
X104259545Y-31534348D02*
X104402891Y-31907781D01*
%TO.C,R3*%
X115305500Y-84682724D02*
X115305500Y-84173276D01*
X116350500Y-84682724D02*
X116350500Y-84173276D01*
D15*
%TO.C,MK1*%
X116633000Y-57596000D02*
X116633000Y-57596000D01*
X116733000Y-57596000D02*
X116733000Y-57596000D01*
X116733000Y-57596000D02*
X116733000Y-57596000D01*
X116633000Y-57596000D02*
G75*
G02*
X116733000Y-57596000I50000J0D01*
G01*
X116633000Y-57596000D02*
G75*
G02*
X116733000Y-57596000I50000J0D01*
G01*
X116733000Y-57596000D02*
G75*
G02*
X116633000Y-57596000I-50000J0D01*
G01*
D13*
%TO.C,C4*%
X96374267Y-53759000D02*
X96081733Y-53759000D01*
X96374267Y-54779000D02*
X96081733Y-54779000D01*
%TO.C,C9*%
X114479267Y-59418000D02*
X114186733Y-59418000D01*
X114479267Y-60438000D02*
X114186733Y-60438000D01*
%TO.C,C1*%
X98285500Y-48999267D02*
X98285500Y-48706733D01*
X99305500Y-48999267D02*
X99305500Y-48706733D01*
%TD*%
M02*
