%TF.GenerationSoftware,KiCad,Pcbnew,8.0.0*%
%TF.CreationDate,2024-03-28T16:54:28+01:00*%
%TF.ProjectId,BAT2024,42415432-3032-4342-9e6b-696361645f70,1.0*%
%TF.SameCoordinates,Original*%
%TF.FileFunction,Copper,L2,Bot*%
%TF.FilePolarity,Positive*%
%FSLAX46Y46*%
G04 Gerber Fmt 4.6, Leading zero omitted, Abs format (unit mm)*
G04 Created by KiCad (PCBNEW 8.0.0) date 2024-03-28 16:54:28*
%MOMM*%
%LPD*%
G01*
G04 APERTURE LIST*
G04 Aperture macros list*
%AMRoundRect*
0 Rectangle with rounded corners*
0 $1 Rounding radius*
0 $2 $3 $4 $5 $6 $7 $8 $9 X,Y pos of 4 corners*
0 Add a 4 corners polygon primitive as box body*
4,1,4,$2,$3,$4,$5,$6,$7,$8,$9,$2,$3,0*
0 Add four circle primitives for the rounded corners*
1,1,$1+$1,$2,$3*
1,1,$1+$1,$4,$5*
1,1,$1+$1,$6,$7*
1,1,$1+$1,$8,$9*
0 Add four rect primitives between the rounded corners*
20,1,$1+$1,$2,$3,$4,$5,0*
20,1,$1+$1,$4,$5,$6,$7,0*
20,1,$1+$1,$6,$7,$8,$9,0*
20,1,$1+$1,$8,$9,$2,$3,0*%
%AMRotRect*
0 Rectangle, with rotation*
0 The origin of the aperture is its center*
0 $1 length*
0 $2 width*
0 $3 Rotation angle, in degrees counterclockwise*
0 Add horizontal line*
21,1,$1,$2,0,0,$3*%
G04 Aperture macros list end*
%TA.AperFunction,ConnectorPad*%
%ADD10C,0.787400*%
%TD*%
%TA.AperFunction,SMDPad,CuDef*%
%ADD11R,0.900000X0.800000*%
%TD*%
%TA.AperFunction,SMDPad,CuDef*%
%ADD12C,1.000000*%
%TD*%
%TA.AperFunction,SMDPad,CuDef*%
%ADD13RoundRect,0.237500X0.250000X0.237500X-0.250000X0.237500X-0.250000X-0.237500X0.250000X-0.237500X0*%
%TD*%
%TA.AperFunction,ComponentPad*%
%ADD14C,2.010000*%
%TD*%
%TA.AperFunction,SMDPad,CuDef*%
%ADD15R,0.800000X1.200000*%
%TD*%
%TA.AperFunction,SMDPad,CuDef*%
%ADD16R,0.760000X1.200000*%
%TD*%
%TA.AperFunction,SMDPad,CuDef*%
%ADD17R,0.700000X1.200000*%
%TD*%
%TA.AperFunction,SMDPad,CuDef*%
%ADD18RoundRect,0.150000X0.150000X-0.512500X0.150000X0.512500X-0.150000X0.512500X-0.150000X-0.512500X0*%
%TD*%
%TA.AperFunction,SMDPad,CuDef*%
%ADD19RoundRect,0.237500X0.300000X0.237500X-0.300000X0.237500X-0.300000X-0.237500X0.300000X-0.237500X0*%
%TD*%
%TA.AperFunction,SMDPad,CuDef*%
%ADD20RoundRect,0.237500X0.237500X-0.300000X0.237500X0.300000X-0.237500X0.300000X-0.237500X-0.300000X0*%
%TD*%
%TA.AperFunction,SMDPad,CuDef*%
%ADD21RoundRect,0.237500X0.237500X-0.287500X0.237500X0.287500X-0.237500X0.287500X-0.237500X-0.287500X0*%
%TD*%
%TA.AperFunction,ComponentPad*%
%ADD22C,2.280000*%
%TD*%
%TA.AperFunction,SMDPad,CuDef*%
%ADD23RoundRect,0.237500X-0.250000X-0.237500X0.250000X-0.237500X0.250000X0.237500X-0.250000X0.237500X0*%
%TD*%
%TA.AperFunction,SMDPad,CuDef*%
%ADD24O,2.400000X0.800000*%
%TD*%
%TA.AperFunction,SMDPad,CuDef*%
%ADD25O,0.800000X2.400000*%
%TD*%
%TA.AperFunction,SMDPad,CuDef*%
%ADD26RoundRect,0.237500X-0.300000X-0.237500X0.300000X-0.237500X0.300000X0.237500X-0.300000X0.237500X0*%
%TD*%
%TA.AperFunction,SMDPad,CuDef*%
%ADD27RoundRect,0.237500X-0.237500X0.250000X-0.237500X-0.250000X0.237500X-0.250000X0.237500X0.250000X0*%
%TD*%
%TA.AperFunction,SMDPad,CuDef*%
%ADD28RoundRect,0.040600X0.564400X0.249400X-0.564400X0.249400X-0.564400X-0.249400X0.564400X-0.249400X0*%
%TD*%
%TA.AperFunction,SMDPad,CuDef*%
%ADD29RotRect,1.200000X2.500000X66.000000*%
%TD*%
%TA.AperFunction,SMDPad,CuDef*%
%ADD30RoundRect,0.237500X0.237500X-0.250000X0.237500X0.250000X-0.237500X0.250000X-0.237500X-0.250000X0*%
%TD*%
%TA.AperFunction,SMDPad,CuDef*%
%ADD31R,0.600000X1.325000*%
%TD*%
%TA.AperFunction,SMDPad,CuDef*%
%ADD32R,1.180000X2.810000*%
%TD*%
%TA.AperFunction,ViaPad*%
%ADD33C,0.600000*%
%TD*%
%TA.AperFunction,Conductor*%
%ADD34C,0.200000*%
%TD*%
%TA.AperFunction,Conductor*%
%ADD35C,0.400000*%
%TD*%
G04 APERTURE END LIST*
D10*
%TO.P,J2,1,VCC*%
%TO.N,+3.3V*%
X126677013Y-39475038D03*
%TO.P,J2,2,SWDIO*%
%TO.N,/SWDIO*%
X127575038Y-38577013D03*
%TO.P,J2,3,~{RESET}*%
%TO.N,/RESET*%
X125778987Y-38577013D03*
%TO.P,J2,4,SWCLK*%
%TO.N,/SWCLK*%
X126677013Y-37678987D03*
%TO.P,J2,5,GND*%
%TO.N,GND*%
X124880962Y-37678987D03*
%TO.P,J2,6,SWO*%
%TO.N,/SWO*%
X125778987Y-36780962D03*
%TD*%
D11*
%TO.P,Q1,3*%
%TO.N,+BATT*%
X94628000Y-67878000D03*
%TO.P,Q1,2*%
%TO.N,Net-(U1-EN)*%
X92528000Y-66928000D03*
%TO.P,Q1,1*%
%TO.N,GND*%
X92528000Y-68828000D03*
%TD*%
D12*
%TO.P,TP4,1,1*%
%TO.N,GND*%
X92228000Y-58465500D03*
%TD*%
%TO.P,TP3,1,1*%
%TO.N,+3.3*%
X94428000Y-58465500D03*
%TD*%
%TO.P,TP2,1,1*%
%TO.N,+BATT*%
X94228000Y-71528000D03*
%TD*%
%TO.P,TP1,1,1*%
%TO.N,VCC*%
X92028000Y-71528000D03*
%TD*%
D13*
%TO.P,R2,1*%
%TO.N,GND*%
X115740500Y-75028000D03*
%TO.P,R2,2*%
%TO.N,/Charge*%
X113915500Y-75028000D03*
%TD*%
%TO.P,R1,1*%
%TO.N,/Charge*%
X115728000Y-76828000D03*
%TO.P,R1,2*%
%TO.N,Fuse*%
X113903000Y-76828000D03*
%TD*%
D14*
%TO.P,J1,MH4,MH4*%
%TO.N,GND*%
X118528000Y-80228000D03*
%TO.P,J1,MH3,MH3*%
X118528000Y-84028000D03*
%TO.P,J1,MH2,MH2*%
X109888000Y-84028000D03*
%TO.P,J1,MH1,MH1*%
X109888000Y-80228000D03*
D15*
%TO.P,J1,B12,GND_2*%
X116958000Y-80148000D03*
D16*
%TO.P,J1,B9,VBUS_2*%
%TO.N,Fuse*%
X115728000Y-80148000D03*
D17*
%TO.P,J1,B5,CC2*%
%TO.N,Net-(J1-CC2)*%
X113708000Y-80148000D03*
D15*
%TO.P,J1,A12,GND_1*%
%TO.N,GND*%
X111458000Y-80148000D03*
D16*
%TO.P,J1,A9,VBUS_1*%
%TO.N,Fuse*%
X112688000Y-80148000D03*
D17*
%TO.P,J1,A5,CC1*%
%TO.N,Net-(J1-CC1)*%
X114708000Y-80148000D03*
%TD*%
D18*
%TO.P,U1,5,VOUT*%
%TO.N,+3.3*%
X94978000Y-62190500D03*
%TO.P,U1,4,NC*%
%TO.N,unconnected-(U1-NC-Pad4)*%
X93078000Y-62190500D03*
%TO.P,U1,3,EN*%
%TO.N,Net-(U1-EN)*%
X93078000Y-64465500D03*
%TO.P,U1,2,GND*%
%TO.N,GND*%
X94028000Y-64465500D03*
%TO.P,U1,1,VIN*%
%TO.N,Net-(U1-EN)*%
X94978000Y-64465500D03*
%TD*%
D19*
%TO.P,C8,2*%
%TO.N,GND*%
X93165500Y-60465500D03*
%TO.P,C8,1*%
%TO.N,+3.3*%
X94890500Y-60465500D03*
%TD*%
%TO.P,C10,1*%
%TO.N,+3.3V*%
X101690500Y-43628000D03*
%TO.P,C10,2*%
%TO.N,GND*%
X99965500Y-43628000D03*
%TD*%
D20*
%TO.P,C7,2*%
%TO.N,GND*%
X91428000Y-62803000D03*
%TO.P,C7,1*%
%TO.N,+BATT*%
X91428000Y-64528000D03*
%TD*%
D21*
%TO.P,D1,1,K*%
%TO.N,Net-(D1-K)*%
X105628000Y-83558000D03*
%TO.P,D1,2,A*%
%TO.N,Net-(D1-A)*%
X105628000Y-81808000D03*
%TD*%
D22*
%TO.P,H1,1,-*%
%TO.N,GND*%
X119518000Y-59328000D03*
%TO.P,H1,2,+*%
%TO.N,+BATT*%
X99028000Y-59328000D03*
%TD*%
D23*
%TO.P,R6,1*%
%TO.N,Net-(U2-TS)*%
X105015500Y-74978000D03*
%TO.P,R6,2*%
%TO.N,GND*%
X106840500Y-74978000D03*
%TD*%
D24*
%TO.P,IC1,1,GND_1*%
%TO.N,GND*%
X119878000Y-28928000D03*
%TO.P,IC1,2,PB04*%
%TO.N,/I2S_SCK*%
X119878000Y-30128000D03*
%TO.P,IC1,3,PB03*%
%TO.N,/I2S_SD*%
X119878000Y-31328000D03*
%TO.P,IC1,4,PB02*%
%TO.N,/I2S_WS*%
X119878000Y-32528000D03*
%TO.P,IC1,5,PB01*%
%TO.N,/PDM_DATA1*%
X119878000Y-33728000D03*
%TO.P,IC1,6,PB00*%
%TO.N,/PDM_DATA0*%
X119878000Y-34928000D03*
%TO.P,IC1,7,PA00*%
%TO.N,/PDM_CLK*%
X119878000Y-36128000D03*
%TO.P,IC1,8,PA01*%
%TO.N,/SWCLK*%
X119878000Y-37328000D03*
%TO.P,IC1,9,PA02*%
%TO.N,/SWDIO*%
X119878000Y-38528000D03*
%TO.P,IC1,10,PA03*%
%TO.N,/SWO*%
X119878000Y-39728000D03*
%TO.P,IC1,11,PA04*%
%TO.N,/DRV_EN*%
X119878000Y-40928000D03*
%TO.P,IC1,12,GND_2*%
%TO.N,GND*%
X119878000Y-42128000D03*
D25*
%TO.P,IC1,13,VDD*%
%TO.N,+3.3V*%
X117828000Y-42228000D03*
%TO.P,IC1,14,PA05*%
%TO.N,unconnected-(IC1-PA05-Pad14)*%
X116628000Y-42228000D03*
%TO.P,IC1,15,PA06*%
%TO.N,unconnected-(IC1-PA06-Pad15)*%
X115428000Y-42228000D03*
%TO.P,IC1,16,PA07*%
%TO.N,unconnected-(IC1-PA07-Pad16)*%
X114228000Y-42228000D03*
%TO.P,IC1,17,PA08*%
%TO.N,unconnected-(IC1-PA08-Pad17)*%
X113028000Y-42228000D03*
%TO.P,IC1,18,PD03*%
%TO.N,unconnected-(IC1-PD03-Pad18)*%
X111828000Y-42228000D03*
%TO.P,IC1,19,PD02*%
%TO.N,/Charge*%
X110628000Y-42228000D03*
D24*
%TO.P,IC1,20,GND_3*%
%TO.N,GND*%
X108578000Y-42128000D03*
%TO.P,IC1,21,NC*%
%TO.N,unconnected-(IC1-NC-Pad21)*%
X108578000Y-40928000D03*
%TO.P,IC1,22,PC00*%
%TO.N,/SPI_MISO*%
X108578000Y-39728000D03*
%TO.P,IC1,23,PC01*%
%TO.N,/SPI_MOSI*%
X108578000Y-38528000D03*
%TO.P,IC1,24,PC02*%
%TO.N,/SPI_CS*%
X108578000Y-37328000D03*
%TO.P,IC1,25,PC03*%
%TO.N,/SPI_SCK*%
X108578000Y-36128000D03*
%TO.P,IC1,26,PC04*%
%TO.N,/PTI_DATA*%
X108578000Y-34928000D03*
%TO.P,IC1,27,PC05*%
%TO.N,/PTI_FRAME*%
X108578000Y-33728000D03*
%TO.P,IC1,28,PC06*%
%TO.N,/I2C_SDA*%
X108578000Y-32528000D03*
%TO.P,IC1,29,PC07*%
%TO.N,/I2C_SCL*%
X108578000Y-31328000D03*
%TO.P,IC1,30,RESETN*%
%TO.N,/RESET*%
X108578000Y-30128000D03*
%TO.P,IC1,31,GND_4*%
%TO.N,GND*%
X108578000Y-28928000D03*
%TD*%
D13*
%TO.P,R7,1*%
%TO.N,Net-(U2-ISET)*%
X98133000Y-77740500D03*
%TO.P,R7,2*%
%TO.N,GND*%
X96308000Y-77740500D03*
%TD*%
D26*
%TO.P,C6,1*%
%TO.N,+BATT*%
X105065500Y-76590500D03*
%TO.P,C6,2*%
%TO.N,GND*%
X106790500Y-76590500D03*
%TD*%
D27*
%TO.P,R9,1*%
%TO.N,+3.3V*%
X105428000Y-38315500D03*
%TO.P,R9,2*%
%TO.N,/SPI_CS*%
X105428000Y-40140500D03*
%TD*%
D28*
%TO.P,U2,1,TS*%
%TO.N,Net-(U2-TS)*%
X102683000Y-75628000D03*
%TO.P,U2,2,OUT*%
%TO.N,+BATT*%
X102683000Y-76578000D03*
%TO.P,U2,3,~{CHG}*%
%TO.N,Net-(D1-K)*%
X102683000Y-77528000D03*
%TO.P,U2,4,ISET*%
%TO.N,Net-(U2-ISET)*%
X100173000Y-77528000D03*
%TO.P,U2,5,GND*%
%TO.N,GND*%
X100173000Y-76578000D03*
%TO.P,U2,6,VIN*%
%TO.N,VCC*%
X100173000Y-75628000D03*
%TD*%
D29*
%TO.P,S1,1*%
%TO.N,+3.3*%
X90423407Y-49530389D03*
%TO.P,S1,2*%
%TO.N,+3.3V*%
X91440250Y-47246526D03*
%TO.P,S1,3*%
%TO.N,unconnected-(S1-Pad3)*%
X92457092Y-44962662D03*
%TD*%
D30*
%TO.P,R5,1*%
%TO.N,Net-(D1-A)*%
X105628000Y-80240500D03*
%TO.P,R5,2*%
%TO.N,+BATT*%
X105628000Y-78415500D03*
%TD*%
D31*
%TO.P,IC2,1,~{S}_/_CS*%
%TO.N,/SPI_CS*%
X103733000Y-41840000D03*
%TO.P,IC2,2,Q-DQ1*%
%TO.N,/SPI_MISO*%
X102463000Y-41840000D03*
%TO.P,IC2,3,~{W-DQ2}*%
%TO.N,+3.3V*%
X101193000Y-41840000D03*
%TO.P,IC2,4,VSS*%
%TO.N,GND*%
X99923000Y-41840000D03*
%TO.P,IC2,5,D-DQ0*%
%TO.N,/SPI_MOSI*%
X99923000Y-36616000D03*
%TO.P,IC2,6,C*%
%TO.N,/SPI_SCK*%
X101193000Y-36616000D03*
%TO.P,IC2,7,~{HOLD-DQ3}*%
%TO.N,+3.3V*%
X102463000Y-36616000D03*
%TO.P,IC2,8,VCC*%
X103733000Y-36616000D03*
%TD*%
D32*
%TO.P,F1,1*%
%TO.N,Fuse*%
X111913000Y-75928000D03*
%TO.P,F1,2*%
%TO.N,VCC*%
X108943000Y-75928000D03*
%TD*%
D19*
%TO.P,C5,1*%
%TO.N,VCC*%
X98083000Y-75540500D03*
%TO.P,C5,2*%
%TO.N,GND*%
X96358000Y-75540500D03*
%TD*%
D33*
%TO.N,GND*%
X100228000Y-79328000D03*
X92228000Y-75328000D03*
X122228000Y-83328000D03*
X120228000Y-79328000D03*
X128228000Y-79328000D03*
X86228000Y-51328000D03*
X88228000Y-63328000D03*
X138228000Y-43328000D03*
X142228000Y-51328000D03*
X140228000Y-55328000D03*
X140228000Y-63328000D03*
X118228000Y-75328000D03*
X122228000Y-75328000D03*
X126228000Y-75328000D03*
X132228000Y-71328000D03*
X128228000Y-71328000D03*
X124228000Y-71328000D03*
X126228000Y-43328000D03*
X114228000Y-47328000D03*
X110228000Y-47328000D03*
X106228000Y-47328000D03*
X104228000Y-51328000D03*
X112228000Y-51328000D03*
X108228000Y-51328000D03*
X106228000Y-55328000D03*
X110228000Y-55328000D03*
X118228000Y-51328000D03*
X98228000Y-67328000D03*
X100228000Y-63328000D03*
X104228000Y-63328000D03*
X108228000Y-63328000D03*
X112228000Y-63328000D03*
X116228000Y-63328000D03*
X120228000Y-63328000D03*
X124228000Y-63328000D03*
X128228000Y-63328000D03*
X132228000Y-63328000D03*
X134228000Y-67328000D03*
X112228000Y-39328000D03*
X114228000Y-39328000D03*
X132228000Y-35328000D03*
X98228000Y-33328000D03*
X94228000Y-37328000D03*
X102228000Y-45328000D03*
X104228000Y-59328000D03*
X92228000Y-46228000D03*
X93728000Y-46669000D03*
%TO.N,/RESET*%
X107028000Y-30628000D03*
%TO.N,/Charge*%
X110628000Y-40328000D03*
X95590500Y-59528000D03*
X97666113Y-61679838D03*
X110628000Y-44628000D03*
%TO.N,GND*%
X122228000Y-37428000D03*
%TO.N,/RESET*%
X122008222Y-38197222D03*
%TO.N,/SWDIO*%
X128428000Y-38828000D03*
X118128000Y-38528000D03*
%TO.N,Net-(J1-CC2)*%
X113708000Y-83528000D03*
%TO.N,Net-(J1-CC1)*%
X114728000Y-83528000D03*
%TO.N,GND*%
X87428000Y-65928000D03*
X97373000Y-46669000D03*
X130228000Y-51328000D03*
X136228000Y-47328000D03*
X140228000Y-49728000D03*
X114228000Y-85340500D03*
X126228000Y-59328000D03*
X112228000Y-37328000D03*
X92428000Y-53328000D03*
X142228000Y-59328000D03*
X132228000Y-55328000D03*
X132228000Y-47328000D03*
X112028000Y-59728000D03*
X124228000Y-55328000D03*
X137828000Y-70228000D03*
X98228000Y-41328000D03*
X128228000Y-47328000D03*
X122228000Y-59328000D03*
X127228000Y-33628000D03*
X134228000Y-51328000D03*
X128228000Y-55328000D03*
X134228000Y-59328000D03*
X136228000Y-55328000D03*
X126228000Y-51328000D03*
X121828000Y-29528000D03*
X124228000Y-47328000D03*
X100228000Y-71328000D03*
X130228000Y-59328000D03*
X89228000Y-44928000D03*
X120228000Y-55328000D03*
X122228000Y-51328000D03*
X114228000Y-37328000D03*
X130228000Y-43328000D03*
X106628000Y-41928000D03*
X100228000Y-53328000D03*
X106428000Y-29528000D03*
X120228000Y-47328000D03*
X108578000Y-43228000D03*
%TO.N,+3.3V*%
X99828000Y-45490500D03*
X103228000Y-38828000D03*
X101228000Y-40828000D03*
X124228000Y-41828000D03*
X118454000Y-43928000D03*
%TO.N,/C1-*%
X97386542Y-52455460D03*
X95728000Y-52376920D03*
%TO.N,+BATT*%
X100278000Y-73578000D03*
X101428000Y-74728000D03*
%TO.N,/PDM_CLK*%
X117828000Y-36128000D03*
%TO.N,/PDM_DATA0*%
X117828000Y-34928000D03*
%TO.N,/I2C_SDA*%
X110428000Y-34728000D03*
X95628000Y-42728000D03*
X95373000Y-46669000D03*
%TO.N,/SPI_MOSI*%
X98704000Y-37328000D03*
X106928000Y-38328000D03*
%TO.N,/DRV_EN*%
X97473000Y-49303000D03*
X99828000Y-49728000D03*
X110628000Y-39128000D03*
%TO.N,/I2C_SCL*%
X94028000Y-42753000D03*
X111628000Y-34728000D03*
X94572998Y-46667894D03*
%TD*%
D34*
%TO.N,Net-(J1-CC2)*%
X113708000Y-83528000D02*
X113708000Y-80148000D01*
%TO.N,Net-(J1-CC1)*%
X114728000Y-83528000D02*
X114728000Y-80168000D01*
X114728000Y-80168000D02*
X114708000Y-80148000D01*
%TO.N,/PDM_DATA0*%
X117828000Y-34928000D02*
X119878000Y-34928000D01*
%TO.N,/PDM_CLK*%
X117828000Y-36128000D02*
X119878000Y-36128000D01*
%TO.N,/RESET*%
X125629974Y-38428000D02*
X125778987Y-38577013D01*
X122239000Y-38428000D02*
X125629974Y-38428000D01*
X122008222Y-38197222D02*
X122239000Y-38428000D01*
%TO.N,/Charge*%
X112815500Y-73928000D02*
X113915500Y-75028000D01*
X109335106Y-73928000D02*
X112815500Y-73928000D01*
X108385106Y-72978000D02*
X109335106Y-73928000D01*
X95428000Y-70420894D02*
X97985106Y-72978000D01*
X97985106Y-72978000D02*
X108385106Y-72978000D01*
X95428000Y-67785106D02*
X95428000Y-70420894D01*
X96328000Y-66885107D02*
X95428000Y-67785106D01*
X96328000Y-63017951D02*
X96328000Y-66885107D01*
X97666113Y-61679838D02*
X96328000Y-63017951D01*
%TO.N,GND*%
X92728000Y-46228000D02*
X92228000Y-46228000D01*
X93169000Y-46669000D02*
X92728000Y-46228000D01*
X93728000Y-46669000D02*
X93169000Y-46669000D01*
%TO.N,/I2C_SCL*%
X94572998Y-43297998D02*
X94028000Y-42753000D01*
X94572998Y-46667894D02*
X94572998Y-43297998D01*
%TO.N,/RESET*%
X107028000Y-30628000D02*
X107528000Y-30128000D01*
X107528000Y-30128000D02*
X108578000Y-30128000D01*
%TO.N,GND*%
X122228000Y-37428000D02*
X122828000Y-38028000D01*
X122828000Y-38028000D02*
X124531949Y-38028000D01*
X124531949Y-38028000D02*
X124880962Y-37678987D01*
%TO.N,/SWO*%
X121228000Y-39728000D02*
X119878000Y-39728000D01*
X121378000Y-39578000D02*
X121228000Y-39728000D01*
X121378000Y-37178000D02*
X121378000Y-39578000D01*
X124880962Y-36780962D02*
X124228000Y-36128000D01*
X124228000Y-36128000D02*
X122428000Y-36128000D01*
X122428000Y-36128000D02*
X121378000Y-37178000D01*
X125778987Y-36780962D02*
X124880962Y-36780962D01*
%TO.N,/SWCLK*%
X120793685Y-37128000D02*
X119878000Y-37128000D01*
X123193685Y-34728000D02*
X120793685Y-37128000D01*
X125628000Y-34728000D02*
X123193685Y-34728000D01*
X126677013Y-35777013D02*
X125628000Y-34728000D01*
X126677013Y-37678987D02*
X126677013Y-35777013D01*
%TO.N,/DRV_EN*%
X112272975Y-40728000D02*
X119678000Y-40728000D01*
X110672975Y-39128000D02*
X112272975Y-40728000D01*
X119678000Y-40728000D02*
X119878000Y-40928000D01*
X110628000Y-39128000D02*
X110672975Y-39128000D01*
%TO.N,/Charge*%
X95628000Y-59490500D02*
X95590500Y-59528000D01*
X95628000Y-53928000D02*
X95628000Y-59490500D01*
X93028000Y-51328000D02*
X95628000Y-53928000D01*
X98139029Y-48028000D02*
X93228000Y-48028000D01*
X93228000Y-48028000D02*
X93028000Y-48228000D01*
X101539029Y-44628000D02*
X98139029Y-48028000D01*
X93028000Y-48228000D02*
X93028000Y-51328000D01*
X110628000Y-44628000D02*
X101539029Y-44628000D01*
X110628000Y-40328000D02*
X110628000Y-42228000D01*
X113928000Y-75028000D02*
X113915500Y-75028000D01*
X115728000Y-76828000D02*
X113928000Y-75028000D01*
%TO.N,GND*%
X115728000Y-75040500D02*
X115740500Y-75028000D01*
D35*
%TO.N,Fuse*%
X111928000Y-76828000D02*
X111728000Y-77028000D01*
X113903000Y-76828000D02*
X111928000Y-76828000D01*
D34*
%TO.N,/SWDIO*%
X128428000Y-38828000D02*
X127826025Y-38828000D01*
X127826025Y-38828000D02*
X127575038Y-38577013D01*
X119878000Y-38528000D02*
X118128000Y-38528000D01*
D35*
%TO.N,+3.3V*%
X126677013Y-39475038D02*
X126580962Y-39475038D01*
X126580962Y-39475038D02*
X124228000Y-41828000D01*
D34*
X124228000Y-41828000D02*
X124324051Y-41828000D01*
%TO.N,/I2C_SCL*%
X109167949Y-31328000D02*
X108578000Y-31328000D01*
X111628000Y-34728000D02*
X111628000Y-33788051D01*
X111628000Y-33788051D02*
X109167949Y-31328000D01*
%TO.N,/I2C_SDA*%
X110428000Y-33788051D02*
X109167949Y-32528000D01*
X110428000Y-34728000D02*
X110428000Y-33788051D01*
X109167949Y-32528000D02*
X108578000Y-32528000D01*
%TO.N,Net-(U1-EN)*%
X94978000Y-65778000D02*
X94978000Y-64465500D01*
X93828000Y-66928000D02*
X94978000Y-65778000D01*
X92528000Y-66928000D02*
X93828000Y-66928000D01*
X93028000Y-64515500D02*
X93078000Y-64465500D01*
X93028000Y-66428000D02*
X93028000Y-64515500D01*
X92528000Y-66928000D02*
X93028000Y-66428000D01*
D35*
%TO.N,+BATT*%
X95828000Y-62528000D02*
X95828000Y-66678000D01*
X95828000Y-66678000D02*
X94628000Y-67878000D01*
X94628000Y-67878000D02*
X91978000Y-67878000D01*
X91978000Y-67878000D02*
X91428000Y-67328000D01*
X91428000Y-67328000D02*
X91428000Y-64528000D01*
X94428000Y-68078000D02*
X94628000Y-67878000D01*
X94428000Y-71328000D02*
X94428000Y-68078000D01*
X94228000Y-71528000D02*
X94428000Y-71328000D01*
%TO.N,VCC*%
X96228000Y-72928000D02*
X98083000Y-74783000D01*
X92028000Y-71528000D02*
X93428000Y-72928000D01*
X93428000Y-72928000D02*
X96228000Y-72928000D01*
X98083000Y-74783000D02*
X98083000Y-75540500D01*
%TO.N,+BATT*%
X97878000Y-73578000D02*
X95828000Y-71528000D01*
X95828000Y-71528000D02*
X94228000Y-71528000D01*
X100278000Y-73578000D02*
X97878000Y-73578000D01*
%TO.N,+3.3*%
X94428000Y-53534982D02*
X90423407Y-49530389D01*
X94428000Y-58465500D02*
X94428000Y-53534982D01*
%TO.N,GND*%
X93165500Y-59403000D02*
X92228000Y-58465500D01*
X93165500Y-60465500D02*
X93165500Y-59403000D01*
%TO.N,Fuse*%
X115238000Y-78928000D02*
X112688000Y-78928000D01*
X115728000Y-80148000D02*
X115728000Y-79418000D01*
X112688000Y-78928000D02*
X112688000Y-78388000D01*
X112688000Y-80148000D02*
X112688000Y-78928000D01*
X115728000Y-79418000D02*
X115238000Y-78928000D01*
X111828000Y-76013000D02*
X111913000Y-75928000D01*
X111828000Y-77528000D02*
X111828000Y-76013000D01*
X112688000Y-78388000D02*
X111828000Y-77528000D01*
D34*
%TO.N,GND*%
X106828000Y-42128000D02*
X106628000Y-41928000D01*
X108578000Y-42128000D02*
X106828000Y-42128000D01*
D35*
X93165500Y-60465500D02*
X92428000Y-60465500D01*
X99965500Y-41882500D02*
X99923000Y-41840000D01*
X99965500Y-43628000D02*
X99965500Y-41882500D01*
D34*
X107028000Y-28928000D02*
X108578000Y-28928000D01*
D35*
X92428000Y-60465500D02*
X91428000Y-61465500D01*
X96308000Y-77528000D02*
X96308000Y-76740500D01*
D34*
X121828000Y-29428000D02*
X121828000Y-29528000D01*
D35*
X91428000Y-61465500D02*
X91428000Y-62803000D01*
X96308000Y-75678000D02*
X96358000Y-75628000D01*
X106790500Y-76590500D02*
X106790500Y-75028000D01*
X96308000Y-76740500D02*
X96308000Y-75678000D01*
X106790500Y-75028000D02*
X106840500Y-74978000D01*
D34*
X124880961Y-37678987D02*
X124877013Y-37678987D01*
D35*
X94028000Y-64465500D02*
X94028000Y-61328000D01*
X94028000Y-61328000D02*
X93165500Y-60465500D01*
D34*
X121828000Y-29528000D02*
X121228000Y-28928000D01*
D35*
X96308000Y-76578000D02*
X100173000Y-76578000D01*
D34*
X106428000Y-29528000D02*
X107028000Y-28928000D01*
X108578000Y-43228000D02*
X108578000Y-42128000D01*
X121228000Y-28928000D02*
X119878000Y-28928000D01*
D35*
%TO.N,+3.3V*%
X117828000Y-42228000D02*
X117828000Y-43928000D01*
X101690500Y-43628000D02*
X101193000Y-43130500D01*
X104535500Y-37423000D02*
X103733000Y-37423000D01*
X99828000Y-45490500D02*
X97949500Y-47369000D01*
X103428000Y-37728000D02*
X103228000Y-37728000D01*
X97949500Y-47369000D02*
X91562726Y-47369000D01*
X103733000Y-37423000D02*
X103428000Y-37728000D01*
X101193000Y-43130500D02*
X101193000Y-41840000D01*
X102828000Y-37728000D02*
X102463000Y-37363000D01*
X105428000Y-38315500D02*
X104535500Y-37423000D01*
X101228000Y-41805000D02*
X101193000Y-41840000D01*
X101990500Y-43928000D02*
X101690500Y-43628000D01*
X99828000Y-45490500D02*
X101690500Y-43628000D01*
X103733000Y-36616000D02*
X103733000Y-37423000D01*
X103228000Y-38828000D02*
X103228000Y-37728000D01*
X101228000Y-40828000D02*
X101228000Y-41805000D01*
X102463000Y-37363000D02*
X102463000Y-36616000D01*
X117428000Y-43928000D02*
X101990500Y-43928000D01*
X118454000Y-43928000D02*
X117428000Y-43928000D01*
X103228000Y-37728000D02*
X102828000Y-37728000D01*
X91562726Y-47369000D02*
X91440251Y-47246525D01*
D34*
%TO.N,/C1-*%
X95728000Y-52376920D02*
X95806540Y-52455460D01*
X95806540Y-52455460D02*
X97386542Y-52455460D01*
D35*
%TO.N,VCC*%
X108943000Y-74243000D02*
X108943000Y-75928000D01*
X108628000Y-73928000D02*
X108943000Y-74243000D01*
X100173000Y-74783000D02*
X101028000Y-73928000D01*
X98170500Y-75628000D02*
X98083000Y-75540500D01*
X100173000Y-75628000D02*
X100173000Y-74783000D01*
X101028000Y-73928000D02*
X108628000Y-73928000D01*
X100173000Y-75628000D02*
X98170500Y-75628000D01*
X98083000Y-75540500D02*
X97978000Y-75540500D01*
%TO.N,+BATT*%
X105628000Y-78415500D02*
X105628000Y-77153000D01*
X102633000Y-76528000D02*
X102683000Y-76578000D01*
X105065500Y-76590500D02*
X102695500Y-76590500D01*
X101428000Y-74728000D02*
X101428000Y-76128000D01*
X91490500Y-64465500D02*
X91428000Y-64528000D01*
X102695500Y-76590500D02*
X102683000Y-76578000D01*
X101828000Y-76528000D02*
X102633000Y-76528000D01*
X105628000Y-77153000D02*
X105065500Y-76590500D01*
X101428000Y-76128000D02*
X101828000Y-76528000D01*
X99028000Y-59328000D02*
X95828000Y-62528000D01*
D34*
%TO.N,Net-(D1-K)*%
X104578000Y-78540500D02*
X103565500Y-77528000D01*
X104578000Y-82508000D02*
X104578000Y-78540500D01*
X103565500Y-77528000D02*
X102683000Y-77528000D01*
X105628000Y-83558000D02*
X104578000Y-82508000D01*
%TO.N,Net-(D1-A)*%
X105628000Y-80240500D02*
X105628000Y-81808000D01*
%TO.N,/SPI_MISO*%
X102463000Y-42363000D02*
X102463000Y-41840000D01*
X108578000Y-39728000D02*
X107578000Y-39728000D01*
X107578000Y-39728000D02*
X104178000Y-43128000D01*
X104178000Y-43128000D02*
X103228000Y-43128000D01*
X103228000Y-43128000D02*
X102463000Y-42363000D01*
%TO.N,/SWDIO*%
X127726026Y-38728000D02*
X127575039Y-38577013D01*
%TO.N,/SPI_CS*%
X108578000Y-37328000D02*
X107028000Y-37328000D01*
X105428000Y-40140500D02*
X105428000Y-40728000D01*
X107028000Y-37328000D02*
X106303000Y-38053000D01*
X105428000Y-40728000D02*
X104316000Y-41840000D01*
X104316000Y-41840000D02*
X103733000Y-41840000D01*
X106303000Y-38053000D02*
X106303000Y-39265500D01*
X106303000Y-39265500D02*
X105428000Y-40140500D01*
%TO.N,/I2C_SDA*%
X96028000Y-46014000D02*
X95373000Y-46669000D01*
X96028000Y-43128000D02*
X96028000Y-46014000D01*
X95628000Y-42728000D02*
X96028000Y-43128000D01*
%TO.N,/SPI_MOSI*%
X107128000Y-38528000D02*
X106928000Y-38328000D01*
X99923000Y-36616000D02*
X99416000Y-36616000D01*
X98704000Y-37328000D02*
X99416000Y-36616000D01*
X108578000Y-38528000D02*
X107128000Y-38528000D01*
%TO.N,/DRV_EN*%
X97898000Y-49728000D02*
X97473000Y-49303000D01*
X99828000Y-49728000D02*
X97898000Y-49728000D01*
%TO.N,/SPI_SCK*%
X101628000Y-35528000D02*
X101193000Y-35963000D01*
X108578000Y-36128000D02*
X107028000Y-36128000D01*
X101193000Y-35963000D02*
X101193000Y-36616000D01*
X106428000Y-35528000D02*
X101628000Y-35528000D01*
X107028000Y-36128000D02*
X106428000Y-35528000D01*
%TO.N,Net-(U2-TS)*%
X104278000Y-74978000D02*
X103628000Y-75628000D01*
X103628000Y-75628000D02*
X102683000Y-75628000D01*
X105015500Y-74978000D02*
X104278000Y-74978000D01*
%TO.N,Net-(U2-ISET)*%
X100173000Y-77528000D02*
X98345500Y-77528000D01*
X98345500Y-77528000D02*
X98133000Y-77740500D01*
D35*
%TO.N,+3.3*%
X94890500Y-58928000D02*
X94428000Y-58465500D01*
X94978000Y-60553000D02*
X94890500Y-60465500D01*
X94978000Y-62190500D02*
X94978000Y-60553000D01*
X94890500Y-60465500D02*
X94890500Y-58928000D01*
%TD*%
%TA.AperFunction,Conductor*%
%TO.N,GND*%
G36*
X108771039Y-28697685D02*
G01*
X108816794Y-28750489D01*
X108828000Y-28802000D01*
X108828000Y-29054000D01*
X108808315Y-29121039D01*
X108755511Y-29166794D01*
X108704000Y-29178000D01*
X106910096Y-29178000D01*
X106912584Y-29190516D01*
X106912587Y-29190523D01*
X106980428Y-29354306D01*
X106980433Y-29354316D01*
X107050153Y-29458659D01*
X107071031Y-29525337D01*
X107052546Y-29592717D01*
X107050154Y-29596440D01*
X106979985Y-29701456D01*
X106953062Y-29766454D01*
X106909220Y-29820858D01*
X106855531Y-29841038D01*
X106855541Y-29841080D01*
X106855239Y-29841148D01*
X106852387Y-29842221D01*
X106848750Y-29842630D01*
X106678478Y-29902210D01*
X106525737Y-29998184D01*
X106398184Y-30125737D01*
X106302211Y-30278476D01*
X106242631Y-30448745D01*
X106242630Y-30448750D01*
X106222435Y-30627996D01*
X106222435Y-30628003D01*
X106242630Y-30807249D01*
X106242631Y-30807254D01*
X106302211Y-30977523D01*
X106398184Y-31130262D01*
X106525738Y-31257816D01*
X106678478Y-31353789D01*
X106812093Y-31400543D01*
X106868870Y-31441265D01*
X106892756Y-31493393D01*
X106912104Y-31590659D01*
X106912106Y-31590667D01*
X106979983Y-31754540D01*
X106979990Y-31754553D01*
X107049853Y-31859109D01*
X107070731Y-31925786D01*
X107052247Y-31993166D01*
X107049853Y-31996891D01*
X106979990Y-32101446D01*
X106979983Y-32101459D01*
X106912106Y-32265332D01*
X106912103Y-32265341D01*
X106877500Y-32439304D01*
X106877500Y-32616695D01*
X106912103Y-32790658D01*
X106912106Y-32790667D01*
X106979983Y-32954540D01*
X106979990Y-32954553D01*
X107049853Y-33059109D01*
X107070731Y-33125786D01*
X107052247Y-33193166D01*
X107049853Y-33196891D01*
X106979990Y-33301446D01*
X106979983Y-33301459D01*
X106912106Y-33465332D01*
X106912103Y-33465341D01*
X106877500Y-33639304D01*
X106877500Y-33816695D01*
X106912103Y-33990658D01*
X106912106Y-33990667D01*
X106979983Y-34154540D01*
X106979990Y-34154553D01*
X107049853Y-34259109D01*
X107070731Y-34325786D01*
X107052247Y-34393166D01*
X107049853Y-34396891D01*
X106979990Y-34501446D01*
X106979983Y-34501459D01*
X106912106Y-34665332D01*
X106912103Y-34665341D01*
X106877500Y-34839304D01*
X106877500Y-34879347D01*
X106857815Y-34946386D01*
X106805011Y-34992141D01*
X106735853Y-35002085D01*
X106691500Y-34986734D01*
X106659785Y-34968423D01*
X106507057Y-34927499D01*
X106348943Y-34927499D01*
X106341347Y-34927499D01*
X106341331Y-34927500D01*
X101714669Y-34927500D01*
X101714653Y-34927499D01*
X101707057Y-34927499D01*
X101548943Y-34927499D01*
X101441587Y-34956265D01*
X101396210Y-34968424D01*
X101396209Y-34968425D01*
X101346096Y-34997359D01*
X101346095Y-34997360D01*
X101312609Y-35016693D01*
X101259285Y-35047479D01*
X101259282Y-35047481D01*
X101147478Y-35159286D01*
X100885736Y-35421027D01*
X100824413Y-35454512D01*
X100811310Y-35456636D01*
X100785516Y-35459409D01*
X100650671Y-35509702D01*
X100650665Y-35509705D01*
X100632309Y-35523447D01*
X100566844Y-35547863D01*
X100498571Y-35533010D01*
X100483691Y-35523447D01*
X100465334Y-35509705D01*
X100465328Y-35509702D01*
X100330486Y-35459410D01*
X100330485Y-35459409D01*
X100330483Y-35459409D01*
X100270873Y-35453000D01*
X100270863Y-35453000D01*
X99575129Y-35453000D01*
X99575123Y-35453001D01*
X99515516Y-35459408D01*
X99380671Y-35509702D01*
X99380664Y-35509706D01*
X99265455Y-35595952D01*
X99265452Y-35595955D01*
X99179206Y-35711164D01*
X99179202Y-35711171D01*
X99128908Y-35846017D01*
X99122501Y-35905616D01*
X99122500Y-35905635D01*
X99122500Y-36020462D01*
X99102815Y-36087501D01*
X99060503Y-36127847D01*
X99047290Y-36135475D01*
X99047281Y-36135482D01*
X98935478Y-36247286D01*
X98685465Y-36497298D01*
X98624142Y-36530783D01*
X98611668Y-36532837D01*
X98524750Y-36542630D01*
X98354478Y-36602210D01*
X98201737Y-36698184D01*
X98074184Y-36825737D01*
X97978211Y-36978476D01*
X97918631Y-37148745D01*
X97918630Y-37148750D01*
X97898435Y-37327996D01*
X97898435Y-37328003D01*
X97918630Y-37507249D01*
X97918631Y-37507254D01*
X97978211Y-37677523D01*
X98041973Y-37778999D01*
X98074184Y-37830262D01*
X98201738Y-37957816D01*
X98253425Y-37990293D01*
X98336721Y-38042632D01*
X98354478Y-38053789D01*
X98490691Y-38101452D01*
X98524745Y-38113368D01*
X98524750Y-38113369D01*
X98703996Y-38133565D01*
X98704000Y-38133565D01*
X98704004Y-38133565D01*
X98883249Y-38113369D01*
X98883252Y-38113368D01*
X98883255Y-38113368D01*
X99053522Y-38053789D01*
X99206262Y-37957816D01*
X99333816Y-37830262D01*
X99343949Y-37814135D01*
X99396279Y-37767844D01*
X99465332Y-37757193D01*
X99492277Y-37763923D01*
X99515517Y-37772591D01*
X99575127Y-37779000D01*
X100270872Y-37778999D01*
X100330483Y-37772591D01*
X100330488Y-37772589D01*
X100465329Y-37722297D01*
X100465329Y-37722296D01*
X100465331Y-37722296D01*
X100483688Y-37708553D01*
X100549150Y-37684135D01*
X100617424Y-37698985D01*
X100632308Y-37708550D01*
X100635966Y-37711289D01*
X100650669Y-37722296D01*
X100650670Y-37722297D01*
X100716459Y-37746834D01*
X100785517Y-37772591D01*
X100845127Y-37779000D01*
X101540872Y-37778999D01*
X101600483Y-37772591D01*
X101600488Y-37772589D01*
X101743641Y-37719197D01*
X101745054Y-37722988D01*
X101793901Y-37711554D01*
X101859742Y-37734937D01*
X101890106Y-37766471D01*
X101918885Y-37809543D01*
X102381454Y-38272112D01*
X102381457Y-38272114D01*
X102458430Y-38323545D01*
X102503236Y-38377157D01*
X102511943Y-38446482D01*
X102504005Y-38471729D01*
X102504510Y-38471906D01*
X102442633Y-38648737D01*
X102442630Y-38648750D01*
X102422435Y-38827996D01*
X102422435Y-38828003D01*
X102442630Y-39007249D01*
X102442631Y-39007254D01*
X102502211Y-39177523D01*
X102578340Y-39298681D01*
X102598184Y-39330262D01*
X102725738Y-39457816D01*
X102791185Y-39498939D01*
X102868841Y-39547734D01*
X102878478Y-39553789D01*
X103011670Y-39600395D01*
X103048745Y-39613368D01*
X103048750Y-39613369D01*
X103227996Y-39633565D01*
X103228000Y-39633565D01*
X103228004Y-39633565D01*
X103407249Y-39613369D01*
X103407252Y-39613368D01*
X103407255Y-39613368D01*
X103577522Y-39553789D01*
X103730262Y-39457816D01*
X103857816Y-39330262D01*
X103953789Y-39177522D01*
X104013368Y-39007255D01*
X104013369Y-39007249D01*
X104033565Y-38828003D01*
X104033565Y-38827996D01*
X104013369Y-38648750D01*
X104013366Y-38648737D01*
X103953790Y-38478479D01*
X103947506Y-38468478D01*
X103928500Y-38402507D01*
X103928500Y-38269519D01*
X103948185Y-38202480D01*
X103964819Y-38181838D01*
X103986838Y-38159819D01*
X104048161Y-38126334D01*
X104074519Y-38123500D01*
X104193981Y-38123500D01*
X104261020Y-38143185D01*
X104281662Y-38159819D01*
X104416181Y-38294338D01*
X104449666Y-38355661D01*
X104452500Y-38382018D01*
X104452500Y-38614668D01*
X104452501Y-38614687D01*
X104462825Y-38715752D01*
X104483611Y-38778478D01*
X104517092Y-38879516D01*
X104595881Y-39007254D01*
X104607661Y-39026351D01*
X104721629Y-39140319D01*
X104755114Y-39201642D01*
X104750130Y-39271334D01*
X104721629Y-39315681D01*
X104607661Y-39429648D01*
X104517093Y-39576481D01*
X104517091Y-39576486D01*
X104504870Y-39613368D01*
X104462826Y-39740247D01*
X104462826Y-39740248D01*
X104462825Y-39740248D01*
X104452500Y-39841315D01*
X104452500Y-40439669D01*
X104452501Y-40439687D01*
X104462825Y-40540752D01*
X104462827Y-40540759D01*
X104485430Y-40608971D01*
X104487831Y-40678799D01*
X104452099Y-40738841D01*
X104389579Y-40770033D01*
X104320119Y-40762472D01*
X104293411Y-40747239D01*
X104275332Y-40733704D01*
X104275328Y-40733702D01*
X104140486Y-40683410D01*
X104140485Y-40683409D01*
X104140483Y-40683409D01*
X104080873Y-40677000D01*
X104080863Y-40677000D01*
X103385129Y-40677000D01*
X103385123Y-40677001D01*
X103325516Y-40683408D01*
X103190671Y-40733702D01*
X103190665Y-40733705D01*
X103172309Y-40747447D01*
X103106844Y-40771863D01*
X103038571Y-40757010D01*
X103023691Y-40747447D01*
X103005334Y-40733705D01*
X103005328Y-40733702D01*
X102870486Y-40683410D01*
X102870485Y-40683409D01*
X102870483Y-40683409D01*
X102810873Y-40677000D01*
X102810863Y-40677000D01*
X102111807Y-40677001D01*
X102111807Y-40675466D01*
X102049703Y-40660679D01*
X102001274Y-40610316D01*
X101994206Y-40593984D01*
X101991052Y-40584971D01*
X101953789Y-40478478D01*
X101857816Y-40325738D01*
X101730262Y-40198184D01*
X101674988Y-40163453D01*
X101577523Y-40102211D01*
X101407254Y-40042631D01*
X101407249Y-40042630D01*
X101228004Y-40022435D01*
X101227996Y-40022435D01*
X101048750Y-40042630D01*
X101048745Y-40042631D01*
X100878476Y-40102211D01*
X100725737Y-40198184D01*
X100598184Y-40325737D01*
X100502210Y-40478478D01*
X100459196Y-40601408D01*
X100418474Y-40658184D01*
X100353522Y-40683932D01*
X100328898Y-40683743D01*
X100270844Y-40677500D01*
X100173000Y-40677500D01*
X100173000Y-42610000D01*
X100179181Y-42616181D01*
X100212666Y-42677504D01*
X100215500Y-42703862D01*
X100215500Y-43754000D01*
X100195815Y-43821039D01*
X100143011Y-43866794D01*
X100091500Y-43878000D01*
X98928001Y-43878000D01*
X98928001Y-43914654D01*
X98938319Y-44015652D01*
X98992546Y-44179300D01*
X98992551Y-44179311D01*
X99083052Y-44326034D01*
X99083055Y-44326038D01*
X99204961Y-44447944D01*
X99204965Y-44447947D01*
X99351688Y-44538448D01*
X99351701Y-44538454D01*
X99420753Y-44561335D01*
X99478198Y-44601107D01*
X99505022Y-44665622D01*
X99492708Y-44734398D01*
X99447723Y-44784034D01*
X99325740Y-44860682D01*
X99325737Y-44860684D01*
X99198184Y-44988237D01*
X99102212Y-45140975D01*
X99102211Y-45140976D01*
X99065992Y-45244484D01*
X99036632Y-45291209D01*
X97695662Y-46632181D01*
X97634339Y-46665666D01*
X97607981Y-46668500D01*
X96522098Y-46668500D01*
X96455059Y-46648815D01*
X96409304Y-46596011D01*
X96399360Y-46526853D01*
X96428385Y-46463297D01*
X96434417Y-46456819D01*
X96470137Y-46421099D01*
X96508520Y-46382716D01*
X96570208Y-46275868D01*
X96587577Y-46245785D01*
X96628501Y-46093057D01*
X96628501Y-45934943D01*
X96628501Y-45927348D01*
X96628500Y-45927330D01*
X96628500Y-43378000D01*
X98928000Y-43378000D01*
X99715500Y-43378000D01*
X99715500Y-43045500D01*
X99709319Y-43039319D01*
X99675834Y-42977996D01*
X99673000Y-42951638D01*
X99673000Y-42090000D01*
X99123000Y-42090000D01*
X99123000Y-42550344D01*
X99129401Y-42609872D01*
X99129403Y-42609879D01*
X99175916Y-42734587D01*
X99180900Y-42804279D01*
X99147416Y-42865601D01*
X99083052Y-42929965D01*
X98992551Y-43076688D01*
X98992546Y-43076699D01*
X98938319Y-43240347D01*
X98928000Y-43341345D01*
X98928000Y-43378000D01*
X96628500Y-43378000D01*
X96628500Y-43048945D01*
X96628500Y-43048943D01*
X96587577Y-42896216D01*
X96569902Y-42865601D01*
X96508524Y-42759290D01*
X96508518Y-42759282D01*
X96458700Y-42709464D01*
X96425215Y-42648141D01*
X96423163Y-42635684D01*
X96413368Y-42548745D01*
X96353789Y-42378478D01*
X96346447Y-42366794D01*
X96304657Y-42300285D01*
X96257816Y-42225738D01*
X96130262Y-42098184D01*
X96049284Y-42047302D01*
X95977523Y-42002211D01*
X95807254Y-41942631D01*
X95807249Y-41942630D01*
X95628004Y-41922435D01*
X95627996Y-41922435D01*
X95448750Y-41942630D01*
X95448745Y-41942631D01*
X95278476Y-42002211D01*
X95125737Y-42098184D01*
X94998182Y-42225739D01*
X94925138Y-42341988D01*
X94872803Y-42388278D01*
X94803750Y-42398926D01*
X94739902Y-42370551D01*
X94715152Y-42341988D01*
X94657816Y-42250738D01*
X94530262Y-42123184D01*
X94409497Y-42047302D01*
X94377523Y-42027211D01*
X94207254Y-41967631D01*
X94207249Y-41967630D01*
X94028004Y-41947435D01*
X94027996Y-41947435D01*
X93848750Y-41967630D01*
X93848745Y-41967631D01*
X93678476Y-42027211D01*
X93525737Y-42123184D01*
X93398184Y-42250737D01*
X93302211Y-42403476D01*
X93242631Y-42573745D01*
X93242630Y-42573750D01*
X93222435Y-42752996D01*
X93222435Y-42753003D01*
X93242630Y-42932249D01*
X93242631Y-42932254D01*
X93302211Y-43102523D01*
X93380740Y-43227500D01*
X93398184Y-43255262D01*
X93525738Y-43382816D01*
X93533710Y-43387825D01*
X93663024Y-43469079D01*
X93678478Y-43478789D01*
X93848745Y-43538368D01*
X93862377Y-43539903D01*
X93926790Y-43566966D01*
X93966349Y-43624559D01*
X93972498Y-43663124D01*
X93972498Y-44241773D01*
X93952813Y-44308812D01*
X93900009Y-44354567D01*
X93830851Y-44364511D01*
X93798063Y-44355053D01*
X91719043Y-43429415D01*
X91719022Y-43429407D01*
X91661978Y-43411022D01*
X91518330Y-43402121D01*
X91377995Y-43434052D01*
X91377994Y-43434052D01*
X91377992Y-43434053D01*
X91252342Y-43504222D01*
X91252340Y-43504223D01*
X91151547Y-43606956D01*
X91151543Y-43606961D01*
X91121447Y-43658802D01*
X91121443Y-43658809D01*
X90594419Y-44842526D01*
X90594411Y-44842547D01*
X90576026Y-44899590D01*
X90576026Y-44899592D01*
X90567125Y-45043240D01*
X90599057Y-45183577D01*
X90635138Y-45248185D01*
X90669230Y-45309231D01*
X90714644Y-45353788D01*
X90771962Y-45410025D01*
X90771965Y-45410028D01*
X90812510Y-45433565D01*
X90823812Y-45440126D01*
X93049850Y-46431221D01*
X93103086Y-46476470D01*
X93123408Y-46543319D01*
X93104363Y-46610543D01*
X93051997Y-46656799D01*
X92999414Y-46668500D01*
X92874021Y-46668500D01*
X92823586Y-46657780D01*
X92803450Y-46648815D01*
X91652358Y-46136316D01*
X90702201Y-45713279D01*
X90702180Y-45713271D01*
X90645136Y-45694886D01*
X90501488Y-45685985D01*
X90361153Y-45717916D01*
X90361152Y-45717916D01*
X90361150Y-45717917D01*
X90235500Y-45788086D01*
X90235498Y-45788087D01*
X90134705Y-45890820D01*
X90134701Y-45890825D01*
X90104605Y-45942666D01*
X90104601Y-45942673D01*
X89577577Y-47126390D01*
X89577569Y-47126411D01*
X89559184Y-47183454D01*
X89559184Y-47183456D01*
X89550283Y-47327104D01*
X89582215Y-47467441D01*
X89640239Y-47571341D01*
X89652388Y-47593095D01*
X89755120Y-47693889D01*
X89755123Y-47693892D01*
X89806961Y-47723985D01*
X89806970Y-47723990D01*
X92178302Y-48779774D01*
X92178310Y-48779776D01*
X92178319Y-48779780D01*
X92228751Y-48796034D01*
X92235366Y-48798166D01*
X92311171Y-48802863D01*
X92376862Y-48826655D01*
X92419264Y-48882187D01*
X92427500Y-48926625D01*
X92427500Y-49100594D01*
X92407815Y-49167633D01*
X92355011Y-49213388D01*
X92285853Y-49223332D01*
X92222297Y-49194307D01*
X92216658Y-49189106D01*
X92108541Y-49083028D01*
X92108533Y-49083022D01*
X92056695Y-49052929D01*
X92056685Y-49052924D01*
X89685358Y-47997142D01*
X89685337Y-47997134D01*
X89628293Y-47978749D01*
X89484645Y-47969848D01*
X89344310Y-48001779D01*
X89344309Y-48001779D01*
X89344307Y-48001780D01*
X89218657Y-48071949D01*
X89218655Y-48071950D01*
X89117862Y-48174683D01*
X89117858Y-48174688D01*
X89087762Y-48226529D01*
X89087758Y-48226536D01*
X88560734Y-49410253D01*
X88560726Y-49410274D01*
X88542341Y-49467317D01*
X88542341Y-49467319D01*
X88542341Y-49467321D01*
X88533440Y-49610968D01*
X88549406Y-49681135D01*
X88565372Y-49751304D01*
X88602064Y-49817006D01*
X88635545Y-49876958D01*
X88666424Y-49907254D01*
X88738277Y-49977752D01*
X88738280Y-49977755D01*
X88790118Y-50007848D01*
X88790127Y-50007853D01*
X90788138Y-50897424D01*
X90825383Y-50923022D01*
X93691181Y-53788820D01*
X93724666Y-53850143D01*
X93727500Y-53876501D01*
X93727500Y-57697596D01*
X93707815Y-57764635D01*
X93699353Y-57776261D01*
X93592090Y-57906960D01*
X93592086Y-57906967D01*
X93499186Y-58080771D01*
X93446398Y-58254787D01*
X93408101Y-58313225D01*
X93344288Y-58341682D01*
X93275221Y-58331121D01*
X93222828Y-58284896D01*
X93209077Y-58254786D01*
X93156348Y-58080962D01*
X93090075Y-57956976D01*
X92581553Y-58465499D01*
X92581553Y-58465500D01*
X93090076Y-58974023D01*
X93156348Y-58850037D01*
X93209077Y-58676213D01*
X93247374Y-58617774D01*
X93311187Y-58589318D01*
X93380254Y-58599878D01*
X93432647Y-58646102D01*
X93446398Y-58676212D01*
X93499186Y-58850228D01*
X93592086Y-59024032D01*
X93592090Y-59024039D01*
X93717116Y-59176383D01*
X93869460Y-59301409D01*
X93869467Y-59301413D01*
X93958223Y-59348854D01*
X94043273Y-59394314D01*
X94101996Y-59412127D01*
X94160433Y-59450423D01*
X94188890Y-59514235D01*
X94190000Y-59530787D01*
X94190000Y-59538728D01*
X94170315Y-59605767D01*
X94135071Y-59640368D01*
X94135317Y-59640679D01*
X94132431Y-59642960D01*
X94131107Y-59644261D01*
X94129651Y-59645159D01*
X94129648Y-59645161D01*
X94115325Y-59659484D01*
X94054001Y-59692968D01*
X93984309Y-59687982D01*
X93939965Y-59659482D01*
X93926038Y-59645555D01*
X93926034Y-59645552D01*
X93779311Y-59555051D01*
X93779300Y-59555046D01*
X93615652Y-59500819D01*
X93514654Y-59490500D01*
X93415500Y-59490500D01*
X93415500Y-60591500D01*
X93395815Y-60658539D01*
X93343011Y-60704294D01*
X93291500Y-60715500D01*
X92128001Y-60715500D01*
X92128001Y-60752154D01*
X92138319Y-60853152D01*
X92192546Y-61016800D01*
X92192551Y-61016811D01*
X92283052Y-61163534D01*
X92283055Y-61163538D01*
X92336604Y-61217087D01*
X92370089Y-61278410D01*
X92365105Y-61348102D01*
X92355656Y-61367887D01*
X92326256Y-61417601D01*
X92326254Y-61417606D01*
X92280402Y-61575426D01*
X92280401Y-61575432D01*
X92277500Y-61612298D01*
X92277500Y-61791802D01*
X92257815Y-61858841D01*
X92205011Y-61904596D01*
X92135853Y-61914540D01*
X92088403Y-61897341D01*
X91979305Y-61830048D01*
X91979300Y-61830046D01*
X91815652Y-61775819D01*
X91714654Y-61765500D01*
X91678000Y-61765500D01*
X91678000Y-62929000D01*
X91658315Y-62996039D01*
X91605511Y-63041794D01*
X91554000Y-63053000D01*
X90453001Y-63053000D01*
X90453001Y-63152154D01*
X90463319Y-63253152D01*
X90517546Y-63416800D01*
X90517551Y-63416811D01*
X90608052Y-63563534D01*
X90608055Y-63563538D01*
X90621982Y-63577465D01*
X90655467Y-63638788D01*
X90650483Y-63708480D01*
X90621984Y-63752825D01*
X90607661Y-63767148D01*
X90517093Y-63913981D01*
X90517092Y-63913984D01*
X90462826Y-64077747D01*
X90462826Y-64077748D01*
X90462825Y-64077748D01*
X90452500Y-64178815D01*
X90452500Y-64877169D01*
X90452501Y-64877187D01*
X90462825Y-64978252D01*
X90517092Y-65142015D01*
X90517093Y-65142018D01*
X90607661Y-65288851D01*
X90691181Y-65372371D01*
X90724666Y-65433694D01*
X90727500Y-65460052D01*
X90727500Y-67259006D01*
X90727500Y-67396994D01*
X90727500Y-67396996D01*
X90727499Y-67396996D01*
X90754418Y-67532322D01*
X90754421Y-67532332D01*
X90807222Y-67659807D01*
X90883887Y-67774545D01*
X90883888Y-67774546D01*
X91433886Y-68324542D01*
X91531456Y-68422112D01*
X91532654Y-68423095D01*
X91533113Y-68423769D01*
X91535766Y-68426422D01*
X91535263Y-68426924D01*
X91571995Y-68480836D01*
X91578000Y-68518957D01*
X91578000Y-68578000D01*
X91897839Y-68578000D01*
X91908017Y-68578500D01*
X91909007Y-68578500D01*
X93603500Y-68578500D01*
X93670539Y-68598185D01*
X93716294Y-68650989D01*
X93727500Y-68702500D01*
X93727500Y-70587030D01*
X93707815Y-70654069D01*
X93672396Y-70690129D01*
X93669461Y-70692089D01*
X93517116Y-70817116D01*
X93392090Y-70969460D01*
X93392086Y-70969467D01*
X93299186Y-71143271D01*
X93246660Y-71316425D01*
X93208363Y-71374863D01*
X93144550Y-71403320D01*
X93075484Y-71392759D01*
X93023090Y-71346534D01*
X93009340Y-71316425D01*
X92956813Y-71143271D01*
X92863913Y-70969467D01*
X92863909Y-70969460D01*
X92738883Y-70817116D01*
X92586539Y-70692090D01*
X92586532Y-70692086D01*
X92412733Y-70599188D01*
X92412727Y-70599186D01*
X92224132Y-70541976D01*
X92224129Y-70541975D01*
X92028000Y-70522659D01*
X91831870Y-70541975D01*
X91643266Y-70599188D01*
X91469467Y-70692086D01*
X91469460Y-70692090D01*
X91317116Y-70817116D01*
X91192090Y-70969460D01*
X91192086Y-70969467D01*
X91099188Y-71143266D01*
X91041975Y-71331870D01*
X91022659Y-71528000D01*
X91041975Y-71724129D01*
X91099188Y-71912733D01*
X91192086Y-72086532D01*
X91192090Y-72086539D01*
X91317116Y-72238883D01*
X91469460Y-72363909D01*
X91469467Y-72363913D01*
X91643266Y-72456811D01*
X91643269Y-72456811D01*
X91643273Y-72456814D01*
X91831868Y-72514024D01*
X92000135Y-72530596D01*
X92064921Y-72556757D01*
X92075661Y-72566318D01*
X92981453Y-73472111D01*
X92981454Y-73472112D01*
X93096192Y-73548777D01*
X93223667Y-73601578D01*
X93223672Y-73601580D01*
X93223676Y-73601580D01*
X93223677Y-73601581D01*
X93359003Y-73628500D01*
X93359006Y-73628500D01*
X93359007Y-73628500D01*
X95886481Y-73628500D01*
X95953520Y-73648185D01*
X95974162Y-73664819D01*
X96663162Y-74353819D01*
X96696647Y-74415142D01*
X96691663Y-74484834D01*
X96649791Y-74540767D01*
X96622585Y-74550914D01*
X96608000Y-74565500D01*
X96608000Y-76515499D01*
X96707140Y-76515499D01*
X96707154Y-76515498D01*
X96808152Y-76505180D01*
X96971800Y-76450953D01*
X96971811Y-76450948D01*
X97118535Y-76360447D01*
X97132460Y-76346521D01*
X97193782Y-76313033D01*
X97263473Y-76318014D01*
X97307827Y-76346517D01*
X97322150Y-76360840D01*
X97468984Y-76451408D01*
X97632747Y-76505674D01*
X97733823Y-76516000D01*
X98432176Y-76515999D01*
X98432184Y-76515998D01*
X98432187Y-76515998D01*
X98487530Y-76510344D01*
X98533253Y-76505674D01*
X98697016Y-76451408D01*
X98843850Y-76360840D01*
X98843852Y-76360838D01*
X98849513Y-76356362D01*
X98851275Y-76358591D01*
X98901194Y-76331334D01*
X98927552Y-76328500D01*
X99266254Y-76328500D01*
X99333293Y-76348185D01*
X99340789Y-76353423D01*
X99340906Y-76353488D01*
X99340908Y-76353490D01*
X99479282Y-76408057D01*
X99566241Y-76418500D01*
X100299001Y-76418499D01*
X100366039Y-76438183D01*
X100411794Y-76490987D01*
X100423000Y-76542499D01*
X100423000Y-76613500D01*
X100403315Y-76680539D01*
X100350511Y-76726294D01*
X100299000Y-76737500D01*
X99566248Y-76737500D01*
X99479283Y-76747942D01*
X99340908Y-76802509D01*
X99340655Y-76802701D01*
X99340519Y-76802804D01*
X99340102Y-76802963D01*
X99333517Y-76806666D01*
X99332961Y-76805677D01*
X99275210Y-76827627D01*
X99265596Y-76828000D01*
X99068000Y-76828000D01*
X99057815Y-76838184D01*
X99048315Y-76870539D01*
X98995511Y-76916294D01*
X98944000Y-76927500D01*
X98890916Y-76927500D01*
X98825820Y-76909039D01*
X98710946Y-76838184D01*
X98697018Y-76829593D01*
X98697013Y-76829591D01*
X98691086Y-76827627D01*
X98533253Y-76775326D01*
X98533251Y-76775325D01*
X98432178Y-76765000D01*
X97833830Y-76765000D01*
X97833812Y-76765001D01*
X97732747Y-76775325D01*
X97568984Y-76829592D01*
X97568981Y-76829593D01*
X97422151Y-76920159D01*
X97307827Y-77034483D01*
X97246504Y-77067967D01*
X97176812Y-77062983D01*
X97132465Y-77034482D01*
X97018538Y-76920555D01*
X97018534Y-76920552D01*
X96871811Y-76830051D01*
X96871800Y-76830046D01*
X96708152Y-76775819D01*
X96607154Y-76765500D01*
X96558000Y-76765500D01*
X96558000Y-78715499D01*
X96607140Y-78715499D01*
X96607154Y-78715498D01*
X96708152Y-78705180D01*
X96871800Y-78650953D01*
X96871811Y-78650948D01*
X97018533Y-78560448D01*
X97132464Y-78446517D01*
X97193787Y-78413032D01*
X97263479Y-78418016D01*
X97307827Y-78446517D01*
X97422150Y-78560840D01*
X97568984Y-78651408D01*
X97732747Y-78705674D01*
X97833823Y-78716000D01*
X98432176Y-78715999D01*
X98432184Y-78715998D01*
X98432187Y-78715998D01*
X98487530Y-78710344D01*
X98533253Y-78705674D01*
X98697016Y-78651408D01*
X98843850Y-78560840D01*
X98965840Y-78438850D01*
X99056408Y-78292016D01*
X99069224Y-78253339D01*
X99108993Y-78195898D01*
X99173508Y-78169074D01*
X99242284Y-78181388D01*
X99261853Y-78193542D01*
X99340715Y-78253344D01*
X99340908Y-78253490D01*
X99479282Y-78308057D01*
X99566241Y-78318500D01*
X100779758Y-78318499D01*
X100866718Y-78308057D01*
X101005092Y-78253490D01*
X101123613Y-78163613D01*
X101213490Y-78045092D01*
X101268057Y-77906718D01*
X101278500Y-77819759D01*
X101278499Y-77236242D01*
X101278499Y-77236241D01*
X101278499Y-77235307D01*
X101298183Y-77168268D01*
X101350987Y-77122513D01*
X101420146Y-77112569D01*
X101471391Y-77132206D01*
X101496180Y-77148770D01*
X101496186Y-77148773D01*
X101496189Y-77148775D01*
X101500948Y-77150746D01*
X101555353Y-77194585D01*
X101577421Y-77260878D01*
X101577500Y-77265309D01*
X101577500Y-77819751D01*
X101587942Y-77906716D01*
X101642510Y-78045092D01*
X101642511Y-78045094D01*
X101732386Y-78163613D01*
X101850715Y-78253344D01*
X101850908Y-78253490D01*
X101989282Y-78308057D01*
X102076241Y-78318500D01*
X103289758Y-78318499D01*
X103376718Y-78308057D01*
X103386828Y-78304069D01*
X103456411Y-78297783D01*
X103518350Y-78330115D01*
X103520005Y-78331740D01*
X103941181Y-78752916D01*
X103974666Y-78814239D01*
X103977500Y-78840597D01*
X103977500Y-82421330D01*
X103977499Y-82421348D01*
X103977499Y-82587054D01*
X103977498Y-82587054D01*
X104018423Y-82739785D01*
X104047358Y-82789900D01*
X104047359Y-82789904D01*
X104047360Y-82789904D01*
X104097479Y-82876714D01*
X104097481Y-82876717D01*
X104216349Y-82995585D01*
X104216355Y-82995590D01*
X104616181Y-83395416D01*
X104649666Y-83456739D01*
X104652500Y-83483097D01*
X104652500Y-83894669D01*
X104652501Y-83894687D01*
X104662825Y-83995752D01*
X104677222Y-84039198D01*
X104717092Y-84159516D01*
X104807660Y-84306350D01*
X104929650Y-84428340D01*
X105076484Y-84518908D01*
X105240247Y-84573174D01*
X105341323Y-84583500D01*
X105914676Y-84583499D01*
X105914684Y-84583498D01*
X105914687Y-84583498D01*
X105970030Y-84577844D01*
X106015753Y-84573174D01*
X106179516Y-84518908D01*
X106326350Y-84428340D01*
X106448340Y-84306350D01*
X106538908Y-84159516D01*
X106582488Y-84028000D01*
X108378346Y-84028000D01*
X108396931Y-84264156D01*
X108452235Y-84494512D01*
X108452238Y-84494520D01*
X108542885Y-84713365D01*
X108542887Y-84713368D01*
X108659228Y-84903218D01*
X109271651Y-84290795D01*
X109294254Y-84345364D01*
X109367577Y-84455100D01*
X109460900Y-84548423D01*
X109570636Y-84621746D01*
X109625203Y-84644348D01*
X109012780Y-85256770D01*
X109012780Y-85256771D01*
X109202631Y-85373112D01*
X109202634Y-85373114D01*
X109421479Y-85463761D01*
X109421487Y-85463764D01*
X109651843Y-85519068D01*
X109888000Y-85537653D01*
X110124156Y-85519068D01*
X110354512Y-85463764D01*
X110354520Y-85463761D01*
X110573365Y-85373114D01*
X110573368Y-85373112D01*
X110763217Y-85256771D01*
X110763218Y-85256770D01*
X110150796Y-84644348D01*
X110205364Y-84621746D01*
X110315100Y-84548423D01*
X110408423Y-84455100D01*
X110481746Y-84345364D01*
X110504348Y-84290796D01*
X111116770Y-84903218D01*
X111116771Y-84903217D01*
X111233112Y-84713368D01*
X111233114Y-84713365D01*
X111323761Y-84494520D01*
X111323764Y-84494512D01*
X111379068Y-84264156D01*
X111397653Y-84028000D01*
X111379068Y-83791843D01*
X111323764Y-83561487D01*
X111323761Y-83561479D01*
X111233114Y-83342634D01*
X111233112Y-83342631D01*
X111116770Y-83152780D01*
X110504348Y-83765202D01*
X110481746Y-83710636D01*
X110408423Y-83600900D01*
X110315100Y-83507577D01*
X110205364Y-83434254D01*
X110150796Y-83411651D01*
X110763218Y-82799228D01*
X110573368Y-82682887D01*
X110573365Y-82682885D01*
X110354520Y-82592238D01*
X110354512Y-82592235D01*
X110124156Y-82536931D01*
X109888000Y-82518346D01*
X109651843Y-82536931D01*
X109421487Y-82592235D01*
X109421479Y-82592238D01*
X109202634Y-82682885D01*
X109202631Y-82682887D01*
X109012780Y-82799228D01*
X109625203Y-83411651D01*
X109570636Y-83434254D01*
X109460900Y-83507577D01*
X109367577Y-83600900D01*
X109294254Y-83710636D01*
X109271651Y-83765203D01*
X108659228Y-83152780D01*
X108542887Y-83342631D01*
X108542885Y-83342634D01*
X108452238Y-83561479D01*
X108452235Y-83561487D01*
X108396931Y-83791843D01*
X108378346Y-84028000D01*
X106582488Y-84028000D01*
X106593174Y-83995753D01*
X106603500Y-83894677D01*
X106603499Y-83221324D01*
X106593174Y-83120247D01*
X106538908Y-82956484D01*
X106448340Y-82809650D01*
X106409371Y-82770681D01*
X106375886Y-82709358D01*
X106380870Y-82639666D01*
X106409371Y-82595319D01*
X106427646Y-82577044D01*
X106448340Y-82556350D01*
X106538908Y-82409516D01*
X106593174Y-82245753D01*
X106603500Y-82144677D01*
X106603499Y-81471324D01*
X106602012Y-81456771D01*
X106593174Y-81370247D01*
X106538908Y-81206484D01*
X106538904Y-81206478D01*
X106538903Y-81206475D01*
X106455092Y-81070597D01*
X106436651Y-81003205D01*
X106455092Y-80940403D01*
X106471768Y-80913368D01*
X106538908Y-80804516D01*
X106593174Y-80640753D01*
X106603500Y-80539677D01*
X106603499Y-80228000D01*
X108378346Y-80228000D01*
X108396931Y-80464156D01*
X108452235Y-80694512D01*
X108452238Y-80694520D01*
X108542885Y-80913365D01*
X108542887Y-80913368D01*
X108659228Y-81103218D01*
X109271651Y-80490795D01*
X109294254Y-80545364D01*
X109367577Y-80655100D01*
X109460900Y-80748423D01*
X109570636Y-80821746D01*
X109625203Y-80844348D01*
X109012780Y-81456770D01*
X109012780Y-81456771D01*
X109202631Y-81573112D01*
X109202634Y-81573114D01*
X109421479Y-81663761D01*
X109421487Y-81663764D01*
X109651843Y-81719068D01*
X109888000Y-81737653D01*
X110124156Y-81719068D01*
X110354512Y-81663764D01*
X110354520Y-81663761D01*
X110573365Y-81573114D01*
X110573368Y-81573112D01*
X110763217Y-81456771D01*
X110763218Y-81456770D01*
X110150796Y-80844348D01*
X110205364Y-80821746D01*
X110315100Y-80748423D01*
X110408423Y-80655100D01*
X110481746Y-80545364D01*
X110504348Y-80490795D01*
X111071696Y-81058143D01*
X111105181Y-81119466D01*
X111100197Y-81189158D01*
X111071696Y-81233505D01*
X111057201Y-81247999D01*
X111057202Y-81248000D01*
X111208000Y-81248000D01*
X111208000Y-79048000D01*
X111010155Y-79048000D01*
X110950627Y-79054401D01*
X110950617Y-79054403D01*
X110935902Y-79059892D01*
X110866210Y-79064874D01*
X110812040Y-79037999D01*
X110775348Y-79006661D01*
X110775346Y-79006660D01*
X110573368Y-78882887D01*
X110573365Y-78882885D01*
X110354520Y-78792238D01*
X110354512Y-78792235D01*
X110124156Y-78736931D01*
X109888000Y-78718346D01*
X109651843Y-78736931D01*
X109421487Y-78792235D01*
X109421479Y-78792238D01*
X109202634Y-78882885D01*
X109202631Y-78882887D01*
X109012780Y-78999228D01*
X109625203Y-79611651D01*
X109570636Y-79634254D01*
X109460900Y-79707577D01*
X109367577Y-79800900D01*
X109294254Y-79910636D01*
X109271651Y-79965203D01*
X108659228Y-79352780D01*
X108542887Y-79542631D01*
X108542885Y-79542634D01*
X108452238Y-79761479D01*
X108452235Y-79761487D01*
X108396931Y-79991843D01*
X108378346Y-80228000D01*
X106603499Y-80228000D01*
X106603499Y-79941324D01*
X106593174Y-79840247D01*
X106538908Y-79676484D01*
X106448340Y-79529650D01*
X106334371Y-79415681D01*
X106300886Y-79354358D01*
X106305870Y-79284666D01*
X106334371Y-79240319D01*
X106384236Y-79190454D01*
X106448340Y-79126350D01*
X106538908Y-78979516D01*
X106593174Y-78815753D01*
X106603500Y-78714677D01*
X106603499Y-78116324D01*
X106593174Y-78015247D01*
X106538908Y-77851484D01*
X106538904Y-77851478D01*
X106538903Y-77851475D01*
X106492838Y-77776793D01*
X106479145Y-77754593D01*
X106460705Y-77687203D01*
X106481627Y-77620539D01*
X106504799Y-77601199D01*
X106540500Y-77565499D01*
X106540500Y-75673862D01*
X106560185Y-75606823D01*
X106576819Y-75586181D01*
X106590500Y-75572500D01*
X106590500Y-74852000D01*
X106610185Y-74784961D01*
X106662989Y-74739206D01*
X106714500Y-74728000D01*
X106966500Y-74728000D01*
X107033539Y-74747685D01*
X107079294Y-74800489D01*
X107090500Y-74852000D01*
X107090500Y-75894638D01*
X107070815Y-75961677D01*
X107054181Y-75982319D01*
X107040500Y-75996000D01*
X107040500Y-77565499D01*
X107139640Y-77565499D01*
X107139654Y-77565498D01*
X107240652Y-77555180D01*
X107404300Y-77500953D01*
X107404311Y-77500948D01*
X107551033Y-77410448D01*
X107642840Y-77318641D01*
X107704163Y-77285156D01*
X107773855Y-77290140D01*
X107829789Y-77332011D01*
X107853812Y-77393069D01*
X107858908Y-77440483D01*
X107909202Y-77575328D01*
X107909206Y-77575335D01*
X107995452Y-77690544D01*
X107995455Y-77690547D01*
X108110664Y-77776793D01*
X108110671Y-77776797D01*
X108245517Y-77827091D01*
X108245516Y-77827091D01*
X108252444Y-77827835D01*
X108305127Y-77833500D01*
X109580872Y-77833499D01*
X109640483Y-77827091D01*
X109775331Y-77776796D01*
X109890546Y-77690546D01*
X109976796Y-77575331D01*
X110027091Y-77440483D01*
X110033500Y-77380873D01*
X110033499Y-74652499D01*
X110053184Y-74585461D01*
X110105987Y-74539706D01*
X110157499Y-74528500D01*
X110698500Y-74528500D01*
X110765539Y-74548185D01*
X110811294Y-74600989D01*
X110822500Y-74652500D01*
X110822500Y-77380870D01*
X110822501Y-77380876D01*
X110828908Y-77440483D01*
X110879202Y-77575328D01*
X110879206Y-77575335D01*
X110965452Y-77690544D01*
X110965455Y-77690547D01*
X111080664Y-77776793D01*
X111080673Y-77776798D01*
X111139389Y-77798697D01*
X111195323Y-77840567D01*
X111205414Y-77856423D01*
X111207224Y-77859809D01*
X111283887Y-77974545D01*
X111283888Y-77974546D01*
X111951181Y-78641838D01*
X111984666Y-78703161D01*
X111987500Y-78729519D01*
X111987500Y-78924000D01*
X111967815Y-78991039D01*
X111915011Y-79036794D01*
X111863500Y-79048000D01*
X111708000Y-79048000D01*
X111708000Y-81248000D01*
X111905828Y-81248000D01*
X111905844Y-81247999D01*
X111965377Y-81241597D01*
X111965379Y-81241597D01*
X112038950Y-81214156D01*
X112108642Y-81209170D01*
X112125619Y-81214156D01*
X112200508Y-81242088D01*
X112200511Y-81242088D01*
X112200517Y-81242091D01*
X112260127Y-81248500D01*
X112983500Y-81248499D01*
X113050539Y-81268183D01*
X113096294Y-81320987D01*
X113107500Y-81372499D01*
X113107500Y-82945587D01*
X113087815Y-83012626D01*
X113080450Y-83022896D01*
X113078186Y-83025734D01*
X112982211Y-83178476D01*
X112922631Y-83348745D01*
X112922630Y-83348750D01*
X112902435Y-83527996D01*
X112902435Y-83528003D01*
X112922630Y-83707249D01*
X112922631Y-83707254D01*
X112982211Y-83877523D01*
X113076762Y-84027999D01*
X113078184Y-84030262D01*
X113205738Y-84157816D01*
X113358478Y-84253789D01*
X113433248Y-84279952D01*
X113528745Y-84313368D01*
X113528750Y-84313369D01*
X113707996Y-84333565D01*
X113708000Y-84333565D01*
X113708004Y-84333565D01*
X113887249Y-84313369D01*
X113887252Y-84313368D01*
X113887255Y-84313368D01*
X114057522Y-84253789D01*
X114152028Y-84194406D01*
X114219264Y-84175406D01*
X114283971Y-84194406D01*
X114318638Y-84216189D01*
X114378475Y-84253788D01*
X114548745Y-84313368D01*
X114548750Y-84313369D01*
X114727996Y-84333565D01*
X114728000Y-84333565D01*
X114728004Y-84333565D01*
X114907249Y-84313369D01*
X114907252Y-84313368D01*
X114907255Y-84313368D01*
X115077522Y-84253789D01*
X115230262Y-84157816D01*
X115357816Y-84030262D01*
X115359237Y-84028000D01*
X117018346Y-84028000D01*
X117036931Y-84264156D01*
X117092235Y-84494512D01*
X117092238Y-84494520D01*
X117182885Y-84713365D01*
X117182887Y-84713368D01*
X117299228Y-84903218D01*
X117911651Y-84290795D01*
X117934254Y-84345364D01*
X118007577Y-84455100D01*
X118100900Y-84548423D01*
X118210636Y-84621746D01*
X118265203Y-84644348D01*
X117652780Y-85256770D01*
X117652780Y-85256771D01*
X117842631Y-85373112D01*
X117842634Y-85373114D01*
X118061479Y-85463761D01*
X118061487Y-85463764D01*
X118291843Y-85519068D01*
X118528000Y-85537653D01*
X118764156Y-85519068D01*
X118994512Y-85463764D01*
X118994520Y-85463761D01*
X119213365Y-85373114D01*
X119213368Y-85373112D01*
X119403217Y-85256771D01*
X119403218Y-85256770D01*
X118790796Y-84644348D01*
X118845364Y-84621746D01*
X118955100Y-84548423D01*
X119048423Y-84455100D01*
X119121746Y-84345364D01*
X119144348Y-84290796D01*
X119756770Y-84903218D01*
X119756771Y-84903217D01*
X119873112Y-84713368D01*
X119873114Y-84713365D01*
X119963761Y-84494520D01*
X119963764Y-84494512D01*
X120019068Y-84264156D01*
X120037653Y-84028000D01*
X120019068Y-83791843D01*
X119963764Y-83561487D01*
X119963761Y-83561479D01*
X119873114Y-83342634D01*
X119873112Y-83342631D01*
X119756770Y-83152780D01*
X119144348Y-83765202D01*
X119121746Y-83710636D01*
X119048423Y-83600900D01*
X118955100Y-83507577D01*
X118845364Y-83434254D01*
X118790796Y-83411651D01*
X119403218Y-82799228D01*
X119213368Y-82682887D01*
X119213365Y-82682885D01*
X118994520Y-82592238D01*
X118994512Y-82592235D01*
X118764156Y-82536931D01*
X118528000Y-82518346D01*
X118291843Y-82536931D01*
X118061487Y-82592235D01*
X118061479Y-82592238D01*
X117842634Y-82682885D01*
X117842631Y-82682887D01*
X117652780Y-82799228D01*
X118265203Y-83411651D01*
X118210636Y-83434254D01*
X118100900Y-83507577D01*
X118007577Y-83600900D01*
X117934254Y-83710636D01*
X117911651Y-83765203D01*
X117299228Y-83152780D01*
X117182887Y-83342631D01*
X117182885Y-83342634D01*
X117092238Y-83561479D01*
X117092235Y-83561487D01*
X117036931Y-83791843D01*
X117018346Y-84028000D01*
X115359237Y-84028000D01*
X115453789Y-83877522D01*
X115513368Y-83707255D01*
X115517065Y-83674447D01*
X115533565Y-83528003D01*
X115533565Y-83527996D01*
X115513369Y-83348750D01*
X115513368Y-83348745D01*
X115511229Y-83342631D01*
X115453789Y-83178478D01*
X115357816Y-83025738D01*
X115357814Y-83025736D01*
X115357813Y-83025734D01*
X115355550Y-83022896D01*
X115354659Y-83020715D01*
X115354111Y-83019842D01*
X115354264Y-83019745D01*
X115329144Y-82958209D01*
X115328500Y-82945587D01*
X115328500Y-81372499D01*
X115348185Y-81305460D01*
X115400989Y-81259705D01*
X115452500Y-81248499D01*
X116155871Y-81248499D01*
X116155872Y-81248499D01*
X116215483Y-81242091D01*
X116290380Y-81214155D01*
X116360071Y-81209171D01*
X116377049Y-81214156D01*
X116450621Y-81241597D01*
X116510155Y-81247999D01*
X116510172Y-81248000D01*
X116708000Y-81248000D01*
X117208000Y-81248000D01*
X117358797Y-81248000D01*
X117344303Y-81233506D01*
X117310818Y-81172183D01*
X117315802Y-81102491D01*
X117344303Y-81058143D01*
X117911650Y-80490795D01*
X117934254Y-80545364D01*
X118007577Y-80655100D01*
X118100900Y-80748423D01*
X118210636Y-80821746D01*
X118265203Y-80844348D01*
X117652780Y-81456770D01*
X117652780Y-81456771D01*
X117842631Y-81573112D01*
X117842634Y-81573114D01*
X118061479Y-81663761D01*
X118061487Y-81663764D01*
X118291843Y-81719068D01*
X118528000Y-81737653D01*
X118764156Y-81719068D01*
X118994512Y-81663764D01*
X118994520Y-81663761D01*
X119213365Y-81573114D01*
X119213368Y-81573112D01*
X119403217Y-81456771D01*
X119403218Y-81456770D01*
X118790796Y-80844348D01*
X118845364Y-80821746D01*
X118955100Y-80748423D01*
X119048423Y-80655100D01*
X119121746Y-80545364D01*
X119144348Y-80490796D01*
X119756770Y-81103218D01*
X119756771Y-81103217D01*
X119873112Y-80913368D01*
X119873114Y-80913365D01*
X119963761Y-80694520D01*
X119963764Y-80694512D01*
X120019068Y-80464156D01*
X120037653Y-80228000D01*
X120019068Y-79991843D01*
X119963764Y-79761487D01*
X119963761Y-79761479D01*
X119873114Y-79542634D01*
X119873112Y-79542631D01*
X119756770Y-79352780D01*
X119144348Y-79965202D01*
X119121746Y-79910636D01*
X119048423Y-79800900D01*
X118955100Y-79707577D01*
X118845364Y-79634254D01*
X118790795Y-79611651D01*
X119403218Y-78999228D01*
X119213368Y-78882887D01*
X119213365Y-78882885D01*
X118994520Y-78792238D01*
X118994512Y-78792235D01*
X118764156Y-78736931D01*
X118528000Y-78718346D01*
X118291843Y-78736931D01*
X118061487Y-78792235D01*
X118061479Y-78792238D01*
X117842634Y-78882885D01*
X117842631Y-78882887D01*
X117640656Y-79006658D01*
X117640647Y-79006664D01*
X117603956Y-79038001D01*
X117540194Y-79066570D01*
X117480092Y-79059891D01*
X117465376Y-79054402D01*
X117465372Y-79054401D01*
X117405844Y-79048000D01*
X117208000Y-79048000D01*
X117208000Y-81248000D01*
X116708000Y-81248000D01*
X116708000Y-79048000D01*
X116510155Y-79048000D01*
X116450627Y-79054401D01*
X116450618Y-79054403D01*
X116444013Y-79056867D01*
X116374321Y-79061848D01*
X116313000Y-79028360D01*
X116297582Y-79009573D01*
X116272112Y-78971454D01*
X115684545Y-78383887D01*
X115569807Y-78307222D01*
X115442332Y-78254421D01*
X115442322Y-78254418D01*
X115306996Y-78227500D01*
X115306994Y-78227500D01*
X115306993Y-78227500D01*
X113462588Y-78227500D01*
X113395549Y-78207815D01*
X113349794Y-78155011D01*
X113348027Y-78150952D01*
X113308776Y-78056192D01*
X113308775Y-78056189D01*
X113232114Y-77941457D01*
X113232113Y-77941456D01*
X113228729Y-77936391D01*
X113231000Y-77934873D01*
X113208290Y-77881391D01*
X113220086Y-77812524D01*
X113267241Y-77760967D01*
X113334785Y-77743089D01*
X113370457Y-77749337D01*
X113502747Y-77793174D01*
X113603823Y-77803500D01*
X114202176Y-77803499D01*
X114202184Y-77803498D01*
X114202187Y-77803498D01*
X114257530Y-77797844D01*
X114303253Y-77793174D01*
X114467016Y-77738908D01*
X114613850Y-77648340D01*
X114727819Y-77534371D01*
X114789142Y-77500886D01*
X114858834Y-77505870D01*
X114903181Y-77534371D01*
X115017150Y-77648340D01*
X115163984Y-77738908D01*
X115327747Y-77793174D01*
X115428823Y-77803500D01*
X116027176Y-77803499D01*
X116027184Y-77803498D01*
X116027187Y-77803498D01*
X116082530Y-77797844D01*
X116128253Y-77793174D01*
X116292016Y-77738908D01*
X116438850Y-77648340D01*
X116560840Y-77526350D01*
X116651408Y-77379516D01*
X116705674Y-77215753D01*
X116716000Y-77114677D01*
X116715999Y-76541324D01*
X116712357Y-76505674D01*
X116705674Y-76440247D01*
X116689429Y-76391224D01*
X116651408Y-76276484D01*
X116560840Y-76129650D01*
X116452767Y-76021577D01*
X116419282Y-75960254D01*
X116424266Y-75890562D01*
X116452767Y-75846214D01*
X116572948Y-75726033D01*
X116663448Y-75579311D01*
X116663453Y-75579300D01*
X116717680Y-75415652D01*
X116727999Y-75314654D01*
X116728000Y-75314641D01*
X116728000Y-75278000D01*
X115614500Y-75278000D01*
X115547461Y-75258315D01*
X115501706Y-75205511D01*
X115490500Y-75154000D01*
X115490500Y-74849288D01*
X132177500Y-74849288D01*
X132187796Y-74927500D01*
X132209162Y-75089789D01*
X132226367Y-75154000D01*
X132271947Y-75324104D01*
X132289199Y-75365753D01*
X132364776Y-75548212D01*
X132486064Y-75758289D01*
X132486066Y-75758292D01*
X132486067Y-75758293D01*
X132633733Y-75950736D01*
X132633739Y-75950743D01*
X132805256Y-76122260D01*
X132805263Y-76122266D01*
X132814886Y-76129650D01*
X132997711Y-76269936D01*
X133207788Y-76391224D01*
X133431900Y-76484054D01*
X133666211Y-76546838D01*
X133846586Y-76570584D01*
X133906711Y-76578500D01*
X133906712Y-76578500D01*
X134149289Y-76578500D01*
X134197388Y-76572167D01*
X134389789Y-76546838D01*
X134624100Y-76484054D01*
X134848212Y-76391224D01*
X135058289Y-76269936D01*
X135250738Y-76122265D01*
X135422265Y-75950738D01*
X135569936Y-75758289D01*
X135691224Y-75548212D01*
X135784054Y-75324100D01*
X135846838Y-75089789D01*
X135878500Y-74849288D01*
X135878500Y-74606712D01*
X135846838Y-74366211D01*
X135784054Y-74131900D01*
X135691224Y-73907788D01*
X135569936Y-73697711D01*
X135498698Y-73604872D01*
X135422266Y-73505263D01*
X135422260Y-73505256D01*
X135250743Y-73333739D01*
X135250736Y-73333733D01*
X135058293Y-73186067D01*
X135058292Y-73186066D01*
X135058289Y-73186064D01*
X134848212Y-73064776D01*
X134848205Y-73064773D01*
X134624104Y-72971947D01*
X134389785Y-72909161D01*
X134149289Y-72877500D01*
X134149288Y-72877500D01*
X133906712Y-72877500D01*
X133906711Y-72877500D01*
X133666214Y-72909161D01*
X133431895Y-72971947D01*
X133207794Y-73064773D01*
X133207785Y-73064777D01*
X132997706Y-73186067D01*
X132805263Y-73333733D01*
X132805256Y-73333739D01*
X132633739Y-73505256D01*
X132633733Y-73505263D01*
X132486067Y-73697706D01*
X132364777Y-73907785D01*
X132364773Y-73907794D01*
X132271947Y-74131895D01*
X132209161Y-74366214D01*
X132177500Y-74606711D01*
X132177500Y-74849288D01*
X115490500Y-74849288D01*
X115490500Y-74053000D01*
X115990500Y-74053000D01*
X115990500Y-74778000D01*
X116727999Y-74778000D01*
X116727999Y-74741360D01*
X116727998Y-74741345D01*
X116717680Y-74640347D01*
X116663453Y-74476699D01*
X116663448Y-74476688D01*
X116572947Y-74329965D01*
X116572944Y-74329961D01*
X116451038Y-74208055D01*
X116451034Y-74208052D01*
X116304311Y-74117551D01*
X116304300Y-74117546D01*
X116140652Y-74063319D01*
X116039654Y-74053000D01*
X115990500Y-74053000D01*
X115490500Y-74053000D01*
X115490499Y-74052999D01*
X115441361Y-74053000D01*
X115441343Y-74053001D01*
X115340347Y-74063319D01*
X115176699Y-74117546D01*
X115176688Y-74117551D01*
X115029965Y-74208052D01*
X114916034Y-74321983D01*
X114854711Y-74355467D01*
X114785019Y-74350483D01*
X114740672Y-74321982D01*
X114626351Y-74207661D01*
X114626350Y-74207660D01*
X114503524Y-74131900D01*
X114479518Y-74117093D01*
X114479513Y-74117091D01*
X114478069Y-74116612D01*
X114315753Y-74062826D01*
X114315751Y-74062825D01*
X114214684Y-74052500D01*
X114214677Y-74052500D01*
X113840597Y-74052500D01*
X113773558Y-74032815D01*
X113752916Y-74016181D01*
X113303090Y-73566355D01*
X113303088Y-73566352D01*
X113184217Y-73447481D01*
X113184216Y-73447480D01*
X113074068Y-73383886D01*
X113074066Y-73383885D01*
X113047285Y-73368423D01*
X113047284Y-73368422D01*
X113047283Y-73368422D01*
X112991381Y-73353443D01*
X112894557Y-73327499D01*
X112736443Y-73327499D01*
X112728847Y-73327499D01*
X112728831Y-73327500D01*
X109635203Y-73327500D01*
X109568164Y-73307815D01*
X109547522Y-73291181D01*
X108872696Y-72616355D01*
X108872694Y-72616352D01*
X108753823Y-72497481D01*
X108753822Y-72497480D01*
X108667010Y-72447360D01*
X108667010Y-72447359D01*
X108667006Y-72447358D01*
X108616891Y-72418423D01*
X108464163Y-72377499D01*
X108306049Y-72377499D01*
X108298453Y-72377499D01*
X108298437Y-72377500D01*
X98285203Y-72377500D01*
X98218164Y-72357815D01*
X98197522Y-72341181D01*
X96064819Y-70208478D01*
X96031334Y-70147155D01*
X96028500Y-70120797D01*
X96028500Y-68085204D01*
X96048185Y-68018165D01*
X96064819Y-67997523D01*
X96808516Y-67253827D01*
X96808516Y-67253826D01*
X96808519Y-67253824D01*
X96837043Y-67204420D01*
X96887577Y-67116891D01*
X96923209Y-66983909D01*
X96928500Y-66964165D01*
X96928500Y-66806050D01*
X96928500Y-63318047D01*
X96948185Y-63251008D01*
X96964815Y-63230370D01*
X97684648Y-62510536D01*
X97745969Y-62477053D01*
X97758424Y-62475001D01*
X97845368Y-62465206D01*
X98015635Y-62405627D01*
X98168375Y-62309654D01*
X98295929Y-62182100D01*
X98391902Y-62029360D01*
X98451481Y-61859093D01*
X98451482Y-61859087D01*
X98471678Y-61679841D01*
X98471678Y-61679834D01*
X98451482Y-61500588D01*
X98451481Y-61500583D01*
X98391901Y-61330313D01*
X98320755Y-61217087D01*
X98299590Y-61183403D01*
X98280590Y-61116168D01*
X98300957Y-61049333D01*
X98316892Y-61029762D01*
X98417273Y-60929381D01*
X98478594Y-60895900D01*
X98533897Y-60896491D01*
X98770576Y-60953313D01*
X99028000Y-60973573D01*
X99285424Y-60953313D01*
X99536510Y-60893033D01*
X99775075Y-60794216D01*
X99995244Y-60659297D01*
X100191596Y-60491596D01*
X100359297Y-60295244D01*
X100494216Y-60075075D01*
X100593033Y-59836510D01*
X100653313Y-59585424D01*
X100673573Y-59328000D01*
X117872929Y-59328000D01*
X117893183Y-59585349D01*
X117953444Y-59836355D01*
X117953444Y-59836356D01*
X118052228Y-60074843D01*
X118052230Y-60074846D01*
X118187111Y-60294951D01*
X118191895Y-60300551D01*
X118832768Y-59659678D01*
X118844497Y-59687995D01*
X118927670Y-59812472D01*
X119033528Y-59918330D01*
X119158005Y-60001503D01*
X119186320Y-60013231D01*
X118545447Y-60654103D01*
X118545447Y-60654104D01*
X118551046Y-60658885D01*
X118551052Y-60658890D01*
X118771153Y-60793769D01*
X118771156Y-60793771D01*
X119009644Y-60892555D01*
X119260650Y-60952816D01*
X119518000Y-60973070D01*
X119775349Y-60952816D01*
X120026355Y-60892555D01*
X120026356Y-60892555D01*
X120264843Y-60793771D01*
X120264846Y-60793769D01*
X120484942Y-60658894D01*
X120490550Y-60654103D01*
X119849678Y-60013231D01*
X119877995Y-60001503D01*
X120002472Y-59918330D01*
X120108330Y-59812472D01*
X120191503Y-59687995D01*
X120203231Y-59659678D01*
X120844103Y-60300550D01*
X120848894Y-60294942D01*
X120983769Y-60074846D01*
X120983771Y-60074843D01*
X121082555Y-59836356D01*
X121082555Y-59836355D01*
X121142816Y-59585349D01*
X121163070Y-59328000D01*
X121142816Y-59070650D01*
X121082555Y-58819644D01*
X121082555Y-58819643D01*
X120983771Y-58581156D01*
X120983769Y-58581153D01*
X120848890Y-58361052D01*
X120848885Y-58361046D01*
X120844103Y-58355447D01*
X120203231Y-58996319D01*
X120191503Y-58968005D01*
X120108330Y-58843528D01*
X120002472Y-58737670D01*
X119877995Y-58654497D01*
X119849679Y-58642768D01*
X120490551Y-58001895D01*
X120490551Y-58001894D01*
X120484951Y-57997111D01*
X120264846Y-57862230D01*
X120264843Y-57862228D01*
X120026355Y-57763444D01*
X119775349Y-57703183D01*
X119518000Y-57682929D01*
X119260650Y-57703183D01*
X119009644Y-57763444D01*
X119009643Y-57763444D01*
X118771156Y-57862228D01*
X118771153Y-57862230D01*
X118551057Y-57997105D01*
X118551052Y-57997109D01*
X118545447Y-58001894D01*
X119186321Y-58642768D01*
X119158005Y-58654497D01*
X119033528Y-58737670D01*
X118927670Y-58843528D01*
X118844497Y-58968005D01*
X118832768Y-58996321D01*
X118191894Y-58355447D01*
X118187109Y-58361052D01*
X118187105Y-58361057D01*
X118052230Y-58581153D01*
X118052228Y-58581156D01*
X117953444Y-58819643D01*
X117953444Y-58819644D01*
X117893183Y-59070650D01*
X117872929Y-59328000D01*
X100673573Y-59328000D01*
X100653313Y-59070576D01*
X100593033Y-58819490D01*
X100521213Y-58646102D01*
X100494218Y-58580929D01*
X100486295Y-58568000D01*
X100359297Y-58360756D01*
X100191596Y-58164404D01*
X99995244Y-57996703D01*
X99775075Y-57861784D01*
X99775074Y-57861783D01*
X99775070Y-57861781D01*
X99573703Y-57778373D01*
X99536510Y-57762967D01*
X99536506Y-57762966D01*
X99536500Y-57762964D01*
X99285427Y-57702687D01*
X99028000Y-57682427D01*
X98770572Y-57702687D01*
X98519499Y-57762964D01*
X98519487Y-57762968D01*
X98280929Y-57861781D01*
X98060755Y-57996703D01*
X97864404Y-58164404D01*
X97696703Y-58360755D01*
X97561781Y-58580929D01*
X97462968Y-58819487D01*
X97462964Y-58819499D01*
X97402687Y-59070572D01*
X97382427Y-59328000D01*
X97402687Y-59585427D01*
X97459507Y-59822099D01*
X97456016Y-59891882D01*
X97426614Y-59938727D01*
X95923793Y-61441548D01*
X95862470Y-61475033D01*
X95792778Y-61470049D01*
X95736845Y-61428177D01*
X95729385Y-61416995D01*
X95700606Y-61368331D01*
X95683425Y-61300606D01*
X95705586Y-61234344D01*
X95719653Y-61217536D01*
X95773340Y-61163850D01*
X95863908Y-61017016D01*
X95918174Y-60853253D01*
X95928500Y-60752177D01*
X95928499Y-60329560D01*
X95948183Y-60262522D01*
X95986524Y-60224569D01*
X96092762Y-60157816D01*
X96220316Y-60030262D01*
X96316289Y-59877522D01*
X96375868Y-59707255D01*
X96378764Y-59681553D01*
X96396065Y-59528003D01*
X96396065Y-59527996D01*
X96375869Y-59348750D01*
X96375866Y-59348737D01*
X96316290Y-59178481D01*
X96316289Y-59178478D01*
X96247506Y-59069010D01*
X96228500Y-59003038D01*
X96228500Y-53848946D01*
X96228500Y-53848943D01*
X96212391Y-53788820D01*
X96199125Y-53739309D01*
X96199125Y-53739308D01*
X96187578Y-53696217D01*
X96187577Y-53696216D01*
X96187577Y-53696215D01*
X96158639Y-53646095D01*
X96108520Y-53559284D01*
X95996716Y-53447480D01*
X95996715Y-53447479D01*
X95992385Y-53443149D01*
X95992374Y-53443139D01*
X95901803Y-53352568D01*
X95868318Y-53291245D01*
X95873302Y-53221553D01*
X95915174Y-53165620D01*
X95948528Y-53147845D01*
X96077522Y-53102709D01*
X96105267Y-53085276D01*
X96121676Y-53074966D01*
X96187647Y-53055960D01*
X96804130Y-53055960D01*
X96871169Y-53075645D01*
X96881445Y-53083015D01*
X96884278Y-53085274D01*
X96884280Y-53085276D01*
X96983858Y-53147845D01*
X97012146Y-53165620D01*
X97037020Y-53181249D01*
X97152202Y-53221553D01*
X97207287Y-53240828D01*
X97207292Y-53240829D01*
X97386538Y-53261025D01*
X97386542Y-53261025D01*
X97386546Y-53261025D01*
X97565791Y-53240829D01*
X97565794Y-53240828D01*
X97565797Y-53240828D01*
X97736064Y-53181249D01*
X97888804Y-53085276D01*
X98016358Y-52957722D01*
X98112331Y-52804982D01*
X98171910Y-52634715D01*
X98192107Y-52455460D01*
X98171910Y-52276205D01*
X98112331Y-52105938D01*
X98016358Y-51953198D01*
X97888804Y-51825644D01*
X97877659Y-51818641D01*
X97736065Y-51729671D01*
X97565796Y-51670091D01*
X97565791Y-51670090D01*
X97386546Y-51649895D01*
X97386538Y-51649895D01*
X97207292Y-51670090D01*
X97207287Y-51670091D01*
X97037018Y-51729671D01*
X96884278Y-51825645D01*
X96881445Y-51827905D01*
X96879266Y-51828794D01*
X96878384Y-51829349D01*
X96878286Y-51829194D01*
X96816759Y-51854315D01*
X96804130Y-51854960D01*
X96389480Y-51854960D01*
X96322441Y-51835275D01*
X96301799Y-51818641D01*
X96230262Y-51747104D01*
X96077523Y-51651131D01*
X95907254Y-51591551D01*
X95907249Y-51591550D01*
X95728004Y-51571355D01*
X95727996Y-51571355D01*
X95548750Y-51591550D01*
X95548745Y-51591551D01*
X95378476Y-51651131D01*
X95225737Y-51747104D01*
X95098184Y-51874657D01*
X95002210Y-52027398D01*
X94957075Y-52156390D01*
X94916353Y-52213166D01*
X94851401Y-52238914D01*
X94782839Y-52225458D01*
X94752352Y-52203117D01*
X93664819Y-51115584D01*
X93631334Y-51054261D01*
X93628500Y-51027903D01*
X93628500Y-48752500D01*
X93648185Y-48685461D01*
X93700989Y-48639706D01*
X93752500Y-48628500D01*
X96727047Y-48628500D01*
X96794086Y-48648185D01*
X96839841Y-48700989D01*
X96849785Y-48770147D01*
X96832041Y-48818472D01*
X96747211Y-48953476D01*
X96687631Y-49123745D01*
X96687630Y-49123750D01*
X96667435Y-49302996D01*
X96667435Y-49303003D01*
X96687630Y-49482249D01*
X96687631Y-49482254D01*
X96747211Y-49652523D01*
X96794637Y-49728000D01*
X96843184Y-49805262D01*
X96970738Y-49932816D01*
X97007180Y-49955714D01*
X97090158Y-50007853D01*
X97123478Y-50028789D01*
X97293745Y-50088368D01*
X97380668Y-50098161D01*
X97445079Y-50125226D01*
X97454464Y-50133700D01*
X97529284Y-50208520D01*
X97529286Y-50208521D01*
X97529290Y-50208524D01*
X97666209Y-50287573D01*
X97666216Y-50287577D01*
X97818943Y-50328501D01*
X97818945Y-50328501D01*
X97984654Y-50328501D01*
X97984670Y-50328500D01*
X99245588Y-50328500D01*
X99312627Y-50348185D01*
X99322903Y-50355555D01*
X99325736Y-50357814D01*
X99325738Y-50357816D01*
X99478478Y-50453789D01*
X99648745Y-50513368D01*
X99648750Y-50513369D01*
X99827996Y-50533565D01*
X99828000Y-50533565D01*
X99828004Y-50533565D01*
X100007249Y-50513369D01*
X100007252Y-50513368D01*
X100007255Y-50513368D01*
X100177522Y-50453789D01*
X100330262Y-50357816D01*
X100457816Y-50230262D01*
X100553789Y-50077522D01*
X100613368Y-49907255D01*
X100614282Y-49899142D01*
X100633565Y-49728003D01*
X100633565Y-49727996D01*
X100613369Y-49548750D01*
X100613368Y-49548745D01*
X100590100Y-49482249D01*
X100553789Y-49378478D01*
X100457816Y-49225738D01*
X100330262Y-49098184D01*
X100177523Y-49002211D01*
X100007254Y-48942631D01*
X100007249Y-48942630D01*
X99828004Y-48922435D01*
X99827996Y-48922435D01*
X99648750Y-48942630D01*
X99648745Y-48942631D01*
X99478476Y-49002211D01*
X99325736Y-49098185D01*
X99322903Y-49100445D01*
X99320724Y-49101334D01*
X99319842Y-49101889D01*
X99319744Y-49101734D01*
X99258217Y-49126855D01*
X99245588Y-49127500D01*
X98347665Y-49127500D01*
X98280626Y-49107815D01*
X98234871Y-49055011D01*
X98230623Y-49044454D01*
X98198788Y-48953476D01*
X98151710Y-48878553D01*
X98113959Y-48818472D01*
X98094959Y-48751237D01*
X98115326Y-48684402D01*
X98168594Y-48639187D01*
X98210132Y-48630372D01*
X98210026Y-48629562D01*
X98218083Y-48628501D01*
X98218086Y-48628501D01*
X98370814Y-48587577D01*
X98420933Y-48558639D01*
X98507745Y-48508520D01*
X98619549Y-48396716D01*
X98619549Y-48396714D01*
X98629757Y-48386507D01*
X98629758Y-48386504D01*
X101751445Y-45264819D01*
X101812768Y-45231334D01*
X101839126Y-45228500D01*
X110045588Y-45228500D01*
X110112627Y-45248185D01*
X110122903Y-45255555D01*
X110125736Y-45257814D01*
X110125738Y-45257816D01*
X110278478Y-45353789D01*
X110439191Y-45410025D01*
X110448745Y-45413368D01*
X110448750Y-45413369D01*
X110627996Y-45433565D01*
X110628000Y-45433565D01*
X110628004Y-45433565D01*
X110807249Y-45413369D01*
X110807252Y-45413368D01*
X110807255Y-45413368D01*
X110977522Y-45353789D01*
X111130262Y-45257816D01*
X111257816Y-45130262D01*
X111353789Y-44977522D01*
X111413368Y-44807255D01*
X111415985Y-44784034D01*
X111421102Y-44738617D01*
X111448168Y-44674203D01*
X111505763Y-44634648D01*
X111544322Y-44628500D01*
X117359007Y-44628500D01*
X117759007Y-44628500D01*
X117896993Y-44628500D01*
X118028506Y-44628500D01*
X118094477Y-44647506D01*
X118104474Y-44653787D01*
X118104475Y-44653787D01*
X118104478Y-44653789D01*
X118274745Y-44713368D01*
X118274750Y-44713369D01*
X118453996Y-44733565D01*
X118454000Y-44733565D01*
X118454004Y-44733565D01*
X118633249Y-44713369D01*
X118633252Y-44713368D01*
X118633255Y-44713368D01*
X118803522Y-44653789D01*
X118956262Y-44557816D01*
X119083816Y-44430262D01*
X119179789Y-44277522D01*
X119239368Y-44107255D01*
X119259565Y-43928000D01*
X119258061Y-43914654D01*
X119239369Y-43748750D01*
X119239368Y-43748745D01*
X119207898Y-43658808D01*
X119179789Y-43578478D01*
X119178887Y-43577043D01*
X119140582Y-43516080D01*
X119083816Y-43425738D01*
X118956262Y-43298184D01*
X118881228Y-43251037D01*
X118834938Y-43198703D01*
X118824290Y-43129650D01*
X118852665Y-43065801D01*
X118911054Y-43027429D01*
X118971391Y-43024426D01*
X118989359Y-43028000D01*
X119628000Y-43028000D01*
X119628000Y-42378000D01*
X120128000Y-42378000D01*
X120128000Y-43028000D01*
X120766643Y-43028000D01*
X120766646Y-43027999D01*
X120940512Y-42993415D01*
X120940520Y-42993413D01*
X121104307Y-42925571D01*
X121104316Y-42925566D01*
X121251716Y-42827076D01*
X121251720Y-42827073D01*
X121377073Y-42701720D01*
X121377076Y-42701716D01*
X121475566Y-42554316D01*
X121475571Y-42554306D01*
X121543412Y-42390523D01*
X121543415Y-42390516D01*
X121545904Y-42378000D01*
X120128000Y-42378000D01*
X119628000Y-42378000D01*
X119628000Y-42002000D01*
X119647685Y-41934961D01*
X119700489Y-41889206D01*
X119752000Y-41878000D01*
X121545904Y-41878000D01*
X121543415Y-41865483D01*
X121543412Y-41865476D01*
X121475571Y-41701693D01*
X121475566Y-41701683D01*
X121405846Y-41597340D01*
X121384968Y-41530662D01*
X121403452Y-41463282D01*
X121405818Y-41459599D01*
X121476013Y-41354547D01*
X121543894Y-41190666D01*
X121556036Y-41129627D01*
X121578499Y-41016695D01*
X121578500Y-41016693D01*
X121578500Y-40839306D01*
X121578499Y-40839304D01*
X121543896Y-40665341D01*
X121543893Y-40665332D01*
X121476016Y-40501459D01*
X121476009Y-40501446D01*
X121441925Y-40450436D01*
X121421047Y-40383759D01*
X121439531Y-40316378D01*
X121483026Y-40274158D01*
X121518454Y-40253704D01*
X121596716Y-40208520D01*
X121708520Y-40096716D01*
X121708520Y-40096714D01*
X121718724Y-40086511D01*
X121718728Y-40086506D01*
X121736506Y-40068728D01*
X121736511Y-40068724D01*
X121746714Y-40058520D01*
X121746716Y-40058520D01*
X121858520Y-39946716D01*
X121912171Y-39853789D01*
X121937577Y-39809785D01*
X121978501Y-39657057D01*
X121978501Y-39498943D01*
X121978501Y-39491348D01*
X121978500Y-39491330D01*
X121978500Y-39141482D01*
X121998185Y-39074443D01*
X122050989Y-39028688D01*
X122120147Y-39018744D01*
X122134591Y-39021707D01*
X122159942Y-39028500D01*
X122159943Y-39028500D01*
X124935528Y-39028500D01*
X125002567Y-39048185D01*
X125042915Y-39090500D01*
X125051577Y-39105504D01*
X125051582Y-39105511D01*
X125177353Y-39245193D01*
X125177355Y-39245195D01*
X125329419Y-39355676D01*
X125329420Y-39355676D01*
X125329424Y-39355679D01*
X125416070Y-39394256D01*
X125427701Y-39399435D01*
X125480938Y-39444685D01*
X125501259Y-39511534D01*
X125482214Y-39578758D01*
X125464946Y-39600395D01*
X124028709Y-41036632D01*
X123981984Y-41065992D01*
X123878476Y-41102211D01*
X123878475Y-41102212D01*
X123725737Y-41198184D01*
X123598184Y-41325737D01*
X123502211Y-41478476D01*
X123442631Y-41648745D01*
X123442630Y-41648750D01*
X123422435Y-41827996D01*
X123422435Y-41828003D01*
X123442630Y-42007249D01*
X123442631Y-42007254D01*
X123502211Y-42177523D01*
X123550265Y-42254000D01*
X123598184Y-42330262D01*
X123725738Y-42457816D01*
X123816080Y-42514582D01*
X123870450Y-42548745D01*
X123878478Y-42553789D01*
X124038754Y-42609872D01*
X124048745Y-42613368D01*
X124048750Y-42613369D01*
X124227996Y-42633565D01*
X124228000Y-42633565D01*
X124228004Y-42633565D01*
X124407249Y-42613369D01*
X124407252Y-42613368D01*
X124407255Y-42613368D01*
X124577522Y-42553789D01*
X124730262Y-42457816D01*
X124857816Y-42330262D01*
X124953789Y-42177522D01*
X124990007Y-42074013D01*
X125019365Y-42027290D01*
X126641100Y-40405557D01*
X126702423Y-40372072D01*
X126728781Y-40369238D01*
X126770997Y-40369238D01*
X126954858Y-40330158D01*
X126954861Y-40330156D01*
X126954863Y-40330156D01*
X126985808Y-40316378D01*
X127126576Y-40253704D01*
X127173636Y-40219512D01*
X127239442Y-40196032D01*
X127307496Y-40211857D01*
X127356191Y-40261962D01*
X127361082Y-40272374D01*
X127363129Y-40277317D01*
X127363134Y-40277326D01*
X127444749Y-40399470D01*
X127444752Y-40399474D01*
X127548627Y-40503349D01*
X127548631Y-40503352D01*
X127670775Y-40584967D01*
X127670781Y-40584970D01*
X127670782Y-40584971D01*
X127806509Y-40641191D01*
X127927877Y-40665332D01*
X127950591Y-40669850D01*
X127950595Y-40669851D01*
X127950596Y-40669851D01*
X128097507Y-40669851D01*
X128097508Y-40669850D01*
X128241593Y-40641191D01*
X128377320Y-40584971D01*
X128499471Y-40503352D01*
X128603352Y-40399471D01*
X128684971Y-40277320D01*
X128741191Y-40141593D01*
X128759551Y-40049288D01*
X132177500Y-40049288D01*
X132208870Y-40287577D01*
X132209162Y-40289789D01*
X132231210Y-40372072D01*
X132271947Y-40524104D01*
X132364773Y-40748205D01*
X132364777Y-40748214D01*
X132373009Y-40762472D01*
X132486064Y-40958289D01*
X132486066Y-40958292D01*
X132486067Y-40958293D01*
X132633733Y-41150736D01*
X132633739Y-41150743D01*
X132805256Y-41322260D01*
X132805263Y-41322266D01*
X132847333Y-41354547D01*
X132997711Y-41469936D01*
X133207788Y-41591224D01*
X133431900Y-41684054D01*
X133666211Y-41746838D01*
X133846586Y-41770584D01*
X133906711Y-41778500D01*
X133906712Y-41778500D01*
X134149289Y-41778500D01*
X134197388Y-41772167D01*
X134389789Y-41746838D01*
X134624100Y-41684054D01*
X134848212Y-41591224D01*
X135058289Y-41469936D01*
X135250738Y-41322265D01*
X135422265Y-41150738D01*
X135569936Y-40958289D01*
X135691224Y-40748212D01*
X135784054Y-40524100D01*
X135846838Y-40289789D01*
X135878500Y-40049288D01*
X135878500Y-39806712D01*
X135846838Y-39566211D01*
X135784054Y-39331900D01*
X135691224Y-39107788D01*
X135569936Y-38897711D01*
X135509018Y-38818321D01*
X135422266Y-38705263D01*
X135422260Y-38705256D01*
X135250743Y-38533739D01*
X135250736Y-38533733D01*
X135058293Y-38386067D01*
X135058292Y-38386066D01*
X135058289Y-38386064D01*
X134860922Y-38272114D01*
X134848214Y-38264777D01*
X134848205Y-38264773D01*
X134624104Y-38171947D01*
X134443299Y-38123500D01*
X134389789Y-38109162D01*
X134389788Y-38109161D01*
X134389785Y-38109161D01*
X134149289Y-38077500D01*
X134149288Y-38077500D01*
X133906712Y-38077500D01*
X133906711Y-38077500D01*
X133666214Y-38109161D01*
X133431895Y-38171947D01*
X133207794Y-38264773D01*
X133207785Y-38264777D01*
X132997706Y-38386067D01*
X132805263Y-38533733D01*
X132805256Y-38533739D01*
X132633739Y-38705256D01*
X132633733Y-38705263D01*
X132486067Y-38897706D01*
X132364777Y-39107785D01*
X132364773Y-39107794D01*
X132271947Y-39331895D01*
X132209161Y-39566214D01*
X132177500Y-39806711D01*
X132177500Y-40049288D01*
X128759551Y-40049288D01*
X128769851Y-39997506D01*
X128769851Y-39850596D01*
X128741191Y-39706509D01*
X128738570Y-39700183D01*
X128731099Y-39630717D01*
X128762371Y-39568236D01*
X128787158Y-39547734D01*
X128930262Y-39457816D01*
X129057816Y-39330262D01*
X129153789Y-39177522D01*
X129213368Y-39007255D01*
X129213369Y-39007249D01*
X129233565Y-38828003D01*
X129233565Y-38827996D01*
X129213369Y-38648750D01*
X129213368Y-38648745D01*
X129213365Y-38648737D01*
X129153789Y-38478478D01*
X129149548Y-38471729D01*
X129079995Y-38361036D01*
X129057816Y-38325738D01*
X128930262Y-38198184D01*
X128827422Y-38133565D01*
X128777523Y-38102211D01*
X128607254Y-38042631D01*
X128607249Y-38042630D01*
X128428004Y-38022435D01*
X128427996Y-38022435D01*
X128356051Y-38030541D01*
X128287229Y-38018486D01*
X128250018Y-37990293D01*
X128217308Y-37953965D01*
X128176671Y-37908832D01*
X128176669Y-37908830D01*
X128024605Y-37798349D01*
X128024602Y-37798347D01*
X128024601Y-37798347D01*
X127978858Y-37777981D01*
X127852888Y-37721894D01*
X127852880Y-37721892D01*
X127662666Y-37681462D01*
X127663292Y-37678515D01*
X127610741Y-37656884D01*
X127570765Y-37599581D01*
X127565013Y-37573130D01*
X127556491Y-37492048D01*
X127498405Y-37313280D01*
X127495250Y-37307815D01*
X127404425Y-37150499D01*
X127404417Y-37150488D01*
X127309363Y-37044920D01*
X127279133Y-36981928D01*
X127277513Y-36961948D01*
X127277513Y-35697958D01*
X127277513Y-35697956D01*
X127236590Y-35545229D01*
X127229856Y-35533565D01*
X127157537Y-35408303D01*
X127157534Y-35408299D01*
X127157533Y-35408297D01*
X127045729Y-35296493D01*
X127045728Y-35296492D01*
X127041398Y-35292162D01*
X127041387Y-35292152D01*
X126115590Y-34366355D01*
X126115588Y-34366352D01*
X125996717Y-34247481D01*
X125996709Y-34247475D01*
X125894936Y-34188717D01*
X125894934Y-34188716D01*
X125859790Y-34168425D01*
X125859789Y-34168424D01*
X125833228Y-34161307D01*
X125707057Y-34127499D01*
X125548943Y-34127499D01*
X125541347Y-34127499D01*
X125541331Y-34127500D01*
X123280355Y-34127500D01*
X123280339Y-34127499D01*
X123272743Y-34127499D01*
X123114628Y-34127499D01*
X123047124Y-34145587D01*
X122961899Y-34168423D01*
X122961894Y-34168426D01*
X122824975Y-34247475D01*
X122824967Y-34247481D01*
X121745772Y-35326676D01*
X121684449Y-35360161D01*
X121614757Y-35355177D01*
X121558824Y-35313305D01*
X121534407Y-35247841D01*
X121542701Y-35196663D01*
X121542127Y-35196489D01*
X121543421Y-35192222D01*
X121543532Y-35191539D01*
X121543894Y-35190666D01*
X121578500Y-35016691D01*
X121578500Y-34839309D01*
X121578500Y-34839306D01*
X121578499Y-34839304D01*
X121543896Y-34665341D01*
X121543893Y-34665332D01*
X121476016Y-34501459D01*
X121476012Y-34501452D01*
X121476008Y-34501446D01*
X121406145Y-34396888D01*
X121385268Y-34330215D01*
X121403752Y-34262834D01*
X121406118Y-34259150D01*
X121476013Y-34154547D01*
X121543894Y-33990666D01*
X121578500Y-33816691D01*
X121578500Y-33639309D01*
X121578500Y-33639306D01*
X121578499Y-33639304D01*
X121543896Y-33465341D01*
X121543893Y-33465332D01*
X121476016Y-33301459D01*
X121476012Y-33301452D01*
X121476008Y-33301446D01*
X121406145Y-33196888D01*
X121385268Y-33130215D01*
X121403752Y-33062834D01*
X121406118Y-33059150D01*
X121476013Y-32954547D01*
X121543894Y-32790666D01*
X121578500Y-32616691D01*
X121578500Y-32439309D01*
X121578500Y-32439306D01*
X121578499Y-32439304D01*
X121543896Y-32265341D01*
X121543893Y-32265332D01*
X121476016Y-32101459D01*
X121476012Y-32101452D01*
X121476008Y-32101446D01*
X121406145Y-31996888D01*
X121385268Y-31930215D01*
X121403752Y-31862834D01*
X121406118Y-31859150D01*
X121476013Y-31754547D01*
X121543894Y-31590666D01*
X121543894Y-31590661D01*
X121543896Y-31590658D01*
X121578499Y-31416695D01*
X121578500Y-31416693D01*
X121578500Y-31239306D01*
X121578499Y-31239304D01*
X121543896Y-31065341D01*
X121543893Y-31065332D01*
X121476016Y-30901459D01*
X121476012Y-30901452D01*
X121406145Y-30796888D01*
X121385268Y-30730215D01*
X121403752Y-30662834D01*
X121406118Y-30659150D01*
X121476013Y-30554547D01*
X121543894Y-30390666D01*
X121578500Y-30216691D01*
X121578500Y-30039309D01*
X121578500Y-30039306D01*
X121578499Y-30039304D01*
X121543896Y-29865341D01*
X121543893Y-29865332D01*
X121476016Y-29701459D01*
X121476014Y-29701455D01*
X121476013Y-29701453D01*
X121405846Y-29596441D01*
X121384968Y-29529764D01*
X121403452Y-29462384D01*
X121405846Y-29458659D01*
X121475566Y-29354315D01*
X121475571Y-29354306D01*
X121543412Y-29190523D01*
X121543415Y-29190516D01*
X121545904Y-29178000D01*
X119752000Y-29178000D01*
X119684961Y-29158315D01*
X119639206Y-29105511D01*
X119628000Y-29054000D01*
X119628000Y-28802000D01*
X119647685Y-28734961D01*
X119700489Y-28689206D01*
X119752000Y-28678000D01*
X121221269Y-28678000D01*
X121250436Y-28681479D01*
X121335445Y-28702052D01*
X121687251Y-28787192D01*
X121691551Y-28788317D01*
X122724625Y-29078655D01*
X122728918Y-29079947D01*
X123750674Y-29407814D01*
X123754895Y-29409254D01*
X124764019Y-29774227D01*
X124768206Y-29775828D01*
X125763349Y-30177422D01*
X125767443Y-30179163D01*
X126747196Y-30616808D01*
X126751268Y-30618716D01*
X127135057Y-30807254D01*
X127714376Y-31091847D01*
X127718405Y-31093918D01*
X128663589Y-31601907D01*
X128667539Y-31604124D01*
X129593552Y-32146302D01*
X129597389Y-32148644D01*
X130485967Y-32713464D01*
X130502950Y-32724259D01*
X130506718Y-32726751D01*
X130599595Y-32790667D01*
X131390700Y-33335088D01*
X131394383Y-33337724D01*
X132255496Y-33977894D01*
X132259081Y-33980662D01*
X133096254Y-34651867D01*
X133099736Y-34654764D01*
X133184539Y-34728000D01*
X133910773Y-35355177D01*
X133911868Y-35356122D01*
X133915233Y-35359138D01*
X134647007Y-36039309D01*
X134701182Y-36089664D01*
X134704443Y-36092808D01*
X135463191Y-36851556D01*
X135466335Y-36854817D01*
X136173673Y-37615819D01*
X136196854Y-37640758D01*
X136199872Y-37644126D01*
X136288571Y-37746834D01*
X136901235Y-38456263D01*
X136904132Y-38459745D01*
X137575337Y-39296918D01*
X137578105Y-39300503D01*
X138218275Y-40161616D01*
X138220911Y-40165299D01*
X138829241Y-41049271D01*
X138831740Y-41053049D01*
X139407346Y-41958596D01*
X139409706Y-41962462D01*
X139951875Y-42888460D01*
X139954092Y-42892410D01*
X140462081Y-43837594D01*
X140464152Y-43841623D01*
X140937276Y-44804717D01*
X140939198Y-44808818D01*
X141127931Y-45231334D01*
X141376626Y-45788086D01*
X141376820Y-45788519D01*
X141378587Y-45792677D01*
X141573581Y-46275867D01*
X141780162Y-46787771D01*
X141781780Y-46792002D01*
X142146734Y-47801071D01*
X142148196Y-47805358D01*
X142476045Y-48827059D01*
X142477350Y-48831396D01*
X142767671Y-49864407D01*
X142768816Y-49868786D01*
X142986974Y-50770225D01*
X143021216Y-50911712D01*
X143022201Y-50916133D01*
X143236347Y-51967602D01*
X143237169Y-51972056D01*
X143412761Y-53030589D01*
X143413421Y-53035070D01*
X143550244Y-54099367D01*
X143550739Y-54103869D01*
X143648596Y-55172410D01*
X143648927Y-55176928D01*
X143707695Y-56248368D01*
X143707860Y-56252894D01*
X143727458Y-57325735D01*
X143727458Y-57330265D01*
X143707860Y-58403105D01*
X143707695Y-58407631D01*
X143648927Y-59479071D01*
X143648596Y-59483589D01*
X143550739Y-60552130D01*
X143550244Y-60556632D01*
X143413421Y-61620929D01*
X143412761Y-61625410D01*
X143237169Y-62683943D01*
X143236347Y-62688397D01*
X143022201Y-63739866D01*
X143021216Y-63744287D01*
X142768817Y-64787209D01*
X142767671Y-64791592D01*
X142477350Y-65824603D01*
X142476045Y-65828940D01*
X142148196Y-66850641D01*
X142146734Y-66854928D01*
X141781780Y-67863997D01*
X141780162Y-67868228D01*
X141378592Y-68863312D01*
X141376820Y-68867480D01*
X140939198Y-69847181D01*
X140937276Y-69851282D01*
X140464152Y-70814376D01*
X140462081Y-70818405D01*
X139954092Y-71763589D01*
X139951875Y-71767539D01*
X139409706Y-72693537D01*
X139407346Y-72697403D01*
X138831740Y-73602950D01*
X138829241Y-73606728D01*
X138220911Y-74490700D01*
X138218275Y-74494383D01*
X137578105Y-75355496D01*
X137575337Y-75359081D01*
X136904132Y-76196254D01*
X136901235Y-76199736D01*
X136199877Y-77011868D01*
X136196854Y-77015241D01*
X135466335Y-77801182D01*
X135463191Y-77804443D01*
X134704443Y-78563191D01*
X134701182Y-78566335D01*
X133915241Y-79296854D01*
X133911868Y-79299877D01*
X133099736Y-80001235D01*
X133096254Y-80004132D01*
X132259081Y-80675337D01*
X132255496Y-80678105D01*
X131394383Y-81318275D01*
X131390700Y-81320911D01*
X130506728Y-81929241D01*
X130502950Y-81931740D01*
X129597403Y-82507346D01*
X129593537Y-82509706D01*
X128667539Y-83051875D01*
X128663589Y-83054092D01*
X127718405Y-83562081D01*
X127714376Y-83564152D01*
X126751282Y-84037276D01*
X126747181Y-84039198D01*
X125767480Y-84476820D01*
X125763312Y-84478592D01*
X124768228Y-84880162D01*
X124763997Y-84881780D01*
X123754928Y-85246734D01*
X123750641Y-85248196D01*
X122728940Y-85576045D01*
X122724603Y-85577350D01*
X121691592Y-85867671D01*
X121687209Y-85868817D01*
X120644287Y-86121216D01*
X120639866Y-86122201D01*
X119588397Y-86336347D01*
X119583943Y-86337169D01*
X118525410Y-86512761D01*
X118520929Y-86513421D01*
X117456632Y-86650244D01*
X117452130Y-86650739D01*
X116383589Y-86748596D01*
X116379071Y-86748927D01*
X115307631Y-86807695D01*
X115303105Y-86807860D01*
X114230265Y-86827458D01*
X114225735Y-86827458D01*
X113152894Y-86807860D01*
X113148368Y-86807695D01*
X112076928Y-86748927D01*
X112072410Y-86748596D01*
X111003869Y-86650739D01*
X110999367Y-86650244D01*
X109935070Y-86513421D01*
X109930589Y-86512761D01*
X108872056Y-86337169D01*
X108867602Y-86336347D01*
X107816133Y-86122201D01*
X107811712Y-86121216D01*
X107542402Y-86056040D01*
X106768786Y-85868816D01*
X106764407Y-85867671D01*
X105731396Y-85577350D01*
X105727059Y-85576045D01*
X104705358Y-85248196D01*
X104701071Y-85246734D01*
X103692002Y-84881780D01*
X103687771Y-84880162D01*
X103265161Y-84709616D01*
X102692677Y-84478587D01*
X102688530Y-84476824D01*
X101708818Y-84039198D01*
X101704717Y-84037276D01*
X100741623Y-83564152D01*
X100737594Y-83562081D01*
X99792410Y-83054092D01*
X99788460Y-83051875D01*
X98862462Y-82509706D01*
X98858596Y-82507346D01*
X97953049Y-81931740D01*
X97949271Y-81929241D01*
X97065299Y-81320911D01*
X97061616Y-81318275D01*
X96200503Y-80678105D01*
X96196918Y-80675337D01*
X95359745Y-80004132D01*
X95356263Y-80001235D01*
X94678225Y-79415681D01*
X94544126Y-79299872D01*
X94540758Y-79296854D01*
X94527645Y-79284666D01*
X93754817Y-78566335D01*
X93751556Y-78563191D01*
X93178865Y-77990500D01*
X95320501Y-77990500D01*
X95320501Y-78027154D01*
X95330819Y-78128152D01*
X95385046Y-78291800D01*
X95385051Y-78291811D01*
X95475552Y-78438534D01*
X95475555Y-78438538D01*
X95597461Y-78560444D01*
X95597465Y-78560447D01*
X95744188Y-78650948D01*
X95744199Y-78650953D01*
X95907847Y-78705180D01*
X96008851Y-78715499D01*
X96057999Y-78715498D01*
X96058000Y-78715498D01*
X96058000Y-77990500D01*
X95320501Y-77990500D01*
X93178865Y-77990500D01*
X92992808Y-77804443D01*
X92989664Y-77801182D01*
X92982220Y-77793173D01*
X92700891Y-77490500D01*
X95320500Y-77490500D01*
X96058000Y-77490500D01*
X96058000Y-76765500D01*
X96057999Y-76765499D01*
X96008861Y-76765500D01*
X96008843Y-76765501D01*
X95907847Y-76775819D01*
X95744199Y-76830046D01*
X95744188Y-76830051D01*
X95597465Y-76920552D01*
X95597461Y-76920555D01*
X95475555Y-77042461D01*
X95475552Y-77042465D01*
X95385051Y-77189188D01*
X95385046Y-77189199D01*
X95330819Y-77352847D01*
X95320500Y-77453845D01*
X95320500Y-77490500D01*
X92700891Y-77490500D01*
X92259138Y-77015233D01*
X92256122Y-77011868D01*
X92177261Y-76920552D01*
X91554764Y-76199736D01*
X91551867Y-76196254D01*
X91226553Y-75790500D01*
X95320501Y-75790500D01*
X95320501Y-75827154D01*
X95330819Y-75928152D01*
X95385046Y-76091800D01*
X95385051Y-76091811D01*
X95475552Y-76238534D01*
X95475555Y-76238538D01*
X95597461Y-76360444D01*
X95597465Y-76360447D01*
X95744188Y-76450948D01*
X95744199Y-76450953D01*
X95907847Y-76505180D01*
X96008851Y-76515499D01*
X96108000Y-76515498D01*
X96108000Y-75790500D01*
X95320501Y-75790500D01*
X91226553Y-75790500D01*
X90880662Y-75359081D01*
X90877894Y-75355496D01*
X90829575Y-75290500D01*
X95320500Y-75290500D01*
X96108000Y-75290500D01*
X96108000Y-74565499D01*
X96008860Y-74565500D01*
X96008844Y-74565501D01*
X95907847Y-74575819D01*
X95744199Y-74630046D01*
X95744188Y-74630051D01*
X95597465Y-74720552D01*
X95597461Y-74720555D01*
X95475555Y-74842461D01*
X95475552Y-74842465D01*
X95385051Y-74989188D01*
X95385046Y-74989199D01*
X95330819Y-75152847D01*
X95320500Y-75253845D01*
X95320500Y-75290500D01*
X90829575Y-75290500D01*
X90237724Y-74494383D01*
X90235088Y-74490700D01*
X89933872Y-74052999D01*
X89626751Y-73606718D01*
X89624259Y-73602950D01*
X89600996Y-73566352D01*
X89048644Y-72697389D01*
X89046293Y-72693537D01*
X89001103Y-72616355D01*
X88504124Y-71767539D01*
X88501907Y-71763589D01*
X87993918Y-70818405D01*
X87991847Y-70814376D01*
X87664072Y-70147155D01*
X87518716Y-69851268D01*
X87516801Y-69847181D01*
X87173216Y-69078000D01*
X91578000Y-69078000D01*
X91578000Y-69275844D01*
X91584401Y-69335372D01*
X91584403Y-69335379D01*
X91634645Y-69470086D01*
X91634649Y-69470093D01*
X91720809Y-69585187D01*
X91720812Y-69585190D01*
X91835906Y-69671350D01*
X91835913Y-69671354D01*
X91970620Y-69721596D01*
X91970627Y-69721598D01*
X92030155Y-69727999D01*
X92030172Y-69728000D01*
X92278000Y-69728000D01*
X92278000Y-69078000D01*
X92778000Y-69078000D01*
X92778000Y-69728000D01*
X93025828Y-69728000D01*
X93025844Y-69727999D01*
X93085372Y-69721598D01*
X93085379Y-69721596D01*
X93220086Y-69671354D01*
X93220093Y-69671350D01*
X93335187Y-69585190D01*
X93335190Y-69585187D01*
X93421350Y-69470093D01*
X93421354Y-69470086D01*
X93471596Y-69335379D01*
X93471598Y-69335372D01*
X93477999Y-69275844D01*
X93478000Y-69275827D01*
X93478000Y-69078000D01*
X92778000Y-69078000D01*
X92278000Y-69078000D01*
X91578000Y-69078000D01*
X87173216Y-69078000D01*
X87079163Y-68867443D01*
X87077422Y-68863349D01*
X86675828Y-67868206D01*
X86674219Y-67863997D01*
X86641866Y-67774543D01*
X86309254Y-66854895D01*
X86307814Y-66850674D01*
X85979947Y-65828918D01*
X85978649Y-65824603D01*
X85933817Y-65665082D01*
X85688317Y-64791551D01*
X85687192Y-64787251D01*
X85434772Y-63744241D01*
X85433808Y-63739912D01*
X85219649Y-62688383D01*
X85218830Y-62683943D01*
X85197109Y-62553000D01*
X90453000Y-62553000D01*
X91178000Y-62553000D01*
X91178000Y-61765500D01*
X91141361Y-61765500D01*
X91141343Y-61765501D01*
X91040347Y-61775819D01*
X90876699Y-61830046D01*
X90876688Y-61830051D01*
X90729965Y-61920552D01*
X90729961Y-61920555D01*
X90608055Y-62042461D01*
X90608052Y-62042465D01*
X90517551Y-62189188D01*
X90517546Y-62189199D01*
X90463319Y-62352847D01*
X90453000Y-62453845D01*
X90453000Y-62553000D01*
X85197109Y-62553000D01*
X85182545Y-62465206D01*
X85077184Y-61830048D01*
X85043238Y-61625410D01*
X85042578Y-61620929D01*
X85003629Y-61317960D01*
X84905752Y-60556607D01*
X84905260Y-60552130D01*
X84899716Y-60491596D01*
X84807401Y-59483570D01*
X84807072Y-59479071D01*
X84807060Y-59478849D01*
X84798763Y-59327575D01*
X91719476Y-59327575D01*
X91843462Y-59393848D01*
X92031969Y-59451031D01*
X92031965Y-59451031D01*
X92227999Y-59470338D01*
X92273765Y-59465831D01*
X92342411Y-59478849D01*
X92393122Y-59526914D01*
X92409797Y-59594765D01*
X92387141Y-59660859D01*
X92373602Y-59676915D01*
X92283052Y-59767465D01*
X92192551Y-59914188D01*
X92192546Y-59914199D01*
X92138319Y-60077847D01*
X92128000Y-60178845D01*
X92128000Y-60215500D01*
X92915500Y-60215500D01*
X92915500Y-59490499D01*
X92856107Y-59490500D01*
X92789067Y-59470816D01*
X92743312Y-59418012D01*
X92733368Y-59348854D01*
X92733448Y-59348306D01*
X92736522Y-59327575D01*
X92228001Y-58819053D01*
X92228000Y-58819053D01*
X91719476Y-59327575D01*
X84798763Y-59327575D01*
X84748303Y-58407608D01*
X84748139Y-58403105D01*
X84747365Y-58360756D01*
X84730716Y-57449288D01*
X85977500Y-57449288D01*
X86009161Y-57689785D01*
X86071947Y-57924104D01*
X86164773Y-58148205D01*
X86164776Y-58148212D01*
X86286064Y-58358289D01*
X86286066Y-58358292D01*
X86286067Y-58358293D01*
X86433733Y-58550736D01*
X86433739Y-58550743D01*
X86605256Y-58722260D01*
X86605262Y-58722265D01*
X86797711Y-58869936D01*
X87007788Y-58991224D01*
X87231900Y-59084054D01*
X87466211Y-59146838D01*
X87646586Y-59170584D01*
X87706711Y-59178500D01*
X87706712Y-59178500D01*
X87949289Y-59178500D01*
X87997388Y-59172167D01*
X88189789Y-59146838D01*
X88424100Y-59084054D01*
X88648212Y-58991224D01*
X88858289Y-58869936D01*
X89050738Y-58722265D01*
X89222265Y-58550738D01*
X89287670Y-58465500D01*
X91223161Y-58465500D01*
X91242468Y-58661532D01*
X91299651Y-58850037D01*
X91365923Y-58974022D01*
X91874447Y-58465500D01*
X91365923Y-57956976D01*
X91299649Y-58080966D01*
X91242468Y-58269467D01*
X91223161Y-58465500D01*
X89287670Y-58465500D01*
X89369936Y-58358289D01*
X89491224Y-58148212D01*
X89584054Y-57924100D01*
X89646838Y-57689789D01*
X89658208Y-57603423D01*
X91719476Y-57603423D01*
X92228000Y-58111947D01*
X92228001Y-58111947D01*
X92736522Y-57603423D01*
X92612537Y-57537151D01*
X92424030Y-57479968D01*
X92424034Y-57479968D01*
X92228000Y-57460661D01*
X92031967Y-57479968D01*
X91843466Y-57537149D01*
X91719476Y-57603423D01*
X89658208Y-57603423D01*
X89678500Y-57449288D01*
X89678500Y-57206712D01*
X89646838Y-56966211D01*
X89584054Y-56731900D01*
X89491224Y-56507788D01*
X89369936Y-56297711D01*
X89222265Y-56105262D01*
X89222260Y-56105256D01*
X89050743Y-55933739D01*
X89050736Y-55933733D01*
X88858293Y-55786067D01*
X88858292Y-55786066D01*
X88858289Y-55786064D01*
X88648212Y-55664776D01*
X88648205Y-55664773D01*
X88424104Y-55571947D01*
X88189785Y-55509161D01*
X87949289Y-55477500D01*
X87949288Y-55477500D01*
X87706712Y-55477500D01*
X87706711Y-55477500D01*
X87466214Y-55509161D01*
X87231895Y-55571947D01*
X87007794Y-55664773D01*
X87007785Y-55664777D01*
X86797706Y-55786067D01*
X86605263Y-55933733D01*
X86605256Y-55933739D01*
X86433739Y-56105256D01*
X86433733Y-56105263D01*
X86286067Y-56297706D01*
X86164777Y-56507785D01*
X86164773Y-56507794D01*
X86071947Y-56731895D01*
X86009161Y-56966214D01*
X85977500Y-57206711D01*
X85977500Y-57449288D01*
X84730716Y-57449288D01*
X84728541Y-57330244D01*
X84728541Y-57325735D01*
X84748139Y-56252869D01*
X84748304Y-56248368D01*
X84756154Y-56105263D01*
X84807073Y-55176904D01*
X84807403Y-55172410D01*
X84811581Y-55126794D01*
X84905263Y-54103837D01*
X84905751Y-54099398D01*
X85042578Y-53035066D01*
X85043238Y-53030589D01*
X85108908Y-52634709D01*
X85218834Y-51972032D01*
X85219652Y-51967602D01*
X85222586Y-51953197D01*
X85433810Y-50916076D01*
X85434770Y-50911770D01*
X85687196Y-49868735D01*
X85688313Y-49864462D01*
X85844710Y-49307975D01*
X86794594Y-49307975D01*
X86823435Y-49452962D01*
X86823438Y-49452972D01*
X86880007Y-49589543D01*
X86880014Y-49589556D01*
X86962143Y-49712470D01*
X86962146Y-49712474D01*
X87066675Y-49817003D01*
X87066679Y-49817006D01*
X87189593Y-49899135D01*
X87189606Y-49899142D01*
X87326177Y-49955711D01*
X87326182Y-49955713D01*
X87326186Y-49955713D01*
X87326187Y-49955714D01*
X87471174Y-49984555D01*
X87471177Y-49984555D01*
X87619015Y-49984555D01*
X87716557Y-49965151D01*
X87764008Y-49955713D01*
X87900590Y-49899139D01*
X88023511Y-49817006D01*
X88128046Y-49712471D01*
X88210179Y-49589550D01*
X88266753Y-49452968D01*
X88281571Y-49378476D01*
X88295595Y-49307975D01*
X88295595Y-49160134D01*
X88266754Y-49015147D01*
X88266753Y-49015146D01*
X88266753Y-49015142D01*
X88241210Y-48953476D01*
X88210182Y-48878566D01*
X88210175Y-48878553D01*
X88128046Y-48755639D01*
X88128043Y-48755635D01*
X88023514Y-48651106D01*
X88023510Y-48651103D01*
X87900596Y-48568974D01*
X87900583Y-48568967D01*
X87764012Y-48512398D01*
X87764002Y-48512395D01*
X87619015Y-48483555D01*
X87619013Y-48483555D01*
X87471177Y-48483555D01*
X87471175Y-48483555D01*
X87326187Y-48512395D01*
X87326177Y-48512398D01*
X87189606Y-48568967D01*
X87189593Y-48568974D01*
X87066679Y-48651103D01*
X87066675Y-48651106D01*
X86962146Y-48755635D01*
X86962143Y-48755639D01*
X86880014Y-48878553D01*
X86880007Y-48878566D01*
X86823438Y-49015137D01*
X86823435Y-49015147D01*
X86794595Y-49160134D01*
X86794595Y-49160137D01*
X86794595Y-49307973D01*
X86794595Y-49307975D01*
X86794594Y-49307975D01*
X85844710Y-49307975D01*
X85978660Y-48831359D01*
X85979942Y-48827096D01*
X86307819Y-47805308D01*
X86309248Y-47801120D01*
X86674234Y-46791962D01*
X86675821Y-46787811D01*
X87077430Y-45792631D01*
X87079154Y-45788576D01*
X87516817Y-44808782D01*
X87518706Y-44804752D01*
X87991855Y-43841606D01*
X87993918Y-43837594D01*
X88392560Y-43095865D01*
X89560404Y-43095865D01*
X89589245Y-43240852D01*
X89589248Y-43240862D01*
X89645817Y-43377433D01*
X89645824Y-43377446D01*
X89727953Y-43500360D01*
X89727956Y-43500364D01*
X89832485Y-43604893D01*
X89832489Y-43604896D01*
X89955403Y-43687025D01*
X89955416Y-43687032D01*
X90091987Y-43743601D01*
X90091992Y-43743603D01*
X90091996Y-43743603D01*
X90091997Y-43743604D01*
X90236984Y-43772445D01*
X90236987Y-43772445D01*
X90384825Y-43772445D01*
X90482367Y-43753041D01*
X90529818Y-43743603D01*
X90666400Y-43687029D01*
X90789321Y-43604896D01*
X90893856Y-43500361D01*
X90975989Y-43377440D01*
X91032563Y-43240858D01*
X91047300Y-43166773D01*
X91061405Y-43095865D01*
X91061405Y-42948024D01*
X91032564Y-42803037D01*
X91032563Y-42803036D01*
X91032563Y-42803032D01*
X91014441Y-42759282D01*
X90975992Y-42666456D01*
X90975985Y-42666443D01*
X90893856Y-42543529D01*
X90893853Y-42543525D01*
X90789324Y-42438996D01*
X90789320Y-42438993D01*
X90666406Y-42356864D01*
X90666393Y-42356857D01*
X90529822Y-42300288D01*
X90529812Y-42300285D01*
X90384825Y-42271445D01*
X90384823Y-42271445D01*
X90236987Y-42271445D01*
X90236985Y-42271445D01*
X90091997Y-42300285D01*
X90091987Y-42300288D01*
X89955416Y-42356857D01*
X89955403Y-42356864D01*
X89832489Y-42438993D01*
X89832485Y-42438996D01*
X89727956Y-42543525D01*
X89727953Y-42543529D01*
X89645824Y-42666443D01*
X89645817Y-42666456D01*
X89589248Y-42803027D01*
X89589245Y-42803037D01*
X89560405Y-42948024D01*
X89560405Y-42948027D01*
X89560405Y-43095863D01*
X89560405Y-43095865D01*
X89560404Y-43095865D01*
X88392560Y-43095865D01*
X88501916Y-42892393D01*
X88504124Y-42888460D01*
X88517508Y-42865601D01*
X89046316Y-41962423D01*
X89048629Y-41958634D01*
X89282949Y-41590000D01*
X99123000Y-41590000D01*
X99673000Y-41590000D01*
X99673000Y-40677500D01*
X99575155Y-40677500D01*
X99515627Y-40683901D01*
X99515620Y-40683903D01*
X99380913Y-40734145D01*
X99380906Y-40734149D01*
X99265812Y-40820309D01*
X99265809Y-40820312D01*
X99179649Y-40935406D01*
X99179645Y-40935413D01*
X99129403Y-41070120D01*
X99129401Y-41070127D01*
X99123000Y-41129655D01*
X99123000Y-41590000D01*
X89282949Y-41590000D01*
X89624282Y-41053013D01*
X89626734Y-41049306D01*
X90235104Y-40165276D01*
X90237706Y-40161640D01*
X90877907Y-39300486D01*
X90880662Y-39296918D01*
X91551885Y-38459722D01*
X91554745Y-38456285D01*
X92256153Y-37644095D01*
X92259113Y-37640793D01*
X92989691Y-36854788D01*
X92992781Y-36851583D01*
X93751583Y-36092781D01*
X93754788Y-36089691D01*
X94540793Y-35359113D01*
X94544095Y-35356153D01*
X95356285Y-34654745D01*
X95359722Y-34651885D01*
X96196934Y-33980649D01*
X96200486Y-33977907D01*
X97061640Y-33337706D01*
X97065276Y-33335104D01*
X97949306Y-32726734D01*
X97953013Y-32724282D01*
X98858634Y-32148629D01*
X98862423Y-32146316D01*
X99788476Y-31604114D01*
X99792393Y-31601916D01*
X100737610Y-31093909D01*
X100741606Y-31091855D01*
X101704752Y-30618706D01*
X101708782Y-30616817D01*
X102688576Y-30179154D01*
X102692631Y-30177430D01*
X103687811Y-29775821D01*
X103691962Y-29774234D01*
X104701120Y-29409248D01*
X104705308Y-29407819D01*
X105727096Y-29079942D01*
X105731359Y-29078660D01*
X106764462Y-28788313D01*
X106768735Y-28787196D01*
X107173635Y-28689206D01*
X107205564Y-28681479D01*
X107234731Y-28678000D01*
X108704000Y-28678000D01*
X108771039Y-28697685D01*
G37*
%TD.AperFunction*%
%TA.AperFunction,Conductor*%
G36*
X94070973Y-61243014D02*
G01*
X94115327Y-61271517D01*
X94129650Y-61285840D01*
X94163736Y-61306864D01*
X94210460Y-61358809D01*
X94221683Y-61427772D01*
X94217715Y-61446997D01*
X94180402Y-61575426D01*
X94180401Y-61575432D01*
X94177500Y-61612298D01*
X94177500Y-62768701D01*
X94180401Y-62805567D01*
X94180402Y-62805573D01*
X94226254Y-62963393D01*
X94226255Y-62963396D01*
X94309917Y-63104862D01*
X94314702Y-63111031D01*
X94313018Y-63112336D01*
X94341246Y-63164031D01*
X94336262Y-63233723D01*
X94304234Y-63281461D01*
X94278000Y-63305702D01*
X94278000Y-63571184D01*
X94260733Y-63634304D01*
X94226254Y-63692605D01*
X94226254Y-63692606D01*
X94180402Y-63850426D01*
X94180401Y-63850432D01*
X94177500Y-63887298D01*
X94177500Y-65043701D01*
X94180401Y-65080567D01*
X94180402Y-65080573D01*
X94226254Y-65238393D01*
X94226255Y-65238396D01*
X94226256Y-65238398D01*
X94260732Y-65296694D01*
X94278000Y-65359814D01*
X94278000Y-65577401D01*
X94258315Y-65644440D01*
X94241681Y-65665082D01*
X93840181Y-66066582D01*
X93778858Y-66100067D01*
X93709166Y-66095083D01*
X93653233Y-66053211D01*
X93628816Y-65987747D01*
X93628500Y-65978901D01*
X93628500Y-65746948D01*
X93648185Y-65679909D01*
X93700989Y-65634154D01*
X93770147Y-65624210D01*
X93774794Y-65624969D01*
X93775512Y-65625100D01*
X93777998Y-65625295D01*
X93778000Y-65625295D01*
X93778000Y-65359814D01*
X93795267Y-65296694D01*
X93829744Y-65238398D01*
X93875598Y-65080569D01*
X93878500Y-65043694D01*
X93878500Y-63887306D01*
X93875598Y-63850431D01*
X93851402Y-63767150D01*
X93829745Y-63692606D01*
X93829745Y-63692605D01*
X93829744Y-63692604D01*
X93829744Y-63692602D01*
X93795267Y-63634304D01*
X93778000Y-63571184D01*
X93778000Y-63305702D01*
X93751765Y-63281461D01*
X93715887Y-63221507D01*
X93718118Y-63151673D01*
X93742533Y-63111988D01*
X93741298Y-63111031D01*
X93746075Y-63104870D01*
X93746081Y-63104865D01*
X93829744Y-62963398D01*
X93875598Y-62805569D01*
X93878500Y-62768694D01*
X93878500Y-61612306D01*
X93875598Y-61575431D01*
X93853854Y-61500588D01*
X93838140Y-61446499D01*
X93838339Y-61376630D01*
X93876281Y-61317960D01*
X93892121Y-61306364D01*
X93926037Y-61285444D01*
X93939960Y-61271521D01*
X94001282Y-61238033D01*
X94070973Y-61243014D01*
G37*
%TD.AperFunction*%
%TA.AperFunction,Conductor*%
G36*
X106932343Y-41325403D02*
G01*
X106988277Y-41367275D01*
X106992112Y-41372694D01*
X107050153Y-41459558D01*
X107071031Y-41526235D01*
X107052547Y-41593616D01*
X107050154Y-41597339D01*
X106980432Y-41701685D01*
X106980428Y-41701693D01*
X106912587Y-41865476D01*
X106912584Y-41865483D01*
X106910096Y-41878000D01*
X108704000Y-41878000D01*
X108771039Y-41897685D01*
X108816794Y-41950489D01*
X108828000Y-42002000D01*
X108828000Y-42254000D01*
X108808315Y-42321039D01*
X108755511Y-42366794D01*
X108704000Y-42378000D01*
X106910096Y-42378000D01*
X106912584Y-42390516D01*
X106912587Y-42390523D01*
X106980428Y-42554306D01*
X106980433Y-42554316D01*
X107078923Y-42701716D01*
X107078926Y-42701720D01*
X107204279Y-42827073D01*
X107204283Y-42827076D01*
X107351683Y-42925566D01*
X107351696Y-42925573D01*
X107504676Y-42988939D01*
X107559080Y-43032780D01*
X107581145Y-43099074D01*
X107563866Y-43166773D01*
X107512729Y-43214384D01*
X107457224Y-43227500D01*
X105227097Y-43227500D01*
X105160058Y-43207815D01*
X105114303Y-43155011D01*
X105104359Y-43085853D01*
X105133384Y-43022297D01*
X105139416Y-43015819D01*
X105545363Y-42609872D01*
X106801331Y-41353902D01*
X106862652Y-41320419D01*
X106932343Y-41325403D01*
G37*
%TD.AperFunction*%
%TA.AperFunction,Conductor*%
G36*
X118263008Y-31747685D02*
G01*
X118299071Y-31783109D01*
X118349853Y-31859109D01*
X118370731Y-31925786D01*
X118352247Y-31993166D01*
X118349853Y-31996891D01*
X118279990Y-32101446D01*
X118279983Y-32101459D01*
X118212106Y-32265332D01*
X118212103Y-32265341D01*
X118177500Y-32439304D01*
X118177500Y-32616695D01*
X118212103Y-32790658D01*
X118212106Y-32790667D01*
X118279983Y-32954540D01*
X118279990Y-32954553D01*
X118349853Y-33059109D01*
X118370731Y-33125786D01*
X118352247Y-33193166D01*
X118349853Y-33196891D01*
X118279990Y-33301446D01*
X118279983Y-33301459D01*
X118212106Y-33465332D01*
X118212103Y-33465341D01*
X118177500Y-33639304D01*
X118177500Y-33816695D01*
X118212103Y-33990658D01*
X118212105Y-33990661D01*
X118212106Y-33990666D01*
X118214402Y-33996208D01*
X118221867Y-34065678D01*
X118190588Y-34128156D01*
X118130498Y-34163805D01*
X118060673Y-34161307D01*
X118058884Y-34160697D01*
X118007257Y-34142632D01*
X118007249Y-34142630D01*
X117828004Y-34122435D01*
X117827996Y-34122435D01*
X117648750Y-34142630D01*
X117648745Y-34142631D01*
X117478476Y-34202211D01*
X117325737Y-34298184D01*
X117198184Y-34425737D01*
X117102211Y-34578476D01*
X117042631Y-34748745D01*
X117042630Y-34748750D01*
X117022435Y-34927996D01*
X117022435Y-34928003D01*
X117042630Y-35107249D01*
X117042631Y-35107254D01*
X117102211Y-35277523D01*
X117198184Y-35430262D01*
X117208241Y-35440319D01*
X117241726Y-35501642D01*
X117236742Y-35571334D01*
X117208241Y-35615681D01*
X117198184Y-35625737D01*
X117102211Y-35778476D01*
X117042631Y-35948745D01*
X117042630Y-35948750D01*
X117022435Y-36127996D01*
X117022435Y-36128003D01*
X117042630Y-36307249D01*
X117042631Y-36307254D01*
X117102211Y-36477523D01*
X117184523Y-36608521D01*
X117198184Y-36630262D01*
X117325738Y-36757816D01*
X117400271Y-36804648D01*
X117477473Y-36853158D01*
X117478478Y-36853789D01*
X117550204Y-36878887D01*
X117648745Y-36913368D01*
X117648750Y-36913369D01*
X117827996Y-36933565D01*
X117828000Y-36933565D01*
X117828004Y-36933565D01*
X118007249Y-36913369D01*
X118007252Y-36913368D01*
X118007255Y-36913368D01*
X118007256Y-36913367D01*
X118007259Y-36913367D01*
X118058882Y-36895303D01*
X118128661Y-36891740D01*
X118189289Y-36926469D01*
X118221516Y-36988462D01*
X118215112Y-37058037D01*
X118214403Y-37059787D01*
X118212107Y-37065330D01*
X118212103Y-37065341D01*
X118177500Y-37239304D01*
X118177500Y-37416695D01*
X118209580Y-37577970D01*
X118203353Y-37647561D01*
X118160490Y-37702739D01*
X118101847Y-37725381D01*
X117948749Y-37742630D01*
X117948745Y-37742631D01*
X117778476Y-37802211D01*
X117625737Y-37898184D01*
X117498184Y-38025737D01*
X117402211Y-38178476D01*
X117342631Y-38348745D01*
X117342630Y-38348750D01*
X117322435Y-38527996D01*
X117322435Y-38528003D01*
X117342630Y-38707249D01*
X117342631Y-38707254D01*
X117402211Y-38877523D01*
X117478141Y-38998364D01*
X117498184Y-39030262D01*
X117625738Y-39157816D01*
X117671291Y-39186439D01*
X117764800Y-39245195D01*
X117778478Y-39253789D01*
X117948745Y-39313368D01*
X117948750Y-39313369D01*
X118057273Y-39325596D01*
X118101846Y-39330618D01*
X118166260Y-39357684D01*
X118205815Y-39415279D01*
X118209580Y-39478029D01*
X118177500Y-39639304D01*
X118177500Y-39816695D01*
X118209846Y-39979309D01*
X118203619Y-40048900D01*
X118160756Y-40104078D01*
X118094866Y-40127322D01*
X118088229Y-40127500D01*
X112573073Y-40127500D01*
X112506034Y-40107815D01*
X112485392Y-40091181D01*
X111452989Y-39058779D01*
X111419504Y-38997456D01*
X111417452Y-38984998D01*
X111413368Y-38948745D01*
X111353789Y-38778478D01*
X111257816Y-38625738D01*
X111130262Y-38498184D01*
X111088159Y-38471729D01*
X110977523Y-38402211D01*
X110807254Y-38342631D01*
X110807249Y-38342630D01*
X110628004Y-38322435D01*
X110627996Y-38322435D01*
X110448750Y-38342630D01*
X110448742Y-38342632D01*
X110406324Y-38357475D01*
X110336545Y-38361036D01*
X110275918Y-38326307D01*
X110246961Y-38270775D01*
X110245664Y-38271169D01*
X110243893Y-38265332D01*
X110243661Y-38264773D01*
X110209309Y-38181838D01*
X110176016Y-38101459D01*
X110176012Y-38101452D01*
X110160008Y-38077500D01*
X110106145Y-37996888D01*
X110085268Y-37930215D01*
X110103752Y-37862834D01*
X110106118Y-37859150D01*
X110176013Y-37754547D01*
X110243894Y-37590666D01*
X110246420Y-37577970D01*
X110278499Y-37416695D01*
X110278500Y-37416693D01*
X110278500Y-37239306D01*
X110278499Y-37239304D01*
X110243896Y-37065341D01*
X110243893Y-37065332D01*
X110240871Y-37058037D01*
X110212053Y-36988462D01*
X110176016Y-36901459D01*
X110176012Y-36901452D01*
X110106145Y-36796888D01*
X110085268Y-36730215D01*
X110103752Y-36662834D01*
X110106118Y-36659150D01*
X110176013Y-36554547D01*
X110243894Y-36390666D01*
X110278500Y-36216691D01*
X110278500Y-36039309D01*
X110278500Y-36039306D01*
X110278499Y-36039304D01*
X110243896Y-35865341D01*
X110243893Y-35865332D01*
X110229701Y-35831070D01*
X110224010Y-35817330D01*
X110176013Y-35701452D01*
X110175601Y-35700681D01*
X110175507Y-35700230D01*
X110173682Y-35695824D01*
X110174517Y-35695477D01*
X110161362Y-35632278D01*
X110186366Y-35567035D01*
X110242672Y-35525667D01*
X110298846Y-35519013D01*
X110427997Y-35533565D01*
X110428000Y-35533565D01*
X110428004Y-35533565D01*
X110607249Y-35513369D01*
X110607252Y-35513368D01*
X110607255Y-35513368D01*
X110777522Y-35453789D01*
X110930262Y-35357816D01*
X110940319Y-35347759D01*
X111001642Y-35314274D01*
X111071334Y-35319258D01*
X111115681Y-35347759D01*
X111125738Y-35357816D01*
X111186485Y-35395986D01*
X111257040Y-35440319D01*
X111278478Y-35453789D01*
X111415234Y-35501642D01*
X111448745Y-35513368D01*
X111448750Y-35513369D01*
X111627996Y-35533565D01*
X111628000Y-35533565D01*
X111628004Y-35533565D01*
X111807249Y-35513369D01*
X111807252Y-35513368D01*
X111807255Y-35513368D01*
X111977522Y-35453789D01*
X112130262Y-35357816D01*
X112257816Y-35230262D01*
X112353789Y-35077522D01*
X112413368Y-34907255D01*
X112413369Y-34907249D01*
X112433565Y-34728003D01*
X112433565Y-34727996D01*
X112413369Y-34548750D01*
X112413368Y-34548745D01*
X112370326Y-34425738D01*
X112353789Y-34378478D01*
X112338386Y-34353965D01*
X112278784Y-34259109D01*
X112257816Y-34225738D01*
X112257814Y-34225736D01*
X112257813Y-34225734D01*
X112255550Y-34222896D01*
X112254659Y-34220715D01*
X112254111Y-34219842D01*
X112254264Y-34219745D01*
X112229144Y-34158209D01*
X112228500Y-34145587D01*
X112228500Y-33708996D01*
X112228500Y-33708994D01*
X112187577Y-33556267D01*
X112187573Y-33556260D01*
X112108524Y-33419341D01*
X112108521Y-33419337D01*
X112108520Y-33419335D01*
X111996716Y-33307531D01*
X111996715Y-33307530D01*
X111992385Y-33303200D01*
X111992374Y-33303190D01*
X110628865Y-31939681D01*
X110595380Y-31878358D01*
X110600364Y-31808666D01*
X110642236Y-31752733D01*
X110707700Y-31728316D01*
X110716546Y-31728000D01*
X118195969Y-31728000D01*
X118263008Y-31747685D01*
G37*
%TD.AperFunction*%
%TA.AperFunction,Conductor*%
G36*
X122933085Y-36748185D02*
G01*
X122978840Y-36800989D01*
X122988784Y-36870147D01*
X122987663Y-36876691D01*
X122967728Y-36976909D01*
X122967728Y-37123828D01*
X122996386Y-37267903D01*
X122996389Y-37267913D01*
X123052606Y-37403635D01*
X123052611Y-37403644D01*
X123134226Y-37525788D01*
X123134229Y-37525792D01*
X123224256Y-37615819D01*
X123257741Y-37677142D01*
X123252757Y-37746834D01*
X123210885Y-37802767D01*
X123145421Y-37827184D01*
X123136575Y-37827500D01*
X122789851Y-37827500D01*
X122722812Y-37807815D01*
X122684857Y-37769472D01*
X122663157Y-37734937D01*
X122638038Y-37694960D01*
X122510484Y-37567406D01*
X122390553Y-37492048D01*
X122357741Y-37471431D01*
X122229962Y-37426719D01*
X122173186Y-37385998D01*
X122147439Y-37321045D01*
X122160895Y-37252483D01*
X122183232Y-37222001D01*
X122640416Y-36764819D01*
X122701739Y-36731334D01*
X122728097Y-36728500D01*
X122866046Y-36728500D01*
X122933085Y-36748185D01*
G37*
%TD.AperFunction*%
%TD*%
%TA.AperFunction,Conductor*%
%TO.N,+BATT*%
G36*
X100273146Y-73282282D02*
G01*
X100277887Y-73289880D01*
X100278046Y-73291764D01*
X100279000Y-73578000D01*
X100279000Y-73578078D01*
X100278045Y-73864235D01*
X100274590Y-73872497D01*
X100266306Y-73875896D01*
X100264422Y-73875737D01*
X99687777Y-73779629D01*
X99680179Y-73774888D01*
X99678000Y-73768088D01*
X99678000Y-73387911D01*
X99681427Y-73379638D01*
X99687775Y-73376370D01*
X100264425Y-73280262D01*
X100273146Y-73282282D01*
G37*
%TD.AperFunction*%
%TD*%
%TA.AperFunction,Conductor*%
%TO.N,+BATT*%
G36*
X101714235Y-74727954D02*
G01*
X101722497Y-74731408D01*
X101725896Y-74739693D01*
X101725737Y-74741577D01*
X101629630Y-75318223D01*
X101624889Y-75325821D01*
X101618089Y-75328000D01*
X101237911Y-75328000D01*
X101229638Y-75324573D01*
X101226370Y-75318223D01*
X101130262Y-74741574D01*
X101132282Y-74732854D01*
X101139880Y-74728113D01*
X101141762Y-74727954D01*
X101428000Y-74727000D01*
X101714235Y-74727954D01*
G37*
%TD.AperFunction*%
%TD*%
M02*
