%TF.GenerationSoftware,KiCad,Pcbnew,8.0.0*%
%TF.CreationDate,2024-03-28T16:54:28+01:00*%
%TF.ProjectId,BAT2024,42415432-3032-4342-9e6b-696361645f70,1.0*%
%TF.SameCoordinates,Original*%
%TF.FileFunction,Copper,L1,Top*%
%TF.FilePolarity,Positive*%
%FSLAX46Y46*%
G04 Gerber Fmt 4.6, Leading zero omitted, Abs format (unit mm)*
G04 Created by KiCad (PCBNEW 8.0.0) date 2024-03-28 16:54:28*
%MOMM*%
%LPD*%
G01*
G04 APERTURE LIST*
G04 Aperture macros list*
%AMRoundRect*
0 Rectangle with rounded corners*
0 $1 Rounding radius*
0 $2 $3 $4 $5 $6 $7 $8 $9 X,Y pos of 4 corners*
0 Add a 4 corners polygon primitive as box body*
4,1,4,$2,$3,$4,$5,$6,$7,$8,$9,$2,$3,0*
0 Add four circle primitives for the rounded corners*
1,1,$1+$1,$2,$3*
1,1,$1+$1,$4,$5*
1,1,$1+$1,$6,$7*
1,1,$1+$1,$8,$9*
0 Add four rect primitives between the rounded corners*
20,1,$1+$1,$2,$3,$4,$5,0*
20,1,$1+$1,$4,$5,$6,$7,0*
20,1,$1+$1,$6,$7,$8,$9,0*
20,1,$1+$1,$8,$9,$2,$3,0*%
%AMRotRect*
0 Rectangle, with rotation*
0 The origin of the aperture is its center*
0 $1 length*
0 $2 width*
0 $3 Rotation angle, in degrees counterclockwise*
0 Add horizontal line*
21,1,$1,$2,0,0,$3*%
G04 Aperture macros list end*
%TA.AperFunction,SMDPad,CuDef*%
%ADD10RoundRect,0.237500X-0.237500X0.250000X-0.237500X-0.250000X0.237500X-0.250000X0.237500X0.250000X0*%
%TD*%
%TA.AperFunction,ComponentPad*%
%ADD11C,2.010000*%
%TD*%
%TA.AperFunction,SMDPad,CuDef*%
%ADD12RotRect,0.700000X1.200000X341.000000*%
%TD*%
%TA.AperFunction,SMDPad,CuDef*%
%ADD13RotRect,0.700000X1.200000X111.000000*%
%TD*%
%TA.AperFunction,SMDPad,CuDef*%
%ADD14RotRect,0.700000X1.200000X201.000000*%
%TD*%
%TA.AperFunction,SMDPad,CuDef*%
%ADD15RotRect,0.700000X1.200000X246.000000*%
%TD*%
%TA.AperFunction,SMDPad,CuDef*%
%ADD16RotRect,0.700000X1.200000X16.000000*%
%TD*%
%TA.AperFunction,SMDPad,CuDef*%
%ADD17RotRect,0.700000X1.200000X66.000000*%
%TD*%
%TA.AperFunction,SMDPad,CuDef*%
%ADD18R,0.850000X0.300000*%
%TD*%
%TA.AperFunction,SMDPad,CuDef*%
%ADD19R,0.300000X0.850000*%
%TD*%
%TA.AperFunction,SMDPad,CuDef*%
%ADD20R,2.700000X2.700000*%
%TD*%
%TA.AperFunction,SMDPad,CuDef*%
%ADD21RoundRect,0.237500X-0.237500X0.300000X-0.237500X-0.300000X0.237500X-0.300000X0.237500X0.300000X0*%
%TD*%
%TA.AperFunction,SMDPad,CuDef*%
%ADD22RoundRect,0.237500X0.237500X-0.250000X0.237500X0.250000X-0.237500X0.250000X-0.237500X-0.250000X0*%
%TD*%
%TA.AperFunction,SMDPad,CuDef*%
%ADD23RotRect,0.700000X1.200000X156.000000*%
%TD*%
%TA.AperFunction,SMDPad,CuDef*%
%ADD24RotRect,0.700000X1.200000X291.000000*%
%TD*%
%TA.AperFunction,SMDPad,CuDef*%
%ADD25R,1.032000X0.622000*%
%TD*%
%TA.AperFunction,SMDPad,CuDef*%
%ADD26R,1.032000X0.500000*%
%TD*%
%TA.AperFunction,SMDPad,CuDef*%
%ADD27RoundRect,0.237500X0.300000X0.237500X-0.300000X0.237500X-0.300000X-0.237500X0.300000X-0.237500X0*%
%TD*%
%TA.AperFunction,SMDPad,CuDef*%
%ADD28RoundRect,0.237500X0.237500X-0.300000X0.237500X0.300000X-0.237500X0.300000X-0.237500X-0.300000X0*%
%TD*%
%TA.AperFunction,ComponentPad*%
%ADD29C,2.280000*%
%TD*%
%TA.AperFunction,ViaPad*%
%ADD30C,0.600000*%
%TD*%
%TA.AperFunction,Conductor*%
%ADD31C,0.200000*%
%TD*%
%TA.AperFunction,Conductor*%
%ADD32C,0.400000*%
%TD*%
G04 APERTURE END LIST*
D10*
%TO.P,R8,1*%
%TO.N,/DRV_EN*%
X101128000Y-47915500D03*
%TO.P,R8,2*%
%TO.N,+3.3V*%
X101128000Y-49740500D03*
%TD*%
D11*
%TO.P,J1,MH4,MH4*%
%TO.N,GND*%
X118528000Y-80228000D03*
%TO.P,J1,MH3,MH3*%
X118528000Y-84028000D03*
%TO.P,J1,MH2,MH2*%
X109888000Y-84028000D03*
%TO.P,J1,MH1,MH1*%
X109888000Y-80228000D03*
%TD*%
D12*
%TO.P,LED7,1*%
%TO.N,GND*%
X89963239Y-46156133D03*
%TO.P,LED7,2*%
%TO.N,/LED7*%
X89442331Y-47668965D03*
%TD*%
D13*
%TO.P,LED4,1*%
%TO.N,GND*%
X123923929Y-82782947D03*
%TO.P,LED4,2*%
%TO.N,/LED4*%
X125417657Y-82209559D03*
%TD*%
D14*
%TO.P,LED2,1*%
%TO.N,GND*%
X139877074Y-48094776D03*
%TO.P,LED2,2*%
%TO.N,/LED2*%
X139303686Y-46601048D03*
%TD*%
D15*
%TO.P,LED1,1*%
%TO.N,GND*%
X125836995Y-32934046D03*
%TO.P,LED1,2*%
%TO.N,/LED1*%
X124375323Y-32283268D03*
%TD*%
D16*
%TO.P,LED6,2*%
%TO.N,/LED6*%
X89448511Y-68345674D03*
%TO.P,LED6,1*%
%TO.N,GND*%
X89007489Y-66807656D03*
%TD*%
D10*
%TO.P,R11,1*%
%TO.N,+3.3V*%
X93978000Y-43740500D03*
%TO.P,R11,2*%
%TO.N,/I2C_SCL*%
X93978000Y-45565500D03*
%TD*%
D17*
%TO.P,LED5,1*%
%TO.N,GND*%
X103275841Y-81990530D03*
%TO.P,LED5,2*%
%TO.N,/LED5*%
X104737513Y-82641308D03*
%TD*%
D18*
%TO.P,IC3,1,C2+*%
%TO.N,/C2+*%
X96328000Y-50903000D03*
%TO.P,IC3,2,C1+*%
%TO.N,/C1+*%
X96328000Y-50403000D03*
%TO.P,IC3,3,VDD*%
%TO.N,+3.3V*%
X96328000Y-49903000D03*
%TO.P,IC3,4,GND_1*%
%TO.N,GND*%
X96328000Y-49403000D03*
%TO.P,IC3,5,EN*%
%TO.N,/DRV_EN*%
X96328000Y-48903000D03*
%TO.P,IC3,6,CLK*%
%TO.N,GND*%
X96328000Y-48403000D03*
D19*
%TO.P,IC3,7,INT*%
%TO.N,unconnected-(IC3-INT-Pad7)*%
X95628000Y-47703000D03*
%TO.P,IC3,8,SDA*%
%TO.N,/I2C_SDA*%
X95128000Y-47703000D03*
%TO.P,IC3,9,SCL*%
%TO.N,/I2C_SCL*%
X94628000Y-47703000D03*
%TO.P,IC3,10,TRIG*%
%TO.N,GND*%
X94128000Y-47703000D03*
%TO.P,IC3,11,D9*%
%TO.N,unconnected-(IC3-D9-Pad11)*%
X93628000Y-47703000D03*
%TO.P,IC3,12,D8*%
%TO.N,/LED8*%
X93128000Y-47703000D03*
D18*
%TO.P,IC3,13,D7*%
%TO.N,/LED7*%
X92428000Y-48403000D03*
%TO.P,IC3,14,D6*%
%TO.N,/LED6*%
X92428000Y-48903000D03*
%TO.P,IC3,15,D5*%
%TO.N,/LED5*%
X92428000Y-49403000D03*
%TO.P,IC3,16,D4*%
%TO.N,/LED4*%
X92428000Y-49903000D03*
%TO.P,IC3,17,D3*%
%TO.N,/LED3*%
X92428000Y-50403000D03*
%TO.P,IC3,18,D2*%
%TO.N,/LED2*%
X92428000Y-50903000D03*
D19*
%TO.P,IC3,19,D1*%
%TO.N,/LED1*%
X93128000Y-51603000D03*
%TO.P,IC3,20,ASEL0*%
%TO.N,GND*%
X93628000Y-51603000D03*
%TO.P,IC3,21,ASEL1*%
X94128000Y-51603000D03*
%TO.P,IC3,22,VOUT*%
%TO.N,/DRV_VOUT*%
X94628000Y-51603000D03*
%TO.P,IC3,23,C2-*%
%TO.N,/C2-*%
X95128000Y-51603000D03*
%TO.P,IC3,24,C1-*%
%TO.N,/C1-*%
X95628000Y-51603000D03*
D20*
%TO.P,IC3,25,GND_2*%
%TO.N,GND*%
X94378000Y-49653000D03*
%TD*%
D21*
%TO.P,C3,1*%
%TO.N,/C1+*%
X98795500Y-51790500D03*
%TO.P,C3,2*%
%TO.N,/C1-*%
X98795500Y-53515500D03*
%TD*%
D22*
%TO.P,R4,1*%
%TO.N,GND*%
X112462000Y-85340500D03*
%TO.P,R4,2*%
%TO.N,Net-(J1-CC2)*%
X112462000Y-83515500D03*
%TD*%
D10*
%TO.P,R10,1*%
%TO.N,+3.3V*%
X95578000Y-43740500D03*
%TO.P,R10,2*%
%TO.N,/I2C_SDA*%
X95578000Y-45565500D03*
%TD*%
D23*
%TO.P,LED3,1*%
%TO.N,GND*%
X139102611Y-68458836D03*
%TO.P,LED3,2*%
%TO.N,/LED3*%
X139753389Y-66997164D03*
%TD*%
D21*
%TO.P,C2,1*%
%TO.N,/DRV_VOUT*%
X93628000Y-54328000D03*
%TO.P,C2,2*%
%TO.N,GND*%
X93628000Y-56053000D03*
%TD*%
D24*
%TO.P,LED8,1*%
%TO.N,GND*%
X105188902Y-32141632D03*
%TO.P,LED8,2*%
%TO.N,/LED8*%
X103695174Y-32715020D03*
%TD*%
D22*
%TO.P,R3,1*%
%TO.N,GND*%
X115828000Y-85340500D03*
%TO.P,R3,2*%
%TO.N,Net-(J1-CC1)*%
X115828000Y-83515500D03*
%TD*%
D25*
%TO.P,MK1,1,VDD*%
%TO.N,+3.3V*%
X115438000Y-57596000D03*
D26*
%TO.P,MK1,2,CLK*%
%TO.N,/PDM_CLK*%
X115438000Y-56712000D03*
D25*
%TO.P,MK1,3,DATA*%
%TO.N,/PDM_DATA0*%
X115438000Y-55828000D03*
%TO.P,MK1,4,GND_1*%
%TO.N,GND*%
X113228000Y-55828000D03*
D26*
%TO.P,MK1,5,SELECT*%
X113228000Y-56712000D03*
D25*
%TO.P,MK1,6,GND_2*%
X113228000Y-57596000D03*
%TD*%
D27*
%TO.P,C4,1*%
%TO.N,/C2+*%
X97090500Y-54269000D03*
%TO.P,C4,2*%
%TO.N,/C2-*%
X95365500Y-54269000D03*
%TD*%
%TO.P,C9,1*%
%TO.N,+3.3V*%
X115195500Y-59928000D03*
%TO.P,C9,2*%
%TO.N,GND*%
X113470500Y-59928000D03*
%TD*%
D28*
%TO.P,C1,1*%
%TO.N,+3.3V*%
X98795500Y-49715500D03*
%TO.P,C1,2*%
%TO.N,GND*%
X98795500Y-47990500D03*
%TD*%
D29*
%TO.P,H1,1,-*%
%TO.N,GND*%
X119518000Y-59328000D03*
%TO.P,H1,2,+*%
%TO.N,+BATT*%
X99028000Y-59328000D03*
%TD*%
D30*
%TO.N,GND*%
X100228000Y-79328000D03*
X92228000Y-75328000D03*
X122228000Y-83328000D03*
X120228000Y-79328000D03*
X128228000Y-79328000D03*
X86228000Y-51328000D03*
X88228000Y-63328000D03*
X138228000Y-43328000D03*
X142228000Y-51328000D03*
X140228000Y-55328000D03*
X140228000Y-63328000D03*
X118228000Y-75328000D03*
X122228000Y-75328000D03*
X126228000Y-75328000D03*
X132228000Y-71328000D03*
X128228000Y-71328000D03*
X124228000Y-71328000D03*
X126228000Y-43328000D03*
X114228000Y-47328000D03*
X110228000Y-47328000D03*
X106228000Y-47328000D03*
X104228000Y-51328000D03*
X112228000Y-51328000D03*
X108228000Y-51328000D03*
X106228000Y-55328000D03*
X110228000Y-55328000D03*
X118228000Y-51328000D03*
X98228000Y-67328000D03*
X100228000Y-63328000D03*
X104228000Y-63328000D03*
X108228000Y-63328000D03*
X112228000Y-63328000D03*
X116228000Y-63328000D03*
X120228000Y-63328000D03*
X124228000Y-63328000D03*
X128228000Y-63328000D03*
X132228000Y-63328000D03*
X134228000Y-67328000D03*
X112228000Y-39328000D03*
X114228000Y-39328000D03*
X132228000Y-35328000D03*
X98228000Y-33328000D03*
X94228000Y-37328000D03*
X102228000Y-45328000D03*
X104228000Y-59328000D03*
X92228000Y-46228000D03*
X93728000Y-46669000D03*
%TO.N,/RESET*%
X107028000Y-30628000D03*
%TO.N,/Charge*%
X110628000Y-40328000D03*
X95590500Y-59528000D03*
X97666113Y-61679838D03*
X110628000Y-44628000D03*
%TO.N,GND*%
X122228000Y-37428000D03*
%TO.N,/RESET*%
X122008222Y-38197222D03*
%TO.N,/SWDIO*%
X128428000Y-38828000D03*
X118128000Y-38528000D03*
%TO.N,Net-(J1-CC2)*%
X113708000Y-83528000D03*
%TO.N,Net-(J1-CC1)*%
X114728000Y-83528000D03*
%TO.N,GND*%
X87428000Y-65928000D03*
X97373000Y-46669000D03*
X130228000Y-51328000D03*
X136228000Y-47328000D03*
X140228000Y-49728000D03*
X114228000Y-85340500D03*
X126228000Y-59328000D03*
X112228000Y-37328000D03*
X92428000Y-53328000D03*
X142228000Y-59328000D03*
X132228000Y-55328000D03*
X132228000Y-47328000D03*
X112028000Y-59728000D03*
X124228000Y-55328000D03*
X137828000Y-70228000D03*
X98228000Y-41328000D03*
X128228000Y-47328000D03*
X122228000Y-59328000D03*
X127228000Y-33628000D03*
X134228000Y-51328000D03*
X128228000Y-55328000D03*
X134228000Y-59328000D03*
X136228000Y-55328000D03*
X126228000Y-51328000D03*
X121828000Y-29528000D03*
X124228000Y-47328000D03*
X100228000Y-71328000D03*
X130228000Y-59328000D03*
X89228000Y-44928000D03*
X120228000Y-55328000D03*
X122228000Y-51328000D03*
X114228000Y-37328000D03*
X130228000Y-43328000D03*
X106628000Y-41928000D03*
X100228000Y-53328000D03*
X106428000Y-29528000D03*
X120228000Y-47328000D03*
X108578000Y-43228000D03*
%TO.N,+3.3V*%
X99828000Y-45490500D03*
X103228000Y-38828000D03*
X101228000Y-40828000D03*
X124228000Y-41828000D03*
X118454000Y-43928000D03*
%TO.N,/C1-*%
X97386542Y-52455460D03*
X95728000Y-52376920D03*
%TO.N,+BATT*%
X100278000Y-73578000D03*
X101428000Y-74728000D03*
%TO.N,/PDM_CLK*%
X117828000Y-36128000D03*
%TO.N,/PDM_DATA0*%
X117828000Y-34928000D03*
%TO.N,/I2C_SDA*%
X110428000Y-34728000D03*
X95628000Y-42728000D03*
X95373000Y-46669000D03*
%TO.N,/SPI_MOSI*%
X98704000Y-37328000D03*
X106928000Y-38328000D03*
%TO.N,/DRV_EN*%
X97473000Y-49303000D03*
X99828000Y-49728000D03*
X110628000Y-39128000D03*
%TO.N,/I2C_SCL*%
X94028000Y-42753000D03*
X111628000Y-34728000D03*
X94572998Y-46667894D03*
%TD*%
D31*
%TO.N,GND*%
X112462000Y-85340500D02*
X114228000Y-85340500D01*
X115462000Y-85340500D02*
X114228000Y-85340500D01*
%TO.N,Net-(J1-CC2)*%
X113708000Y-83528000D02*
X113695500Y-83515500D01*
X113695500Y-83515500D02*
X112462000Y-83515500D01*
%TO.N,Net-(J1-CC1)*%
X114740500Y-83515500D02*
X115462000Y-83515500D01*
X114728000Y-83528000D02*
X114740500Y-83515500D01*
%TO.N,/PDM_DATA0*%
X115438000Y-37118000D02*
X115438000Y-55828000D01*
X117828000Y-34928000D02*
X117628000Y-34928000D01*
X117628000Y-34928000D02*
X115438000Y-37118000D01*
%TO.N,/PDM_CLK*%
X115981000Y-56712000D02*
X115438000Y-56712000D01*
X116254000Y-56439000D02*
X115981000Y-56712000D01*
X116254000Y-55217000D02*
X116254000Y-56439000D01*
X117828000Y-36128000D02*
X117028000Y-36128000D01*
X117028000Y-36128000D02*
X115838000Y-37318000D01*
X115838000Y-54801000D02*
X116254000Y-55217000D01*
X115838000Y-37318000D02*
X115838000Y-54801000D01*
%TO.N,/SWDIO*%
X118528000Y-38928000D02*
X118128000Y-38528000D01*
X128328000Y-38928000D02*
X118528000Y-38928000D01*
X128428000Y-38828000D02*
X128328000Y-38928000D01*
%TO.N,/RESET*%
X107028000Y-32828000D02*
X107028000Y-30628000D01*
X118428000Y-37828000D02*
X118428000Y-34328000D01*
X118797222Y-38197222D02*
X118428000Y-37828000D01*
X117428000Y-33328000D02*
X107528000Y-33328000D01*
X122008222Y-38197222D02*
X118797222Y-38197222D01*
X118428000Y-34328000D02*
X117428000Y-33328000D01*
X107528000Y-33328000D02*
X107028000Y-32828000D01*
%TO.N,/Charge*%
X97666113Y-61603613D02*
X95590500Y-59528000D01*
X97666113Y-61679838D02*
X97666113Y-61603613D01*
%TO.N,/LED5*%
X104266326Y-81766326D02*
X104266326Y-82602982D01*
X104266326Y-82602982D02*
X104228000Y-82641308D01*
X101628000Y-79128000D02*
X104266326Y-81766326D01*
X101224205Y-79128000D02*
X101628000Y-79128000D01*
X90228000Y-68131795D02*
X101224205Y-79128000D01*
X91153000Y-49403000D02*
X90228000Y-50328000D01*
X92428000Y-49403000D02*
X91153000Y-49403000D01*
X90228000Y-50328000D02*
X90228000Y-68131795D01*
%TO.N,/LED1*%
X137828000Y-66796628D02*
X137828000Y-46485716D01*
X91828000Y-67469051D02*
X101886949Y-77528000D01*
X101886949Y-77528000D02*
X127096628Y-77528000D01*
X91828000Y-52128000D02*
X91828000Y-67469051D01*
X92353000Y-51603000D02*
X91828000Y-52128000D01*
X127096628Y-77528000D02*
X137828000Y-66796628D01*
X124375323Y-33033039D02*
X124375323Y-32283268D01*
X93128000Y-51603000D02*
X92353000Y-51603000D01*
X137828000Y-46485716D02*
X124375323Y-33033039D01*
%TO.N,/LED2*%
X138228000Y-66962314D02*
X138228000Y-47676734D01*
X138228000Y-47676734D02*
X139303686Y-46601048D01*
X127262314Y-77928000D02*
X138228000Y-66962314D01*
X101721263Y-77928000D02*
X127262314Y-77928000D01*
X91428000Y-51128000D02*
X91428000Y-67634737D01*
X91428000Y-67634737D02*
X101721263Y-77928000D01*
X92428000Y-50903000D02*
X91653000Y-50903000D01*
X91653000Y-50903000D02*
X91428000Y-51128000D01*
%TO.N,/LED3*%
X91553000Y-50403000D02*
X92428000Y-50403000D01*
X101555577Y-78328000D02*
X91028000Y-67800423D01*
X91028000Y-67800423D02*
X91028000Y-50928000D01*
X91028000Y-50928000D02*
X91553000Y-50403000D01*
X127428000Y-78328000D02*
X101555577Y-78328000D01*
X138758836Y-66997164D02*
X127428000Y-78328000D01*
X139753389Y-66997164D02*
X138758836Y-66997164D01*
%TO.N,/LED4*%
X90628000Y-67966109D02*
X90628000Y-50493686D01*
X90628000Y-50493686D02*
X91218686Y-49903000D01*
X101389891Y-78728000D02*
X90628000Y-67966109D01*
X124751298Y-82209559D02*
X121269739Y-78728000D01*
X125417657Y-82209559D02*
X124751298Y-82209559D01*
X121269739Y-78728000D02*
X101389891Y-78728000D01*
X91218686Y-49903000D02*
X92428000Y-49903000D01*
%TO.N,/I2C_SCL*%
X94628000Y-46722896D02*
X94628000Y-47703000D01*
X94572998Y-46667894D02*
X94628000Y-46722896D01*
X94572998Y-46667894D02*
X94572998Y-46160498D01*
X94572998Y-46160498D02*
X93978000Y-45565500D01*
%TO.N,GND*%
X94128000Y-47069000D02*
X94128000Y-47703000D01*
X93728000Y-46669000D02*
X94128000Y-47069000D01*
X94128000Y-49403000D02*
X94378000Y-49653000D01*
X94128000Y-47703000D02*
X94128000Y-49403000D01*
%TO.N,/DRV_EN*%
X107039029Y-39128000D02*
X100228000Y-45939029D01*
X100228000Y-45939029D02*
X100228000Y-47928000D01*
X110628000Y-39128000D02*
X107039029Y-39128000D01*
%TO.N,/Charge*%
X110628000Y-40528000D02*
X110628000Y-40328000D01*
X110628000Y-44628000D02*
X110628000Y-40528000D01*
%TO.N,GND*%
X88127833Y-65928000D02*
X87428000Y-65928000D01*
X89007489Y-66807656D02*
X88127833Y-65928000D01*
%TO.N,/LED6*%
X89448511Y-67773006D02*
X89448511Y-68345674D01*
X89828000Y-50128000D02*
X89828000Y-67393517D01*
X91053000Y-48903000D02*
X89828000Y-50128000D01*
X89828000Y-67393517D02*
X89448511Y-67773006D01*
X92428000Y-48903000D02*
X91053000Y-48903000D01*
%TO.N,GND*%
X138997164Y-68458836D02*
X137828000Y-69628000D01*
X137828000Y-69628000D02*
X137828000Y-70228000D01*
X139102611Y-68458836D02*
X138997164Y-68458836D01*
D32*
%TO.N,+3.3V*%
X122128000Y-43928000D02*
X124228000Y-41828000D01*
X118454000Y-43928000D02*
X122128000Y-43928000D01*
D31*
%TO.N,/I2C_SCL*%
X94028000Y-40589785D02*
X94028000Y-42753000D01*
X100489785Y-34128000D02*
X94028000Y-40589785D01*
X111028000Y-34128000D02*
X100489785Y-34128000D01*
X111628000Y-34728000D02*
X111028000Y-34128000D01*
%TO.N,/I2C_SDA*%
X95628000Y-39555471D02*
X95628000Y-42728000D01*
X100455471Y-34728000D02*
X95628000Y-39555471D01*
X110428000Y-34728000D02*
X100455471Y-34728000D01*
%TO.N,/LED8*%
X93128000Y-40828000D02*
X93128000Y-47703000D01*
X103695174Y-32715020D02*
X101240980Y-32715020D01*
X101240980Y-32715020D02*
X93128000Y-40828000D01*
%TO.N,GND*%
X89963239Y-45663239D02*
X89228000Y-44928000D01*
X89963239Y-46156133D02*
X89963239Y-45663239D01*
%TO.N,/LED7*%
X89442331Y-48142331D02*
X89703000Y-48403000D01*
X89442331Y-47668965D02*
X89442331Y-48142331D01*
X89703000Y-48403000D02*
X92428000Y-48403000D01*
D32*
%TO.N,+3.3V*%
X101128000Y-50928000D02*
X100568000Y-51488000D01*
X101128000Y-49740500D02*
X101128000Y-50928000D01*
D31*
%TO.N,/DRV_EN*%
X101128000Y-47915500D02*
X100240500Y-47915500D01*
X100240500Y-47915500D02*
X100228000Y-47928000D01*
X100228000Y-47928000D02*
X100228000Y-49328000D01*
D32*
%TO.N,+3.3V*%
X100568000Y-51488000D02*
X110008000Y-60928000D01*
X98795500Y-49715500D02*
X100568000Y-51488000D01*
D31*
%TO.N,GND*%
X94128000Y-52328000D02*
X93928000Y-52528000D01*
D32*
X111928000Y-56728000D02*
X111928000Y-56228000D01*
X111928000Y-56228000D02*
X112328000Y-55828000D01*
X97373000Y-47990500D02*
X96590500Y-47990500D01*
D31*
X94128000Y-51603000D02*
X94128000Y-52328000D01*
D32*
X113228000Y-57596000D02*
X112396000Y-57596000D01*
X113470500Y-59928000D02*
X112228000Y-59928000D01*
X111944000Y-56712000D02*
X113228000Y-56712000D01*
D31*
X94628000Y-49403000D02*
X94378000Y-49653000D01*
X94128000Y-49903000D02*
X94378000Y-49653000D01*
X93628000Y-52128000D02*
X92428000Y-53328000D01*
X93628000Y-50403000D02*
X94378000Y-49653000D01*
X139657181Y-48398819D02*
X139628000Y-48428000D01*
D32*
X112328000Y-55828000D02*
X113228000Y-55828000D01*
D31*
X139628000Y-48428000D02*
X139628000Y-49128000D01*
X139692290Y-48398819D02*
X139657181Y-48398819D01*
X93528000Y-52228000D02*
X93628000Y-52128000D01*
X93628000Y-51603000D02*
X93628000Y-52128000D01*
D32*
X113470500Y-59928000D02*
X113470500Y-57838500D01*
X97373000Y-47990500D02*
X97373000Y-46669000D01*
D31*
X94128000Y-51603000D02*
X94128000Y-49903000D01*
D32*
X111928000Y-56728000D02*
X111944000Y-56712000D01*
X112228000Y-59928000D02*
X112028000Y-59728000D01*
D31*
X96328000Y-48403000D02*
X96303000Y-48428000D01*
D32*
X96590500Y-47990500D02*
X96328000Y-48253000D01*
X113470500Y-57838500D02*
X113228000Y-57596000D01*
D31*
X93928000Y-52528000D02*
X93828000Y-52528000D01*
X96328000Y-49403000D02*
X94628000Y-49403000D01*
X139628000Y-49128000D02*
X140228000Y-49728000D01*
X93628000Y-51603000D02*
X93628000Y-50403000D01*
X95603000Y-48428000D02*
X94378000Y-49653000D01*
D32*
X98795500Y-47990500D02*
X97373000Y-47990500D01*
X111928000Y-57128000D02*
X111928000Y-56728000D01*
D31*
X93828000Y-52528000D02*
X93528000Y-52228000D01*
X96303000Y-48428000D02*
X95603000Y-48428000D01*
D32*
X112396000Y-57596000D02*
X111928000Y-57128000D01*
%TO.N,+3.3V*%
X103228000Y-38828000D02*
X101228000Y-40828000D01*
D31*
X98485500Y-49903000D02*
X96328000Y-49903000D01*
D32*
X98673000Y-49715500D02*
X99673000Y-48715500D01*
X97132000Y-43728000D02*
X95590500Y-43728000D01*
X99828000Y-45528000D02*
X99380000Y-45976000D01*
X99673000Y-46269000D02*
X99380000Y-45976000D01*
X93978000Y-43740500D02*
X95578000Y-43740500D01*
X99828000Y-45490500D02*
X99828000Y-45528000D01*
X110008000Y-60928000D02*
X114195500Y-60928000D01*
X99673000Y-48715500D02*
X99673000Y-46269000D01*
X114195500Y-60928000D02*
X115212000Y-59911500D01*
X99380000Y-45976000D02*
X97132000Y-43728000D01*
X115195500Y-59928000D02*
X115195500Y-57838500D01*
D31*
X98673000Y-49715500D02*
X98485500Y-49903000D01*
D32*
X115195500Y-57838500D02*
X115438000Y-57596000D01*
X115212000Y-59911500D02*
X115212000Y-59712000D01*
D31*
%TO.N,/DRV_VOUT*%
X93590500Y-54269000D02*
X94678000Y-53181500D01*
X94678000Y-53181500D02*
X94678000Y-51603000D01*
%TO.N,/C1+*%
X98795500Y-51790500D02*
X97458000Y-50453000D01*
X97458000Y-50453000D02*
X96328000Y-50453000D01*
%TO.N,/C1-*%
X98795500Y-53515500D02*
X98446582Y-53515500D01*
X95628000Y-52276920D02*
X95628000Y-51603000D01*
X98446582Y-53515500D02*
X97386542Y-52455460D01*
X95728000Y-52376920D02*
X95628000Y-52276920D01*
%TO.N,/C2+*%
X96328000Y-53506500D02*
X96328000Y-50903000D01*
X97090500Y-54269000D02*
X96328000Y-53506500D01*
%TO.N,/C2-*%
X95365500Y-54269000D02*
X95128000Y-54031500D01*
X95128000Y-54031500D02*
X95128000Y-51908000D01*
D32*
%TO.N,+BATT*%
X100278000Y-73578000D02*
X101428000Y-74728000D01*
D31*
%TO.N,/I2C_SDA*%
X95373000Y-45770500D02*
X95578000Y-45565500D01*
X95373000Y-46669000D02*
X95373000Y-45770500D01*
X95128000Y-47703000D02*
X95128000Y-46914000D01*
X95128000Y-46914000D02*
X95373000Y-46669000D01*
%TO.N,/SPI_MOSI*%
X98704000Y-37328000D02*
X99404000Y-36628000D01*
X99404000Y-36628000D02*
X105228000Y-36628000D01*
X105228000Y-36628000D02*
X106928000Y-38328000D01*
%TO.N,/DRV_EN*%
X96328000Y-48903000D02*
X97073000Y-48903000D01*
X97073000Y-48903000D02*
X97473000Y-49303000D01*
X100228000Y-49328000D02*
X99828000Y-49728000D01*
%TD*%
%TA.AperFunction,Conductor*%
%TO.N,GND*%
G36*
X117338731Y-36769016D02*
G01*
X117361365Y-36780202D01*
X117388922Y-36797517D01*
X117478475Y-36853788D01*
X117478478Y-36853789D01*
X117648745Y-36913368D01*
X117717384Y-36921101D01*
X117781796Y-36948166D01*
X117821352Y-37005760D01*
X117827500Y-37044321D01*
X117827500Y-37702876D01*
X117807815Y-37769915D01*
X117769472Y-37807870D01*
X117625737Y-37898184D01*
X117498184Y-38025737D01*
X117402211Y-38178476D01*
X117342631Y-38348745D01*
X117342630Y-38348750D01*
X117322435Y-38527996D01*
X117322435Y-38528003D01*
X117342630Y-38707249D01*
X117342631Y-38707254D01*
X117402211Y-38877523D01*
X117459231Y-38968269D01*
X117498184Y-39030262D01*
X117625738Y-39157816D01*
X117778478Y-39253789D01*
X117948745Y-39313368D01*
X118035668Y-39323161D01*
X118100079Y-39350226D01*
X118109464Y-39358700D01*
X118159284Y-39408520D01*
X118159286Y-39408521D01*
X118159290Y-39408524D01*
X118244666Y-39457815D01*
X118296216Y-39487577D01*
X118408019Y-39517534D01*
X118448942Y-39528500D01*
X118448943Y-39528500D01*
X127195066Y-39528500D01*
X127262105Y-39548185D01*
X127307860Y-39600989D01*
X127317804Y-39670147D01*
X127309626Y-39699955D01*
X127306912Y-39706505D01*
X127306909Y-39706516D01*
X127278251Y-39850591D01*
X127278251Y-39997510D01*
X127306909Y-40141585D01*
X127306911Y-40141593D01*
X127309876Y-40148750D01*
X127363129Y-40277317D01*
X127363134Y-40277326D01*
X127444749Y-40399470D01*
X127444752Y-40399474D01*
X127548627Y-40503349D01*
X127548631Y-40503352D01*
X127670775Y-40584967D01*
X127670781Y-40584970D01*
X127670782Y-40584971D01*
X127806509Y-40641191D01*
X127924056Y-40664572D01*
X127950591Y-40669850D01*
X127950595Y-40669851D01*
X127950596Y-40669851D01*
X128097507Y-40669851D01*
X128097508Y-40669850D01*
X128241593Y-40641191D01*
X128377320Y-40584971D01*
X128499471Y-40503352D01*
X128603352Y-40399471D01*
X128684971Y-40277320D01*
X128741191Y-40141593D01*
X128769851Y-39997506D01*
X128769851Y-39850596D01*
X128741191Y-39706509D01*
X128738570Y-39700183D01*
X128731099Y-39630717D01*
X128762371Y-39568236D01*
X128787158Y-39547734D01*
X128930262Y-39457816D01*
X129057816Y-39330262D01*
X129153789Y-39177522D01*
X129213368Y-39007255D01*
X129213594Y-39005246D01*
X129214102Y-39004036D01*
X129214917Y-39000468D01*
X129215542Y-39000610D01*
X129240660Y-38940832D01*
X129298254Y-38901276D01*
X129368091Y-38899137D01*
X129424496Y-38931447D01*
X137191181Y-46698132D01*
X137224666Y-46759455D01*
X137227500Y-46785813D01*
X137227500Y-66496531D01*
X137207815Y-66563570D01*
X137191181Y-66584212D01*
X126884212Y-76891181D01*
X126822889Y-76924666D01*
X126796531Y-76927500D01*
X102187046Y-76927500D01*
X102120007Y-76907815D01*
X102099365Y-76891181D01*
X98786187Y-73578003D01*
X99472435Y-73578003D01*
X99492630Y-73757249D01*
X99492631Y-73757254D01*
X99552211Y-73927523D01*
X99641062Y-74068928D01*
X99648184Y-74080262D01*
X99775738Y-74207816D01*
X99815795Y-74232986D01*
X99821866Y-74237055D01*
X100249384Y-74542425D01*
X100264986Y-74555643D01*
X100450352Y-74741009D01*
X100463574Y-74756616D01*
X100768934Y-75184120D01*
X100773025Y-75190222D01*
X100798183Y-75230261D01*
X100811457Y-75243535D01*
X100819892Y-75253094D01*
X100819945Y-75253050D01*
X100822780Y-75256409D01*
X100895868Y-75328093D01*
X100895852Y-75328108D01*
X100897330Y-75329408D01*
X100925738Y-75357816D01*
X101078478Y-75453789D01*
X101248745Y-75513368D01*
X101248750Y-75513369D01*
X101427996Y-75533565D01*
X101428000Y-75533565D01*
X101428004Y-75533565D01*
X101607249Y-75513369D01*
X101607252Y-75513368D01*
X101607255Y-75513368D01*
X101777522Y-75453789D01*
X101930262Y-75357816D01*
X102057816Y-75230262D01*
X102153789Y-75077522D01*
X102213368Y-74907255D01*
X102214148Y-74900336D01*
X102233565Y-74728003D01*
X102233565Y-74727996D01*
X102213369Y-74548750D01*
X102213368Y-74548745D01*
X102153788Y-74378476D01*
X102057815Y-74225737D01*
X101930262Y-74098184D01*
X101890212Y-74073019D01*
X101884110Y-74068928D01*
X101456616Y-73763574D01*
X101441009Y-73750352D01*
X101255643Y-73564986D01*
X101242425Y-73549384D01*
X100937055Y-73121866D01*
X100932980Y-73115787D01*
X100907815Y-73075737D01*
X100894561Y-73062483D01*
X100886154Y-73052955D01*
X100886099Y-73053002D01*
X100883274Y-73049653D01*
X100883266Y-73049645D01*
X100810141Y-72977914D01*
X100810155Y-72977899D01*
X100808675Y-72976597D01*
X100780262Y-72948184D01*
X100627523Y-72852211D01*
X100457254Y-72792631D01*
X100457249Y-72792630D01*
X100278004Y-72772435D01*
X100277996Y-72772435D01*
X100098750Y-72792630D01*
X100098745Y-72792631D01*
X99928476Y-72852211D01*
X99775737Y-72948184D01*
X99648184Y-73075737D01*
X99552211Y-73228476D01*
X99492631Y-73398745D01*
X99492630Y-73398750D01*
X99472435Y-73577996D01*
X99472435Y-73578003D01*
X98786187Y-73578003D01*
X92464819Y-67256635D01*
X92431334Y-67195312D01*
X92428500Y-67168954D01*
X92428500Y-59528003D01*
X94784935Y-59528003D01*
X94805130Y-59707249D01*
X94805131Y-59707254D01*
X94864711Y-59877523D01*
X94960684Y-60030262D01*
X95088238Y-60157816D01*
X95240978Y-60253789D01*
X95411245Y-60313368D01*
X95498169Y-60323161D01*
X95562580Y-60350226D01*
X95571965Y-60358700D01*
X96825732Y-61612467D01*
X96859217Y-61673790D01*
X96861271Y-61686264D01*
X96880743Y-61859088D01*
X96880744Y-61859092D01*
X96940324Y-62029361D01*
X97036297Y-62182100D01*
X97163851Y-62309654D01*
X97316591Y-62405627D01*
X97486858Y-62465206D01*
X97486863Y-62465207D01*
X97666109Y-62485403D01*
X97666113Y-62485403D01*
X97666117Y-62485403D01*
X97845362Y-62465207D01*
X97845365Y-62465206D01*
X97845368Y-62465206D01*
X98015635Y-62405627D01*
X98168375Y-62309654D01*
X98295929Y-62182100D01*
X98391902Y-62029360D01*
X98451481Y-61859093D01*
X98471678Y-61679838D01*
X98468381Y-61650579D01*
X98451482Y-61500588D01*
X98451481Y-61500583D01*
X98391901Y-61330314D01*
X98295928Y-61177575D01*
X98168375Y-61050022D01*
X98015634Y-60954048D01*
X97936550Y-60926376D01*
X97845368Y-60894470D01*
X97845364Y-60894469D01*
X97845363Y-60894469D01*
X97844343Y-60894354D01*
X97843726Y-60894094D01*
X97838572Y-60892918D01*
X97838778Y-60892015D01*
X97779930Y-60867285D01*
X97770550Y-60858815D01*
X96421200Y-59509465D01*
X96387715Y-59448142D01*
X96385663Y-59435686D01*
X96375868Y-59348745D01*
X96368609Y-59328000D01*
X97382427Y-59328000D01*
X97402687Y-59585427D01*
X97462964Y-59836500D01*
X97462968Y-59836512D01*
X97561781Y-60075070D01*
X97561783Y-60075074D01*
X97561784Y-60075075D01*
X97696703Y-60295244D01*
X97864404Y-60491596D01*
X98060756Y-60659297D01*
X98280925Y-60794216D01*
X98280927Y-60794216D01*
X98280929Y-60794218D01*
X98355312Y-60825028D01*
X98519490Y-60893033D01*
X98770576Y-60953313D01*
X99028000Y-60973573D01*
X99285424Y-60953313D01*
X99536510Y-60893033D01*
X99775075Y-60794216D01*
X99995244Y-60659297D01*
X100191596Y-60491596D01*
X100359297Y-60295244D01*
X100494216Y-60075075D01*
X100593033Y-59836510D01*
X100653313Y-59585424D01*
X100673573Y-59328000D01*
X100653313Y-59070576D01*
X100593033Y-58819490D01*
X100524691Y-58654497D01*
X100494218Y-58580929D01*
X100486295Y-58568000D01*
X100359297Y-58360756D01*
X100191596Y-58164404D01*
X99995244Y-57996703D01*
X99775075Y-57861784D01*
X99775074Y-57861783D01*
X99775070Y-57861781D01*
X99573703Y-57778373D01*
X99536510Y-57762967D01*
X99536506Y-57762966D01*
X99536500Y-57762964D01*
X99285427Y-57702687D01*
X99028000Y-57682427D01*
X98770572Y-57702687D01*
X98519499Y-57762964D01*
X98519487Y-57762968D01*
X98280929Y-57861781D01*
X98060755Y-57996703D01*
X97864404Y-58164404D01*
X97696703Y-58360755D01*
X97561781Y-58580929D01*
X97462968Y-58819487D01*
X97462964Y-58819499D01*
X97402687Y-59070572D01*
X97382427Y-59328000D01*
X96368609Y-59328000D01*
X96316289Y-59178478D01*
X96220316Y-59025738D01*
X96092762Y-58898184D01*
X96047806Y-58869936D01*
X95940023Y-58802211D01*
X95769754Y-58742631D01*
X95769749Y-58742630D01*
X95590504Y-58722435D01*
X95590496Y-58722435D01*
X95411250Y-58742630D01*
X95411245Y-58742631D01*
X95240976Y-58802211D01*
X95088237Y-58898184D01*
X94960684Y-59025737D01*
X94864711Y-59178476D01*
X94805131Y-59348745D01*
X94805130Y-59348750D01*
X94784935Y-59527996D01*
X94784935Y-59528003D01*
X92428500Y-59528003D01*
X92428500Y-56562939D01*
X92448185Y-56495900D01*
X92500989Y-56450145D01*
X92570147Y-56440201D01*
X92633703Y-56469226D01*
X92670206Y-56523935D01*
X92717546Y-56666800D01*
X92717551Y-56666811D01*
X92808052Y-56813534D01*
X92808055Y-56813538D01*
X92929961Y-56935444D01*
X92929965Y-56935447D01*
X93076688Y-57025948D01*
X93076699Y-57025953D01*
X93240347Y-57080180D01*
X93341352Y-57090499D01*
X93378000Y-57090499D01*
X93378000Y-56303000D01*
X93878000Y-56303000D01*
X93878000Y-57090499D01*
X93914640Y-57090499D01*
X93914654Y-57090498D01*
X94015652Y-57080180D01*
X94179300Y-57025953D01*
X94179311Y-57025948D01*
X94326034Y-56935447D01*
X94326038Y-56935444D01*
X94447944Y-56813538D01*
X94447947Y-56813534D01*
X94538448Y-56666811D01*
X94538453Y-56666800D01*
X94592680Y-56503152D01*
X94602999Y-56402154D01*
X94603000Y-56402141D01*
X94603000Y-56303000D01*
X93878000Y-56303000D01*
X93378000Y-56303000D01*
X93378000Y-55927000D01*
X93397685Y-55859961D01*
X93450489Y-55814206D01*
X93502000Y-55803000D01*
X94602999Y-55803000D01*
X94602999Y-55703860D01*
X94602998Y-55703845D01*
X94592680Y-55602847D01*
X94538453Y-55439199D01*
X94538448Y-55439188D01*
X94447947Y-55292465D01*
X94447944Y-55292461D01*
X94434017Y-55278534D01*
X94400532Y-55217211D01*
X94405516Y-55147519D01*
X94434015Y-55103174D01*
X94439058Y-55098131D01*
X94500379Y-55064648D01*
X94570071Y-55069632D01*
X94598457Y-55085622D01*
X94598503Y-55085548D01*
X94600380Y-55086705D01*
X94603645Y-55088545D01*
X94604648Y-55089338D01*
X94604650Y-55089340D01*
X94751484Y-55179908D01*
X94915247Y-55234174D01*
X95016323Y-55244500D01*
X95714676Y-55244499D01*
X95714684Y-55244498D01*
X95714687Y-55244498D01*
X95770030Y-55238844D01*
X95815753Y-55234174D01*
X95979516Y-55179908D01*
X96126350Y-55089340D01*
X96140319Y-55075371D01*
X96201642Y-55041886D01*
X96271334Y-55046870D01*
X96315681Y-55075371D01*
X96329650Y-55089340D01*
X96476484Y-55179908D01*
X96640247Y-55234174D01*
X96741323Y-55244500D01*
X97439676Y-55244499D01*
X97439684Y-55244498D01*
X97439687Y-55244498D01*
X97495030Y-55238844D01*
X97540753Y-55234174D01*
X97704516Y-55179908D01*
X97851350Y-55089340D01*
X97973340Y-54967350D01*
X98063908Y-54820516D01*
X98118174Y-54656753D01*
X98123177Y-54607780D01*
X98149573Y-54543089D01*
X98206754Y-54502938D01*
X98276565Y-54500074D01*
X98285506Y-54502667D01*
X98407747Y-54543174D01*
X98508823Y-54553500D01*
X99082176Y-54553499D01*
X99082184Y-54553498D01*
X99082187Y-54553498D01*
X99137530Y-54547844D01*
X99183253Y-54543174D01*
X99347016Y-54488908D01*
X99493850Y-54398340D01*
X99615840Y-54276350D01*
X99706408Y-54129516D01*
X99760674Y-53965753D01*
X99771000Y-53864677D01*
X99770999Y-53166324D01*
X99760674Y-53065247D01*
X99706408Y-52901484D01*
X99615840Y-52754650D01*
X99601871Y-52740681D01*
X99568386Y-52679358D01*
X99573370Y-52609666D01*
X99601871Y-52565319D01*
X99615840Y-52551350D01*
X99706408Y-52404516D01*
X99760674Y-52240753D01*
X99771000Y-52139677D01*
X99770999Y-51981016D01*
X99790683Y-51913979D01*
X99843487Y-51868224D01*
X99912645Y-51858280D01*
X99976201Y-51887305D01*
X99982680Y-51893337D01*
X100023886Y-51934543D01*
X109561453Y-61472111D01*
X109561454Y-61472112D01*
X109676192Y-61548777D01*
X109803667Y-61601578D01*
X109803672Y-61601580D01*
X109803676Y-61601580D01*
X109803677Y-61601581D01*
X109939003Y-61628500D01*
X109939006Y-61628500D01*
X114264496Y-61628500D01*
X114355540Y-61610389D01*
X114399828Y-61601580D01*
X114463569Y-61575177D01*
X114527307Y-61548777D01*
X114527308Y-61548776D01*
X114527311Y-61548775D01*
X114642043Y-61472114D01*
X115174338Y-60939817D01*
X115235661Y-60906333D01*
X115262019Y-60903499D01*
X115544670Y-60903499D01*
X115544676Y-60903499D01*
X115645753Y-60893174D01*
X115809516Y-60838908D01*
X115956350Y-60748340D01*
X116078340Y-60626350D01*
X116168908Y-60479516D01*
X116223174Y-60315753D01*
X116233500Y-60214677D01*
X116233499Y-59641324D01*
X116223174Y-59540247D01*
X116168908Y-59376484D01*
X116139003Y-59328000D01*
X117872929Y-59328000D01*
X117893183Y-59585349D01*
X117953444Y-59836355D01*
X117953444Y-59836356D01*
X118052228Y-60074843D01*
X118052230Y-60074846D01*
X118187111Y-60294951D01*
X118191895Y-60300551D01*
X118832768Y-59659678D01*
X118844497Y-59687995D01*
X118927670Y-59812472D01*
X119033528Y-59918330D01*
X119158005Y-60001503D01*
X119186320Y-60013231D01*
X118545447Y-60654103D01*
X118545447Y-60654104D01*
X118551046Y-60658885D01*
X118551052Y-60658890D01*
X118771153Y-60793769D01*
X118771156Y-60793771D01*
X119009644Y-60892555D01*
X119260650Y-60952816D01*
X119518000Y-60973070D01*
X119775349Y-60952816D01*
X120026355Y-60892555D01*
X120026356Y-60892555D01*
X120264843Y-60793771D01*
X120264846Y-60793769D01*
X120484942Y-60658894D01*
X120490550Y-60654103D01*
X119849678Y-60013231D01*
X119877995Y-60001503D01*
X120002472Y-59918330D01*
X120108330Y-59812472D01*
X120191503Y-59687995D01*
X120203231Y-59659678D01*
X120844103Y-60300550D01*
X120848894Y-60294942D01*
X120983769Y-60074846D01*
X120983771Y-60074843D01*
X121082555Y-59836356D01*
X121082555Y-59836355D01*
X121142816Y-59585349D01*
X121163070Y-59328000D01*
X121142816Y-59070650D01*
X121082555Y-58819644D01*
X121082555Y-58819643D01*
X120983771Y-58581156D01*
X120983769Y-58581153D01*
X120848890Y-58361052D01*
X120848885Y-58361046D01*
X120844103Y-58355447D01*
X120203231Y-58996319D01*
X120191503Y-58968005D01*
X120108330Y-58843528D01*
X120002472Y-58737670D01*
X119877995Y-58654497D01*
X119849679Y-58642768D01*
X120490551Y-58001895D01*
X120490551Y-58001894D01*
X120484951Y-57997111D01*
X120264846Y-57862230D01*
X120264843Y-57862228D01*
X120026355Y-57763444D01*
X119775349Y-57703183D01*
X119518000Y-57682929D01*
X119260650Y-57703183D01*
X119009644Y-57763444D01*
X119009643Y-57763444D01*
X118771156Y-57862228D01*
X118771153Y-57862230D01*
X118551057Y-57997105D01*
X118551052Y-57997109D01*
X118545447Y-58001894D01*
X119186321Y-58642768D01*
X119158005Y-58654497D01*
X119033528Y-58737670D01*
X118927670Y-58843528D01*
X118844497Y-58968005D01*
X118832768Y-58996321D01*
X118191894Y-58355447D01*
X118187109Y-58361052D01*
X118187105Y-58361057D01*
X118052230Y-58581153D01*
X118052228Y-58581156D01*
X117953444Y-58819643D01*
X117953444Y-58819644D01*
X117893183Y-59070650D01*
X117872929Y-59328000D01*
X116139003Y-59328000D01*
X116078340Y-59229650D01*
X115956350Y-59107660D01*
X115956349Y-59107659D01*
X115956346Y-59107656D01*
X115956345Y-59107655D01*
X115954900Y-59106764D01*
X115954117Y-59105893D01*
X115950684Y-59103179D01*
X115951147Y-59102592D01*
X115908177Y-59054815D01*
X115896000Y-59001228D01*
X115896000Y-58530265D01*
X115915685Y-58463226D01*
X115968489Y-58417471D01*
X116006747Y-58406975D01*
X116061483Y-58401091D01*
X116169627Y-58360756D01*
X116196331Y-58350796D01*
X116311546Y-58264546D01*
X116397796Y-58149331D01*
X116448091Y-58014483D01*
X116454500Y-57954873D01*
X116454499Y-57237128D01*
X116448091Y-57177517D01*
X116448086Y-57177505D01*
X116448061Y-57177393D01*
X116448066Y-57177288D01*
X116447262Y-57169803D01*
X116448473Y-57169672D01*
X116451792Y-57107623D01*
X116481051Y-57061182D01*
X116622713Y-56919521D01*
X116622716Y-56919520D01*
X116734520Y-56807716D01*
X116784639Y-56720904D01*
X116813577Y-56670785D01*
X116854500Y-56518058D01*
X116854500Y-56359943D01*
X116854500Y-55306059D01*
X116854501Y-55306046D01*
X116854501Y-55137945D01*
X116854501Y-55137943D01*
X116813577Y-54985215D01*
X116784639Y-54935095D01*
X116734520Y-54848284D01*
X116622716Y-54736480D01*
X116622715Y-54736479D01*
X116618385Y-54732149D01*
X116618374Y-54732139D01*
X116474819Y-54588584D01*
X116441334Y-54527261D01*
X116438500Y-54500903D01*
X116438500Y-43928003D01*
X117648435Y-43928003D01*
X117668630Y-44107249D01*
X117668631Y-44107254D01*
X117728211Y-44277523D01*
X117823077Y-44428500D01*
X117824184Y-44430262D01*
X117951738Y-44557816D01*
X118021385Y-44601578D01*
X118104474Y-44653787D01*
X118104478Y-44653789D01*
X118251202Y-44705130D01*
X118274745Y-44713368D01*
X118274750Y-44713369D01*
X118453996Y-44733565D01*
X118454000Y-44733565D01*
X118454004Y-44733565D01*
X118633249Y-44713369D01*
X118633252Y-44713368D01*
X118633255Y-44713368D01*
X118803522Y-44653789D01*
X118804778Y-44653000D01*
X118813523Y-44647506D01*
X118879494Y-44628500D01*
X122196996Y-44628500D01*
X122288040Y-44610389D01*
X122332328Y-44601580D01*
X122419870Y-44565319D01*
X122459807Y-44548777D01*
X122459808Y-44548776D01*
X122459811Y-44548775D01*
X122574543Y-44472114D01*
X124427288Y-42619366D01*
X124474012Y-42590008D01*
X124577522Y-42553789D01*
X124730262Y-42457816D01*
X124857816Y-42330262D01*
X124953789Y-42177522D01*
X125013368Y-42007255D01*
X125013369Y-42007249D01*
X125033565Y-41828003D01*
X125033565Y-41827996D01*
X125013369Y-41648750D01*
X125013368Y-41648745D01*
X124993241Y-41591226D01*
X124953789Y-41478478D01*
X124857816Y-41325738D01*
X124730262Y-41198184D01*
X124697377Y-41177521D01*
X124577523Y-41102211D01*
X124407254Y-41042631D01*
X124407249Y-41042630D01*
X124228004Y-41022435D01*
X124227996Y-41022435D01*
X124048750Y-41042630D01*
X124048745Y-41042631D01*
X123878476Y-41102211D01*
X123725737Y-41198184D01*
X123598184Y-41325737D01*
X123502212Y-41478475D01*
X123502211Y-41478476D01*
X123465991Y-41581986D01*
X123436631Y-41628711D01*
X121874162Y-43191181D01*
X121812839Y-43224666D01*
X121786481Y-43227500D01*
X118879494Y-43227500D01*
X118813523Y-43208494D01*
X118803525Y-43202212D01*
X118633254Y-43142631D01*
X118633249Y-43142630D01*
X118454004Y-43122435D01*
X118453996Y-43122435D01*
X118274750Y-43142630D01*
X118274745Y-43142631D01*
X118104476Y-43202211D01*
X117951737Y-43298184D01*
X117824184Y-43425737D01*
X117728211Y-43578476D01*
X117668631Y-43748745D01*
X117668630Y-43748750D01*
X117648435Y-43927996D01*
X117648435Y-43928003D01*
X116438500Y-43928003D01*
X116438500Y-37618097D01*
X116458185Y-37551058D01*
X116474819Y-37530416D01*
X116808178Y-37197057D01*
X117207719Y-36797515D01*
X117269040Y-36764032D01*
X117338731Y-36769016D01*
G37*
%TD.AperFunction*%
%TA.AperFunction,Conductor*%
G36*
X117194942Y-33948185D02*
G01*
X117215584Y-33964819D01*
X117352867Y-34102102D01*
X117386352Y-34163425D01*
X117381368Y-34233117D01*
X117339496Y-34289050D01*
X117331165Y-34294772D01*
X117325745Y-34298177D01*
X117325739Y-34298182D01*
X117198184Y-34425737D01*
X117102211Y-34578478D01*
X117102206Y-34578487D01*
X117097520Y-34591880D01*
X117068162Y-34638600D01*
X115069286Y-36637478D01*
X114957481Y-36749282D01*
X114957477Y-36749287D01*
X114939628Y-36780205D01*
X114934714Y-36788717D01*
X114878423Y-36886215D01*
X114837499Y-37038943D01*
X114837499Y-37038945D01*
X114837499Y-37207046D01*
X114837500Y-37207059D01*
X114837500Y-54928241D01*
X114817815Y-54995280D01*
X114765011Y-55041035D01*
X114756833Y-55044423D01*
X114679671Y-55073202D01*
X114679664Y-55073206D01*
X114564455Y-55159452D01*
X114564452Y-55159455D01*
X114478206Y-55274664D01*
X114478203Y-55274669D01*
X114448915Y-55353195D01*
X114407043Y-55409128D01*
X114341579Y-55433545D01*
X114273306Y-55418693D01*
X114223901Y-55369288D01*
X114216551Y-55353194D01*
X114187354Y-55274913D01*
X114187350Y-55274906D01*
X114101190Y-55159812D01*
X114101187Y-55159809D01*
X113986093Y-55073649D01*
X113986086Y-55073645D01*
X113851379Y-55023403D01*
X113851372Y-55023401D01*
X113791844Y-55017000D01*
X113478000Y-55017000D01*
X113478000Y-55404000D01*
X113458315Y-55471039D01*
X113405511Y-55516794D01*
X113354000Y-55528000D01*
X113102000Y-55528000D01*
X113034961Y-55508315D01*
X112989206Y-55455511D01*
X112978000Y-55404000D01*
X112978000Y-55017000D01*
X112664155Y-55017000D01*
X112604627Y-55023401D01*
X112604620Y-55023403D01*
X112469913Y-55073645D01*
X112469906Y-55073649D01*
X112354812Y-55159809D01*
X112354809Y-55159812D01*
X112268649Y-55274906D01*
X112268645Y-55274913D01*
X112218403Y-55409620D01*
X112218401Y-55409627D01*
X112212000Y-55469155D01*
X112212000Y-55578000D01*
X112604000Y-55578000D01*
X112671039Y-55597685D01*
X112716794Y-55650489D01*
X112728000Y-55702000D01*
X112728000Y-55954000D01*
X112708315Y-56021039D01*
X112655511Y-56066794D01*
X112604000Y-56078000D01*
X112212000Y-56078000D01*
X112212000Y-56186844D01*
X112218401Y-56246372D01*
X112218403Y-56246382D01*
X112222427Y-56257170D01*
X112227409Y-56326862D01*
X112222427Y-56343830D01*
X112218403Y-56354617D01*
X112218401Y-56354627D01*
X112212000Y-56414155D01*
X112212000Y-56462000D01*
X112604000Y-56462000D01*
X112671039Y-56481685D01*
X112716794Y-56534489D01*
X112728000Y-56586000D01*
X112728000Y-56838000D01*
X112708315Y-56905039D01*
X112655511Y-56950794D01*
X112604000Y-56962000D01*
X112212000Y-56962000D01*
X112212000Y-57009844D01*
X112218401Y-57069372D01*
X112218403Y-57069382D01*
X112222427Y-57080170D01*
X112227409Y-57149862D01*
X112222427Y-57166830D01*
X112218403Y-57177617D01*
X112218401Y-57177627D01*
X112212000Y-57237155D01*
X112212000Y-57346000D01*
X112604000Y-57346000D01*
X112671039Y-57365685D01*
X112716794Y-57418489D01*
X112728000Y-57470000D01*
X112728000Y-57722000D01*
X112708315Y-57789039D01*
X112655511Y-57834794D01*
X112604000Y-57846000D01*
X112212000Y-57846000D01*
X112212000Y-57954844D01*
X112218401Y-58014372D01*
X112218403Y-58014379D01*
X112268645Y-58149086D01*
X112268649Y-58149093D01*
X112354809Y-58264187D01*
X112354812Y-58264190D01*
X112469906Y-58350350D01*
X112469913Y-58350354D01*
X112604620Y-58400596D01*
X112604627Y-58400598D01*
X112664155Y-58406999D01*
X112664172Y-58407000D01*
X112978000Y-58407000D01*
X112978000Y-58052000D01*
X112997685Y-57984961D01*
X113050489Y-57939206D01*
X113102000Y-57928000D01*
X113354000Y-57928000D01*
X113421039Y-57947685D01*
X113466794Y-58000489D01*
X113478000Y-58052000D01*
X113478000Y-58407000D01*
X113791828Y-58407000D01*
X113791844Y-58406999D01*
X113851372Y-58400598D01*
X113851379Y-58400596D01*
X113986086Y-58350354D01*
X113986093Y-58350350D01*
X114101187Y-58264190D01*
X114101190Y-58264187D01*
X114187350Y-58149093D01*
X114187355Y-58149084D01*
X114216551Y-58070805D01*
X114258421Y-58014871D01*
X114323885Y-57990453D01*
X114392158Y-58005304D01*
X114441564Y-58054709D01*
X114448914Y-58070802D01*
X114478204Y-58149331D01*
X114478207Y-58149335D01*
X114479833Y-58152313D01*
X114480951Y-58156693D01*
X114481304Y-58157640D01*
X114481202Y-58157677D01*
X114495000Y-58211739D01*
X114495000Y-59001228D01*
X114475315Y-59068267D01*
X114440071Y-59102868D01*
X114440317Y-59103179D01*
X114437431Y-59105460D01*
X114436107Y-59106761D01*
X114434651Y-59107659D01*
X114434648Y-59107661D01*
X114420325Y-59121984D01*
X114359001Y-59155468D01*
X114289309Y-59150482D01*
X114244965Y-59121982D01*
X114231038Y-59108055D01*
X114231034Y-59108052D01*
X114084311Y-59017551D01*
X114084300Y-59017546D01*
X113920652Y-58963319D01*
X113819654Y-58953000D01*
X113720500Y-58953000D01*
X113720500Y-60054000D01*
X113700815Y-60121039D01*
X113648011Y-60166794D01*
X113596500Y-60178000D01*
X112433001Y-60178000D01*
X112419820Y-60191181D01*
X112358497Y-60224666D01*
X112332139Y-60227500D01*
X110349519Y-60227500D01*
X110282480Y-60207815D01*
X110261838Y-60191181D01*
X109748657Y-59678000D01*
X112433000Y-59678000D01*
X113220500Y-59678000D01*
X113220500Y-58952999D01*
X113121360Y-58953000D01*
X113121344Y-58953001D01*
X113020347Y-58963319D01*
X112856699Y-59017546D01*
X112856688Y-59017551D01*
X112709965Y-59108052D01*
X112709961Y-59108055D01*
X112588055Y-59229961D01*
X112588052Y-59229965D01*
X112497551Y-59376688D01*
X112497546Y-59376699D01*
X112443319Y-59540347D01*
X112433000Y-59641345D01*
X112433000Y-59678000D01*
X109748657Y-59678000D01*
X101646338Y-51575681D01*
X101612853Y-51514358D01*
X101617837Y-51444666D01*
X101646337Y-51400319D01*
X101672114Y-51374543D01*
X101748775Y-51259811D01*
X101801580Y-51132328D01*
X101828500Y-50996994D01*
X101828500Y-50859006D01*
X101828500Y-50622552D01*
X101848185Y-50555513D01*
X101864819Y-50534871D01*
X101948340Y-50451350D01*
X102038908Y-50304516D01*
X102093174Y-50140753D01*
X102103500Y-50039677D01*
X102103499Y-49441324D01*
X102093174Y-49340247D01*
X102038908Y-49176484D01*
X101948340Y-49029650D01*
X101834371Y-48915681D01*
X101800886Y-48854358D01*
X101805870Y-48784666D01*
X101834371Y-48740319D01*
X101886864Y-48687826D01*
X101948340Y-48626350D01*
X102038908Y-48479516D01*
X102093174Y-48315753D01*
X102103500Y-48214677D01*
X102103499Y-47616324D01*
X102100560Y-47587556D01*
X102093174Y-47515247D01*
X102047263Y-47376699D01*
X102038908Y-47351484D01*
X101948340Y-47204650D01*
X101826350Y-47082660D01*
X101720792Y-47017551D01*
X101679518Y-46992093D01*
X101679513Y-46992091D01*
X101678069Y-46991612D01*
X101515753Y-46937826D01*
X101515751Y-46937825D01*
X101414684Y-46927500D01*
X100952500Y-46927500D01*
X100885461Y-46907815D01*
X100839706Y-46855011D01*
X100828500Y-46803500D01*
X100828500Y-46239126D01*
X100848185Y-46172087D01*
X100864819Y-46151445D01*
X107251446Y-39764819D01*
X107312769Y-39731334D01*
X107339127Y-39728500D01*
X109834921Y-39728500D01*
X109901960Y-39748185D01*
X109947715Y-39800989D01*
X109957659Y-39870147D01*
X109939915Y-39918472D01*
X109902211Y-39978476D01*
X109842631Y-40148745D01*
X109842630Y-40148750D01*
X109822435Y-40327996D01*
X109822435Y-40328003D01*
X109842630Y-40507249D01*
X109842631Y-40507254D01*
X109902211Y-40677523D01*
X109946630Y-40748214D01*
X109996760Y-40827996D01*
X109998185Y-40830263D01*
X110000445Y-40833097D01*
X110001334Y-40835275D01*
X110001889Y-40836158D01*
X110001734Y-40836255D01*
X110026855Y-40897783D01*
X110027500Y-40910412D01*
X110027500Y-44045587D01*
X110007815Y-44112626D01*
X110000450Y-44122896D01*
X109998186Y-44125734D01*
X109902211Y-44278476D01*
X109842631Y-44448745D01*
X109842630Y-44448750D01*
X109822435Y-44627996D01*
X109822435Y-44628003D01*
X109842630Y-44807249D01*
X109842631Y-44807254D01*
X109902211Y-44977523D01*
X109980193Y-45101629D01*
X109998184Y-45130262D01*
X110125738Y-45257816D01*
X110278478Y-45353789D01*
X110448745Y-45413368D01*
X110448750Y-45413369D01*
X110627996Y-45433565D01*
X110628000Y-45433565D01*
X110628004Y-45433565D01*
X110807249Y-45413369D01*
X110807252Y-45413368D01*
X110807255Y-45413368D01*
X110977522Y-45353789D01*
X111130262Y-45257816D01*
X111257816Y-45130262D01*
X111353789Y-44977522D01*
X111413368Y-44807255D01*
X111421773Y-44732660D01*
X111433565Y-44628003D01*
X111433565Y-44627996D01*
X111413369Y-44448750D01*
X111413368Y-44448745D01*
X111407276Y-44431334D01*
X111353789Y-44278478D01*
X111353188Y-44277522D01*
X111257813Y-44125734D01*
X111255550Y-44122896D01*
X111254659Y-44120715D01*
X111254111Y-44119842D01*
X111254264Y-44119745D01*
X111229144Y-44058209D01*
X111228500Y-44045587D01*
X111228500Y-40910412D01*
X111248185Y-40843373D01*
X111255555Y-40833097D01*
X111257810Y-40830267D01*
X111257816Y-40830262D01*
X111353789Y-40677522D01*
X111413368Y-40507255D01*
X111413808Y-40503349D01*
X111433565Y-40328003D01*
X111433565Y-40327996D01*
X111413369Y-40148750D01*
X111413368Y-40148745D01*
X111374138Y-40036632D01*
X111353789Y-39978478D01*
X111257816Y-39825738D01*
X111247759Y-39815681D01*
X111214274Y-39754358D01*
X111219258Y-39684666D01*
X111247759Y-39640319D01*
X111257816Y-39630262D01*
X111353789Y-39477522D01*
X111413368Y-39307255D01*
X111419392Y-39253789D01*
X111433565Y-39128003D01*
X111433565Y-39127996D01*
X111413369Y-38948750D01*
X111413368Y-38948745D01*
X111407315Y-38931447D01*
X111353789Y-38778478D01*
X111257816Y-38625738D01*
X111130262Y-38498184D01*
X111098897Y-38478476D01*
X110977523Y-38402211D01*
X110807254Y-38342631D01*
X110807249Y-38342630D01*
X110628004Y-38322435D01*
X110627996Y-38322435D01*
X110448750Y-38342630D01*
X110448745Y-38342631D01*
X110278476Y-38402211D01*
X110125736Y-38498185D01*
X110122903Y-38500445D01*
X110120724Y-38501334D01*
X110119842Y-38501889D01*
X110119744Y-38501734D01*
X110058217Y-38526855D01*
X110045588Y-38527500D01*
X107849843Y-38527500D01*
X107782804Y-38507815D01*
X107737049Y-38455011D01*
X107726623Y-38389617D01*
X107733565Y-38328003D01*
X107733565Y-38327996D01*
X107713369Y-38148750D01*
X107713368Y-38148745D01*
X107676157Y-38042403D01*
X107653789Y-37978478D01*
X107557816Y-37825738D01*
X107430262Y-37698184D01*
X107397377Y-37677521D01*
X107277521Y-37602210D01*
X107107249Y-37542630D01*
X107020330Y-37532837D01*
X106955916Y-37505770D01*
X106946533Y-37497298D01*
X105715590Y-36266355D01*
X105715588Y-36266352D01*
X105596717Y-36147481D01*
X105596716Y-36147480D01*
X105509904Y-36097360D01*
X105509904Y-36097359D01*
X105509900Y-36097358D01*
X105459785Y-36068423D01*
X105307057Y-36027499D01*
X105148943Y-36027499D01*
X105141347Y-36027499D01*
X105141331Y-36027500D01*
X100304568Y-36027500D01*
X100237529Y-36007815D01*
X100191774Y-35955011D01*
X100181830Y-35885853D01*
X100210855Y-35822297D01*
X100216887Y-35815819D01*
X100667887Y-35364819D01*
X100729210Y-35331334D01*
X100755568Y-35328500D01*
X109845588Y-35328500D01*
X109912627Y-35348185D01*
X109922903Y-35355555D01*
X109925736Y-35357814D01*
X109925738Y-35357816D01*
X110078478Y-35453789D01*
X110248745Y-35513368D01*
X110248750Y-35513369D01*
X110427996Y-35533565D01*
X110428000Y-35533565D01*
X110428004Y-35533565D01*
X110607249Y-35513369D01*
X110607252Y-35513368D01*
X110607255Y-35513368D01*
X110777522Y-35453789D01*
X110930262Y-35357816D01*
X110940319Y-35347759D01*
X111001642Y-35314274D01*
X111071334Y-35319258D01*
X111115681Y-35347759D01*
X111125738Y-35357816D01*
X111278478Y-35453789D01*
X111448745Y-35513368D01*
X111448750Y-35513369D01*
X111627996Y-35533565D01*
X111628000Y-35533565D01*
X111628004Y-35533565D01*
X111807249Y-35513369D01*
X111807252Y-35513368D01*
X111807255Y-35513368D01*
X111977522Y-35453789D01*
X112130262Y-35357816D01*
X112257816Y-35230262D01*
X112353789Y-35077522D01*
X112413368Y-34907255D01*
X112413369Y-34907249D01*
X112433565Y-34728003D01*
X112433565Y-34727996D01*
X112413369Y-34548750D01*
X112413368Y-34548745D01*
X112370326Y-34425738D01*
X112353789Y-34378478D01*
X112257816Y-34225738D01*
X112172259Y-34140181D01*
X112138774Y-34078858D01*
X112143758Y-34009166D01*
X112185630Y-33953233D01*
X112251094Y-33928816D01*
X112259940Y-33928500D01*
X117127903Y-33928500D01*
X117194942Y-33948185D01*
G37*
%TD.AperFunction*%
%TA.AperFunction,Conductor*%
G36*
X92626811Y-52390305D02*
G01*
X92735664Y-52471793D01*
X92735671Y-52471797D01*
X92780618Y-52488561D01*
X92870517Y-52522091D01*
X92930127Y-52528500D01*
X93325872Y-52528499D01*
X93334711Y-52527548D01*
X93367094Y-52524068D01*
X93393606Y-52524068D01*
X93430166Y-52527999D01*
X93430182Y-52528000D01*
X93478000Y-52528000D01*
X93493611Y-52512388D01*
X93497685Y-52498515D01*
X93527686Y-52466289D01*
X93579690Y-52427359D01*
X93645154Y-52402943D01*
X93713426Y-52417795D01*
X93762832Y-52467200D01*
X93778000Y-52526627D01*
X93778000Y-52528000D01*
X93825821Y-52528000D01*
X93825831Y-52527999D01*
X93864742Y-52523815D01*
X93891258Y-52523815D01*
X93930168Y-52527999D01*
X93930179Y-52528000D01*
X93953500Y-52528000D01*
X94020539Y-52547685D01*
X94066294Y-52600489D01*
X94077500Y-52652000D01*
X94077500Y-52881402D01*
X94057815Y-52948441D01*
X94041181Y-52969083D01*
X93756582Y-53253681D01*
X93695259Y-53287166D01*
X93668901Y-53290000D01*
X93341331Y-53290000D01*
X93341312Y-53290001D01*
X93240247Y-53300325D01*
X93076484Y-53354592D01*
X93076481Y-53354593D01*
X92929648Y-53445161D01*
X92807661Y-53567148D01*
X92717093Y-53713981D01*
X92717091Y-53713986D01*
X92670206Y-53855476D01*
X92630433Y-53912921D01*
X92565917Y-53939744D01*
X92497141Y-53927429D01*
X92445942Y-53879886D01*
X92428500Y-53816472D01*
X92428500Y-52489571D01*
X92448185Y-52422532D01*
X92500989Y-52376777D01*
X92570147Y-52366833D01*
X92626811Y-52390305D01*
G37*
%TD.AperFunction*%
%TA.AperFunction,Conductor*%
G36*
X96857520Y-44448185D02*
G01*
X96878162Y-44464819D01*
X98936181Y-46522838D01*
X98969666Y-46584161D01*
X98972500Y-46610519D01*
X98972500Y-48116500D01*
X98952815Y-48183539D01*
X98900011Y-48229294D01*
X98848500Y-48240500D01*
X97820501Y-48240500D01*
X97820501Y-48339657D01*
X97825768Y-48391209D01*
X97812998Y-48459902D01*
X97765117Y-48510786D01*
X97697327Y-48527706D01*
X97661457Y-48520852D01*
X97652250Y-48517630D01*
X97652252Y-48517630D01*
X97565331Y-48507837D01*
X97500917Y-48480770D01*
X97491534Y-48472298D01*
X97441717Y-48422481D01*
X97441716Y-48422480D01*
X97354904Y-48372360D01*
X97354904Y-48372358D01*
X97354899Y-48372357D01*
X97314997Y-48349318D01*
X97266783Y-48298750D01*
X97253000Y-48241933D01*
X97253000Y-48205172D01*
X97252999Y-48205155D01*
X97246598Y-48145627D01*
X97246596Y-48145620D01*
X97196354Y-48010913D01*
X97196350Y-48010906D01*
X97110190Y-47895812D01*
X97110187Y-47895809D01*
X96995093Y-47809649D01*
X96995086Y-47809645D01*
X96860379Y-47759403D01*
X96860372Y-47759401D01*
X96800844Y-47753000D01*
X96467873Y-47753000D01*
X96428855Y-47774305D01*
X96359163Y-47769319D01*
X96320667Y-47740500D01*
X97820500Y-47740500D01*
X98545500Y-47740500D01*
X98545500Y-46953000D01*
X98508861Y-46953000D01*
X98508843Y-46953001D01*
X98407847Y-46963319D01*
X98244199Y-47017546D01*
X98244188Y-47017551D01*
X98097465Y-47108052D01*
X98097461Y-47108055D01*
X97975555Y-47229961D01*
X97975552Y-47229965D01*
X97885051Y-47376688D01*
X97885046Y-47376699D01*
X97830819Y-47540347D01*
X97820500Y-47641345D01*
X97820500Y-47740500D01*
X96320667Y-47740500D01*
X96303230Y-47727446D01*
X96278815Y-47661981D01*
X96278499Y-47653138D01*
X96278499Y-47230129D01*
X96278498Y-47230123D01*
X96278497Y-47230116D01*
X96272091Y-47170517D01*
X96257751Y-47132070D01*
X96221797Y-47035671D01*
X96221795Y-47035668D01*
X96218503Y-47031271D01*
X96189174Y-46992092D01*
X96173480Y-46971127D01*
X96149063Y-46905663D01*
X96155706Y-46855861D01*
X96158368Y-46848255D01*
X96165183Y-46787771D01*
X96178565Y-46669003D01*
X96178565Y-46668997D01*
X96165209Y-46550463D01*
X96177263Y-46481641D01*
X96223331Y-46431041D01*
X96276350Y-46398340D01*
X96398340Y-46276350D01*
X96488908Y-46129516D01*
X96543174Y-45965753D01*
X96553500Y-45864677D01*
X96553499Y-45266324D01*
X96543174Y-45165247D01*
X96488908Y-45001484D01*
X96398340Y-44854650D01*
X96284371Y-44740681D01*
X96250886Y-44679358D01*
X96255870Y-44609666D01*
X96284371Y-44565319D01*
X96384871Y-44464819D01*
X96446194Y-44431334D01*
X96472552Y-44428500D01*
X96790481Y-44428500D01*
X96857520Y-44448185D01*
G37*
%TD.AperFunction*%
%TA.AperFunction,Conductor*%
G36*
X104994942Y-37248185D02*
G01*
X105015584Y-37264819D01*
X106097298Y-38346533D01*
X106130783Y-38407856D01*
X106132837Y-38420330D01*
X106142630Y-38507249D01*
X106202210Y-38677521D01*
X106298184Y-38830262D01*
X106305176Y-38837254D01*
X106338661Y-38898577D01*
X106333677Y-38968269D01*
X106305176Y-39012616D01*
X100478084Y-44839707D01*
X100416761Y-44873192D01*
X100347069Y-44868208D01*
X100324431Y-44857020D01*
X100177523Y-44764711D01*
X100007254Y-44705131D01*
X100007249Y-44705130D01*
X99828004Y-44684935D01*
X99827996Y-44684935D01*
X99648750Y-44705130D01*
X99648745Y-44705131D01*
X99478476Y-44764711D01*
X99366235Y-44835238D01*
X99298998Y-44854238D01*
X99232163Y-44833870D01*
X99212582Y-44817925D01*
X97578546Y-43183888D01*
X97578545Y-43183887D01*
X97463807Y-43107222D01*
X97336332Y-43054421D01*
X97336322Y-43054418D01*
X97200996Y-43027500D01*
X97200994Y-43027500D01*
X97200993Y-43027500D01*
X96538576Y-43027500D01*
X96471537Y-43007815D01*
X96425782Y-42955011D01*
X96415356Y-42889617D01*
X96433565Y-42728003D01*
X96433565Y-42727996D01*
X96413369Y-42548750D01*
X96413368Y-42548745D01*
X96411541Y-42543525D01*
X96353789Y-42378478D01*
X96257816Y-42225738D01*
X96257814Y-42225736D01*
X96257813Y-42225734D01*
X96255550Y-42222896D01*
X96254659Y-42220715D01*
X96254111Y-42219842D01*
X96254264Y-42219745D01*
X96229144Y-42158209D01*
X96228500Y-42145587D01*
X96228500Y-40828003D01*
X100422435Y-40828003D01*
X100442630Y-41007249D01*
X100442631Y-41007254D01*
X100502211Y-41177523D01*
X100593156Y-41322260D01*
X100598184Y-41330262D01*
X100725738Y-41457816D01*
X100878478Y-41553789D01*
X100985461Y-41591224D01*
X101048745Y-41613368D01*
X101048750Y-41613369D01*
X101227996Y-41633565D01*
X101228000Y-41633565D01*
X101228004Y-41633565D01*
X101407249Y-41613369D01*
X101407252Y-41613368D01*
X101407255Y-41613368D01*
X101577522Y-41553789D01*
X101730262Y-41457816D01*
X101857816Y-41330262D01*
X101953789Y-41177522D01*
X101990007Y-41074013D01*
X102019365Y-41027290D01*
X103427290Y-39619365D01*
X103474013Y-39590007D01*
X103577522Y-39553789D01*
X103730262Y-39457816D01*
X103857816Y-39330262D01*
X103953789Y-39177522D01*
X104013368Y-39007255D01*
X104013369Y-39007249D01*
X104033565Y-38828003D01*
X104033565Y-38827996D01*
X104013369Y-38648750D01*
X104013368Y-38648745D01*
X104006357Y-38628709D01*
X103953789Y-38478478D01*
X103940900Y-38457966D01*
X103868431Y-38342632D01*
X103857816Y-38325738D01*
X103730262Y-38198184D01*
X103688505Y-38171946D01*
X103577523Y-38102211D01*
X103407254Y-38042631D01*
X103407249Y-38042630D01*
X103228004Y-38022435D01*
X103227996Y-38022435D01*
X103048750Y-38042630D01*
X103048745Y-38042631D01*
X102878476Y-38102211D01*
X102725737Y-38198184D01*
X102598184Y-38325737D01*
X102502212Y-38478475D01*
X102502211Y-38478476D01*
X102465992Y-38581984D01*
X102436632Y-38628709D01*
X101028709Y-40036632D01*
X100981984Y-40065992D01*
X100878476Y-40102211D01*
X100878475Y-40102212D01*
X100725737Y-40198184D01*
X100598184Y-40325737D01*
X100502211Y-40478476D01*
X100442631Y-40648745D01*
X100442630Y-40648750D01*
X100422435Y-40827996D01*
X100422435Y-40828003D01*
X96228500Y-40828003D01*
X96228500Y-39855568D01*
X96248185Y-39788529D01*
X96264819Y-39767887D01*
X97155184Y-38877522D01*
X98053916Y-37978789D01*
X98115237Y-37945306D01*
X98184929Y-37950290D01*
X98207567Y-37961479D01*
X98354473Y-38053787D01*
X98354477Y-38053788D01*
X98354478Y-38053789D01*
X98492860Y-38102211D01*
X98524745Y-38113368D01*
X98524750Y-38113369D01*
X98703996Y-38133565D01*
X98704000Y-38133565D01*
X98704004Y-38133565D01*
X98883249Y-38113369D01*
X98883252Y-38113368D01*
X98883255Y-38113368D01*
X99053522Y-38053789D01*
X99206262Y-37957816D01*
X99333816Y-37830262D01*
X99429789Y-37677522D01*
X99489368Y-37507255D01*
X99499161Y-37420329D01*
X99526226Y-37355919D01*
X99534701Y-37346533D01*
X99616418Y-37264818D01*
X99677741Y-37231333D01*
X99704098Y-37228500D01*
X104927903Y-37228500D01*
X104994942Y-37248185D01*
G37*
%TD.AperFunction*%
%TA.AperFunction,Conductor*%
G36*
X118572216Y-28151002D02*
G01*
X119583957Y-28318832D01*
X119588383Y-28319649D01*
X120639912Y-28533808D01*
X120644241Y-28534772D01*
X121687251Y-28787192D01*
X121691551Y-28788317D01*
X122724625Y-29078655D01*
X122728918Y-29079947D01*
X123750674Y-29407814D01*
X123754895Y-29409254D01*
X124764019Y-29774227D01*
X124768206Y-29775828D01*
X125763349Y-30177422D01*
X125767443Y-30179163D01*
X126747196Y-30616808D01*
X126751268Y-30618716D01*
X127135057Y-30807254D01*
X127714376Y-31091847D01*
X127718405Y-31093918D01*
X128663589Y-31601907D01*
X128667539Y-31604124D01*
X128732040Y-31641889D01*
X129593552Y-32146302D01*
X129597389Y-32148644D01*
X130473910Y-32705800D01*
X130502950Y-32724259D01*
X130506718Y-32726751D01*
X131126204Y-33153068D01*
X131390700Y-33335088D01*
X131394383Y-33337724D01*
X132255496Y-33977894D01*
X132259081Y-33980662D01*
X133096254Y-34651867D01*
X133099736Y-34654764D01*
X133184539Y-34728000D01*
X133869181Y-35319258D01*
X133911868Y-35356122D01*
X133915233Y-35359138D01*
X134700411Y-36088947D01*
X134701182Y-36089664D01*
X134704443Y-36092808D01*
X135463191Y-36851556D01*
X135466335Y-36854817D01*
X136128674Y-37567406D01*
X136196854Y-37640758D01*
X136199872Y-37644126D01*
X136290389Y-37748939D01*
X136901235Y-38456263D01*
X136904132Y-38459745D01*
X137575337Y-39296918D01*
X137578105Y-39300503D01*
X138218275Y-40161616D01*
X138220911Y-40165299D01*
X138829241Y-41049271D01*
X138831740Y-41053049D01*
X139407346Y-41958596D01*
X139409706Y-41962462D01*
X139951875Y-42888460D01*
X139954092Y-42892410D01*
X140462081Y-43837594D01*
X140464152Y-43841623D01*
X140937276Y-44804717D01*
X140939198Y-44808818D01*
X141012629Y-44973208D01*
X141356742Y-45743572D01*
X141376820Y-45788519D01*
X141378587Y-45792677D01*
X141462716Y-46001145D01*
X141780162Y-46787771D01*
X141781780Y-46792002D01*
X142146734Y-47801071D01*
X142148196Y-47805358D01*
X142476045Y-48827059D01*
X142477350Y-48831396D01*
X142767671Y-49864407D01*
X142768816Y-49868786D01*
X143008460Y-50859006D01*
X143021216Y-50911712D01*
X143022201Y-50916133D01*
X143236347Y-51967602D01*
X143237169Y-51972056D01*
X143412761Y-53030589D01*
X143413421Y-53035070D01*
X143550244Y-54099367D01*
X143550739Y-54103869D01*
X143648596Y-55172410D01*
X143648927Y-55176928D01*
X143707695Y-56248368D01*
X143707860Y-56252894D01*
X143727458Y-57325735D01*
X143727458Y-57330265D01*
X143707860Y-58403105D01*
X143707695Y-58407631D01*
X143648927Y-59479071D01*
X143648596Y-59483589D01*
X143550739Y-60552130D01*
X143550244Y-60556632D01*
X143413421Y-61620929D01*
X143412761Y-61625410D01*
X143237169Y-62683943D01*
X143236347Y-62688397D01*
X143022201Y-63739866D01*
X143021216Y-63744287D01*
X142768817Y-64787209D01*
X142767671Y-64791592D01*
X142477350Y-65824603D01*
X142476045Y-65828940D01*
X142148196Y-66850641D01*
X142146734Y-66854928D01*
X141781780Y-67863997D01*
X141780162Y-67868228D01*
X141378592Y-68863312D01*
X141376820Y-68867480D01*
X140939198Y-69847181D01*
X140937276Y-69851282D01*
X140464152Y-70814376D01*
X140462081Y-70818405D01*
X139954092Y-71763589D01*
X139951875Y-71767539D01*
X139409706Y-72693537D01*
X139407346Y-72697403D01*
X138831740Y-73602950D01*
X138829241Y-73606728D01*
X138220911Y-74490700D01*
X138218275Y-74494383D01*
X137578105Y-75355496D01*
X137575337Y-75359081D01*
X136904132Y-76196254D01*
X136901235Y-76199736D01*
X136199877Y-77011868D01*
X136196854Y-77015241D01*
X135466335Y-77801182D01*
X135463191Y-77804443D01*
X134704443Y-78563191D01*
X134701182Y-78566335D01*
X133915241Y-79296854D01*
X133911868Y-79299877D01*
X133099736Y-80001235D01*
X133096254Y-80004132D01*
X132259081Y-80675337D01*
X132255496Y-80678105D01*
X131394383Y-81318275D01*
X131390700Y-81320911D01*
X130506728Y-81929241D01*
X130502950Y-81931740D01*
X129597403Y-82507346D01*
X129593537Y-82509706D01*
X128667539Y-83051875D01*
X128663589Y-83054092D01*
X127718405Y-83562081D01*
X127714376Y-83564152D01*
X126751282Y-84037276D01*
X126747181Y-84039198D01*
X125767480Y-84476820D01*
X125763312Y-84478592D01*
X124768228Y-84880162D01*
X124763997Y-84881780D01*
X123754928Y-85246734D01*
X123750641Y-85248196D01*
X122728940Y-85576045D01*
X122724603Y-85577350D01*
X121691592Y-85867671D01*
X121687209Y-85868817D01*
X120644287Y-86121216D01*
X120639866Y-86122201D01*
X119588397Y-86336347D01*
X119583943Y-86337169D01*
X118525410Y-86512761D01*
X118520929Y-86513421D01*
X117456632Y-86650244D01*
X117452130Y-86650739D01*
X116383589Y-86748596D01*
X116379071Y-86748927D01*
X115307631Y-86807695D01*
X115303105Y-86807860D01*
X114230265Y-86827458D01*
X114225735Y-86827458D01*
X113152894Y-86807860D01*
X113148368Y-86807695D01*
X112076928Y-86748927D01*
X112072410Y-86748596D01*
X111003869Y-86650739D01*
X110999367Y-86650244D01*
X109935070Y-86513421D01*
X109930589Y-86512761D01*
X108872056Y-86337169D01*
X108867602Y-86336347D01*
X107816133Y-86122201D01*
X107811712Y-86121216D01*
X107542402Y-86056040D01*
X106768786Y-85868816D01*
X106764407Y-85867671D01*
X105778186Y-85590500D01*
X111487001Y-85590500D01*
X111487001Y-85639654D01*
X111497319Y-85740652D01*
X111551546Y-85904300D01*
X111551551Y-85904311D01*
X111642052Y-86051034D01*
X111642055Y-86051038D01*
X111763961Y-86172944D01*
X111763965Y-86172947D01*
X111910688Y-86263448D01*
X111910699Y-86263453D01*
X112074347Y-86317680D01*
X112175352Y-86327999D01*
X112212000Y-86327999D01*
X112212000Y-85590500D01*
X112712000Y-85590500D01*
X112712000Y-86327999D01*
X112748640Y-86327999D01*
X112748654Y-86327998D01*
X112849652Y-86317680D01*
X113013300Y-86263453D01*
X113013311Y-86263448D01*
X113160034Y-86172947D01*
X113160038Y-86172944D01*
X113281944Y-86051038D01*
X113281947Y-86051034D01*
X113372448Y-85904311D01*
X113372453Y-85904300D01*
X113426680Y-85740652D01*
X113436999Y-85639654D01*
X113437000Y-85639641D01*
X113437000Y-85590500D01*
X114853001Y-85590500D01*
X114853001Y-85639654D01*
X114863319Y-85740652D01*
X114917546Y-85904300D01*
X114917551Y-85904311D01*
X115008052Y-86051034D01*
X115008055Y-86051038D01*
X115129961Y-86172944D01*
X115129965Y-86172947D01*
X115276688Y-86263448D01*
X115276699Y-86263453D01*
X115440347Y-86317680D01*
X115541352Y-86327999D01*
X115578000Y-86327999D01*
X115578000Y-85590500D01*
X116078000Y-85590500D01*
X116078000Y-86327999D01*
X116114640Y-86327999D01*
X116114654Y-86327998D01*
X116215652Y-86317680D01*
X116379300Y-86263453D01*
X116379311Y-86263448D01*
X116526034Y-86172947D01*
X116526038Y-86172944D01*
X116647944Y-86051038D01*
X116647947Y-86051034D01*
X116738448Y-85904311D01*
X116738453Y-85904300D01*
X116792680Y-85740652D01*
X116802999Y-85639654D01*
X116803000Y-85639641D01*
X116803000Y-85590500D01*
X116078000Y-85590500D01*
X115578000Y-85590500D01*
X114853001Y-85590500D01*
X113437000Y-85590500D01*
X112712000Y-85590500D01*
X112212000Y-85590500D01*
X111487001Y-85590500D01*
X105778186Y-85590500D01*
X105731396Y-85577350D01*
X105727059Y-85576045D01*
X104705358Y-85248196D01*
X104701071Y-85246734D01*
X103692002Y-84881780D01*
X103687771Y-84880162D01*
X103265161Y-84709616D01*
X102692677Y-84478587D01*
X102688530Y-84476824D01*
X101799082Y-84079518D01*
X101708818Y-84039198D01*
X101704717Y-84037276D01*
X101685835Y-84028000D01*
X108378346Y-84028000D01*
X108396931Y-84264156D01*
X108452235Y-84494512D01*
X108452238Y-84494520D01*
X108542885Y-84713365D01*
X108542887Y-84713368D01*
X108659228Y-84903218D01*
X109271651Y-84290795D01*
X109294254Y-84345364D01*
X109367577Y-84455100D01*
X109460900Y-84548423D01*
X109570636Y-84621746D01*
X109625203Y-84644348D01*
X109012780Y-85256770D01*
X109012780Y-85256771D01*
X109202631Y-85373112D01*
X109202634Y-85373114D01*
X109421479Y-85463761D01*
X109421487Y-85463764D01*
X109651843Y-85519068D01*
X109888000Y-85537653D01*
X110124156Y-85519068D01*
X110354512Y-85463764D01*
X110354520Y-85463761D01*
X110573365Y-85373114D01*
X110573368Y-85373112D01*
X110763217Y-85256771D01*
X110763218Y-85256770D01*
X110150796Y-84644348D01*
X110205364Y-84621746D01*
X110315100Y-84548423D01*
X110408423Y-84455100D01*
X110481746Y-84345364D01*
X110504348Y-84290796D01*
X111116770Y-84903218D01*
X111116771Y-84903217D01*
X111233112Y-84713368D01*
X111233114Y-84713365D01*
X111323761Y-84494520D01*
X111323764Y-84494512D01*
X111379068Y-84264157D01*
X111381626Y-84231659D01*
X111406509Y-84166371D01*
X111462740Y-84124899D01*
X111532465Y-84120412D01*
X111593548Y-84154333D01*
X111610782Y-84176290D01*
X111641657Y-84226346D01*
X111641660Y-84226350D01*
X111755982Y-84340672D01*
X111789467Y-84401995D01*
X111784483Y-84471687D01*
X111755983Y-84516034D01*
X111642052Y-84629965D01*
X111551551Y-84776688D01*
X111551546Y-84776699D01*
X111497319Y-84940347D01*
X111487000Y-85041345D01*
X111487000Y-85090500D01*
X113436999Y-85090500D01*
X113436999Y-85041360D01*
X113436998Y-85041345D01*
X113426680Y-84940347D01*
X113372453Y-84776699D01*
X113372448Y-84776688D01*
X113281947Y-84629965D01*
X113281944Y-84629961D01*
X113168017Y-84516034D01*
X113134532Y-84454711D01*
X113139516Y-84385019D01*
X113168016Y-84340673D01*
X113226657Y-84282033D01*
X113287980Y-84248549D01*
X113355292Y-84252674D01*
X113528737Y-84313366D01*
X113528743Y-84313367D01*
X113528745Y-84313368D01*
X113528746Y-84313368D01*
X113528750Y-84313369D01*
X113707996Y-84333565D01*
X113708000Y-84333565D01*
X113708004Y-84333565D01*
X113887249Y-84313369D01*
X113887252Y-84313368D01*
X113887255Y-84313368D01*
X114057522Y-84253789D01*
X114065862Y-84248549D01*
X114124592Y-84211646D01*
X114152028Y-84194406D01*
X114219264Y-84175406D01*
X114283971Y-84194406D01*
X114311408Y-84211646D01*
X114378475Y-84253788D01*
X114548745Y-84313368D01*
X114548750Y-84313369D01*
X114727996Y-84333565D01*
X114728000Y-84333565D01*
X114728004Y-84333565D01*
X114907248Y-84313369D01*
X114907248Y-84313368D01*
X114907255Y-84313368D01*
X114972556Y-84290517D01*
X115042329Y-84286955D01*
X115101188Y-84319878D01*
X115121982Y-84340672D01*
X115155467Y-84401995D01*
X115150483Y-84471687D01*
X115121983Y-84516034D01*
X115008052Y-84629965D01*
X114917551Y-84776688D01*
X114917546Y-84776699D01*
X114863319Y-84940347D01*
X114853000Y-85041345D01*
X114853000Y-85090500D01*
X116802999Y-85090500D01*
X116802999Y-85041360D01*
X116802998Y-85041345D01*
X116792680Y-84940347D01*
X116738453Y-84776699D01*
X116738448Y-84776688D01*
X116647947Y-84629965D01*
X116647944Y-84629961D01*
X116534017Y-84516034D01*
X116500532Y-84454711D01*
X116505516Y-84385019D01*
X116534013Y-84340676D01*
X116648340Y-84226350D01*
X116738908Y-84079516D01*
X116778547Y-83959891D01*
X116818318Y-83902449D01*
X116882834Y-83875625D01*
X116951610Y-83887940D01*
X117002810Y-83935482D01*
X117020179Y-84003159D01*
X117019870Y-84008621D01*
X117018346Y-84027995D01*
X117018346Y-84027997D01*
X117036931Y-84264156D01*
X117092235Y-84494512D01*
X117092238Y-84494520D01*
X117182885Y-84713365D01*
X117182887Y-84713368D01*
X117299228Y-84903218D01*
X117911651Y-84290795D01*
X117934254Y-84345364D01*
X118007577Y-84455100D01*
X118100900Y-84548423D01*
X118210636Y-84621746D01*
X118265203Y-84644348D01*
X117652780Y-85256770D01*
X117652780Y-85256771D01*
X117842631Y-85373112D01*
X117842634Y-85373114D01*
X118061479Y-85463761D01*
X118061487Y-85463764D01*
X118291843Y-85519068D01*
X118528000Y-85537653D01*
X118764156Y-85519068D01*
X118994512Y-85463764D01*
X118994520Y-85463761D01*
X119213365Y-85373114D01*
X119213368Y-85373112D01*
X119403217Y-85256771D01*
X119403218Y-85256770D01*
X118790796Y-84644348D01*
X118845364Y-84621746D01*
X118955100Y-84548423D01*
X119048423Y-84455100D01*
X119121746Y-84345364D01*
X119144348Y-84290796D01*
X119756770Y-84903218D01*
X119756771Y-84903217D01*
X119873112Y-84713368D01*
X119873114Y-84713365D01*
X119963761Y-84494520D01*
X119963764Y-84494512D01*
X120019068Y-84264156D01*
X120037653Y-84028000D01*
X120019068Y-83791843D01*
X119963764Y-83561487D01*
X119963761Y-83561479D01*
X119901244Y-83410546D01*
X122986581Y-83410546D01*
X123039558Y-83548555D01*
X123039559Y-83548557D01*
X123066872Y-83601849D01*
X123066874Y-83601852D01*
X123162063Y-83709615D01*
X123162066Y-83709618D01*
X123283748Y-83786190D01*
X123283753Y-83786192D01*
X123422083Y-83825383D01*
X123565855Y-83824013D01*
X123623741Y-83808650D01*
X123995146Y-83666081D01*
X123780124Y-83105932D01*
X122986581Y-83410546D01*
X119901244Y-83410546D01*
X119873114Y-83342634D01*
X119873112Y-83342631D01*
X119756770Y-83152780D01*
X119144348Y-83765202D01*
X119121746Y-83710636D01*
X119048423Y-83600900D01*
X118955100Y-83507577D01*
X118845364Y-83434254D01*
X118790796Y-83411651D01*
X119403218Y-82799228D01*
X119213368Y-82682887D01*
X119213365Y-82682885D01*
X118994520Y-82592238D01*
X118994512Y-82592235D01*
X118764156Y-82536931D01*
X118528000Y-82518346D01*
X118291843Y-82536931D01*
X118061487Y-82592235D01*
X118061479Y-82592238D01*
X117842634Y-82682885D01*
X117842631Y-82682887D01*
X117652780Y-82799228D01*
X118265203Y-83411651D01*
X118210636Y-83434254D01*
X118100900Y-83507577D01*
X118007577Y-83600900D01*
X117934254Y-83710636D01*
X117911651Y-83765203D01*
X117299228Y-83152780D01*
X117182887Y-83342631D01*
X117182885Y-83342634D01*
X117092238Y-83561479D01*
X117092235Y-83561487D01*
X117048073Y-83745431D01*
X117013281Y-83806023D01*
X116951255Y-83838186D01*
X116881686Y-83831710D01*
X116826662Y-83788649D01*
X116803654Y-83722677D01*
X116803499Y-83716516D01*
X116803499Y-83216324D01*
X116803186Y-83213264D01*
X116793174Y-83115247D01*
X116772909Y-83054092D01*
X116738908Y-82951484D01*
X116648340Y-82804650D01*
X116526350Y-82682660D01*
X116379516Y-82592092D01*
X116215753Y-82537826D01*
X116215751Y-82537825D01*
X116114678Y-82527500D01*
X115541330Y-82527500D01*
X115541312Y-82527501D01*
X115440247Y-82537825D01*
X115276484Y-82592092D01*
X115276481Y-82592093D01*
X115129650Y-82682660D01*
X115082667Y-82729642D01*
X115021343Y-82763126D01*
X114954035Y-82759001D01*
X114907255Y-82742632D01*
X114907251Y-82742631D01*
X114907247Y-82742630D01*
X114728004Y-82722435D01*
X114727996Y-82722435D01*
X114548750Y-82742630D01*
X114548745Y-82742631D01*
X114378476Y-82802211D01*
X114283972Y-82861593D01*
X114216735Y-82880593D01*
X114152028Y-82861593D01*
X114057523Y-82802211D01*
X113887254Y-82742631D01*
X113887249Y-82742630D01*
X113708004Y-82722435D01*
X113707996Y-82722435D01*
X113528750Y-82742630D01*
X113528737Y-82742633D01*
X113373811Y-82796845D01*
X113304032Y-82800407D01*
X113245175Y-82767485D01*
X113160351Y-82682661D01*
X113160350Y-82682660D01*
X113013516Y-82592092D01*
X112849753Y-82537826D01*
X112849751Y-82537825D01*
X112748678Y-82527500D01*
X112175330Y-82527500D01*
X112175312Y-82527501D01*
X112074247Y-82537825D01*
X111910484Y-82592092D01*
X111910481Y-82592093D01*
X111763648Y-82682661D01*
X111641661Y-82804648D01*
X111551093Y-82951481D01*
X111551091Y-82951486D01*
X111525491Y-83028743D01*
X111496826Y-83115247D01*
X111496826Y-83115248D01*
X111496825Y-83115248D01*
X111486500Y-83216315D01*
X111486500Y-83330973D01*
X111466815Y-83398012D01*
X111414011Y-83443767D01*
X111344853Y-83453711D01*
X111281297Y-83424686D01*
X111247939Y-83378425D01*
X111233114Y-83342634D01*
X111233112Y-83342631D01*
X111116770Y-83152780D01*
X110504348Y-83765202D01*
X110481746Y-83710636D01*
X110408423Y-83600900D01*
X110315100Y-83507577D01*
X110205364Y-83434254D01*
X110150796Y-83411651D01*
X110763218Y-82799228D01*
X110573368Y-82682887D01*
X110573365Y-82682885D01*
X110354520Y-82592238D01*
X110354512Y-82592235D01*
X110124156Y-82536931D01*
X109888000Y-82518346D01*
X109651843Y-82536931D01*
X109421487Y-82592235D01*
X109421479Y-82592238D01*
X109202634Y-82682885D01*
X109202631Y-82682887D01*
X109012780Y-82799228D01*
X109625203Y-83411651D01*
X109570636Y-83434254D01*
X109460900Y-83507577D01*
X109367577Y-83600900D01*
X109294254Y-83710636D01*
X109271651Y-83765203D01*
X108659228Y-83152780D01*
X108542887Y-83342631D01*
X108542885Y-83342634D01*
X108452238Y-83561479D01*
X108452235Y-83561487D01*
X108396931Y-83791843D01*
X108378346Y-84028000D01*
X101685835Y-84028000D01*
X100741623Y-83564152D01*
X100737594Y-83562081D01*
X99792410Y-83054092D01*
X99788460Y-83051875D01*
X98862462Y-82509706D01*
X98858596Y-82507346D01*
X98228862Y-82107059D01*
X102081866Y-82107059D01*
X102113767Y-82247257D01*
X102183866Y-82372782D01*
X102183867Y-82372784D01*
X102286500Y-82473480D01*
X102286503Y-82473482D01*
X102338288Y-82503544D01*
X102701728Y-82665358D01*
X102945769Y-82117231D01*
X102169256Y-81771506D01*
X102109131Y-81906550D01*
X102090758Y-81963557D01*
X102081866Y-82107059D01*
X98228862Y-82107059D01*
X97953049Y-81931740D01*
X97949271Y-81929241D01*
X97065299Y-81320911D01*
X97061616Y-81318275D01*
X96200503Y-80678105D01*
X96196918Y-80675337D01*
X95359745Y-80004132D01*
X95356263Y-80001235D01*
X94544131Y-79299877D01*
X94540758Y-79296854D01*
X94320873Y-79092475D01*
X93754817Y-78566335D01*
X93751556Y-78563191D01*
X92992808Y-77804443D01*
X92989664Y-77801182D01*
X92259145Y-77015241D01*
X92256122Y-77011868D01*
X92180814Y-76924666D01*
X91554764Y-76199736D01*
X91551867Y-76196254D01*
X90880662Y-75359081D01*
X90877894Y-75355496D01*
X90237724Y-74494383D01*
X90235088Y-74490700D01*
X90052746Y-74225737D01*
X89626751Y-73606718D01*
X89624259Y-73602950D01*
X89608397Y-73577996D01*
X89048644Y-72697389D01*
X89046293Y-72693537D01*
X89030064Y-72665819D01*
X88504124Y-71767539D01*
X88501907Y-71763589D01*
X87993918Y-70818405D01*
X87991847Y-70814376D01*
X87859245Y-70544451D01*
X87518716Y-69851268D01*
X87516801Y-69847181D01*
X87417800Y-69625548D01*
X87079163Y-68867443D01*
X87077422Y-68863349D01*
X86675828Y-67868206D01*
X86674219Y-67863997D01*
X86661011Y-67827477D01*
X86309254Y-66854895D01*
X86307814Y-66850674D01*
X86150431Y-66360209D01*
X88001590Y-66360209D01*
X88011852Y-66419224D01*
X88121505Y-66801631D01*
X88121506Y-66801631D01*
X88698264Y-66636249D01*
X88698264Y-66636248D01*
X88463973Y-65819176D01*
X88463972Y-65819175D01*
X88321876Y-65859922D01*
X88266394Y-65882492D01*
X88150750Y-65967922D01*
X88063858Y-66082473D01*
X88012756Y-66216869D01*
X88001590Y-66360206D01*
X88001590Y-66360209D01*
X86150431Y-66360209D01*
X85979947Y-65828918D01*
X85978649Y-65824603D01*
X85977124Y-65819176D01*
X85688317Y-64791551D01*
X85687192Y-64787251D01*
X85434772Y-63744241D01*
X85433808Y-63739912D01*
X85219649Y-62688383D01*
X85218830Y-62683943D01*
X85182545Y-62465206D01*
X85047413Y-61650579D01*
X85043238Y-61625410D01*
X85042578Y-61620929D01*
X84956751Y-60953312D01*
X84905752Y-60556607D01*
X84905260Y-60552130D01*
X84899716Y-60491596D01*
X84807401Y-59483570D01*
X84807072Y-59479071D01*
X84748303Y-58407608D01*
X84748139Y-58403105D01*
X84748102Y-58401091D01*
X84730716Y-57449288D01*
X85977500Y-57449288D01*
X86009161Y-57689785D01*
X86071947Y-57924104D01*
X86164773Y-58148205D01*
X86164777Y-58148214D01*
X86170219Y-58157640D01*
X86286064Y-58358289D01*
X86286066Y-58358292D01*
X86286067Y-58358293D01*
X86433733Y-58550736D01*
X86433739Y-58550743D01*
X86605256Y-58722260D01*
X86605263Y-58722266D01*
X86631805Y-58742632D01*
X86797711Y-58869936D01*
X87007788Y-58991224D01*
X87231900Y-59084054D01*
X87466211Y-59146838D01*
X87646586Y-59170584D01*
X87706711Y-59178500D01*
X87706712Y-59178500D01*
X87949289Y-59178500D01*
X87997388Y-59172167D01*
X88189789Y-59146838D01*
X88424100Y-59084054D01*
X88648212Y-58991224D01*
X88858289Y-58869936D01*
X88986818Y-58771311D01*
X89028014Y-58739702D01*
X89093183Y-58714508D01*
X89161628Y-58728546D01*
X89211617Y-58777360D01*
X89227500Y-58838078D01*
X89227500Y-65511831D01*
X89207815Y-65578870D01*
X89155011Y-65624625D01*
X89124743Y-65633998D01*
X89086705Y-65640612D01*
X88944603Y-65681357D01*
X88944602Y-65681359D01*
X89222696Y-66651181D01*
X89227500Y-66685360D01*
X89227500Y-66911202D01*
X89207815Y-66978241D01*
X89155011Y-67023996D01*
X89137679Y-67030398D01*
X88868582Y-67107561D01*
X88868576Y-67107561D01*
X88259324Y-67282261D01*
X88259324Y-67282262D01*
X88368980Y-67664674D01*
X88391550Y-67720157D01*
X88422356Y-67761859D01*
X88446357Y-67827477D01*
X88446245Y-67845164D01*
X88442110Y-67898261D01*
X88442109Y-67898261D01*
X88452381Y-67957333D01*
X88452382Y-67957339D01*
X88809536Y-69202876D01*
X88809536Y-69202877D01*
X88811312Y-69207242D01*
X88832127Y-69258413D01*
X88917643Y-69374174D01*
X89032310Y-69461152D01*
X89166835Y-69512304D01*
X89310322Y-69523481D01*
X89369390Y-69513211D01*
X89369399Y-69513208D01*
X89369401Y-69513208D01*
X89854267Y-69374174D01*
X90134309Y-69293873D01*
X90189844Y-69271282D01*
X90292857Y-69195184D01*
X90358470Y-69171185D01*
X90426648Y-69186470D01*
X90454212Y-69207242D01*
X100739344Y-79492374D01*
X100739354Y-79492385D01*
X100743684Y-79496715D01*
X100743685Y-79496716D01*
X100855489Y-79608520D01*
X100900063Y-79634254D01*
X100942300Y-79658639D01*
X100942302Y-79658641D01*
X100992418Y-79687576D01*
X100992420Y-79687577D01*
X101145147Y-79728500D01*
X101145148Y-79728500D01*
X101327903Y-79728500D01*
X101394942Y-79748185D01*
X101415584Y-79764819D01*
X102532384Y-80881619D01*
X102565869Y-80942942D01*
X102560885Y-81012634D01*
X102533215Y-81056142D01*
X102462823Y-81127887D01*
X102462821Y-81127889D01*
X102432748Y-81179693D01*
X102432744Y-81179700D01*
X102372623Y-81314733D01*
X103161042Y-81665759D01*
X103161046Y-81665760D01*
X103420310Y-81781192D01*
X103457556Y-81806791D01*
X103517517Y-81866752D01*
X103551002Y-81928075D01*
X103546018Y-81997767D01*
X103543116Y-82004868D01*
X103158501Y-82868726D01*
X103521930Y-83030537D01*
X103521932Y-83030538D01*
X103578939Y-83048910D01*
X103630682Y-83052116D01*
X103696376Y-83075908D01*
X103709853Y-83087362D01*
X103747872Y-83124664D01*
X103799722Y-83154765D01*
X104983444Y-83681791D01*
X104983452Y-83681793D01*
X104983461Y-83681797D01*
X105037097Y-83699083D01*
X105040508Y-83700183D01*
X105184155Y-83709084D01*
X105324490Y-83677152D01*
X105450145Y-83606979D01*
X105550940Y-83504246D01*
X105581040Y-83452397D01*
X105904698Y-82725447D01*
X105923090Y-82668383D01*
X105931991Y-82524737D01*
X105900060Y-82384402D01*
X105829887Y-82258746D01*
X105727154Y-82157952D01*
X105675304Y-82127851D01*
X105651451Y-82117231D01*
X104940391Y-81800647D01*
X104887154Y-81755397D01*
X104868854Y-81695201D01*
X104867887Y-81695329D01*
X104867117Y-81689487D01*
X104866832Y-81688547D01*
X104866826Y-81687367D01*
X104866826Y-81687271D01*
X104866826Y-81687269D01*
X104825903Y-81534542D01*
X104792862Y-81477313D01*
X104746850Y-81397616D01*
X104746847Y-81397612D01*
X104746846Y-81397610D01*
X104635042Y-81285806D01*
X104635041Y-81285805D01*
X104630711Y-81281475D01*
X104630700Y-81281465D01*
X102889416Y-79540181D01*
X102855931Y-79478858D01*
X102860915Y-79409166D01*
X102902787Y-79353233D01*
X102968251Y-79328816D01*
X102977097Y-79328500D01*
X108452690Y-79328500D01*
X108519729Y-79348185D01*
X108565484Y-79400989D01*
X108575428Y-79470147D01*
X108558417Y-79517291D01*
X108542885Y-79542636D01*
X108452238Y-79761479D01*
X108452235Y-79761487D01*
X108396931Y-79991843D01*
X108378346Y-80228000D01*
X108396931Y-80464156D01*
X108452235Y-80694512D01*
X108452238Y-80694520D01*
X108542885Y-80913365D01*
X108542887Y-80913368D01*
X108659228Y-81103218D01*
X109271650Y-80490795D01*
X109294254Y-80545364D01*
X109367577Y-80655100D01*
X109460900Y-80748423D01*
X109570636Y-80821746D01*
X109625203Y-80844348D01*
X109012780Y-81456770D01*
X109012780Y-81456771D01*
X109202631Y-81573112D01*
X109202634Y-81573114D01*
X109421479Y-81663761D01*
X109421487Y-81663764D01*
X109651843Y-81719068D01*
X109888000Y-81737653D01*
X110124156Y-81719068D01*
X110354512Y-81663764D01*
X110354520Y-81663761D01*
X110573365Y-81573114D01*
X110573368Y-81573112D01*
X110763217Y-81456771D01*
X110763218Y-81456770D01*
X110150796Y-80844348D01*
X110205364Y-80821746D01*
X110315100Y-80748423D01*
X110408423Y-80655100D01*
X110481746Y-80545364D01*
X110504348Y-80490796D01*
X111116770Y-81103218D01*
X111116771Y-81103217D01*
X111233112Y-80913368D01*
X111233114Y-80913365D01*
X111323761Y-80694520D01*
X111323764Y-80694512D01*
X111379068Y-80464156D01*
X111397653Y-80228000D01*
X111379068Y-79991843D01*
X111323764Y-79761487D01*
X111323761Y-79761479D01*
X111233114Y-79542636D01*
X111217583Y-79517291D01*
X111199338Y-79449845D01*
X111220454Y-79383243D01*
X111274225Y-79338629D01*
X111323310Y-79328500D01*
X117092690Y-79328500D01*
X117159729Y-79348185D01*
X117205484Y-79400989D01*
X117215428Y-79470147D01*
X117198417Y-79517291D01*
X117182885Y-79542636D01*
X117092238Y-79761479D01*
X117092235Y-79761487D01*
X117036931Y-79991843D01*
X117018346Y-80228000D01*
X117036931Y-80464156D01*
X117092235Y-80694512D01*
X117092238Y-80694520D01*
X117182885Y-80913365D01*
X117182887Y-80913368D01*
X117299228Y-81103218D01*
X117911650Y-80490795D01*
X117934254Y-80545364D01*
X118007577Y-80655100D01*
X118100900Y-80748423D01*
X118210636Y-80821746D01*
X118265203Y-80844348D01*
X117652780Y-81456770D01*
X117652780Y-81456771D01*
X117842631Y-81573112D01*
X117842634Y-81573114D01*
X118061479Y-81663761D01*
X118061487Y-81663764D01*
X118291843Y-81719068D01*
X118528000Y-81737653D01*
X118764156Y-81719068D01*
X118994512Y-81663764D01*
X118994520Y-81663761D01*
X119213365Y-81573114D01*
X119213368Y-81573112D01*
X119403217Y-81456771D01*
X119403218Y-81456770D01*
X118790796Y-80844348D01*
X118845364Y-80821746D01*
X118955100Y-80748423D01*
X119048423Y-80655100D01*
X119121746Y-80545364D01*
X119144348Y-80490796D01*
X119756770Y-81103218D01*
X119756771Y-81103217D01*
X119873112Y-80913368D01*
X119873114Y-80913365D01*
X119963761Y-80694520D01*
X119963764Y-80694512D01*
X120019068Y-80464156D01*
X120037653Y-80228000D01*
X120019068Y-79991843D01*
X119963764Y-79761487D01*
X119963761Y-79761479D01*
X119873114Y-79542636D01*
X119857583Y-79517291D01*
X119839338Y-79449845D01*
X119860454Y-79383243D01*
X119914225Y-79338629D01*
X119963310Y-79328500D01*
X120969642Y-79328500D01*
X121036681Y-79348185D01*
X121057323Y-79364819D01*
X123529527Y-81837023D01*
X123563012Y-81898346D01*
X123558028Y-81968038D01*
X123516156Y-82023971D01*
X123486284Y-82040468D01*
X123014518Y-82221563D01*
X123014515Y-82221564D01*
X122961223Y-82248877D01*
X122961220Y-82248879D01*
X122853457Y-82344068D01*
X122853454Y-82344071D01*
X122776882Y-82465753D01*
X122776880Y-82465758D01*
X122737688Y-82604089D01*
X122739057Y-82747853D01*
X122754421Y-82805746D01*
X122754422Y-82805749D01*
X122807397Y-82943756D01*
X123951967Y-82504397D01*
X124021608Y-82498749D01*
X124083248Y-82531649D01*
X124112169Y-82575723D01*
X124235950Y-82898184D01*
X124461936Y-83486898D01*
X124833334Y-83344332D01*
X124886637Y-83317013D01*
X124886642Y-83317010D01*
X124925493Y-83282692D01*
X124988769Y-83253062D01*
X125006402Y-83251632D01*
X125059660Y-83251125D01*
X125117607Y-83235746D01*
X126327289Y-82771392D01*
X126343418Y-82763126D01*
X126380644Y-82744047D01*
X126450141Y-82682660D01*
X126488512Y-82648767D01*
X126558325Y-82537826D01*
X126565164Y-82526958D01*
X126565166Y-82526953D01*
X126604397Y-82388484D01*
X126603974Y-82344068D01*
X126603026Y-82244569D01*
X126587647Y-82186622D01*
X126302477Y-81443730D01*
X126302475Y-81443726D01*
X126302475Y-81443725D01*
X126275132Y-81390374D01*
X126179853Y-81282508D01*
X126179849Y-81282505D01*
X126058043Y-81205854D01*
X126058038Y-81205852D01*
X125919568Y-81166621D01*
X125775653Y-81167993D01*
X125717706Y-81183372D01*
X125717701Y-81183374D01*
X124966674Y-81471665D01*
X124897033Y-81477313D01*
X124835394Y-81444413D01*
X124834556Y-81443582D01*
X122531155Y-79140181D01*
X122497670Y-79078858D01*
X122502654Y-79009166D01*
X122544526Y-78953233D01*
X122609990Y-78928816D01*
X122618836Y-78928500D01*
X127341331Y-78928500D01*
X127341347Y-78928501D01*
X127348943Y-78928501D01*
X127507054Y-78928501D01*
X127507057Y-78928501D01*
X127659785Y-78887577D01*
X127709904Y-78858639D01*
X127796716Y-78808520D01*
X127908520Y-78696716D01*
X127908520Y-78696714D01*
X127918728Y-78686507D01*
X127918730Y-78686504D01*
X131965819Y-74639415D01*
X132027142Y-74605930D01*
X132096834Y-74610914D01*
X132152767Y-74652786D01*
X132177184Y-74718250D01*
X132177500Y-74727096D01*
X132177500Y-74849288D01*
X132209161Y-75089785D01*
X132271947Y-75324104D01*
X132358709Y-75533565D01*
X132364776Y-75548212D01*
X132486064Y-75758289D01*
X132486066Y-75758292D01*
X132486067Y-75758293D01*
X132633733Y-75950736D01*
X132633739Y-75950743D01*
X132805256Y-76122260D01*
X132805262Y-76122265D01*
X132997711Y-76269936D01*
X133207788Y-76391224D01*
X133431900Y-76484054D01*
X133666211Y-76546838D01*
X133846586Y-76570584D01*
X133906711Y-76578500D01*
X133906712Y-76578500D01*
X134149289Y-76578500D01*
X134197388Y-76572167D01*
X134389789Y-76546838D01*
X134624100Y-76484054D01*
X134848212Y-76391224D01*
X135058289Y-76269936D01*
X135250738Y-76122265D01*
X135422265Y-75950738D01*
X135569936Y-75758289D01*
X135691224Y-75548212D01*
X135784054Y-75324100D01*
X135846838Y-75089789D01*
X135878500Y-74849288D01*
X135878500Y-74606712D01*
X135846838Y-74366211D01*
X135784054Y-74131900D01*
X135691224Y-73907788D01*
X135569936Y-73697711D01*
X135498698Y-73604872D01*
X135422266Y-73505263D01*
X135422260Y-73505256D01*
X135250743Y-73333739D01*
X135250736Y-73333733D01*
X135058293Y-73186067D01*
X135058292Y-73186066D01*
X135058289Y-73186064D01*
X134848212Y-73064776D01*
X134829439Y-73057000D01*
X134624104Y-72971947D01*
X134389785Y-72909161D01*
X134149289Y-72877500D01*
X134149288Y-72877500D01*
X134027096Y-72877500D01*
X133960057Y-72857815D01*
X133914302Y-72805011D01*
X133904358Y-72735853D01*
X133933383Y-72672297D01*
X133939415Y-72665819D01*
X134841645Y-71763589D01*
X137039814Y-69565419D01*
X138883587Y-69565419D01*
X139018631Y-69625544D01*
X139018641Y-69625548D01*
X139075638Y-69643918D01*
X139219140Y-69652810D01*
X139359338Y-69620909D01*
X139484863Y-69550810D01*
X139484865Y-69550809D01*
X139585561Y-69448176D01*
X139585563Y-69448173D01*
X139615625Y-69396388D01*
X139777439Y-69032947D01*
X139229312Y-68788906D01*
X138883587Y-69565419D01*
X137039814Y-69565419D01*
X137825798Y-68779435D01*
X137887117Y-68745953D01*
X137956809Y-68750937D01*
X138012742Y-68792809D01*
X138037159Y-68858273D01*
X138037238Y-68874786D01*
X138035339Y-68905435D01*
X138067239Y-69045634D01*
X138137338Y-69171158D01*
X138137342Y-69171164D01*
X138239968Y-69271853D01*
X138239975Y-69271859D01*
X138291757Y-69301919D01*
X138426814Y-69362051D01*
X138772540Y-68585538D01*
X138925473Y-68242045D01*
X138970724Y-68188807D01*
X139037573Y-68168486D01*
X139089188Y-68179200D01*
X139980807Y-68576174D01*
X139980808Y-68576174D01*
X140142618Y-68212746D01*
X140142619Y-68212744D01*
X140160991Y-68155738D01*
X140160991Y-68155737D01*
X140164197Y-68103994D01*
X140187989Y-68038300D01*
X140199438Y-68024829D01*
X140236745Y-67986805D01*
X140266846Y-67934955D01*
X140793872Y-66751233D01*
X140812264Y-66694169D01*
X140821165Y-66550522D01*
X140789233Y-66410187D01*
X140719060Y-66284532D01*
X140616327Y-66183737D01*
X140616324Y-66183734D01*
X140564486Y-66153641D01*
X140564476Y-66153636D01*
X140461572Y-66107820D01*
X139837528Y-65829979D01*
X139837521Y-65829976D01*
X139837510Y-65829972D01*
X139780466Y-65811587D01*
X139636818Y-65802686D01*
X139496483Y-65834617D01*
X139496482Y-65834617D01*
X139496480Y-65834618D01*
X139370830Y-65904787D01*
X139370828Y-65904788D01*
X139270035Y-66007521D01*
X139270031Y-66007526D01*
X139239935Y-66059367D01*
X139239931Y-66059374D01*
X139122514Y-66323099D01*
X139077264Y-66376336D01*
X139010415Y-66396658D01*
X139009234Y-66396664D01*
X138952500Y-66396664D01*
X138885461Y-66376979D01*
X138839706Y-66324175D01*
X138828500Y-66272664D01*
X138828500Y-48404056D01*
X138848185Y-48337017D01*
X138900989Y-48291262D01*
X138970147Y-48281318D01*
X139033703Y-48310343D01*
X139068264Y-48359618D01*
X139315690Y-49004187D01*
X139315691Y-49004189D01*
X139343004Y-49057481D01*
X139343006Y-49057484D01*
X139438195Y-49165247D01*
X139438198Y-49165250D01*
X139559880Y-49241822D01*
X139559885Y-49241824D01*
X139698216Y-49281016D01*
X139841980Y-49279647D01*
X139899874Y-49264282D01*
X140037883Y-49211305D01*
X139664488Y-48238579D01*
X140200059Y-48238579D01*
X140504673Y-49032122D01*
X140642680Y-48979146D01*
X140642686Y-48979144D01*
X140695976Y-48951832D01*
X140695979Y-48951830D01*
X140803742Y-48856641D01*
X140803745Y-48856638D01*
X140880317Y-48734956D01*
X140880319Y-48734951D01*
X140919511Y-48596621D01*
X140918140Y-48452849D01*
X140902777Y-48394963D01*
X140760208Y-48023557D01*
X140200059Y-48238579D01*
X139664488Y-48238579D01*
X139598524Y-48066737D01*
X139592876Y-47997096D01*
X139625776Y-47935456D01*
X139669851Y-47906535D01*
X140020877Y-47771789D01*
X140581025Y-47556767D01*
X140438459Y-47185370D01*
X140438456Y-47185362D01*
X140411143Y-47132070D01*
X140411138Y-47132063D01*
X140376818Y-47093209D01*
X140347189Y-47029932D01*
X140345759Y-47012296D01*
X140345252Y-46959047D01*
X140345252Y-46959045D01*
X140329873Y-46901098D01*
X139865519Y-45691416D01*
X139865517Y-45691412D01*
X139865517Y-45691411D01*
X139838174Y-45638060D01*
X139742895Y-45530194D01*
X139742891Y-45530191D01*
X139621085Y-45453540D01*
X139621080Y-45453538D01*
X139482610Y-45414307D01*
X139338695Y-45415679D01*
X139280749Y-45431058D01*
X138537853Y-45716229D01*
X138537852Y-45716229D01*
X138484501Y-45743572D01*
X138376635Y-45838851D01*
X138376631Y-45838855D01*
X138325653Y-45919866D01*
X138273287Y-45966122D01*
X138204226Y-45976723D01*
X138140397Y-45948305D01*
X138133023Y-45941504D01*
X134168674Y-41977155D01*
X134135189Y-41915832D01*
X134140173Y-41846140D01*
X134182045Y-41790207D01*
X134240168Y-41766535D01*
X134389789Y-41746838D01*
X134624100Y-41684054D01*
X134848212Y-41591224D01*
X135058289Y-41469936D01*
X135250738Y-41322265D01*
X135422265Y-41150738D01*
X135569936Y-40958289D01*
X135691224Y-40748212D01*
X135784054Y-40524100D01*
X135846838Y-40289789D01*
X135878500Y-40049288D01*
X135878500Y-39806712D01*
X135846838Y-39566211D01*
X135784054Y-39331900D01*
X135782446Y-39328019D01*
X135720109Y-39177523D01*
X135691224Y-39107788D01*
X135569936Y-38897711D01*
X135509018Y-38818321D01*
X135422266Y-38705263D01*
X135422260Y-38705256D01*
X135250743Y-38533739D01*
X135250736Y-38533733D01*
X135058293Y-38386067D01*
X135058292Y-38386066D01*
X135058289Y-38386064D01*
X134848212Y-38264776D01*
X134848205Y-38264773D01*
X134624104Y-38171947D01*
X134480861Y-38133565D01*
X134389789Y-38109162D01*
X134389788Y-38109161D01*
X134389785Y-38109161D01*
X134149289Y-38077500D01*
X134149288Y-38077500D01*
X133906712Y-38077500D01*
X133906711Y-38077500D01*
X133666214Y-38109161D01*
X133431895Y-38171947D01*
X133207794Y-38264773D01*
X133207785Y-38264777D01*
X132997706Y-38386067D01*
X132805263Y-38533733D01*
X132805256Y-38533739D01*
X132633739Y-38705256D01*
X132633733Y-38705263D01*
X132486067Y-38897706D01*
X132364777Y-39107785D01*
X132364773Y-39107794D01*
X132271947Y-39331895D01*
X132209161Y-39566214D01*
X132189464Y-39715830D01*
X132161197Y-39779726D01*
X132102873Y-39818197D01*
X132033008Y-39819028D01*
X131978844Y-39787325D01*
X126368433Y-34176914D01*
X126334948Y-34115591D01*
X126339932Y-34045899D01*
X126381804Y-33989966D01*
X126416095Y-33974110D01*
X126415514Y-33972596D01*
X126423793Y-33969417D01*
X126549317Y-33899318D01*
X126549323Y-33899314D01*
X126650012Y-33796688D01*
X126650018Y-33796681D01*
X126680080Y-33744896D01*
X126740211Y-33609842D01*
X125902192Y-33236732D01*
X125902189Y-33236732D01*
X125620203Y-33111183D01*
X125566966Y-33065932D01*
X125546645Y-32999083D01*
X125557359Y-32947468D01*
X125619746Y-32807343D01*
X126167065Y-32807343D01*
X126943578Y-33153068D01*
X127003703Y-33018025D01*
X127003707Y-33018015D01*
X127022077Y-32961018D01*
X127030969Y-32817516D01*
X126999068Y-32677318D01*
X126928969Y-32551793D01*
X126928968Y-32551791D01*
X126826335Y-32451095D01*
X126826332Y-32451093D01*
X126774543Y-32421028D01*
X126411108Y-32259215D01*
X126411106Y-32259216D01*
X126167065Y-32807343D01*
X125619746Y-32807343D01*
X125954333Y-32055847D01*
X125590899Y-31894036D01*
X125533896Y-31875665D01*
X125482150Y-31872459D01*
X125416457Y-31848666D01*
X125402987Y-31837217D01*
X125364964Y-31799912D01*
X125313114Y-31769811D01*
X125131234Y-31688833D01*
X124129395Y-31242786D01*
X124129374Y-31242778D01*
X124072330Y-31224393D01*
X123928681Y-31215492D01*
X123788344Y-31247424D01*
X123662692Y-31317596D01*
X123561896Y-31420329D01*
X123561893Y-31420332D01*
X123531800Y-31472170D01*
X123531795Y-31472180D01*
X123399282Y-31769811D01*
X123231156Y-32147431D01*
X123208140Y-32199125D01*
X123208131Y-32199146D01*
X123189746Y-32256189D01*
X123189746Y-32256191D01*
X123189746Y-32256193D01*
X123180845Y-32399839D01*
X123212776Y-32540174D01*
X123212776Y-32540175D01*
X123212777Y-32540176D01*
X123282946Y-32665826D01*
X123282947Y-32665828D01*
X123282948Y-32665829D01*
X123282949Y-32665830D01*
X123385682Y-32766624D01*
X123437532Y-32796725D01*
X123701258Y-32914142D01*
X123754494Y-32959392D01*
X123774816Y-33026241D01*
X123774822Y-33027422D01*
X123774822Y-33112093D01*
X123774821Y-33112093D01*
X123815745Y-33264821D01*
X123815748Y-33264828D01*
X123821389Y-33274598D01*
X123821391Y-33274601D01*
X123894800Y-33401751D01*
X123894804Y-33401756D01*
X124013672Y-33520624D01*
X124013678Y-33520629D01*
X125149939Y-34656890D01*
X125183424Y-34718213D01*
X125178440Y-34787905D01*
X125136568Y-34843838D01*
X125082546Y-34864818D01*
X125082889Y-34866539D01*
X124932834Y-34896386D01*
X124932824Y-34896389D01*
X124797102Y-34952606D01*
X124797093Y-34952611D01*
X124674949Y-35034226D01*
X124674945Y-35034229D01*
X124571070Y-35138104D01*
X124571067Y-35138108D01*
X124489452Y-35260252D01*
X124489447Y-35260261D01*
X124433230Y-35395983D01*
X124433227Y-35395993D01*
X124404569Y-35540068D01*
X124404569Y-35686987D01*
X124433227Y-35831062D01*
X124433230Y-35831072D01*
X124489447Y-35966794D01*
X124489452Y-35966803D01*
X124571067Y-36088947D01*
X124571070Y-36088951D01*
X124674945Y-36192826D01*
X124674949Y-36192829D01*
X124797093Y-36274444D01*
X124797099Y-36274447D01*
X124797100Y-36274448D01*
X124932827Y-36330668D01*
X125076909Y-36359327D01*
X125076913Y-36359328D01*
X125076914Y-36359328D01*
X125223825Y-36359328D01*
X125223826Y-36359327D01*
X125367911Y-36330668D01*
X125503638Y-36274448D01*
X125625789Y-36192829D01*
X125729670Y-36088948D01*
X125811289Y-35966797D01*
X125867509Y-35831070D01*
X125883290Y-35751728D01*
X125897358Y-35681008D01*
X125899202Y-35681374D01*
X125922067Y-35624716D01*
X125979094Y-35584346D01*
X126048893Y-35581215D01*
X126107006Y-35613957D01*
X128324552Y-37831503D01*
X128358037Y-37892826D01*
X128353053Y-37962518D01*
X128311181Y-38018451D01*
X128255412Y-38040561D01*
X128255532Y-38041083D01*
X128252149Y-38041855D01*
X128250767Y-38042403D01*
X128248752Y-38042630D01*
X128248745Y-38042631D01*
X128078476Y-38102211D01*
X127925739Y-38198183D01*
X127832740Y-38291182D01*
X127771416Y-38324666D01*
X127745059Y-38327500D01*
X122937787Y-38327500D01*
X122870748Y-38307815D01*
X122824993Y-38255011D01*
X122813787Y-38203500D01*
X122813787Y-38197218D01*
X122793591Y-38017972D01*
X122793590Y-38017967D01*
X122779772Y-37978478D01*
X122734011Y-37847700D01*
X122720211Y-37825738D01*
X122648298Y-37711289D01*
X122638038Y-37694960D01*
X122510484Y-37567406D01*
X122509416Y-37566735D01*
X122357745Y-37471433D01*
X122187476Y-37411853D01*
X122187471Y-37411852D01*
X122008226Y-37391657D01*
X122008218Y-37391657D01*
X121828972Y-37411852D01*
X121828967Y-37411853D01*
X121658698Y-37471433D01*
X121505958Y-37567407D01*
X121503125Y-37569667D01*
X121500946Y-37570556D01*
X121500064Y-37571111D01*
X121499966Y-37570956D01*
X121438439Y-37596077D01*
X121425810Y-37596722D01*
X119152500Y-37596722D01*
X119085461Y-37577037D01*
X119039706Y-37524233D01*
X119028500Y-37472722D01*
X119028500Y-37123828D01*
X122967728Y-37123828D01*
X122996386Y-37267903D01*
X122996389Y-37267913D01*
X123052606Y-37403635D01*
X123052611Y-37403644D01*
X123134226Y-37525788D01*
X123134229Y-37525792D01*
X123238104Y-37629667D01*
X123238108Y-37629670D01*
X123360252Y-37711285D01*
X123360258Y-37711288D01*
X123360259Y-37711289D01*
X123495986Y-37767509D01*
X123640068Y-37796168D01*
X123640072Y-37796169D01*
X123640073Y-37796169D01*
X123786984Y-37796169D01*
X123786985Y-37796168D01*
X123931070Y-37767509D01*
X124066797Y-37711289D01*
X124188948Y-37629670D01*
X124292829Y-37525789D01*
X124374448Y-37403638D01*
X124430668Y-37267911D01*
X124459328Y-37123824D01*
X124459328Y-36976914D01*
X124430668Y-36832827D01*
X124374448Y-36697100D01*
X124374447Y-36697099D01*
X124374444Y-36697093D01*
X124292829Y-36574949D01*
X124292826Y-36574945D01*
X124188951Y-36471070D01*
X124188947Y-36471067D01*
X124066803Y-36389452D01*
X124066794Y-36389447D01*
X123931072Y-36333230D01*
X123931073Y-36333230D01*
X123931070Y-36333229D01*
X123931066Y-36333228D01*
X123931062Y-36333227D01*
X123786987Y-36304569D01*
X123786983Y-36304569D01*
X123640073Y-36304569D01*
X123640068Y-36304569D01*
X123495993Y-36333227D01*
X123495983Y-36333230D01*
X123360261Y-36389447D01*
X123360252Y-36389452D01*
X123238108Y-36471067D01*
X123238104Y-36471070D01*
X123134229Y-36574945D01*
X123134226Y-36574949D01*
X123052611Y-36697093D01*
X123052606Y-36697102D01*
X122996389Y-36832824D01*
X122996386Y-36832834D01*
X122967728Y-36976909D01*
X122967728Y-37123828D01*
X119028500Y-37123828D01*
X119028500Y-34417060D01*
X119028501Y-34417047D01*
X119028501Y-34248944D01*
X119022283Y-34225737D01*
X118987577Y-34096216D01*
X118987573Y-34096209D01*
X118908524Y-33959290D01*
X118908518Y-33959282D01*
X117915590Y-32966355D01*
X117915588Y-32966352D01*
X117796717Y-32847481D01*
X117796716Y-32847480D01*
X117704220Y-32794078D01*
X117704219Y-32794077D01*
X117659783Y-32768422D01*
X117591142Y-32750030D01*
X117507057Y-32727499D01*
X117348943Y-32727499D01*
X117341347Y-32727499D01*
X117341331Y-32727500D01*
X107828098Y-32727500D01*
X107761059Y-32707815D01*
X107740417Y-32691181D01*
X107664819Y-32615583D01*
X107631334Y-32554260D01*
X107628500Y-32527902D01*
X107628500Y-31210412D01*
X107648185Y-31143373D01*
X107655555Y-31133097D01*
X107657810Y-31130267D01*
X107657816Y-31130262D01*
X107753789Y-30977522D01*
X107813368Y-30807255D01*
X107833565Y-30628000D01*
X107832303Y-30616801D01*
X107813369Y-30448750D01*
X107813368Y-30448745D01*
X107753788Y-30278476D01*
X107657815Y-30125737D01*
X107530262Y-29998184D01*
X107377523Y-29902211D01*
X107207254Y-29842631D01*
X107207249Y-29842630D01*
X107028004Y-29822435D01*
X107027996Y-29822435D01*
X106848750Y-29842630D01*
X106848745Y-29842631D01*
X106678476Y-29902211D01*
X106525737Y-29998184D01*
X106398184Y-30125737D01*
X106302211Y-30278476D01*
X106242631Y-30448745D01*
X106242630Y-30448750D01*
X106222435Y-30627996D01*
X106222435Y-30628003D01*
X106242630Y-30807249D01*
X106242631Y-30807254D01*
X106302211Y-30977523D01*
X106362515Y-31073496D01*
X106389177Y-31115928D01*
X106398185Y-31130263D01*
X106400445Y-31133097D01*
X106401334Y-31135275D01*
X106401889Y-31136158D01*
X106401734Y-31136255D01*
X106426855Y-31197783D01*
X106427500Y-31210412D01*
X106427500Y-31848741D01*
X106407815Y-31915780D01*
X106355011Y-31961535D01*
X106347938Y-31964505D01*
X105511887Y-32285435D01*
X105726909Y-32845583D01*
X106098307Y-32703017D01*
X106098315Y-32703014D01*
X106151607Y-32675701D01*
X106151610Y-32675699D01*
X106221408Y-32614046D01*
X106284685Y-32584417D01*
X106353935Y-32593701D01*
X106407172Y-32638951D01*
X106427494Y-32705800D01*
X106427500Y-32706981D01*
X106427500Y-32741330D01*
X106427499Y-32741348D01*
X106427499Y-32907054D01*
X106427498Y-32907054D01*
X106468424Y-33059789D01*
X106468425Y-33059790D01*
X106489455Y-33096214D01*
X106489456Y-33096216D01*
X106547475Y-33196709D01*
X106547481Y-33196717D01*
X106666583Y-33315819D01*
X106700068Y-33377142D01*
X106695084Y-33446834D01*
X106653212Y-33502767D01*
X106587748Y-33527184D01*
X106578902Y-33527500D01*
X104620893Y-33527500D01*
X104553854Y-33507815D01*
X104508099Y-33455011D01*
X104498155Y-33385853D01*
X104527180Y-33322297D01*
X104576455Y-33287736D01*
X104578272Y-33287038D01*
X104604806Y-33276853D01*
X104658161Y-33249508D01*
X104698077Y-33214249D01*
X104761351Y-33184623D01*
X104778986Y-33183193D01*
X104830824Y-33182699D01*
X104888714Y-33167335D01*
X105260119Y-33024766D01*
X104865915Y-31997829D01*
X104650893Y-31437679D01*
X104279493Y-31580247D01*
X104226194Y-31607564D01*
X104226190Y-31607567D01*
X104187333Y-31641889D01*
X104124055Y-31671517D01*
X104106426Y-31672946D01*
X104053170Y-31673454D01*
X103995224Y-31688833D01*
X102907728Y-32106284D01*
X102863291Y-32114520D01*
X101161920Y-32114520D01*
X101120999Y-32125484D01*
X101120999Y-32125485D01*
X101083731Y-32135471D01*
X101009194Y-32155443D01*
X101009189Y-32155446D01*
X100872270Y-32234495D01*
X100872262Y-32234501D01*
X92647479Y-40459284D01*
X92636398Y-40478478D01*
X92610059Y-40524100D01*
X92568423Y-40596215D01*
X92527499Y-40748943D01*
X92527499Y-40748945D01*
X92527499Y-40917046D01*
X92527500Y-40917059D01*
X92527500Y-47031271D01*
X92519682Y-47074604D01*
X92483908Y-47170517D01*
X92477518Y-47229961D01*
X92477501Y-47230123D01*
X92477500Y-47230135D01*
X92477500Y-47628500D01*
X92457815Y-47695539D01*
X92405011Y-47741294D01*
X92353500Y-47752500D01*
X91955129Y-47752500D01*
X91955123Y-47752501D01*
X91895516Y-47758908D01*
X91799604Y-47794682D01*
X91756271Y-47802500D01*
X90469698Y-47802500D01*
X90402659Y-47782815D01*
X90356904Y-47730011D01*
X90346960Y-47660853D01*
X90352454Y-47638130D01*
X90386123Y-47540347D01*
X90457420Y-47333285D01*
X90470769Y-47274836D01*
X90469417Y-47221592D01*
X90487393Y-47154075D01*
X90497634Y-47139646D01*
X90530576Y-47099619D01*
X90556017Y-47045400D01*
X90556019Y-47045395D01*
X90685536Y-46669245D01*
X90685536Y-46669244D01*
X89682999Y-46324044D01*
X89682994Y-46324040D01*
X89078155Y-46115780D01*
X89078154Y-46115780D01*
X88948638Y-46491922D01*
X88948634Y-46491936D01*
X88935302Y-46550321D01*
X88935301Y-46550323D01*
X88936617Y-46602154D01*
X88918639Y-46669672D01*
X88908403Y-46684096D01*
X88874561Y-46725217D01*
X88874559Y-46725219D01*
X88849093Y-46779495D01*
X88849089Y-46779505D01*
X88427242Y-48004644D01*
X88413892Y-48063092D01*
X88417545Y-48206968D01*
X88417546Y-48206970D01*
X88461405Y-48343423D01*
X88461587Y-48343987D01*
X88461588Y-48343990D01*
X88514893Y-48422481D01*
X88542444Y-48463049D01*
X88590963Y-48502980D01*
X88653569Y-48554505D01*
X88653570Y-48554505D01*
X88653571Y-48554506D01*
X88707847Y-48579973D01*
X89173235Y-48740218D01*
X89220545Y-48769781D01*
X89334284Y-48883520D01*
X89334286Y-48883521D01*
X89334290Y-48883524D01*
X89452601Y-48951830D01*
X89471216Y-48962577D01*
X89623943Y-49003501D01*
X89623945Y-49003501D01*
X89789654Y-49003501D01*
X89789670Y-49003500D01*
X89803902Y-49003500D01*
X89870941Y-49023185D01*
X89916696Y-49075989D01*
X89926640Y-49145147D01*
X89897615Y-49208703D01*
X89891583Y-49215181D01*
X89347481Y-49759282D01*
X89347477Y-49759287D01*
X89299561Y-49842282D01*
X89268424Y-49896211D01*
X89268423Y-49896212D01*
X89252481Y-49955711D01*
X89227499Y-50048943D01*
X89227499Y-50048945D01*
X89227499Y-50217046D01*
X89227500Y-50217059D01*
X89227500Y-55817921D01*
X89207815Y-55884960D01*
X89155011Y-55930715D01*
X89085853Y-55940659D01*
X89028014Y-55916297D01*
X88858293Y-55786067D01*
X88858292Y-55786066D01*
X88858289Y-55786064D01*
X88648212Y-55664776D01*
X88648205Y-55664773D01*
X88424104Y-55571947D01*
X88189785Y-55509161D01*
X87949289Y-55477500D01*
X87949288Y-55477500D01*
X87706712Y-55477500D01*
X87706711Y-55477500D01*
X87466214Y-55509161D01*
X87231895Y-55571947D01*
X87007794Y-55664773D01*
X87007785Y-55664777D01*
X86797706Y-55786067D01*
X86605263Y-55933733D01*
X86605256Y-55933739D01*
X86433739Y-56105256D01*
X86433733Y-56105263D01*
X86286067Y-56297706D01*
X86164777Y-56507785D01*
X86164773Y-56507794D01*
X86071947Y-56731895D01*
X86009161Y-56966214D01*
X85977500Y-57206711D01*
X85977500Y-57449288D01*
X84730716Y-57449288D01*
X84728541Y-57330244D01*
X84728541Y-57325735D01*
X84748139Y-56252869D01*
X84748304Y-56248368D01*
X84748408Y-56246483D01*
X84807073Y-55176904D01*
X84807403Y-55172410D01*
X84808557Y-55159809D01*
X84905263Y-54103837D01*
X84905751Y-54099398D01*
X85042578Y-53035066D01*
X85043238Y-53030589D01*
X85064655Y-52901481D01*
X85218834Y-51972032D01*
X85219652Y-51967602D01*
X85226385Y-51934543D01*
X85433810Y-50916076D01*
X85434770Y-50911770D01*
X85687196Y-49868735D01*
X85688313Y-49864462D01*
X85844710Y-49307975D01*
X86794594Y-49307975D01*
X86823435Y-49452962D01*
X86823438Y-49452972D01*
X86880007Y-49589543D01*
X86880014Y-49589556D01*
X86962143Y-49712470D01*
X86962146Y-49712474D01*
X87066675Y-49817003D01*
X87066679Y-49817006D01*
X87189593Y-49899135D01*
X87189606Y-49899142D01*
X87326177Y-49955711D01*
X87326182Y-49955713D01*
X87326186Y-49955713D01*
X87326187Y-49955714D01*
X87471174Y-49984555D01*
X87471177Y-49984555D01*
X87619015Y-49984555D01*
X87716557Y-49965151D01*
X87764008Y-49955713D01*
X87900590Y-49899139D01*
X88023511Y-49817006D01*
X88128046Y-49712471D01*
X88210179Y-49589550D01*
X88266753Y-49452968D01*
X88276191Y-49405517D01*
X88295595Y-49307975D01*
X88295595Y-49160134D01*
X88266754Y-49015147D01*
X88266753Y-49015146D01*
X88266753Y-49015142D01*
X88244980Y-48962577D01*
X88210182Y-48878566D01*
X88210175Y-48878553D01*
X88128046Y-48755639D01*
X88128043Y-48755635D01*
X88023514Y-48651106D01*
X88023510Y-48651103D01*
X87900596Y-48568974D01*
X87900583Y-48568967D01*
X87764012Y-48512398D01*
X87764002Y-48512395D01*
X87619015Y-48483555D01*
X87619013Y-48483555D01*
X87471177Y-48483555D01*
X87471175Y-48483555D01*
X87326187Y-48512395D01*
X87326177Y-48512398D01*
X87189606Y-48568967D01*
X87189593Y-48568974D01*
X87066679Y-48651103D01*
X87066675Y-48651106D01*
X86962146Y-48755635D01*
X86962143Y-48755639D01*
X86880014Y-48878553D01*
X86880007Y-48878566D01*
X86823438Y-49015137D01*
X86823435Y-49015147D01*
X86794595Y-49160134D01*
X86794595Y-49160137D01*
X86794595Y-49307973D01*
X86794595Y-49307975D01*
X86794594Y-49307975D01*
X85844710Y-49307975D01*
X85978660Y-48831359D01*
X85979942Y-48827096D01*
X86307819Y-47805308D01*
X86309248Y-47801120D01*
X86674234Y-46791962D01*
X86675821Y-46787811D01*
X86993283Y-46001145D01*
X90281010Y-46001145D01*
X90848321Y-46196484D01*
X90848322Y-46196484D01*
X90977843Y-45820327D01*
X90991175Y-45761944D01*
X90991176Y-45761943D01*
X90987526Y-45618215D01*
X90987525Y-45618209D01*
X90943530Y-45481332D01*
X90943525Y-45481323D01*
X90862759Y-45362397D01*
X90862748Y-45362385D01*
X90751738Y-45271024D01*
X90697516Y-45245582D01*
X90557743Y-45197454D01*
X90557742Y-45197454D01*
X90281010Y-46001144D01*
X90281010Y-46001145D01*
X86993283Y-46001145D01*
X87077430Y-45792631D01*
X87079154Y-45788576D01*
X87144172Y-45643020D01*
X89240940Y-45643020D01*
X89808250Y-45838359D01*
X89808251Y-45838359D01*
X90084983Y-45034670D01*
X90084983Y-45034669D01*
X89945210Y-44986541D01*
X89886824Y-44973209D01*
X89886820Y-44973208D01*
X89743091Y-44976857D01*
X89743089Y-44976858D01*
X89606209Y-45020855D01*
X89606206Y-45020856D01*
X89487269Y-45101629D01*
X89487262Y-45101636D01*
X89395902Y-45212644D01*
X89395899Y-45212650D01*
X89370459Y-45266869D01*
X89370456Y-45266878D01*
X89240940Y-45643019D01*
X89240940Y-45643020D01*
X87144172Y-45643020D01*
X87516817Y-44808782D01*
X87518706Y-44804752D01*
X87991855Y-43841606D01*
X87993918Y-43837594D01*
X88392560Y-43095865D01*
X89560404Y-43095865D01*
X89589245Y-43240852D01*
X89589248Y-43240862D01*
X89645817Y-43377433D01*
X89645824Y-43377446D01*
X89727953Y-43500360D01*
X89727956Y-43500364D01*
X89832485Y-43604893D01*
X89832489Y-43604896D01*
X89955403Y-43687025D01*
X89955416Y-43687032D01*
X90091987Y-43743601D01*
X90091992Y-43743603D01*
X90091996Y-43743603D01*
X90091997Y-43743604D01*
X90236984Y-43772445D01*
X90236987Y-43772445D01*
X90384825Y-43772445D01*
X90482367Y-43753041D01*
X90529818Y-43743603D01*
X90666400Y-43687029D01*
X90789321Y-43604896D01*
X90893856Y-43500361D01*
X90975989Y-43377440D01*
X91032563Y-43240858D01*
X91052102Y-43142630D01*
X91061405Y-43095865D01*
X91061405Y-42948024D01*
X91032564Y-42803037D01*
X91032563Y-42803036D01*
X91032563Y-42803032D01*
X90986203Y-42691108D01*
X90975992Y-42666456D01*
X90975985Y-42666443D01*
X90893856Y-42543529D01*
X90893853Y-42543525D01*
X90789324Y-42438996D01*
X90789320Y-42438993D01*
X90666406Y-42356864D01*
X90666393Y-42356857D01*
X90529822Y-42300288D01*
X90529812Y-42300285D01*
X90384825Y-42271445D01*
X90384823Y-42271445D01*
X90236987Y-42271445D01*
X90236985Y-42271445D01*
X90091997Y-42300285D01*
X90091987Y-42300288D01*
X89955416Y-42356857D01*
X89955403Y-42356864D01*
X89832489Y-42438993D01*
X89832485Y-42438996D01*
X89727956Y-42543525D01*
X89727953Y-42543529D01*
X89645824Y-42666443D01*
X89645817Y-42666456D01*
X89589248Y-42803027D01*
X89589245Y-42803037D01*
X89560405Y-42948024D01*
X89560405Y-42948027D01*
X89560405Y-43095863D01*
X89560405Y-43095865D01*
X89560404Y-43095865D01*
X88392560Y-43095865D01*
X88501916Y-42892393D01*
X88504124Y-42888460D01*
X88561836Y-42789891D01*
X89046316Y-41962423D01*
X89048629Y-41958634D01*
X89624282Y-41053013D01*
X89626734Y-41049306D01*
X90235104Y-40165276D01*
X90237706Y-40161640D01*
X90877907Y-39300486D01*
X90880662Y-39296918D01*
X90915242Y-39253788D01*
X91551885Y-38459722D01*
X91554745Y-38456285D01*
X92256153Y-37644095D01*
X92259113Y-37640793D01*
X92989691Y-36854788D01*
X92992781Y-36851583D01*
X93751583Y-36092781D01*
X93754788Y-36089691D01*
X94540793Y-35359113D01*
X94544095Y-35356153D01*
X95356285Y-34654745D01*
X95359722Y-34651885D01*
X96196934Y-33980649D01*
X96200486Y-33977907D01*
X97061640Y-33337706D01*
X97065276Y-33335104D01*
X97949306Y-32726734D01*
X97953013Y-32724282D01*
X98858634Y-32148629D01*
X98862423Y-32146316D01*
X99788476Y-31604114D01*
X99792393Y-31601916D01*
X100431373Y-31258496D01*
X105117683Y-31258496D01*
X105332705Y-31818645D01*
X106126248Y-31514031D01*
X106073272Y-31376025D01*
X106073270Y-31376019D01*
X106045958Y-31322729D01*
X106045956Y-31322726D01*
X105950767Y-31214963D01*
X105950764Y-31214960D01*
X105829082Y-31138388D01*
X105829077Y-31138386D01*
X105690746Y-31099194D01*
X105546975Y-31100565D01*
X105489088Y-31115928D01*
X105489083Y-31115930D01*
X105117683Y-31258496D01*
X100431373Y-31258496D01*
X100737610Y-31093909D01*
X100741606Y-31091855D01*
X101704752Y-30618706D01*
X101708782Y-30616817D01*
X102688576Y-30179154D01*
X102692631Y-30177430D01*
X103687811Y-29775821D01*
X103691962Y-29774234D01*
X104701120Y-29409248D01*
X104705308Y-29407819D01*
X105727096Y-29079942D01*
X105731359Y-29078660D01*
X106764462Y-28788313D01*
X106768735Y-28787196D01*
X107811770Y-28534770D01*
X107816076Y-28533810D01*
X108867626Y-28319647D01*
X108872032Y-28318834D01*
X109883710Y-28151014D01*
X109953065Y-28159462D01*
X110006844Y-28204067D01*
X110027971Y-28270665D01*
X110028000Y-28273342D01*
X110028000Y-31728000D01*
X118428000Y-31728000D01*
X118428000Y-28273342D01*
X118447685Y-28206303D01*
X118500489Y-28160548D01*
X118569647Y-28150604D01*
X118572216Y-28151002D01*
G37*
%TD.AperFunction*%
%TD*%
%TA.AperFunction,Conductor*%
%TO.N,+BATT*%
G36*
X100496913Y-73375623D02*
G01*
X100498133Y-73377069D01*
X100837924Y-73852777D01*
X100839944Y-73861500D01*
X100836676Y-73867850D01*
X100567850Y-74136676D01*
X100559577Y-74140103D01*
X100552777Y-74137924D01*
X100077069Y-73798133D01*
X100072328Y-73790535D01*
X100074348Y-73781812D01*
X100075561Y-73780373D01*
X100277293Y-73577293D01*
X100480367Y-73375567D01*
X100488651Y-73372169D01*
X100496913Y-73375623D01*
G37*
%TD.AperFunction*%
%TD*%
%TA.AperFunction,Conductor*%
%TO.N,+BATT*%
G36*
X101153221Y-74168074D02*
G01*
X101628930Y-74507867D01*
X101633671Y-74515464D01*
X101631651Y-74524187D01*
X101630431Y-74525633D01*
X101428762Y-74728652D01*
X101428707Y-74728707D01*
X101225633Y-74930431D01*
X101217348Y-74933830D01*
X101209086Y-74930376D01*
X101207869Y-74928934D01*
X100868074Y-74453221D01*
X100866055Y-74444499D01*
X100869321Y-74438151D01*
X101138150Y-74169322D01*
X101146422Y-74165896D01*
X101153221Y-74168074D01*
G37*
%TD.AperFunction*%
%TD*%
M02*
