%TF.GenerationSoftware,KiCad,Pcbnew,8.0.0*%
%TF.CreationDate,2024-03-24T15:42:20+01:00*%
%TF.ProjectId,BAT_SWD-Adapterboard,4241545f-5357-4442-9d41-646170746572,rev?*%
%TF.SameCoordinates,Original*%
%TF.FileFunction,Copper,L1,Top*%
%TF.FilePolarity,Positive*%
%FSLAX46Y46*%
G04 Gerber Fmt 4.6, Leading zero omitted, Abs format (unit mm)*
G04 Created by KiCad (PCBNEW 8.0.0) date 2024-03-24 15:42:20*
%MOMM*%
%LPD*%
G01*
G04 APERTURE LIST*
%TA.AperFunction,ComponentPad*%
%ADD10C,0.800000*%
%TD*%
%TA.AperFunction,ComponentPad*%
%ADD11O,1.700000X1.700000*%
%TD*%
%TA.AperFunction,ComponentPad*%
%ADD12R,1.700000X1.700000*%
%TD*%
%TA.AperFunction,SMDPad,CuDef*%
%ADD13R,0.760000X2.400000*%
%TD*%
%TA.AperFunction,ViaPad*%
%ADD14C,0.600000*%
%TD*%
%TA.AperFunction,Conductor*%
%ADD15C,0.200000*%
%TD*%
%TA.AperFunction,Conductor*%
%ADD16C,0.400000*%
%TD*%
G04 APERTURE END LIST*
D10*
%TO.P,J3,1,Pin_1*%
%TO.N,GND*%
X168300000Y-70570200D03*
%TO.P,J3,2,Pin_2*%
%TO.N,unconnected-(J3-Pin_2-Pad2)*%
X168300000Y-71770200D03*
%TO.P,J3,3,Pin_3*%
%TO.N,unconnected-(J3-Pin_3-Pad3)*%
X168300000Y-72970200D03*
%TO.P,J3,4,Pin_4*%
%TO.N,unconnected-(J3-Pin_4-Pad4)*%
X168300000Y-74170200D03*
%TO.P,J3,5,Pin_5*%
%TO.N,unconnected-(J3-Pin_5-Pad5)*%
X168300000Y-75370200D03*
%TO.P,J3,6,Pin_6*%
%TO.N,unconnected-(J3-Pin_6-Pad6)*%
X168300000Y-76570200D03*
%TO.P,J3,7,Pin_7*%
%TO.N,unconnected-(J3-Pin_7-Pad7)*%
X168300000Y-77770200D03*
%TO.P,J3,8,Pin_8*%
%TO.N,/SWCLK*%
X168300000Y-78970200D03*
%TO.P,J3,9,Pin_9*%
%TO.N,/SWDIO*%
X168300000Y-80170200D03*
%TO.P,J3,10,Pin_10*%
%TO.N,/SWO*%
X168300000Y-81370200D03*
%TO.P,J3,11,Pin_11*%
%TO.N,unconnected-(J3-Pin_11-Pad11)*%
X168300000Y-82570200D03*
%TO.P,J3,12,Pin_12*%
%TO.N,GND*%
X168300000Y-83770200D03*
%TO.P,J3,13,Pin_13*%
%TO.N,VCC*%
X171150000Y-84670200D03*
%TO.P,J3,14,Pin_14*%
%TO.N,unconnected-(J3-Pin_14-Pad14)*%
X172350000Y-84670200D03*
%TO.P,J3,15,Pin_15*%
%TO.N,unconnected-(J3-Pin_15-Pad15)*%
X173550000Y-84670200D03*
%TO.P,J3,16,Pin_16*%
%TO.N,unconnected-(J3-Pin_16-Pad16)*%
X174750000Y-84670200D03*
%TO.P,J3,17,Pin_17*%
%TO.N,unconnected-(J3-Pin_17-Pad17)*%
X175950000Y-84670200D03*
%TO.P,J3,18,Pin_18*%
%TO.N,unconnected-(J3-Pin_18-Pad18)*%
X177150000Y-84670200D03*
%TO.P,J3,19,Pin_19*%
%TO.N,unconnected-(J3-Pin_19-Pad19)*%
X178350000Y-84670200D03*
%TO.P,J3,20,Pin_20*%
%TO.N,GND*%
X181200000Y-83770200D03*
%TO.P,J3,21,Pin_21*%
%TO.N,unconnected-(J3-Pin_21-Pad21)*%
X181200000Y-82570200D03*
%TO.P,J3,22,Pin_22*%
%TO.N,unconnected-(J3-Pin_22-Pad22)*%
X181200000Y-81370200D03*
%TO.P,J3,23,Pin_23*%
%TO.N,unconnected-(J3-Pin_23-Pad23)*%
X181200000Y-80170200D03*
%TO.P,J3,24,Pin_24*%
%TO.N,unconnected-(J3-Pin_24-Pad24)*%
X181200000Y-78970200D03*
%TO.P,J3,25,Pin_25*%
%TO.N,unconnected-(J3-Pin_25-Pad25)*%
X181200000Y-77770200D03*
%TO.P,J3,26,Pin_26*%
%TO.N,unconnected-(J3-Pin_26-Pad26)*%
X181200000Y-76570200D03*
%TO.P,J3,27,Pin_27*%
%TO.N,unconnected-(J3-Pin_27-Pad27)*%
X181200000Y-75370200D03*
%TO.P,J3,28,Pin_28*%
%TO.N,unconnected-(J3-Pin_28-Pad28)*%
X181200000Y-74170200D03*
%TO.P,J3,29,Pin_29*%
%TO.N,unconnected-(J3-Pin_29-Pad29)*%
X181200000Y-72970200D03*
%TO.P,J3,30,Pin_30*%
%TO.N,/Reset*%
X181200000Y-71770200D03*
%TO.P,J3,31,Pin_31*%
%TO.N,GND*%
X181200000Y-70570200D03*
%TD*%
D11*
%TO.P,J1,6,Pin_6*%
%TO.N,GND*%
X177355000Y-79335000D03*
%TO.P,J1,5,Pin_5*%
%TO.N,/Reset*%
X177355000Y-81875000D03*
%TO.P,J1,4,Pin_4*%
%TO.N,/SWO*%
X174815000Y-79335000D03*
%TO.P,J1,3,Pin_3*%
%TO.N,/SWCLK*%
X174815000Y-81875000D03*
%TO.P,J1,2,Pin_2*%
%TO.N,/SWDIO*%
X172275000Y-79335000D03*
D12*
%TO.P,J1,1,Pin_1*%
%TO.N,VCC*%
X172275000Y-81875000D03*
%TD*%
D13*
%TO.P,J2,1,1*%
%TO.N,VCC*%
X172260000Y-71950000D03*
%TO.P,J2,2,2*%
%TO.N,/SWDIO*%
X172260000Y-75850000D03*
%TO.P,J2,3,3*%
%TO.N,GND*%
X173530000Y-71950000D03*
%TO.P,J2,4,4*%
%TO.N,/SWCLK*%
X173530000Y-75850000D03*
%TO.P,J2,5,5*%
%TO.N,GND*%
X174800000Y-71950000D03*
%TO.P,J2,6,6*%
%TO.N,/SWO*%
X174800000Y-75850000D03*
%TO.P,J2,7,7*%
%TO.N,unconnected-(J2-Pad7)*%
X176070000Y-71950000D03*
%TO.P,J2,8,8*%
%TO.N,unconnected-(J2-Pad8)*%
X176070000Y-75850000D03*
%TO.P,J2,9,9*%
%TO.N,unconnected-(J2-Pad9)*%
X177340000Y-71950000D03*
%TO.P,J2,10,10*%
%TO.N,/Reset*%
X177340000Y-75850000D03*
%TD*%
D14*
%TO.N,GND*%
X169900000Y-83800000D03*
X170200000Y-79935000D03*
X170200000Y-78735000D03*
X179400000Y-70600000D03*
X170200000Y-70600000D03*
X170200000Y-75400000D03*
X179400000Y-70600000D03*
X179800000Y-83800000D03*
%TO.N,VCC*%
X172200000Y-73900000D03*
%TO.N,/SWCLK*%
X170325735Y-80725735D03*
%TD*%
D15*
%TO.N,/Reset*%
X180100000Y-72650358D02*
X180980158Y-71770200D01*
X180100000Y-73900000D02*
X180100000Y-72650358D01*
X178150000Y-75850000D02*
X180100000Y-73900000D01*
X180980158Y-71770200D02*
X181200000Y-71770200D01*
X177340000Y-75850000D02*
X178150000Y-75850000D01*
%TO.N,/SWCLK*%
X173665000Y-80725000D02*
X174815000Y-81875000D01*
X173665000Y-75685000D02*
X173665000Y-80725000D01*
X173530000Y-75550000D02*
X173665000Y-75685000D01*
X170326470Y-80725000D02*
X173665000Y-80725000D01*
X170325735Y-80725735D02*
X170326470Y-80725000D01*
%TO.N,/SWO*%
X174800000Y-75550000D02*
X174800000Y-79320000D01*
X174800000Y-79320000D02*
X174815000Y-79335000D01*
%TO.N,/SWDIO*%
X168900000Y-80200000D02*
X168329800Y-80200000D01*
X168329800Y-80200000D02*
X168300000Y-80170200D01*
X172260000Y-75550000D02*
X172260000Y-79320000D01*
X172275000Y-79335000D02*
X169765000Y-79335000D01*
X169765000Y-79335000D02*
X168900000Y-80200000D01*
X172260000Y-79320000D02*
X172275000Y-79335000D01*
%TO.N,GND*%
X168300000Y-83770200D02*
X169725735Y-82344465D01*
X169725735Y-80409265D02*
X170200000Y-79935000D01*
X169725735Y-82344465D02*
X169725735Y-80409265D01*
%TO.N,/Reset*%
X176100000Y-80620000D02*
X176100000Y-78700000D01*
X177355000Y-81875000D02*
X176100000Y-80620000D01*
X177340000Y-77460000D02*
X177340000Y-75850000D01*
X176100000Y-78700000D02*
X177340000Y-77460000D01*
D16*
%TO.N,VCC*%
X172200000Y-73900000D02*
X172260000Y-73840000D01*
X172260000Y-73840000D02*
X172260000Y-71650000D01*
X171150000Y-84670200D02*
X172275000Y-83545200D01*
X172275000Y-83545200D02*
X172275000Y-81875000D01*
%TD*%
%TA.AperFunction,Conductor*%
%TO.N,GND*%
G36*
X169439502Y-80612246D02*
G01*
X169495436Y-80654116D01*
X169519854Y-80719581D01*
X169520029Y-80724490D01*
X169540365Y-80904984D01*
X169540366Y-80904989D01*
X169599946Y-81075258D01*
X169666979Y-81181940D01*
X169695919Y-81227997D01*
X169823473Y-81355551D01*
X169976213Y-81451524D01*
X170146480Y-81511103D01*
X170146485Y-81511104D01*
X170325731Y-81531300D01*
X170325735Y-81531300D01*
X170325739Y-81531300D01*
X170504984Y-81511104D01*
X170504987Y-81511103D01*
X170504990Y-81511103D01*
X170675257Y-81451524D01*
X170734527Y-81414281D01*
X170801764Y-81395281D01*
X170868599Y-81415648D01*
X170913813Y-81468916D01*
X170924500Y-81519275D01*
X170924500Y-82772870D01*
X170924501Y-82772876D01*
X170930908Y-82832483D01*
X170981202Y-82967328D01*
X170981206Y-82967335D01*
X171067452Y-83082544D01*
X171067455Y-83082547D01*
X171182664Y-83168793D01*
X171182671Y-83168797D01*
X171317517Y-83219091D01*
X171317516Y-83219091D01*
X171324323Y-83219823D01*
X171388874Y-83246561D01*
X171428723Y-83303953D01*
X171431216Y-83373778D01*
X171398749Y-83430793D01*
X171087026Y-83742516D01*
X171025703Y-83776001D01*
X171025126Y-83776125D01*
X170870197Y-83809055D01*
X170870192Y-83809057D01*
X170697270Y-83886048D01*
X170697265Y-83886051D01*
X170544129Y-83997311D01*
X170417466Y-84137985D01*
X170322821Y-84301915D01*
X170322818Y-84301922D01*
X170264327Y-84481940D01*
X170264326Y-84481944D01*
X170253078Y-84588963D01*
X170226495Y-84653576D01*
X170169197Y-84693561D01*
X170129758Y-84700000D01*
X168860330Y-84700000D01*
X168793291Y-84680315D01*
X168747536Y-84627511D01*
X168738094Y-84561846D01*
X168300000Y-84123752D01*
X168300000Y-84020200D01*
X168349728Y-84020200D01*
X168441614Y-83982140D01*
X168511940Y-83911814D01*
X168550000Y-83819928D01*
X168550000Y-83720472D01*
X168511940Y-83628588D01*
X169088253Y-84204901D01*
X169126720Y-84138276D01*
X169185180Y-83958354D01*
X169204956Y-83770200D01*
X169185180Y-83582045D01*
X169126721Y-83402127D01*
X169126716Y-83402115D01*
X169028877Y-83232651D01*
X169031788Y-83230970D01*
X169012570Y-83179586D01*
X169027360Y-83111299D01*
X169029382Y-83108101D01*
X169029284Y-83108044D01*
X169063354Y-83049032D01*
X169127179Y-82938484D01*
X169185674Y-82758456D01*
X169205460Y-82570200D01*
X169185674Y-82381944D01*
X169127179Y-82201916D01*
X169032533Y-82037984D01*
X169029284Y-82032356D01*
X169031929Y-82030828D01*
X169012779Y-81977621D01*
X169028417Y-81909523D01*
X169029344Y-81908079D01*
X169029284Y-81908044D01*
X169053071Y-81866842D01*
X169127179Y-81738484D01*
X169185674Y-81558456D01*
X169205460Y-81370200D01*
X169185674Y-81181944D01*
X169127179Y-81001916D01*
X169085393Y-80929541D01*
X169068921Y-80861643D01*
X169091774Y-80795616D01*
X169130779Y-80760157D01*
X169131782Y-80759577D01*
X169131785Y-80759577D01*
X169181904Y-80730639D01*
X169268716Y-80680520D01*
X169308488Y-80640748D01*
X169369811Y-80607262D01*
X169439502Y-80612246D01*
G37*
%TD.AperFunction*%
%TA.AperFunction,Conductor*%
G36*
X180366847Y-74584900D02*
G01*
X180422780Y-74626772D01*
X180430900Y-74639081D01*
X180470716Y-74708043D01*
X180468149Y-74709524D01*
X180487250Y-74763298D01*
X180471327Y-74831329D01*
X180470680Y-74832335D01*
X180470716Y-74832356D01*
X180372821Y-75001915D01*
X180372818Y-75001922D01*
X180314327Y-75181940D01*
X180314326Y-75181944D01*
X180294540Y-75370200D01*
X180314326Y-75558456D01*
X180314327Y-75558459D01*
X180372818Y-75738477D01*
X180372821Y-75738484D01*
X180470716Y-75908044D01*
X180468150Y-75909525D01*
X180487250Y-75963298D01*
X180471327Y-76031329D01*
X180470680Y-76032335D01*
X180470716Y-76032356D01*
X180372821Y-76201915D01*
X180372818Y-76201922D01*
X180314750Y-76380639D01*
X180314326Y-76381944D01*
X180294540Y-76570200D01*
X180314326Y-76758456D01*
X180314327Y-76758459D01*
X180372818Y-76938477D01*
X180372821Y-76938484D01*
X180470716Y-77108044D01*
X180468150Y-77109525D01*
X180487250Y-77163298D01*
X180471327Y-77231329D01*
X180470680Y-77232335D01*
X180470716Y-77232356D01*
X180372821Y-77401915D01*
X180372818Y-77401922D01*
X180318147Y-77570183D01*
X180314326Y-77581944D01*
X180294540Y-77770200D01*
X180314326Y-77958456D01*
X180314327Y-77958459D01*
X180372818Y-78138477D01*
X180372821Y-78138484D01*
X180470716Y-78308044D01*
X180468150Y-78309525D01*
X180487250Y-78363298D01*
X180471327Y-78431329D01*
X180470680Y-78432335D01*
X180470716Y-78432356D01*
X180372821Y-78601915D01*
X180372818Y-78601922D01*
X180316444Y-78775426D01*
X180314326Y-78781944D01*
X180294540Y-78970200D01*
X180314326Y-79158456D01*
X180314327Y-79158459D01*
X180372818Y-79338477D01*
X180372821Y-79338484D01*
X180470716Y-79508044D01*
X180468150Y-79509525D01*
X180487250Y-79563298D01*
X180471327Y-79631329D01*
X180470680Y-79632335D01*
X180470716Y-79632356D01*
X180372821Y-79801915D01*
X180372818Y-79801922D01*
X180327835Y-79940367D01*
X180314326Y-79981944D01*
X180294540Y-80170200D01*
X180314326Y-80358456D01*
X180314327Y-80358459D01*
X180372818Y-80538477D01*
X180372821Y-80538484D01*
X180470716Y-80708044D01*
X180468150Y-80709525D01*
X180487250Y-80763298D01*
X180471327Y-80831329D01*
X180470680Y-80832335D01*
X180470716Y-80832356D01*
X180372821Y-81001915D01*
X180372818Y-81001922D01*
X180314327Y-81181940D01*
X180314326Y-81181944D01*
X180294540Y-81370200D01*
X180314326Y-81558456D01*
X180314327Y-81558459D01*
X180372818Y-81738477D01*
X180372821Y-81738484D01*
X180470716Y-81908044D01*
X180468150Y-81909525D01*
X180487250Y-81963298D01*
X180471327Y-82031329D01*
X180470680Y-82032335D01*
X180470716Y-82032356D01*
X180372821Y-82201915D01*
X180372818Y-82201922D01*
X180314327Y-82381940D01*
X180314326Y-82381944D01*
X180294540Y-82570200D01*
X180314326Y-82758456D01*
X180314327Y-82758459D01*
X180372818Y-82938477D01*
X180372821Y-82938484D01*
X180470716Y-83108044D01*
X180468260Y-83109461D01*
X180487553Y-83163591D01*
X180471705Y-83231639D01*
X180471079Y-83232625D01*
X180471123Y-83232651D01*
X180373283Y-83402115D01*
X180373278Y-83402127D01*
X180314819Y-83582045D01*
X180295043Y-83770200D01*
X180314819Y-83958354D01*
X180373278Y-84138272D01*
X180373281Y-84138279D01*
X180411745Y-84204900D01*
X180988059Y-83628587D01*
X180950000Y-83720472D01*
X180950000Y-83819928D01*
X180988060Y-83911814D01*
X181058386Y-83982140D01*
X181150272Y-84020200D01*
X181200000Y-84020200D01*
X181200000Y-84123750D01*
X180760590Y-84563160D01*
X180754455Y-84622907D01*
X180710873Y-84677518D01*
X180644685Y-84699899D01*
X180639669Y-84700000D01*
X179370242Y-84700000D01*
X179303203Y-84680315D01*
X179257448Y-84627511D01*
X179246922Y-84588964D01*
X179235674Y-84481944D01*
X179177179Y-84301916D01*
X179082533Y-84137984D01*
X178955871Y-83997312D01*
X178955870Y-83997311D01*
X178802734Y-83886051D01*
X178802729Y-83886048D01*
X178629807Y-83809057D01*
X178629802Y-83809055D01*
X178484001Y-83778065D01*
X178444646Y-83769700D01*
X178255354Y-83769700D01*
X178222897Y-83776598D01*
X178070197Y-83809055D01*
X178070192Y-83809057D01*
X177897270Y-83886048D01*
X177897265Y-83886051D01*
X177822885Y-83940092D01*
X177757079Y-83963572D01*
X177689025Y-83947746D01*
X177677115Y-83940092D01*
X177602734Y-83886051D01*
X177602729Y-83886048D01*
X177429807Y-83809057D01*
X177429802Y-83809055D01*
X177284001Y-83778065D01*
X177244646Y-83769700D01*
X177055354Y-83769700D01*
X177022897Y-83776598D01*
X176870197Y-83809055D01*
X176870192Y-83809057D01*
X176697270Y-83886048D01*
X176697265Y-83886051D01*
X176622885Y-83940092D01*
X176557079Y-83963572D01*
X176489025Y-83947746D01*
X176477115Y-83940092D01*
X176402734Y-83886051D01*
X176402729Y-83886048D01*
X176229807Y-83809057D01*
X176229802Y-83809055D01*
X176084001Y-83778065D01*
X176044646Y-83769700D01*
X175855354Y-83769700D01*
X175822897Y-83776598D01*
X175670197Y-83809055D01*
X175670192Y-83809057D01*
X175497270Y-83886048D01*
X175497265Y-83886051D01*
X175422885Y-83940092D01*
X175357079Y-83963572D01*
X175289025Y-83947746D01*
X175277115Y-83940092D01*
X175202734Y-83886051D01*
X175202729Y-83886048D01*
X175029807Y-83809057D01*
X175029802Y-83809055D01*
X174884001Y-83778065D01*
X174844646Y-83769700D01*
X174655354Y-83769700D01*
X174622897Y-83776598D01*
X174470197Y-83809055D01*
X174470192Y-83809057D01*
X174297270Y-83886048D01*
X174297265Y-83886051D01*
X174222885Y-83940092D01*
X174157079Y-83963572D01*
X174089025Y-83947746D01*
X174077115Y-83940092D01*
X174002734Y-83886051D01*
X174002729Y-83886048D01*
X173829807Y-83809057D01*
X173829802Y-83809055D01*
X173684001Y-83778065D01*
X173644646Y-83769700D01*
X173455354Y-83769700D01*
X173405375Y-83780323D01*
X173270199Y-83809055D01*
X173123110Y-83874544D01*
X173053860Y-83883828D01*
X172990583Y-83854200D01*
X172953370Y-83795065D01*
X172951057Y-83737073D01*
X172953934Y-83722609D01*
X172975500Y-83614193D01*
X172975500Y-83349499D01*
X172995185Y-83282460D01*
X173047989Y-83236705D01*
X173099500Y-83225499D01*
X173172871Y-83225499D01*
X173172872Y-83225499D01*
X173232483Y-83219091D01*
X173367331Y-83168796D01*
X173482546Y-83082546D01*
X173568796Y-82967331D01*
X173617810Y-82835916D01*
X173659681Y-82779984D01*
X173725145Y-82755566D01*
X173793418Y-82770417D01*
X173821673Y-82791569D01*
X173943599Y-82913495D01*
X174040384Y-82981265D01*
X174137165Y-83049032D01*
X174137167Y-83049033D01*
X174137170Y-83049035D01*
X174351337Y-83148903D01*
X174579592Y-83210063D01*
X174756034Y-83225500D01*
X174814999Y-83230659D01*
X174815000Y-83230659D01*
X174815001Y-83230659D01*
X174873966Y-83225500D01*
X175050408Y-83210063D01*
X175278663Y-83148903D01*
X175492830Y-83049035D01*
X175686401Y-82913495D01*
X175853495Y-82746401D01*
X175983425Y-82560842D01*
X176038002Y-82517217D01*
X176107500Y-82510023D01*
X176169855Y-82541546D01*
X176186575Y-82560842D01*
X176316500Y-82746395D01*
X176316505Y-82746401D01*
X176483599Y-82913495D01*
X176580384Y-82981265D01*
X176677165Y-83049032D01*
X176677167Y-83049033D01*
X176677170Y-83049035D01*
X176891337Y-83148903D01*
X177119592Y-83210063D01*
X177296034Y-83225500D01*
X177354999Y-83230659D01*
X177355000Y-83230659D01*
X177355001Y-83230659D01*
X177413966Y-83225500D01*
X177590408Y-83210063D01*
X177818663Y-83148903D01*
X178032830Y-83049035D01*
X178226401Y-82913495D01*
X178393495Y-82746401D01*
X178529035Y-82552830D01*
X178628903Y-82338663D01*
X178690063Y-82110408D01*
X178710659Y-81875000D01*
X178690063Y-81639592D01*
X178628903Y-81411337D01*
X178529035Y-81197171D01*
X178518371Y-81181940D01*
X178393494Y-81003597D01*
X178226402Y-80836506D01*
X178226401Y-80836505D01*
X178040405Y-80706269D01*
X177996781Y-80651692D01*
X177989588Y-80582193D01*
X178021110Y-80519839D01*
X178040405Y-80503119D01*
X178226082Y-80373105D01*
X178393105Y-80206082D01*
X178528600Y-80012578D01*
X178628429Y-79798492D01*
X178628432Y-79798486D01*
X178685636Y-79585000D01*
X177788012Y-79585000D01*
X177820925Y-79527993D01*
X177855000Y-79400826D01*
X177855000Y-79269174D01*
X177820925Y-79142007D01*
X177788012Y-79085000D01*
X178685636Y-79085000D01*
X178685635Y-79084999D01*
X178628432Y-78871513D01*
X178628429Y-78871507D01*
X178528600Y-78657422D01*
X178528599Y-78657420D01*
X178393113Y-78463926D01*
X178393108Y-78463920D01*
X178226082Y-78296894D01*
X178032578Y-78161399D01*
X177821570Y-78063005D01*
X177769131Y-78016833D01*
X177749979Y-77949639D01*
X177770195Y-77882758D01*
X177786295Y-77862941D01*
X177820520Y-77828716D01*
X177870639Y-77741904D01*
X177899577Y-77691785D01*
X177939087Y-77544331D01*
X177975450Y-77484675D01*
X177984539Y-77477171D01*
X178077546Y-77407546D01*
X178163796Y-77292331D01*
X178214091Y-77157483D01*
X178220500Y-77097873D01*
X178220500Y-76547941D01*
X178240185Y-76480902D01*
X178292989Y-76435147D01*
X178312395Y-76428170D01*
X178381785Y-76409577D01*
X178431904Y-76380639D01*
X178518716Y-76330520D01*
X178630520Y-76218716D01*
X178630520Y-76218714D01*
X178640728Y-76208507D01*
X178640730Y-76208504D01*
X180235834Y-74613399D01*
X180297155Y-74579916D01*
X180366847Y-74584900D01*
G37*
%TD.AperFunction*%
%TA.AperFunction,Conductor*%
G36*
X168369730Y-83490385D02*
G01*
X168390372Y-83507019D01*
X168441612Y-83558259D01*
X168349728Y-83520200D01*
X168300000Y-83520200D01*
X168300000Y-83470700D01*
X168302691Y-83470700D01*
X168369730Y-83490385D01*
G37*
%TD.AperFunction*%
%TA.AperFunction,Conductor*%
G36*
X181200000Y-83520200D02*
G01*
X181150272Y-83520200D01*
X181058387Y-83558259D01*
X181109628Y-83507019D01*
X181170951Y-83473534D01*
X181197309Y-83470700D01*
X181200000Y-83470700D01*
X181200000Y-83520200D01*
G37*
%TD.AperFunction*%
%TA.AperFunction,Conductor*%
G36*
X180699029Y-69719685D02*
G01*
X180719671Y-69736319D01*
X181200000Y-70216648D01*
X181200000Y-70320200D01*
X181150272Y-70320200D01*
X181058386Y-70358260D01*
X180988060Y-70428586D01*
X180950000Y-70520472D01*
X180950000Y-70619928D01*
X180988059Y-70711812D01*
X180411745Y-70135498D01*
X180373279Y-70202123D01*
X180314819Y-70382045D01*
X180295043Y-70570200D01*
X180314819Y-70758354D01*
X180373278Y-70938272D01*
X180373283Y-70938284D01*
X180471123Y-71107749D01*
X180468727Y-71109131D01*
X180487627Y-71164182D01*
X180470985Y-71232040D01*
X180470219Y-71233217D01*
X180372821Y-71401915D01*
X180372819Y-71401919D01*
X180321189Y-71560820D01*
X180290939Y-71610182D01*
X179731286Y-72169836D01*
X179619481Y-72281640D01*
X179619479Y-72281643D01*
X179591691Y-72329775D01*
X179591690Y-72329777D01*
X179540423Y-72418572D01*
X179540423Y-72418573D01*
X179499499Y-72571301D01*
X179499499Y-72571303D01*
X179499499Y-72739404D01*
X179499500Y-72739417D01*
X179499500Y-73599902D01*
X179479815Y-73666941D01*
X179463181Y-73687583D01*
X178432180Y-74718584D01*
X178370857Y-74752069D01*
X178301165Y-74747085D01*
X178245232Y-74705213D01*
X178220815Y-74639749D01*
X178220499Y-74630903D01*
X178220499Y-74602129D01*
X178220498Y-74602123D01*
X178220497Y-74602116D01*
X178214091Y-74542517D01*
X178212584Y-74538477D01*
X178163797Y-74407671D01*
X178163793Y-74407664D01*
X178077547Y-74292455D01*
X178077544Y-74292452D01*
X177962335Y-74206206D01*
X177962328Y-74206202D01*
X177827482Y-74155908D01*
X177827483Y-74155908D01*
X177767883Y-74149501D01*
X177767881Y-74149500D01*
X177767873Y-74149500D01*
X177767864Y-74149500D01*
X176912129Y-74149500D01*
X176912123Y-74149501D01*
X176852515Y-74155909D01*
X176748332Y-74194766D01*
X176678641Y-74199750D01*
X176661668Y-74194766D01*
X176557485Y-74155909D01*
X176557483Y-74155908D01*
X176497883Y-74149501D01*
X176497881Y-74149500D01*
X176497873Y-74149500D01*
X176497864Y-74149500D01*
X175642129Y-74149500D01*
X175642123Y-74149501D01*
X175582515Y-74155909D01*
X175478332Y-74194766D01*
X175408641Y-74199750D01*
X175391668Y-74194766D01*
X175287485Y-74155909D01*
X175287483Y-74155908D01*
X175227883Y-74149501D01*
X175227881Y-74149500D01*
X175227873Y-74149500D01*
X175227864Y-74149500D01*
X174372129Y-74149500D01*
X174372123Y-74149501D01*
X174312515Y-74155909D01*
X174208332Y-74194766D01*
X174138641Y-74199750D01*
X174121668Y-74194766D01*
X174017485Y-74155909D01*
X174017483Y-74155908D01*
X173957883Y-74149501D01*
X173957881Y-74149500D01*
X173957873Y-74149500D01*
X173957865Y-74149500D01*
X173116209Y-74149500D01*
X173049170Y-74129815D01*
X173003415Y-74077011D01*
X172992989Y-74011616D01*
X173005565Y-73900002D01*
X173005565Y-73899996D01*
X172992933Y-73787883D01*
X173004987Y-73719062D01*
X173052337Y-73667682D01*
X173116153Y-73650000D01*
X173280000Y-73650000D01*
X173280000Y-72779362D01*
X173299685Y-72712323D01*
X173352489Y-72666568D01*
X173421647Y-72656624D01*
X173485203Y-72685649D01*
X173491681Y-72691681D01*
X173500000Y-72700000D01*
X173656000Y-72700000D01*
X173723039Y-72719685D01*
X173768794Y-72772489D01*
X173780000Y-72824000D01*
X173780000Y-73650000D01*
X173957828Y-73650000D01*
X173957844Y-73649999D01*
X174017372Y-73643598D01*
X174017376Y-73643597D01*
X174121666Y-73604699D01*
X174191357Y-73599715D01*
X174208334Y-73604699D01*
X174312623Y-73643597D01*
X174312627Y-73643598D01*
X174372155Y-73649999D01*
X174372172Y-73650000D01*
X174550000Y-73650000D01*
X175050000Y-73650000D01*
X175227828Y-73650000D01*
X175227844Y-73649999D01*
X175287372Y-73643598D01*
X175287376Y-73643597D01*
X175390951Y-73604966D01*
X175460643Y-73599982D01*
X175477614Y-73604965D01*
X175582517Y-73644091D01*
X175582516Y-73644091D01*
X175589444Y-73644835D01*
X175642127Y-73650500D01*
X176497872Y-73650499D01*
X176557483Y-73644091D01*
X176661670Y-73605231D01*
X176731358Y-73600248D01*
X176748317Y-73605227D01*
X176852517Y-73644091D01*
X176912127Y-73650500D01*
X177767872Y-73650499D01*
X177827483Y-73644091D01*
X177962331Y-73593796D01*
X178077546Y-73507546D01*
X178163796Y-73392331D01*
X178214091Y-73257483D01*
X178220500Y-73197873D01*
X178220499Y-70702128D01*
X178214091Y-70642517D01*
X178163796Y-70507669D01*
X178163795Y-70507668D01*
X178163793Y-70507664D01*
X178077547Y-70392455D01*
X178077544Y-70392452D01*
X177962335Y-70306206D01*
X177962328Y-70306202D01*
X177827482Y-70255908D01*
X177827483Y-70255908D01*
X177767883Y-70249501D01*
X177767881Y-70249500D01*
X177767873Y-70249500D01*
X177767864Y-70249500D01*
X176912129Y-70249500D01*
X176912123Y-70249501D01*
X176852515Y-70255909D01*
X176748332Y-70294766D01*
X176678641Y-70299750D01*
X176661668Y-70294766D01*
X176557485Y-70255909D01*
X176557483Y-70255908D01*
X176497883Y-70249501D01*
X176497881Y-70249500D01*
X176497873Y-70249500D01*
X176497864Y-70249500D01*
X175642129Y-70249500D01*
X175642123Y-70249501D01*
X175582516Y-70255908D01*
X175477618Y-70295033D01*
X175407926Y-70300017D01*
X175390952Y-70295033D01*
X175287379Y-70256403D01*
X175287372Y-70256401D01*
X175227844Y-70250000D01*
X175050000Y-70250000D01*
X175050000Y-73650000D01*
X174550000Y-73650000D01*
X174550000Y-72824000D01*
X174569685Y-72756961D01*
X174622489Y-72711206D01*
X174674000Y-72700000D01*
X174800000Y-72700000D01*
X174800000Y-71500000D01*
X174674000Y-71500000D01*
X174606961Y-71480315D01*
X174561206Y-71427511D01*
X174550000Y-71376000D01*
X174550000Y-70250000D01*
X174372155Y-70250000D01*
X174312627Y-70256401D01*
X174312617Y-70256403D01*
X174208332Y-70295299D01*
X174138641Y-70300283D01*
X174121668Y-70295299D01*
X174017382Y-70256403D01*
X174017372Y-70256401D01*
X173957844Y-70250000D01*
X173780000Y-70250000D01*
X173780000Y-71376000D01*
X173760315Y-71443039D01*
X173707511Y-71488794D01*
X173656000Y-71500000D01*
X173500000Y-71500000D01*
X173491681Y-71508319D01*
X173430358Y-71541804D01*
X173360666Y-71536820D01*
X173304733Y-71494948D01*
X173280316Y-71429484D01*
X173280000Y-71420638D01*
X173280000Y-70250000D01*
X173102155Y-70250000D01*
X173042627Y-70256401D01*
X173042619Y-70256403D01*
X172939047Y-70295033D01*
X172869355Y-70300017D01*
X172852381Y-70295033D01*
X172747482Y-70255908D01*
X172747483Y-70255908D01*
X172687883Y-70249501D01*
X172687881Y-70249500D01*
X172687873Y-70249500D01*
X172687864Y-70249500D01*
X171832129Y-70249500D01*
X171832123Y-70249501D01*
X171772516Y-70255908D01*
X171637671Y-70306202D01*
X171637664Y-70306206D01*
X171522455Y-70392452D01*
X171522452Y-70392455D01*
X171436206Y-70507664D01*
X171436202Y-70507671D01*
X171385908Y-70642517D01*
X171379501Y-70702116D01*
X171379501Y-70702123D01*
X171379500Y-70702135D01*
X171379500Y-73197870D01*
X171379501Y-73197876D01*
X171385908Y-73257483D01*
X171436202Y-73392328D01*
X171436203Y-73392329D01*
X171436204Y-73392331D01*
X171460556Y-73424861D01*
X171484973Y-73490325D01*
X171474851Y-73543325D01*
X171476510Y-73543906D01*
X171414633Y-73720737D01*
X171414630Y-73720750D01*
X171394435Y-73899996D01*
X171394435Y-73900003D01*
X171414630Y-74079249D01*
X171414633Y-74079262D01*
X171476510Y-74256094D01*
X171474613Y-74256757D01*
X171484359Y-74315977D01*
X171460557Y-74375135D01*
X171436205Y-74407666D01*
X171436202Y-74407671D01*
X171385908Y-74542517D01*
X171381888Y-74579916D01*
X171379501Y-74602123D01*
X171379500Y-74602135D01*
X171379500Y-77097870D01*
X171379501Y-77097876D01*
X171385908Y-77157483D01*
X171436202Y-77292328D01*
X171436206Y-77292335D01*
X171505358Y-77384709D01*
X171522454Y-77407546D01*
X171609811Y-77472942D01*
X171651682Y-77528875D01*
X171659500Y-77572208D01*
X171659500Y-78053387D01*
X171639815Y-78120426D01*
X171601187Y-78157263D01*
X171601605Y-78157860D01*
X171597677Y-78160609D01*
X171597514Y-78160766D01*
X171597176Y-78160961D01*
X171403597Y-78296505D01*
X171236506Y-78463596D01*
X171100965Y-78657170D01*
X171100962Y-78657175D01*
X171098289Y-78662909D01*
X171052115Y-78715346D01*
X170985909Y-78734500D01*
X169851670Y-78734500D01*
X169851654Y-78734499D01*
X169844058Y-78734499D01*
X169685943Y-78734499D01*
X169609579Y-78754961D01*
X169533214Y-78775423D01*
X169533209Y-78775426D01*
X169396290Y-78854475D01*
X169389839Y-78859426D01*
X169389032Y-78858375D01*
X169335096Y-78887821D01*
X169265405Y-78882830D01*
X169209475Y-78840954D01*
X169188694Y-78787941D01*
X169187024Y-78788297D01*
X169185674Y-78781949D01*
X169185674Y-78781944D01*
X169127179Y-78601916D01*
X169032533Y-78437984D01*
X169029284Y-78432356D01*
X169031929Y-78430828D01*
X169012779Y-78377621D01*
X169028417Y-78309523D01*
X169029344Y-78308079D01*
X169029284Y-78308044D01*
X169066733Y-78243179D01*
X169127179Y-78138484D01*
X169185674Y-77958456D01*
X169205460Y-77770200D01*
X169185674Y-77581944D01*
X169127179Y-77401916D01*
X169063910Y-77292331D01*
X169029284Y-77232356D01*
X169031929Y-77230828D01*
X169012779Y-77177621D01*
X169028417Y-77109523D01*
X169029344Y-77108079D01*
X169029284Y-77108044D01*
X169053071Y-77066842D01*
X169127179Y-76938484D01*
X169185674Y-76758456D01*
X169205460Y-76570200D01*
X169185674Y-76381944D01*
X169127179Y-76201916D01*
X169032533Y-76037984D01*
X169029284Y-76032356D01*
X169031929Y-76030828D01*
X169012779Y-75977621D01*
X169028417Y-75909523D01*
X169029344Y-75908079D01*
X169029284Y-75908044D01*
X169053071Y-75866842D01*
X169127179Y-75738484D01*
X169185674Y-75558456D01*
X169205460Y-75370200D01*
X169185674Y-75181944D01*
X169127179Y-75001916D01*
X169032533Y-74837984D01*
X169029284Y-74832356D01*
X169031929Y-74830828D01*
X169012779Y-74777621D01*
X169028417Y-74709523D01*
X169029344Y-74708079D01*
X169029284Y-74708044D01*
X169076206Y-74626772D01*
X169127179Y-74538484D01*
X169185674Y-74358456D01*
X169205460Y-74170200D01*
X169185674Y-73981944D01*
X169127179Y-73801916D01*
X169039758Y-73650498D01*
X169029284Y-73632356D01*
X169031929Y-73630828D01*
X169012779Y-73577621D01*
X169028417Y-73509523D01*
X169029344Y-73508079D01*
X169029284Y-73508044D01*
X169096090Y-73392331D01*
X169127179Y-73338484D01*
X169185674Y-73158456D01*
X169205460Y-72970200D01*
X169185674Y-72781944D01*
X169127179Y-72601916D01*
X169032533Y-72437984D01*
X169029284Y-72432356D01*
X169031929Y-72430828D01*
X169012779Y-72377621D01*
X169028417Y-72309523D01*
X169029344Y-72308079D01*
X169029284Y-72308044D01*
X169053071Y-72266842D01*
X169127179Y-72138484D01*
X169185674Y-71958456D01*
X169205460Y-71770200D01*
X169185674Y-71581944D01*
X169127179Y-71401916D01*
X169032533Y-71237984D01*
X169029284Y-71232356D01*
X169031745Y-71230934D01*
X169012448Y-71176846D01*
X169028275Y-71108793D01*
X169028946Y-71107788D01*
X169028877Y-71107749D01*
X169126716Y-70938284D01*
X169126721Y-70938272D01*
X169185180Y-70758354D01*
X169204956Y-70570200D01*
X169185180Y-70382045D01*
X169126721Y-70202127D01*
X169126718Y-70202120D01*
X169088253Y-70135497D01*
X168511941Y-70711811D01*
X168550000Y-70619928D01*
X168550000Y-70520472D01*
X168511940Y-70428586D01*
X168441614Y-70358260D01*
X168349728Y-70320200D01*
X168300000Y-70320200D01*
X168300000Y-70216647D01*
X168780328Y-69736319D01*
X168841651Y-69702834D01*
X168868009Y-69700000D01*
X180631990Y-69700000D01*
X180699029Y-69719685D01*
G37*
%TD.AperFunction*%
%TA.AperFunction,Conductor*%
G36*
X168390372Y-70833381D02*
G01*
X168329049Y-70866866D01*
X168302691Y-70869700D01*
X168300000Y-70869700D01*
X168300000Y-70820200D01*
X168349728Y-70820200D01*
X168441611Y-70782140D01*
X168390372Y-70833381D01*
G37*
%TD.AperFunction*%
%TA.AperFunction,Conductor*%
G36*
X181150272Y-70820200D02*
G01*
X181200000Y-70820200D01*
X181200000Y-70869700D01*
X181197309Y-70869700D01*
X181130270Y-70850015D01*
X181109628Y-70833381D01*
X181058387Y-70782140D01*
X181150272Y-70820200D01*
G37*
%TD.AperFunction*%
%TD*%
M02*
