%TF.GenerationSoftware,KiCad,Pcbnew,8.0.0*%
%TF.CreationDate,2024-03-24T15:42:20+01:00*%
%TF.ProjectId,BAT_SWD-Adapterboard,4241545f-5357-4442-9d41-646170746572,rev?*%
%TF.SameCoordinates,Original*%
%TF.FileFunction,Copper,L2,Bot*%
%TF.FilePolarity,Positive*%
%FSLAX46Y46*%
G04 Gerber Fmt 4.6, Leading zero omitted, Abs format (unit mm)*
G04 Created by KiCad (PCBNEW 8.0.0) date 2024-03-24 15:42:20*
%MOMM*%
%LPD*%
G01*
G04 APERTURE LIST*
%TA.AperFunction,ComponentPad*%
%ADD10C,0.800000*%
%TD*%
%TA.AperFunction,ComponentPad*%
%ADD11O,1.700000X1.700000*%
%TD*%
%TA.AperFunction,ComponentPad*%
%ADD12R,1.700000X1.700000*%
%TD*%
%TA.AperFunction,ViaPad*%
%ADD13C,0.600000*%
%TD*%
%TA.AperFunction,Conductor*%
%ADD14C,0.200000*%
%TD*%
%TA.AperFunction,Conductor*%
%ADD15C,0.400000*%
%TD*%
G04 APERTURE END LIST*
D10*
%TO.P,J3,1,Pin_1*%
%TO.N,GND*%
X168300000Y-70570200D03*
%TO.P,J3,2,Pin_2*%
%TO.N,unconnected-(J3-Pin_2-Pad2)*%
X168300000Y-71770200D03*
%TO.P,J3,3,Pin_3*%
%TO.N,unconnected-(J3-Pin_3-Pad3)*%
X168300000Y-72970200D03*
%TO.P,J3,4,Pin_4*%
%TO.N,unconnected-(J3-Pin_4-Pad4)*%
X168300000Y-74170200D03*
%TO.P,J3,5,Pin_5*%
%TO.N,unconnected-(J3-Pin_5-Pad5)*%
X168300000Y-75370200D03*
%TO.P,J3,6,Pin_6*%
%TO.N,unconnected-(J3-Pin_6-Pad6)*%
X168300000Y-76570200D03*
%TO.P,J3,7,Pin_7*%
%TO.N,unconnected-(J3-Pin_7-Pad7)*%
X168300000Y-77770200D03*
%TO.P,J3,8,Pin_8*%
%TO.N,/SWCLK*%
X168300000Y-78970200D03*
%TO.P,J3,9,Pin_9*%
%TO.N,/SWDIO*%
X168300000Y-80170200D03*
%TO.P,J3,10,Pin_10*%
%TO.N,/SWO*%
X168300000Y-81370200D03*
%TO.P,J3,11,Pin_11*%
%TO.N,unconnected-(J3-Pin_11-Pad11)*%
X168300000Y-82570200D03*
%TO.P,J3,12,Pin_12*%
%TO.N,GND*%
X168300000Y-83770200D03*
%TO.P,J3,13,Pin_13*%
%TO.N,VCC*%
X171150000Y-84670200D03*
%TO.P,J3,14,Pin_14*%
%TO.N,unconnected-(J3-Pin_14-Pad14)*%
X172350000Y-84670200D03*
%TO.P,J3,15,Pin_15*%
%TO.N,unconnected-(J3-Pin_15-Pad15)*%
X173550000Y-84670200D03*
%TO.P,J3,16,Pin_16*%
%TO.N,unconnected-(J3-Pin_16-Pad16)*%
X174750000Y-84670200D03*
%TO.P,J3,17,Pin_17*%
%TO.N,unconnected-(J3-Pin_17-Pad17)*%
X175950000Y-84670200D03*
%TO.P,J3,18,Pin_18*%
%TO.N,unconnected-(J3-Pin_18-Pad18)*%
X177150000Y-84670200D03*
%TO.P,J3,19,Pin_19*%
%TO.N,unconnected-(J3-Pin_19-Pad19)*%
X178350000Y-84670200D03*
%TO.P,J3,20,Pin_20*%
%TO.N,GND*%
X181200000Y-83770200D03*
%TO.P,J3,21,Pin_21*%
%TO.N,unconnected-(J3-Pin_21-Pad21)*%
X181200000Y-82570200D03*
%TO.P,J3,22,Pin_22*%
%TO.N,unconnected-(J3-Pin_22-Pad22)*%
X181200000Y-81370200D03*
%TO.P,J3,23,Pin_23*%
%TO.N,unconnected-(J3-Pin_23-Pad23)*%
X181200000Y-80170200D03*
%TO.P,J3,24,Pin_24*%
%TO.N,unconnected-(J3-Pin_24-Pad24)*%
X181200000Y-78970200D03*
%TO.P,J3,25,Pin_25*%
%TO.N,unconnected-(J3-Pin_25-Pad25)*%
X181200000Y-77770200D03*
%TO.P,J3,26,Pin_26*%
%TO.N,unconnected-(J3-Pin_26-Pad26)*%
X181200000Y-76570200D03*
%TO.P,J3,27,Pin_27*%
%TO.N,unconnected-(J3-Pin_27-Pad27)*%
X181200000Y-75370200D03*
%TO.P,J3,28,Pin_28*%
%TO.N,unconnected-(J3-Pin_28-Pad28)*%
X181200000Y-74170200D03*
%TO.P,J3,29,Pin_29*%
%TO.N,unconnected-(J3-Pin_29-Pad29)*%
X181200000Y-72970200D03*
%TO.P,J3,30,Pin_30*%
%TO.N,/Reset*%
X181200000Y-71770200D03*
%TO.P,J3,31,Pin_31*%
%TO.N,GND*%
X181200000Y-70570200D03*
%TD*%
D11*
%TO.P,J1,6,Pin_6*%
%TO.N,GND*%
X177355000Y-79335000D03*
%TO.P,J1,5,Pin_5*%
%TO.N,/Reset*%
X177355000Y-81875000D03*
%TO.P,J1,4,Pin_4*%
%TO.N,/SWO*%
X174815000Y-79335000D03*
%TO.P,J1,3,Pin_3*%
%TO.N,/SWCLK*%
X174815000Y-81875000D03*
%TO.P,J1,2,Pin_2*%
%TO.N,/SWDIO*%
X172275000Y-79335000D03*
D12*
%TO.P,J1,1,Pin_1*%
%TO.N,VCC*%
X172275000Y-81875000D03*
%TD*%
D13*
%TO.N,GND*%
X169900000Y-83800000D03*
X170200000Y-79935000D03*
X170200000Y-78735000D03*
X179400000Y-70600000D03*
X170200000Y-70600000D03*
X170200000Y-75400000D03*
X179400000Y-70600000D03*
X179800000Y-83800000D03*
%TO.N,VCC*%
X172200000Y-73900000D03*
%TO.N,/SWCLK*%
X170325735Y-80725735D03*
%TD*%
D14*
%TO.N,/SWO*%
X173675000Y-80725000D02*
X174815000Y-79585000D01*
X171175000Y-80725000D02*
X173675000Y-80725000D01*
X174815000Y-79585000D02*
X174815000Y-79335000D01*
X168300000Y-81370200D02*
X170529800Y-81370200D01*
X170529800Y-81370200D02*
X171175000Y-80725000D01*
%TO.N,GND*%
X170200000Y-79935000D02*
X170200000Y-78735000D01*
D15*
%TO.N,VCC*%
X176100000Y-82506987D02*
X175021783Y-83585204D01*
X175021783Y-83585204D02*
X172234996Y-83585204D01*
X172200000Y-74600000D02*
X176100000Y-78500000D01*
X176100000Y-78500000D02*
X176100000Y-82506987D01*
X172200000Y-73900000D02*
X172200000Y-74600000D01*
X172234996Y-83585204D02*
X171150000Y-84670200D01*
D14*
%TO.N,/SWCLK*%
X169925735Y-80725735D02*
X168300000Y-79100000D01*
X168300000Y-79100000D02*
X168300000Y-78970200D01*
X170325735Y-80725735D02*
X169925735Y-80725735D01*
%TD*%
%TA.AperFunction,Conductor*%
%TO.N,GND*%
G36*
X170838255Y-81929611D02*
G01*
X170896118Y-81968773D01*
X170923623Y-82033001D01*
X170924500Y-82047723D01*
X170924500Y-82772870D01*
X170924501Y-82772876D01*
X170930908Y-82832483D01*
X170981202Y-82967328D01*
X170981206Y-82967335D01*
X171067452Y-83082544D01*
X171067455Y-83082547D01*
X171182664Y-83168793D01*
X171182671Y-83168797D01*
X171317517Y-83219091D01*
X171317516Y-83219091D01*
X171324323Y-83219823D01*
X171388874Y-83246561D01*
X171428723Y-83303953D01*
X171431216Y-83373778D01*
X171398749Y-83430793D01*
X171087026Y-83742516D01*
X171025703Y-83776001D01*
X171025126Y-83776125D01*
X170870197Y-83809055D01*
X170870192Y-83809057D01*
X170697270Y-83886048D01*
X170697265Y-83886051D01*
X170544129Y-83997311D01*
X170417466Y-84137985D01*
X170322821Y-84301915D01*
X170322818Y-84301922D01*
X170264327Y-84481940D01*
X170264326Y-84481944D01*
X170253078Y-84588963D01*
X170226495Y-84653576D01*
X170169197Y-84693561D01*
X170129758Y-84700000D01*
X168860330Y-84700000D01*
X168793291Y-84680315D01*
X168747536Y-84627511D01*
X168738094Y-84561846D01*
X168300000Y-84123752D01*
X168300000Y-84020200D01*
X168349728Y-84020200D01*
X168441614Y-83982140D01*
X168511940Y-83911814D01*
X168550000Y-83819928D01*
X168550000Y-83720472D01*
X168511940Y-83628588D01*
X169088253Y-84204901D01*
X169126720Y-84138276D01*
X169185180Y-83958354D01*
X169204956Y-83770200D01*
X169185180Y-83582045D01*
X169126721Y-83402127D01*
X169126716Y-83402115D01*
X169028877Y-83232651D01*
X169031788Y-83230970D01*
X169012570Y-83179586D01*
X169027360Y-83111299D01*
X169029382Y-83108101D01*
X169029284Y-83108044D01*
X169093921Y-82996088D01*
X169127179Y-82938484D01*
X169185674Y-82758456D01*
X169205460Y-82570200D01*
X169185674Y-82381944D01*
X169127179Y-82201916D01*
X169101072Y-82156698D01*
X169084600Y-82088800D01*
X169107452Y-82022773D01*
X169162374Y-81979583D01*
X169208460Y-81970700D01*
X170443131Y-81970700D01*
X170443147Y-81970701D01*
X170450743Y-81970701D01*
X170608854Y-81970701D01*
X170608857Y-81970701D01*
X170761585Y-81929777D01*
X170761589Y-81929774D01*
X170768406Y-81927948D01*
X170838255Y-81929611D01*
G37*
%TD.AperFunction*%
%TA.AperFunction,Conductor*%
G36*
X180699029Y-69719685D02*
G01*
X180719671Y-69736319D01*
X181200000Y-70216648D01*
X181200000Y-70320200D01*
X181150272Y-70320200D01*
X181058386Y-70358260D01*
X180988060Y-70428586D01*
X180950000Y-70520472D01*
X180950000Y-70619928D01*
X180988059Y-70711812D01*
X180411745Y-70135498D01*
X180373279Y-70202123D01*
X180314819Y-70382045D01*
X180295043Y-70570200D01*
X180314819Y-70758354D01*
X180373278Y-70938272D01*
X180373283Y-70938284D01*
X180471123Y-71107749D01*
X180468727Y-71109131D01*
X180487627Y-71164182D01*
X180470985Y-71232040D01*
X180470219Y-71233217D01*
X180372821Y-71401915D01*
X180372818Y-71401922D01*
X180314327Y-71581940D01*
X180314326Y-71581944D01*
X180294540Y-71770200D01*
X180314326Y-71958456D01*
X180314327Y-71958459D01*
X180372818Y-72138477D01*
X180372821Y-72138484D01*
X180470716Y-72308044D01*
X180468150Y-72309525D01*
X180487250Y-72363298D01*
X180471327Y-72431329D01*
X180470680Y-72432335D01*
X180470716Y-72432356D01*
X180372821Y-72601915D01*
X180372818Y-72601922D01*
X180314327Y-72781940D01*
X180314326Y-72781944D01*
X180294540Y-72970200D01*
X180314326Y-73158456D01*
X180314327Y-73158459D01*
X180372818Y-73338477D01*
X180372821Y-73338484D01*
X180470716Y-73508044D01*
X180468150Y-73509525D01*
X180487250Y-73563298D01*
X180471327Y-73631329D01*
X180470680Y-73632335D01*
X180470716Y-73632356D01*
X180372821Y-73801915D01*
X180372818Y-73801922D01*
X180340951Y-73900000D01*
X180314326Y-73981944D01*
X180294540Y-74170200D01*
X180314326Y-74358456D01*
X180314327Y-74358459D01*
X180372818Y-74538477D01*
X180372821Y-74538484D01*
X180470716Y-74708044D01*
X180468150Y-74709525D01*
X180487250Y-74763298D01*
X180471327Y-74831329D01*
X180470680Y-74832335D01*
X180470716Y-74832356D01*
X180372821Y-75001915D01*
X180372818Y-75001922D01*
X180314327Y-75181940D01*
X180314326Y-75181944D01*
X180294540Y-75370200D01*
X180314326Y-75558456D01*
X180314327Y-75558459D01*
X180372818Y-75738477D01*
X180372821Y-75738484D01*
X180470716Y-75908044D01*
X180468150Y-75909525D01*
X180487250Y-75963298D01*
X180471327Y-76031329D01*
X180470680Y-76032335D01*
X180470716Y-76032356D01*
X180372821Y-76201915D01*
X180372818Y-76201922D01*
X180314327Y-76381940D01*
X180314326Y-76381944D01*
X180294540Y-76570200D01*
X180314326Y-76758456D01*
X180314327Y-76758459D01*
X180372818Y-76938477D01*
X180372821Y-76938484D01*
X180470716Y-77108044D01*
X180468150Y-77109525D01*
X180487250Y-77163298D01*
X180471327Y-77231329D01*
X180470680Y-77232335D01*
X180470716Y-77232356D01*
X180372821Y-77401915D01*
X180372818Y-77401922D01*
X180314327Y-77581940D01*
X180314326Y-77581944D01*
X180294540Y-77770200D01*
X180314326Y-77958456D01*
X180314327Y-77958459D01*
X180372818Y-78138477D01*
X180372821Y-78138484D01*
X180470716Y-78308044D01*
X180468150Y-78309525D01*
X180487250Y-78363298D01*
X180471327Y-78431329D01*
X180470680Y-78432335D01*
X180470716Y-78432356D01*
X180372821Y-78601915D01*
X180372818Y-78601922D01*
X180314327Y-78781940D01*
X180314326Y-78781944D01*
X180294540Y-78970200D01*
X180314326Y-79158456D01*
X180314327Y-79158459D01*
X180372818Y-79338477D01*
X180372821Y-79338484D01*
X180470716Y-79508044D01*
X180468150Y-79509525D01*
X180487250Y-79563298D01*
X180471327Y-79631329D01*
X180470680Y-79632335D01*
X180470716Y-79632356D01*
X180372821Y-79801915D01*
X180372818Y-79801922D01*
X180314327Y-79981940D01*
X180314326Y-79981944D01*
X180294540Y-80170200D01*
X180314326Y-80358456D01*
X180314327Y-80358459D01*
X180372818Y-80538477D01*
X180372821Y-80538484D01*
X180470716Y-80708044D01*
X180468150Y-80709525D01*
X180487250Y-80763298D01*
X180471327Y-80831329D01*
X180470680Y-80832335D01*
X180470716Y-80832356D01*
X180372821Y-81001915D01*
X180372818Y-81001922D01*
X180314327Y-81181940D01*
X180314326Y-81181944D01*
X180294540Y-81370200D01*
X180314326Y-81558456D01*
X180314327Y-81558459D01*
X180372818Y-81738477D01*
X180372821Y-81738484D01*
X180470716Y-81908044D01*
X180468150Y-81909525D01*
X180487250Y-81963298D01*
X180471327Y-82031329D01*
X180470680Y-82032335D01*
X180470716Y-82032356D01*
X180372821Y-82201915D01*
X180372818Y-82201922D01*
X180314327Y-82381940D01*
X180314326Y-82381944D01*
X180294540Y-82570200D01*
X180314326Y-82758456D01*
X180314327Y-82758459D01*
X180372818Y-82938477D01*
X180372821Y-82938484D01*
X180470716Y-83108044D01*
X180468260Y-83109461D01*
X180487553Y-83163591D01*
X180471705Y-83231639D01*
X180471079Y-83232625D01*
X180471123Y-83232651D01*
X180373283Y-83402115D01*
X180373278Y-83402127D01*
X180314819Y-83582045D01*
X180295043Y-83770200D01*
X180314819Y-83958354D01*
X180373278Y-84138272D01*
X180373281Y-84138279D01*
X180411745Y-84204900D01*
X180988059Y-83628587D01*
X180950000Y-83720472D01*
X180950000Y-83819928D01*
X180988060Y-83911814D01*
X181058386Y-83982140D01*
X181150272Y-84020200D01*
X181200000Y-84020200D01*
X181200000Y-84123750D01*
X180760590Y-84563160D01*
X180754455Y-84622907D01*
X180710873Y-84677518D01*
X180644685Y-84699899D01*
X180639669Y-84700000D01*
X179370242Y-84700000D01*
X179303203Y-84680315D01*
X179257448Y-84627511D01*
X179246922Y-84588964D01*
X179235674Y-84481944D01*
X179177179Y-84301916D01*
X179082533Y-84137984D01*
X178955871Y-83997312D01*
X178955870Y-83997311D01*
X178802734Y-83886051D01*
X178802729Y-83886048D01*
X178629807Y-83809057D01*
X178629802Y-83809055D01*
X178479451Y-83777098D01*
X178444646Y-83769700D01*
X178255354Y-83769700D01*
X178222897Y-83776598D01*
X178070197Y-83809055D01*
X178070192Y-83809057D01*
X177897270Y-83886048D01*
X177897265Y-83886051D01*
X177822885Y-83940092D01*
X177757079Y-83963572D01*
X177689025Y-83947746D01*
X177677115Y-83940092D01*
X177602734Y-83886051D01*
X177602729Y-83886048D01*
X177429807Y-83809057D01*
X177429802Y-83809055D01*
X177279451Y-83777098D01*
X177244646Y-83769700D01*
X177055354Y-83769700D01*
X177022897Y-83776598D01*
X176870197Y-83809055D01*
X176870192Y-83809057D01*
X176697270Y-83886048D01*
X176697265Y-83886051D01*
X176622885Y-83940092D01*
X176557079Y-83963572D01*
X176489025Y-83947746D01*
X176477115Y-83940092D01*
X176402734Y-83886051D01*
X176402729Y-83886048D01*
X176229807Y-83809057D01*
X176229802Y-83809055D01*
X176089318Y-83779195D01*
X176027836Y-83746003D01*
X175994060Y-83684840D01*
X175998712Y-83615125D01*
X176027416Y-83570226D01*
X176528386Y-83069256D01*
X176589707Y-83035773D01*
X176659399Y-83040757D01*
X176672235Y-83046805D01*
X176672263Y-83046747D01*
X176677170Y-83049035D01*
X176891337Y-83148903D01*
X177119592Y-83210063D01*
X177296034Y-83225500D01*
X177354999Y-83230659D01*
X177355000Y-83230659D01*
X177355001Y-83230659D01*
X177413966Y-83225500D01*
X177590408Y-83210063D01*
X177818663Y-83148903D01*
X178032830Y-83049035D01*
X178226401Y-82913495D01*
X178393495Y-82746401D01*
X178529035Y-82552830D01*
X178628903Y-82338663D01*
X178690063Y-82110408D01*
X178710659Y-81875000D01*
X178690063Y-81639592D01*
X178628903Y-81411337D01*
X178529035Y-81197171D01*
X178518371Y-81181940D01*
X178393494Y-81003597D01*
X178226402Y-80836506D01*
X178226401Y-80836505D01*
X178040405Y-80706269D01*
X177996781Y-80651692D01*
X177989588Y-80582193D01*
X178021110Y-80519839D01*
X178040405Y-80503119D01*
X178226082Y-80373105D01*
X178393105Y-80206082D01*
X178528600Y-80012578D01*
X178628429Y-79798492D01*
X178628432Y-79798486D01*
X178685636Y-79585000D01*
X177788012Y-79585000D01*
X177820925Y-79527993D01*
X177855000Y-79400826D01*
X177855000Y-79269174D01*
X177820925Y-79142007D01*
X177788012Y-79085000D01*
X178685636Y-79085000D01*
X178685635Y-79084999D01*
X178628432Y-78871513D01*
X178628429Y-78871507D01*
X178528600Y-78657422D01*
X178528599Y-78657420D01*
X178393113Y-78463926D01*
X178393108Y-78463920D01*
X178226082Y-78296894D01*
X178032578Y-78161399D01*
X177818492Y-78061570D01*
X177818486Y-78061567D01*
X177605000Y-78004364D01*
X177605000Y-78901988D01*
X177547993Y-78869075D01*
X177420826Y-78835000D01*
X177289174Y-78835000D01*
X177162007Y-78869075D01*
X177105000Y-78901988D01*
X177105000Y-78004364D01*
X177104999Y-78004364D01*
X176891513Y-78061567D01*
X176891507Y-78061570D01*
X176803423Y-78102643D01*
X176734346Y-78113134D01*
X176670562Y-78084613D01*
X176647917Y-78059149D01*
X176644113Y-78053456D01*
X176644109Y-78053451D01*
X172958692Y-74368035D01*
X172925207Y-74306712D01*
X172929332Y-74239399D01*
X172985366Y-74079262D01*
X172985369Y-74079249D01*
X173005565Y-73900003D01*
X173005565Y-73899996D01*
X172985369Y-73720750D01*
X172985368Y-73720745D01*
X172953905Y-73630828D01*
X172925789Y-73550478D01*
X172900056Y-73509525D01*
X172829815Y-73397737D01*
X172702262Y-73270184D01*
X172549523Y-73174211D01*
X172379254Y-73114631D01*
X172379249Y-73114630D01*
X172200004Y-73094435D01*
X172199996Y-73094435D01*
X172020750Y-73114630D01*
X172020745Y-73114631D01*
X171850476Y-73174211D01*
X171697737Y-73270184D01*
X171570184Y-73397737D01*
X171474211Y-73550476D01*
X171414631Y-73720745D01*
X171414630Y-73720750D01*
X171394435Y-73899996D01*
X171394435Y-73900003D01*
X171414630Y-74079249D01*
X171414631Y-74079254D01*
X171474212Y-74249525D01*
X171480492Y-74259519D01*
X171499500Y-74325493D01*
X171499500Y-74531006D01*
X171499500Y-74668994D01*
X171499500Y-74668996D01*
X171499499Y-74668996D01*
X171526418Y-74804322D01*
X171526421Y-74804332D01*
X171579222Y-74931807D01*
X171655887Y-75046545D01*
X171655888Y-75046546D01*
X174451137Y-77841794D01*
X174484622Y-77903117D01*
X174479638Y-77972809D01*
X174437766Y-78028742D01*
X174395550Y-78049250D01*
X174351341Y-78061095D01*
X174351335Y-78061098D01*
X174137171Y-78160964D01*
X174137169Y-78160965D01*
X173943597Y-78296505D01*
X173776505Y-78463597D01*
X173646575Y-78649158D01*
X173591998Y-78692783D01*
X173522500Y-78699977D01*
X173460145Y-78668454D01*
X173443425Y-78649158D01*
X173313494Y-78463597D01*
X173146402Y-78296506D01*
X173146395Y-78296501D01*
X172952834Y-78160967D01*
X172952830Y-78160965D01*
X172827758Y-78102643D01*
X172738663Y-78061097D01*
X172738659Y-78061096D01*
X172738655Y-78061094D01*
X172510413Y-77999938D01*
X172510403Y-77999936D01*
X172275001Y-77979341D01*
X172274999Y-77979341D01*
X172039596Y-77999936D01*
X172039586Y-77999938D01*
X171811344Y-78061094D01*
X171811335Y-78061098D01*
X171597171Y-78160964D01*
X171597169Y-78160965D01*
X171403597Y-78296505D01*
X171236505Y-78463597D01*
X171100965Y-78657169D01*
X171100964Y-78657171D01*
X171001098Y-78871335D01*
X171001094Y-78871344D01*
X170939938Y-79099586D01*
X170939936Y-79099596D01*
X170919341Y-79334999D01*
X170919341Y-79335000D01*
X170939936Y-79570403D01*
X170939938Y-79570413D01*
X171001094Y-79798655D01*
X171001096Y-79798659D01*
X171001097Y-79798663D01*
X171057757Y-79920170D01*
X171084242Y-79976968D01*
X171094734Y-80046046D01*
X171066214Y-80109830D01*
X171007738Y-80148069D01*
X171003952Y-80149148D01*
X170976311Y-80156554D01*
X170906461Y-80154891D01*
X170856538Y-80124460D01*
X170827997Y-80095919D01*
X170675258Y-79999946D01*
X170504989Y-79940366D01*
X170504984Y-79940365D01*
X170325739Y-79920170D01*
X170325731Y-79920170D01*
X170146481Y-79940366D01*
X170146480Y-79940366D01*
X170103806Y-79955298D01*
X170034027Y-79958859D01*
X169975172Y-79925937D01*
X169229589Y-79180354D01*
X169196104Y-79119031D01*
X169193949Y-79079714D01*
X169205460Y-78970200D01*
X169185674Y-78781944D01*
X169127179Y-78601916D01*
X169032533Y-78437984D01*
X169029284Y-78432356D01*
X169031929Y-78430828D01*
X169012779Y-78377621D01*
X169028417Y-78309523D01*
X169029344Y-78308079D01*
X169029284Y-78308044D01*
X169053071Y-78266842D01*
X169127179Y-78138484D01*
X169185674Y-77958456D01*
X169205460Y-77770200D01*
X169185674Y-77581944D01*
X169127179Y-77401916D01*
X169032533Y-77237984D01*
X169029284Y-77232356D01*
X169031929Y-77230828D01*
X169012779Y-77177621D01*
X169028417Y-77109523D01*
X169029344Y-77108079D01*
X169029284Y-77108044D01*
X169053071Y-77066842D01*
X169127179Y-76938484D01*
X169185674Y-76758456D01*
X169205460Y-76570200D01*
X169185674Y-76381944D01*
X169127179Y-76201916D01*
X169032533Y-76037984D01*
X169029284Y-76032356D01*
X169031929Y-76030828D01*
X169012779Y-75977621D01*
X169028417Y-75909523D01*
X169029344Y-75908079D01*
X169029284Y-75908044D01*
X169053071Y-75866842D01*
X169127179Y-75738484D01*
X169185674Y-75558456D01*
X169205460Y-75370200D01*
X169185674Y-75181944D01*
X169127179Y-75001916D01*
X169032533Y-74837984D01*
X169029284Y-74832356D01*
X169031929Y-74830828D01*
X169012779Y-74777621D01*
X169028417Y-74709523D01*
X169029344Y-74708079D01*
X169029284Y-74708044D01*
X169053071Y-74666842D01*
X169127179Y-74538484D01*
X169185674Y-74358456D01*
X169205460Y-74170200D01*
X169185674Y-73981944D01*
X169127179Y-73801916D01*
X169032533Y-73637984D01*
X169029284Y-73632356D01*
X169031929Y-73630828D01*
X169012779Y-73577621D01*
X169028417Y-73509523D01*
X169029344Y-73508079D01*
X169029284Y-73508044D01*
X169053071Y-73466842D01*
X169127179Y-73338484D01*
X169185674Y-73158456D01*
X169205460Y-72970200D01*
X169185674Y-72781944D01*
X169127179Y-72601916D01*
X169032533Y-72437984D01*
X169029284Y-72432356D01*
X169031929Y-72430828D01*
X169012779Y-72377621D01*
X169028417Y-72309523D01*
X169029344Y-72308079D01*
X169029284Y-72308044D01*
X169053071Y-72266842D01*
X169127179Y-72138484D01*
X169185674Y-71958456D01*
X169205460Y-71770200D01*
X169185674Y-71581944D01*
X169127179Y-71401916D01*
X169032533Y-71237984D01*
X169029284Y-71232356D01*
X169031745Y-71230934D01*
X169012448Y-71176846D01*
X169028275Y-71108793D01*
X169028946Y-71107788D01*
X169028877Y-71107749D01*
X169126716Y-70938284D01*
X169126721Y-70938272D01*
X169185180Y-70758354D01*
X169204956Y-70570200D01*
X169185180Y-70382045D01*
X169126721Y-70202127D01*
X169126718Y-70202120D01*
X169088253Y-70135497D01*
X168511941Y-70711811D01*
X168550000Y-70619928D01*
X168550000Y-70520472D01*
X168511940Y-70428586D01*
X168441614Y-70358260D01*
X168349728Y-70320200D01*
X168300000Y-70320200D01*
X168300000Y-70216647D01*
X168780328Y-69736319D01*
X168841651Y-69702834D01*
X168868009Y-69700000D01*
X180631990Y-69700000D01*
X180699029Y-69719685D01*
G37*
%TD.AperFunction*%
%TA.AperFunction,Conductor*%
G36*
X168369730Y-83490385D02*
G01*
X168390372Y-83507019D01*
X168441612Y-83558259D01*
X168349728Y-83520200D01*
X168300000Y-83520200D01*
X168300000Y-83470700D01*
X168302691Y-83470700D01*
X168369730Y-83490385D01*
G37*
%TD.AperFunction*%
%TA.AperFunction,Conductor*%
G36*
X181200000Y-83520200D02*
G01*
X181150272Y-83520200D01*
X181058387Y-83558259D01*
X181109628Y-83507019D01*
X181170951Y-83473534D01*
X181197309Y-83470700D01*
X181200000Y-83470700D01*
X181200000Y-83520200D01*
G37*
%TD.AperFunction*%
%TA.AperFunction,Conductor*%
G36*
X168390372Y-70833381D02*
G01*
X168329049Y-70866866D01*
X168302691Y-70869700D01*
X168300000Y-70869700D01*
X168300000Y-70820200D01*
X168349728Y-70820200D01*
X168441611Y-70782140D01*
X168390372Y-70833381D01*
G37*
%TD.AperFunction*%
%TA.AperFunction,Conductor*%
G36*
X181150272Y-70820200D02*
G01*
X181200000Y-70820200D01*
X181200000Y-70869700D01*
X181197309Y-70869700D01*
X181130270Y-70850015D01*
X181109628Y-70833381D01*
X181058387Y-70782140D01*
X181150272Y-70820200D01*
G37*
%TD.AperFunction*%
%TD*%
M02*
