M48
; DRILL file {KiCad 8.0.0} date 2024-03-20T21:34:23+0100
; FORMAT={-:-/ absolute / inch / decimal}
; #@! TF.CreationDate,2024-03-20T21:34:23+01:00
; #@! TF.GenerationSoftware,Kicad,Pcbnew,8.0.0
; #@! TF.FileFunction,Plated,1,2,PTH
FMAT,2
INCH
; #@! TA.AperFunction,Plated,PTH,ViaDrill
T1C0.0118
; #@! TA.AperFunction,Plated,PTH,ComponentDrill
T2C0.0197
; #@! TA.AperFunction,Plated,PTH,ComponentDrill
T3C0.0394
%
G90
G05
T1
X6.689Y-3.2992
X6.7008Y-2.7795
X6.7008Y-2.9685
X6.7008Y-3.0998
X6.7008Y-3.147
X6.7057Y-3.1782
X6.7795Y-2.9094
X7.063Y-2.7795
X7.063Y-2.7795
X7.0787Y-3.2992
T2
X6.626Y-2.7784
X6.626Y-2.8256
X6.626Y-2.8728
X6.626Y-2.9201
X6.626Y-2.9673
X6.626Y-3.0146
X6.626Y-3.0618
X6.626Y-3.1091
X6.626Y-3.1563
X6.626Y-3.2036
X6.626Y-3.2508
X6.626Y-3.298
X6.7382Y-3.3335
X6.7854Y-3.3335
X6.8327Y-3.3335
X6.8799Y-3.3335
X6.9272Y-3.3335
X6.9744Y-3.3335
X7.0217Y-3.3335
X7.1339Y-2.7784
X7.1339Y-2.8256
X7.1339Y-2.8728
X7.1339Y-2.9201
X7.1339Y-2.9673
X7.1339Y-3.0146
X7.1339Y-3.0618
X7.1339Y-3.1091
X7.1339Y-3.1563
X7.1339Y-3.2036
X7.1339Y-3.2508
X7.1339Y-3.298
T3
X6.7825Y-3.1234
X6.7825Y-3.2234
X6.8825Y-3.1234
X6.8825Y-3.2234
X6.9825Y-3.1234
X6.9825Y-3.2234
M30
