%TF.GenerationSoftware,KiCad,Pcbnew,8.0.0*%
%TF.CreationDate,2024-03-20T21:34:19+01:00*%
%TF.ProjectId,BAT_SWD-Adapterboard,4241545f-5357-4442-9d41-646170746572,rev?*%
%TF.SameCoordinates,Original*%
%TF.FileFunction,Legend,Bot*%
%TF.FilePolarity,Positive*%
%FSLAX46Y46*%
G04 Gerber Fmt 4.6, Leading zero omitted, Abs format (unit mm)*
G04 Created by KiCad (PCBNEW 8.0.0) date 2024-03-20 21:34:19*
%MOMM*%
%LPD*%
G01*
G04 APERTURE LIST*
%ADD10C,0.150000*%
G04 APERTURE END LIST*
D10*
X179510839Y-73302312D02*
X179367982Y-73349931D01*
X179367982Y-73349931D02*
X179129887Y-73349931D01*
X179129887Y-73349931D02*
X179034649Y-73302312D01*
X179034649Y-73302312D02*
X178987030Y-73254692D01*
X178987030Y-73254692D02*
X178939411Y-73159454D01*
X178939411Y-73159454D02*
X178939411Y-73064216D01*
X178939411Y-73064216D02*
X178987030Y-72968978D01*
X178987030Y-72968978D02*
X179034649Y-72921359D01*
X179034649Y-72921359D02*
X179129887Y-72873740D01*
X179129887Y-72873740D02*
X179320363Y-72826121D01*
X179320363Y-72826121D02*
X179415601Y-72778502D01*
X179415601Y-72778502D02*
X179463220Y-72730883D01*
X179463220Y-72730883D02*
X179510839Y-72635645D01*
X179510839Y-72635645D02*
X179510839Y-72540407D01*
X179510839Y-72540407D02*
X179463220Y-72445169D01*
X179463220Y-72445169D02*
X179415601Y-72397550D01*
X179415601Y-72397550D02*
X179320363Y-72349931D01*
X179320363Y-72349931D02*
X179082268Y-72349931D01*
X179082268Y-72349931D02*
X178939411Y-72397550D01*
X178606077Y-72349931D02*
X178367982Y-73349931D01*
X178367982Y-73349931D02*
X178177506Y-72635645D01*
X178177506Y-72635645D02*
X177987030Y-73349931D01*
X177987030Y-73349931D02*
X177748935Y-72349931D01*
X177367982Y-73349931D02*
X177367982Y-72349931D01*
X177367982Y-72349931D02*
X177129887Y-72349931D01*
X177129887Y-72349931D02*
X176987030Y-72397550D01*
X176987030Y-72397550D02*
X176891792Y-72492788D01*
X176891792Y-72492788D02*
X176844173Y-72588026D01*
X176844173Y-72588026D02*
X176796554Y-72778502D01*
X176796554Y-72778502D02*
X176796554Y-72921359D01*
X176796554Y-72921359D02*
X176844173Y-73111835D01*
X176844173Y-73111835D02*
X176891792Y-73207073D01*
X176891792Y-73207073D02*
X176987030Y-73302312D01*
X176987030Y-73302312D02*
X177129887Y-73349931D01*
X177129887Y-73349931D02*
X177367982Y-73349931D01*
X176367982Y-72968978D02*
X175606078Y-72968978D01*
X175177506Y-73064216D02*
X174701316Y-73064216D01*
X175272744Y-73349931D02*
X174939411Y-72349931D01*
X174939411Y-72349931D02*
X174606078Y-73349931D01*
X173844173Y-73349931D02*
X173844173Y-72349931D01*
X173844173Y-73302312D02*
X173939411Y-73349931D01*
X173939411Y-73349931D02*
X174129887Y-73349931D01*
X174129887Y-73349931D02*
X174225125Y-73302312D01*
X174225125Y-73302312D02*
X174272744Y-73254692D01*
X174272744Y-73254692D02*
X174320363Y-73159454D01*
X174320363Y-73159454D02*
X174320363Y-72873740D01*
X174320363Y-72873740D02*
X174272744Y-72778502D01*
X174272744Y-72778502D02*
X174225125Y-72730883D01*
X174225125Y-72730883D02*
X174129887Y-72683264D01*
X174129887Y-72683264D02*
X173939411Y-72683264D01*
X173939411Y-72683264D02*
X173844173Y-72730883D01*
X172939411Y-73349931D02*
X172939411Y-72826121D01*
X172939411Y-72826121D02*
X172987030Y-72730883D01*
X172987030Y-72730883D02*
X173082268Y-72683264D01*
X173082268Y-72683264D02*
X173272744Y-72683264D01*
X173272744Y-72683264D02*
X173367982Y-72730883D01*
X172939411Y-73302312D02*
X173034649Y-73349931D01*
X173034649Y-73349931D02*
X173272744Y-73349931D01*
X173272744Y-73349931D02*
X173367982Y-73302312D01*
X173367982Y-73302312D02*
X173415601Y-73207073D01*
X173415601Y-73207073D02*
X173415601Y-73111835D01*
X173415601Y-73111835D02*
X173367982Y-73016597D01*
X173367982Y-73016597D02*
X173272744Y-72968978D01*
X173272744Y-72968978D02*
X173034649Y-72968978D01*
X173034649Y-72968978D02*
X172939411Y-72921359D01*
X172463220Y-72683264D02*
X172463220Y-73683264D01*
X172463220Y-72730883D02*
X172367982Y-72683264D01*
X172367982Y-72683264D02*
X172177506Y-72683264D01*
X172177506Y-72683264D02*
X172082268Y-72730883D01*
X172082268Y-72730883D02*
X172034649Y-72778502D01*
X172034649Y-72778502D02*
X171987030Y-72873740D01*
X171987030Y-72873740D02*
X171987030Y-73159454D01*
X171987030Y-73159454D02*
X172034649Y-73254692D01*
X172034649Y-73254692D02*
X172082268Y-73302312D01*
X172082268Y-73302312D02*
X172177506Y-73349931D01*
X172177506Y-73349931D02*
X172367982Y-73349931D01*
X172367982Y-73349931D02*
X172463220Y-73302312D01*
X171701315Y-72683264D02*
X171320363Y-72683264D01*
X171558458Y-72349931D02*
X171558458Y-73207073D01*
X171558458Y-73207073D02*
X171510839Y-73302312D01*
X171510839Y-73302312D02*
X171415601Y-73349931D01*
X171415601Y-73349931D02*
X171320363Y-73349931D01*
X170606077Y-73302312D02*
X170701315Y-73349931D01*
X170701315Y-73349931D02*
X170891791Y-73349931D01*
X170891791Y-73349931D02*
X170987029Y-73302312D01*
X170987029Y-73302312D02*
X171034648Y-73207073D01*
X171034648Y-73207073D02*
X171034648Y-72826121D01*
X171034648Y-72826121D02*
X170987029Y-72730883D01*
X170987029Y-72730883D02*
X170891791Y-72683264D01*
X170891791Y-72683264D02*
X170701315Y-72683264D01*
X170701315Y-72683264D02*
X170606077Y-72730883D01*
X170606077Y-72730883D02*
X170558458Y-72826121D01*
X170558458Y-72826121D02*
X170558458Y-72921359D01*
X170558458Y-72921359D02*
X171034648Y-73016597D01*
X170129886Y-73349931D02*
X170129886Y-72683264D01*
X170129886Y-72873740D02*
X170082267Y-72778502D01*
X170082267Y-72778502D02*
X170034648Y-72730883D01*
X170034648Y-72730883D02*
X169939410Y-72683264D01*
X169939410Y-72683264D02*
X169844172Y-72683264D01*
X179177506Y-75340827D02*
X179225125Y-75293208D01*
X179225125Y-75293208D02*
X179320363Y-75150351D01*
X179320363Y-75150351D02*
X179367982Y-75055113D01*
X179367982Y-75055113D02*
X179415601Y-74912256D01*
X179415601Y-74912256D02*
X179463220Y-74674160D01*
X179463220Y-74674160D02*
X179463220Y-74483684D01*
X179463220Y-74483684D02*
X179415601Y-74245589D01*
X179415601Y-74245589D02*
X179367982Y-74102732D01*
X179367982Y-74102732D02*
X179320363Y-74007494D01*
X179320363Y-74007494D02*
X179225125Y-73864636D01*
X179225125Y-73864636D02*
X179177506Y-73817017D01*
X178225125Y-74864636D02*
X178272744Y-74912256D01*
X178272744Y-74912256D02*
X178415601Y-74959875D01*
X178415601Y-74959875D02*
X178510839Y-74959875D01*
X178510839Y-74959875D02*
X178653696Y-74912256D01*
X178653696Y-74912256D02*
X178748934Y-74817017D01*
X178748934Y-74817017D02*
X178796553Y-74721779D01*
X178796553Y-74721779D02*
X178844172Y-74531303D01*
X178844172Y-74531303D02*
X178844172Y-74388446D01*
X178844172Y-74388446D02*
X178796553Y-74197970D01*
X178796553Y-74197970D02*
X178748934Y-74102732D01*
X178748934Y-74102732D02*
X178653696Y-74007494D01*
X178653696Y-74007494D02*
X178510839Y-73959875D01*
X178510839Y-73959875D02*
X178415601Y-73959875D01*
X178415601Y-73959875D02*
X178272744Y-74007494D01*
X178272744Y-74007494D02*
X178225125Y-74055113D01*
X177891791Y-75340827D02*
X177844172Y-75293208D01*
X177844172Y-75293208D02*
X177748934Y-75150351D01*
X177748934Y-75150351D02*
X177701315Y-75055113D01*
X177701315Y-75055113D02*
X177653696Y-74912256D01*
X177653696Y-74912256D02*
X177606077Y-74674160D01*
X177606077Y-74674160D02*
X177606077Y-74483684D01*
X177606077Y-74483684D02*
X177653696Y-74245589D01*
X177653696Y-74245589D02*
X177701315Y-74102732D01*
X177701315Y-74102732D02*
X177748934Y-74007494D01*
X177748934Y-74007494D02*
X177844172Y-73864636D01*
X177844172Y-73864636D02*
X177891791Y-73817017D01*
X176415600Y-74912256D02*
X176272743Y-74959875D01*
X176272743Y-74959875D02*
X176034648Y-74959875D01*
X176034648Y-74959875D02*
X175939410Y-74912256D01*
X175939410Y-74912256D02*
X175891791Y-74864636D01*
X175891791Y-74864636D02*
X175844172Y-74769398D01*
X175844172Y-74769398D02*
X175844172Y-74674160D01*
X175844172Y-74674160D02*
X175891791Y-74578922D01*
X175891791Y-74578922D02*
X175939410Y-74531303D01*
X175939410Y-74531303D02*
X176034648Y-74483684D01*
X176034648Y-74483684D02*
X176225124Y-74436065D01*
X176225124Y-74436065D02*
X176320362Y-74388446D01*
X176320362Y-74388446D02*
X176367981Y-74340827D01*
X176367981Y-74340827D02*
X176415600Y-74245589D01*
X176415600Y-74245589D02*
X176415600Y-74150351D01*
X176415600Y-74150351D02*
X176367981Y-74055113D01*
X176367981Y-74055113D02*
X176320362Y-74007494D01*
X176320362Y-74007494D02*
X176225124Y-73959875D01*
X176225124Y-73959875D02*
X175987029Y-73959875D01*
X175987029Y-73959875D02*
X175844172Y-74007494D01*
X175415600Y-74864636D02*
X175367981Y-74912256D01*
X175367981Y-74912256D02*
X175415600Y-74959875D01*
X175415600Y-74959875D02*
X175463219Y-74912256D01*
X175463219Y-74912256D02*
X175415600Y-74864636D01*
X175415600Y-74864636D02*
X175415600Y-74959875D01*
X174177505Y-74959875D02*
X174177505Y-73959875D01*
X174177505Y-73959875D02*
X173606077Y-74959875D01*
X173606077Y-74959875D02*
X173606077Y-73959875D01*
X173129886Y-74959875D02*
X173129886Y-74293208D01*
X173129886Y-73959875D02*
X173177505Y-74007494D01*
X173177505Y-74007494D02*
X173129886Y-74055113D01*
X173129886Y-74055113D02*
X173082267Y-74007494D01*
X173082267Y-74007494D02*
X173129886Y-73959875D01*
X173129886Y-73959875D02*
X173129886Y-74055113D01*
X172225125Y-74912256D02*
X172320363Y-74959875D01*
X172320363Y-74959875D02*
X172510839Y-74959875D01*
X172510839Y-74959875D02*
X172606077Y-74912256D01*
X172606077Y-74912256D02*
X172653696Y-74864636D01*
X172653696Y-74864636D02*
X172701315Y-74769398D01*
X172701315Y-74769398D02*
X172701315Y-74483684D01*
X172701315Y-74483684D02*
X172653696Y-74388446D01*
X172653696Y-74388446D02*
X172606077Y-74340827D01*
X172606077Y-74340827D02*
X172510839Y-74293208D01*
X172510839Y-74293208D02*
X172320363Y-74293208D01*
X172320363Y-74293208D02*
X172225125Y-74340827D01*
X171653696Y-74959875D02*
X171748934Y-74912256D01*
X171748934Y-74912256D02*
X171796553Y-74864636D01*
X171796553Y-74864636D02*
X171844172Y-74769398D01*
X171844172Y-74769398D02*
X171844172Y-74483684D01*
X171844172Y-74483684D02*
X171796553Y-74388446D01*
X171796553Y-74388446D02*
X171748934Y-74340827D01*
X171748934Y-74340827D02*
X171653696Y-74293208D01*
X171653696Y-74293208D02*
X171510839Y-74293208D01*
X171510839Y-74293208D02*
X171415601Y-74340827D01*
X171415601Y-74340827D02*
X171367982Y-74388446D01*
X171367982Y-74388446D02*
X171320363Y-74483684D01*
X171320363Y-74483684D02*
X171320363Y-74769398D01*
X171320363Y-74769398D02*
X171367982Y-74864636D01*
X171367982Y-74864636D02*
X171415601Y-74912256D01*
X171415601Y-74912256D02*
X171510839Y-74959875D01*
X171510839Y-74959875D02*
X171653696Y-74959875D01*
X170891791Y-74959875D02*
X170891791Y-74293208D01*
X170891791Y-74483684D02*
X170844172Y-74388446D01*
X170844172Y-74388446D02*
X170796553Y-74340827D01*
X170796553Y-74340827D02*
X170701315Y-74293208D01*
X170701315Y-74293208D02*
X170606077Y-74293208D01*
X169844172Y-74959875D02*
X169844172Y-74436065D01*
X169844172Y-74436065D02*
X169891791Y-74340827D01*
X169891791Y-74340827D02*
X169987029Y-74293208D01*
X169987029Y-74293208D02*
X170177505Y-74293208D01*
X170177505Y-74293208D02*
X170272743Y-74340827D01*
X169844172Y-74912256D02*
X169939410Y-74959875D01*
X169939410Y-74959875D02*
X170177505Y-74959875D01*
X170177505Y-74959875D02*
X170272743Y-74912256D01*
X170272743Y-74912256D02*
X170320362Y-74817017D01*
X170320362Y-74817017D02*
X170320362Y-74721779D01*
X170320362Y-74721779D02*
X170272743Y-74626541D01*
X170272743Y-74626541D02*
X170177505Y-74578922D01*
X170177505Y-74578922D02*
X169939410Y-74578922D01*
X169939410Y-74578922D02*
X169844172Y-74531303D01*
X179606077Y-75569819D02*
X179272744Y-76569819D01*
X179272744Y-76569819D02*
X178939411Y-75569819D01*
X178082268Y-76569819D02*
X178653696Y-76569819D01*
X178367982Y-76569819D02*
X178367982Y-75569819D01*
X178367982Y-75569819D02*
X178463220Y-75712676D01*
X178463220Y-75712676D02*
X178558458Y-75807914D01*
X178558458Y-75807914D02*
X178653696Y-75855533D01*
X177653696Y-76474580D02*
X177606077Y-76522200D01*
X177606077Y-76522200D02*
X177653696Y-76569819D01*
X177653696Y-76569819D02*
X177701315Y-76522200D01*
X177701315Y-76522200D02*
X177653696Y-76474580D01*
X177653696Y-76474580D02*
X177653696Y-76569819D01*
X176987030Y-75569819D02*
X176891792Y-75569819D01*
X176891792Y-75569819D02*
X176796554Y-75617438D01*
X176796554Y-75617438D02*
X176748935Y-75665057D01*
X176748935Y-75665057D02*
X176701316Y-75760295D01*
X176701316Y-75760295D02*
X176653697Y-75950771D01*
X176653697Y-75950771D02*
X176653697Y-76188866D01*
X176653697Y-76188866D02*
X176701316Y-76379342D01*
X176701316Y-76379342D02*
X176748935Y-76474580D01*
X176748935Y-76474580D02*
X176796554Y-76522200D01*
X176796554Y-76522200D02*
X176891792Y-76569819D01*
X176891792Y-76569819D02*
X176987030Y-76569819D01*
X176987030Y-76569819D02*
X177082268Y-76522200D01*
X177082268Y-76522200D02*
X177129887Y-76474580D01*
X177129887Y-76474580D02*
X177177506Y-76379342D01*
X177177506Y-76379342D02*
X177225125Y-76188866D01*
X177225125Y-76188866D02*
X177225125Y-75950771D01*
X177225125Y-75950771D02*
X177177506Y-75760295D01*
X177177506Y-75760295D02*
X177129887Y-75665057D01*
X177129887Y-75665057D02*
X177082268Y-75617438D01*
X177082268Y-75617438D02*
X176987030Y-75569819D01*
M02*
