%TF.GenerationSoftware,KiCad,Pcbnew,8.0.0*%
%TF.CreationDate,2024-03-24T15:42:20+01:00*%
%TF.ProjectId,BAT_SWD-Adapterboard,4241545f-5357-4442-9d41-646170746572,rev?*%
%TF.SameCoordinates,Original*%
%TF.FileFunction,Legend,Bot*%
%TF.FilePolarity,Positive*%
%FSLAX46Y46*%
G04 Gerber Fmt 4.6, Leading zero omitted, Abs format (unit mm)*
G04 Created by KiCad (PCBNEW 8.0.0) date 2024-03-24 15:42:20*
%MOMM*%
%LPD*%
G01*
G04 APERTURE LIST*
%ADD10C,0.150000*%
G04 APERTURE END LIST*
D10*
X179610839Y-72622200D02*
X179467982Y-72669819D01*
X179467982Y-72669819D02*
X179229887Y-72669819D01*
X179229887Y-72669819D02*
X179134649Y-72622200D01*
X179134649Y-72622200D02*
X179087030Y-72574580D01*
X179087030Y-72574580D02*
X179039411Y-72479342D01*
X179039411Y-72479342D02*
X179039411Y-72384104D01*
X179039411Y-72384104D02*
X179087030Y-72288866D01*
X179087030Y-72288866D02*
X179134649Y-72241247D01*
X179134649Y-72241247D02*
X179229887Y-72193628D01*
X179229887Y-72193628D02*
X179420363Y-72146009D01*
X179420363Y-72146009D02*
X179515601Y-72098390D01*
X179515601Y-72098390D02*
X179563220Y-72050771D01*
X179563220Y-72050771D02*
X179610839Y-71955533D01*
X179610839Y-71955533D02*
X179610839Y-71860295D01*
X179610839Y-71860295D02*
X179563220Y-71765057D01*
X179563220Y-71765057D02*
X179515601Y-71717438D01*
X179515601Y-71717438D02*
X179420363Y-71669819D01*
X179420363Y-71669819D02*
X179182268Y-71669819D01*
X179182268Y-71669819D02*
X179039411Y-71717438D01*
X178706077Y-71669819D02*
X178467982Y-72669819D01*
X178467982Y-72669819D02*
X178277506Y-71955533D01*
X178277506Y-71955533D02*
X178087030Y-72669819D01*
X178087030Y-72669819D02*
X177848935Y-71669819D01*
X177467982Y-72669819D02*
X177467982Y-71669819D01*
X177467982Y-71669819D02*
X177229887Y-71669819D01*
X177229887Y-71669819D02*
X177087030Y-71717438D01*
X177087030Y-71717438D02*
X176991792Y-71812676D01*
X176991792Y-71812676D02*
X176944173Y-71907914D01*
X176944173Y-71907914D02*
X176896554Y-72098390D01*
X176896554Y-72098390D02*
X176896554Y-72241247D01*
X176896554Y-72241247D02*
X176944173Y-72431723D01*
X176944173Y-72431723D02*
X176991792Y-72526961D01*
X176991792Y-72526961D02*
X177087030Y-72622200D01*
X177087030Y-72622200D02*
X177229887Y-72669819D01*
X177229887Y-72669819D02*
X177467982Y-72669819D01*
X176467982Y-72288866D02*
X175706078Y-72288866D01*
X175277506Y-72384104D02*
X174801316Y-72384104D01*
X175372744Y-72669819D02*
X175039411Y-71669819D01*
X175039411Y-71669819D02*
X174706078Y-72669819D01*
X173944173Y-72669819D02*
X173944173Y-71669819D01*
X173944173Y-72622200D02*
X174039411Y-72669819D01*
X174039411Y-72669819D02*
X174229887Y-72669819D01*
X174229887Y-72669819D02*
X174325125Y-72622200D01*
X174325125Y-72622200D02*
X174372744Y-72574580D01*
X174372744Y-72574580D02*
X174420363Y-72479342D01*
X174420363Y-72479342D02*
X174420363Y-72193628D01*
X174420363Y-72193628D02*
X174372744Y-72098390D01*
X174372744Y-72098390D02*
X174325125Y-72050771D01*
X174325125Y-72050771D02*
X174229887Y-72003152D01*
X174229887Y-72003152D02*
X174039411Y-72003152D01*
X174039411Y-72003152D02*
X173944173Y-72050771D01*
X173039411Y-72669819D02*
X173039411Y-72146009D01*
X173039411Y-72146009D02*
X173087030Y-72050771D01*
X173087030Y-72050771D02*
X173182268Y-72003152D01*
X173182268Y-72003152D02*
X173372744Y-72003152D01*
X173372744Y-72003152D02*
X173467982Y-72050771D01*
X173039411Y-72622200D02*
X173134649Y-72669819D01*
X173134649Y-72669819D02*
X173372744Y-72669819D01*
X173372744Y-72669819D02*
X173467982Y-72622200D01*
X173467982Y-72622200D02*
X173515601Y-72526961D01*
X173515601Y-72526961D02*
X173515601Y-72431723D01*
X173515601Y-72431723D02*
X173467982Y-72336485D01*
X173467982Y-72336485D02*
X173372744Y-72288866D01*
X173372744Y-72288866D02*
X173134649Y-72288866D01*
X173134649Y-72288866D02*
X173039411Y-72241247D01*
X172563220Y-72003152D02*
X172563220Y-73003152D01*
X172563220Y-72050771D02*
X172467982Y-72003152D01*
X172467982Y-72003152D02*
X172277506Y-72003152D01*
X172277506Y-72003152D02*
X172182268Y-72050771D01*
X172182268Y-72050771D02*
X172134649Y-72098390D01*
X172134649Y-72098390D02*
X172087030Y-72193628D01*
X172087030Y-72193628D02*
X172087030Y-72479342D01*
X172087030Y-72479342D02*
X172134649Y-72574580D01*
X172134649Y-72574580D02*
X172182268Y-72622200D01*
X172182268Y-72622200D02*
X172277506Y-72669819D01*
X172277506Y-72669819D02*
X172467982Y-72669819D01*
X172467982Y-72669819D02*
X172563220Y-72622200D01*
X171801315Y-72003152D02*
X171420363Y-72003152D01*
X171658458Y-71669819D02*
X171658458Y-72526961D01*
X171658458Y-72526961D02*
X171610839Y-72622200D01*
X171610839Y-72622200D02*
X171515601Y-72669819D01*
X171515601Y-72669819D02*
X171420363Y-72669819D01*
X170706077Y-72622200D02*
X170801315Y-72669819D01*
X170801315Y-72669819D02*
X170991791Y-72669819D01*
X170991791Y-72669819D02*
X171087029Y-72622200D01*
X171087029Y-72622200D02*
X171134648Y-72526961D01*
X171134648Y-72526961D02*
X171134648Y-72146009D01*
X171134648Y-72146009D02*
X171087029Y-72050771D01*
X171087029Y-72050771D02*
X170991791Y-72003152D01*
X170991791Y-72003152D02*
X170801315Y-72003152D01*
X170801315Y-72003152D02*
X170706077Y-72050771D01*
X170706077Y-72050771D02*
X170658458Y-72146009D01*
X170658458Y-72146009D02*
X170658458Y-72241247D01*
X170658458Y-72241247D02*
X171134648Y-72336485D01*
X170229886Y-72669819D02*
X170229886Y-72003152D01*
X170229886Y-72193628D02*
X170182267Y-72098390D01*
X170182267Y-72098390D02*
X170134648Y-72050771D01*
X170134648Y-72050771D02*
X170039410Y-72003152D01*
X170039410Y-72003152D02*
X169944172Y-72003152D01*
M02*
