M48
; DRILL file {KiCad 8.0.0} date 2024-04-20T13:33:24+0200
; FORMAT={-:-/ absolute / inch / decimal}
; #@! TF.CreationDate,2024-04-20T13:33:24+02:00
; #@! TF.GenerationSoftware,Kicad,Pcbnew,8.0.0
; #@! TF.FileFunction,Plated,1,2,PTH
FMAT,2
INCH
; #@! TA.AperFunction,Plated,PTH,ViaDrill
T1C0.0118
; #@! TA.AperFunction,Plated,PTH,ComponentDrill
T2C0.0528
; #@! TA.AperFunction,Plated,PTH,ComponentDrill
T3C0.0598
%
G90
G05
T1
X3.3948Y-2.0208
X3.4735Y-2.4932
X3.631Y-1.82
X3.631Y-2.9657
X3.6389Y-2.0995
X3.6901Y-1.8374
X3.7019Y-1.6832
X3.7098Y-1.4696
X3.7233Y-1.8373
X3.7548Y-1.8374
X3.7634Y-2.3436
X3.7649Y-1.6822
X3.8043Y-2.0602
X3.8336Y-1.8374
X3.8451Y-2.4283
X3.8515Y-1.9263
X3.8515Y-2.0838
X3.8672Y-1.3121
X3.8672Y-1.6271
X3.8672Y-2.4932
X3.8672Y-2.6507
X3.886Y-1.4696
X3.9302Y-1.791
X3.9302Y-1.9578
X3.9302Y-2.8554
X3.946Y-2.0995
X3.946Y-3.1231
X3.9854Y-1.5877
X4.0247Y-2.4932
X4.0247Y-2.6507
X4.0326Y-2.8476
X4.0326Y-2.9066
X4.0641Y-1.5287
X4.1035Y-2.0208
X4.1035Y-2.3357
X4.1822Y-1.8633
X4.1822Y-2.1783
X4.1901Y-1.1625
X4.198Y-1.6507
X4.2098Y-1.509
X4.2137Y-1.2058
X4.2609Y-2.0208
X4.2747Y-1.7019
X4.3397Y-1.8633
X4.3397Y-2.1783
X4.3476Y-1.3672
X4.3554Y-1.5405
X4.3554Y-1.5877
X4.3554Y-1.757
X4.3948Y-1.3672
X4.4184Y-1.4696
X4.4184Y-1.5483
X4.4184Y-2.0208
X4.4184Y-2.3594
X4.4767Y-3.2885
X4.4972Y-1.4696
X4.4972Y-1.5483
X4.4972Y-1.8633
X4.4972Y-3.3599
X4.5169Y-3.2885
X4.6389Y-1.3751
X4.6389Y-1.4224
X4.6507Y-1.5169
X4.6546Y-2.0208
X4.6635Y-1.7294
X4.7334Y-1.8633
X4.7334Y-2.1783
X4.7334Y-3.1231
X4.7964Y-1.1625
X4.8035Y-1.5038
X4.8121Y-2.0208
X4.8121Y-2.3357
X4.8121Y-3.2806
X4.82Y-1.4617
X4.8909Y-1.6468
X4.8909Y-1.8633
X4.8909Y-2.1783
X4.9696Y-1.7058
X4.9696Y-2.0208
X4.9696Y-2.3357
X4.9696Y-2.6507
X4.9696Y-2.8082
X5.009Y-1.3239
X5.0483Y-1.8633
X5.0483Y-2.1783
X5.0483Y-2.4932
X5.0483Y-3.1231
X5.0562Y-1.5287
X5.1271Y-1.7058
X5.1271Y-2.0208
X5.1271Y-2.3357
X5.1271Y-2.6507
X5.2058Y-1.3909
X5.2058Y-2.4932
X5.2846Y-2.0208
X5.4263Y-2.7649
X5.442Y-1.7058
X5.5208Y-1.9578
X5.5208Y-2.1783
X5.5208Y-2.4932
X5.5995Y-2.0208
X5.5995Y-2.3357
T2
X4.3263Y-3.1586
X4.3263Y-3.3082
X4.6665Y-3.1586
X4.6665Y-3.3082
T3
X3.8987Y-2.3357
X4.7054Y-2.3357
M30
