%TF.GenerationSoftware,KiCad,Pcbnew,8.0.0*%
%TF.CreationDate,2024-04-20T13:33:13+02:00*%
%TF.ProjectId,BAT2024,42415432-3032-4342-9e6b-696361645f70,1.0*%
%TF.SameCoordinates,Original*%
%TF.FileFunction,Legend,Top*%
%TF.FilePolarity,Positive*%
%FSLAX46Y46*%
G04 Gerber Fmt 4.6, Leading zero omitted, Abs format (unit mm)*
G04 Created by KiCad (PCBNEW 8.0.0) date 2024-04-20 13:33:13*
%MOMM*%
%LPD*%
G01*
G04 APERTURE LIST*
%ADD10C,0.300000*%
%ADD11C,0.254000*%
%ADD12C,0.150000*%
%ADD13C,0.120000*%
%ADD14C,0.250000*%
%ADD15C,0.200000*%
G04 APERTURE END LIST*
D10*
X104482510Y-64098366D02*
X104696796Y-64169794D01*
X104696796Y-64169794D02*
X104768225Y-64241223D01*
X104768225Y-64241223D02*
X104839653Y-64384080D01*
X104839653Y-64384080D02*
X104839653Y-64598366D01*
X104839653Y-64598366D02*
X104768225Y-64741223D01*
X104768225Y-64741223D02*
X104696796Y-64812652D01*
X104696796Y-64812652D02*
X104553939Y-64884080D01*
X104553939Y-64884080D02*
X103982510Y-64884080D01*
X103982510Y-64884080D02*
X103982510Y-63384080D01*
X103982510Y-63384080D02*
X104482510Y-63384080D01*
X104482510Y-63384080D02*
X104625368Y-63455509D01*
X104625368Y-63455509D02*
X104696796Y-63526937D01*
X104696796Y-63526937D02*
X104768225Y-63669794D01*
X104768225Y-63669794D02*
X104768225Y-63812652D01*
X104768225Y-63812652D02*
X104696796Y-63955509D01*
X104696796Y-63955509D02*
X104625368Y-64026937D01*
X104625368Y-64026937D02*
X104482510Y-64098366D01*
X104482510Y-64098366D02*
X103982510Y-64098366D01*
X106125368Y-64884080D02*
X106125368Y-64098366D01*
X106125368Y-64098366D02*
X106053939Y-63955509D01*
X106053939Y-63955509D02*
X105911082Y-63884080D01*
X105911082Y-63884080D02*
X105625368Y-63884080D01*
X105625368Y-63884080D02*
X105482510Y-63955509D01*
X106125368Y-64812652D02*
X105982510Y-64884080D01*
X105982510Y-64884080D02*
X105625368Y-64884080D01*
X105625368Y-64884080D02*
X105482510Y-64812652D01*
X105482510Y-64812652D02*
X105411082Y-64669794D01*
X105411082Y-64669794D02*
X105411082Y-64526937D01*
X105411082Y-64526937D02*
X105482510Y-64384080D01*
X105482510Y-64384080D02*
X105625368Y-64312652D01*
X105625368Y-64312652D02*
X105982510Y-64312652D01*
X105982510Y-64312652D02*
X106125368Y-64241223D01*
X107482511Y-64812652D02*
X107339653Y-64884080D01*
X107339653Y-64884080D02*
X107053939Y-64884080D01*
X107053939Y-64884080D02*
X106911082Y-64812652D01*
X106911082Y-64812652D02*
X106839653Y-64741223D01*
X106839653Y-64741223D02*
X106768225Y-64598366D01*
X106768225Y-64598366D02*
X106768225Y-64169794D01*
X106768225Y-64169794D02*
X106839653Y-64026937D01*
X106839653Y-64026937D02*
X106911082Y-63955509D01*
X106911082Y-63955509D02*
X107053939Y-63884080D01*
X107053939Y-63884080D02*
X107339653Y-63884080D01*
X107339653Y-63884080D02*
X107482511Y-63955509D01*
X108125367Y-64884080D02*
X108125367Y-63384080D01*
X108768225Y-64884080D02*
X108768225Y-64098366D01*
X108768225Y-64098366D02*
X108696796Y-63955509D01*
X108696796Y-63955509D02*
X108553939Y-63884080D01*
X108553939Y-63884080D02*
X108339653Y-63884080D01*
X108339653Y-63884080D02*
X108196796Y-63955509D01*
X108196796Y-63955509D02*
X108125367Y-64026937D01*
X110053939Y-64812652D02*
X109911082Y-64884080D01*
X109911082Y-64884080D02*
X109625368Y-64884080D01*
X109625368Y-64884080D02*
X109482510Y-64812652D01*
X109482510Y-64812652D02*
X109411082Y-64669794D01*
X109411082Y-64669794D02*
X109411082Y-64098366D01*
X109411082Y-64098366D02*
X109482510Y-63955509D01*
X109482510Y-63955509D02*
X109625368Y-63884080D01*
X109625368Y-63884080D02*
X109911082Y-63884080D01*
X109911082Y-63884080D02*
X110053939Y-63955509D01*
X110053939Y-63955509D02*
X110125368Y-64098366D01*
X110125368Y-64098366D02*
X110125368Y-64241223D01*
X110125368Y-64241223D02*
X109411082Y-64384080D01*
X110982510Y-64884080D02*
X110839653Y-64812652D01*
X110839653Y-64812652D02*
X110768224Y-64669794D01*
X110768224Y-64669794D02*
X110768224Y-63384080D01*
X111768224Y-64884080D02*
X111625367Y-64812652D01*
X111625367Y-64812652D02*
X111553938Y-64741223D01*
X111553938Y-64741223D02*
X111482510Y-64598366D01*
X111482510Y-64598366D02*
X111482510Y-64169794D01*
X111482510Y-64169794D02*
X111553938Y-64026937D01*
X111553938Y-64026937D02*
X111625367Y-63955509D01*
X111625367Y-63955509D02*
X111768224Y-63884080D01*
X111768224Y-63884080D02*
X111982510Y-63884080D01*
X111982510Y-63884080D02*
X112125367Y-63955509D01*
X112125367Y-63955509D02*
X112196796Y-64026937D01*
X112196796Y-64026937D02*
X112268224Y-64169794D01*
X112268224Y-64169794D02*
X112268224Y-64598366D01*
X112268224Y-64598366D02*
X112196796Y-64741223D01*
X112196796Y-64741223D02*
X112125367Y-64812652D01*
X112125367Y-64812652D02*
X111982510Y-64884080D01*
X111982510Y-64884080D02*
X111768224Y-64884080D01*
X112911081Y-64884080D02*
X112911081Y-63884080D01*
X112911081Y-64169794D02*
X112982510Y-64026937D01*
X112982510Y-64026937D02*
X113053939Y-63955509D01*
X113053939Y-63955509D02*
X113196796Y-63884080D01*
X113196796Y-63884080D02*
X113339653Y-63884080D01*
X114482510Y-64884080D02*
X114482510Y-64098366D01*
X114482510Y-64098366D02*
X114411081Y-63955509D01*
X114411081Y-63955509D02*
X114268224Y-63884080D01*
X114268224Y-63884080D02*
X113982510Y-63884080D01*
X113982510Y-63884080D02*
X113839652Y-63955509D01*
X114482510Y-64812652D02*
X114339652Y-64884080D01*
X114339652Y-64884080D02*
X113982510Y-64884080D01*
X113982510Y-64884080D02*
X113839652Y-64812652D01*
X113839652Y-64812652D02*
X113768224Y-64669794D01*
X113768224Y-64669794D02*
X113768224Y-64526937D01*
X113768224Y-64526937D02*
X113839652Y-64384080D01*
X113839652Y-64384080D02*
X113982510Y-64312652D01*
X113982510Y-64312652D02*
X114339652Y-64312652D01*
X114339652Y-64312652D02*
X114482510Y-64241223D01*
X115196795Y-64884080D02*
X115196795Y-63884080D01*
X115196795Y-64169794D02*
X115268224Y-64026937D01*
X115268224Y-64026937D02*
X115339653Y-63955509D01*
X115339653Y-63955509D02*
X115482510Y-63884080D01*
X115482510Y-63884080D02*
X115625367Y-63884080D01*
X116125366Y-64884080D02*
X116125366Y-63384080D01*
X116125366Y-63955509D02*
X116268224Y-63884080D01*
X116268224Y-63884080D02*
X116553938Y-63884080D01*
X116553938Y-63884080D02*
X116696795Y-63955509D01*
X116696795Y-63955509D02*
X116768224Y-64026937D01*
X116768224Y-64026937D02*
X116839652Y-64169794D01*
X116839652Y-64169794D02*
X116839652Y-64598366D01*
X116839652Y-64598366D02*
X116768224Y-64741223D01*
X116768224Y-64741223D02*
X116696795Y-64812652D01*
X116696795Y-64812652D02*
X116553938Y-64884080D01*
X116553938Y-64884080D02*
X116268224Y-64884080D01*
X116268224Y-64884080D02*
X116125366Y-64812652D01*
X118053938Y-64812652D02*
X117911081Y-64884080D01*
X117911081Y-64884080D02*
X117625367Y-64884080D01*
X117625367Y-64884080D02*
X117482509Y-64812652D01*
X117482509Y-64812652D02*
X117411081Y-64669794D01*
X117411081Y-64669794D02*
X117411081Y-64098366D01*
X117411081Y-64098366D02*
X117482509Y-63955509D01*
X117482509Y-63955509D02*
X117625367Y-63884080D01*
X117625367Y-63884080D02*
X117911081Y-63884080D01*
X117911081Y-63884080D02*
X118053938Y-63955509D01*
X118053938Y-63955509D02*
X118125367Y-64098366D01*
X118125367Y-64098366D02*
X118125367Y-64241223D01*
X118125367Y-64241223D02*
X117411081Y-64384080D01*
X118768223Y-64884080D02*
X118768223Y-63884080D01*
X118768223Y-63384080D02*
X118696795Y-63455509D01*
X118696795Y-63455509D02*
X118768223Y-63526937D01*
X118768223Y-63526937D02*
X118839652Y-63455509D01*
X118839652Y-63455509D02*
X118768223Y-63384080D01*
X118768223Y-63384080D02*
X118768223Y-63526937D01*
X119268224Y-63884080D02*
X119839652Y-63884080D01*
X119482509Y-63384080D02*
X119482509Y-64669794D01*
X119482509Y-64669794D02*
X119553938Y-64812652D01*
X119553938Y-64812652D02*
X119696795Y-64884080D01*
X119696795Y-64884080D02*
X119839652Y-64884080D01*
X121411081Y-63526937D02*
X121482509Y-63455509D01*
X121482509Y-63455509D02*
X121625367Y-63384080D01*
X121625367Y-63384080D02*
X121982509Y-63384080D01*
X121982509Y-63384080D02*
X122125367Y-63455509D01*
X122125367Y-63455509D02*
X122196795Y-63526937D01*
X122196795Y-63526937D02*
X122268224Y-63669794D01*
X122268224Y-63669794D02*
X122268224Y-63812652D01*
X122268224Y-63812652D02*
X122196795Y-64026937D01*
X122196795Y-64026937D02*
X121339652Y-64884080D01*
X121339652Y-64884080D02*
X122268224Y-64884080D01*
X123196795Y-63384080D02*
X123339652Y-63384080D01*
X123339652Y-63384080D02*
X123482509Y-63455509D01*
X123482509Y-63455509D02*
X123553938Y-63526937D01*
X123553938Y-63526937D02*
X123625366Y-63669794D01*
X123625366Y-63669794D02*
X123696795Y-63955509D01*
X123696795Y-63955509D02*
X123696795Y-64312652D01*
X123696795Y-64312652D02*
X123625366Y-64598366D01*
X123625366Y-64598366D02*
X123553938Y-64741223D01*
X123553938Y-64741223D02*
X123482509Y-64812652D01*
X123482509Y-64812652D02*
X123339652Y-64884080D01*
X123339652Y-64884080D02*
X123196795Y-64884080D01*
X123196795Y-64884080D02*
X123053938Y-64812652D01*
X123053938Y-64812652D02*
X122982509Y-64741223D01*
X122982509Y-64741223D02*
X122911080Y-64598366D01*
X122911080Y-64598366D02*
X122839652Y-64312652D01*
X122839652Y-64312652D02*
X122839652Y-63955509D01*
X122839652Y-63955509D02*
X122911080Y-63669794D01*
X122911080Y-63669794D02*
X122982509Y-63526937D01*
X122982509Y-63526937D02*
X123053938Y-63455509D01*
X123053938Y-63455509D02*
X123196795Y-63384080D01*
X124268223Y-63526937D02*
X124339651Y-63455509D01*
X124339651Y-63455509D02*
X124482509Y-63384080D01*
X124482509Y-63384080D02*
X124839651Y-63384080D01*
X124839651Y-63384080D02*
X124982509Y-63455509D01*
X124982509Y-63455509D02*
X125053937Y-63526937D01*
X125053937Y-63526937D02*
X125125366Y-63669794D01*
X125125366Y-63669794D02*
X125125366Y-63812652D01*
X125125366Y-63812652D02*
X125053937Y-64026937D01*
X125053937Y-64026937D02*
X124196794Y-64884080D01*
X124196794Y-64884080D02*
X125125366Y-64884080D01*
X126411080Y-63884080D02*
X126411080Y-64884080D01*
X126053937Y-63312652D02*
X125696794Y-64384080D01*
X125696794Y-64384080D02*
X126625365Y-64384080D01*
X104625368Y-67298996D02*
X104625368Y-65798996D01*
X104625368Y-67227568D02*
X104482510Y-67298996D01*
X104482510Y-67298996D02*
X104196796Y-67298996D01*
X104196796Y-67298996D02*
X104053939Y-67227568D01*
X104053939Y-67227568D02*
X103982510Y-67156139D01*
X103982510Y-67156139D02*
X103911082Y-67013282D01*
X103911082Y-67013282D02*
X103911082Y-66584710D01*
X103911082Y-66584710D02*
X103982510Y-66441853D01*
X103982510Y-66441853D02*
X104053939Y-66370425D01*
X104053939Y-66370425D02*
X104196796Y-66298996D01*
X104196796Y-66298996D02*
X104482510Y-66298996D01*
X104482510Y-66298996D02*
X104625368Y-66370425D01*
X105839653Y-66513282D02*
X106053939Y-66584710D01*
X106053939Y-66584710D02*
X106125368Y-66656139D01*
X106125368Y-66656139D02*
X106196796Y-66798996D01*
X106196796Y-66798996D02*
X106196796Y-67013282D01*
X106196796Y-67013282D02*
X106125368Y-67156139D01*
X106125368Y-67156139D02*
X106053939Y-67227568D01*
X106053939Y-67227568D02*
X105911082Y-67298996D01*
X105911082Y-67298996D02*
X105339653Y-67298996D01*
X105339653Y-67298996D02*
X105339653Y-65798996D01*
X105339653Y-65798996D02*
X105839653Y-65798996D01*
X105839653Y-65798996D02*
X105982511Y-65870425D01*
X105982511Y-65870425D02*
X106053939Y-65941853D01*
X106053939Y-65941853D02*
X106125368Y-66084710D01*
X106125368Y-66084710D02*
X106125368Y-66227568D01*
X106125368Y-66227568D02*
X106053939Y-66370425D01*
X106053939Y-66370425D02*
X105982511Y-66441853D01*
X105982511Y-66441853D02*
X105839653Y-66513282D01*
X105839653Y-66513282D02*
X105339653Y-66513282D01*
X106768225Y-67227568D02*
X106982511Y-67298996D01*
X106982511Y-67298996D02*
X107339653Y-67298996D01*
X107339653Y-67298996D02*
X107482511Y-67227568D01*
X107482511Y-67227568D02*
X107553939Y-67156139D01*
X107553939Y-67156139D02*
X107625368Y-67013282D01*
X107625368Y-67013282D02*
X107625368Y-66870425D01*
X107625368Y-66870425D02*
X107553939Y-66727568D01*
X107553939Y-66727568D02*
X107482511Y-66656139D01*
X107482511Y-66656139D02*
X107339653Y-66584710D01*
X107339653Y-66584710D02*
X107053939Y-66513282D01*
X107053939Y-66513282D02*
X106911082Y-66441853D01*
X106911082Y-66441853D02*
X106839653Y-66370425D01*
X106839653Y-66370425D02*
X106768225Y-66227568D01*
X106768225Y-66227568D02*
X106768225Y-66084710D01*
X106768225Y-66084710D02*
X106839653Y-65941853D01*
X106839653Y-65941853D02*
X106911082Y-65870425D01*
X106911082Y-65870425D02*
X107053939Y-65798996D01*
X107053939Y-65798996D02*
X107411082Y-65798996D01*
X107411082Y-65798996D02*
X107625368Y-65870425D01*
X108268224Y-67298996D02*
X108268224Y-65798996D01*
X108268224Y-65798996D02*
X108839653Y-65798996D01*
X108839653Y-65798996D02*
X108982510Y-65870425D01*
X108982510Y-65870425D02*
X109053939Y-65941853D01*
X109053939Y-65941853D02*
X109125367Y-66084710D01*
X109125367Y-66084710D02*
X109125367Y-66298996D01*
X109125367Y-66298996D02*
X109053939Y-66441853D01*
X109053939Y-66441853D02*
X108982510Y-66513282D01*
X108982510Y-66513282D02*
X108839653Y-66584710D01*
X108839653Y-66584710D02*
X108268224Y-66584710D01*
X110482510Y-67298996D02*
X109768224Y-67298996D01*
X109768224Y-67298996D02*
X109768224Y-65798996D01*
X110982510Y-66727568D02*
X112125368Y-66727568D01*
X112839653Y-67298996D02*
X112839653Y-65798996D01*
X112839653Y-65798996D02*
X113339653Y-66870425D01*
X113339653Y-66870425D02*
X113839653Y-65798996D01*
X113839653Y-65798996D02*
X113839653Y-67298996D01*
X115125368Y-67227568D02*
X114982511Y-67298996D01*
X114982511Y-67298996D02*
X114696797Y-67298996D01*
X114696797Y-67298996D02*
X114553939Y-67227568D01*
X114553939Y-67227568D02*
X114482511Y-67084710D01*
X114482511Y-67084710D02*
X114482511Y-66513282D01*
X114482511Y-66513282D02*
X114553939Y-66370425D01*
X114553939Y-66370425D02*
X114696797Y-66298996D01*
X114696797Y-66298996D02*
X114982511Y-66298996D01*
X114982511Y-66298996D02*
X115125368Y-66370425D01*
X115125368Y-66370425D02*
X115196797Y-66513282D01*
X115196797Y-66513282D02*
X115196797Y-66656139D01*
X115196797Y-66656139D02*
X114482511Y-66798996D01*
X115768225Y-67227568D02*
X115911082Y-67298996D01*
X115911082Y-67298996D02*
X116196796Y-67298996D01*
X116196796Y-67298996D02*
X116339653Y-67227568D01*
X116339653Y-67227568D02*
X116411082Y-67084710D01*
X116411082Y-67084710D02*
X116411082Y-67013282D01*
X116411082Y-67013282D02*
X116339653Y-66870425D01*
X116339653Y-66870425D02*
X116196796Y-66798996D01*
X116196796Y-66798996D02*
X115982511Y-66798996D01*
X115982511Y-66798996D02*
X115839653Y-66727568D01*
X115839653Y-66727568D02*
X115768225Y-66584710D01*
X115768225Y-66584710D02*
X115768225Y-66513282D01*
X115768225Y-66513282D02*
X115839653Y-66370425D01*
X115839653Y-66370425D02*
X115982511Y-66298996D01*
X115982511Y-66298996D02*
X116196796Y-66298996D01*
X116196796Y-66298996D02*
X116339653Y-66370425D01*
X116982511Y-67227568D02*
X117125368Y-67298996D01*
X117125368Y-67298996D02*
X117411082Y-67298996D01*
X117411082Y-67298996D02*
X117553939Y-67227568D01*
X117553939Y-67227568D02*
X117625368Y-67084710D01*
X117625368Y-67084710D02*
X117625368Y-67013282D01*
X117625368Y-67013282D02*
X117553939Y-66870425D01*
X117553939Y-66870425D02*
X117411082Y-66798996D01*
X117411082Y-66798996D02*
X117196797Y-66798996D01*
X117196797Y-66798996D02*
X117053939Y-66727568D01*
X117053939Y-66727568D02*
X116982511Y-66584710D01*
X116982511Y-66584710D02*
X116982511Y-66513282D01*
X116982511Y-66513282D02*
X117053939Y-66370425D01*
X117053939Y-66370425D02*
X117196797Y-66298996D01*
X117196797Y-66298996D02*
X117411082Y-66298996D01*
X117411082Y-66298996D02*
X117553939Y-66370425D01*
X118911083Y-66298996D02*
X118911083Y-67513282D01*
X118911083Y-67513282D02*
X118839654Y-67656139D01*
X118839654Y-67656139D02*
X118768225Y-67727568D01*
X118768225Y-67727568D02*
X118625368Y-67798996D01*
X118625368Y-67798996D02*
X118411083Y-67798996D01*
X118411083Y-67798996D02*
X118268225Y-67727568D01*
X118911083Y-67227568D02*
X118768225Y-67298996D01*
X118768225Y-67298996D02*
X118482511Y-67298996D01*
X118482511Y-67298996D02*
X118339654Y-67227568D01*
X118339654Y-67227568D02*
X118268225Y-67156139D01*
X118268225Y-67156139D02*
X118196797Y-67013282D01*
X118196797Y-67013282D02*
X118196797Y-66584710D01*
X118196797Y-66584710D02*
X118268225Y-66441853D01*
X118268225Y-66441853D02*
X118339654Y-66370425D01*
X118339654Y-66370425D02*
X118482511Y-66298996D01*
X118482511Y-66298996D02*
X118768225Y-66298996D01*
X118768225Y-66298996D02*
X118911083Y-66370425D01*
X120196797Y-67227568D02*
X120053940Y-67298996D01*
X120053940Y-67298996D02*
X119768226Y-67298996D01*
X119768226Y-67298996D02*
X119625368Y-67227568D01*
X119625368Y-67227568D02*
X119553940Y-67084710D01*
X119553940Y-67084710D02*
X119553940Y-66513282D01*
X119553940Y-66513282D02*
X119625368Y-66370425D01*
X119625368Y-66370425D02*
X119768226Y-66298996D01*
X119768226Y-66298996D02*
X120053940Y-66298996D01*
X120053940Y-66298996D02*
X120196797Y-66370425D01*
X120196797Y-66370425D02*
X120268226Y-66513282D01*
X120268226Y-66513282D02*
X120268226Y-66656139D01*
X120268226Y-66656139D02*
X119553940Y-66798996D01*
X120911082Y-67298996D02*
X120911082Y-66298996D01*
X120911082Y-66584710D02*
X120982511Y-66441853D01*
X120982511Y-66441853D02*
X121053940Y-66370425D01*
X121053940Y-66370425D02*
X121196797Y-66298996D01*
X121196797Y-66298996D02*
X121339654Y-66298996D01*
X122482511Y-67298996D02*
X122482511Y-66513282D01*
X122482511Y-66513282D02*
X122411082Y-66370425D01*
X122411082Y-66370425D02*
X122268225Y-66298996D01*
X122268225Y-66298996D02*
X121982511Y-66298996D01*
X121982511Y-66298996D02*
X121839653Y-66370425D01*
X122482511Y-67227568D02*
X122339653Y-67298996D01*
X122339653Y-67298996D02*
X121982511Y-67298996D01*
X121982511Y-67298996D02*
X121839653Y-67227568D01*
X121839653Y-67227568D02*
X121768225Y-67084710D01*
X121768225Y-67084710D02*
X121768225Y-66941853D01*
X121768225Y-66941853D02*
X121839653Y-66798996D01*
X121839653Y-66798996D02*
X121982511Y-66727568D01*
X121982511Y-66727568D02*
X122339653Y-66727568D01*
X122339653Y-66727568D02*
X122482511Y-66656139D01*
X121839653Y-65798996D02*
X121911082Y-65870425D01*
X121911082Y-65870425D02*
X121839653Y-65941853D01*
X121839653Y-65941853D02*
X121768225Y-65870425D01*
X121768225Y-65870425D02*
X121839653Y-65798996D01*
X121839653Y-65798996D02*
X121839653Y-65941853D01*
X122411082Y-65798996D02*
X122482511Y-65870425D01*
X122482511Y-65870425D02*
X122411082Y-65941853D01*
X122411082Y-65941853D02*
X122339653Y-65870425D01*
X122339653Y-65870425D02*
X122411082Y-65798996D01*
X122411082Y-65798996D02*
X122411082Y-65941853D01*
X122982511Y-66298996D02*
X123553939Y-66298996D01*
X123196796Y-65798996D02*
X123196796Y-67084710D01*
X123196796Y-67084710D02*
X123268225Y-67227568D01*
X123268225Y-67227568D02*
X123411082Y-67298996D01*
X123411082Y-67298996D02*
X123553939Y-67298996D01*
X103911082Y-69642484D02*
X104125368Y-69713912D01*
X104125368Y-69713912D02*
X104482510Y-69713912D01*
X104482510Y-69713912D02*
X104625368Y-69642484D01*
X104625368Y-69642484D02*
X104696796Y-69571055D01*
X104696796Y-69571055D02*
X104768225Y-69428198D01*
X104768225Y-69428198D02*
X104768225Y-69285341D01*
X104768225Y-69285341D02*
X104696796Y-69142484D01*
X104696796Y-69142484D02*
X104625368Y-69071055D01*
X104625368Y-69071055D02*
X104482510Y-68999626D01*
X104482510Y-68999626D02*
X104196796Y-68928198D01*
X104196796Y-68928198D02*
X104053939Y-68856769D01*
X104053939Y-68856769D02*
X103982510Y-68785341D01*
X103982510Y-68785341D02*
X103911082Y-68642484D01*
X103911082Y-68642484D02*
X103911082Y-68499626D01*
X103911082Y-68499626D02*
X103982510Y-68356769D01*
X103982510Y-68356769D02*
X104053939Y-68285341D01*
X104053939Y-68285341D02*
X104196796Y-68213912D01*
X104196796Y-68213912D02*
X104553939Y-68213912D01*
X104553939Y-68213912D02*
X104768225Y-68285341D01*
X105196796Y-68713912D02*
X105768224Y-68713912D01*
X105411081Y-68213912D02*
X105411081Y-69499626D01*
X105411081Y-69499626D02*
X105482510Y-69642484D01*
X105482510Y-69642484D02*
X105625367Y-69713912D01*
X105625367Y-69713912D02*
X105768224Y-69713912D01*
X106839653Y-69642484D02*
X106696796Y-69713912D01*
X106696796Y-69713912D02*
X106411082Y-69713912D01*
X106411082Y-69713912D02*
X106268224Y-69642484D01*
X106268224Y-69642484D02*
X106196796Y-69499626D01*
X106196796Y-69499626D02*
X106196796Y-68928198D01*
X106196796Y-68928198D02*
X106268224Y-68785341D01*
X106268224Y-68785341D02*
X106411082Y-68713912D01*
X106411082Y-68713912D02*
X106696796Y-68713912D01*
X106696796Y-68713912D02*
X106839653Y-68785341D01*
X106839653Y-68785341D02*
X106911082Y-68928198D01*
X106911082Y-68928198D02*
X106911082Y-69071055D01*
X106911082Y-69071055D02*
X106196796Y-69213912D01*
X107339653Y-68713912D02*
X107911081Y-68713912D01*
X107553938Y-69713912D02*
X107553938Y-68428198D01*
X107553938Y-68428198D02*
X107625367Y-68285341D01*
X107625367Y-68285341D02*
X107768224Y-68213912D01*
X107768224Y-68213912D02*
X107911081Y-68213912D01*
X109053939Y-69713912D02*
X109053939Y-68928198D01*
X109053939Y-68928198D02*
X108982510Y-68785341D01*
X108982510Y-68785341D02*
X108839653Y-68713912D01*
X108839653Y-68713912D02*
X108553939Y-68713912D01*
X108553939Y-68713912D02*
X108411081Y-68785341D01*
X109053939Y-69642484D02*
X108911081Y-69713912D01*
X108911081Y-69713912D02*
X108553939Y-69713912D01*
X108553939Y-69713912D02*
X108411081Y-69642484D01*
X108411081Y-69642484D02*
X108339653Y-69499626D01*
X108339653Y-69499626D02*
X108339653Y-69356769D01*
X108339653Y-69356769D02*
X108411081Y-69213912D01*
X108411081Y-69213912D02*
X108553939Y-69142484D01*
X108553939Y-69142484D02*
X108911081Y-69142484D01*
X108911081Y-69142484D02*
X109053939Y-69071055D01*
X109768224Y-68713912D02*
X109768224Y-69713912D01*
X109768224Y-68856769D02*
X109839653Y-68785341D01*
X109839653Y-68785341D02*
X109982510Y-68713912D01*
X109982510Y-68713912D02*
X110196796Y-68713912D01*
X110196796Y-68713912D02*
X110339653Y-68785341D01*
X110339653Y-68785341D02*
X110411082Y-68928198D01*
X110411082Y-68928198D02*
X110411082Y-69713912D01*
X111339653Y-69713912D02*
X111196796Y-69642484D01*
X111196796Y-69642484D02*
X111125367Y-69571055D01*
X111125367Y-69571055D02*
X111053939Y-69428198D01*
X111053939Y-69428198D02*
X111053939Y-68999626D01*
X111053939Y-68999626D02*
X111125367Y-68856769D01*
X111125367Y-68856769D02*
X111196796Y-68785341D01*
X111196796Y-68785341D02*
X111339653Y-68713912D01*
X111339653Y-68713912D02*
X111553939Y-68713912D01*
X111553939Y-68713912D02*
X111696796Y-68785341D01*
X111696796Y-68785341D02*
X111768225Y-68856769D01*
X111768225Y-68856769D02*
X111839653Y-68999626D01*
X111839653Y-68999626D02*
X111839653Y-69428198D01*
X111839653Y-69428198D02*
X111768225Y-69571055D01*
X111768225Y-69571055D02*
X111696796Y-69642484D01*
X111696796Y-69642484D02*
X111553939Y-69713912D01*
X111553939Y-69713912D02*
X111339653Y-69713912D01*
X113625367Y-69713912D02*
X113625367Y-68213912D01*
X113625367Y-68213912D02*
X114482510Y-69713912D01*
X114482510Y-69713912D02*
X114482510Y-68213912D01*
X115196796Y-69713912D02*
X115196796Y-68713912D01*
X115196796Y-68213912D02*
X115125368Y-68285341D01*
X115125368Y-68285341D02*
X115196796Y-68356769D01*
X115196796Y-68356769D02*
X115268225Y-68285341D01*
X115268225Y-68285341D02*
X115196796Y-68213912D01*
X115196796Y-68213912D02*
X115196796Y-68356769D01*
X116553940Y-69642484D02*
X116411082Y-69713912D01*
X116411082Y-69713912D02*
X116125368Y-69713912D01*
X116125368Y-69713912D02*
X115982511Y-69642484D01*
X115982511Y-69642484D02*
X115911082Y-69571055D01*
X115911082Y-69571055D02*
X115839654Y-69428198D01*
X115839654Y-69428198D02*
X115839654Y-68999626D01*
X115839654Y-68999626D02*
X115911082Y-68856769D01*
X115911082Y-68856769D02*
X115982511Y-68785341D01*
X115982511Y-68785341D02*
X116125368Y-68713912D01*
X116125368Y-68713912D02*
X116411082Y-68713912D01*
X116411082Y-68713912D02*
X116553940Y-68785341D01*
X117411082Y-69713912D02*
X117268225Y-69642484D01*
X117268225Y-69642484D02*
X117196796Y-69571055D01*
X117196796Y-69571055D02*
X117125368Y-69428198D01*
X117125368Y-69428198D02*
X117125368Y-68999626D01*
X117125368Y-68999626D02*
X117196796Y-68856769D01*
X117196796Y-68856769D02*
X117268225Y-68785341D01*
X117268225Y-68785341D02*
X117411082Y-68713912D01*
X117411082Y-68713912D02*
X117625368Y-68713912D01*
X117625368Y-68713912D02*
X117768225Y-68785341D01*
X117768225Y-68785341D02*
X117839654Y-68856769D01*
X117839654Y-68856769D02*
X117911082Y-68999626D01*
X117911082Y-68999626D02*
X117911082Y-69428198D01*
X117911082Y-69428198D02*
X117839654Y-69571055D01*
X117839654Y-69571055D02*
X117768225Y-69642484D01*
X117768225Y-69642484D02*
X117625368Y-69713912D01*
X117625368Y-69713912D02*
X117411082Y-69713912D01*
X118553939Y-69713912D02*
X118553939Y-68713912D01*
X118553939Y-68999626D02*
X118625368Y-68856769D01*
X118625368Y-68856769D02*
X118696797Y-68785341D01*
X118696797Y-68785341D02*
X118839654Y-68713912D01*
X118839654Y-68713912D02*
X118982511Y-68713912D01*
X120125368Y-69713912D02*
X120125368Y-68928198D01*
X120125368Y-68928198D02*
X120053939Y-68785341D01*
X120053939Y-68785341D02*
X119911082Y-68713912D01*
X119911082Y-68713912D02*
X119625368Y-68713912D01*
X119625368Y-68713912D02*
X119482510Y-68785341D01*
X120125368Y-69642484D02*
X119982510Y-69713912D01*
X119982510Y-69713912D02*
X119625368Y-69713912D01*
X119625368Y-69713912D02*
X119482510Y-69642484D01*
X119482510Y-69642484D02*
X119411082Y-69499626D01*
X119411082Y-69499626D02*
X119411082Y-69356769D01*
X119411082Y-69356769D02*
X119482510Y-69213912D01*
X119482510Y-69213912D02*
X119625368Y-69142484D01*
X119625368Y-69142484D02*
X119982510Y-69142484D01*
X119982510Y-69142484D02*
X120125368Y-69071055D01*
X103982510Y-72128828D02*
X103982510Y-70628828D01*
X103982510Y-71343114D02*
X104839653Y-71343114D01*
X104839653Y-72128828D02*
X104839653Y-70628828D01*
X105482511Y-72057400D02*
X105696797Y-72128828D01*
X105696797Y-72128828D02*
X106053939Y-72128828D01*
X106053939Y-72128828D02*
X106196797Y-72057400D01*
X106196797Y-72057400D02*
X106268225Y-71985971D01*
X106268225Y-71985971D02*
X106339654Y-71843114D01*
X106339654Y-71843114D02*
X106339654Y-71700257D01*
X106339654Y-71700257D02*
X106268225Y-71557400D01*
X106268225Y-71557400D02*
X106196797Y-71485971D01*
X106196797Y-71485971D02*
X106053939Y-71414542D01*
X106053939Y-71414542D02*
X105768225Y-71343114D01*
X105768225Y-71343114D02*
X105625368Y-71271685D01*
X105625368Y-71271685D02*
X105553939Y-71200257D01*
X105553939Y-71200257D02*
X105482511Y-71057400D01*
X105482511Y-71057400D02*
X105482511Y-70914542D01*
X105482511Y-70914542D02*
X105553939Y-70771685D01*
X105553939Y-70771685D02*
X105625368Y-70700257D01*
X105625368Y-70700257D02*
X105768225Y-70628828D01*
X105768225Y-70628828D02*
X106125368Y-70628828D01*
X106125368Y-70628828D02*
X106339654Y-70700257D01*
X107696796Y-72128828D02*
X106982510Y-72128828D01*
X106982510Y-72128828D02*
X106982510Y-70628828D01*
X108196796Y-70628828D02*
X108196796Y-71843114D01*
X108196796Y-71843114D02*
X108268225Y-71985971D01*
X108268225Y-71985971D02*
X108339654Y-72057400D01*
X108339654Y-72057400D02*
X108482511Y-72128828D01*
X108482511Y-72128828D02*
X108768225Y-72128828D01*
X108768225Y-72128828D02*
X108911082Y-72057400D01*
X108911082Y-72057400D02*
X108982511Y-71985971D01*
X108982511Y-71985971D02*
X109053939Y-71843114D01*
X109053939Y-71843114D02*
X109053939Y-70628828D01*
X110696797Y-70628828D02*
X111553940Y-70628828D01*
X111125368Y-72128828D02*
X111125368Y-70628828D01*
X113268225Y-72128828D02*
X113196797Y-72128828D01*
X113196797Y-72128828D02*
X113053939Y-72057400D01*
X113053939Y-72057400D02*
X112839654Y-71843114D01*
X112839654Y-71843114D02*
X112482511Y-71414542D01*
X112482511Y-71414542D02*
X112339654Y-71200257D01*
X112339654Y-71200257D02*
X112268225Y-70985971D01*
X112268225Y-70985971D02*
X112268225Y-70843114D01*
X112268225Y-70843114D02*
X112339654Y-70700257D01*
X112339654Y-70700257D02*
X112482511Y-70628828D01*
X112482511Y-70628828D02*
X112553939Y-70628828D01*
X112553939Y-70628828D02*
X112696797Y-70700257D01*
X112696797Y-70700257D02*
X112768225Y-70843114D01*
X112768225Y-70843114D02*
X112768225Y-70914542D01*
X112768225Y-70914542D02*
X112696797Y-71057400D01*
X112696797Y-71057400D02*
X112625368Y-71128828D01*
X112625368Y-71128828D02*
X112196797Y-71414542D01*
X112196797Y-71414542D02*
X112125368Y-71485971D01*
X112125368Y-71485971D02*
X112053939Y-71628828D01*
X112053939Y-71628828D02*
X112053939Y-71843114D01*
X112053939Y-71843114D02*
X112125368Y-71985971D01*
X112125368Y-71985971D02*
X112196797Y-72057400D01*
X112196797Y-72057400D02*
X112339654Y-72128828D01*
X112339654Y-72128828D02*
X112553939Y-72128828D01*
X112553939Y-72128828D02*
X112696797Y-72057400D01*
X112696797Y-72057400D02*
X112768225Y-71985971D01*
X112768225Y-71985971D02*
X112982511Y-71700257D01*
X112982511Y-71700257D02*
X113053939Y-71485971D01*
X113053939Y-71485971D02*
X113053939Y-71343114D01*
X113839654Y-71700257D02*
X114553940Y-71700257D01*
X113696797Y-72128828D02*
X114196797Y-70628828D01*
X114196797Y-70628828D02*
X114696797Y-72128828D01*
X116696796Y-72628828D02*
X116696796Y-70485971D01*
X118696796Y-70628828D02*
X119196796Y-72128828D01*
X119196796Y-72128828D02*
X119696796Y-70628828D01*
X120982510Y-72128828D02*
X120125367Y-72128828D01*
X120553938Y-72128828D02*
X120553938Y-70628828D01*
X120553938Y-70628828D02*
X120411081Y-70843114D01*
X120411081Y-70843114D02*
X120268224Y-70985971D01*
X120268224Y-70985971D02*
X120125367Y-71057400D01*
X121625366Y-71985971D02*
X121696795Y-72057400D01*
X121696795Y-72057400D02*
X121625366Y-72128828D01*
X121625366Y-72128828D02*
X121553938Y-72057400D01*
X121553938Y-72057400D02*
X121625366Y-71985971D01*
X121625366Y-71985971D02*
X121625366Y-72128828D01*
X122196795Y-70628828D02*
X123125367Y-70628828D01*
X123125367Y-70628828D02*
X122625367Y-71200257D01*
X122625367Y-71200257D02*
X122839652Y-71200257D01*
X122839652Y-71200257D02*
X122982510Y-71271685D01*
X122982510Y-71271685D02*
X123053938Y-71343114D01*
X123053938Y-71343114D02*
X123125367Y-71485971D01*
X123125367Y-71485971D02*
X123125367Y-71843114D01*
X123125367Y-71843114D02*
X123053938Y-71985971D01*
X123053938Y-71985971D02*
X122982510Y-72057400D01*
X122982510Y-72057400D02*
X122839652Y-72128828D01*
X122839652Y-72128828D02*
X122411081Y-72128828D01*
X122411081Y-72128828D02*
X122268224Y-72057400D01*
X122268224Y-72057400D02*
X122196795Y-71985971D01*
D11*
X132806809Y-65702318D02*
X132202047Y-65702318D01*
X132202047Y-65702318D02*
X132202047Y-64432318D01*
X133230142Y-65037080D02*
X133653476Y-65037080D01*
X133834904Y-65702318D02*
X133230142Y-65702318D01*
X133230142Y-65702318D02*
X133230142Y-64432318D01*
X133230142Y-64432318D02*
X133834904Y-64432318D01*
X134379190Y-65702318D02*
X134379190Y-64432318D01*
X134379190Y-64432318D02*
X134681571Y-64432318D01*
X134681571Y-64432318D02*
X134863000Y-64492794D01*
X134863000Y-64492794D02*
X134983952Y-64613746D01*
X134983952Y-64613746D02*
X135044429Y-64734699D01*
X135044429Y-64734699D02*
X135104905Y-64976603D01*
X135104905Y-64976603D02*
X135104905Y-65158032D01*
X135104905Y-65158032D02*
X135044429Y-65399937D01*
X135044429Y-65399937D02*
X134983952Y-65520889D01*
X134983952Y-65520889D02*
X134863000Y-65641842D01*
X134863000Y-65641842D02*
X134681571Y-65702318D01*
X134681571Y-65702318D02*
X134379190Y-65702318D01*
X135528238Y-64432318D02*
X136374905Y-64432318D01*
X136374905Y-64432318D02*
X135830619Y-65702318D01*
X132806809Y-56702318D02*
X132202047Y-56702318D01*
X132202047Y-56702318D02*
X132202047Y-55432318D01*
X133230142Y-56037080D02*
X133653476Y-56037080D01*
X133834904Y-56702318D02*
X133230142Y-56702318D01*
X133230142Y-56702318D02*
X133230142Y-55432318D01*
X133230142Y-55432318D02*
X133834904Y-55432318D01*
X134379190Y-56702318D02*
X134379190Y-55432318D01*
X134379190Y-55432318D02*
X134681571Y-55432318D01*
X134681571Y-55432318D02*
X134863000Y-55492794D01*
X134863000Y-55492794D02*
X134983952Y-55613746D01*
X134983952Y-55613746D02*
X135044429Y-55734699D01*
X135044429Y-55734699D02*
X135104905Y-55976603D01*
X135104905Y-55976603D02*
X135104905Y-56158032D01*
X135104905Y-56158032D02*
X135044429Y-56399937D01*
X135044429Y-56399937D02*
X134983952Y-56520889D01*
X134983952Y-56520889D02*
X134863000Y-56641842D01*
X134863000Y-56641842D02*
X134681571Y-56702318D01*
X134681571Y-56702318D02*
X134379190Y-56702318D01*
X136193476Y-55855651D02*
X136193476Y-56702318D01*
X135891095Y-55371842D02*
X135588714Y-56278984D01*
X135588714Y-56278984D02*
X136374905Y-56278984D01*
X132806809Y-50702318D02*
X132202047Y-50702318D01*
X132202047Y-50702318D02*
X132202047Y-49432318D01*
X133230142Y-50037080D02*
X133653476Y-50037080D01*
X133834904Y-50702318D02*
X133230142Y-50702318D01*
X133230142Y-50702318D02*
X133230142Y-49432318D01*
X133230142Y-49432318D02*
X133834904Y-49432318D01*
X134379190Y-50702318D02*
X134379190Y-49432318D01*
X134379190Y-49432318D02*
X134681571Y-49432318D01*
X134681571Y-49432318D02*
X134863000Y-49492794D01*
X134863000Y-49492794D02*
X134983952Y-49613746D01*
X134983952Y-49613746D02*
X135044429Y-49734699D01*
X135044429Y-49734699D02*
X135104905Y-49976603D01*
X135104905Y-49976603D02*
X135104905Y-50158032D01*
X135104905Y-50158032D02*
X135044429Y-50399937D01*
X135044429Y-50399937D02*
X134983952Y-50520889D01*
X134983952Y-50520889D02*
X134863000Y-50641842D01*
X134863000Y-50641842D02*
X134681571Y-50702318D01*
X134681571Y-50702318D02*
X134379190Y-50702318D01*
X135588714Y-49553270D02*
X135649190Y-49492794D01*
X135649190Y-49492794D02*
X135770143Y-49432318D01*
X135770143Y-49432318D02*
X136072524Y-49432318D01*
X136072524Y-49432318D02*
X136193476Y-49492794D01*
X136193476Y-49492794D02*
X136253952Y-49553270D01*
X136253952Y-49553270D02*
X136314429Y-49674222D01*
X136314429Y-49674222D02*
X136314429Y-49795175D01*
X136314429Y-49795175D02*
X136253952Y-49976603D01*
X136253952Y-49976603D02*
X135528238Y-50702318D01*
X135528238Y-50702318D02*
X136314429Y-50702318D01*
D12*
X100961333Y-46582818D02*
X100628000Y-46106627D01*
X100389905Y-46582818D02*
X100389905Y-45582818D01*
X100389905Y-45582818D02*
X100770857Y-45582818D01*
X100770857Y-45582818D02*
X100866095Y-45630437D01*
X100866095Y-45630437D02*
X100913714Y-45678056D01*
X100913714Y-45678056D02*
X100961333Y-45773294D01*
X100961333Y-45773294D02*
X100961333Y-45916151D01*
X100961333Y-45916151D02*
X100913714Y-46011389D01*
X100913714Y-46011389D02*
X100866095Y-46059008D01*
X100866095Y-46059008D02*
X100770857Y-46106627D01*
X100770857Y-46106627D02*
X100389905Y-46106627D01*
X101532762Y-46011389D02*
X101437524Y-45963770D01*
X101437524Y-45963770D02*
X101389905Y-45916151D01*
X101389905Y-45916151D02*
X101342286Y-45820913D01*
X101342286Y-45820913D02*
X101342286Y-45773294D01*
X101342286Y-45773294D02*
X101389905Y-45678056D01*
X101389905Y-45678056D02*
X101437524Y-45630437D01*
X101437524Y-45630437D02*
X101532762Y-45582818D01*
X101532762Y-45582818D02*
X101723238Y-45582818D01*
X101723238Y-45582818D02*
X101818476Y-45630437D01*
X101818476Y-45630437D02*
X101866095Y-45678056D01*
X101866095Y-45678056D02*
X101913714Y-45773294D01*
X101913714Y-45773294D02*
X101913714Y-45820913D01*
X101913714Y-45820913D02*
X101866095Y-45916151D01*
X101866095Y-45916151D02*
X101818476Y-45963770D01*
X101818476Y-45963770D02*
X101723238Y-46011389D01*
X101723238Y-46011389D02*
X101532762Y-46011389D01*
X101532762Y-46011389D02*
X101437524Y-46059008D01*
X101437524Y-46059008D02*
X101389905Y-46106627D01*
X101389905Y-46106627D02*
X101342286Y-46201865D01*
X101342286Y-46201865D02*
X101342286Y-46392341D01*
X101342286Y-46392341D02*
X101389905Y-46487579D01*
X101389905Y-46487579D02*
X101437524Y-46535199D01*
X101437524Y-46535199D02*
X101532762Y-46582818D01*
X101532762Y-46582818D02*
X101723238Y-46582818D01*
X101723238Y-46582818D02*
X101818476Y-46535199D01*
X101818476Y-46535199D02*
X101866095Y-46487579D01*
X101866095Y-46487579D02*
X101913714Y-46392341D01*
X101913714Y-46392341D02*
X101913714Y-46201865D01*
X101913714Y-46201865D02*
X101866095Y-46106627D01*
X101866095Y-46106627D02*
X101818476Y-46059008D01*
X101818476Y-46059008D02*
X101723238Y-46011389D01*
D11*
X132806809Y-47702318D02*
X132202047Y-47702318D01*
X132202047Y-47702318D02*
X132202047Y-46432318D01*
X133230142Y-47037080D02*
X133653476Y-47037080D01*
X133834904Y-47702318D02*
X133230142Y-47702318D01*
X133230142Y-47702318D02*
X133230142Y-46432318D01*
X133230142Y-46432318D02*
X133834904Y-46432318D01*
X134379190Y-47702318D02*
X134379190Y-46432318D01*
X134379190Y-46432318D02*
X134681571Y-46432318D01*
X134681571Y-46432318D02*
X134863000Y-46492794D01*
X134863000Y-46492794D02*
X134983952Y-46613746D01*
X134983952Y-46613746D02*
X135044429Y-46734699D01*
X135044429Y-46734699D02*
X135104905Y-46976603D01*
X135104905Y-46976603D02*
X135104905Y-47158032D01*
X135104905Y-47158032D02*
X135044429Y-47399937D01*
X135044429Y-47399937D02*
X134983952Y-47520889D01*
X134983952Y-47520889D02*
X134863000Y-47641842D01*
X134863000Y-47641842D02*
X134681571Y-47702318D01*
X134681571Y-47702318D02*
X134379190Y-47702318D01*
X136314429Y-47702318D02*
X135588714Y-47702318D01*
X135951571Y-47702318D02*
X135951571Y-46432318D01*
X135951571Y-46432318D02*
X135830619Y-46613746D01*
X135830619Y-46613746D02*
X135709667Y-46734699D01*
X135709667Y-46734699D02*
X135588714Y-46795175D01*
X132806809Y-62702318D02*
X132202047Y-62702318D01*
X132202047Y-62702318D02*
X132202047Y-61432318D01*
X133230142Y-62037080D02*
X133653476Y-62037080D01*
X133834904Y-62702318D02*
X133230142Y-62702318D01*
X133230142Y-62702318D02*
X133230142Y-61432318D01*
X133230142Y-61432318D02*
X133834904Y-61432318D01*
X134379190Y-62702318D02*
X134379190Y-61432318D01*
X134379190Y-61432318D02*
X134681571Y-61432318D01*
X134681571Y-61432318D02*
X134863000Y-61492794D01*
X134863000Y-61492794D02*
X134983952Y-61613746D01*
X134983952Y-61613746D02*
X135044429Y-61734699D01*
X135044429Y-61734699D02*
X135104905Y-61976603D01*
X135104905Y-61976603D02*
X135104905Y-62158032D01*
X135104905Y-62158032D02*
X135044429Y-62399937D01*
X135044429Y-62399937D02*
X134983952Y-62520889D01*
X134983952Y-62520889D02*
X134863000Y-62641842D01*
X134863000Y-62641842D02*
X134681571Y-62702318D01*
X134681571Y-62702318D02*
X134379190Y-62702318D01*
X136193476Y-61432318D02*
X135951571Y-61432318D01*
X135951571Y-61432318D02*
X135830619Y-61492794D01*
X135830619Y-61492794D02*
X135770143Y-61553270D01*
X135770143Y-61553270D02*
X135649190Y-61734699D01*
X135649190Y-61734699D02*
X135588714Y-61976603D01*
X135588714Y-61976603D02*
X135588714Y-62460413D01*
X135588714Y-62460413D02*
X135649190Y-62581365D01*
X135649190Y-62581365D02*
X135709667Y-62641842D01*
X135709667Y-62641842D02*
X135830619Y-62702318D01*
X135830619Y-62702318D02*
X136072524Y-62702318D01*
X136072524Y-62702318D02*
X136193476Y-62641842D01*
X136193476Y-62641842D02*
X136253952Y-62581365D01*
X136253952Y-62581365D02*
X136314429Y-62460413D01*
X136314429Y-62460413D02*
X136314429Y-62158032D01*
X136314429Y-62158032D02*
X136253952Y-62037080D01*
X136253952Y-62037080D02*
X136193476Y-61976603D01*
X136193476Y-61976603D02*
X136072524Y-61916127D01*
X136072524Y-61916127D02*
X135830619Y-61916127D01*
X135830619Y-61916127D02*
X135709667Y-61976603D01*
X135709667Y-61976603D02*
X135649190Y-62037080D01*
X135649190Y-62037080D02*
X135588714Y-62158032D01*
D12*
X94482819Y-41770857D02*
X94006628Y-42104190D01*
X94482819Y-42342285D02*
X93482819Y-42342285D01*
X93482819Y-42342285D02*
X93482819Y-41961333D01*
X93482819Y-41961333D02*
X93530438Y-41866095D01*
X93530438Y-41866095D02*
X93578057Y-41818476D01*
X93578057Y-41818476D02*
X93673295Y-41770857D01*
X93673295Y-41770857D02*
X93816152Y-41770857D01*
X93816152Y-41770857D02*
X93911390Y-41818476D01*
X93911390Y-41818476D02*
X93959009Y-41866095D01*
X93959009Y-41866095D02*
X94006628Y-41961333D01*
X94006628Y-41961333D02*
X94006628Y-42342285D01*
X94482819Y-40818476D02*
X94482819Y-41389904D01*
X94482819Y-41104190D02*
X93482819Y-41104190D01*
X93482819Y-41104190D02*
X93625676Y-41199428D01*
X93625676Y-41199428D02*
X93720914Y-41294666D01*
X93720914Y-41294666D02*
X93768533Y-41389904D01*
X94482819Y-39866095D02*
X94482819Y-40437523D01*
X94482819Y-40151809D02*
X93482819Y-40151809D01*
X93482819Y-40151809D02*
X93625676Y-40247047D01*
X93625676Y-40247047D02*
X93720914Y-40342285D01*
X93720914Y-40342285D02*
X93768533Y-40437523D01*
D11*
X132806809Y-59702318D02*
X132202047Y-59702318D01*
X132202047Y-59702318D02*
X132202047Y-58432318D01*
X133230142Y-59037080D02*
X133653476Y-59037080D01*
X133834904Y-59702318D02*
X133230142Y-59702318D01*
X133230142Y-59702318D02*
X133230142Y-58432318D01*
X133230142Y-58432318D02*
X133834904Y-58432318D01*
X134379190Y-59702318D02*
X134379190Y-58432318D01*
X134379190Y-58432318D02*
X134681571Y-58432318D01*
X134681571Y-58432318D02*
X134863000Y-58492794D01*
X134863000Y-58492794D02*
X134983952Y-58613746D01*
X134983952Y-58613746D02*
X135044429Y-58734699D01*
X135044429Y-58734699D02*
X135104905Y-58976603D01*
X135104905Y-58976603D02*
X135104905Y-59158032D01*
X135104905Y-59158032D02*
X135044429Y-59399937D01*
X135044429Y-59399937D02*
X134983952Y-59520889D01*
X134983952Y-59520889D02*
X134863000Y-59641842D01*
X134863000Y-59641842D02*
X134681571Y-59702318D01*
X134681571Y-59702318D02*
X134379190Y-59702318D01*
X136253952Y-58432318D02*
X135649190Y-58432318D01*
X135649190Y-58432318D02*
X135588714Y-59037080D01*
X135588714Y-59037080D02*
X135649190Y-58976603D01*
X135649190Y-58976603D02*
X135770143Y-58916127D01*
X135770143Y-58916127D02*
X136072524Y-58916127D01*
X136072524Y-58916127D02*
X136193476Y-58976603D01*
X136193476Y-58976603D02*
X136253952Y-59037080D01*
X136253952Y-59037080D02*
X136314429Y-59158032D01*
X136314429Y-59158032D02*
X136314429Y-59460413D01*
X136314429Y-59460413D02*
X136253952Y-59581365D01*
X136253952Y-59581365D02*
X136193476Y-59641842D01*
X136193476Y-59641842D02*
X136072524Y-59702318D01*
X136072524Y-59702318D02*
X135770143Y-59702318D01*
X135770143Y-59702318D02*
X135649190Y-59641842D01*
X135649190Y-59641842D02*
X135588714Y-59581365D01*
X88988237Y-50202318D02*
X88988237Y-48932318D01*
X90318714Y-50081365D02*
X90258238Y-50141842D01*
X90258238Y-50141842D02*
X90076809Y-50202318D01*
X90076809Y-50202318D02*
X89955857Y-50202318D01*
X89955857Y-50202318D02*
X89774428Y-50141842D01*
X89774428Y-50141842D02*
X89653476Y-50020889D01*
X89653476Y-50020889D02*
X89592999Y-49899937D01*
X89592999Y-49899937D02*
X89532523Y-49658032D01*
X89532523Y-49658032D02*
X89532523Y-49476603D01*
X89532523Y-49476603D02*
X89592999Y-49234699D01*
X89592999Y-49234699D02*
X89653476Y-49113746D01*
X89653476Y-49113746D02*
X89774428Y-48992794D01*
X89774428Y-48992794D02*
X89955857Y-48932318D01*
X89955857Y-48932318D02*
X90076809Y-48932318D01*
X90076809Y-48932318D02*
X90258238Y-48992794D01*
X90258238Y-48992794D02*
X90318714Y-49053270D01*
X90742047Y-48932318D02*
X91528238Y-48932318D01*
X91528238Y-48932318D02*
X91104904Y-49416127D01*
X91104904Y-49416127D02*
X91286333Y-49416127D01*
X91286333Y-49416127D02*
X91407285Y-49476603D01*
X91407285Y-49476603D02*
X91467761Y-49537080D01*
X91467761Y-49537080D02*
X91528238Y-49658032D01*
X91528238Y-49658032D02*
X91528238Y-49960413D01*
X91528238Y-49960413D02*
X91467761Y-50081365D01*
X91467761Y-50081365D02*
X91407285Y-50141842D01*
X91407285Y-50141842D02*
X91286333Y-50202318D01*
X91286333Y-50202318D02*
X90923476Y-50202318D01*
X90923476Y-50202318D02*
X90802523Y-50141842D01*
X90802523Y-50141842D02*
X90742047Y-50081365D01*
D12*
X98628834Y-55812579D02*
X98581215Y-55860199D01*
X98581215Y-55860199D02*
X98438358Y-55907818D01*
X98438358Y-55907818D02*
X98343120Y-55907818D01*
X98343120Y-55907818D02*
X98200263Y-55860199D01*
X98200263Y-55860199D02*
X98105025Y-55764960D01*
X98105025Y-55764960D02*
X98057406Y-55669722D01*
X98057406Y-55669722D02*
X98009787Y-55479246D01*
X98009787Y-55479246D02*
X98009787Y-55336389D01*
X98009787Y-55336389D02*
X98057406Y-55145913D01*
X98057406Y-55145913D02*
X98105025Y-55050675D01*
X98105025Y-55050675D02*
X98200263Y-54955437D01*
X98200263Y-54955437D02*
X98343120Y-54907818D01*
X98343120Y-54907818D02*
X98438358Y-54907818D01*
X98438358Y-54907818D02*
X98581215Y-54955437D01*
X98581215Y-54955437D02*
X98628834Y-55003056D01*
X98962168Y-54907818D02*
X99581215Y-54907818D01*
X99581215Y-54907818D02*
X99247882Y-55288770D01*
X99247882Y-55288770D02*
X99390739Y-55288770D01*
X99390739Y-55288770D02*
X99485977Y-55336389D01*
X99485977Y-55336389D02*
X99533596Y-55384008D01*
X99533596Y-55384008D02*
X99581215Y-55479246D01*
X99581215Y-55479246D02*
X99581215Y-55717341D01*
X99581215Y-55717341D02*
X99533596Y-55812579D01*
X99533596Y-55812579D02*
X99485977Y-55860199D01*
X99485977Y-55860199D02*
X99390739Y-55907818D01*
X99390739Y-55907818D02*
X99105025Y-55907818D01*
X99105025Y-55907818D02*
X99009787Y-55860199D01*
X99009787Y-55860199D02*
X98962168Y-55812579D01*
X112361333Y-87082819D02*
X112028000Y-86606628D01*
X111789905Y-87082819D02*
X111789905Y-86082819D01*
X111789905Y-86082819D02*
X112170857Y-86082819D01*
X112170857Y-86082819D02*
X112266095Y-86130438D01*
X112266095Y-86130438D02*
X112313714Y-86178057D01*
X112313714Y-86178057D02*
X112361333Y-86273295D01*
X112361333Y-86273295D02*
X112361333Y-86416152D01*
X112361333Y-86416152D02*
X112313714Y-86511390D01*
X112313714Y-86511390D02*
X112266095Y-86559009D01*
X112266095Y-86559009D02*
X112170857Y-86606628D01*
X112170857Y-86606628D02*
X111789905Y-86606628D01*
X113218476Y-86416152D02*
X113218476Y-87082819D01*
X112980381Y-86035200D02*
X112742286Y-86749485D01*
X112742286Y-86749485D02*
X113361333Y-86749485D01*
X96082819Y-41770857D02*
X95606628Y-42104190D01*
X96082819Y-42342285D02*
X95082819Y-42342285D01*
X95082819Y-42342285D02*
X95082819Y-41961333D01*
X95082819Y-41961333D02*
X95130438Y-41866095D01*
X95130438Y-41866095D02*
X95178057Y-41818476D01*
X95178057Y-41818476D02*
X95273295Y-41770857D01*
X95273295Y-41770857D02*
X95416152Y-41770857D01*
X95416152Y-41770857D02*
X95511390Y-41818476D01*
X95511390Y-41818476D02*
X95559009Y-41866095D01*
X95559009Y-41866095D02*
X95606628Y-41961333D01*
X95606628Y-41961333D02*
X95606628Y-42342285D01*
X96082819Y-40818476D02*
X96082819Y-41389904D01*
X96082819Y-41104190D02*
X95082819Y-41104190D01*
X95082819Y-41104190D02*
X95225676Y-41199428D01*
X95225676Y-41199428D02*
X95320914Y-41294666D01*
X95320914Y-41294666D02*
X95368533Y-41389904D01*
X95082819Y-40199428D02*
X95082819Y-40104190D01*
X95082819Y-40104190D02*
X95130438Y-40008952D01*
X95130438Y-40008952D02*
X95178057Y-39961333D01*
X95178057Y-39961333D02*
X95273295Y-39913714D01*
X95273295Y-39913714D02*
X95463771Y-39866095D01*
X95463771Y-39866095D02*
X95701866Y-39866095D01*
X95701866Y-39866095D02*
X95892342Y-39913714D01*
X95892342Y-39913714D02*
X95987580Y-39961333D01*
X95987580Y-39961333D02*
X96035200Y-40008952D01*
X96035200Y-40008952D02*
X96082819Y-40104190D01*
X96082819Y-40104190D02*
X96082819Y-40199428D01*
X96082819Y-40199428D02*
X96035200Y-40294666D01*
X96035200Y-40294666D02*
X95987580Y-40342285D01*
X95987580Y-40342285D02*
X95892342Y-40389904D01*
X95892342Y-40389904D02*
X95701866Y-40437523D01*
X95701866Y-40437523D02*
X95463771Y-40437523D01*
X95463771Y-40437523D02*
X95273295Y-40389904D01*
X95273295Y-40389904D02*
X95178057Y-40342285D01*
X95178057Y-40342285D02*
X95130438Y-40294666D01*
X95130438Y-40294666D02*
X95082819Y-40199428D01*
D11*
X132806809Y-53702318D02*
X132202047Y-53702318D01*
X132202047Y-53702318D02*
X132202047Y-52432318D01*
X133230142Y-53037080D02*
X133653476Y-53037080D01*
X133834904Y-53702318D02*
X133230142Y-53702318D01*
X133230142Y-53702318D02*
X133230142Y-52432318D01*
X133230142Y-52432318D02*
X133834904Y-52432318D01*
X134379190Y-53702318D02*
X134379190Y-52432318D01*
X134379190Y-52432318D02*
X134681571Y-52432318D01*
X134681571Y-52432318D02*
X134863000Y-52492794D01*
X134863000Y-52492794D02*
X134983952Y-52613746D01*
X134983952Y-52613746D02*
X135044429Y-52734699D01*
X135044429Y-52734699D02*
X135104905Y-52976603D01*
X135104905Y-52976603D02*
X135104905Y-53158032D01*
X135104905Y-53158032D02*
X135044429Y-53399937D01*
X135044429Y-53399937D02*
X134983952Y-53520889D01*
X134983952Y-53520889D02*
X134863000Y-53641842D01*
X134863000Y-53641842D02*
X134681571Y-53702318D01*
X134681571Y-53702318D02*
X134379190Y-53702318D01*
X135528238Y-52432318D02*
X136314429Y-52432318D01*
X136314429Y-52432318D02*
X135891095Y-52916127D01*
X135891095Y-52916127D02*
X136072524Y-52916127D01*
X136072524Y-52916127D02*
X136193476Y-52976603D01*
X136193476Y-52976603D02*
X136253952Y-53037080D01*
X136253952Y-53037080D02*
X136314429Y-53158032D01*
X136314429Y-53158032D02*
X136314429Y-53460413D01*
X136314429Y-53460413D02*
X136253952Y-53581365D01*
X136253952Y-53581365D02*
X136193476Y-53641842D01*
X136193476Y-53641842D02*
X136072524Y-53702318D01*
X136072524Y-53702318D02*
X135709667Y-53702318D01*
X135709667Y-53702318D02*
X135588714Y-53641842D01*
X135588714Y-53641842D02*
X135528238Y-53581365D01*
D12*
X93461333Y-58287580D02*
X93413714Y-58335200D01*
X93413714Y-58335200D02*
X93270857Y-58382819D01*
X93270857Y-58382819D02*
X93175619Y-58382819D01*
X93175619Y-58382819D02*
X93032762Y-58335200D01*
X93032762Y-58335200D02*
X92937524Y-58239961D01*
X92937524Y-58239961D02*
X92889905Y-58144723D01*
X92889905Y-58144723D02*
X92842286Y-57954247D01*
X92842286Y-57954247D02*
X92842286Y-57811390D01*
X92842286Y-57811390D02*
X92889905Y-57620914D01*
X92889905Y-57620914D02*
X92937524Y-57525676D01*
X92937524Y-57525676D02*
X93032762Y-57430438D01*
X93032762Y-57430438D02*
X93175619Y-57382819D01*
X93175619Y-57382819D02*
X93270857Y-57382819D01*
X93270857Y-57382819D02*
X93413714Y-57430438D01*
X93413714Y-57430438D02*
X93461333Y-57478057D01*
X93842286Y-57478057D02*
X93889905Y-57430438D01*
X93889905Y-57430438D02*
X93985143Y-57382819D01*
X93985143Y-57382819D02*
X94223238Y-57382819D01*
X94223238Y-57382819D02*
X94318476Y-57430438D01*
X94318476Y-57430438D02*
X94366095Y-57478057D01*
X94366095Y-57478057D02*
X94413714Y-57573295D01*
X94413714Y-57573295D02*
X94413714Y-57668533D01*
X94413714Y-57668533D02*
X94366095Y-57811390D01*
X94366095Y-57811390D02*
X93794667Y-58382819D01*
X93794667Y-58382819D02*
X94413714Y-58382819D01*
D11*
X132806809Y-68702318D02*
X132202047Y-68702318D01*
X132202047Y-68702318D02*
X132202047Y-67432318D01*
X133230142Y-68037080D02*
X133653476Y-68037080D01*
X133834904Y-68702318D02*
X133230142Y-68702318D01*
X133230142Y-68702318D02*
X133230142Y-67432318D01*
X133230142Y-67432318D02*
X133834904Y-67432318D01*
X134379190Y-68702318D02*
X134379190Y-67432318D01*
X134379190Y-67432318D02*
X134681571Y-67432318D01*
X134681571Y-67432318D02*
X134863000Y-67492794D01*
X134863000Y-67492794D02*
X134983952Y-67613746D01*
X134983952Y-67613746D02*
X135044429Y-67734699D01*
X135044429Y-67734699D02*
X135104905Y-67976603D01*
X135104905Y-67976603D02*
X135104905Y-68158032D01*
X135104905Y-68158032D02*
X135044429Y-68399937D01*
X135044429Y-68399937D02*
X134983952Y-68520889D01*
X134983952Y-68520889D02*
X134863000Y-68641842D01*
X134863000Y-68641842D02*
X134681571Y-68702318D01*
X134681571Y-68702318D02*
X134379190Y-68702318D01*
X135830619Y-67976603D02*
X135709667Y-67916127D01*
X135709667Y-67916127D02*
X135649190Y-67855651D01*
X135649190Y-67855651D02*
X135588714Y-67734699D01*
X135588714Y-67734699D02*
X135588714Y-67674222D01*
X135588714Y-67674222D02*
X135649190Y-67553270D01*
X135649190Y-67553270D02*
X135709667Y-67492794D01*
X135709667Y-67492794D02*
X135830619Y-67432318D01*
X135830619Y-67432318D02*
X136072524Y-67432318D01*
X136072524Y-67432318D02*
X136193476Y-67492794D01*
X136193476Y-67492794D02*
X136253952Y-67553270D01*
X136253952Y-67553270D02*
X136314429Y-67674222D01*
X136314429Y-67674222D02*
X136314429Y-67734699D01*
X136314429Y-67734699D02*
X136253952Y-67855651D01*
X136253952Y-67855651D02*
X136193476Y-67916127D01*
X136193476Y-67916127D02*
X136072524Y-67976603D01*
X136072524Y-67976603D02*
X135830619Y-67976603D01*
X135830619Y-67976603D02*
X135709667Y-68037080D01*
X135709667Y-68037080D02*
X135649190Y-68097556D01*
X135649190Y-68097556D02*
X135588714Y-68218508D01*
X135588714Y-68218508D02*
X135588714Y-68460413D01*
X135588714Y-68460413D02*
X135649190Y-68581365D01*
X135649190Y-68581365D02*
X135709667Y-68641842D01*
X135709667Y-68641842D02*
X135830619Y-68702318D01*
X135830619Y-68702318D02*
X136072524Y-68702318D01*
X136072524Y-68702318D02*
X136193476Y-68641842D01*
X136193476Y-68641842D02*
X136253952Y-68581365D01*
X136253952Y-68581365D02*
X136314429Y-68460413D01*
X136314429Y-68460413D02*
X136314429Y-68218508D01*
X136314429Y-68218508D02*
X136253952Y-68097556D01*
X136253952Y-68097556D02*
X136193476Y-68037080D01*
X136193476Y-68037080D02*
X136072524Y-67976603D01*
D12*
X115727333Y-87082819D02*
X115394000Y-86606628D01*
X115155905Y-87082819D02*
X115155905Y-86082819D01*
X115155905Y-86082819D02*
X115536857Y-86082819D01*
X115536857Y-86082819D02*
X115632095Y-86130438D01*
X115632095Y-86130438D02*
X115679714Y-86178057D01*
X115679714Y-86178057D02*
X115727333Y-86273295D01*
X115727333Y-86273295D02*
X115727333Y-86416152D01*
X115727333Y-86416152D02*
X115679714Y-86511390D01*
X115679714Y-86511390D02*
X115632095Y-86559009D01*
X115632095Y-86559009D02*
X115536857Y-86606628D01*
X115536857Y-86606628D02*
X115155905Y-86606628D01*
X116060667Y-86082819D02*
X116679714Y-86082819D01*
X116679714Y-86082819D02*
X116346381Y-86463771D01*
X116346381Y-86463771D02*
X116489238Y-86463771D01*
X116489238Y-86463771D02*
X116584476Y-86511390D01*
X116584476Y-86511390D02*
X116632095Y-86559009D01*
X116632095Y-86559009D02*
X116679714Y-86654247D01*
X116679714Y-86654247D02*
X116679714Y-86892342D01*
X116679714Y-86892342D02*
X116632095Y-86987580D01*
X116632095Y-86987580D02*
X116584476Y-87035200D01*
X116584476Y-87035200D02*
X116489238Y-87082819D01*
X116489238Y-87082819D02*
X116203524Y-87082819D01*
X116203524Y-87082819D02*
X116108286Y-87035200D01*
X116108286Y-87035200D02*
X116060667Y-86987580D01*
D11*
X112764904Y-55002318D02*
X112764904Y-53732318D01*
X112764904Y-53732318D02*
X113188238Y-54639461D01*
X113188238Y-54639461D02*
X113611571Y-53732318D01*
X113611571Y-53732318D02*
X113611571Y-55002318D01*
X114216333Y-55002318D02*
X114216333Y-53732318D01*
X114942048Y-55002318D02*
X114397762Y-54276603D01*
X114942048Y-53732318D02*
X114216333Y-54458032D01*
X116151572Y-55002318D02*
X115425857Y-55002318D01*
X115788714Y-55002318D02*
X115788714Y-53732318D01*
X115788714Y-53732318D02*
X115667762Y-53913746D01*
X115667762Y-53913746D02*
X115546810Y-54034699D01*
X115546810Y-54034699D02*
X115425857Y-54095175D01*
D12*
X96061333Y-56428580D02*
X96013714Y-56476200D01*
X96013714Y-56476200D02*
X95870857Y-56523819D01*
X95870857Y-56523819D02*
X95775619Y-56523819D01*
X95775619Y-56523819D02*
X95632762Y-56476200D01*
X95632762Y-56476200D02*
X95537524Y-56380961D01*
X95537524Y-56380961D02*
X95489905Y-56285723D01*
X95489905Y-56285723D02*
X95442286Y-56095247D01*
X95442286Y-56095247D02*
X95442286Y-55952390D01*
X95442286Y-55952390D02*
X95489905Y-55761914D01*
X95489905Y-55761914D02*
X95537524Y-55666676D01*
X95537524Y-55666676D02*
X95632762Y-55571438D01*
X95632762Y-55571438D02*
X95775619Y-55523819D01*
X95775619Y-55523819D02*
X95870857Y-55523819D01*
X95870857Y-55523819D02*
X96013714Y-55571438D01*
X96013714Y-55571438D02*
X96061333Y-55619057D01*
X96918476Y-55857152D02*
X96918476Y-56523819D01*
X96680381Y-55476200D02*
X96442286Y-56190485D01*
X96442286Y-56190485D02*
X97061333Y-56190485D01*
X114166334Y-62087580D02*
X114118715Y-62135200D01*
X114118715Y-62135200D02*
X113975858Y-62182819D01*
X113975858Y-62182819D02*
X113880620Y-62182819D01*
X113880620Y-62182819D02*
X113737763Y-62135200D01*
X113737763Y-62135200D02*
X113642525Y-62039961D01*
X113642525Y-62039961D02*
X113594906Y-61944723D01*
X113594906Y-61944723D02*
X113547287Y-61754247D01*
X113547287Y-61754247D02*
X113547287Y-61611390D01*
X113547287Y-61611390D02*
X113594906Y-61420914D01*
X113594906Y-61420914D02*
X113642525Y-61325676D01*
X113642525Y-61325676D02*
X113737763Y-61230438D01*
X113737763Y-61230438D02*
X113880620Y-61182819D01*
X113880620Y-61182819D02*
X113975858Y-61182819D01*
X113975858Y-61182819D02*
X114118715Y-61230438D01*
X114118715Y-61230438D02*
X114166334Y-61278057D01*
X114642525Y-62182819D02*
X114833001Y-62182819D01*
X114833001Y-62182819D02*
X114928239Y-62135200D01*
X114928239Y-62135200D02*
X114975858Y-62087580D01*
X114975858Y-62087580D02*
X115071096Y-61944723D01*
X115071096Y-61944723D02*
X115118715Y-61754247D01*
X115118715Y-61754247D02*
X115118715Y-61373295D01*
X115118715Y-61373295D02*
X115071096Y-61278057D01*
X115071096Y-61278057D02*
X115023477Y-61230438D01*
X115023477Y-61230438D02*
X114928239Y-61182819D01*
X114928239Y-61182819D02*
X114737763Y-61182819D01*
X114737763Y-61182819D02*
X114642525Y-61230438D01*
X114642525Y-61230438D02*
X114594906Y-61278057D01*
X114594906Y-61278057D02*
X114547287Y-61373295D01*
X114547287Y-61373295D02*
X114547287Y-61611390D01*
X114547287Y-61611390D02*
X114594906Y-61706628D01*
X114594906Y-61706628D02*
X114642525Y-61754247D01*
X114642525Y-61754247D02*
X114737763Y-61801866D01*
X114737763Y-61801866D02*
X114928239Y-61801866D01*
X114928239Y-61801866D02*
X115023477Y-61754247D01*
X115023477Y-61754247D02*
X115071096Y-61706628D01*
X115071096Y-61706628D02*
X115118715Y-61611390D01*
X98628833Y-46412580D02*
X98581214Y-46460200D01*
X98581214Y-46460200D02*
X98438357Y-46507819D01*
X98438357Y-46507819D02*
X98343119Y-46507819D01*
X98343119Y-46507819D02*
X98200262Y-46460200D01*
X98200262Y-46460200D02*
X98105024Y-46364961D01*
X98105024Y-46364961D02*
X98057405Y-46269723D01*
X98057405Y-46269723D02*
X98009786Y-46079247D01*
X98009786Y-46079247D02*
X98009786Y-45936390D01*
X98009786Y-45936390D02*
X98057405Y-45745914D01*
X98057405Y-45745914D02*
X98105024Y-45650676D01*
X98105024Y-45650676D02*
X98200262Y-45555438D01*
X98200262Y-45555438D02*
X98343119Y-45507819D01*
X98343119Y-45507819D02*
X98438357Y-45507819D01*
X98438357Y-45507819D02*
X98581214Y-45555438D01*
X98581214Y-45555438D02*
X98628833Y-45603057D01*
X99581214Y-46507819D02*
X99009786Y-46507819D01*
X99295500Y-46507819D02*
X99295500Y-45507819D01*
X99295500Y-45507819D02*
X99200262Y-45650676D01*
X99200262Y-45650676D02*
X99105024Y-45745914D01*
X99105024Y-45745914D02*
X99009786Y-45793533D01*
D13*
%TO.C,LED7*%
X138077999Y-64177998D02*
X138377998Y-64378000D01*
X137678001Y-64378000D02*
X138777998Y-64378001D01*
X138077999Y-64278000D02*
X138228000Y-64378001D01*
X138377999Y-64178001D02*
X138377999Y-64578001D01*
X138077999Y-64378000D02*
X138227999Y-64478001D01*
X138377998Y-64378000D02*
X138077999Y-64578001D01*
X138077999Y-64578001D02*
X138077999Y-64177998D01*
X138127999Y-64777999D02*
X138327998Y-65078000D01*
X138127999Y-64877999D02*
X138227999Y-65078000D01*
X138227999Y-65078000D02*
X138127999Y-65178000D01*
X138327998Y-65078000D02*
X138127999Y-65378000D01*
X138127999Y-65378000D02*
X138127999Y-64777999D01*
%TO.C,LED4*%
X138328001Y-56078000D02*
X138128001Y-56377999D01*
X138128001Y-56377999D02*
X138128002Y-55778000D01*
X138228000Y-56078000D02*
X138127999Y-56178001D01*
X138378000Y-55377999D02*
X138078000Y-55578000D01*
X138128000Y-55878000D02*
X138228000Y-56078000D01*
X138378001Y-55178000D02*
X138378000Y-55578000D01*
X138128002Y-55778000D02*
X138328001Y-56078000D01*
X138078000Y-55578000D02*
X138077999Y-55177999D01*
X138078001Y-55378000D02*
X138227999Y-55477999D01*
X138077999Y-55278000D02*
X138227999Y-55377999D01*
X138077999Y-55177999D02*
X138378000Y-55377999D01*
X137678001Y-55378002D02*
X138777999Y-55378000D01*
%TO.C,LED2*%
X138128001Y-50377999D02*
X138128002Y-49778000D01*
X138228000Y-50078000D02*
X138127999Y-50178001D01*
X138328001Y-50078000D02*
X138128001Y-50377999D01*
X138128000Y-49878000D02*
X138228000Y-50078000D01*
X138128002Y-49778000D02*
X138328001Y-50078000D01*
X138078000Y-49578000D02*
X138077999Y-49177999D01*
X137678001Y-49378002D02*
X138777999Y-49378000D01*
X138078001Y-49378000D02*
X138227999Y-49477999D01*
X138077999Y-49278000D02*
X138227999Y-49377999D01*
X138378000Y-49377999D02*
X138078000Y-49578000D01*
X138077999Y-49177999D02*
X138378000Y-49377999D01*
X138378001Y-49178000D02*
X138378000Y-49578000D01*
%TO.C,R8*%
X100605500Y-48573276D02*
X100605500Y-49082724D01*
X101650500Y-48573276D02*
X101650500Y-49082724D01*
%TO.C,LED1*%
X137678002Y-46378000D02*
X138778000Y-46378001D01*
X138128000Y-47378001D02*
X138128001Y-46778000D01*
X138128000Y-46878000D02*
X138228000Y-47078000D01*
X138228000Y-47078000D02*
X138127999Y-47178000D01*
X138128001Y-46778000D02*
X138328000Y-47078001D01*
X138078001Y-46578001D02*
X138078000Y-46178000D01*
X138328000Y-47078001D02*
X138128000Y-47378001D01*
X138077999Y-46378001D02*
X138228000Y-46478000D01*
X138077999Y-46278000D02*
X138228002Y-46378000D01*
X138078000Y-46178000D02*
X138377999Y-46378000D01*
X138377999Y-46378000D02*
X138078001Y-46578001D01*
X138378000Y-46178003D02*
X138378001Y-46578001D01*
%TO.C,LED6*%
X138378000Y-61177999D02*
X138378000Y-61578002D01*
X138078000Y-61178000D02*
X138378000Y-61378000D01*
X138078000Y-61278000D02*
X138227999Y-61378000D01*
X138378000Y-61378000D02*
X138078001Y-61578000D01*
X138077999Y-61378000D02*
X138228000Y-61478000D01*
X137678000Y-61378000D02*
X138777999Y-61378000D01*
X138078001Y-61578000D02*
X138078000Y-61178000D01*
X138127999Y-61778001D02*
X138328000Y-62078000D01*
X138127999Y-61878001D02*
X138228000Y-62078000D01*
X138328000Y-62078000D02*
X138128001Y-62378001D01*
X138228000Y-62078000D02*
X138127999Y-62178001D01*
X138128001Y-62378001D02*
X138127999Y-61778001D01*
%TO.C,R11*%
X93455500Y-44398276D02*
X93455500Y-44907724D01*
X94500500Y-44398276D02*
X94500500Y-44907724D01*
%TO.C,LED5*%
X138378000Y-58178003D02*
X138378001Y-58578001D01*
X138377999Y-58378000D02*
X138078001Y-58578001D01*
X138078000Y-58178000D02*
X138377999Y-58378000D01*
X138077999Y-58278000D02*
X138228002Y-58378000D01*
X138077999Y-58378001D02*
X138228000Y-58478000D01*
X138328000Y-59078001D02*
X138128000Y-59378001D01*
X138078001Y-58578001D02*
X138078000Y-58178000D01*
X138128001Y-58778000D02*
X138328000Y-59078001D01*
X138228000Y-59078000D02*
X138127999Y-59178000D01*
X138128000Y-58878000D02*
X138228000Y-59078000D01*
X138128000Y-59378001D02*
X138128001Y-58778000D01*
X137678002Y-58378000D02*
X138778000Y-58378001D01*
D14*
%TO.C,IC3*%
X96878000Y-51653000D02*
G75*
G02*
X96628000Y-51653000I-125000J0D01*
G01*
X96628000Y-51653000D02*
G75*
G02*
X96878000Y-51653000I125000J0D01*
G01*
D13*
%TO.C,C3*%
X98285500Y-52506733D02*
X98285500Y-52799267D01*
X99305500Y-52506733D02*
X99305500Y-52799267D01*
%TO.C,R4*%
X111939500Y-84682724D02*
X111939500Y-84173276D01*
X112984500Y-84682724D02*
X112984500Y-84173276D01*
%TO.C,R10*%
X95055500Y-44398276D02*
X95055500Y-44907724D01*
X96100500Y-44398276D02*
X96100500Y-44907724D01*
%TO.C,LED3*%
X138128000Y-53378001D02*
X138128001Y-52778000D01*
X138328000Y-53078001D02*
X138128000Y-53378001D01*
X138228000Y-53078000D02*
X138127999Y-53178000D01*
X138128000Y-52878000D02*
X138228000Y-53078000D01*
X138128001Y-52778000D02*
X138328000Y-53078001D01*
X138078001Y-52578001D02*
X138078000Y-52178000D01*
X138377999Y-52378000D02*
X138078001Y-52578001D01*
X138077999Y-52378001D02*
X138228000Y-52478000D01*
X138378000Y-52178003D02*
X138378001Y-52578001D01*
X138077999Y-52278000D02*
X138228002Y-52378000D01*
X137678002Y-52378000D02*
X138778000Y-52378001D01*
X138078000Y-52178000D02*
X138377999Y-52378000D01*
%TO.C,C2*%
X93118000Y-55044233D02*
X93118000Y-55336767D01*
X94138000Y-55044233D02*
X94138000Y-55336767D01*
%TO.C,LED8*%
X137678001Y-67378002D02*
X138777999Y-67378000D01*
X138077999Y-67177999D02*
X138378000Y-67377999D01*
X138077999Y-67278000D02*
X138227999Y-67377999D01*
X138078001Y-67378000D02*
X138227999Y-67477999D01*
X138078000Y-67578000D02*
X138077999Y-67177999D01*
X138128002Y-67778000D02*
X138328001Y-68078000D01*
X138378001Y-67178000D02*
X138378000Y-67578000D01*
X138128000Y-67878000D02*
X138228000Y-68078000D01*
X138378000Y-67377999D02*
X138078000Y-67578000D01*
X138228000Y-68078000D02*
X138127999Y-68178001D01*
X138128001Y-68377999D02*
X138128002Y-67778000D01*
X138328001Y-68078000D02*
X138128001Y-68377999D01*
%TO.C,R3*%
X115305500Y-84682724D02*
X115305500Y-84173276D01*
X116350500Y-84682724D02*
X116350500Y-84173276D01*
D15*
%TO.C,MK1*%
X116633000Y-57596000D02*
X116633000Y-57596000D01*
X116733000Y-57596000D02*
X116733000Y-57596000D01*
X116733000Y-57596000D02*
X116733000Y-57596000D01*
X116633000Y-57596000D02*
G75*
G02*
X116733000Y-57596000I50000J0D01*
G01*
X116633000Y-57596000D02*
G75*
G02*
X116733000Y-57596000I50000J0D01*
G01*
X116733000Y-57596000D02*
G75*
G02*
X116633000Y-57596000I-50000J0D01*
G01*
D13*
%TO.C,C4*%
X96374267Y-53759000D02*
X96081733Y-53759000D01*
X96374267Y-54779000D02*
X96081733Y-54779000D01*
%TO.C,C9*%
X114479267Y-59418000D02*
X114186733Y-59418000D01*
X114479267Y-60438000D02*
X114186733Y-60438000D01*
%TO.C,C1*%
X98285500Y-48999267D02*
X98285500Y-48706733D01*
X99305500Y-48999267D02*
X99305500Y-48706733D01*
%TD*%
M02*
