%TF.GenerationSoftware,KiCad,Pcbnew,8.0.0*%
%TF.CreationDate,2024-03-14T21:51:16+01:00*%
%TF.ProjectId,BAT2024,42415432-3032-4342-9e6b-696361645f70,1.0*%
%TF.SameCoordinates,Original*%
%TF.FileFunction,Soldermask,Top*%
%TF.FilePolarity,Negative*%
%FSLAX46Y46*%
G04 Gerber Fmt 4.6, Leading zero omitted, Abs format (unit mm)*
G04 Created by KiCad (PCBNEW 8.0.0) date 2024-03-14 21:51:16*
%MOMM*%
%LPD*%
G01*
G04 APERTURE LIST*
G04 Aperture macros list*
%AMRoundRect*
0 Rectangle with rounded corners*
0 $1 Rounding radius*
0 $2 $3 $4 $5 $6 $7 $8 $9 X,Y pos of 4 corners*
0 Add a 4 corners polygon primitive as box body*
4,1,4,$2,$3,$4,$5,$6,$7,$8,$9,$2,$3,0*
0 Add four circle primitives for the rounded corners*
1,1,$1+$1,$2,$3*
1,1,$1+$1,$4,$5*
1,1,$1+$1,$6,$7*
1,1,$1+$1,$8,$9*
0 Add four rect primitives between the rounded corners*
20,1,$1+$1,$2,$3,$4,$5,0*
20,1,$1+$1,$4,$5,$6,$7,0*
20,1,$1+$1,$6,$7,$8,$9,0*
20,1,$1+$1,$8,$9,$2,$3,0*%
%AMRotRect*
0 Rectangle, with rotation*
0 The origin of the aperture is its center*
0 $1 length*
0 $2 width*
0 $3 Rotation angle, in degrees counterclockwise*
0 Add horizontal line*
21,1,$1,$2,0,0,$3*%
G04 Aperture macros list end*
%ADD10C,2.280000*%
%ADD11C,3.200000*%
%ADD12RotRect,0.700000X1.200000X295.000000*%
%ADD13RotRect,0.700000X1.200000X65.000000*%
%ADD14RotRect,0.700000X1.200000X155.000000*%
%ADD15RotRect,0.700000X1.200000X200.000000*%
%ADD16RotRect,0.700000X1.200000X330.000000*%
%ADD17RoundRect,0.237500X-0.237500X0.250000X-0.237500X-0.250000X0.237500X-0.250000X0.237500X0.250000X0*%
%ADD18RotRect,0.700000X1.200000X20.000000*%
%ADD19R,0.850000X0.300000*%
%ADD20R,0.300000X0.850000*%
%ADD21R,2.700000X2.700000*%
%ADD22RoundRect,0.237500X-0.237500X0.300000X-0.237500X-0.300000X0.237500X-0.300000X0.237500X0.300000X0*%
%ADD23RoundRect,0.237500X0.237500X-0.250000X0.237500X0.250000X-0.237500X0.250000X-0.237500X-0.250000X0*%
%ADD24RotRect,0.700000X1.200000X110.000000*%
%ADD25RotRect,0.700000X1.200000X245.000000*%
%ADD26R,1.032000X0.622000*%
%ADD27R,1.032000X0.500000*%
%ADD28RoundRect,0.237500X0.300000X0.237500X-0.300000X0.237500X-0.300000X-0.237500X0.300000X-0.237500X0*%
%ADD29RoundRect,0.237500X0.237500X-0.300000X0.237500X0.300000X-0.237500X0.300000X-0.237500X-0.300000X0*%
%ADD30C,1.000000*%
%ADD31C,0.990600*%
%ADD32C,0.650000*%
%ADD33O,1.204000X2.304000*%
%ADD34RoundRect,0.301000X0.301000X0.701000X-0.301000X0.701000X-0.301000X-0.701000X0.301000X-0.701000X0*%
G04 APERTURE END LIST*
D10*
%TO.C,H1*%
X119518000Y-59328000D03*
X99028000Y-59328000D03*
%TD*%
D11*
%TO.C,H2*%
X134028000Y-39928000D03*
%TD*%
D12*
%TO.C,LED7*%
X105261111Y-31778234D03*
X103811019Y-32454424D03*
%TD*%
D13*
%TO.C,LED4*%
X102505065Y-81650631D03*
X103955157Y-82326821D03*
%TD*%
D14*
%TO.C,LED2*%
X138539632Y-69029934D03*
X139215822Y-67579842D03*
%TD*%
D15*
%TO.C,LED1*%
X139692290Y-48398819D03*
X139145058Y-46895311D03*
%TD*%
D16*
%TO.C,LED6*%
X89946275Y-45648290D03*
X89146275Y-47033930D03*
%TD*%
D17*
%TO.C,R8*%
X93978000Y-43740500D03*
X93978000Y-45565500D03*
%TD*%
D18*
%TO.C,LED5*%
X88731715Y-66247180D03*
X89278947Y-67750688D03*
%TD*%
D19*
%TO.C,IC3*%
X96328000Y-50903000D03*
X96328000Y-50403000D03*
X96328000Y-49903000D03*
X96328000Y-49403000D03*
X96328000Y-48903000D03*
X96328000Y-48403000D03*
D20*
X95628000Y-47703000D03*
X95128000Y-47703000D03*
X94628000Y-47703000D03*
X94128000Y-47703000D03*
X93628000Y-47703000D03*
X93128000Y-47703000D03*
D19*
X92428000Y-48403000D03*
X92428000Y-48903000D03*
X92428000Y-49403000D03*
X92428000Y-49903000D03*
X92428000Y-50403000D03*
X92428000Y-50903000D03*
D20*
X93128000Y-51603000D03*
X93628000Y-51603000D03*
X94128000Y-51603000D03*
X94628000Y-51603000D03*
X95128000Y-51603000D03*
X95628000Y-51603000D03*
D21*
X94378000Y-49653000D03*
%TD*%
D22*
%TO.C,C3*%
X98795500Y-51790500D03*
X98795500Y-53515500D03*
%TD*%
D23*
%TO.C,R2*%
X112462000Y-84728000D03*
X112462000Y-82903000D03*
%TD*%
D17*
%TO.C,R7*%
X95578000Y-43740500D03*
X95578000Y-45565500D03*
%TD*%
D24*
%TO.C,LED3*%
X123136181Y-82803286D03*
X124639689Y-82256054D03*
%TD*%
D22*
%TO.C,C2*%
X93628000Y-54328000D03*
X93628000Y-56053000D03*
%TD*%
D25*
%TO.C,LED8*%
X125918936Y-32995368D03*
X124468844Y-32319178D03*
%TD*%
D23*
%TO.C,R1*%
X115462000Y-84728000D03*
X115462000Y-82903000D03*
%TD*%
D26*
%TO.C,MK1*%
X115438000Y-57596000D03*
D27*
X115438000Y-56712000D03*
D26*
X115438000Y-55828000D03*
X113228000Y-55828000D03*
D27*
X113228000Y-56712000D03*
D26*
X113228000Y-57596000D03*
%TD*%
D28*
%TO.C,C4*%
X97090500Y-54269000D03*
X95365500Y-54269000D03*
%TD*%
%TO.C,C9*%
X115195500Y-59928000D03*
X113470500Y-59928000D03*
%TD*%
D29*
%TO.C,C1*%
X98795500Y-49715500D03*
X98795500Y-47990500D03*
%TD*%
D11*
%TO.C,H4*%
X134028000Y-74728000D03*
%TD*%
%TO.C,H3*%
X87828000Y-57328000D03*
%TD*%
D30*
%TO.C,S1*%
X87545095Y-49234055D03*
X90310905Y-43021945D03*
%TD*%
D31*
%TO.C,J1*%
X128024051Y-39924051D03*
X123713528Y-37050369D03*
X125150369Y-35613528D03*
%TD*%
D32*
%TO.C,J2*%
X117118000Y-80248000D03*
X111338000Y-80248000D03*
D33*
X118548000Y-79748000D03*
X109908000Y-79748000D03*
D34*
X118548000Y-83928000D03*
X109908000Y-83928000D03*
%TD*%
M02*
