%TF.GenerationSoftware,KiCad,Pcbnew,8.0.0*%
%TF.CreationDate,2024-03-14T21:51:16+01:00*%
%TF.ProjectId,BAT2024,42415432-3032-4342-9e6b-696361645f70,1.0*%
%TF.SameCoordinates,Original*%
%TF.FileFunction,Copper,L2,Bot*%
%TF.FilePolarity,Positive*%
%FSLAX46Y46*%
G04 Gerber Fmt 4.6, Leading zero omitted, Abs format (unit mm)*
G04 Created by KiCad (PCBNEW 8.0.0) date 2024-03-14 21:51:16*
%MOMM*%
%LPD*%
G01*
G04 APERTURE LIST*
G04 Aperture macros list*
%AMRoundRect*
0 Rectangle with rounded corners*
0 $1 Rounding radius*
0 $2 $3 $4 $5 $6 $7 $8 $9 X,Y pos of 4 corners*
0 Add a 4 corners polygon primitive as box body*
4,1,4,$2,$3,$4,$5,$6,$7,$8,$9,$2,$3,0*
0 Add four circle primitives for the rounded corners*
1,1,$1+$1,$2,$3*
1,1,$1+$1,$4,$5*
1,1,$1+$1,$6,$7*
1,1,$1+$1,$8,$9*
0 Add four rect primitives between the rounded corners*
20,1,$1+$1,$2,$3,$4,$5,0*
20,1,$1+$1,$4,$5,$6,$7,0*
20,1,$1+$1,$6,$7,$8,$9,0*
20,1,$1+$1,$8,$9,$2,$3,0*%
%AMRotRect*
0 Rectangle, with rotation*
0 The origin of the aperture is its center*
0 $1 length*
0 $2 width*
0 $3 Rotation angle, in degrees counterclockwise*
0 Add horizontal line*
21,1,$1,$2,0,0,$3*%
G04 Aperture macros list end*
%TA.AperFunction,ComponentPad*%
%ADD10C,2.280000*%
%TD*%
%TA.AperFunction,SMDPad,CuDef*%
%ADD11RoundRect,0.150000X0.150000X-0.512500X0.150000X0.512500X-0.150000X0.512500X-0.150000X-0.512500X0*%
%TD*%
%TA.AperFunction,SMDPad,CuDef*%
%ADD12RoundRect,0.237500X0.300000X0.237500X-0.300000X0.237500X-0.300000X-0.237500X0.300000X-0.237500X0*%
%TD*%
%TA.AperFunction,SMDPad,CuDef*%
%ADD13R,1.500000X1.500000*%
%TD*%
%TA.AperFunction,SMDPad,CuDef*%
%ADD14RoundRect,0.237500X0.237500X-0.300000X0.237500X0.300000X-0.237500X0.300000X-0.237500X-0.300000X0*%
%TD*%
%TA.AperFunction,SMDPad,CuDef*%
%ADD15RoundRect,0.237500X0.237500X-0.287500X0.237500X0.287500X-0.237500X0.287500X-0.237500X-0.287500X0*%
%TD*%
%TA.AperFunction,SMDPad,CuDef*%
%ADD16RoundRect,0.237500X-0.250000X-0.237500X0.250000X-0.237500X0.250000X0.237500X-0.250000X0.237500X0*%
%TD*%
%TA.AperFunction,SMDPad,CuDef*%
%ADD17RotRect,1.500000X1.500000X201.000000*%
%TD*%
%TA.AperFunction,SMDPad,CuDef*%
%ADD18O,2.400000X0.800000*%
%TD*%
%TA.AperFunction,SMDPad,CuDef*%
%ADD19O,0.800000X2.400000*%
%TD*%
%TA.AperFunction,SMDPad,CuDef*%
%ADD20RoundRect,0.237500X0.250000X0.237500X-0.250000X0.237500X-0.250000X-0.237500X0.250000X-0.237500X0*%
%TD*%
%TA.AperFunction,SMDPad,CuDef*%
%ADD21RotRect,1.500000X1.500000X223.000000*%
%TD*%
%TA.AperFunction,SMDPad,CuDef*%
%ADD22RotRect,1.500000X1.500000X218.000000*%
%TD*%
%TA.AperFunction,SMDPad,CuDef*%
%ADD23RotRect,1.500000X1.500000X206.000000*%
%TD*%
%TA.AperFunction,SMDPad,CuDef*%
%ADD24RoundRect,0.237500X-0.300000X-0.237500X0.300000X-0.237500X0.300000X0.237500X-0.300000X0.237500X0*%
%TD*%
%TA.AperFunction,SMDPad,CuDef*%
%ADD25RotRect,1.500000X1.500000X147.000000*%
%TD*%
%TA.AperFunction,SMDPad,CuDef*%
%ADD26RoundRect,0.237500X-0.237500X0.250000X-0.237500X-0.250000X0.237500X-0.250000X0.237500X0.250000X0*%
%TD*%
%TA.AperFunction,SMDPad,CuDef*%
%ADD27RotRect,1.500000X1.500000X156.000000*%
%TD*%
%TA.AperFunction,SMDPad,CuDef*%
%ADD28RoundRect,0.040600X0.564400X0.249400X-0.564400X0.249400X-0.564400X-0.249400X0.564400X-0.249400X0*%
%TD*%
%TA.AperFunction,SMDPad,CuDef*%
%ADD29RotRect,1.500000X1.500000X211.000000*%
%TD*%
%TA.AperFunction,SMDPad,CuDef*%
%ADD30RotRect,1.200000X2.500000X66.000000*%
%TD*%
%TA.AperFunction,ConnectorPad*%
%ADD31C,0.787400*%
%TD*%
%TA.AperFunction,SMDPad,CuDef*%
%ADD32RoundRect,0.237500X0.237500X-0.250000X0.237500X0.250000X-0.237500X0.250000X-0.237500X-0.250000X0*%
%TD*%
%TA.AperFunction,SMDPad,CuDef*%
%ADD33R,0.600000X1.325000*%
%TD*%
%TA.AperFunction,SMDPad,CuDef*%
%ADD34R,1.180000X2.810000*%
%TD*%
%TA.AperFunction,SMDPad,CuDef*%
%ADD35RotRect,1.500000X1.500000X228.000000*%
%TD*%
%TA.AperFunction,SMDPad,CuDef*%
%ADD36RotRect,1.500000X1.500000X151.000000*%
%TD*%
%TA.AperFunction,SMDPad,CuDef*%
%ADD37RotRect,1.500000X1.500000X232.000000*%
%TD*%
%TA.AperFunction,SMDPad,CuDef*%
%ADD38R,0.600000X1.150000*%
%TD*%
%TA.AperFunction,SMDPad,CuDef*%
%ADD39R,0.300000X1.150000*%
%TD*%
%TA.AperFunction,ComponentPad*%
%ADD40O,1.000000X2.100000*%
%TD*%
%TA.AperFunction,ComponentPad*%
%ADD41RoundRect,0.250000X0.250000X0.650000X-0.250000X0.650000X-0.250000X-0.650000X0.250000X-0.650000X0*%
%TD*%
%TA.AperFunction,ViaPad*%
%ADD42C,0.600000*%
%TD*%
%TA.AperFunction,Conductor*%
%ADD43C,0.400000*%
%TD*%
%TA.AperFunction,Conductor*%
%ADD44C,0.200000*%
%TD*%
G04 APERTURE END LIST*
D10*
%TO.P,H1,1,-*%
%TO.N,GND*%
X119518000Y-59328000D03*
%TO.P,H1,2,+*%
%TO.N,+BATT*%
X99028000Y-59328000D03*
%TD*%
D11*
%TO.P,U1,1,VIN*%
%TO.N,+BATT*%
X94778000Y-68328000D03*
%TO.P,U1,2,GND*%
%TO.N,GND*%
X93828000Y-68328000D03*
%TO.P,U1,3,EN*%
%TO.N,+BATT*%
X92878000Y-68328000D03*
%TO.P,U1,4,NC*%
%TO.N,unconnected-(U1-NC-Pad4)*%
X92878000Y-66053000D03*
%TO.P,U1,5,VOUT*%
%TO.N,+3.3*%
X94778000Y-66053000D03*
%TD*%
D12*
%TO.P,C8,1*%
%TO.N,+3.3*%
X94690500Y-64328000D03*
%TO.P,C8,2*%
%TO.N,GND*%
X92965500Y-64328000D03*
%TD*%
%TO.P,C10,1*%
%TO.N,+3.3V*%
X101690500Y-43628000D03*
%TO.P,C10,2*%
%TO.N,GND*%
X99965500Y-43628000D03*
%TD*%
D13*
%TO.P,TP6,1,1*%
%TO.N,GND*%
X91628000Y-62328000D03*
%TD*%
D14*
%TO.P,C7,1*%
%TO.N,+BATT*%
X91228000Y-68390500D03*
%TO.P,C7,2*%
%TO.N,GND*%
X91228000Y-66665500D03*
%TD*%
D13*
%TO.P,TP2,1,1*%
%TO.N,+BATT*%
X94228000Y-70728000D03*
%TD*%
D15*
%TO.P,D1,1,K*%
%TO.N,Net-(D1-K)*%
X105628000Y-83558000D03*
%TO.P,D1,2,A*%
%TO.N,Net-(D1-A)*%
X105628000Y-81808000D03*
%TD*%
D16*
%TO.P,R4,1*%
%TO.N,Net-(U2-TS)*%
X105015500Y-74978000D03*
%TO.P,R4,2*%
%TO.N,GND*%
X106840500Y-74978000D03*
%TD*%
D17*
%TO.P,TP8,1,1*%
%TO.N,/I2C_SCL*%
X104696504Y-31104761D03*
%TD*%
D18*
%TO.P,IC1,1,GND_1*%
%TO.N,GND*%
X119878000Y-28928000D03*
%TO.P,IC1,2,PB04*%
%TO.N,/I2S_SCK*%
X119878000Y-30128000D03*
%TO.P,IC1,3,PB03*%
%TO.N,/I2S_SD*%
X119878000Y-31328000D03*
%TO.P,IC1,4,PB02*%
%TO.N,/I2S_WS*%
X119878000Y-32528000D03*
%TO.P,IC1,5,PB01*%
%TO.N,/PDM_DATA1*%
X119878000Y-33728000D03*
%TO.P,IC1,6,PB00*%
%TO.N,/PDM_DATA0*%
X119878000Y-34928000D03*
%TO.P,IC1,7,PA00*%
%TO.N,/PDM_CLK*%
X119878000Y-36128000D03*
%TO.P,IC1,8,PA01*%
%TO.N,/SWCLK*%
X119878000Y-37328000D03*
%TO.P,IC1,9,PA02*%
%TO.N,/SWDIO*%
X119878000Y-38528000D03*
%TO.P,IC1,10,PA03*%
%TO.N,/SWO*%
X119878000Y-39728000D03*
%TO.P,IC1,11,PA04*%
%TO.N,/DRV_EN*%
X119878000Y-40928000D03*
%TO.P,IC1,12,GND_2*%
%TO.N,GND*%
X119878000Y-42128000D03*
D19*
%TO.P,IC1,13,VDD*%
%TO.N,+3.3V*%
X117828000Y-42228000D03*
%TO.P,IC1,14,PA05*%
%TO.N,unconnected-(IC1-PA05-Pad14)*%
X116628000Y-42228000D03*
%TO.P,IC1,15,PA06*%
%TO.N,unconnected-(IC1-PA06-Pad15)*%
X115428000Y-42228000D03*
%TO.P,IC1,16,PA07*%
%TO.N,unconnected-(IC1-PA07-Pad16)*%
X114228000Y-42228000D03*
%TO.P,IC1,17,PA08*%
%TO.N,unconnected-(IC1-PA08-Pad17)*%
X113028000Y-42228000D03*
%TO.P,IC1,18,PD03*%
%TO.N,unconnected-(IC1-PD03-Pad18)*%
X111828000Y-42228000D03*
%TO.P,IC1,19,PD02*%
%TO.N,unconnected-(IC1-PD02-Pad19)*%
X110628000Y-42228000D03*
D18*
%TO.P,IC1,20,GND_3*%
%TO.N,GND*%
X108578000Y-42128000D03*
%TO.P,IC1,21,NC*%
%TO.N,unconnected-(IC1-NC-Pad21)*%
X108578000Y-40928000D03*
%TO.P,IC1,22,PC00*%
%TO.N,/SPI_MISO*%
X108578000Y-39728000D03*
%TO.P,IC1,23,PC01*%
%TO.N,/SPI_MOSI*%
X108578000Y-38528000D03*
%TO.P,IC1,24,PC02*%
%TO.N,/SPI_CS*%
X108578000Y-37328000D03*
%TO.P,IC1,25,PC03*%
%TO.N,/SPI_SCK*%
X108578000Y-36128000D03*
%TO.P,IC1,26,PC04*%
%TO.N,/PTI_DATA*%
X108578000Y-34928000D03*
%TO.P,IC1,27,PC05*%
%TO.N,/PTI_FRAME*%
X108578000Y-33728000D03*
%TO.P,IC1,28,PC06*%
%TO.N,/I2C_SDA*%
X108578000Y-32528000D03*
%TO.P,IC1,29,PC07*%
%TO.N,/I2C_SCL*%
X108578000Y-31328000D03*
%TO.P,IC1,30,RESETN*%
%TO.N,/RESET*%
X108578000Y-30128000D03*
%TO.P,IC1,31,GND_4*%
%TO.N,GND*%
X108578000Y-28928000D03*
%TD*%
D20*
%TO.P,R5,1*%
%TO.N,Net-(U2-ISET)*%
X98133000Y-77740500D03*
%TO.P,R5,2*%
%TO.N,GND*%
X96308000Y-77740500D03*
%TD*%
D21*
%TO.P,TP10,1,1*%
%TO.N,/SPI_MOSI*%
X95495654Y-36866216D03*
%TD*%
D22*
%TO.P,TP12,1,1*%
%TO.N,/SPI_SCK*%
X97465681Y-35131569D03*
%TD*%
D23*
%TO.P,TP7,1,1*%
%TO.N,/I2C_SDA*%
X102116098Y-32249969D03*
%TD*%
D24*
%TO.P,C6,1*%
%TO.N,+BATT*%
X105065500Y-76590500D03*
%TO.P,C6,2*%
%TO.N,GND*%
X106790500Y-76590500D03*
%TD*%
D25*
%TO.P,TP4,1,1*%
%TO.N,GND*%
X130703615Y-34041567D03*
%TD*%
D26*
%TO.P,R6,1*%
%TO.N,+3.3V*%
X105428000Y-38315500D03*
%TO.P,R6,2*%
%TO.N,/SPI_CS*%
X105428000Y-40140500D03*
%TD*%
D27*
%TO.P,TP14,1,1*%
%TO.N,/PDM_DATA0*%
X124924104Y-30898760D03*
%TD*%
D28*
%TO.P,U2,1,TS*%
%TO.N,Net-(U2-TS)*%
X102683000Y-75628000D03*
%TO.P,U2,2,OUT*%
%TO.N,+BATT*%
X102683000Y-76578000D03*
%TO.P,U2,3,~{CHG}*%
%TO.N,Net-(D1-K)*%
X102683000Y-77528000D03*
%TO.P,U2,4,ISET*%
%TO.N,Net-(U2-ISET)*%
X100173000Y-77528000D03*
%TO.P,U2,5,GND*%
%TO.N,GND*%
X100173000Y-76578000D03*
%TO.P,U2,6,VIN*%
%TO.N,VCC*%
X100173000Y-75628000D03*
%TD*%
D29*
%TO.P,TP5,1,1*%
%TO.N,GND*%
X99739151Y-33591657D03*
%TD*%
D30*
%TO.P,S1,1*%
%TO.N,+3.3*%
X90423407Y-49530389D03*
%TO.P,S1,2*%
%TO.N,+3.3V*%
X91440250Y-47246526D03*
%TO.P,S1,3*%
%TO.N,unconnected-(S1-Pad3)*%
X92457092Y-44962662D03*
%TD*%
D31*
%TO.P,J1,1,VCC*%
%TO.N,+3.3V*%
X126677013Y-39475038D03*
%TO.P,J1,2,SWDIO*%
%TO.N,/SWDIO*%
X127575038Y-38577013D03*
%TO.P,J1,3,~{RESET}*%
%TO.N,/RESET*%
X125778987Y-38577013D03*
%TO.P,J1,4,SWCLK*%
%TO.N,/SWCLK*%
X126677013Y-37678987D03*
%TO.P,J1,5,GND*%
%TO.N,GND*%
X124880962Y-37678987D03*
%TO.P,J1,6,SWO*%
%TO.N,/SWO*%
X125778987Y-36780962D03*
%TD*%
D13*
%TO.P,TP3,1,1*%
%TO.N,+3.3*%
X94228000Y-62328000D03*
%TD*%
D32*
%TO.P,R3,1*%
%TO.N,Net-(D1-A)*%
X105628000Y-80240500D03*
%TO.P,R3,2*%
%TO.N,+BATT*%
X105628000Y-78415500D03*
%TD*%
D33*
%TO.P,IC2,1,~{S}_/_CS*%
%TO.N,/SPI_CS*%
X103733000Y-41840000D03*
%TO.P,IC2,2,Q-DQ1*%
%TO.N,/SPI_MISO*%
X102463000Y-41840000D03*
%TO.P,IC2,3,~{W-DQ2}*%
%TO.N,+3.3V*%
X101193000Y-41840000D03*
%TO.P,IC2,4,VSS*%
%TO.N,GND*%
X99923000Y-41840000D03*
%TO.P,IC2,5,D-DQ0*%
%TO.N,/SPI_MOSI*%
X99923000Y-36616000D03*
%TO.P,IC2,6,C*%
%TO.N,/SPI_SCK*%
X101193000Y-36616000D03*
%TO.P,IC2,7,~{HOLD-DQ3}*%
%TO.N,+3.3V*%
X102463000Y-36616000D03*
%TO.P,IC2,8,VCC*%
X103733000Y-36616000D03*
%TD*%
D34*
%TO.P,F1,1*%
%TO.N,Fuse*%
X111913000Y-75928000D03*
%TO.P,F1,2*%
%TO.N,VCC*%
X108943000Y-75928000D03*
%TD*%
D35*
%TO.P,TP9,1,1*%
%TO.N,/SPI_CS*%
X93629103Y-38799085D03*
%TD*%
D36*
%TO.P,TP13,1,1*%
%TO.N,/PDM_CLK*%
X127928272Y-32387038D03*
%TD*%
D12*
%TO.P,C5,1*%
%TO.N,VCC*%
X98083000Y-75540500D03*
%TO.P,C5,2*%
%TO.N,GND*%
X96358000Y-75540500D03*
%TD*%
D13*
%TO.P,TP1,1,1*%
%TO.N,VCC*%
X94228000Y-73328000D03*
%TD*%
D37*
%TO.P,TP11,1,1*%
%TO.N,/SPI_MISO*%
X91864282Y-40830195D03*
%TD*%
D38*
%TO.P,J2,A1_B12,GND*%
%TO.N,GND*%
X117428000Y-79173000D03*
%TO.P,J2,A4_B9,VBUS*%
%TO.N,Fuse*%
X116628000Y-79173000D03*
D39*
%TO.P,J2,A5,CC1*%
%TO.N,Net-(J2-CC1)*%
X115478000Y-79173000D03*
%TO.P,J2,A6,DP1*%
%TO.N,/SWO*%
X114478000Y-79173000D03*
%TO.P,J2,A7,DN1*%
%TO.N,/SWDIO*%
X113978000Y-79173000D03*
%TO.P,J2,A8,SBU1*%
%TO.N,unconnected-(J2-SBU1-PadA8)*%
X112978000Y-79173000D03*
D38*
%TO.P,J2,B1_A12,GND*%
%TO.N,GND*%
X111028000Y-79173000D03*
%TO.P,J2,B4_A9,VBUS*%
%TO.N,Fuse*%
X111828000Y-79173000D03*
D39*
%TO.P,J2,B5,CC2*%
%TO.N,Net-(J2-CC2)*%
X112478000Y-79173000D03*
%TO.P,J2,B6,DP2*%
%TO.N,/SWCLK*%
X113478000Y-79173000D03*
%TO.P,J2,B7,DN2*%
%TO.N,/RESET*%
X114978000Y-79173000D03*
%TO.P,J2,B8,SBU2*%
%TO.N,unconnected-(J2-SBU2-PadB8)*%
X115978000Y-79173000D03*
D40*
%TO.P,J2,SH1,SHELL_GND*%
%TO.N,GND*%
X118548000Y-79748000D03*
%TO.P,J2,SH2,SHELL_GND*%
X109908000Y-79748000D03*
D41*
%TO.P,J2,SH3,SHELL_GND*%
X118548000Y-83928000D03*
%TO.P,J2,SH4,SHELL_GND*%
X109908000Y-83928000D03*
%TD*%
D42*
%TO.N,GND*%
X142228000Y-51328000D03*
X87428000Y-65928000D03*
X88228000Y-53328000D03*
X121728000Y-83328000D03*
X108228000Y-63328000D03*
X110228000Y-51328000D03*
X97373000Y-46669000D03*
X98228000Y-67328000D03*
X86228000Y-63328000D03*
X130228000Y-51328000D03*
X136228000Y-61328000D03*
X100228000Y-63328000D03*
X136228000Y-47328000D03*
X96228000Y-69328000D03*
X128228000Y-41328000D03*
X112228000Y-69328000D03*
X140228000Y-49728000D03*
X113928000Y-84728000D03*
X106228000Y-67328000D03*
X117428000Y-77928000D03*
X88228000Y-51328000D03*
X110228000Y-67328000D03*
X130228000Y-79328000D03*
X122628000Y-40728000D03*
X108228000Y-57328000D03*
X136228000Y-43328000D03*
X104228000Y-63328000D03*
X120228000Y-61328000D03*
X101028000Y-80928000D03*
X126228000Y-59328000D03*
X126228000Y-65328000D03*
X112228000Y-37328000D03*
X124228000Y-69328000D03*
X108228000Y-85328000D03*
X92428000Y-53328000D03*
X118228000Y-65328000D03*
X102228000Y-51328000D03*
X132228000Y-79328000D03*
X96228000Y-57328000D03*
X126228000Y-81328000D03*
X112228000Y-73328000D03*
X128228000Y-69328000D03*
X142228000Y-59328000D03*
X120228000Y-83328000D03*
X132228000Y-55328000D03*
X140228000Y-53328000D03*
X132228000Y-47328000D03*
X112028000Y-59728000D03*
X122228000Y-65328000D03*
X124228000Y-55328000D03*
X132228000Y-61328000D03*
X114228000Y-39328000D03*
X137828000Y-70228000D03*
X92228000Y-75328000D03*
X98228000Y-41328000D03*
X128228000Y-47328000D03*
X112228000Y-39328000D03*
X98228000Y-79328000D03*
X124228000Y-77328000D03*
X140228000Y-65328000D03*
X96228000Y-79328000D03*
X122228000Y-59328000D03*
X128228000Y-79328000D03*
X98228000Y-81328000D03*
X102228000Y-67328000D03*
X128428000Y-34228000D03*
X128228000Y-81328000D03*
X108228000Y-53328000D03*
X140228000Y-61328000D03*
X134228000Y-51328000D03*
X104228000Y-57328000D03*
X130228000Y-39328000D03*
X88228000Y-61328000D03*
X86228000Y-55328000D03*
X126228000Y-73328000D03*
X128228000Y-55328000D03*
X134228000Y-59328000D03*
X104228000Y-53328000D03*
X136228000Y-55328000D03*
X128228000Y-61328000D03*
X130228000Y-77328000D03*
X118228000Y-73328000D03*
X126228000Y-51328000D03*
X121828000Y-29528000D03*
X126228000Y-43328000D03*
X140228000Y-57328000D03*
X132228000Y-69328000D03*
X124228000Y-47328000D03*
X120228000Y-85328000D03*
X100228000Y-71328000D03*
X106228000Y-85328000D03*
X130228000Y-59328000D03*
X89228000Y-44928000D03*
X104228000Y-71328000D03*
X124228000Y-61328000D03*
X120228000Y-55328000D03*
X112228000Y-63328000D03*
X130228000Y-73328000D03*
X100228000Y-79328000D03*
X142228000Y-55328000D03*
X110228000Y-55328000D03*
X122228000Y-51328000D03*
X120228000Y-77328000D03*
X86228000Y-61328000D03*
X114228000Y-37328000D03*
X116228000Y-69328000D03*
X130228000Y-43328000D03*
X88228000Y-63328000D03*
X108228000Y-71328000D03*
X138228000Y-43328000D03*
X122228000Y-73328000D03*
X106228000Y-51328000D03*
X106628000Y-41928000D03*
X100228000Y-53328000D03*
X86228000Y-53328000D03*
X106428000Y-29528000D03*
X120228000Y-47328000D03*
X111028000Y-77928000D03*
X134228000Y-45328000D03*
X130228000Y-81328000D03*
X130228000Y-65328000D03*
X112228000Y-53328000D03*
X108578000Y-43228000D03*
X134228000Y-65328000D03*
X120228000Y-69328000D03*
X142228000Y-63328000D03*
%TO.N,+3.3V*%
X99828000Y-45490500D03*
X103228000Y-38828000D03*
X101228000Y-40828000D03*
X127028000Y-40728000D03*
X118454000Y-43928000D03*
%TO.N,/C1-*%
X97386542Y-52455460D03*
X95728000Y-52376920D03*
%TO.N,+BATT*%
X100278000Y-73578000D03*
X101428000Y-74728000D03*
%TO.N,/SWO*%
X117828000Y-39528000D03*
X114652458Y-77831688D03*
%TO.N,/SWDIO*%
X113828000Y-77828000D03*
X128428000Y-38728000D03*
X117828000Y-38328000D03*
X121528000Y-38428000D03*
%TO.N,/PDM_CLK*%
X117828000Y-35928000D03*
%TO.N,/RESET*%
X117828000Y-33728000D03*
X115428000Y-78028000D03*
X125028000Y-39328000D03*
%TO.N,/PDM_DATA0*%
X117828000Y-34728000D03*
%TO.N,/I2C_SDA*%
X110428000Y-32928000D03*
X95628000Y-42728000D03*
X95373000Y-46669000D03*
%TO.N,/SWCLK*%
X113028000Y-78028000D03*
X117828000Y-37128000D03*
%TO.N,/SPI_MOSI*%
X98704000Y-37328000D03*
X106928000Y-38328000D03*
%TO.N,/DRV_EN*%
X97473000Y-49303000D03*
X99828000Y-49728000D03*
X114628000Y-40328000D03*
%TO.N,/I2C_SCL*%
X94028000Y-42753000D03*
X110428000Y-32077997D03*
X94373000Y-46669000D03*
%TO.N,Net-(J2-CC2)*%
X111228000Y-82928000D03*
%TO.N,Net-(J2-CC1)*%
X116628000Y-82928000D03*
%TD*%
D43*
%TO.N,+3.3V*%
X104535500Y-37423000D02*
X103733000Y-37423000D01*
X105428000Y-38315500D02*
X104535500Y-37423000D01*
D44*
%TO.N,/C1-*%
X95806540Y-52455460D02*
X97386542Y-52455460D01*
X95728000Y-52376920D02*
X95806540Y-52455460D01*
D43*
%TO.N,+BATT*%
X95028000Y-70728000D02*
X94228000Y-70728000D01*
X97878000Y-73578000D02*
X95028000Y-70728000D01*
X100278000Y-73578000D02*
X97878000Y-73578000D01*
%TO.N,+3.3V*%
X103228000Y-38828000D02*
X103228000Y-37728000D01*
%TO.N,+BATT*%
X105628000Y-77153000D02*
X105065500Y-76590500D01*
X105628000Y-78415500D02*
X105628000Y-77153000D01*
D44*
%TO.N,Net-(U2-TS)*%
X103628000Y-75628000D02*
X102683000Y-75628000D01*
X104278000Y-74978000D02*
X103628000Y-75628000D01*
X105015500Y-74978000D02*
X104278000Y-74978000D01*
%TO.N,/PDM_DATA0*%
X124257240Y-30898760D02*
X124924104Y-30898760D01*
X122628000Y-33728000D02*
X122628000Y-32528000D01*
X122628000Y-32528000D02*
X124257240Y-30898760D01*
X121628000Y-34728000D02*
X122628000Y-33728000D01*
X117828000Y-34728000D02*
X121628000Y-34728000D01*
%TO.N,/PDM_CLK*%
X121428000Y-35928000D02*
X124228000Y-33128000D01*
X117828000Y-35928000D02*
X119878000Y-35928000D01*
%TO.N,/SWCLK*%
X125228000Y-34328000D02*
X123593685Y-34328000D01*
%TO.N,/PDM_CLK*%
X119878000Y-35928000D02*
X121428000Y-35928000D01*
X124228000Y-33128000D02*
X127187310Y-33128000D01*
X127187310Y-33128000D02*
X127928272Y-32387038D01*
%TO.N,/SWCLK*%
X126677013Y-37678987D02*
X126677013Y-35777013D01*
X126677013Y-35777013D02*
X125228000Y-34328000D01*
X123593685Y-34328000D02*
X120793685Y-37128000D01*
X120793685Y-37128000D02*
X119878000Y-37128000D01*
X119878000Y-37128000D02*
X117828000Y-37128000D01*
%TO.N,/I2C_SCL*%
X109167949Y-31328000D02*
X109917946Y-32077997D01*
X109917946Y-32077997D02*
X110428000Y-32077997D01*
X108578000Y-31328000D02*
X109167949Y-31328000D01*
X108278000Y-31628000D02*
X105219743Y-31628000D01*
X108578000Y-31328000D02*
X108278000Y-31628000D01*
X105219743Y-31628000D02*
X104696504Y-31104761D01*
%TO.N,/SPI_SCK*%
X100097500Y-35228000D02*
X97562112Y-35228000D01*
X101193000Y-36323500D02*
X100097500Y-35228000D01*
X101193000Y-36616000D02*
X101193000Y-36323500D01*
X97562112Y-35228000D02*
X97465681Y-35131569D01*
%TO.N,/SPI_MOSI*%
X98528000Y-37328000D02*
X98066216Y-36866216D01*
X98704000Y-37328000D02*
X98528000Y-37328000D01*
X98066216Y-36866216D02*
X95495654Y-36866216D01*
%TO.N,/I2C_SCL*%
X95228000Y-43953000D02*
X95228000Y-45814000D01*
X94028000Y-42753000D02*
X95228000Y-43953000D01*
X95228000Y-45814000D02*
X94373000Y-46669000D01*
%TO.N,/I2C_SDA*%
X96028000Y-46014000D02*
X95373000Y-46669000D01*
X96028000Y-43128000D02*
X96028000Y-46014000D01*
X95628000Y-42728000D02*
X96028000Y-43128000D01*
%TO.N,GND*%
X106828000Y-42128000D02*
X106628000Y-41928000D01*
X108578000Y-42128000D02*
X106828000Y-42128000D01*
X111028000Y-79173000D02*
X110483000Y-79173000D01*
X117428000Y-77928000D02*
X117428000Y-79173000D01*
X124877013Y-37678987D02*
X122628000Y-39928000D01*
X110483000Y-79173000D02*
X109908000Y-79748000D01*
D43*
X92965500Y-64328000D02*
X92228000Y-64328000D01*
X99965500Y-41882500D02*
X99923000Y-41840000D01*
X99965500Y-43628000D02*
X99965500Y-41882500D01*
D44*
X107028000Y-28928000D02*
X108578000Y-28928000D01*
D43*
X92228000Y-64328000D02*
X91228000Y-65328000D01*
X96308000Y-77528000D02*
X96308000Y-76740500D01*
D44*
X121828000Y-29428000D02*
X121828000Y-29528000D01*
D43*
X91228000Y-65328000D02*
X91228000Y-66665500D01*
X96308000Y-75678000D02*
X96358000Y-75628000D01*
X106790500Y-76590500D02*
X106790500Y-75028000D01*
X96308000Y-76740500D02*
X96308000Y-75678000D01*
D44*
X117973000Y-79173000D02*
X118548000Y-79748000D01*
D43*
X106790500Y-75028000D02*
X106840500Y-74978000D01*
D44*
X124880961Y-37678987D02*
X124877013Y-37678987D01*
X117428000Y-79173000D02*
X117973000Y-79173000D01*
D43*
X93828000Y-68328000D02*
X93828000Y-65190500D01*
D44*
X111028000Y-79173000D02*
X111028000Y-77928000D01*
D43*
X93828000Y-65190500D02*
X92965500Y-64328000D01*
D44*
X122628000Y-39928000D02*
X122628000Y-40728000D01*
X121828000Y-29528000D02*
X121228000Y-28928000D01*
D43*
X96308000Y-76578000D02*
X100173000Y-76578000D01*
X92965500Y-64328000D02*
X92965500Y-63665500D01*
D44*
X106428000Y-29528000D02*
X107028000Y-28928000D01*
X108578000Y-43228000D02*
X108578000Y-42128000D01*
X121228000Y-28928000D02*
X119878000Y-28928000D01*
D43*
X92965500Y-63665500D02*
X91628000Y-62328000D01*
%TO.N,+3.3V*%
X117828000Y-42228000D02*
X117828000Y-43928000D01*
X101690500Y-43628000D02*
X101193000Y-43130500D01*
X126677013Y-39475038D02*
X126677013Y-40377013D01*
X99828000Y-45490500D02*
X97949500Y-47369000D01*
X103428000Y-37728000D02*
X103228000Y-37728000D01*
X97949500Y-47369000D02*
X91562726Y-47369000D01*
X126677013Y-40377013D02*
X127028000Y-40728000D01*
X103733000Y-37423000D02*
X103428000Y-37728000D01*
X101193000Y-43130500D02*
X101193000Y-41840000D01*
X102828000Y-37728000D02*
X102463000Y-37363000D01*
X101228000Y-41805000D02*
X101193000Y-41840000D01*
X101990500Y-43928000D02*
X101690500Y-43628000D01*
X99828000Y-45490500D02*
X101690500Y-43628000D01*
X103733000Y-36616000D02*
X103733000Y-37423000D01*
X101228000Y-40828000D02*
X101228000Y-41805000D01*
X102463000Y-37363000D02*
X102463000Y-36616000D01*
X117428000Y-43928000D02*
X101990500Y-43928000D01*
X118454000Y-43928000D02*
X117428000Y-43928000D01*
X103228000Y-37728000D02*
X102828000Y-37728000D01*
X91562726Y-47369000D02*
X91440251Y-47246525D01*
%TO.N,VCC*%
X108943000Y-74243000D02*
X108943000Y-75928000D01*
X98083000Y-75540500D02*
X98083000Y-74783000D01*
X108628000Y-73928000D02*
X108943000Y-74243000D01*
X100173000Y-74783000D02*
X101028000Y-73928000D01*
X98170500Y-75628000D02*
X98083000Y-75540500D01*
X98083000Y-74783000D02*
X96628000Y-73328000D01*
X100173000Y-75628000D02*
X100173000Y-74783000D01*
X101028000Y-73928000D02*
X108628000Y-73928000D01*
X96628000Y-73328000D02*
X94228000Y-73328000D01*
X100173000Y-75628000D02*
X98170500Y-75628000D01*
X98083000Y-75540500D02*
X97978000Y-75540500D01*
%TO.N,+BATT*%
X94778000Y-68328000D02*
X94778000Y-70178000D01*
X95828000Y-67278000D02*
X94778000Y-68328000D01*
X102633000Y-76528000D02*
X102683000Y-76578000D01*
X92878000Y-68328000D02*
X91290500Y-68328000D01*
X105065500Y-76590500D02*
X102695500Y-76590500D01*
X101428000Y-74728000D02*
X101428000Y-76128000D01*
X95828000Y-62528000D02*
X95828000Y-67278000D01*
X92878000Y-69378000D02*
X94228000Y-70728000D01*
X91290500Y-68328000D02*
X91228000Y-68390500D01*
X94778000Y-70178000D02*
X94228000Y-70728000D01*
X102695500Y-76590500D02*
X102683000Y-76578000D01*
X101828000Y-76528000D02*
X102633000Y-76528000D01*
X92878000Y-68328000D02*
X92878000Y-69378000D01*
X101428000Y-76128000D02*
X101828000Y-76528000D01*
X99028000Y-59328000D02*
X95828000Y-62528000D01*
D44*
%TO.N,Net-(D1-K)*%
X104578000Y-78540500D02*
X103565500Y-77528000D01*
X104578000Y-82508000D02*
X104578000Y-78540500D01*
X103565500Y-77528000D02*
X102683000Y-77528000D01*
X105628000Y-83558000D02*
X104578000Y-82508000D01*
%TO.N,Net-(D1-A)*%
X105628000Y-80240500D02*
X105628000Y-81808000D01*
%TO.N,/SPI_MISO*%
X101728000Y-40228000D02*
X92466477Y-40228000D01*
X102463000Y-42363000D02*
X102463000Y-41840000D01*
X102463000Y-41840000D02*
X102463000Y-40963000D01*
X108578000Y-39728000D02*
X107578000Y-39728000D01*
X107578000Y-39728000D02*
X104178000Y-43128000D01*
X102463000Y-40963000D02*
X101728000Y-40228000D01*
X92466477Y-40228000D02*
X91864282Y-40830195D01*
X104178000Y-43128000D02*
X103228000Y-43128000D01*
X103228000Y-43128000D02*
X102463000Y-42363000D01*
%TO.N,/SWO*%
X122828000Y-38128000D02*
X121228000Y-39728000D01*
X125778987Y-36780962D02*
X124880962Y-36780962D01*
X121228000Y-39728000D02*
X119878000Y-39728000D01*
X123228000Y-36128000D02*
X122828000Y-36528000D01*
X114652458Y-77831688D02*
X114478000Y-78006146D01*
X124228000Y-36128000D02*
X123228000Y-36128000D01*
X124880962Y-36780962D02*
X124228000Y-36128000D01*
X119678000Y-39528000D02*
X117828000Y-39528000D01*
X119878000Y-39728000D02*
X119678000Y-39528000D01*
X114478000Y-78006146D02*
X114478000Y-79173000D01*
X122828000Y-36528000D02*
X122828000Y-38128000D01*
%TO.N,/SWDIO*%
X119678000Y-38328000D02*
X117828000Y-38328000D01*
X127726026Y-38728000D02*
X127575039Y-38577013D01*
X119878000Y-38528000D02*
X119678000Y-38328000D01*
X128428000Y-38728000D02*
X127726026Y-38728000D01*
X113828000Y-77828000D02*
X113978000Y-77978000D01*
X113978000Y-77978000D02*
X113978000Y-79173000D01*
X121428000Y-38528000D02*
X119878000Y-38528000D01*
X121528000Y-38428000D02*
X121428000Y-38528000D01*
%TO.N,/SPI_CS*%
X101054585Y-38799085D02*
X93629103Y-38799085D01*
X108578000Y-37328000D02*
X107028000Y-37328000D01*
X103733000Y-41840000D02*
X103733000Y-41477500D01*
X103733000Y-41477500D02*
X101054585Y-38799085D01*
X105428000Y-40140500D02*
X105428000Y-40728000D01*
X107028000Y-37328000D02*
X106303000Y-38053000D01*
X105428000Y-40728000D02*
X104316000Y-41840000D01*
X104316000Y-41840000D02*
X103733000Y-41840000D01*
X106303000Y-38053000D02*
X106303000Y-39265500D01*
X106303000Y-39265500D02*
X105428000Y-40140500D01*
%TO.N,/RESET*%
X114978000Y-78478000D02*
X115428000Y-78028000D01*
X117828000Y-33728000D02*
X113178000Y-33728000D01*
X113178000Y-33728000D02*
X109578000Y-30128000D01*
X125778987Y-38577013D02*
X125028000Y-39328000D01*
X114978000Y-79173000D02*
X114978000Y-78478000D01*
X109578000Y-30128000D02*
X108578000Y-30128000D01*
%TO.N,/I2C_SDA*%
X110028000Y-32528000D02*
X110428000Y-32928000D01*
X108578000Y-32528000D02*
X110028000Y-32528000D01*
X108578000Y-32528000D02*
X102828000Y-32528000D01*
X102828000Y-32528000D02*
X102628000Y-32328000D01*
%TO.N,/SWCLK*%
X113478000Y-78478000D02*
X113478000Y-79173000D01*
X113028000Y-78028000D02*
X113478000Y-78478000D01*
%TO.N,/SPI_MOSI*%
X107128000Y-38528000D02*
X106928000Y-38328000D01*
X99923000Y-36616000D02*
X99416000Y-36616000D01*
X98704000Y-37328000D02*
X99416000Y-36616000D01*
X108578000Y-38528000D02*
X107128000Y-38528000D01*
%TO.N,/DRV_EN*%
X118428000Y-40928000D02*
X119878000Y-40928000D01*
X114628000Y-40328000D02*
X117828000Y-40328000D01*
X117828000Y-40328000D02*
X118428000Y-40928000D01*
X97898000Y-49728000D02*
X97473000Y-49303000D01*
X99828000Y-49728000D02*
X97898000Y-49728000D01*
%TO.N,/SPI_SCK*%
X101628000Y-35528000D02*
X101193000Y-35963000D01*
X108578000Y-36128000D02*
X107028000Y-36128000D01*
X101193000Y-35963000D02*
X101193000Y-36616000D01*
X106428000Y-35528000D02*
X101628000Y-35528000D01*
X107028000Y-36128000D02*
X106428000Y-35528000D01*
%TO.N,Net-(J2-CC2)*%
X111228000Y-82928000D02*
X112478000Y-81678000D01*
X112478000Y-81678000D02*
X112478000Y-79173000D01*
%TO.N,Net-(J2-CC1)*%
X116628000Y-82928000D02*
X115478000Y-81778000D01*
X115478000Y-81778000D02*
X115478000Y-79173000D01*
%TO.N,Net-(U2-ISET)*%
X100173000Y-77528000D02*
X98345500Y-77528000D01*
X98345500Y-77528000D02*
X98133000Y-77740500D01*
D43*
%TO.N,+3.3*%
X94690500Y-62790500D02*
X94228000Y-62328000D01*
X94228000Y-62328000D02*
X94228000Y-53334982D01*
X94778000Y-64415500D02*
X94690500Y-64328000D01*
X94778000Y-66053000D02*
X94778000Y-64415500D01*
X94228000Y-53334982D02*
X90423407Y-49530389D01*
X94690500Y-64328000D02*
X94690500Y-62790500D01*
%TO.N,Fuse*%
X111828000Y-79173000D02*
X111828000Y-76013000D01*
X115828000Y-75928000D02*
X116628000Y-76728000D01*
X111828000Y-76013000D02*
X111913000Y-75928000D01*
X116628000Y-76728000D02*
X116628000Y-79173000D01*
X111913000Y-75928000D02*
X115828000Y-75928000D01*
%TD*%
%TA.AperFunction,Conductor*%
%TO.N,GND*%
G36*
X93870973Y-65105514D02*
G01*
X93915327Y-65134017D01*
X93929650Y-65148340D01*
X93963736Y-65169364D01*
X94010460Y-65221309D01*
X94021683Y-65290272D01*
X94017715Y-65309497D01*
X93980402Y-65437926D01*
X93980401Y-65437932D01*
X93977500Y-65474798D01*
X93977500Y-66631201D01*
X93980401Y-66668067D01*
X93980402Y-66668073D01*
X94026254Y-66825893D01*
X94026255Y-66825896D01*
X94109917Y-66967362D01*
X94114702Y-66973531D01*
X94113018Y-66974836D01*
X94141246Y-67026531D01*
X94136262Y-67096223D01*
X94104234Y-67143961D01*
X94078000Y-67168202D01*
X94078000Y-67433684D01*
X94060733Y-67496804D01*
X94026254Y-67555105D01*
X94026254Y-67555106D01*
X93980402Y-67712926D01*
X93980401Y-67712932D01*
X93977500Y-67749798D01*
X93977500Y-68454000D01*
X93957815Y-68521039D01*
X93905011Y-68566794D01*
X93853500Y-68578000D01*
X93802500Y-68578000D01*
X93735461Y-68558315D01*
X93689706Y-68505511D01*
X93678500Y-68454000D01*
X93678500Y-67749813D01*
X93678499Y-67749798D01*
X93675598Y-67712932D01*
X93675597Y-67712926D01*
X93629745Y-67555106D01*
X93629745Y-67555105D01*
X93629744Y-67555104D01*
X93629744Y-67555102D01*
X93595267Y-67496804D01*
X93578000Y-67433684D01*
X93578000Y-67168202D01*
X93551765Y-67143961D01*
X93515887Y-67084007D01*
X93518118Y-67014173D01*
X93542533Y-66974488D01*
X93541298Y-66973531D01*
X93546075Y-66967370D01*
X93546081Y-66967365D01*
X93629744Y-66825898D01*
X93675598Y-66668069D01*
X93678500Y-66631194D01*
X93678500Y-65474806D01*
X93675598Y-65437931D01*
X93675597Y-65437926D01*
X93638140Y-65308999D01*
X93638339Y-65239130D01*
X93676281Y-65180460D01*
X93692121Y-65168864D01*
X93726037Y-65147944D01*
X93739960Y-65134021D01*
X93801282Y-65100533D01*
X93870973Y-65105514D01*
G37*
%TD.AperFunction*%
%TA.AperFunction,Conductor*%
G36*
X108771039Y-28697685D02*
G01*
X108816794Y-28750489D01*
X108828000Y-28802000D01*
X108828000Y-29054000D01*
X108808315Y-29121039D01*
X108755511Y-29166794D01*
X108704000Y-29178000D01*
X106910096Y-29178000D01*
X106912584Y-29190516D01*
X106912587Y-29190523D01*
X106980428Y-29354306D01*
X106980433Y-29354316D01*
X107050153Y-29458659D01*
X107071031Y-29525337D01*
X107052546Y-29592717D01*
X107050153Y-29596441D01*
X106979990Y-29701446D01*
X106979983Y-29701459D01*
X106912106Y-29865332D01*
X106912103Y-29865341D01*
X106877500Y-30039304D01*
X106877500Y-30216695D01*
X106912103Y-30390658D01*
X106912106Y-30390667D01*
X106979983Y-30554540D01*
X106979990Y-30554553D01*
X107049853Y-30659109D01*
X107070731Y-30725786D01*
X107052247Y-30793166D01*
X107049853Y-30796891D01*
X106979990Y-30901446D01*
X106979986Y-30901453D01*
X106967832Y-30930798D01*
X106959483Y-30950952D01*
X106915644Y-31005355D01*
X106849350Y-31027421D01*
X106844923Y-31027500D01*
X106091536Y-31027500D01*
X106024497Y-31007815D01*
X105978742Y-30955011D01*
X105975772Y-30947938D01*
X105892196Y-30730215D01*
X105578014Y-29911745D01*
X105550669Y-29858389D01*
X105455389Y-29750522D01*
X105455386Y-29750520D01*
X105333580Y-29673869D01*
X105333575Y-29673867D01*
X105195105Y-29634636D01*
X105055119Y-29635970D01*
X105051191Y-29636008D01*
X105051189Y-29636008D01*
X105051184Y-29636009D01*
X104993247Y-29651385D01*
X104993243Y-29651387D01*
X103503484Y-30223252D01*
X103450134Y-30250594D01*
X103342263Y-30345878D01*
X103265612Y-30467684D01*
X103265610Y-30467689D01*
X103226379Y-30606158D01*
X103227751Y-30750070D01*
X103227752Y-30750080D01*
X103243128Y-30808017D01*
X103243129Y-30808019D01*
X103243130Y-30808022D01*
X103606467Y-31754547D01*
X103608201Y-31759062D01*
X103613849Y-31828703D01*
X103580949Y-31890343D01*
X103519947Y-31924410D01*
X103492437Y-31927500D01*
X103427610Y-31927500D01*
X103360571Y-31907815D01*
X103316160Y-31857858D01*
X103265768Y-31754540D01*
X102890275Y-30984664D01*
X102890273Y-30984661D01*
X102890269Y-30984653D01*
X102862446Y-30940362D01*
X102858384Y-30933895D01*
X102754065Y-30834742D01*
X102626038Y-30768997D01*
X102626037Y-30768996D01*
X102626036Y-30768996D01*
X102626033Y-30768995D01*
X102484675Y-30741983D01*
X102484674Y-30741983D01*
X102484673Y-30741983D01*
X102361271Y-30753965D01*
X102341425Y-30755892D01*
X102285041Y-30776261D01*
X102285026Y-30776268D01*
X100850801Y-31475787D01*
X100850782Y-31475797D01*
X100800025Y-31507682D01*
X100800024Y-31507683D01*
X100700871Y-31612001D01*
X100635125Y-31740030D01*
X100635124Y-31740033D01*
X100608112Y-31881391D01*
X100608112Y-31881392D01*
X100608112Y-31881394D01*
X100619327Y-31996892D01*
X100622021Y-32024641D01*
X100642390Y-32081025D01*
X100642397Y-32081040D01*
X100917681Y-32645456D01*
X100929377Y-32714340D01*
X100901975Y-32778612D01*
X100844175Y-32817866D01*
X100774327Y-32819640D01*
X100714609Y-32783369D01*
X100699942Y-32763679D01*
X100399694Y-32263983D01*
X100363541Y-32216243D01*
X100363537Y-32216239D01*
X100251089Y-32126647D01*
X100117957Y-32072367D01*
X100117949Y-32072365D01*
X99974916Y-32057790D01*
X99974913Y-32057790D01*
X99833563Y-32084104D01*
X99779228Y-32109284D01*
X99779227Y-32109284D01*
X99309646Y-32391436D01*
X100018337Y-33570899D01*
X100035992Y-33638502D01*
X100014295Y-33704917D01*
X99975913Y-33741052D01*
X99723584Y-33892668D01*
X99723584Y-33892669D01*
X98796449Y-34449747D01*
X98791049Y-34471408D01*
X98755731Y-34531694D01*
X98693426Y-34563315D01*
X98623916Y-34556231D01*
X98573021Y-34517752D01*
X98136698Y-33959284D01*
X97959874Y-33732959D01*
X97959871Y-33732955D01*
X97918118Y-33689923D01*
X97918114Y-33689920D01*
X97795469Y-33614628D01*
X97795463Y-33614626D01*
X97656564Y-33576936D01*
X97512673Y-33579905D01*
X97512671Y-33579905D01*
X97375449Y-33623292D01*
X97324525Y-33654944D01*
X96067071Y-34637375D01*
X96067067Y-34637378D01*
X96024035Y-34679131D01*
X96024032Y-34679135D01*
X95948740Y-34801780D01*
X95948738Y-34801786D01*
X95911048Y-34940682D01*
X95914017Y-35084576D01*
X95914017Y-35084578D01*
X95958172Y-35224231D01*
X95959613Y-35294086D01*
X95923060Y-35353631D01*
X95860116Y-35383961D01*
X95790767Y-35375446D01*
X95784533Y-35372545D01*
X95691973Y-35326304D01*
X95691971Y-35326303D01*
X95691968Y-35326302D01*
X95550317Y-35300863D01*
X95407231Y-35316361D01*
X95274310Y-35371542D01*
X95274305Y-35371545D01*
X95226344Y-35407508D01*
X95038446Y-35582726D01*
X94062970Y-36492374D01*
X94059287Y-36495808D01*
X94020063Y-36541146D01*
X93955740Y-36669900D01*
X93955740Y-36669902D01*
X93930301Y-36811551D01*
X93945799Y-36954638D01*
X93991756Y-37065341D01*
X94000981Y-37087561D01*
X94036948Y-37135528D01*
X94050909Y-37150499D01*
X94124102Y-37228989D01*
X94155426Y-37291444D01*
X94148013Y-37360919D01*
X94104215Y-37415357D01*
X94037938Y-37437474D01*
X93970225Y-37420249D01*
X93950442Y-37405707D01*
X93872919Y-37335905D01*
X93841631Y-37313286D01*
X93824328Y-37300777D01*
X93824326Y-37300776D01*
X93824322Y-37300774D01*
X93690469Y-37247924D01*
X93690463Y-37247923D01*
X93547128Y-37234924D01*
X93547127Y-37234924D01*
X93405941Y-37262833D01*
X93405939Y-37262834D01*
X93278327Y-37329394D01*
X93233681Y-37369402D01*
X92165923Y-38555268D01*
X92130794Y-38603861D01*
X92130792Y-38603865D01*
X92077942Y-38737718D01*
X92077941Y-38737724D01*
X92064942Y-38881059D01*
X92064942Y-38881060D01*
X92092851Y-39022246D01*
X92092852Y-39022249D01*
X92158619Y-39148340D01*
X92159412Y-39149860D01*
X92194521Y-39189039D01*
X92224601Y-39252103D01*
X92215811Y-39321417D01*
X92170942Y-39374976D01*
X92104240Y-39395775D01*
X92036882Y-39377210D01*
X92025833Y-39369506D01*
X92005433Y-39353568D01*
X92005430Y-39353566D01*
X91954515Y-39321919D01*
X91954511Y-39321917D01*
X91817290Y-39278531D01*
X91673395Y-39275562D01*
X91534499Y-39313252D01*
X91534493Y-39313254D01*
X91411846Y-39388548D01*
X91370085Y-39431587D01*
X90387657Y-40689040D01*
X90387653Y-40689046D01*
X90356006Y-40739961D01*
X90356004Y-40739965D01*
X90312618Y-40877185D01*
X90312618Y-40877187D01*
X90309649Y-41021081D01*
X90347339Y-41159977D01*
X90347341Y-41159983D01*
X90422635Y-41282630D01*
X90422637Y-41282633D01*
X90465665Y-41324383D01*
X90465668Y-41324386D01*
X90465674Y-41324391D01*
X91714768Y-42300288D01*
X91723130Y-42306821D01*
X91774049Y-42338471D01*
X91911275Y-42381859D01*
X92055167Y-42384827D01*
X92055167Y-42384826D01*
X92055168Y-42384827D01*
X92121624Y-42366794D01*
X92194066Y-42347137D01*
X92194068Y-42347135D01*
X92194070Y-42347135D01*
X92259741Y-42306819D01*
X92316720Y-42271840D01*
X92358470Y-42228812D01*
X92360873Y-42225737D01*
X92784081Y-41684054D01*
X93340908Y-40971347D01*
X93372558Y-40920428D01*
X93374238Y-40915115D01*
X93413218Y-40857130D01*
X93477360Y-40829424D01*
X93492468Y-40828500D01*
X99040929Y-40828500D01*
X99107968Y-40848185D01*
X99153723Y-40900989D01*
X99163667Y-40970147D01*
X99157111Y-40995834D01*
X99129402Y-41070123D01*
X99129401Y-41070127D01*
X99123000Y-41129655D01*
X99123000Y-41590000D01*
X100049000Y-41590000D01*
X100116039Y-41609685D01*
X100161794Y-41662489D01*
X100173000Y-41714000D01*
X100173000Y-42610000D01*
X100179181Y-42616181D01*
X100212666Y-42677504D01*
X100215500Y-42703862D01*
X100215500Y-43754000D01*
X100195815Y-43821039D01*
X100143011Y-43866794D01*
X100091500Y-43878000D01*
X98928001Y-43878000D01*
X98928001Y-43914654D01*
X98938319Y-44015652D01*
X98992546Y-44179300D01*
X98992551Y-44179311D01*
X99083052Y-44326034D01*
X99083055Y-44326038D01*
X99204961Y-44447944D01*
X99204965Y-44447947D01*
X99351688Y-44538448D01*
X99351701Y-44538454D01*
X99420753Y-44561335D01*
X99478198Y-44601107D01*
X99505022Y-44665622D01*
X99492708Y-44734398D01*
X99447723Y-44784034D01*
X99325740Y-44860682D01*
X99325737Y-44860684D01*
X99198184Y-44988237D01*
X99102212Y-45140975D01*
X99102211Y-45140976D01*
X99065992Y-45244484D01*
X99036632Y-45291209D01*
X97695662Y-46632181D01*
X97634339Y-46665666D01*
X97607981Y-46668500D01*
X96522098Y-46668500D01*
X96455059Y-46648815D01*
X96409304Y-46596011D01*
X96399360Y-46526853D01*
X96428385Y-46463297D01*
X96434417Y-46456819D01*
X96460016Y-46431220D01*
X96508520Y-46382716D01*
X96570208Y-46275868D01*
X96587577Y-46245785D01*
X96628501Y-46093057D01*
X96628501Y-45934943D01*
X96628501Y-45927348D01*
X96628500Y-45927330D01*
X96628500Y-43378000D01*
X98928000Y-43378000D01*
X99715500Y-43378000D01*
X99715500Y-43045500D01*
X99709319Y-43039319D01*
X99675834Y-42977996D01*
X99673000Y-42951638D01*
X99673000Y-42090000D01*
X99123000Y-42090000D01*
X99123000Y-42550344D01*
X99129401Y-42609872D01*
X99129403Y-42609879D01*
X99175916Y-42734587D01*
X99180900Y-42804279D01*
X99147416Y-42865601D01*
X99083052Y-42929965D01*
X98992551Y-43076688D01*
X98992546Y-43076699D01*
X98938319Y-43240347D01*
X98928000Y-43341345D01*
X98928000Y-43378000D01*
X96628500Y-43378000D01*
X96628500Y-43048945D01*
X96628500Y-43048943D01*
X96587577Y-42896216D01*
X96569902Y-42865601D01*
X96508524Y-42759290D01*
X96508518Y-42759282D01*
X96458700Y-42709464D01*
X96425215Y-42648141D01*
X96423163Y-42635684D01*
X96413368Y-42548745D01*
X96353789Y-42378478D01*
X96346447Y-42366794D01*
X96286784Y-42271840D01*
X96257816Y-42225738D01*
X96130262Y-42098184D01*
X96117237Y-42090000D01*
X95977523Y-42002211D01*
X95807254Y-41942631D01*
X95807249Y-41942630D01*
X95628004Y-41922435D01*
X95627996Y-41922435D01*
X95448750Y-41942630D01*
X95448745Y-41942631D01*
X95278476Y-42002211D01*
X95125737Y-42098184D01*
X94998182Y-42225739D01*
X94925138Y-42341988D01*
X94872803Y-42388278D01*
X94803750Y-42398926D01*
X94739902Y-42370551D01*
X94715152Y-42341988D01*
X94657816Y-42250738D01*
X94530262Y-42123184D01*
X94477450Y-42090000D01*
X94377523Y-42027211D01*
X94207254Y-41967631D01*
X94207249Y-41967630D01*
X94028004Y-41947435D01*
X94027996Y-41947435D01*
X93848750Y-41967630D01*
X93848745Y-41967631D01*
X93678476Y-42027211D01*
X93525737Y-42123184D01*
X93398184Y-42250737D01*
X93302211Y-42403476D01*
X93242631Y-42573745D01*
X93242630Y-42573750D01*
X93222435Y-42752996D01*
X93222435Y-42753003D01*
X93242630Y-42932249D01*
X93242631Y-42932254D01*
X93302211Y-43102523D01*
X93380740Y-43227500D01*
X93398184Y-43255262D01*
X93525738Y-43382816D01*
X93678478Y-43478789D01*
X93848745Y-43538368D01*
X93935669Y-43548161D01*
X94000080Y-43575226D01*
X94009465Y-43583700D01*
X94591181Y-44165416D01*
X94624666Y-44226739D01*
X94627500Y-44253097D01*
X94627500Y-45513902D01*
X94607815Y-45580941D01*
X94591181Y-45601583D01*
X94354465Y-45838298D01*
X94293142Y-45871783D01*
X94280668Y-45873837D01*
X94193747Y-45883630D01*
X94191684Y-45884353D01*
X94190269Y-45884425D01*
X94186963Y-45885180D01*
X94186830Y-45884600D01*
X94121905Y-45887912D01*
X94061279Y-45853181D01*
X94029054Y-45791186D01*
X94035462Y-45721611D01*
X94037435Y-45716917D01*
X94319766Y-45082794D01*
X94338158Y-45025730D01*
X94347059Y-44882083D01*
X94315127Y-44741748D01*
X94244954Y-44616093D01*
X94142221Y-44515298D01*
X94142218Y-44515295D01*
X94090380Y-44485202D01*
X94090370Y-44485197D01*
X91719043Y-43429415D01*
X91719022Y-43429407D01*
X91661978Y-43411022D01*
X91518330Y-43402121D01*
X91377995Y-43434052D01*
X91377994Y-43434052D01*
X91377992Y-43434053D01*
X91252342Y-43504222D01*
X91252340Y-43504223D01*
X91151547Y-43606956D01*
X91151543Y-43606961D01*
X91121447Y-43658802D01*
X91121443Y-43658809D01*
X90594419Y-44842526D01*
X90594411Y-44842547D01*
X90576026Y-44899590D01*
X90576026Y-44899592D01*
X90567125Y-45043240D01*
X90599057Y-45183577D01*
X90647990Y-45271197D01*
X90669230Y-45309231D01*
X90771962Y-45410025D01*
X90771965Y-45410028D01*
X90823803Y-45440121D01*
X90823812Y-45440126D01*
X93049850Y-46431221D01*
X93103086Y-46476470D01*
X93123408Y-46543319D01*
X93104363Y-46610543D01*
X93051997Y-46656799D01*
X92999414Y-46668500D01*
X92874021Y-46668500D01*
X92823586Y-46657780D01*
X92803450Y-46648815D01*
X91898230Y-46245785D01*
X90702201Y-45713279D01*
X90702180Y-45713271D01*
X90645136Y-45694886D01*
X90501488Y-45685985D01*
X90361153Y-45717916D01*
X90361152Y-45717916D01*
X90361150Y-45717917D01*
X90235500Y-45788086D01*
X90235498Y-45788087D01*
X90134705Y-45890820D01*
X90134701Y-45890825D01*
X90104605Y-45942666D01*
X90104601Y-45942673D01*
X89577577Y-47126390D01*
X89577569Y-47126411D01*
X89559184Y-47183454D01*
X89559184Y-47183456D01*
X89550283Y-47327104D01*
X89582215Y-47467441D01*
X89640239Y-47571341D01*
X89652388Y-47593095D01*
X89755120Y-47693889D01*
X89755123Y-47693892D01*
X89806961Y-47723985D01*
X89806970Y-47723990D01*
X92178302Y-48779774D01*
X92178310Y-48779776D01*
X92178319Y-48779780D01*
X92231955Y-48797066D01*
X92235366Y-48798166D01*
X92379012Y-48807067D01*
X92519347Y-48775136D01*
X92645003Y-48704963D01*
X92745797Y-48602230D01*
X92775898Y-48550380D01*
X92957246Y-48143065D01*
X93002496Y-48089828D01*
X93069346Y-48069506D01*
X93070526Y-48069500D01*
X98018496Y-48069500D01*
X98109540Y-48051389D01*
X98153828Y-48042580D01*
X98217569Y-48016177D01*
X98281307Y-47989777D01*
X98281308Y-47989776D01*
X98281311Y-47989775D01*
X98396043Y-47913114D01*
X100027290Y-46281865D01*
X100074013Y-46252507D01*
X100177522Y-46216289D01*
X100330262Y-46120316D01*
X100457816Y-45992762D01*
X100553789Y-45840022D01*
X100590007Y-45736513D01*
X100619365Y-45689790D01*
X101669338Y-44639818D01*
X101730661Y-44606333D01*
X101757019Y-44603499D01*
X101783609Y-44603499D01*
X101807801Y-44605882D01*
X101921504Y-44628500D01*
X101921506Y-44628500D01*
X101921507Y-44628500D01*
X117359007Y-44628500D01*
X117759007Y-44628500D01*
X117896993Y-44628500D01*
X118028506Y-44628500D01*
X118094477Y-44647506D01*
X118104474Y-44653787D01*
X118104475Y-44653787D01*
X118104478Y-44653789D01*
X118274745Y-44713368D01*
X118274750Y-44713369D01*
X118453996Y-44733565D01*
X118454000Y-44733565D01*
X118454004Y-44733565D01*
X118633249Y-44713369D01*
X118633252Y-44713368D01*
X118633255Y-44713368D01*
X118803522Y-44653789D01*
X118956262Y-44557816D01*
X119083816Y-44430262D01*
X119179789Y-44277522D01*
X119239368Y-44107255D01*
X119259565Y-43928000D01*
X119258061Y-43914654D01*
X119239369Y-43748750D01*
X119239368Y-43748745D01*
X119207898Y-43658808D01*
X119179789Y-43578478D01*
X119178887Y-43577043D01*
X119106796Y-43462311D01*
X119083816Y-43425738D01*
X118956262Y-43298184D01*
X118881228Y-43251037D01*
X118834938Y-43198703D01*
X118824290Y-43129650D01*
X118852665Y-43065801D01*
X118911054Y-43027429D01*
X118971391Y-43024426D01*
X118989359Y-43028000D01*
X119628000Y-43028000D01*
X119628000Y-42378000D01*
X120128000Y-42378000D01*
X120128000Y-43028000D01*
X120766643Y-43028000D01*
X120766646Y-43027999D01*
X120940512Y-42993415D01*
X120940520Y-42993413D01*
X121104307Y-42925571D01*
X121104316Y-42925566D01*
X121251716Y-42827076D01*
X121251720Y-42827073D01*
X121377073Y-42701720D01*
X121377076Y-42701716D01*
X121475566Y-42554316D01*
X121475571Y-42554306D01*
X121543412Y-42390523D01*
X121543415Y-42390516D01*
X121545904Y-42378000D01*
X120128000Y-42378000D01*
X119628000Y-42378000D01*
X119628000Y-42002000D01*
X119647685Y-41934961D01*
X119700489Y-41889206D01*
X119752000Y-41878000D01*
X121545904Y-41878000D01*
X121543415Y-41865483D01*
X121543412Y-41865476D01*
X121475571Y-41701693D01*
X121475566Y-41701683D01*
X121405846Y-41597340D01*
X121384968Y-41530662D01*
X121403452Y-41463282D01*
X121405818Y-41459599D01*
X121476013Y-41354547D01*
X121543894Y-41190666D01*
X121549998Y-41159983D01*
X121578499Y-41016695D01*
X121578500Y-41016693D01*
X121578500Y-40839306D01*
X121578499Y-40839304D01*
X121543896Y-40665341D01*
X121543893Y-40665332D01*
X121533682Y-40640681D01*
X121520548Y-40608971D01*
X121476016Y-40501459D01*
X121476009Y-40501446D01*
X121441925Y-40450436D01*
X121421047Y-40383759D01*
X121439531Y-40316378D01*
X121483026Y-40274158D01*
X121518454Y-40253704D01*
X121596716Y-40208520D01*
X121708520Y-40096716D01*
X121708520Y-40096714D01*
X121718724Y-40086511D01*
X121718727Y-40086506D01*
X123308520Y-38496716D01*
X123387577Y-38359784D01*
X123428501Y-38207057D01*
X123428501Y-38048942D01*
X123428501Y-38041347D01*
X123428500Y-38041329D01*
X123428500Y-37905179D01*
X123448185Y-37838140D01*
X123500989Y-37792385D01*
X123570147Y-37782441D01*
X123576691Y-37783562D01*
X123598767Y-37787953D01*
X123640070Y-37796168D01*
X123640072Y-37796169D01*
X123640073Y-37796169D01*
X123786984Y-37796169D01*
X123786984Y-37796168D01*
X123859595Y-37781726D01*
X123929186Y-37787953D01*
X123984364Y-37830816D01*
X124001717Y-37865025D01*
X124060026Y-38044484D01*
X124060029Y-38044490D01*
X124153960Y-38207182D01*
X124279664Y-38346792D01*
X124431650Y-38457217D01*
X124499518Y-38487434D01*
X124552755Y-38532684D01*
X124573076Y-38599533D01*
X124554031Y-38666757D01*
X124530487Y-38693085D01*
X124530662Y-38693260D01*
X124527533Y-38696388D01*
X124526401Y-38697655D01*
X124525739Y-38698182D01*
X124398184Y-38825737D01*
X124302211Y-38978476D01*
X124242631Y-39148745D01*
X124242630Y-39148750D01*
X124222435Y-39327996D01*
X124222435Y-39328003D01*
X124242630Y-39507249D01*
X124242631Y-39507254D01*
X124302211Y-39677523D01*
X124389657Y-39816691D01*
X124398184Y-39830262D01*
X124525738Y-39957816D01*
X124578020Y-39990667D01*
X124671314Y-40049288D01*
X124678478Y-40053789D01*
X124848745Y-40113368D01*
X124848750Y-40113369D01*
X125027996Y-40133565D01*
X125028000Y-40133565D01*
X125028004Y-40133565D01*
X125207249Y-40113369D01*
X125207252Y-40113368D01*
X125207255Y-40113368D01*
X125377522Y-40053789D01*
X125530262Y-39957816D01*
X125657816Y-39830262D01*
X125657816Y-39830261D01*
X125662740Y-39825338D01*
X125664306Y-39826904D01*
X125712826Y-39792845D01*
X125782637Y-39789990D01*
X125842910Y-39825331D01*
X125859980Y-39848295D01*
X125949601Y-40003525D01*
X125952828Y-40007966D01*
X125976310Y-40073771D01*
X125976513Y-40080856D01*
X125976513Y-40308019D01*
X125976513Y-40446007D01*
X125976513Y-40446009D01*
X125976512Y-40446009D01*
X126003431Y-40581335D01*
X126003434Y-40581345D01*
X126056235Y-40708820D01*
X126132900Y-40823558D01*
X126236630Y-40927288D01*
X126265990Y-40974013D01*
X126302209Y-41077520D01*
X126373299Y-41190658D01*
X126398184Y-41230262D01*
X126525738Y-41357816D01*
X126678478Y-41453789D01*
X126816357Y-41502035D01*
X126848745Y-41513368D01*
X126848750Y-41513369D01*
X127027996Y-41533565D01*
X127028000Y-41533565D01*
X127028004Y-41533565D01*
X127207249Y-41513369D01*
X127207252Y-41513368D01*
X127207255Y-41513368D01*
X127377522Y-41453789D01*
X127530262Y-41357816D01*
X127657816Y-41230262D01*
X127753789Y-41077522D01*
X127813368Y-40907255D01*
X127821024Y-40839304D01*
X127827710Y-40779968D01*
X127854776Y-40715554D01*
X127912371Y-40675999D01*
X127950930Y-40669851D01*
X128097507Y-40669851D01*
X128097508Y-40669850D01*
X128241593Y-40641191D01*
X128377320Y-40584971D01*
X128499471Y-40503352D01*
X128603352Y-40399471D01*
X128684971Y-40277320D01*
X128741191Y-40141593D01*
X128759551Y-40049288D01*
X132177500Y-40049288D01*
X132209161Y-40289785D01*
X132271947Y-40524104D01*
X132364773Y-40748205D01*
X132364777Y-40748214D01*
X132373009Y-40762472D01*
X132486064Y-40958289D01*
X132486066Y-40958292D01*
X132486067Y-40958293D01*
X132633733Y-41150736D01*
X132633739Y-41150743D01*
X132805256Y-41322260D01*
X132805263Y-41322266D01*
X132847333Y-41354547D01*
X132997711Y-41469936D01*
X133207788Y-41591224D01*
X133431900Y-41684054D01*
X133666211Y-41746838D01*
X133846586Y-41770584D01*
X133906711Y-41778500D01*
X133906712Y-41778500D01*
X134149289Y-41778500D01*
X134197388Y-41772167D01*
X134389789Y-41746838D01*
X134624100Y-41684054D01*
X134848212Y-41591224D01*
X135058289Y-41469936D01*
X135250738Y-41322265D01*
X135422265Y-41150738D01*
X135569936Y-40958289D01*
X135691224Y-40748212D01*
X135784054Y-40524100D01*
X135846838Y-40289789D01*
X135878500Y-40049288D01*
X135878500Y-39806712D01*
X135876674Y-39792845D01*
X135861492Y-39677522D01*
X135846838Y-39566211D01*
X135784054Y-39331900D01*
X135691224Y-39107788D01*
X135569936Y-38897711D01*
X135439715Y-38728003D01*
X135422266Y-38705263D01*
X135422260Y-38705256D01*
X135250743Y-38533739D01*
X135250736Y-38533733D01*
X135058293Y-38386067D01*
X135058292Y-38386066D01*
X135058289Y-38386064D01*
X134848212Y-38264776D01*
X134848205Y-38264773D01*
X134624104Y-38171947D01*
X134389785Y-38109161D01*
X134149289Y-38077500D01*
X134149288Y-38077500D01*
X133906712Y-38077500D01*
X133906711Y-38077500D01*
X133666214Y-38109161D01*
X133431895Y-38171947D01*
X133207794Y-38264773D01*
X133207790Y-38264775D01*
X133207788Y-38264776D01*
X133004719Y-38382018D01*
X132997706Y-38386067D01*
X132805263Y-38533733D01*
X132805256Y-38533739D01*
X132633739Y-38705256D01*
X132633733Y-38705263D01*
X132486067Y-38897706D01*
X132486064Y-38897710D01*
X132486064Y-38897711D01*
X132480557Y-38907249D01*
X132364777Y-39107785D01*
X132364773Y-39107794D01*
X132271947Y-39331895D01*
X132209161Y-39566214D01*
X132177500Y-39806711D01*
X132177500Y-40049288D01*
X128759551Y-40049288D01*
X128769851Y-39997506D01*
X128769851Y-39850596D01*
X128741191Y-39706509D01*
X128704553Y-39618059D01*
X128697085Y-39548590D01*
X128728360Y-39486111D01*
X128771715Y-39457778D01*
X128771249Y-39456810D01*
X128777522Y-39453789D01*
X128812856Y-39431587D01*
X128930262Y-39357816D01*
X129057816Y-39230262D01*
X129153789Y-39077522D01*
X129213368Y-38907255D01*
X129213369Y-38907249D01*
X129233565Y-38728003D01*
X129233565Y-38727996D01*
X129213369Y-38548750D01*
X129213368Y-38548745D01*
X129188781Y-38478479D01*
X129153789Y-38378478D01*
X129143274Y-38361744D01*
X129082696Y-38265334D01*
X129057816Y-38225738D01*
X128930262Y-38098184D01*
X128897344Y-38077500D01*
X128777523Y-38002211D01*
X128607254Y-37942631D01*
X128607249Y-37942630D01*
X128428004Y-37922435D01*
X128427996Y-37922435D01*
X128273464Y-37939846D01*
X128204642Y-37927791D01*
X128182058Y-37912473D01*
X128181929Y-37912652D01*
X128024605Y-37798349D01*
X128024602Y-37798347D01*
X128024601Y-37798347D01*
X127978858Y-37777981D01*
X127852888Y-37721894D01*
X127852880Y-37721892D01*
X127662666Y-37681462D01*
X127663292Y-37678515D01*
X127610741Y-37656884D01*
X127570765Y-37599581D01*
X127565013Y-37573130D01*
X127556491Y-37492048D01*
X127498405Y-37313280D01*
X127495250Y-37307815D01*
X127404425Y-37150499D01*
X127404417Y-37150488D01*
X127309363Y-37044920D01*
X127279133Y-36981928D01*
X127277513Y-36961948D01*
X127277513Y-35866072D01*
X127277514Y-35866059D01*
X127277514Y-35697958D01*
X127277514Y-35697956D01*
X127236590Y-35545228D01*
X127200362Y-35482480D01*
X127200362Y-35482479D01*
X127157535Y-35408300D01*
X127157534Y-35408299D01*
X127157533Y-35408297D01*
X127045729Y-35296493D01*
X127045728Y-35296492D01*
X127041398Y-35292162D01*
X127041387Y-35292152D01*
X126975298Y-35226063D01*
X130232482Y-35226063D01*
X130691919Y-35524426D01*
X130691942Y-35524439D01*
X130745353Y-35551494D01*
X130745359Y-35551496D01*
X130885700Y-35582726D01*
X131029164Y-35573151D01*
X131164116Y-35523548D01*
X131279622Y-35437936D01*
X131317421Y-35391484D01*
X131317434Y-35391467D01*
X131615793Y-34932033D01*
X130777122Y-34387393D01*
X130232482Y-35226063D01*
X126975298Y-35226063D01*
X125972887Y-34223652D01*
X129162455Y-34223652D01*
X129172030Y-34367116D01*
X129221633Y-34502068D01*
X129307245Y-34617574D01*
X129353697Y-34655373D01*
X129353714Y-34655386D01*
X129813147Y-34953745D01*
X130357787Y-34115074D01*
X129519117Y-33570435D01*
X129220755Y-34029871D01*
X129220742Y-34029894D01*
X129193687Y-34083305D01*
X129193685Y-34083311D01*
X129162455Y-34223651D01*
X129162455Y-34223652D01*
X125972887Y-34223652D01*
X125715590Y-33966355D01*
X125715588Y-33966352D01*
X125689417Y-33940181D01*
X125655932Y-33878858D01*
X125660916Y-33809166D01*
X125702788Y-33753233D01*
X125768252Y-33728816D01*
X125777098Y-33728500D01*
X127100641Y-33728500D01*
X127100657Y-33728501D01*
X127108253Y-33728501D01*
X127266364Y-33728501D01*
X127266367Y-33728501D01*
X127419095Y-33687577D01*
X127477617Y-33653789D01*
X127493552Y-33644588D01*
X127561451Y-33628115D01*
X127615669Y-33643522D01*
X127634191Y-33653789D01*
X128019853Y-33867565D01*
X128046633Y-33878858D01*
X128075095Y-33890861D01*
X128075100Y-33890862D01*
X128115686Y-33896960D01*
X128217420Y-33912247D01*
X128360005Y-33892669D01*
X128491298Y-33833714D01*
X128600662Y-33740157D01*
X128635167Y-33691128D01*
X129408799Y-32295457D01*
X129432095Y-32240214D01*
X129432095Y-32240213D01*
X129432096Y-32240211D01*
X129433859Y-32233942D01*
X129470954Y-32174733D01*
X129534171Y-32144978D01*
X129603439Y-32154125D01*
X129619744Y-32162854D01*
X130095513Y-32465274D01*
X130141530Y-32517849D01*
X130151818Y-32586957D01*
X130125175Y-32648186D01*
X130089805Y-32691652D01*
X129791435Y-33151099D01*
X131049442Y-33968059D01*
X131888111Y-34512698D01*
X132167699Y-34082172D01*
X132220720Y-34036669D01*
X132289925Y-34027055D01*
X132349257Y-34052960D01*
X133096277Y-34651885D01*
X133099736Y-34654764D01*
X133269972Y-34801780D01*
X133908983Y-35353631D01*
X133911868Y-35356122D01*
X133915233Y-35359138D01*
X134647007Y-36039309D01*
X134701182Y-36089664D01*
X134704443Y-36092808D01*
X135463191Y-36851556D01*
X135466335Y-36854817D01*
X136133986Y-37573121D01*
X136196854Y-37640758D01*
X136199872Y-37644126D01*
X136264704Y-37719197D01*
X136901235Y-38456263D01*
X136904132Y-38459745D01*
X137575337Y-39296918D01*
X137578105Y-39300503D01*
X138218275Y-40161616D01*
X138220911Y-40165299D01*
X138829241Y-41049271D01*
X138831740Y-41053049D01*
X139407346Y-41958596D01*
X139409706Y-41962462D01*
X139951875Y-42888460D01*
X139954092Y-42892410D01*
X140462081Y-43837594D01*
X140464152Y-43841623D01*
X140937276Y-44804717D01*
X140939198Y-44808818D01*
X141087570Y-45140978D01*
X141376626Y-45788086D01*
X141376820Y-45788519D01*
X141378587Y-45792677D01*
X141510808Y-46120316D01*
X141780162Y-46787771D01*
X141781780Y-46792002D01*
X142146734Y-47801071D01*
X142148196Y-47805358D01*
X142476045Y-48827059D01*
X142477350Y-48831396D01*
X142767671Y-49864407D01*
X142768816Y-49868786D01*
X142986974Y-50770225D01*
X143021216Y-50911712D01*
X143022201Y-50916133D01*
X143236347Y-51967602D01*
X143237169Y-51972056D01*
X143412761Y-53030589D01*
X143413421Y-53035070D01*
X143550244Y-54099367D01*
X143550739Y-54103869D01*
X143648596Y-55172410D01*
X143648927Y-55176928D01*
X143707695Y-56248368D01*
X143707860Y-56252894D01*
X143727458Y-57325735D01*
X143727458Y-57330265D01*
X143707860Y-58403105D01*
X143707695Y-58407631D01*
X143648927Y-59479071D01*
X143648596Y-59483589D01*
X143550739Y-60552130D01*
X143550244Y-60556632D01*
X143413421Y-61620929D01*
X143412761Y-61625410D01*
X143237169Y-62683943D01*
X143236347Y-62688397D01*
X143022201Y-63739866D01*
X143021216Y-63744287D01*
X142768817Y-64787209D01*
X142767671Y-64791592D01*
X142477350Y-65824603D01*
X142476045Y-65828940D01*
X142148196Y-66850641D01*
X142146734Y-66854928D01*
X141781780Y-67863997D01*
X141780162Y-67868228D01*
X141378592Y-68863312D01*
X141376820Y-68867480D01*
X140939198Y-69847181D01*
X140937276Y-69851282D01*
X140464152Y-70814376D01*
X140462081Y-70818405D01*
X139954092Y-71763589D01*
X139951875Y-71767539D01*
X139409706Y-72693537D01*
X139407346Y-72697403D01*
X138831740Y-73602950D01*
X138829241Y-73606728D01*
X138220911Y-74490700D01*
X138218275Y-74494383D01*
X137578105Y-75355496D01*
X137575337Y-75359081D01*
X136904132Y-76196254D01*
X136901235Y-76199736D01*
X136199877Y-77011868D01*
X136196854Y-77015241D01*
X135466335Y-77801182D01*
X135463191Y-77804443D01*
X134704443Y-78563191D01*
X134701182Y-78566335D01*
X133915241Y-79296854D01*
X133911868Y-79299877D01*
X133099736Y-80001235D01*
X133096254Y-80004132D01*
X132259081Y-80675337D01*
X132255496Y-80678105D01*
X131394383Y-81318275D01*
X131390700Y-81320911D01*
X130506728Y-81929241D01*
X130502950Y-81931740D01*
X129597403Y-82507346D01*
X129593537Y-82509706D01*
X128667539Y-83051875D01*
X128663589Y-83054092D01*
X127718405Y-83562081D01*
X127714376Y-83564152D01*
X126751282Y-84037276D01*
X126747181Y-84039198D01*
X125767480Y-84476820D01*
X125763312Y-84478592D01*
X124768228Y-84880162D01*
X124763997Y-84881780D01*
X123754928Y-85246734D01*
X123750641Y-85248196D01*
X122728940Y-85576045D01*
X122724603Y-85577350D01*
X121691592Y-85867671D01*
X121687209Y-85868817D01*
X120644287Y-86121216D01*
X120639866Y-86122201D01*
X119588397Y-86336347D01*
X119583943Y-86337169D01*
X118525410Y-86512761D01*
X118520929Y-86513421D01*
X117456632Y-86650244D01*
X117452130Y-86650739D01*
X116383589Y-86748596D01*
X116379071Y-86748927D01*
X115307631Y-86807695D01*
X115303105Y-86807860D01*
X114230265Y-86827458D01*
X114225735Y-86827458D01*
X113152894Y-86807860D01*
X113148368Y-86807695D01*
X112076928Y-86748927D01*
X112072410Y-86748596D01*
X111003869Y-86650739D01*
X110999367Y-86650244D01*
X109935070Y-86513421D01*
X109930589Y-86512761D01*
X108872056Y-86337169D01*
X108867602Y-86336347D01*
X107816133Y-86122201D01*
X107811712Y-86121216D01*
X107542402Y-86056040D01*
X106768786Y-85868816D01*
X106764407Y-85867671D01*
X105731396Y-85577350D01*
X105727059Y-85576045D01*
X104705358Y-85248196D01*
X104701071Y-85246734D01*
X103692002Y-84881780D01*
X103687771Y-84880162D01*
X103012258Y-84607556D01*
X102692677Y-84478587D01*
X102688530Y-84476824D01*
X101708818Y-84039198D01*
X101704717Y-84037276D01*
X100741623Y-83564152D01*
X100737594Y-83562081D01*
X99792410Y-83054092D01*
X99788460Y-83051875D01*
X98862462Y-82509706D01*
X98858596Y-82507346D01*
X97953049Y-81931740D01*
X97949271Y-81929241D01*
X97065299Y-81320911D01*
X97061616Y-81318275D01*
X96200503Y-80678105D01*
X96196918Y-80675337D01*
X95359745Y-80004132D01*
X95356263Y-80001235D01*
X94678225Y-79415681D01*
X94544126Y-79299872D01*
X94540758Y-79296854D01*
X94527645Y-79284666D01*
X93754817Y-78566335D01*
X93751556Y-78563191D01*
X93178865Y-77990500D01*
X95320501Y-77990500D01*
X95320501Y-78027154D01*
X95330819Y-78128152D01*
X95385046Y-78291800D01*
X95385051Y-78291811D01*
X95475552Y-78438534D01*
X95475555Y-78438538D01*
X95597461Y-78560444D01*
X95597465Y-78560447D01*
X95744188Y-78650948D01*
X95744199Y-78650953D01*
X95907847Y-78705180D01*
X96008851Y-78715499D01*
X96057999Y-78715498D01*
X96058000Y-78715498D01*
X96058000Y-77990500D01*
X95320501Y-77990500D01*
X93178865Y-77990500D01*
X92992808Y-77804443D01*
X92989664Y-77801182D01*
X92886827Y-77690543D01*
X92700890Y-77490500D01*
X95320500Y-77490500D01*
X96058000Y-77490500D01*
X96058000Y-76765500D01*
X96057999Y-76765499D01*
X96008861Y-76765500D01*
X96008843Y-76765501D01*
X95907847Y-76775819D01*
X95744199Y-76830046D01*
X95744188Y-76830051D01*
X95597465Y-76920552D01*
X95597461Y-76920555D01*
X95475555Y-77042461D01*
X95475552Y-77042465D01*
X95385051Y-77189188D01*
X95385046Y-77189199D01*
X95330819Y-77352847D01*
X95320500Y-77453845D01*
X95320500Y-77490500D01*
X92700890Y-77490500D01*
X92259138Y-77015233D01*
X92256122Y-77011868D01*
X92177261Y-76920552D01*
X91554764Y-76199736D01*
X91551867Y-76196254D01*
X91226553Y-75790500D01*
X95320501Y-75790500D01*
X95320501Y-75827154D01*
X95330819Y-75928152D01*
X95385046Y-76091800D01*
X95385051Y-76091811D01*
X95475552Y-76238534D01*
X95475555Y-76238538D01*
X95597461Y-76360444D01*
X95597465Y-76360447D01*
X95744188Y-76450948D01*
X95744199Y-76450953D01*
X95907847Y-76505180D01*
X96008851Y-76515499D01*
X96108000Y-76515498D01*
X96108000Y-75790500D01*
X95320501Y-75790500D01*
X91226553Y-75790500D01*
X90880662Y-75359081D01*
X90877894Y-75355496D01*
X90829575Y-75290500D01*
X95320500Y-75290500D01*
X96108000Y-75290500D01*
X96108000Y-74565499D01*
X96008860Y-74565500D01*
X96008844Y-74565501D01*
X95907847Y-74575819D01*
X95744199Y-74630046D01*
X95744188Y-74630051D01*
X95597465Y-74720552D01*
X95597461Y-74720555D01*
X95475555Y-74842461D01*
X95475552Y-74842465D01*
X95385051Y-74989188D01*
X95385046Y-74989199D01*
X95330819Y-75152847D01*
X95320500Y-75253845D01*
X95320500Y-75290500D01*
X90829575Y-75290500D01*
X90237724Y-74494383D01*
X90235088Y-74490700D01*
X90089057Y-74278500D01*
X89626751Y-73606718D01*
X89624259Y-73602950D01*
X89562164Y-73505262D01*
X89048644Y-72697389D01*
X89046293Y-72693537D01*
X88915715Y-72470517D01*
X88598882Y-71929381D01*
X88504124Y-71767539D01*
X88501907Y-71763589D01*
X87993918Y-70818405D01*
X87991847Y-70814376D01*
X87671777Y-70162839D01*
X87518716Y-69851268D01*
X87516801Y-69847181D01*
X87079163Y-68867443D01*
X87077422Y-68863349D01*
X86675828Y-67868206D01*
X86674219Y-67863997D01*
X86632922Y-67749813D01*
X86309254Y-66854895D01*
X86307814Y-66850674D01*
X86168173Y-66415500D01*
X90253000Y-66415500D01*
X90978000Y-66415500D01*
X90978000Y-65628000D01*
X90941361Y-65628000D01*
X90941343Y-65628001D01*
X90840347Y-65638319D01*
X90676699Y-65692546D01*
X90676688Y-65692551D01*
X90529965Y-65783052D01*
X90529961Y-65783055D01*
X90408055Y-65904961D01*
X90408052Y-65904965D01*
X90317551Y-66051688D01*
X90317546Y-66051699D01*
X90263319Y-66215347D01*
X90253000Y-66316345D01*
X90253000Y-66415500D01*
X86168173Y-66415500D01*
X85979947Y-65828918D01*
X85978649Y-65824603D01*
X85688317Y-64791551D01*
X85687192Y-64787251D01*
X85434772Y-63744241D01*
X85433808Y-63739912D01*
X85219649Y-62688383D01*
X85218830Y-62683943D01*
X85201256Y-62578000D01*
X90378000Y-62578000D01*
X90378000Y-63125844D01*
X90384401Y-63185372D01*
X90384403Y-63185379D01*
X90434645Y-63320086D01*
X90434649Y-63320093D01*
X90520809Y-63435187D01*
X90520812Y-63435190D01*
X90635906Y-63521350D01*
X90635913Y-63521354D01*
X90770620Y-63571596D01*
X90770627Y-63571598D01*
X90830155Y-63577999D01*
X90830172Y-63578000D01*
X91378000Y-63578000D01*
X91378000Y-62578000D01*
X90378000Y-62578000D01*
X85201256Y-62578000D01*
X85118315Y-62078000D01*
X90378000Y-62078000D01*
X91378000Y-62078000D01*
X91378000Y-61078000D01*
X90830155Y-61078000D01*
X90770627Y-61084401D01*
X90770620Y-61084403D01*
X90635913Y-61134645D01*
X90635906Y-61134649D01*
X90520812Y-61220809D01*
X90520809Y-61220812D01*
X90434649Y-61335906D01*
X90434645Y-61335913D01*
X90384403Y-61470620D01*
X90384401Y-61470627D01*
X90378000Y-61530155D01*
X90378000Y-62078000D01*
X85118315Y-62078000D01*
X85043238Y-61625410D01*
X85042578Y-61620929D01*
X84973604Y-61084403D01*
X84905752Y-60556607D01*
X84905260Y-60552130D01*
X84899716Y-60491596D01*
X84807401Y-59483570D01*
X84807072Y-59479071D01*
X84748303Y-58407608D01*
X84748139Y-58403105D01*
X84747365Y-58360756D01*
X84730716Y-57449288D01*
X85977500Y-57449288D01*
X86009161Y-57689785D01*
X86071947Y-57924104D01*
X86164773Y-58148205D01*
X86164776Y-58148212D01*
X86286064Y-58358289D01*
X86286066Y-58358292D01*
X86286067Y-58358293D01*
X86433733Y-58550736D01*
X86433739Y-58550743D01*
X86605256Y-58722260D01*
X86605262Y-58722265D01*
X86797711Y-58869936D01*
X87007788Y-58991224D01*
X87231900Y-59084054D01*
X87466211Y-59146838D01*
X87646586Y-59170584D01*
X87706711Y-59178500D01*
X87706712Y-59178500D01*
X87949289Y-59178500D01*
X87997388Y-59172167D01*
X88189789Y-59146838D01*
X88424100Y-59084054D01*
X88648212Y-58991224D01*
X88858289Y-58869936D01*
X89050738Y-58722265D01*
X89222265Y-58550738D01*
X89369936Y-58358289D01*
X89491224Y-58148212D01*
X89584054Y-57924100D01*
X89646838Y-57689789D01*
X89678500Y-57449288D01*
X89678500Y-57206712D01*
X89646838Y-56966211D01*
X89584054Y-56731900D01*
X89491224Y-56507788D01*
X89369936Y-56297711D01*
X89222265Y-56105262D01*
X89222260Y-56105256D01*
X89050743Y-55933739D01*
X89050736Y-55933733D01*
X88858293Y-55786067D01*
X88858292Y-55786066D01*
X88858289Y-55786064D01*
X88648212Y-55664776D01*
X88648205Y-55664773D01*
X88424104Y-55571947D01*
X88189785Y-55509161D01*
X87949289Y-55477500D01*
X87949288Y-55477500D01*
X87706712Y-55477500D01*
X87706711Y-55477500D01*
X87466214Y-55509161D01*
X87231895Y-55571947D01*
X87007794Y-55664773D01*
X87007785Y-55664777D01*
X86797706Y-55786067D01*
X86605263Y-55933733D01*
X86605256Y-55933739D01*
X86433739Y-56105256D01*
X86433733Y-56105263D01*
X86286067Y-56297706D01*
X86164777Y-56507785D01*
X86164773Y-56507794D01*
X86071947Y-56731895D01*
X86009161Y-56966214D01*
X85977500Y-57206711D01*
X85977500Y-57449288D01*
X84730716Y-57449288D01*
X84728541Y-57330244D01*
X84728541Y-57325735D01*
X84748139Y-56252869D01*
X84748304Y-56248368D01*
X84756154Y-56105263D01*
X84807073Y-55176904D01*
X84807403Y-55172410D01*
X84811581Y-55126794D01*
X84905263Y-54103837D01*
X84905751Y-54099398D01*
X85042578Y-53035066D01*
X85043238Y-53030589D01*
X85058752Y-52937063D01*
X85218834Y-51972032D01*
X85219652Y-51967602D01*
X85222586Y-51953197D01*
X85433810Y-50916076D01*
X85434770Y-50911770D01*
X85687196Y-49868735D01*
X85688313Y-49864462D01*
X85844710Y-49307975D01*
X86794594Y-49307975D01*
X86823435Y-49452962D01*
X86823438Y-49452972D01*
X86880007Y-49589543D01*
X86880014Y-49589556D01*
X86962143Y-49712470D01*
X86962146Y-49712474D01*
X87066675Y-49817003D01*
X87066679Y-49817006D01*
X87189593Y-49899135D01*
X87189606Y-49899142D01*
X87326177Y-49955711D01*
X87326182Y-49955713D01*
X87326186Y-49955713D01*
X87326187Y-49955714D01*
X87471174Y-49984555D01*
X87471177Y-49984555D01*
X87619015Y-49984555D01*
X87716557Y-49965151D01*
X87764008Y-49955713D01*
X87900590Y-49899139D01*
X88023511Y-49817006D01*
X88128046Y-49712471D01*
X88195868Y-49610968D01*
X88533440Y-49610968D01*
X88549406Y-49681135D01*
X88565372Y-49751304D01*
X88602064Y-49817006D01*
X88635545Y-49876958D01*
X88666424Y-49907254D01*
X88738277Y-49977752D01*
X88738280Y-49977755D01*
X88790118Y-50007848D01*
X88790127Y-50007853D01*
X90788138Y-50897424D01*
X90825383Y-50923022D01*
X93491181Y-53588820D01*
X93524666Y-53650143D01*
X93527500Y-53676501D01*
X93527500Y-60955648D01*
X93507815Y-61022687D01*
X93455011Y-61068442D01*
X93416755Y-61078938D01*
X93370516Y-61083909D01*
X93235671Y-61134202D01*
X93235664Y-61134206D01*
X93120455Y-61220452D01*
X93120452Y-61220455D01*
X93028888Y-61342769D01*
X93026756Y-61341173D01*
X92987127Y-61380794D01*
X92918852Y-61395638D01*
X92853391Y-61371214D01*
X92828057Y-61341971D01*
X92826669Y-61343011D01*
X92735190Y-61220812D01*
X92735187Y-61220809D01*
X92620093Y-61134649D01*
X92620086Y-61134645D01*
X92485379Y-61084403D01*
X92485372Y-61084401D01*
X92425844Y-61078000D01*
X91878000Y-61078000D01*
X91878000Y-63578000D01*
X91892930Y-63578000D01*
X91959969Y-63597685D01*
X92005724Y-63650489D01*
X92015668Y-63719647D01*
X91998468Y-63767098D01*
X91992549Y-63776692D01*
X91992546Y-63776699D01*
X91938319Y-63940347D01*
X91928000Y-64041345D01*
X91928000Y-64078000D01*
X93091500Y-64078000D01*
X93158539Y-64097685D01*
X93204294Y-64150489D01*
X93215500Y-64202000D01*
X93215500Y-64454000D01*
X93195815Y-64521039D01*
X93143011Y-64566794D01*
X93091500Y-64578000D01*
X91928001Y-64578000D01*
X91928001Y-64614654D01*
X91938319Y-64715652D01*
X91992546Y-64879300D01*
X91992551Y-64879311D01*
X92083052Y-65026034D01*
X92083055Y-65026038D01*
X92136604Y-65079587D01*
X92170089Y-65140910D01*
X92165105Y-65210602D01*
X92155656Y-65230387D01*
X92126256Y-65280101D01*
X92126254Y-65280106D01*
X92080402Y-65437926D01*
X92080401Y-65437932D01*
X92077500Y-65474798D01*
X92077500Y-65654302D01*
X92057815Y-65721341D01*
X92005011Y-65767096D01*
X91935853Y-65777040D01*
X91888403Y-65759841D01*
X91779305Y-65692548D01*
X91779300Y-65692546D01*
X91615652Y-65638319D01*
X91514654Y-65628000D01*
X91478000Y-65628000D01*
X91478000Y-66791500D01*
X91458315Y-66858539D01*
X91405511Y-66904294D01*
X91354000Y-66915500D01*
X90253001Y-66915500D01*
X90253001Y-67014654D01*
X90263319Y-67115652D01*
X90317546Y-67279300D01*
X90317551Y-67279311D01*
X90408052Y-67426034D01*
X90408055Y-67426038D01*
X90421982Y-67439965D01*
X90455467Y-67501288D01*
X90450483Y-67570980D01*
X90421984Y-67615325D01*
X90407661Y-67629648D01*
X90317093Y-67776481D01*
X90317092Y-67776484D01*
X90262826Y-67940247D01*
X90262826Y-67940248D01*
X90262825Y-67940248D01*
X90252500Y-68041315D01*
X90252500Y-68739669D01*
X90252501Y-68739687D01*
X90262825Y-68840752D01*
X90284508Y-68906186D01*
X90317092Y-69004516D01*
X90407660Y-69151350D01*
X90529650Y-69273340D01*
X90676484Y-69363908D01*
X90840247Y-69418174D01*
X90941323Y-69428500D01*
X91514676Y-69428499D01*
X91514684Y-69428498D01*
X91514687Y-69428498D01*
X91570030Y-69422844D01*
X91615753Y-69418174D01*
X91779516Y-69363908D01*
X91926350Y-69273340D01*
X91965819Y-69233871D01*
X92027142Y-69200386D01*
X92096834Y-69205370D01*
X92152767Y-69247242D01*
X92177184Y-69312706D01*
X92177500Y-69321552D01*
X92177500Y-69446994D01*
X92177500Y-69446996D01*
X92177499Y-69446996D01*
X92204418Y-69582322D01*
X92204421Y-69582332D01*
X92257222Y-69709807D01*
X92333887Y-69824545D01*
X92333888Y-69824546D01*
X92941181Y-70431837D01*
X92974666Y-70493160D01*
X92977500Y-70519518D01*
X92977500Y-71525870D01*
X92977501Y-71525876D01*
X92983908Y-71585483D01*
X93034202Y-71720328D01*
X93034206Y-71720335D01*
X93120452Y-71835544D01*
X93120455Y-71835547D01*
X93242769Y-71927112D01*
X93241070Y-71929381D01*
X93280264Y-71968580D01*
X93295111Y-72036854D01*
X93270690Y-72102317D01*
X93241689Y-72127445D01*
X93242769Y-72128888D01*
X93120455Y-72220452D01*
X93120452Y-72220455D01*
X93034206Y-72335664D01*
X93034202Y-72335671D01*
X92983908Y-72470517D01*
X92977501Y-72530116D01*
X92977500Y-72530135D01*
X92977500Y-74125870D01*
X92977501Y-74125876D01*
X92983908Y-74185483D01*
X93034202Y-74320328D01*
X93034206Y-74320335D01*
X93120452Y-74435544D01*
X93120455Y-74435547D01*
X93235664Y-74521793D01*
X93235671Y-74521797D01*
X93370517Y-74572091D01*
X93370516Y-74572091D01*
X93377444Y-74572835D01*
X93430127Y-74578500D01*
X95025872Y-74578499D01*
X95085483Y-74572091D01*
X95220331Y-74521796D01*
X95335546Y-74435546D01*
X95421796Y-74320331D01*
X95472091Y-74185483D01*
X95477062Y-74139242D01*
X95503799Y-74074694D01*
X95561191Y-74034846D01*
X95600351Y-74028500D01*
X96286481Y-74028500D01*
X96353520Y-74048185D01*
X96374162Y-74064819D01*
X96663162Y-74353819D01*
X96696647Y-74415142D01*
X96691663Y-74484834D01*
X96649791Y-74540767D01*
X96622585Y-74550914D01*
X96608000Y-74565500D01*
X96608000Y-76515499D01*
X96707140Y-76515499D01*
X96707154Y-76515498D01*
X96808152Y-76505180D01*
X96971800Y-76450953D01*
X96971811Y-76450948D01*
X97118535Y-76360447D01*
X97132460Y-76346521D01*
X97193782Y-76313033D01*
X97263473Y-76318014D01*
X97307827Y-76346517D01*
X97322150Y-76360840D01*
X97468984Y-76451408D01*
X97632747Y-76505674D01*
X97733823Y-76516000D01*
X98432176Y-76515999D01*
X98432184Y-76515998D01*
X98432187Y-76515998D01*
X98487530Y-76510344D01*
X98533253Y-76505674D01*
X98697016Y-76451408D01*
X98843850Y-76360840D01*
X98843852Y-76360838D01*
X98849513Y-76356362D01*
X98851275Y-76358591D01*
X98901194Y-76331334D01*
X98927552Y-76328500D01*
X99266254Y-76328500D01*
X99333293Y-76348185D01*
X99340789Y-76353423D01*
X99340906Y-76353488D01*
X99340908Y-76353490D01*
X99479282Y-76408057D01*
X99566241Y-76418500D01*
X100299001Y-76418499D01*
X100366039Y-76438183D01*
X100411794Y-76490987D01*
X100423000Y-76542499D01*
X100423000Y-76613500D01*
X100403315Y-76680539D01*
X100350511Y-76726294D01*
X100299000Y-76737500D01*
X99566248Y-76737500D01*
X99479283Y-76747942D01*
X99340908Y-76802509D01*
X99340655Y-76802701D01*
X99340519Y-76802804D01*
X99340102Y-76802963D01*
X99333517Y-76806666D01*
X99332961Y-76805677D01*
X99275210Y-76827627D01*
X99265596Y-76828000D01*
X99068000Y-76828000D01*
X99057815Y-76838184D01*
X99048315Y-76870539D01*
X98995511Y-76916294D01*
X98944000Y-76927500D01*
X98890916Y-76927500D01*
X98825820Y-76909039D01*
X98710946Y-76838184D01*
X98697018Y-76829593D01*
X98697013Y-76829591D01*
X98691086Y-76827627D01*
X98533253Y-76775326D01*
X98533251Y-76775325D01*
X98432178Y-76765000D01*
X97833830Y-76765000D01*
X97833812Y-76765001D01*
X97732747Y-76775325D01*
X97568984Y-76829592D01*
X97568981Y-76829593D01*
X97422151Y-76920159D01*
X97307827Y-77034483D01*
X97246504Y-77067967D01*
X97176812Y-77062983D01*
X97132465Y-77034482D01*
X97018538Y-76920555D01*
X97018534Y-76920552D01*
X96871811Y-76830051D01*
X96871800Y-76830046D01*
X96708152Y-76775819D01*
X96607154Y-76765500D01*
X96558000Y-76765500D01*
X96558000Y-78715499D01*
X96607140Y-78715499D01*
X96607154Y-78715498D01*
X96708152Y-78705180D01*
X96871800Y-78650953D01*
X96871811Y-78650948D01*
X97018533Y-78560448D01*
X97132464Y-78446517D01*
X97193787Y-78413032D01*
X97263479Y-78418016D01*
X97307827Y-78446517D01*
X97422150Y-78560840D01*
X97568984Y-78651408D01*
X97732747Y-78705674D01*
X97833823Y-78716000D01*
X98432176Y-78715999D01*
X98432184Y-78715998D01*
X98432187Y-78715998D01*
X98487530Y-78710344D01*
X98533253Y-78705674D01*
X98697016Y-78651408D01*
X98843850Y-78560840D01*
X98965840Y-78438850D01*
X99056408Y-78292016D01*
X99069224Y-78253339D01*
X99108993Y-78195898D01*
X99173508Y-78169074D01*
X99242284Y-78181388D01*
X99261853Y-78193542D01*
X99340715Y-78253344D01*
X99340908Y-78253490D01*
X99479282Y-78308057D01*
X99566241Y-78318500D01*
X100779758Y-78318499D01*
X100866718Y-78308057D01*
X101005092Y-78253490D01*
X101123613Y-78163613D01*
X101213490Y-78045092D01*
X101268057Y-77906718D01*
X101278500Y-77819759D01*
X101278499Y-77236242D01*
X101278499Y-77236241D01*
X101278499Y-77235307D01*
X101298183Y-77168268D01*
X101350987Y-77122513D01*
X101420146Y-77112569D01*
X101471391Y-77132206D01*
X101496180Y-77148770D01*
X101496186Y-77148773D01*
X101496189Y-77148775D01*
X101500948Y-77150746D01*
X101555353Y-77194585D01*
X101577421Y-77260878D01*
X101577500Y-77265309D01*
X101577500Y-77819751D01*
X101587942Y-77906716D01*
X101642510Y-78045092D01*
X101642511Y-78045094D01*
X101732386Y-78163613D01*
X101850715Y-78253344D01*
X101850908Y-78253490D01*
X101989282Y-78308057D01*
X102076241Y-78318500D01*
X103289758Y-78318499D01*
X103376718Y-78308057D01*
X103386828Y-78304069D01*
X103456411Y-78297783D01*
X103518350Y-78330115D01*
X103520005Y-78331740D01*
X103941181Y-78752916D01*
X103974666Y-78814239D01*
X103977500Y-78840597D01*
X103977500Y-82421330D01*
X103977499Y-82421348D01*
X103977499Y-82587054D01*
X103977498Y-82587054D01*
X104018423Y-82739786D01*
X104018424Y-82739787D01*
X104036550Y-82771182D01*
X104096684Y-82875338D01*
X104097481Y-82876717D01*
X104216349Y-82995585D01*
X104216355Y-82995590D01*
X104616181Y-83395416D01*
X104649666Y-83456739D01*
X104652500Y-83483097D01*
X104652500Y-83894669D01*
X104652501Y-83894687D01*
X104662825Y-83995752D01*
X104677222Y-84039198D01*
X104717092Y-84159516D01*
X104807660Y-84306350D01*
X104929650Y-84428340D01*
X105076484Y-84518908D01*
X105240247Y-84573174D01*
X105341323Y-84583500D01*
X105914676Y-84583499D01*
X105914684Y-84583498D01*
X105914687Y-84583498D01*
X105970030Y-84577844D01*
X106015753Y-84573174D01*
X106179516Y-84518908D01*
X106326350Y-84428340D01*
X106448340Y-84306350D01*
X106538908Y-84159516D01*
X106593174Y-83995753D01*
X106603500Y-83894677D01*
X106603500Y-83678000D01*
X108908000Y-83678000D01*
X109608000Y-83678000D01*
X109608000Y-84178000D01*
X108908001Y-84178000D01*
X108908001Y-84627986D01*
X108918494Y-84730697D01*
X108973641Y-84897119D01*
X108973643Y-84897124D01*
X109065684Y-85046345D01*
X109189654Y-85170315D01*
X109338875Y-85262356D01*
X109338880Y-85262358D01*
X109505302Y-85317505D01*
X109505309Y-85317506D01*
X109608019Y-85327999D01*
X109657999Y-85327998D01*
X109658000Y-85327998D01*
X109658000Y-84494988D01*
X109667940Y-84512205D01*
X109723795Y-84568060D01*
X109792204Y-84607556D01*
X109868504Y-84628000D01*
X109947496Y-84628000D01*
X110023796Y-84607556D01*
X110092205Y-84568060D01*
X110148060Y-84512205D01*
X110158000Y-84494988D01*
X110158000Y-85327999D01*
X110207972Y-85327999D01*
X110207986Y-85327998D01*
X110310697Y-85317505D01*
X110477119Y-85262358D01*
X110477124Y-85262356D01*
X110626345Y-85170315D01*
X110750315Y-85046345D01*
X110842356Y-84897124D01*
X110842358Y-84897119D01*
X110897505Y-84730697D01*
X110897506Y-84730690D01*
X110907999Y-84627986D01*
X110908000Y-84627973D01*
X110908000Y-84178000D01*
X110208000Y-84178000D01*
X110208000Y-83678000D01*
X110926603Y-83678000D01*
X110967555Y-83684958D01*
X111048745Y-83713368D01*
X111048748Y-83713369D01*
X111227996Y-83733565D01*
X111228000Y-83733565D01*
X111228004Y-83733565D01*
X111407249Y-83713369D01*
X111407252Y-83713368D01*
X111407255Y-83713368D01*
X111577522Y-83653789D01*
X111730262Y-83557816D01*
X111857816Y-83430262D01*
X111953789Y-83277522D01*
X111956024Y-83271132D01*
X111966470Y-83249917D01*
X111966085Y-83249704D01*
X111968225Y-83245845D01*
X111968236Y-83245830D01*
X112140532Y-82875337D01*
X112165283Y-82839950D01*
X112836506Y-82168728D01*
X112836511Y-82168724D01*
X112846714Y-82158520D01*
X112846716Y-82158520D01*
X112958520Y-82046716D01*
X113016977Y-81945464D01*
X113037577Y-81909785D01*
X113078501Y-81757057D01*
X113078501Y-81598943D01*
X113078501Y-81591348D01*
X113078500Y-81591330D01*
X113078500Y-80370351D01*
X113098185Y-80303312D01*
X113150989Y-80257557D01*
X113189243Y-80247062D01*
X113214744Y-80244320D01*
X113241252Y-80244320D01*
X113280127Y-80248500D01*
X113675872Y-80248499D01*
X113675873Y-80248498D01*
X113675885Y-80248498D01*
X113714744Y-80244320D01*
X113741252Y-80244320D01*
X113780127Y-80248500D01*
X114175872Y-80248499D01*
X114175873Y-80248498D01*
X114175885Y-80248498D01*
X114214744Y-80244320D01*
X114241252Y-80244320D01*
X114280127Y-80248500D01*
X114675872Y-80248499D01*
X114675873Y-80248498D01*
X114675885Y-80248498D01*
X114714744Y-80244320D01*
X114741252Y-80244320D01*
X114766759Y-80247062D01*
X114831308Y-80273801D01*
X114871155Y-80331194D01*
X114877500Y-80370351D01*
X114877500Y-81691330D01*
X114877499Y-81691348D01*
X114877499Y-81857054D01*
X114877498Y-81857054D01*
X114900403Y-81942536D01*
X114918423Y-82009785D01*
X114939746Y-82046717D01*
X114947358Y-82059900D01*
X114947359Y-82059904D01*
X114947360Y-82059904D01*
X114997479Y-82146714D01*
X114997481Y-82146717D01*
X115116349Y-82265585D01*
X115116355Y-82265590D01*
X115690710Y-82839946D01*
X115715465Y-82875338D01*
X115887765Y-83245834D01*
X115894124Y-83258126D01*
X115901026Y-83274137D01*
X115902209Y-83277518D01*
X115902212Y-83277524D01*
X115986837Y-83412204D01*
X115998184Y-83430262D01*
X116125738Y-83557816D01*
X116278478Y-83653789D01*
X116367557Y-83684959D01*
X116448745Y-83713368D01*
X116448750Y-83713369D01*
X116627996Y-83733565D01*
X116628000Y-83733565D01*
X116628004Y-83733565D01*
X116807249Y-83713369D01*
X116807252Y-83713368D01*
X116807255Y-83713368D01*
X116977522Y-83653789D01*
X117130262Y-83557816D01*
X117257816Y-83430262D01*
X117319007Y-83332877D01*
X117371341Y-83286587D01*
X117440394Y-83275939D01*
X117504243Y-83304314D01*
X117542615Y-83362703D01*
X117548000Y-83398850D01*
X117548000Y-83678000D01*
X118248000Y-83678000D01*
X118248000Y-84178000D01*
X117548001Y-84178000D01*
X117548001Y-84627986D01*
X117558494Y-84730697D01*
X117613641Y-84897119D01*
X117613643Y-84897124D01*
X117705684Y-85046345D01*
X117829654Y-85170315D01*
X117978875Y-85262356D01*
X117978880Y-85262358D01*
X118145302Y-85317505D01*
X118145309Y-85317506D01*
X118248019Y-85327999D01*
X118297999Y-85327998D01*
X118298000Y-85327998D01*
X118298000Y-84494988D01*
X118307940Y-84512205D01*
X118363795Y-84568060D01*
X118432204Y-84607556D01*
X118508504Y-84628000D01*
X118587496Y-84628000D01*
X118663796Y-84607556D01*
X118732205Y-84568060D01*
X118788060Y-84512205D01*
X118798000Y-84494988D01*
X118798000Y-85327999D01*
X118847972Y-85327999D01*
X118847986Y-85327998D01*
X118950697Y-85317505D01*
X119117119Y-85262358D01*
X119117124Y-85262356D01*
X119266345Y-85170315D01*
X119390315Y-85046345D01*
X119482356Y-84897124D01*
X119482358Y-84897119D01*
X119537505Y-84730697D01*
X119537506Y-84730690D01*
X119547999Y-84627986D01*
X119548000Y-84627973D01*
X119548000Y-84178000D01*
X118848000Y-84178000D01*
X118848000Y-83678000D01*
X119547999Y-83678000D01*
X119547999Y-83228028D01*
X119547998Y-83228013D01*
X119537505Y-83125302D01*
X119482358Y-82958880D01*
X119482356Y-82958875D01*
X119390315Y-82809654D01*
X119266345Y-82685684D01*
X119117124Y-82593643D01*
X119117119Y-82593641D01*
X118950697Y-82538494D01*
X118950690Y-82538493D01*
X118847986Y-82528000D01*
X118798000Y-82528000D01*
X118798000Y-83361011D01*
X118788060Y-83343795D01*
X118732205Y-83287940D01*
X118663796Y-83248444D01*
X118587496Y-83228000D01*
X118508504Y-83228000D01*
X118432204Y-83248444D01*
X118363795Y-83287940D01*
X118307940Y-83343795D01*
X118298000Y-83361011D01*
X118298000Y-82528000D01*
X118297999Y-82527999D01*
X118248029Y-82528000D01*
X118248011Y-82528001D01*
X118145302Y-82538494D01*
X117978880Y-82593641D01*
X117978875Y-82593643D01*
X117829654Y-82685684D01*
X117705682Y-82809656D01*
X117652866Y-82895284D01*
X117600918Y-82942008D01*
X117531955Y-82953229D01*
X117467873Y-82925385D01*
X117429018Y-82867316D01*
X117424108Y-82844068D01*
X117413369Y-82748750D01*
X117413368Y-82748745D01*
X117388732Y-82678340D01*
X117353789Y-82578478D01*
X117346785Y-82567332D01*
X117309094Y-82507346D01*
X117257816Y-82425738D01*
X117130262Y-82298184D01*
X117046819Y-82245753D01*
X116977524Y-82202212D01*
X116977523Y-82202211D01*
X116977522Y-82202211D01*
X116971125Y-82199972D01*
X116949911Y-82189532D01*
X116949701Y-82189912D01*
X116945830Y-82187763D01*
X116575339Y-82015466D01*
X116539947Y-81990711D01*
X116114819Y-81565583D01*
X116081334Y-81504260D01*
X116078500Y-81477902D01*
X116078500Y-80370351D01*
X116098185Y-80303312D01*
X116150989Y-80257557D01*
X116189243Y-80247062D01*
X116214744Y-80244320D01*
X116241252Y-80244320D01*
X116280127Y-80248500D01*
X116427184Y-80248499D01*
X116494223Y-80268183D01*
X116539978Y-80320987D01*
X116546957Y-80340401D01*
X116566623Y-80413796D01*
X116581719Y-80470136D01*
X116619602Y-80535750D01*
X116657485Y-80601365D01*
X116764635Y-80708515D01*
X116895865Y-80784281D01*
X117042234Y-80823500D01*
X117042236Y-80823500D01*
X117193764Y-80823500D01*
X117193766Y-80823500D01*
X117340135Y-80784281D01*
X117471365Y-80708515D01*
X117471366Y-80708513D01*
X117478403Y-80704451D01*
X117479676Y-80706656D01*
X117532956Y-80686043D01*
X117601405Y-80700063D01*
X117651407Y-80748864D01*
X117657867Y-80762157D01*
X117661809Y-80771674D01*
X117661814Y-80771684D01*
X117771248Y-80935462D01*
X117771251Y-80935466D01*
X117910533Y-81074748D01*
X117910537Y-81074751D01*
X118074315Y-81184185D01*
X118074328Y-81184192D01*
X118256308Y-81259569D01*
X118298000Y-81267862D01*
X118298000Y-80464988D01*
X118307940Y-80482205D01*
X118363795Y-80538060D01*
X118432204Y-80577556D01*
X118508504Y-80598000D01*
X118587496Y-80598000D01*
X118663796Y-80577556D01*
X118732205Y-80538060D01*
X118788060Y-80482205D01*
X118798000Y-80464988D01*
X118798000Y-81267862D01*
X118839690Y-81259569D01*
X118839692Y-81259569D01*
X119021671Y-81184192D01*
X119021684Y-81184185D01*
X119185462Y-81074751D01*
X119185466Y-81074748D01*
X119324748Y-80935466D01*
X119324751Y-80935462D01*
X119434185Y-80771684D01*
X119434192Y-80771671D01*
X119509569Y-80589693D01*
X119509572Y-80589681D01*
X119547999Y-80396495D01*
X119548000Y-80396492D01*
X119548000Y-79998000D01*
X118848000Y-79998000D01*
X118848000Y-79498000D01*
X119548000Y-79498000D01*
X119548000Y-79099508D01*
X119547999Y-79099504D01*
X119509572Y-78906318D01*
X119509569Y-78906306D01*
X119434192Y-78724328D01*
X119434185Y-78724315D01*
X119324751Y-78560537D01*
X119324748Y-78560533D01*
X119185466Y-78421251D01*
X119185462Y-78421248D01*
X119021684Y-78311814D01*
X119021671Y-78311807D01*
X118839691Y-78236429D01*
X118839683Y-78236427D01*
X118798000Y-78228135D01*
X118798000Y-79031011D01*
X118788060Y-79013795D01*
X118732205Y-78957940D01*
X118663796Y-78918444D01*
X118587496Y-78898000D01*
X118508504Y-78898000D01*
X118432204Y-78918444D01*
X118363795Y-78957940D01*
X118307940Y-79013795D01*
X118298000Y-79031011D01*
X118298000Y-78228136D01*
X118297999Y-78228135D01*
X118256316Y-78236427D01*
X118256313Y-78236428D01*
X118207612Y-78256600D01*
X118138142Y-78264067D01*
X118085850Y-78241305D01*
X117970089Y-78154647D01*
X117970086Y-78154645D01*
X117835379Y-78104403D01*
X117835372Y-78104401D01*
X117775844Y-78098000D01*
X117678000Y-78098000D01*
X117678000Y-79299000D01*
X117658315Y-79366039D01*
X117605511Y-79411794D01*
X117554000Y-79423000D01*
X117552499Y-79423000D01*
X117485460Y-79403315D01*
X117439705Y-79350511D01*
X117428499Y-79299000D01*
X117428499Y-78550129D01*
X117428498Y-78550123D01*
X117428497Y-78550116D01*
X117422091Y-78490517D01*
X117402820Y-78438850D01*
X117371797Y-78355671D01*
X117371795Y-78355668D01*
X117353233Y-78330872D01*
X117328816Y-78265408D01*
X117328500Y-78256561D01*
X117328500Y-76659006D01*
X117326110Y-76646994D01*
X117301580Y-76523672D01*
X117294125Y-76505673D01*
X117248777Y-76396192D01*
X117172112Y-76281454D01*
X116274545Y-75383887D01*
X116159807Y-75307222D01*
X116032332Y-75254421D01*
X116032322Y-75254418D01*
X115896996Y-75227500D01*
X115896994Y-75227500D01*
X115896993Y-75227500D01*
X113127499Y-75227500D01*
X113060460Y-75207815D01*
X113014705Y-75155011D01*
X113003499Y-75103500D01*
X113003499Y-74849288D01*
X132177500Y-74849288D01*
X132187796Y-74927500D01*
X132209162Y-75089789D01*
X132226638Y-75155011D01*
X132271947Y-75324104D01*
X132357032Y-75529516D01*
X132364776Y-75548212D01*
X132486064Y-75758289D01*
X132486066Y-75758292D01*
X132486067Y-75758293D01*
X132633733Y-75950736D01*
X132633739Y-75950743D01*
X132805256Y-76122260D01*
X132805262Y-76122265D01*
X132997711Y-76269936D01*
X133207788Y-76391224D01*
X133431900Y-76484054D01*
X133666211Y-76546838D01*
X133846586Y-76570584D01*
X133906711Y-76578500D01*
X133906712Y-76578500D01*
X134149289Y-76578500D01*
X134197388Y-76572167D01*
X134389789Y-76546838D01*
X134624100Y-76484054D01*
X134848212Y-76391224D01*
X135058289Y-76269936D01*
X135250738Y-76122265D01*
X135422265Y-75950738D01*
X135569936Y-75758289D01*
X135691224Y-75548212D01*
X135784054Y-75324100D01*
X135846838Y-75089789D01*
X135878500Y-74849288D01*
X135878500Y-74606712D01*
X135846838Y-74366211D01*
X135784054Y-74131900D01*
X135691224Y-73907788D01*
X135569936Y-73697711D01*
X135498698Y-73604872D01*
X135422266Y-73505263D01*
X135422260Y-73505256D01*
X135250743Y-73333739D01*
X135250736Y-73333733D01*
X135058293Y-73186067D01*
X135058292Y-73186066D01*
X135058289Y-73186064D01*
X134848212Y-73064776D01*
X134848205Y-73064773D01*
X134624104Y-72971947D01*
X134389785Y-72909161D01*
X134149289Y-72877500D01*
X134149288Y-72877500D01*
X133906712Y-72877500D01*
X133906711Y-72877500D01*
X133666214Y-72909161D01*
X133431895Y-72971947D01*
X133207794Y-73064773D01*
X133207785Y-73064777D01*
X132997706Y-73186067D01*
X132805263Y-73333733D01*
X132805256Y-73333739D01*
X132633739Y-73505256D01*
X132633733Y-73505263D01*
X132486067Y-73697706D01*
X132364777Y-73907785D01*
X132364773Y-73907794D01*
X132271947Y-74131895D01*
X132209161Y-74366214D01*
X132177500Y-74606711D01*
X132177500Y-74849288D01*
X113003499Y-74849288D01*
X113003499Y-74475129D01*
X113003498Y-74475123D01*
X113003497Y-74475116D01*
X112997091Y-74415517D01*
X112996951Y-74415142D01*
X112946797Y-74280671D01*
X112946793Y-74280664D01*
X112860547Y-74165455D01*
X112860544Y-74165452D01*
X112745335Y-74079206D01*
X112745328Y-74079202D01*
X112610482Y-74028908D01*
X112610483Y-74028908D01*
X112550883Y-74022501D01*
X112550881Y-74022500D01*
X112550873Y-74022500D01*
X112550864Y-74022500D01*
X111275129Y-74022500D01*
X111275123Y-74022501D01*
X111215516Y-74028908D01*
X111080671Y-74079202D01*
X111080664Y-74079206D01*
X110965455Y-74165452D01*
X110965452Y-74165455D01*
X110879206Y-74280664D01*
X110879202Y-74280671D01*
X110828908Y-74415517D01*
X110822501Y-74475116D01*
X110822501Y-74475123D01*
X110822500Y-74475135D01*
X110822500Y-77380870D01*
X110822501Y-77380876D01*
X110828908Y-77440483D01*
X110879202Y-77575328D01*
X110879206Y-77575335D01*
X110948358Y-77667709D01*
X110965454Y-77690546D01*
X111077811Y-77774657D01*
X111119682Y-77830590D01*
X111127500Y-77873923D01*
X111127500Y-78256561D01*
X111107815Y-78323600D01*
X111102767Y-78330872D01*
X111084204Y-78355668D01*
X111084202Y-78355671D01*
X111033908Y-78490517D01*
X111027501Y-78550116D01*
X111027501Y-78550123D01*
X111027500Y-78550135D01*
X111027500Y-79299000D01*
X111007815Y-79366039D01*
X110955011Y-79411794D01*
X110903500Y-79423000D01*
X110902000Y-79423000D01*
X110834961Y-79403315D01*
X110789206Y-79350511D01*
X110778000Y-79299000D01*
X110778000Y-78098000D01*
X110680155Y-78098000D01*
X110620627Y-78104401D01*
X110620620Y-78104403D01*
X110485913Y-78154645D01*
X110485911Y-78154646D01*
X110370150Y-78241306D01*
X110304686Y-78265723D01*
X110248387Y-78256600D01*
X110199691Y-78236429D01*
X110199683Y-78236427D01*
X110158000Y-78228135D01*
X110158000Y-79031011D01*
X110148060Y-79013795D01*
X110092205Y-78957940D01*
X110023796Y-78918444D01*
X109947496Y-78898000D01*
X109868504Y-78898000D01*
X109792204Y-78918444D01*
X109723795Y-78957940D01*
X109667940Y-79013795D01*
X109658000Y-79031011D01*
X109658000Y-78228136D01*
X109657999Y-78228135D01*
X109616316Y-78236427D01*
X109616308Y-78236429D01*
X109434328Y-78311807D01*
X109434315Y-78311814D01*
X109270537Y-78421248D01*
X109270533Y-78421251D01*
X109131251Y-78560533D01*
X109131248Y-78560537D01*
X109021814Y-78724315D01*
X109021807Y-78724328D01*
X108946430Y-78906306D01*
X108946427Y-78906318D01*
X108908000Y-79099504D01*
X108908000Y-79498000D01*
X109608000Y-79498000D01*
X109608000Y-79998000D01*
X108908000Y-79998000D01*
X108908000Y-80396495D01*
X108946427Y-80589681D01*
X108946430Y-80589693D01*
X109021807Y-80771671D01*
X109021814Y-80771684D01*
X109131248Y-80935462D01*
X109131251Y-80935466D01*
X109270533Y-81074748D01*
X109270537Y-81074751D01*
X109434315Y-81184185D01*
X109434328Y-81184192D01*
X109616308Y-81259569D01*
X109658000Y-81267862D01*
X109658000Y-80464988D01*
X109667940Y-80482205D01*
X109723795Y-80538060D01*
X109792204Y-80577556D01*
X109868504Y-80598000D01*
X109947496Y-80598000D01*
X110023796Y-80577556D01*
X110092205Y-80538060D01*
X110148060Y-80482205D01*
X110158000Y-80464988D01*
X110158000Y-81267862D01*
X110199690Y-81259569D01*
X110199692Y-81259569D01*
X110381671Y-81184192D01*
X110381684Y-81184185D01*
X110545462Y-81074751D01*
X110545466Y-81074748D01*
X110684748Y-80935466D01*
X110684751Y-80935462D01*
X110794185Y-80771684D01*
X110794186Y-80771682D01*
X110798129Y-80762163D01*
X110841968Y-80707757D01*
X110908261Y-80685689D01*
X110975961Y-80702965D01*
X110981400Y-80706647D01*
X110984634Y-80708514D01*
X110984635Y-80708515D01*
X111115865Y-80784281D01*
X111262234Y-80823500D01*
X111262236Y-80823500D01*
X111413764Y-80823500D01*
X111413766Y-80823500D01*
X111560135Y-80784281D01*
X111691365Y-80708515D01*
X111691366Y-80708513D01*
X111691499Y-80708437D01*
X111759399Y-80691964D01*
X111825427Y-80714816D01*
X111868617Y-80769737D01*
X111877500Y-80815824D01*
X111877500Y-81377902D01*
X111857815Y-81444941D01*
X111841181Y-81465583D01*
X111316055Y-81990708D01*
X111280663Y-82015463D01*
X110910159Y-82187767D01*
X110897870Y-82194125D01*
X110881870Y-82201024D01*
X110878476Y-82202211D01*
X110725737Y-82298184D01*
X110598184Y-82425737D01*
X110598182Y-82425740D01*
X110541719Y-82515599D01*
X110489384Y-82561890D01*
X110420330Y-82572537D01*
X110397722Y-82567332D01*
X110310697Y-82538494D01*
X110310690Y-82538493D01*
X110207986Y-82528000D01*
X110158000Y-82528000D01*
X110158000Y-83361011D01*
X110148060Y-83343795D01*
X110092205Y-83287940D01*
X110023796Y-83248444D01*
X109947496Y-83228000D01*
X109868504Y-83228000D01*
X109792204Y-83248444D01*
X109723795Y-83287940D01*
X109667940Y-83343795D01*
X109658000Y-83361011D01*
X109658000Y-82528000D01*
X109657999Y-82527999D01*
X109608029Y-82528000D01*
X109608011Y-82528001D01*
X109505302Y-82538494D01*
X109338880Y-82593641D01*
X109338875Y-82593643D01*
X109189654Y-82685684D01*
X109065684Y-82809654D01*
X108973643Y-82958875D01*
X108973641Y-82958880D01*
X108918494Y-83125302D01*
X108918493Y-83125309D01*
X108908000Y-83228013D01*
X108908000Y-83678000D01*
X106603500Y-83678000D01*
X106603499Y-83221324D01*
X106593174Y-83120247D01*
X106538908Y-82956484D01*
X106448340Y-82809650D01*
X106409371Y-82770681D01*
X106375886Y-82709358D01*
X106380870Y-82639666D01*
X106409371Y-82595319D01*
X106427646Y-82577044D01*
X106448340Y-82556350D01*
X106538908Y-82409516D01*
X106593174Y-82245753D01*
X106603500Y-82144677D01*
X106603499Y-81471324D01*
X106593174Y-81370247D01*
X106538908Y-81206484D01*
X106538904Y-81206478D01*
X106538903Y-81206475D01*
X106457654Y-81074751D01*
X106455091Y-81070596D01*
X106436651Y-81003205D01*
X106455092Y-80940403D01*
X106527199Y-80823500D01*
X106538908Y-80804516D01*
X106593174Y-80640753D01*
X106603500Y-80539677D01*
X106603499Y-79941324D01*
X106593174Y-79840247D01*
X106538908Y-79676484D01*
X106448340Y-79529650D01*
X106334371Y-79415681D01*
X106300886Y-79354358D01*
X106305870Y-79284666D01*
X106334371Y-79240319D01*
X106448340Y-79126350D01*
X106538908Y-78979516D01*
X106593174Y-78815753D01*
X106603500Y-78714677D01*
X106603499Y-78116324D01*
X106593174Y-78015247D01*
X106538908Y-77851484D01*
X106538904Y-77851478D01*
X106538903Y-77851475D01*
X106479146Y-77754595D01*
X106460705Y-77687203D01*
X106481627Y-77620539D01*
X106504799Y-77601199D01*
X106540500Y-77565499D01*
X106540500Y-75673862D01*
X106560185Y-75606823D01*
X106576819Y-75586181D01*
X106590500Y-75572500D01*
X106590500Y-74852000D01*
X106610185Y-74784961D01*
X106662989Y-74739206D01*
X106714500Y-74728000D01*
X106966500Y-74728000D01*
X107033539Y-74747685D01*
X107079294Y-74800489D01*
X107090500Y-74852000D01*
X107090500Y-75894638D01*
X107070815Y-75961677D01*
X107054181Y-75982319D01*
X107040500Y-75996000D01*
X107040500Y-77565499D01*
X107139640Y-77565499D01*
X107139654Y-77565498D01*
X107240652Y-77555180D01*
X107404300Y-77500953D01*
X107404311Y-77500948D01*
X107551033Y-77410448D01*
X107642840Y-77318641D01*
X107704163Y-77285156D01*
X107773855Y-77290140D01*
X107829789Y-77332011D01*
X107853812Y-77393069D01*
X107858908Y-77440483D01*
X107909202Y-77575328D01*
X107909206Y-77575335D01*
X107995452Y-77690544D01*
X107995455Y-77690547D01*
X108110664Y-77776793D01*
X108110671Y-77776797D01*
X108245517Y-77827091D01*
X108245516Y-77827091D01*
X108252444Y-77827835D01*
X108305127Y-77833500D01*
X109580872Y-77833499D01*
X109640483Y-77827091D01*
X109775331Y-77776796D01*
X109890546Y-77690546D01*
X109976796Y-77575331D01*
X110027091Y-77440483D01*
X110033500Y-77380873D01*
X110033499Y-74475128D01*
X110027091Y-74415517D01*
X110026951Y-74415142D01*
X109976797Y-74280671D01*
X109976793Y-74280664D01*
X109890547Y-74165455D01*
X109890544Y-74165452D01*
X109775335Y-74079206D01*
X109775328Y-74079202D01*
X109658001Y-74035442D01*
X109602067Y-73993571D01*
X109586773Y-73966712D01*
X109563778Y-73911195D01*
X109563776Y-73911192D01*
X109563775Y-73911189D01*
X109487114Y-73796457D01*
X109487112Y-73796454D01*
X109074545Y-73383887D01*
X108959807Y-73307222D01*
X108832332Y-73254421D01*
X108832322Y-73254418D01*
X108696996Y-73227500D01*
X108696994Y-73227500D01*
X108696993Y-73227500D01*
X101096994Y-73227500D01*
X101071707Y-73227500D01*
X101004668Y-73207815D01*
X100966713Y-73169472D01*
X100907815Y-73075737D01*
X100780262Y-72948184D01*
X100627523Y-72852211D01*
X100457254Y-72792631D01*
X100457249Y-72792630D01*
X100278004Y-72772435D01*
X100277997Y-72772435D01*
X100205552Y-72780597D01*
X100194445Y-72781346D01*
X100181319Y-72781639D01*
X100153296Y-72786310D01*
X100146802Y-72787216D01*
X100136764Y-72788347D01*
X100098742Y-72792632D01*
X100093686Y-72794402D01*
X100073119Y-72799673D01*
X99616281Y-72875813D01*
X99595895Y-72877500D01*
X98219519Y-72877500D01*
X98152480Y-72857815D01*
X98131838Y-72841181D01*
X95514819Y-70224162D01*
X95481334Y-70162839D01*
X95478500Y-70136481D01*
X95478500Y-69221469D01*
X95495768Y-69158348D01*
X95499906Y-69151351D01*
X95529744Y-69100898D01*
X95575598Y-68943069D01*
X95578500Y-68906194D01*
X95578500Y-68569519D01*
X95598185Y-68502480D01*
X95614819Y-68481838D01*
X96372112Y-67724545D01*
X96372114Y-67724543D01*
X96448775Y-67609811D01*
X96501580Y-67482329D01*
X96515244Y-67413635D01*
X96525351Y-67362826D01*
X96528500Y-67346995D01*
X96528500Y-62869518D01*
X96548185Y-62802479D01*
X96564819Y-62781837D01*
X97459813Y-61886843D01*
X98417272Y-60929383D01*
X98478593Y-60895900D01*
X98533897Y-60896491D01*
X98770576Y-60953313D01*
X99028000Y-60973573D01*
X99285424Y-60953313D01*
X99536510Y-60893033D01*
X99775075Y-60794216D01*
X99995244Y-60659297D01*
X100191596Y-60491596D01*
X100359297Y-60295244D01*
X100494216Y-60075075D01*
X100593033Y-59836510D01*
X100653313Y-59585424D01*
X100673573Y-59328000D01*
X117872929Y-59328000D01*
X117893183Y-59585349D01*
X117953444Y-59836355D01*
X117953444Y-59836356D01*
X118052228Y-60074843D01*
X118052230Y-60074846D01*
X118187111Y-60294951D01*
X118191895Y-60300551D01*
X118832768Y-59659678D01*
X118844497Y-59687995D01*
X118927670Y-59812472D01*
X119033528Y-59918330D01*
X119158005Y-60001503D01*
X119186320Y-60013231D01*
X118545447Y-60654103D01*
X118545447Y-60654104D01*
X118551046Y-60658885D01*
X118551052Y-60658890D01*
X118771153Y-60793769D01*
X118771156Y-60793771D01*
X119009644Y-60892555D01*
X119260650Y-60952816D01*
X119518000Y-60973070D01*
X119775349Y-60952816D01*
X120026355Y-60892555D01*
X120026356Y-60892555D01*
X120264843Y-60793771D01*
X120264846Y-60793769D01*
X120484942Y-60658894D01*
X120490550Y-60654103D01*
X119849678Y-60013231D01*
X119877995Y-60001503D01*
X120002472Y-59918330D01*
X120108330Y-59812472D01*
X120191503Y-59687995D01*
X120203231Y-59659678D01*
X120844103Y-60300550D01*
X120848894Y-60294942D01*
X120983769Y-60074846D01*
X120983771Y-60074843D01*
X121082555Y-59836356D01*
X121082555Y-59836355D01*
X121142816Y-59585349D01*
X121163070Y-59328000D01*
X121142816Y-59070650D01*
X121082555Y-58819644D01*
X121082555Y-58819643D01*
X120983771Y-58581156D01*
X120983769Y-58581153D01*
X120848890Y-58361052D01*
X120848885Y-58361046D01*
X120844103Y-58355447D01*
X120203231Y-58996319D01*
X120191503Y-58968005D01*
X120108330Y-58843528D01*
X120002472Y-58737670D01*
X119877995Y-58654497D01*
X119849679Y-58642768D01*
X120490551Y-58001895D01*
X120490551Y-58001894D01*
X120484951Y-57997111D01*
X120264846Y-57862230D01*
X120264843Y-57862228D01*
X120026355Y-57763444D01*
X119775349Y-57703183D01*
X119518000Y-57682929D01*
X119260650Y-57703183D01*
X119009644Y-57763444D01*
X119009643Y-57763444D01*
X118771156Y-57862228D01*
X118771153Y-57862230D01*
X118551057Y-57997105D01*
X118551052Y-57997109D01*
X118545447Y-58001894D01*
X119186321Y-58642768D01*
X119158005Y-58654497D01*
X119033528Y-58737670D01*
X118927670Y-58843528D01*
X118844497Y-58968005D01*
X118832768Y-58996321D01*
X118191894Y-58355447D01*
X118187109Y-58361052D01*
X118187105Y-58361057D01*
X118052230Y-58581153D01*
X118052228Y-58581156D01*
X117953444Y-58819643D01*
X117953444Y-58819644D01*
X117893183Y-59070650D01*
X117872929Y-59328000D01*
X100673573Y-59328000D01*
X100653313Y-59070576D01*
X100593033Y-58819490D01*
X100524691Y-58654497D01*
X100494218Y-58580929D01*
X100486295Y-58568000D01*
X100359297Y-58360756D01*
X100191596Y-58164404D01*
X99995244Y-57996703D01*
X99775075Y-57861784D01*
X99775074Y-57861783D01*
X99775070Y-57861781D01*
X99573703Y-57778373D01*
X99536510Y-57762967D01*
X99536506Y-57762966D01*
X99536500Y-57762964D01*
X99285427Y-57702687D01*
X99028000Y-57682427D01*
X98770572Y-57702687D01*
X98519499Y-57762964D01*
X98519487Y-57762968D01*
X98280929Y-57861781D01*
X98060755Y-57996703D01*
X97864404Y-58164404D01*
X97696703Y-58360755D01*
X97561781Y-58580929D01*
X97462968Y-58819487D01*
X97462964Y-58819499D01*
X97402687Y-59070572D01*
X97382427Y-59328000D01*
X97402687Y-59585427D01*
X97459507Y-59822099D01*
X97456016Y-59891882D01*
X97426614Y-59938727D01*
X95690180Y-61675162D01*
X95628857Y-61708647D01*
X95559165Y-61703663D01*
X95503232Y-61661791D01*
X95478815Y-61596327D01*
X95478499Y-61587481D01*
X95478499Y-61530129D01*
X95478498Y-61530123D01*
X95472091Y-61470516D01*
X95421797Y-61335671D01*
X95421793Y-61335664D01*
X95335547Y-61220455D01*
X95335544Y-61220452D01*
X95220335Y-61134206D01*
X95220328Y-61134202D01*
X95085483Y-61083908D01*
X95039243Y-61078937D01*
X94974693Y-61052199D01*
X94934845Y-60994806D01*
X94928500Y-60955648D01*
X94928500Y-53265986D01*
X94901581Y-53130659D01*
X94901580Y-53130658D01*
X94901580Y-53130654D01*
X94890005Y-53102709D01*
X94848778Y-53003177D01*
X94848776Y-53003173D01*
X94848775Y-53003171D01*
X94804603Y-52937063D01*
X94804603Y-52937062D01*
X94772115Y-52888440D01*
X94772109Y-52888433D01*
X94260599Y-52376923D01*
X94922435Y-52376923D01*
X94942630Y-52556169D01*
X94942631Y-52556174D01*
X95002211Y-52726443D01*
X95098184Y-52879182D01*
X95225738Y-53006736D01*
X95316080Y-53063502D01*
X95350733Y-53085276D01*
X95378478Y-53102709D01*
X95458355Y-53130659D01*
X95548745Y-53162288D01*
X95548750Y-53162289D01*
X95727996Y-53182485D01*
X95728000Y-53182485D01*
X95728004Y-53182485D01*
X95907249Y-53162289D01*
X95907251Y-53162288D01*
X95907255Y-53162288D01*
X95907258Y-53162286D01*
X95907262Y-53162286D01*
X96077520Y-53102710D01*
X96077524Y-53102708D01*
X96105267Y-53085276D01*
X96121676Y-53074966D01*
X96187647Y-53055960D01*
X96804130Y-53055960D01*
X96871169Y-53075645D01*
X96881445Y-53083015D01*
X96884278Y-53085274D01*
X96884280Y-53085276D01*
X96956491Y-53130649D01*
X97006840Y-53162286D01*
X97037020Y-53181249D01*
X97207287Y-53240828D01*
X97207292Y-53240829D01*
X97386538Y-53261025D01*
X97386542Y-53261025D01*
X97386546Y-53261025D01*
X97565791Y-53240829D01*
X97565794Y-53240828D01*
X97565797Y-53240828D01*
X97736064Y-53181249D01*
X97888804Y-53085276D01*
X98016358Y-52957722D01*
X98112331Y-52804982D01*
X98171910Y-52634715D01*
X98171911Y-52634709D01*
X98192107Y-52455463D01*
X98192107Y-52455456D01*
X98171911Y-52276210D01*
X98171910Y-52276205D01*
X98112330Y-52105936D01*
X98026792Y-51969804D01*
X98016358Y-51953198D01*
X97888804Y-51825644D01*
X97877659Y-51818641D01*
X97736065Y-51729671D01*
X97565796Y-51670091D01*
X97565791Y-51670090D01*
X97386546Y-51649895D01*
X97386538Y-51649895D01*
X97207292Y-51670090D01*
X97207287Y-51670091D01*
X97037018Y-51729671D01*
X96884278Y-51825645D01*
X96881445Y-51827905D01*
X96879266Y-51828794D01*
X96878384Y-51829349D01*
X96878286Y-51829194D01*
X96816759Y-51854315D01*
X96804130Y-51854960D01*
X96389480Y-51854960D01*
X96322441Y-51835275D01*
X96301799Y-51818641D01*
X96230262Y-51747104D01*
X96077523Y-51651131D01*
X95907254Y-51591551D01*
X95907249Y-51591550D01*
X95728004Y-51571355D01*
X95727996Y-51571355D01*
X95548750Y-51591550D01*
X95548745Y-51591551D01*
X95378476Y-51651131D01*
X95225737Y-51747104D01*
X95098184Y-51874657D01*
X95002211Y-52027396D01*
X94942631Y-52197665D01*
X94942630Y-52197670D01*
X94922435Y-52376916D01*
X94922435Y-52376923D01*
X94260599Y-52376923D01*
X92114710Y-50231035D01*
X92081225Y-50169712D01*
X92086209Y-50100020D01*
X92089091Y-50092966D01*
X92286081Y-49650521D01*
X92304473Y-49593457D01*
X92313374Y-49449810D01*
X92281442Y-49309475D01*
X92277828Y-49303003D01*
X96667435Y-49303003D01*
X96687630Y-49482249D01*
X96687631Y-49482254D01*
X96747211Y-49652523D01*
X96794637Y-49728000D01*
X96843184Y-49805262D01*
X96970738Y-49932816D01*
X97007180Y-49955714D01*
X97090158Y-50007853D01*
X97123478Y-50028789D01*
X97293745Y-50088368D01*
X97380668Y-50098161D01*
X97445079Y-50125226D01*
X97454464Y-50133700D01*
X97529284Y-50208520D01*
X97529286Y-50208521D01*
X97529290Y-50208524D01*
X97568281Y-50231035D01*
X97666216Y-50287577D01*
X97818943Y-50328501D01*
X97818945Y-50328501D01*
X97984654Y-50328501D01*
X97984670Y-50328500D01*
X99245588Y-50328500D01*
X99312627Y-50348185D01*
X99322903Y-50355555D01*
X99325736Y-50357814D01*
X99325738Y-50357816D01*
X99478478Y-50453789D01*
X99648745Y-50513368D01*
X99648750Y-50513369D01*
X99827996Y-50533565D01*
X99828000Y-50533565D01*
X99828004Y-50533565D01*
X100007249Y-50513369D01*
X100007252Y-50513368D01*
X100007255Y-50513368D01*
X100177522Y-50453789D01*
X100330262Y-50357816D01*
X100457816Y-50230262D01*
X100553789Y-50077522D01*
X100613368Y-49907255D01*
X100614282Y-49899142D01*
X100633565Y-49728003D01*
X100633565Y-49727996D01*
X100613369Y-49548750D01*
X100613368Y-49548745D01*
X100590100Y-49482249D01*
X100553789Y-49378478D01*
X100457816Y-49225738D01*
X100330262Y-49098184D01*
X100261553Y-49055011D01*
X100177523Y-49002211D01*
X100007254Y-48942631D01*
X100007249Y-48942630D01*
X99828004Y-48922435D01*
X99827996Y-48922435D01*
X99648750Y-48942630D01*
X99648745Y-48942631D01*
X99478476Y-49002211D01*
X99325736Y-49098185D01*
X99322903Y-49100445D01*
X99320724Y-49101334D01*
X99319842Y-49101889D01*
X99319744Y-49101734D01*
X99258217Y-49126855D01*
X99245588Y-49127500D01*
X98347665Y-49127500D01*
X98280626Y-49107815D01*
X98234871Y-49055011D01*
X98230623Y-49044454D01*
X98198789Y-48953478D01*
X98179283Y-48922435D01*
X98102816Y-48800738D01*
X97975262Y-48673184D01*
X97940122Y-48651104D01*
X97822523Y-48577211D01*
X97652254Y-48517631D01*
X97652249Y-48517630D01*
X97473004Y-48497435D01*
X97472996Y-48497435D01*
X97293750Y-48517630D01*
X97293745Y-48517631D01*
X97123476Y-48577211D01*
X96970737Y-48673184D01*
X96843184Y-48800737D01*
X96747211Y-48953476D01*
X96687631Y-49123745D01*
X96687630Y-49123750D01*
X96667435Y-49302996D01*
X96667435Y-49303003D01*
X92277828Y-49303003D01*
X92211269Y-49183820D01*
X92108536Y-49083025D01*
X92108533Y-49083022D01*
X92056695Y-49052929D01*
X92056685Y-49052924D01*
X89685358Y-47997142D01*
X89685337Y-47997134D01*
X89628293Y-47978749D01*
X89484645Y-47969848D01*
X89344310Y-48001779D01*
X89344309Y-48001779D01*
X89344307Y-48001780D01*
X89218657Y-48071949D01*
X89218655Y-48071950D01*
X89117862Y-48174683D01*
X89117858Y-48174688D01*
X89087762Y-48226529D01*
X89087758Y-48226536D01*
X88560734Y-49410253D01*
X88560726Y-49410274D01*
X88542341Y-49467317D01*
X88542341Y-49467319D01*
X88542341Y-49467321D01*
X88533440Y-49610968D01*
X88195868Y-49610968D01*
X88210179Y-49589550D01*
X88266753Y-49452968D01*
X88281571Y-49378476D01*
X88295595Y-49307975D01*
X88295595Y-49160134D01*
X88266754Y-49015147D01*
X88266753Y-49015146D01*
X88266753Y-49015142D01*
X88241210Y-48953476D01*
X88210182Y-48878566D01*
X88210175Y-48878553D01*
X88128046Y-48755639D01*
X88128043Y-48755635D01*
X88023514Y-48651106D01*
X88023510Y-48651103D01*
X87900596Y-48568974D01*
X87900583Y-48568967D01*
X87764012Y-48512398D01*
X87764002Y-48512395D01*
X87619015Y-48483555D01*
X87619013Y-48483555D01*
X87471177Y-48483555D01*
X87471175Y-48483555D01*
X87326187Y-48512395D01*
X87326177Y-48512398D01*
X87189606Y-48568967D01*
X87189593Y-48568974D01*
X87066679Y-48651103D01*
X87066675Y-48651106D01*
X86962146Y-48755635D01*
X86962143Y-48755639D01*
X86880014Y-48878553D01*
X86880007Y-48878566D01*
X86823438Y-49015137D01*
X86823435Y-49015147D01*
X86794595Y-49160134D01*
X86794595Y-49160137D01*
X86794595Y-49307973D01*
X86794595Y-49307975D01*
X86794594Y-49307975D01*
X85844710Y-49307975D01*
X85978660Y-48831359D01*
X85979942Y-48827096D01*
X86307819Y-47805308D01*
X86309248Y-47801120D01*
X86674234Y-46791962D01*
X86675821Y-46787811D01*
X87077430Y-45792631D01*
X87079154Y-45788576D01*
X87516817Y-44808782D01*
X87518706Y-44804752D01*
X87991855Y-43841606D01*
X87993918Y-43837594D01*
X88392560Y-43095865D01*
X89560404Y-43095865D01*
X89589245Y-43240852D01*
X89589248Y-43240862D01*
X89645817Y-43377433D01*
X89645824Y-43377446D01*
X89727953Y-43500360D01*
X89727956Y-43500364D01*
X89832485Y-43604893D01*
X89832489Y-43604896D01*
X89955403Y-43687025D01*
X89955416Y-43687032D01*
X90091987Y-43743601D01*
X90091992Y-43743603D01*
X90091996Y-43743603D01*
X90091997Y-43743604D01*
X90236984Y-43772445D01*
X90236987Y-43772445D01*
X90384825Y-43772445D01*
X90482367Y-43753041D01*
X90529818Y-43743603D01*
X90666400Y-43687029D01*
X90789321Y-43604896D01*
X90893856Y-43500361D01*
X90975989Y-43377440D01*
X91032563Y-43240858D01*
X91047300Y-43166773D01*
X91061405Y-43095865D01*
X91061405Y-42948024D01*
X91032564Y-42803037D01*
X91032563Y-42803036D01*
X91032563Y-42803032D01*
X91014441Y-42759282D01*
X90975992Y-42666456D01*
X90975985Y-42666443D01*
X90893856Y-42543529D01*
X90893853Y-42543525D01*
X90789324Y-42438996D01*
X90789320Y-42438993D01*
X90666406Y-42356864D01*
X90666393Y-42356857D01*
X90529822Y-42300288D01*
X90529812Y-42300285D01*
X90384825Y-42271445D01*
X90384823Y-42271445D01*
X90236987Y-42271445D01*
X90236985Y-42271445D01*
X90091997Y-42300285D01*
X90091987Y-42300288D01*
X89955416Y-42356857D01*
X89955403Y-42356864D01*
X89832489Y-42438993D01*
X89832485Y-42438996D01*
X89727956Y-42543525D01*
X89727953Y-42543529D01*
X89645824Y-42666443D01*
X89645817Y-42666456D01*
X89589248Y-42803027D01*
X89589245Y-42803037D01*
X89560405Y-42948024D01*
X89560405Y-42948027D01*
X89560405Y-43095863D01*
X89560405Y-43095865D01*
X89560404Y-43095865D01*
X88392560Y-43095865D01*
X88501916Y-42892393D01*
X88504124Y-42888460D01*
X88517508Y-42865601D01*
X89046316Y-41962423D01*
X89048629Y-41958634D01*
X89624282Y-41053013D01*
X89626734Y-41049306D01*
X90235104Y-40165276D01*
X90237706Y-40161640D01*
X90877907Y-39300486D01*
X90880662Y-39296918D01*
X90895404Y-39278531D01*
X91551885Y-38459722D01*
X91554745Y-38456285D01*
X92256153Y-37644095D01*
X92259113Y-37640793D01*
X92989691Y-36854788D01*
X92992781Y-36851583D01*
X93751583Y-36092781D01*
X93754788Y-36089691D01*
X94540793Y-35359113D01*
X94544095Y-35356153D01*
X95356285Y-34654745D01*
X95359722Y-34651885D01*
X96196934Y-33980649D01*
X96200486Y-33977907D01*
X97037175Y-33355894D01*
X98205284Y-33355894D01*
X98231598Y-33497244D01*
X98256778Y-33551579D01*
X98256778Y-33551580D01*
X98538930Y-34021160D01*
X99396097Y-33506124D01*
X98881060Y-32648957D01*
X98411477Y-32931113D01*
X98363737Y-32967266D01*
X98363733Y-32967270D01*
X98274141Y-33079718D01*
X98219861Y-33212850D01*
X98219859Y-33212858D01*
X98205284Y-33355891D01*
X98205284Y-33355894D01*
X97037175Y-33355894D01*
X97061640Y-33337706D01*
X97065276Y-33335104D01*
X97949306Y-32726734D01*
X97953013Y-32724282D01*
X98858634Y-32148629D01*
X98862423Y-32146316D01*
X99788476Y-31604114D01*
X99792393Y-31601916D01*
X100737610Y-31093909D01*
X100741606Y-31091855D01*
X101704752Y-30618706D01*
X101708782Y-30616817D01*
X102688576Y-30179154D01*
X102692631Y-30177430D01*
X103687811Y-29775821D01*
X103691962Y-29774234D01*
X104701120Y-29409248D01*
X104705308Y-29407819D01*
X105727096Y-29079942D01*
X105731359Y-29078660D01*
X106764462Y-28788313D01*
X106768735Y-28787196D01*
X107173635Y-28689206D01*
X107205564Y-28681479D01*
X107234731Y-28678000D01*
X108704000Y-28678000D01*
X108771039Y-28697685D01*
G37*
%TD.AperFunction*%
%TA.AperFunction,Conductor*%
G36*
X106932343Y-41325403D02*
G01*
X106988277Y-41367275D01*
X106992112Y-41372694D01*
X107050153Y-41459558D01*
X107071031Y-41526235D01*
X107052547Y-41593616D01*
X107050154Y-41597339D01*
X106980432Y-41701685D01*
X106980428Y-41701693D01*
X106912587Y-41865476D01*
X106912584Y-41865483D01*
X106910096Y-41878000D01*
X108704000Y-41878000D01*
X108771039Y-41897685D01*
X108816794Y-41950489D01*
X108828000Y-42002000D01*
X108828000Y-42254000D01*
X108808315Y-42321039D01*
X108755511Y-42366794D01*
X108704000Y-42378000D01*
X106910096Y-42378000D01*
X106912584Y-42390516D01*
X106912587Y-42390523D01*
X106980428Y-42554306D01*
X106980433Y-42554316D01*
X107078923Y-42701716D01*
X107078926Y-42701720D01*
X107204279Y-42827073D01*
X107204283Y-42827076D01*
X107351683Y-42925566D01*
X107351696Y-42925573D01*
X107504676Y-42988939D01*
X107559080Y-43032780D01*
X107581145Y-43099074D01*
X107563866Y-43166773D01*
X107512729Y-43214384D01*
X107457224Y-43227500D01*
X105227097Y-43227500D01*
X105160058Y-43207815D01*
X105114303Y-43155011D01*
X105104359Y-43085853D01*
X105133384Y-43022297D01*
X105139416Y-43015819D01*
X105545363Y-42609872D01*
X106801331Y-41353902D01*
X106862652Y-41320419D01*
X106932343Y-41325403D01*
G37*
%TD.AperFunction*%
%TA.AperFunction,Conductor*%
G36*
X111438768Y-32838449D02*
G01*
X111445246Y-32844481D01*
X112693139Y-34092374D01*
X112693149Y-34092385D01*
X112697479Y-34096715D01*
X112697480Y-34096716D01*
X112809284Y-34208520D01*
X112884942Y-34252200D01*
X112896095Y-34258639D01*
X112896097Y-34258641D01*
X112934151Y-34280611D01*
X112946215Y-34287577D01*
X113098943Y-34328501D01*
X113098946Y-34328501D01*
X113264653Y-34328501D01*
X113264669Y-34328500D01*
X116944937Y-34328500D01*
X117011976Y-34348185D01*
X117057731Y-34400989D01*
X117067675Y-34470147D01*
X117061978Y-34493455D01*
X117042633Y-34548737D01*
X117042630Y-34548750D01*
X117022435Y-34727996D01*
X117022435Y-34728003D01*
X117042630Y-34907249D01*
X117042631Y-34907254D01*
X117102211Y-35077523D01*
X117198184Y-35230262D01*
X117208241Y-35240319D01*
X117241726Y-35301642D01*
X117236742Y-35371334D01*
X117208241Y-35415681D01*
X117198184Y-35425737D01*
X117102211Y-35578476D01*
X117042631Y-35748745D01*
X117042630Y-35748750D01*
X117022435Y-35927996D01*
X117022435Y-35928003D01*
X117042630Y-36107249D01*
X117042631Y-36107254D01*
X117102211Y-36277523D01*
X117198184Y-36430262D01*
X117208241Y-36440319D01*
X117241726Y-36501642D01*
X117236742Y-36571334D01*
X117208241Y-36615681D01*
X117198184Y-36625737D01*
X117102211Y-36778476D01*
X117042631Y-36948745D01*
X117042630Y-36948750D01*
X117022435Y-37127996D01*
X117022435Y-37128003D01*
X117042630Y-37307249D01*
X117042631Y-37307254D01*
X117102211Y-37477523D01*
X117198184Y-37630262D01*
X117208241Y-37640319D01*
X117241726Y-37701642D01*
X117236742Y-37771334D01*
X117208241Y-37815681D01*
X117198184Y-37825737D01*
X117102211Y-37978476D01*
X117042631Y-38148745D01*
X117042630Y-38148750D01*
X117022435Y-38327996D01*
X117022435Y-38328003D01*
X117042630Y-38507249D01*
X117042631Y-38507254D01*
X117102211Y-38677523D01*
X117198184Y-38830262D01*
X117208241Y-38840319D01*
X117241726Y-38901642D01*
X117236742Y-38971334D01*
X117208241Y-39015681D01*
X117198184Y-39025737D01*
X117102211Y-39178476D01*
X117042631Y-39348745D01*
X117042630Y-39348750D01*
X117022435Y-39527996D01*
X117022435Y-39528003D01*
X117029377Y-39589617D01*
X117017322Y-39658439D01*
X116969973Y-39709818D01*
X116906157Y-39727500D01*
X115210412Y-39727500D01*
X115143373Y-39707815D01*
X115133097Y-39700445D01*
X115130263Y-39698185D01*
X115130262Y-39698184D01*
X115036563Y-39639309D01*
X114977523Y-39602211D01*
X114807254Y-39542631D01*
X114807249Y-39542630D01*
X114628004Y-39522435D01*
X114627996Y-39522435D01*
X114448750Y-39542630D01*
X114448745Y-39542631D01*
X114278476Y-39602211D01*
X114125737Y-39698184D01*
X113998184Y-39825737D01*
X113902211Y-39978476D01*
X113842631Y-40148745D01*
X113842630Y-40148750D01*
X113822435Y-40327996D01*
X113822435Y-40328003D01*
X113843411Y-40514175D01*
X113842016Y-40514332D01*
X113838209Y-40576369D01*
X113796905Y-40632723D01*
X113790486Y-40637314D01*
X113696891Y-40699853D01*
X113630214Y-40720731D01*
X113562834Y-40702247D01*
X113559109Y-40699853D01*
X113454553Y-40629990D01*
X113454540Y-40629983D01*
X113290667Y-40562106D01*
X113290658Y-40562103D01*
X113116694Y-40527500D01*
X113116691Y-40527500D01*
X112939309Y-40527500D01*
X112939306Y-40527500D01*
X112765341Y-40562103D01*
X112765332Y-40562106D01*
X112601459Y-40629983D01*
X112601446Y-40629990D01*
X112496891Y-40699853D01*
X112430214Y-40720731D01*
X112362834Y-40702247D01*
X112359109Y-40699853D01*
X112254553Y-40629990D01*
X112254540Y-40629983D01*
X112090667Y-40562106D01*
X112090658Y-40562103D01*
X111916694Y-40527500D01*
X111916691Y-40527500D01*
X111739309Y-40527500D01*
X111739306Y-40527500D01*
X111565341Y-40562103D01*
X111565332Y-40562106D01*
X111401459Y-40629983D01*
X111401446Y-40629990D01*
X111296891Y-40699853D01*
X111230214Y-40720731D01*
X111162834Y-40702247D01*
X111159109Y-40699853D01*
X111054553Y-40629990D01*
X111054540Y-40629983D01*
X110890667Y-40562106D01*
X110890658Y-40562103D01*
X110716694Y-40527500D01*
X110716691Y-40527500D01*
X110539309Y-40527500D01*
X110539306Y-40527500D01*
X110365341Y-40562103D01*
X110365333Y-40562106D01*
X110339740Y-40572707D01*
X110270271Y-40580174D01*
X110207792Y-40548898D01*
X110177728Y-40505594D01*
X110176013Y-40501453D01*
X110106145Y-40396888D01*
X110085268Y-40330215D01*
X110103752Y-40262834D01*
X110106118Y-40259150D01*
X110176013Y-40154547D01*
X110243894Y-39990666D01*
X110246319Y-39978478D01*
X110271757Y-39850591D01*
X110278500Y-39816691D01*
X110278500Y-39639309D01*
X110278500Y-39639306D01*
X110278499Y-39639304D01*
X110243896Y-39465341D01*
X110243893Y-39465332D01*
X110240779Y-39457815D01*
X110215082Y-39395775D01*
X110176016Y-39301459D01*
X110176012Y-39301452D01*
X110175378Y-39300503D01*
X110106145Y-39196888D01*
X110085268Y-39130215D01*
X110103752Y-39062834D01*
X110106118Y-39059150D01*
X110176013Y-38954547D01*
X110243894Y-38790666D01*
X110258796Y-38715752D01*
X110278499Y-38616695D01*
X110278500Y-38616693D01*
X110278500Y-38439306D01*
X110278499Y-38439304D01*
X110243896Y-38265341D01*
X110243893Y-38265332D01*
X110243661Y-38264773D01*
X110216246Y-38198584D01*
X110176016Y-38101459D01*
X110176012Y-38101452D01*
X110106145Y-37996888D01*
X110085268Y-37930215D01*
X110103752Y-37862834D01*
X110106118Y-37859150D01*
X110176013Y-37754547D01*
X110243894Y-37590666D01*
X110263511Y-37492048D01*
X110278499Y-37416695D01*
X110278500Y-37416693D01*
X110278500Y-37239306D01*
X110278499Y-37239304D01*
X110243896Y-37065341D01*
X110243893Y-37065332D01*
X110176016Y-36901459D01*
X110176012Y-36901452D01*
X110160935Y-36878888D01*
X110106145Y-36796888D01*
X110085268Y-36730215D01*
X110103752Y-36662834D01*
X110106118Y-36659150D01*
X110176013Y-36554547D01*
X110180622Y-36543421D01*
X110193401Y-36512568D01*
X110243894Y-36390666D01*
X110244883Y-36385697D01*
X110268748Y-36265715D01*
X110278500Y-36216691D01*
X110278500Y-36039309D01*
X110278500Y-36039306D01*
X110278499Y-36039304D01*
X110243896Y-35865341D01*
X110243893Y-35865332D01*
X110176016Y-35701459D01*
X110176012Y-35701452D01*
X110106145Y-35596888D01*
X110085268Y-35530215D01*
X110103752Y-35462834D01*
X110106118Y-35459150D01*
X110176013Y-35354547D01*
X110176393Y-35353631D01*
X110187009Y-35328000D01*
X110243894Y-35190666D01*
X110250137Y-35159284D01*
X110278499Y-35016695D01*
X110278500Y-35016693D01*
X110278500Y-34839306D01*
X110278499Y-34839304D01*
X110243896Y-34665341D01*
X110243893Y-34665332D01*
X110176016Y-34501459D01*
X110176012Y-34501452D01*
X110176008Y-34501446D01*
X110106145Y-34396888D01*
X110085268Y-34330215D01*
X110103752Y-34262834D01*
X110106118Y-34259150D01*
X110176013Y-34154547D01*
X110243894Y-33990666D01*
X110247915Y-33970455D01*
X110275713Y-33830702D01*
X110308098Y-33768791D01*
X110368813Y-33734217D01*
X110411212Y-33731673D01*
X110428000Y-33733565D01*
X110540752Y-33720860D01*
X110607249Y-33713369D01*
X110607252Y-33713368D01*
X110607255Y-33713368D01*
X110777522Y-33653789D01*
X110930262Y-33557816D01*
X111057816Y-33430262D01*
X111153789Y-33277522D01*
X111213368Y-33107255D01*
X111214035Y-33101334D01*
X111234345Y-32921081D01*
X111236739Y-32921350D01*
X111253250Y-32865123D01*
X111306054Y-32819368D01*
X111375212Y-32809424D01*
X111438768Y-32838449D01*
G37*
%TD.AperFunction*%
%TA.AperFunction,Conductor*%
G36*
X121250436Y-28681479D02*
G01*
X121335445Y-28702052D01*
X121687251Y-28787192D01*
X121691551Y-28788317D01*
X122724625Y-29078655D01*
X122728918Y-29079947D01*
X123750674Y-29407814D01*
X123754895Y-29409254D01*
X124000354Y-29498029D01*
X124028841Y-29508333D01*
X124085189Y-29549646D01*
X124110257Y-29614864D01*
X124099947Y-29675376D01*
X123682790Y-30612326D01*
X123657191Y-30649572D01*
X122259286Y-32047478D01*
X122147481Y-32159282D01*
X122147479Y-32159285D01*
X122122420Y-32202689D01*
X122100756Y-32240214D01*
X122097361Y-32246094D01*
X122097359Y-32246096D01*
X122068425Y-32296209D01*
X122068424Y-32296210D01*
X122068423Y-32296215D01*
X122027499Y-32448943D01*
X122027499Y-32448945D01*
X122027499Y-32617046D01*
X122027500Y-32617059D01*
X122027500Y-33427901D01*
X122007815Y-33494940D01*
X121991181Y-33515582D01*
X121789794Y-33716969D01*
X121728471Y-33750454D01*
X121658779Y-33745470D01*
X121602846Y-33703598D01*
X121580165Y-33645188D01*
X121579689Y-33645283D01*
X121579149Y-33642570D01*
X121578710Y-33641439D01*
X121578500Y-33639314D01*
X121578500Y-33639309D01*
X121566684Y-33579905D01*
X121543896Y-33465341D01*
X121543893Y-33465332D01*
X121476016Y-33301459D01*
X121476012Y-33301452D01*
X121460023Y-33277523D01*
X121406145Y-33196888D01*
X121385268Y-33130215D01*
X121403752Y-33062834D01*
X121406118Y-33059150D01*
X121476013Y-32954547D01*
X121543894Y-32790666D01*
X121545346Y-32783369D01*
X121578499Y-32616695D01*
X121578500Y-32616693D01*
X121578500Y-32439306D01*
X121578499Y-32439304D01*
X121543896Y-32265341D01*
X121543893Y-32265332D01*
X121476016Y-32101459D01*
X121476012Y-32101452D01*
X121473632Y-32097890D01*
X121406145Y-31996888D01*
X121385268Y-31930215D01*
X121403752Y-31862834D01*
X121406118Y-31859150D01*
X121476013Y-31754547D01*
X121482027Y-31740029D01*
X121535056Y-31612002D01*
X121543894Y-31590666D01*
X121560401Y-31507683D01*
X121578499Y-31416695D01*
X121578500Y-31416693D01*
X121578500Y-31239306D01*
X121578499Y-31239304D01*
X121543896Y-31065341D01*
X121543893Y-31065332D01*
X121476016Y-30901459D01*
X121476012Y-30901452D01*
X121470253Y-30892833D01*
X121406145Y-30796888D01*
X121385268Y-30730215D01*
X121403752Y-30662834D01*
X121406118Y-30659150D01*
X121476013Y-30554547D01*
X121543894Y-30390666D01*
X121552804Y-30345876D01*
X121578499Y-30216695D01*
X121578500Y-30216693D01*
X121578500Y-30039306D01*
X121578499Y-30039304D01*
X121543896Y-29865341D01*
X121543893Y-29865332D01*
X121476016Y-29701459D01*
X121476014Y-29701455D01*
X121476013Y-29701453D01*
X121457582Y-29673869D01*
X121405846Y-29596441D01*
X121384968Y-29529764D01*
X121403452Y-29462384D01*
X121405846Y-29458659D01*
X121475566Y-29354315D01*
X121475571Y-29354306D01*
X121543412Y-29190523D01*
X121543415Y-29190516D01*
X121545904Y-29178000D01*
X119752000Y-29178000D01*
X119684961Y-29158315D01*
X119639206Y-29105511D01*
X119628000Y-29054000D01*
X119628000Y-28802000D01*
X119647685Y-28734961D01*
X119700489Y-28689206D01*
X119752000Y-28678000D01*
X121221269Y-28678000D01*
X121250436Y-28681479D01*
G37*
%TD.AperFunction*%
%TD*%
%TA.AperFunction,Conductor*%
%TO.N,+BATT*%
G36*
X100273145Y-73282282D02*
G01*
X100277886Y-73289880D01*
X100278045Y-73291764D01*
X100279000Y-73578000D01*
X100279000Y-73578078D01*
X100278045Y-73864235D01*
X100274590Y-73872497D01*
X100266306Y-73875896D01*
X100264422Y-73875737D01*
X99687777Y-73779629D01*
X99680179Y-73774888D01*
X99678000Y-73768088D01*
X99678000Y-73387911D01*
X99681427Y-73379638D01*
X99687775Y-73376370D01*
X100264424Y-73280262D01*
X100273145Y-73282282D01*
G37*
%TD.AperFunction*%
%TD*%
%TA.AperFunction,Conductor*%
%TO.N,+BATT*%
G36*
X101714235Y-74727954D02*
G01*
X101722497Y-74731408D01*
X101725896Y-74739693D01*
X101725737Y-74741577D01*
X101629630Y-75318223D01*
X101624889Y-75325821D01*
X101618089Y-75328000D01*
X101237911Y-75328000D01*
X101229638Y-75324573D01*
X101226370Y-75318223D01*
X101130262Y-74741574D01*
X101132282Y-74732854D01*
X101139880Y-74728113D01*
X101141762Y-74727954D01*
X101428000Y-74727000D01*
X101714235Y-74727954D01*
G37*
%TD.AperFunction*%
%TD*%
%TA.AperFunction,Conductor*%
%TO.N,/SWO*%
G36*
X114655856Y-77834102D02*
G01*
X114856859Y-78036052D01*
X114860266Y-78044334D01*
X114857343Y-78052042D01*
X114581494Y-78365029D01*
X114573453Y-78368970D01*
X114572717Y-78368993D01*
X114389157Y-78368993D01*
X114380884Y-78365566D01*
X114377470Y-78357849D01*
X114362933Y-78052042D01*
X114353038Y-77843901D01*
X114356068Y-77835476D01*
X114364169Y-77831660D01*
X114364674Y-77831647D01*
X114647572Y-77830704D01*
X114655856Y-77834102D01*
G37*
%TD.AperFunction*%
%TD*%
%TA.AperFunction,Conductor*%
%TO.N,/SWDIO*%
G36*
X114115239Y-77827957D02*
G01*
X114123500Y-77831411D01*
X114126899Y-77839696D01*
X114126852Y-77840709D01*
X114078962Y-78370999D01*
X114074805Y-78378931D01*
X114067309Y-78381647D01*
X113883769Y-78381647D01*
X113875496Y-78378220D01*
X113874488Y-78377071D01*
X113622102Y-78048253D01*
X113619783Y-78039604D01*
X113623089Y-78032876D01*
X113824555Y-77830461D01*
X113832817Y-77827016D01*
X114115239Y-77827957D01*
G37*
%TD.AperFunction*%
%TD*%
%TA.AperFunction,Conductor*%
%TO.N,/RESET*%
G36*
X115161174Y-77917439D02*
G01*
X115188721Y-77928751D01*
X115424184Y-78025436D01*
X115430536Y-78031748D01*
X115430563Y-78031815D01*
X115538559Y-78294824D01*
X115538532Y-78303779D01*
X115532670Y-78309877D01*
X115346600Y-78396409D01*
X115341666Y-78397500D01*
X115308252Y-78397500D01*
X115279010Y-78403316D01*
X115249768Y-78409133D01*
X115183449Y-78453446D01*
X115183446Y-78453450D01*
X115167009Y-78478048D01*
X115162215Y-78482156D01*
X115081867Y-78519523D01*
X115072920Y-78519904D01*
X115068660Y-78517187D01*
X114938812Y-78387339D01*
X114935385Y-78379066D01*
X114936474Y-78374136D01*
X115042125Y-78146954D01*
X115043881Y-78144245D01*
X115077835Y-78105061D01*
X115137623Y-77974145D01*
X115144151Y-77928740D01*
X115145119Y-77925486D01*
X115146125Y-77923325D01*
X115152721Y-77917272D01*
X115161174Y-77917439D01*
G37*
%TD.AperFunction*%
%TD*%
%TA.AperFunction,Conductor*%
%TO.N,/SWCLK*%
G36*
X113303779Y-77917467D02*
G01*
X113309877Y-77923329D01*
X113519523Y-78374132D01*
X113519904Y-78383079D01*
X113517187Y-78387339D01*
X113387339Y-78517187D01*
X113379066Y-78520614D01*
X113374132Y-78519523D01*
X113293782Y-78482156D01*
X113288989Y-78478048D01*
X113272552Y-78453448D01*
X113206231Y-78409133D01*
X113147748Y-78397500D01*
X113114334Y-78397500D01*
X113109400Y-78396409D01*
X112923329Y-78309877D01*
X112917273Y-78303281D01*
X112917439Y-78294825D01*
X113025436Y-78031814D01*
X113031746Y-78025464D01*
X113294825Y-77917440D01*
X113303779Y-77917467D01*
G37*
%TD.AperFunction*%
%TD*%
%TA.AperFunction,Conductor*%
%TO.N,Net-(J2-CC2)*%
G36*
X111587339Y-82438812D02*
G01*
X111717187Y-82568660D01*
X111720614Y-82576933D01*
X111719523Y-82581867D01*
X111509877Y-83032670D01*
X111503281Y-83038726D01*
X111494824Y-83038559D01*
X111231815Y-82930563D01*
X111225463Y-82924251D01*
X111225436Y-82924184D01*
X111117440Y-82661175D01*
X111117467Y-82652220D01*
X111123326Y-82646124D01*
X111574134Y-82436475D01*
X111583079Y-82436095D01*
X111587339Y-82438812D01*
G37*
%TD.AperFunction*%
%TD*%
%TA.AperFunction,Conductor*%
%TO.N,Net-(J2-CC1)*%
G36*
X116281864Y-82436475D02*
G01*
X116732671Y-82646123D01*
X116738726Y-82652718D01*
X116738559Y-82661175D01*
X116630563Y-82924184D01*
X116624251Y-82930536D01*
X116624184Y-82930563D01*
X116361175Y-83038559D01*
X116352220Y-83038532D01*
X116346123Y-83032671D01*
X116136475Y-82581865D01*
X116136095Y-82572920D01*
X116138810Y-82568662D01*
X116268661Y-82438811D01*
X116276933Y-82435385D01*
X116281864Y-82436475D01*
G37*
%TD.AperFunction*%
%TD*%
M02*
