%TF.GenerationSoftware,KiCad,Pcbnew,8.0.0*%
%TF.CreationDate,2024-03-14T21:51:16+01:00*%
%TF.ProjectId,BAT2024,42415432-3032-4342-9e6b-696361645f70,1.0*%
%TF.SameCoordinates,Original*%
%TF.FileFunction,Paste,Bot*%
%TF.FilePolarity,Positive*%
%FSLAX46Y46*%
G04 Gerber Fmt 4.6, Leading zero omitted, Abs format (unit mm)*
G04 Created by KiCad (PCBNEW 8.0.0) date 2024-03-14 21:51:16*
%MOMM*%
%LPD*%
G01*
G04 APERTURE LIST*
G04 Aperture macros list*
%AMRoundRect*
0 Rectangle with rounded corners*
0 $1 Rounding radius*
0 $2 $3 $4 $5 $6 $7 $8 $9 X,Y pos of 4 corners*
0 Add a 4 corners polygon primitive as box body*
4,1,4,$2,$3,$4,$5,$6,$7,$8,$9,$2,$3,0*
0 Add four circle primitives for the rounded corners*
1,1,$1+$1,$2,$3*
1,1,$1+$1,$4,$5*
1,1,$1+$1,$6,$7*
1,1,$1+$1,$8,$9*
0 Add four rect primitives between the rounded corners*
20,1,$1+$1,$2,$3,$4,$5,0*
20,1,$1+$1,$4,$5,$6,$7,0*
20,1,$1+$1,$6,$7,$8,$9,0*
20,1,$1+$1,$8,$9,$2,$3,0*%
%AMRotRect*
0 Rectangle, with rotation*
0 The origin of the aperture is its center*
0 $1 length*
0 $2 width*
0 $3 Rotation angle, in degrees counterclockwise*
0 Add horizontal line*
21,1,$1,$2,0,0,$3*%
G04 Aperture macros list end*
%ADD10RoundRect,0.150000X0.150000X-0.512500X0.150000X0.512500X-0.150000X0.512500X-0.150000X-0.512500X0*%
%ADD11RoundRect,0.237500X0.300000X0.237500X-0.300000X0.237500X-0.300000X-0.237500X0.300000X-0.237500X0*%
%ADD12RoundRect,0.237500X0.237500X-0.300000X0.237500X0.300000X-0.237500X0.300000X-0.237500X-0.300000X0*%
%ADD13RoundRect,0.237500X0.237500X-0.287500X0.237500X0.287500X-0.237500X0.287500X-0.237500X-0.287500X0*%
%ADD14RoundRect,0.237500X-0.250000X-0.237500X0.250000X-0.237500X0.250000X0.237500X-0.250000X0.237500X0*%
%ADD15O,2.400000X0.800000*%
%ADD16O,0.800000X2.400000*%
%ADD17RoundRect,0.237500X0.250000X0.237500X-0.250000X0.237500X-0.250000X-0.237500X0.250000X-0.237500X0*%
%ADD18RoundRect,0.237500X-0.300000X-0.237500X0.300000X-0.237500X0.300000X0.237500X-0.300000X0.237500X0*%
%ADD19RoundRect,0.237500X-0.237500X0.250000X-0.237500X-0.250000X0.237500X-0.250000X0.237500X0.250000X0*%
%ADD20RoundRect,0.040600X0.564400X0.249400X-0.564400X0.249400X-0.564400X-0.249400X0.564400X-0.249400X0*%
%ADD21RotRect,1.200000X2.500000X66.000000*%
%ADD22RoundRect,0.237500X0.237500X-0.250000X0.237500X0.250000X-0.237500X0.250000X-0.237500X-0.250000X0*%
%ADD23R,0.600000X1.325000*%
%ADD24R,1.180000X2.810000*%
%ADD25R,0.600000X1.150000*%
%ADD26R,0.300000X1.150000*%
G04 APERTURE END LIST*
D10*
%TO.C,U1*%
X94778000Y-68328000D03*
X93828000Y-68328000D03*
X92878000Y-68328000D03*
X92878000Y-66053000D03*
X94778000Y-66053000D03*
%TD*%
D11*
%TO.C,C8*%
X94690500Y-64328000D03*
X92965500Y-64328000D03*
%TD*%
%TO.C,C10*%
X101690500Y-43628000D03*
X99965500Y-43628000D03*
%TD*%
D12*
%TO.C,C7*%
X91228000Y-68390500D03*
X91228000Y-66665500D03*
%TD*%
D13*
%TO.C,D1*%
X105628000Y-83558000D03*
X105628000Y-81808000D03*
%TD*%
D14*
%TO.C,R4*%
X105015500Y-74978000D03*
X106840500Y-74978000D03*
%TD*%
D15*
%TO.C,IC1*%
X119878000Y-28928000D03*
X119878000Y-30128000D03*
X119878000Y-31328000D03*
X119878000Y-32528000D03*
X119878000Y-33728000D03*
X119878000Y-34928000D03*
X119878000Y-36128000D03*
X119878000Y-37328000D03*
X119878000Y-38528000D03*
X119878000Y-39728000D03*
X119878000Y-40928000D03*
X119878000Y-42128000D03*
D16*
X117828000Y-42228000D03*
X116628000Y-42228000D03*
X115428000Y-42228000D03*
X114228000Y-42228000D03*
X113028000Y-42228000D03*
X111828000Y-42228000D03*
X110628000Y-42228000D03*
D15*
X108578000Y-42128000D03*
X108578000Y-40928000D03*
X108578000Y-39728000D03*
X108578000Y-38528000D03*
X108578000Y-37328000D03*
X108578000Y-36128000D03*
X108578000Y-34928000D03*
X108578000Y-33728000D03*
X108578000Y-32528000D03*
X108578000Y-31328000D03*
X108578000Y-30128000D03*
X108578000Y-28928000D03*
%TD*%
D17*
%TO.C,R5*%
X98133000Y-77740500D03*
X96308000Y-77740500D03*
%TD*%
D18*
%TO.C,C6*%
X105065500Y-76590500D03*
X106790500Y-76590500D03*
%TD*%
D19*
%TO.C,R6*%
X105428000Y-38315500D03*
X105428000Y-40140500D03*
%TD*%
D20*
%TO.C,U2*%
X102683000Y-75628000D03*
X102683000Y-76578000D03*
X102683000Y-77528000D03*
X100173000Y-77528000D03*
X100173000Y-76578000D03*
X100173000Y-75628000D03*
%TD*%
D21*
%TO.C,S1*%
X90423407Y-49530389D03*
X91440250Y-47246526D03*
X92457092Y-44962662D03*
%TD*%
D22*
%TO.C,R3*%
X105628000Y-80240500D03*
X105628000Y-78415500D03*
%TD*%
D23*
%TO.C,IC2*%
X103733000Y-41840000D03*
X102463000Y-41840000D03*
X101193000Y-41840000D03*
X99923000Y-41840000D03*
X99923000Y-36616000D03*
X101193000Y-36616000D03*
X102463000Y-36616000D03*
X103733000Y-36616000D03*
%TD*%
D24*
%TO.C,F1*%
X111913000Y-75928000D03*
X108943000Y-75928000D03*
%TD*%
D11*
%TO.C,C5*%
X98083000Y-75540500D03*
X96358000Y-75540500D03*
%TD*%
D25*
%TO.C,J2*%
X117428000Y-79173000D03*
X116628000Y-79173000D03*
D26*
X115478000Y-79173000D03*
X114478000Y-79173000D03*
X113978000Y-79173000D03*
X112978000Y-79173000D03*
D25*
X111028000Y-79173000D03*
X111828000Y-79173000D03*
D26*
X112478000Y-79173000D03*
X113478000Y-79173000D03*
X114978000Y-79173000D03*
X115978000Y-79173000D03*
%TD*%
M02*
