%TF.GenerationSoftware,KiCad,Pcbnew,8.0.0*%
%TF.CreationDate,2024-03-12T16:19:55+01:00*%
%TF.ProjectId,BAT2024,42415432-3032-4342-9e6b-696361645f70,1.0*%
%TF.SameCoordinates,Original*%
%TF.FileFunction,Soldermask,Top*%
%TF.FilePolarity,Negative*%
%FSLAX46Y46*%
G04 Gerber Fmt 4.6, Leading zero omitted, Abs format (unit mm)*
G04 Created by KiCad (PCBNEW 8.0.0) date 2024-03-12 16:19:55*
%MOMM*%
%LPD*%
G01*
G04 APERTURE LIST*
G04 Aperture macros list*
%AMRoundRect*
0 Rectangle with rounded corners*
0 $1 Rounding radius*
0 $2 $3 $4 $5 $6 $7 $8 $9 X,Y pos of 4 corners*
0 Add a 4 corners polygon primitive as box body*
4,1,4,$2,$3,$4,$5,$6,$7,$8,$9,$2,$3,0*
0 Add four circle primitives for the rounded corners*
1,1,$1+$1,$2,$3*
1,1,$1+$1,$4,$5*
1,1,$1+$1,$6,$7*
1,1,$1+$1,$8,$9*
0 Add four rect primitives between the rounded corners*
20,1,$1+$1,$2,$3,$4,$5,0*
20,1,$1+$1,$4,$5,$6,$7,0*
20,1,$1+$1,$6,$7,$8,$9,0*
20,1,$1+$1,$8,$9,$2,$3,0*%
%AMRotRect*
0 Rectangle, with rotation*
0 The origin of the aperture is its center*
0 $1 length*
0 $2 width*
0 $3 Rotation angle, in degrees counterclockwise*
0 Add horizontal line*
21,1,$1,$2,0,0,$3*%
G04 Aperture macros list end*
%ADD10RotRect,0.700000X1.200000X295.000000*%
%ADD11RotRect,0.700000X1.200000X65.000000*%
%ADD12RotRect,0.700000X1.200000X155.000000*%
%ADD13RotRect,0.700000X1.200000X200.000000*%
%ADD14RotRect,0.700000X1.200000X330.000000*%
%ADD15RoundRect,0.237500X-0.237500X0.250000X-0.237500X-0.250000X0.237500X-0.250000X0.237500X0.250000X0*%
%ADD16RotRect,0.700000X1.200000X20.000000*%
%ADD17R,0.850000X0.300000*%
%ADD18R,0.300000X0.850000*%
%ADD19R,2.700000X2.700000*%
%ADD20RoundRect,0.237500X-0.237500X0.300000X-0.237500X-0.300000X0.237500X-0.300000X0.237500X0.300000X0*%
%ADD21RoundRect,0.237500X0.237500X-0.250000X0.237500X0.250000X-0.237500X0.250000X-0.237500X-0.250000X0*%
%ADD22RotRect,0.700000X1.200000X110.000000*%
%ADD23RotRect,0.700000X1.200000X245.000000*%
%ADD24R,1.032000X0.622000*%
%ADD25R,1.032000X0.500000*%
%ADD26RoundRect,0.237500X0.300000X0.237500X-0.300000X0.237500X-0.300000X-0.237500X0.300000X-0.237500X0*%
%ADD27RoundRect,0.237500X0.237500X-0.300000X0.237500X0.300000X-0.237500X0.300000X-0.237500X-0.300000X0*%
%ADD28C,2.280000*%
%ADD29C,3.200000*%
%ADD30C,1.000000*%
%ADD31C,0.990600*%
%ADD32C,0.650000*%
%ADD33O,1.204000X2.304000*%
%ADD34RoundRect,0.301000X0.301000X0.701000X-0.301000X0.701000X-0.301000X-0.701000X0.301000X-0.701000X0*%
%ADD35C,0.600000*%
G04 APERTURE END LIST*
D10*
%TO.C,LED7*%
X105261111Y-31778234D03*
X103811019Y-32454424D03*
%TD*%
D11*
%TO.C,LED4*%
X102505065Y-81650631D03*
X103955157Y-82326821D03*
%TD*%
D12*
%TO.C,LED2*%
X138539632Y-69029934D03*
X139215822Y-67579842D03*
%TD*%
D13*
%TO.C,LED1*%
X139692290Y-48398819D03*
X139145058Y-46895311D03*
%TD*%
D14*
%TO.C,LED6*%
X89946275Y-45648290D03*
X89146275Y-47033930D03*
%TD*%
D15*
%TO.C,R8*%
X93978000Y-43740500D03*
X93978000Y-45565500D03*
%TD*%
D16*
%TO.C,LED5*%
X88731715Y-66247180D03*
X89278947Y-67750688D03*
%TD*%
D17*
%TO.C,IC3*%
X96328000Y-50903000D03*
X96328000Y-50403000D03*
X96328000Y-49903000D03*
X96328000Y-49403000D03*
X96328000Y-48903000D03*
X96328000Y-48403000D03*
D18*
X95628000Y-47703000D03*
X95128000Y-47703000D03*
X94628000Y-47703000D03*
X94128000Y-47703000D03*
X93628000Y-47703000D03*
X93128000Y-47703000D03*
D17*
X92428000Y-48403000D03*
X92428000Y-48903000D03*
X92428000Y-49403000D03*
X92428000Y-49903000D03*
X92428000Y-50403000D03*
X92428000Y-50903000D03*
D18*
X93128000Y-51603000D03*
X93628000Y-51603000D03*
X94128000Y-51603000D03*
X94628000Y-51603000D03*
X95128000Y-51603000D03*
X95628000Y-51603000D03*
D19*
X94378000Y-49653000D03*
%TD*%
D20*
%TO.C,C3*%
X98795500Y-51790500D03*
X98795500Y-53515500D03*
%TD*%
D21*
%TO.C,R2*%
X112462000Y-84728000D03*
X112462000Y-82903000D03*
%TD*%
D15*
%TO.C,R7*%
X95578000Y-43740500D03*
X95578000Y-45565500D03*
%TD*%
D22*
%TO.C,LED3*%
X123136181Y-82803286D03*
X124639689Y-82256054D03*
%TD*%
D20*
%TO.C,C2*%
X93628000Y-54328000D03*
X93628000Y-56053000D03*
%TD*%
D23*
%TO.C,LED8*%
X125918936Y-32995368D03*
X124468844Y-32319178D03*
%TD*%
D21*
%TO.C,R1*%
X115462000Y-84728000D03*
X115462000Y-82903000D03*
%TD*%
D24*
%TO.C,MK1*%
X115438000Y-57596000D03*
D25*
X115438000Y-56712000D03*
D24*
X115438000Y-55828000D03*
X113228000Y-55828000D03*
D25*
X113228000Y-56712000D03*
D24*
X113228000Y-57596000D03*
%TD*%
D26*
%TO.C,C4*%
X97090500Y-54269000D03*
X95365500Y-54269000D03*
%TD*%
%TO.C,C9*%
X115195500Y-59928000D03*
X113470500Y-59928000D03*
%TD*%
D27*
%TO.C,C1*%
X98795500Y-49715500D03*
X98795500Y-47990500D03*
%TD*%
D28*
%TO.C,H1*%
X119518000Y-59328000D03*
X99028000Y-59328000D03*
%TD*%
D29*
%TO.C,H4*%
X134028000Y-74728000D03*
%TD*%
%TO.C,H2*%
X134028000Y-39928000D03*
%TD*%
%TO.C,H3*%
X87828000Y-57328000D03*
%TD*%
D30*
%TO.C,S1*%
X87545095Y-49234055D03*
X90310905Y-43021945D03*
%TD*%
D31*
%TO.C,J1*%
X128024051Y-39924051D03*
X123713528Y-37050369D03*
X125150369Y-35613528D03*
%TD*%
D32*
%TO.C,J2*%
X117118000Y-80248000D03*
X111338000Y-80248000D03*
D33*
X118548000Y-79748000D03*
X109908000Y-79748000D03*
D34*
X118548000Y-83928000D03*
X109908000Y-83928000D03*
%TD*%
D35*
X87428000Y-65928000D03*
X120228000Y-53328000D03*
X88228000Y-53328000D03*
X124228000Y-53328000D03*
X121728000Y-83328000D03*
X110228000Y-73328000D03*
X136228000Y-51328000D03*
X128228000Y-59328000D03*
X136228000Y-59328000D03*
X116228000Y-65328000D03*
X124228000Y-59328000D03*
X106228000Y-63328000D03*
X120228000Y-75328000D03*
X110228000Y-51328000D03*
X97373000Y-46669000D03*
X122228000Y-61328000D03*
X98228000Y-67328000D03*
X86228000Y-63328000D03*
X114228000Y-53328000D03*
X126228000Y-61328000D03*
X130228000Y-51328000D03*
X136228000Y-61328000D03*
X142228000Y-57328000D03*
X128228000Y-75328000D03*
X122228000Y-71328000D03*
X98228000Y-63328000D03*
X136228000Y-47328000D03*
X96228000Y-69328000D03*
X128228000Y-41328000D03*
X108228000Y-63328000D03*
X118228000Y-75328000D03*
X112228000Y-69328000D03*
X140228000Y-49728000D03*
X132228000Y-57328000D03*
X132228000Y-49328000D03*
X142228000Y-51328000D03*
X113928000Y-84728000D03*
X124228000Y-57328000D03*
X126228000Y-47328000D03*
X126228000Y-57328000D03*
X118228000Y-61328000D03*
X130228000Y-63328000D03*
X106228000Y-67328000D03*
X122228000Y-75328000D03*
X117428000Y-77928000D03*
X110228000Y-53328000D03*
X124228000Y-75328000D03*
X130228000Y-53328000D03*
X98228000Y-69328000D03*
X140228000Y-63328000D03*
X96228000Y-59328000D03*
X88228000Y-51328000D03*
X134228000Y-49328000D03*
X106228000Y-65328000D03*
X110228000Y-67328000D03*
X130228000Y-79328000D03*
X122628000Y-40728000D03*
X108228000Y-57328000D03*
X136228000Y-43328000D03*
X102228000Y-63328000D03*
X118228000Y-63328000D03*
X120228000Y-67328000D03*
X120228000Y-61328000D03*
X124228000Y-73328000D03*
X101028000Y-80928000D03*
X102228000Y-69328000D03*
X126228000Y-53328000D03*
X120228000Y-71328000D03*
X102228000Y-71328000D03*
X126228000Y-59328000D03*
X142228000Y-65328000D03*
X100228000Y-67328000D03*
X126228000Y-65328000D03*
X124228000Y-65328000D03*
X100228000Y-69328000D03*
X104228000Y-59328000D03*
X126228000Y-77328000D03*
X112228000Y-37328000D03*
X128228000Y-67328000D03*
X124228000Y-69328000D03*
X108228000Y-85328000D03*
X92428000Y-53328000D03*
X130228000Y-57328000D03*
X118228000Y-77328000D03*
X102228000Y-65328000D03*
X110228000Y-71328000D03*
X122228000Y-57328000D03*
X118228000Y-65328000D03*
X102228000Y-51328000D03*
X132228000Y-79328000D03*
X98228000Y-55328000D03*
X96228000Y-57328000D03*
X126228000Y-81328000D03*
X128228000Y-51328000D03*
X112228000Y-73328000D03*
X100228000Y-61328000D03*
X128228000Y-69328000D03*
X124228000Y-49328000D03*
X142228000Y-59328000D03*
X130228000Y-67328000D03*
X132228000Y-67328000D03*
X106228000Y-61328000D03*
X122228000Y-63328000D03*
X120228000Y-83328000D03*
X100228000Y-55328000D03*
X132228000Y-55328000D03*
X126228000Y-71328000D03*
X142228000Y-53328000D03*
X140228000Y-53328000D03*
X126228000Y-55328000D03*
X128228000Y-49328000D03*
X126228000Y-69328000D03*
X116228000Y-73328000D03*
X114228000Y-51328000D03*
X132228000Y-47328000D03*
X108228000Y-51328000D03*
X132228000Y-51328000D03*
X104228000Y-67328000D03*
X112028000Y-59728000D03*
X122228000Y-47328000D03*
X140228000Y-59328000D03*
X122228000Y-65328000D03*
X130228000Y-69328000D03*
X100228000Y-57328000D03*
X122228000Y-77328000D03*
X130228000Y-61328000D03*
X124228000Y-55328000D03*
X128228000Y-71328000D03*
X132228000Y-61328000D03*
X98228000Y-65328000D03*
X134228000Y-63328000D03*
X136228000Y-65328000D03*
X114228000Y-39328000D03*
X128228000Y-73328000D03*
X98228000Y-61328000D03*
X134228000Y-67328000D03*
X124228000Y-71328000D03*
X137828000Y-70228000D03*
X92228000Y-75328000D03*
X104228000Y-61328000D03*
X98228000Y-41328000D03*
X126228000Y-49328000D03*
X122228000Y-49328000D03*
X136228000Y-45328000D03*
X130228000Y-47328000D03*
X128228000Y-47328000D03*
X112228000Y-39328000D03*
X98228000Y-79328000D03*
X134228000Y-57328000D03*
X120228000Y-57328000D03*
X106228000Y-71328000D03*
X106228000Y-53328000D03*
X102228000Y-55328000D03*
X120228000Y-63328000D03*
X130228000Y-41328000D03*
X136228000Y-63328000D03*
X132228000Y-65328000D03*
X124228000Y-77328000D03*
X140228000Y-65328000D03*
X96228000Y-79328000D03*
X120228000Y-51328000D03*
X122228000Y-59328000D03*
X128228000Y-79328000D03*
X98228000Y-81328000D03*
X104228000Y-69328000D03*
X102228000Y-67328000D03*
X130228000Y-55328000D03*
X126628000Y-34128000D03*
X122228000Y-55328000D03*
X124228000Y-51328000D03*
X132228000Y-63328000D03*
X120228000Y-73328000D03*
X118228000Y-69328000D03*
X128228000Y-81328000D03*
X108228000Y-53328000D03*
X128228000Y-53328000D03*
X140228000Y-61328000D03*
X134228000Y-51328000D03*
X128228000Y-65328000D03*
X102228000Y-61328000D03*
X96228000Y-55328000D03*
X132228000Y-53328000D03*
X104228000Y-57328000D03*
X130228000Y-39328000D03*
X120228000Y-65328000D03*
X98228000Y-57328000D03*
X108228000Y-67328000D03*
X112228000Y-63328000D03*
X122228000Y-69328000D03*
X88228000Y-61328000D03*
X86228000Y-55328000D03*
X126228000Y-73328000D03*
X128228000Y-55328000D03*
X134228000Y-59328000D03*
X104228000Y-53328000D03*
X136228000Y-55328000D03*
X118228000Y-67328000D03*
X128228000Y-61328000D03*
X130228000Y-77328000D03*
X118228000Y-73328000D03*
X126228000Y-51328000D03*
X106228000Y-69328000D03*
X121828000Y-29528000D03*
X110228000Y-65328000D03*
X126228000Y-43328000D03*
X140228000Y-57328000D03*
X140228000Y-55328000D03*
X106228000Y-55328000D03*
X98228000Y-71328000D03*
X132228000Y-69328000D03*
X124228000Y-47328000D03*
X100228000Y-63328000D03*
X120228000Y-85328000D03*
X134228000Y-47328000D03*
X108228000Y-55328000D03*
X100228000Y-71328000D03*
X104228000Y-63328000D03*
X112228000Y-71328000D03*
X108228000Y-61328000D03*
X106228000Y-85328000D03*
X130228000Y-59328000D03*
X89228000Y-44928000D03*
X106228000Y-59328000D03*
X104228000Y-71328000D03*
X140228000Y-51328000D03*
X124228000Y-61328000D03*
X120228000Y-55328000D03*
X122228000Y-53328000D03*
X128228000Y-43328000D03*
X134228000Y-53328000D03*
X110228000Y-63328000D03*
X136228000Y-49328000D03*
X130228000Y-73328000D03*
X100228000Y-79328000D03*
X128228000Y-63328000D03*
X132228000Y-59328000D03*
X126228000Y-63328000D03*
X102228000Y-59328000D03*
X142228000Y-55328000D03*
X100228000Y-65328000D03*
X110228000Y-55328000D03*
X116228000Y-67328000D03*
X122228000Y-51328000D03*
X126228000Y-75328000D03*
X112228000Y-65328000D03*
X136228000Y-53328000D03*
X110228000Y-69328000D03*
X120228000Y-77328000D03*
X86228000Y-61328000D03*
X114228000Y-37328000D03*
X124228000Y-67328000D03*
X132228000Y-43328000D03*
X116228000Y-69328000D03*
X126228000Y-67328000D03*
X130228000Y-43328000D03*
X88228000Y-63328000D03*
X108228000Y-65328000D03*
X104228000Y-51328000D03*
X108228000Y-71328000D03*
X138228000Y-43328000D03*
X124228000Y-63328000D03*
X122228000Y-67328000D03*
X112228000Y-67328000D03*
X116228000Y-71328000D03*
X122228000Y-73328000D03*
X106228000Y-51328000D03*
X106628000Y-41928000D03*
X130228000Y-71328000D03*
X100228000Y-53328000D03*
X86228000Y-53328000D03*
X106428000Y-29528000D03*
X120228000Y-47328000D03*
X111028000Y-77928000D03*
X134228000Y-45328000D03*
X110228000Y-59328000D03*
X130228000Y-81328000D03*
X130228000Y-65328000D03*
X112228000Y-53328000D03*
X108578000Y-43228000D03*
X104228000Y-65328000D03*
X134228000Y-65328000D03*
X102228000Y-57328000D03*
X128228000Y-57328000D03*
X108228000Y-69328000D03*
X134228000Y-55328000D03*
X142228000Y-61328000D03*
X136228000Y-57328000D03*
X110228000Y-57328000D03*
X118228000Y-71328000D03*
X120228000Y-69328000D03*
X130228000Y-49328000D03*
X134228000Y-61328000D03*
X142228000Y-63328000D03*
X112228000Y-51328000D03*
X99828000Y-45490500D03*
X103228000Y-38228000D03*
X101228000Y-40828000D03*
X127028000Y-40728000D03*
X118454000Y-43928000D03*
X97386542Y-52455460D03*
X95728000Y-52469000D03*
X99828000Y-73928000D03*
X101428000Y-74728000D03*
X117828000Y-39528000D03*
X114652458Y-77831688D03*
X113828000Y-77828000D03*
X128428000Y-38728000D03*
X117828000Y-38328000D03*
X121528000Y-38428000D03*
X117828000Y-35928000D03*
X117828000Y-33728000D03*
X115428000Y-78028000D03*
X125028000Y-39328000D03*
X117828000Y-34728000D03*
X110428000Y-32928000D03*
X95628000Y-42728000D03*
X95373000Y-46669000D03*
X113028000Y-78028000D03*
X117828000Y-37128000D03*
X98704000Y-37328000D03*
X106928000Y-38328000D03*
X97473000Y-49303000D03*
X99828000Y-49728000D03*
X114628000Y-40328000D03*
X94028000Y-42753000D03*
X110428000Y-32077997D03*
X94373000Y-46669000D03*
X111228000Y-82928000D03*
X116628000Y-82928000D03*
M02*
