%TF.GenerationSoftware,KiCad,Pcbnew,8.0.0*%
%TF.CreationDate,2024-03-12T16:19:55+01:00*%
%TF.ProjectId,BAT2024,42415432-3032-4342-9e6b-696361645f70,1.0*%
%TF.SameCoordinates,Original*%
%TF.FileFunction,Legend,Top*%
%TF.FilePolarity,Positive*%
%FSLAX46Y46*%
G04 Gerber Fmt 4.6, Leading zero omitted, Abs format (unit mm)*
G04 Created by KiCad (PCBNEW 8.0.0) date 2024-03-12 16:19:55*
%MOMM*%
%LPD*%
G01*
G04 APERTURE LIST*
%ADD10C,0.300000*%
%ADD11C,0.254000*%
%ADD12C,0.150000*%
%ADD13C,0.120000*%
%ADD14C,0.250000*%
%ADD15C,0.200000*%
G04 APERTURE END LIST*
D10*
X101682510Y-42598366D02*
X101896796Y-42669794D01*
X101896796Y-42669794D02*
X101968225Y-42741223D01*
X101968225Y-42741223D02*
X102039653Y-42884080D01*
X102039653Y-42884080D02*
X102039653Y-43098366D01*
X102039653Y-43098366D02*
X101968225Y-43241223D01*
X101968225Y-43241223D02*
X101896796Y-43312652D01*
X101896796Y-43312652D02*
X101753939Y-43384080D01*
X101753939Y-43384080D02*
X101182510Y-43384080D01*
X101182510Y-43384080D02*
X101182510Y-41884080D01*
X101182510Y-41884080D02*
X101682510Y-41884080D01*
X101682510Y-41884080D02*
X101825368Y-41955509D01*
X101825368Y-41955509D02*
X101896796Y-42026937D01*
X101896796Y-42026937D02*
X101968225Y-42169794D01*
X101968225Y-42169794D02*
X101968225Y-42312652D01*
X101968225Y-42312652D02*
X101896796Y-42455509D01*
X101896796Y-42455509D02*
X101825368Y-42526937D01*
X101825368Y-42526937D02*
X101682510Y-42598366D01*
X101682510Y-42598366D02*
X101182510Y-42598366D01*
X103325368Y-43384080D02*
X103325368Y-42598366D01*
X103325368Y-42598366D02*
X103253939Y-42455509D01*
X103253939Y-42455509D02*
X103111082Y-42384080D01*
X103111082Y-42384080D02*
X102825368Y-42384080D01*
X102825368Y-42384080D02*
X102682510Y-42455509D01*
X103325368Y-43312652D02*
X103182510Y-43384080D01*
X103182510Y-43384080D02*
X102825368Y-43384080D01*
X102825368Y-43384080D02*
X102682510Y-43312652D01*
X102682510Y-43312652D02*
X102611082Y-43169794D01*
X102611082Y-43169794D02*
X102611082Y-43026937D01*
X102611082Y-43026937D02*
X102682510Y-42884080D01*
X102682510Y-42884080D02*
X102825368Y-42812652D01*
X102825368Y-42812652D02*
X103182510Y-42812652D01*
X103182510Y-42812652D02*
X103325368Y-42741223D01*
X104682511Y-43312652D02*
X104539653Y-43384080D01*
X104539653Y-43384080D02*
X104253939Y-43384080D01*
X104253939Y-43384080D02*
X104111082Y-43312652D01*
X104111082Y-43312652D02*
X104039653Y-43241223D01*
X104039653Y-43241223D02*
X103968225Y-43098366D01*
X103968225Y-43098366D02*
X103968225Y-42669794D01*
X103968225Y-42669794D02*
X104039653Y-42526937D01*
X104039653Y-42526937D02*
X104111082Y-42455509D01*
X104111082Y-42455509D02*
X104253939Y-42384080D01*
X104253939Y-42384080D02*
X104539653Y-42384080D01*
X104539653Y-42384080D02*
X104682511Y-42455509D01*
X105325367Y-43384080D02*
X105325367Y-41884080D01*
X105968225Y-43384080D02*
X105968225Y-42598366D01*
X105968225Y-42598366D02*
X105896796Y-42455509D01*
X105896796Y-42455509D02*
X105753939Y-42384080D01*
X105753939Y-42384080D02*
X105539653Y-42384080D01*
X105539653Y-42384080D02*
X105396796Y-42455509D01*
X105396796Y-42455509D02*
X105325367Y-42526937D01*
X107253939Y-43312652D02*
X107111082Y-43384080D01*
X107111082Y-43384080D02*
X106825368Y-43384080D01*
X106825368Y-43384080D02*
X106682510Y-43312652D01*
X106682510Y-43312652D02*
X106611082Y-43169794D01*
X106611082Y-43169794D02*
X106611082Y-42598366D01*
X106611082Y-42598366D02*
X106682510Y-42455509D01*
X106682510Y-42455509D02*
X106825368Y-42384080D01*
X106825368Y-42384080D02*
X107111082Y-42384080D01*
X107111082Y-42384080D02*
X107253939Y-42455509D01*
X107253939Y-42455509D02*
X107325368Y-42598366D01*
X107325368Y-42598366D02*
X107325368Y-42741223D01*
X107325368Y-42741223D02*
X106611082Y-42884080D01*
X108182510Y-43384080D02*
X108039653Y-43312652D01*
X108039653Y-43312652D02*
X107968224Y-43169794D01*
X107968224Y-43169794D02*
X107968224Y-41884080D01*
X108968224Y-43384080D02*
X108825367Y-43312652D01*
X108825367Y-43312652D02*
X108753938Y-43241223D01*
X108753938Y-43241223D02*
X108682510Y-43098366D01*
X108682510Y-43098366D02*
X108682510Y-42669794D01*
X108682510Y-42669794D02*
X108753938Y-42526937D01*
X108753938Y-42526937D02*
X108825367Y-42455509D01*
X108825367Y-42455509D02*
X108968224Y-42384080D01*
X108968224Y-42384080D02*
X109182510Y-42384080D01*
X109182510Y-42384080D02*
X109325367Y-42455509D01*
X109325367Y-42455509D02*
X109396796Y-42526937D01*
X109396796Y-42526937D02*
X109468224Y-42669794D01*
X109468224Y-42669794D02*
X109468224Y-43098366D01*
X109468224Y-43098366D02*
X109396796Y-43241223D01*
X109396796Y-43241223D02*
X109325367Y-43312652D01*
X109325367Y-43312652D02*
X109182510Y-43384080D01*
X109182510Y-43384080D02*
X108968224Y-43384080D01*
X110111081Y-43384080D02*
X110111081Y-42384080D01*
X110111081Y-42669794D02*
X110182510Y-42526937D01*
X110182510Y-42526937D02*
X110253939Y-42455509D01*
X110253939Y-42455509D02*
X110396796Y-42384080D01*
X110396796Y-42384080D02*
X110539653Y-42384080D01*
X111682510Y-43384080D02*
X111682510Y-42598366D01*
X111682510Y-42598366D02*
X111611081Y-42455509D01*
X111611081Y-42455509D02*
X111468224Y-42384080D01*
X111468224Y-42384080D02*
X111182510Y-42384080D01*
X111182510Y-42384080D02*
X111039652Y-42455509D01*
X111682510Y-43312652D02*
X111539652Y-43384080D01*
X111539652Y-43384080D02*
X111182510Y-43384080D01*
X111182510Y-43384080D02*
X111039652Y-43312652D01*
X111039652Y-43312652D02*
X110968224Y-43169794D01*
X110968224Y-43169794D02*
X110968224Y-43026937D01*
X110968224Y-43026937D02*
X111039652Y-42884080D01*
X111039652Y-42884080D02*
X111182510Y-42812652D01*
X111182510Y-42812652D02*
X111539652Y-42812652D01*
X111539652Y-42812652D02*
X111682510Y-42741223D01*
X112396795Y-43384080D02*
X112396795Y-42384080D01*
X112396795Y-42669794D02*
X112468224Y-42526937D01*
X112468224Y-42526937D02*
X112539653Y-42455509D01*
X112539653Y-42455509D02*
X112682510Y-42384080D01*
X112682510Y-42384080D02*
X112825367Y-42384080D01*
X113325366Y-43384080D02*
X113325366Y-41884080D01*
X113325366Y-42455509D02*
X113468224Y-42384080D01*
X113468224Y-42384080D02*
X113753938Y-42384080D01*
X113753938Y-42384080D02*
X113896795Y-42455509D01*
X113896795Y-42455509D02*
X113968224Y-42526937D01*
X113968224Y-42526937D02*
X114039652Y-42669794D01*
X114039652Y-42669794D02*
X114039652Y-43098366D01*
X114039652Y-43098366D02*
X113968224Y-43241223D01*
X113968224Y-43241223D02*
X113896795Y-43312652D01*
X113896795Y-43312652D02*
X113753938Y-43384080D01*
X113753938Y-43384080D02*
X113468224Y-43384080D01*
X113468224Y-43384080D02*
X113325366Y-43312652D01*
X115253938Y-43312652D02*
X115111081Y-43384080D01*
X115111081Y-43384080D02*
X114825367Y-43384080D01*
X114825367Y-43384080D02*
X114682509Y-43312652D01*
X114682509Y-43312652D02*
X114611081Y-43169794D01*
X114611081Y-43169794D02*
X114611081Y-42598366D01*
X114611081Y-42598366D02*
X114682509Y-42455509D01*
X114682509Y-42455509D02*
X114825367Y-42384080D01*
X114825367Y-42384080D02*
X115111081Y-42384080D01*
X115111081Y-42384080D02*
X115253938Y-42455509D01*
X115253938Y-42455509D02*
X115325367Y-42598366D01*
X115325367Y-42598366D02*
X115325367Y-42741223D01*
X115325367Y-42741223D02*
X114611081Y-42884080D01*
X115968223Y-43384080D02*
X115968223Y-42384080D01*
X115968223Y-41884080D02*
X115896795Y-41955509D01*
X115896795Y-41955509D02*
X115968223Y-42026937D01*
X115968223Y-42026937D02*
X116039652Y-41955509D01*
X116039652Y-41955509D02*
X115968223Y-41884080D01*
X115968223Y-41884080D02*
X115968223Y-42026937D01*
X116468224Y-42384080D02*
X117039652Y-42384080D01*
X116682509Y-41884080D02*
X116682509Y-43169794D01*
X116682509Y-43169794D02*
X116753938Y-43312652D01*
X116753938Y-43312652D02*
X116896795Y-43384080D01*
X116896795Y-43384080D02*
X117039652Y-43384080D01*
X118611081Y-42026937D02*
X118682509Y-41955509D01*
X118682509Y-41955509D02*
X118825367Y-41884080D01*
X118825367Y-41884080D02*
X119182509Y-41884080D01*
X119182509Y-41884080D02*
X119325367Y-41955509D01*
X119325367Y-41955509D02*
X119396795Y-42026937D01*
X119396795Y-42026937D02*
X119468224Y-42169794D01*
X119468224Y-42169794D02*
X119468224Y-42312652D01*
X119468224Y-42312652D02*
X119396795Y-42526937D01*
X119396795Y-42526937D02*
X118539652Y-43384080D01*
X118539652Y-43384080D02*
X119468224Y-43384080D01*
X120396795Y-41884080D02*
X120539652Y-41884080D01*
X120539652Y-41884080D02*
X120682509Y-41955509D01*
X120682509Y-41955509D02*
X120753938Y-42026937D01*
X120753938Y-42026937D02*
X120825366Y-42169794D01*
X120825366Y-42169794D02*
X120896795Y-42455509D01*
X120896795Y-42455509D02*
X120896795Y-42812652D01*
X120896795Y-42812652D02*
X120825366Y-43098366D01*
X120825366Y-43098366D02*
X120753938Y-43241223D01*
X120753938Y-43241223D02*
X120682509Y-43312652D01*
X120682509Y-43312652D02*
X120539652Y-43384080D01*
X120539652Y-43384080D02*
X120396795Y-43384080D01*
X120396795Y-43384080D02*
X120253938Y-43312652D01*
X120253938Y-43312652D02*
X120182509Y-43241223D01*
X120182509Y-43241223D02*
X120111080Y-43098366D01*
X120111080Y-43098366D02*
X120039652Y-42812652D01*
X120039652Y-42812652D02*
X120039652Y-42455509D01*
X120039652Y-42455509D02*
X120111080Y-42169794D01*
X120111080Y-42169794D02*
X120182509Y-42026937D01*
X120182509Y-42026937D02*
X120253938Y-41955509D01*
X120253938Y-41955509D02*
X120396795Y-41884080D01*
X121468223Y-42026937D02*
X121539651Y-41955509D01*
X121539651Y-41955509D02*
X121682509Y-41884080D01*
X121682509Y-41884080D02*
X122039651Y-41884080D01*
X122039651Y-41884080D02*
X122182509Y-41955509D01*
X122182509Y-41955509D02*
X122253937Y-42026937D01*
X122253937Y-42026937D02*
X122325366Y-42169794D01*
X122325366Y-42169794D02*
X122325366Y-42312652D01*
X122325366Y-42312652D02*
X122253937Y-42526937D01*
X122253937Y-42526937D02*
X121396794Y-43384080D01*
X121396794Y-43384080D02*
X122325366Y-43384080D01*
X123611080Y-42384080D02*
X123611080Y-43384080D01*
X123253937Y-41812652D02*
X122896794Y-42884080D01*
X122896794Y-42884080D02*
X123825365Y-42884080D01*
X101111082Y-45727568D02*
X101325368Y-45798996D01*
X101325368Y-45798996D02*
X101682510Y-45798996D01*
X101682510Y-45798996D02*
X101825368Y-45727568D01*
X101825368Y-45727568D02*
X101896796Y-45656139D01*
X101896796Y-45656139D02*
X101968225Y-45513282D01*
X101968225Y-45513282D02*
X101968225Y-45370425D01*
X101968225Y-45370425D02*
X101896796Y-45227568D01*
X101896796Y-45227568D02*
X101825368Y-45156139D01*
X101825368Y-45156139D02*
X101682510Y-45084710D01*
X101682510Y-45084710D02*
X101396796Y-45013282D01*
X101396796Y-45013282D02*
X101253939Y-44941853D01*
X101253939Y-44941853D02*
X101182510Y-44870425D01*
X101182510Y-44870425D02*
X101111082Y-44727568D01*
X101111082Y-44727568D02*
X101111082Y-44584710D01*
X101111082Y-44584710D02*
X101182510Y-44441853D01*
X101182510Y-44441853D02*
X101253939Y-44370425D01*
X101253939Y-44370425D02*
X101396796Y-44298996D01*
X101396796Y-44298996D02*
X101753939Y-44298996D01*
X101753939Y-44298996D02*
X101968225Y-44370425D01*
X103253939Y-45727568D02*
X103111081Y-45798996D01*
X103111081Y-45798996D02*
X102825367Y-45798996D01*
X102825367Y-45798996D02*
X102682510Y-45727568D01*
X102682510Y-45727568D02*
X102611081Y-45656139D01*
X102611081Y-45656139D02*
X102539653Y-45513282D01*
X102539653Y-45513282D02*
X102539653Y-45084710D01*
X102539653Y-45084710D02*
X102611081Y-44941853D01*
X102611081Y-44941853D02*
X102682510Y-44870425D01*
X102682510Y-44870425D02*
X102825367Y-44798996D01*
X102825367Y-44798996D02*
X103111081Y-44798996D01*
X103111081Y-44798996D02*
X103253939Y-44870425D01*
X103896795Y-45798996D02*
X103896795Y-44298996D01*
X104539653Y-45798996D02*
X104539653Y-45013282D01*
X104539653Y-45013282D02*
X104468224Y-44870425D01*
X104468224Y-44870425D02*
X104325367Y-44798996D01*
X104325367Y-44798996D02*
X104111081Y-44798996D01*
X104111081Y-44798996D02*
X103968224Y-44870425D01*
X103968224Y-44870425D02*
X103896795Y-44941853D01*
X105896796Y-45798996D02*
X105896796Y-45013282D01*
X105896796Y-45013282D02*
X105825367Y-44870425D01*
X105825367Y-44870425D02*
X105682510Y-44798996D01*
X105682510Y-44798996D02*
X105396796Y-44798996D01*
X105396796Y-44798996D02*
X105253938Y-44870425D01*
X105896796Y-45727568D02*
X105753938Y-45798996D01*
X105753938Y-45798996D02*
X105396796Y-45798996D01*
X105396796Y-45798996D02*
X105253938Y-45727568D01*
X105253938Y-45727568D02*
X105182510Y-45584710D01*
X105182510Y-45584710D02*
X105182510Y-45441853D01*
X105182510Y-45441853D02*
X105253938Y-45298996D01*
X105253938Y-45298996D02*
X105396796Y-45227568D01*
X105396796Y-45227568D02*
X105753938Y-45227568D01*
X105753938Y-45227568D02*
X105896796Y-45156139D01*
X106825367Y-45798996D02*
X106682510Y-45727568D01*
X106682510Y-45727568D02*
X106611081Y-45584710D01*
X106611081Y-45584710D02*
X106611081Y-44298996D01*
X107611081Y-45798996D02*
X107468224Y-45727568D01*
X107468224Y-45727568D02*
X107396795Y-45584710D01*
X107396795Y-45584710D02*
X107396795Y-44298996D01*
X108825367Y-45798996D02*
X108825367Y-44298996D01*
X108825367Y-45727568D02*
X108682509Y-45798996D01*
X108682509Y-45798996D02*
X108396795Y-45798996D01*
X108396795Y-45798996D02*
X108253938Y-45727568D01*
X108253938Y-45727568D02*
X108182509Y-45656139D01*
X108182509Y-45656139D02*
X108111081Y-45513282D01*
X108111081Y-45513282D02*
X108111081Y-45084710D01*
X108111081Y-45084710D02*
X108182509Y-44941853D01*
X108182509Y-44941853D02*
X108253938Y-44870425D01*
X108253938Y-44870425D02*
X108396795Y-44798996D01*
X108396795Y-44798996D02*
X108682509Y-44798996D01*
X108682509Y-44798996D02*
X108825367Y-44870425D01*
X109539652Y-45798996D02*
X109539652Y-44798996D01*
X109539652Y-45084710D02*
X109611081Y-44941853D01*
X109611081Y-44941853D02*
X109682510Y-44870425D01*
X109682510Y-44870425D02*
X109825367Y-44798996D01*
X109825367Y-44798996D02*
X109968224Y-44798996D01*
X111111081Y-44798996D02*
X111111081Y-45798996D01*
X110468223Y-44798996D02*
X110468223Y-45584710D01*
X110468223Y-45584710D02*
X110539652Y-45727568D01*
X110539652Y-45727568D02*
X110682509Y-45798996D01*
X110682509Y-45798996D02*
X110896795Y-45798996D01*
X110896795Y-45798996D02*
X111039652Y-45727568D01*
X111039652Y-45727568D02*
X111111081Y-45656139D01*
X112468224Y-45727568D02*
X112325366Y-45798996D01*
X112325366Y-45798996D02*
X112039652Y-45798996D01*
X112039652Y-45798996D02*
X111896795Y-45727568D01*
X111896795Y-45727568D02*
X111825366Y-45656139D01*
X111825366Y-45656139D02*
X111753938Y-45513282D01*
X111753938Y-45513282D02*
X111753938Y-45084710D01*
X111753938Y-45084710D02*
X111825366Y-44941853D01*
X111825366Y-44941853D02*
X111896795Y-44870425D01*
X111896795Y-44870425D02*
X112039652Y-44798996D01*
X112039652Y-44798996D02*
X112325366Y-44798996D01*
X112325366Y-44798996D02*
X112468224Y-44870425D01*
X113111080Y-45798996D02*
X113111080Y-44298996D01*
X113253938Y-45227568D02*
X113682509Y-45798996D01*
X113682509Y-44798996D02*
X113111080Y-45370425D01*
X114325366Y-44798996D02*
X114325366Y-46298996D01*
X114325366Y-44870425D02*
X114468224Y-44798996D01*
X114468224Y-44798996D02*
X114753938Y-44798996D01*
X114753938Y-44798996D02*
X114896795Y-44870425D01*
X114896795Y-44870425D02*
X114968224Y-44941853D01*
X114968224Y-44941853D02*
X115039652Y-45084710D01*
X115039652Y-45084710D02*
X115039652Y-45513282D01*
X115039652Y-45513282D02*
X114968224Y-45656139D01*
X114968224Y-45656139D02*
X114896795Y-45727568D01*
X114896795Y-45727568D02*
X114753938Y-45798996D01*
X114753938Y-45798996D02*
X114468224Y-45798996D01*
X114468224Y-45798996D02*
X114325366Y-45727568D01*
X116253938Y-45727568D02*
X116111081Y-45798996D01*
X116111081Y-45798996D02*
X115825367Y-45798996D01*
X115825367Y-45798996D02*
X115682509Y-45727568D01*
X115682509Y-45727568D02*
X115611081Y-45584710D01*
X115611081Y-45584710D02*
X115611081Y-45013282D01*
X115611081Y-45013282D02*
X115682509Y-44870425D01*
X115682509Y-44870425D02*
X115825367Y-44798996D01*
X115825367Y-44798996D02*
X116111081Y-44798996D01*
X116111081Y-44798996D02*
X116253938Y-44870425D01*
X116253938Y-44870425D02*
X116325367Y-45013282D01*
X116325367Y-45013282D02*
X116325367Y-45156139D01*
X116325367Y-45156139D02*
X115611081Y-45298996D01*
X117611081Y-44798996D02*
X117611081Y-46013282D01*
X117611081Y-46013282D02*
X117539652Y-46156139D01*
X117539652Y-46156139D02*
X117468223Y-46227568D01*
X117468223Y-46227568D02*
X117325366Y-46298996D01*
X117325366Y-46298996D02*
X117111081Y-46298996D01*
X117111081Y-46298996D02*
X116968223Y-46227568D01*
X117611081Y-45727568D02*
X117468223Y-45798996D01*
X117468223Y-45798996D02*
X117182509Y-45798996D01*
X117182509Y-45798996D02*
X117039652Y-45727568D01*
X117039652Y-45727568D02*
X116968223Y-45656139D01*
X116968223Y-45656139D02*
X116896795Y-45513282D01*
X116896795Y-45513282D02*
X116896795Y-45084710D01*
X116896795Y-45084710D02*
X116968223Y-44941853D01*
X116968223Y-44941853D02*
X117039652Y-44870425D01*
X117039652Y-44870425D02*
X117182509Y-44798996D01*
X117182509Y-44798996D02*
X117468223Y-44798996D01*
X117468223Y-44798996D02*
X117611081Y-44870425D01*
X118896795Y-45727568D02*
X118753938Y-45798996D01*
X118753938Y-45798996D02*
X118468224Y-45798996D01*
X118468224Y-45798996D02*
X118325366Y-45727568D01*
X118325366Y-45727568D02*
X118253938Y-45584710D01*
X118253938Y-45584710D02*
X118253938Y-45013282D01*
X118253938Y-45013282D02*
X118325366Y-44870425D01*
X118325366Y-44870425D02*
X118468224Y-44798996D01*
X118468224Y-44798996D02*
X118753938Y-44798996D01*
X118753938Y-44798996D02*
X118896795Y-44870425D01*
X118896795Y-44870425D02*
X118968224Y-45013282D01*
X118968224Y-45013282D02*
X118968224Y-45156139D01*
X118968224Y-45156139D02*
X118253938Y-45298996D01*
X119825366Y-45798996D02*
X119682509Y-45727568D01*
X119682509Y-45727568D02*
X119611080Y-45584710D01*
X119611080Y-45584710D02*
X119611080Y-44298996D01*
X120396794Y-45227568D02*
X121539652Y-45227568D01*
X122253937Y-45798996D02*
X122253937Y-44298996D01*
X122253937Y-44298996D02*
X122753937Y-45370425D01*
X122753937Y-45370425D02*
X123253937Y-44298996D01*
X123253937Y-44298996D02*
X123253937Y-45798996D01*
X124539652Y-45727568D02*
X124396795Y-45798996D01*
X124396795Y-45798996D02*
X124111081Y-45798996D01*
X124111081Y-45798996D02*
X123968223Y-45727568D01*
X123968223Y-45727568D02*
X123896795Y-45584710D01*
X123896795Y-45584710D02*
X123896795Y-45013282D01*
X123896795Y-45013282D02*
X123968223Y-44870425D01*
X123968223Y-44870425D02*
X124111081Y-44798996D01*
X124111081Y-44798996D02*
X124396795Y-44798996D01*
X124396795Y-44798996D02*
X124539652Y-44870425D01*
X124539652Y-44870425D02*
X124611081Y-45013282D01*
X124611081Y-45013282D02*
X124611081Y-45156139D01*
X124611081Y-45156139D02*
X123896795Y-45298996D01*
X125182509Y-45727568D02*
X125325366Y-45798996D01*
X125325366Y-45798996D02*
X125611080Y-45798996D01*
X125611080Y-45798996D02*
X125753937Y-45727568D01*
X125753937Y-45727568D02*
X125825366Y-45584710D01*
X125825366Y-45584710D02*
X125825366Y-45513282D01*
X125825366Y-45513282D02*
X125753937Y-45370425D01*
X125753937Y-45370425D02*
X125611080Y-45298996D01*
X125611080Y-45298996D02*
X125396795Y-45298996D01*
X125396795Y-45298996D02*
X125253937Y-45227568D01*
X125253937Y-45227568D02*
X125182509Y-45084710D01*
X125182509Y-45084710D02*
X125182509Y-45013282D01*
X125182509Y-45013282D02*
X125253937Y-44870425D01*
X125253937Y-44870425D02*
X125396795Y-44798996D01*
X125396795Y-44798996D02*
X125611080Y-44798996D01*
X125611080Y-44798996D02*
X125753937Y-44870425D01*
X126396795Y-45727568D02*
X126539652Y-45798996D01*
X126539652Y-45798996D02*
X126825366Y-45798996D01*
X126825366Y-45798996D02*
X126968223Y-45727568D01*
X126968223Y-45727568D02*
X127039652Y-45584710D01*
X127039652Y-45584710D02*
X127039652Y-45513282D01*
X127039652Y-45513282D02*
X126968223Y-45370425D01*
X126968223Y-45370425D02*
X126825366Y-45298996D01*
X126825366Y-45298996D02*
X126611081Y-45298996D01*
X126611081Y-45298996D02*
X126468223Y-45227568D01*
X126468223Y-45227568D02*
X126396795Y-45084710D01*
X126396795Y-45084710D02*
X126396795Y-45013282D01*
X126396795Y-45013282D02*
X126468223Y-44870425D01*
X126468223Y-44870425D02*
X126611081Y-44798996D01*
X126611081Y-44798996D02*
X126825366Y-44798996D01*
X126825366Y-44798996D02*
X126968223Y-44870425D01*
X128325367Y-44798996D02*
X128325367Y-46013282D01*
X128325367Y-46013282D02*
X128253938Y-46156139D01*
X128253938Y-46156139D02*
X128182509Y-46227568D01*
X128182509Y-46227568D02*
X128039652Y-46298996D01*
X128039652Y-46298996D02*
X127825367Y-46298996D01*
X127825367Y-46298996D02*
X127682509Y-46227568D01*
X128325367Y-45727568D02*
X128182509Y-45798996D01*
X128182509Y-45798996D02*
X127896795Y-45798996D01*
X127896795Y-45798996D02*
X127753938Y-45727568D01*
X127753938Y-45727568D02*
X127682509Y-45656139D01*
X127682509Y-45656139D02*
X127611081Y-45513282D01*
X127611081Y-45513282D02*
X127611081Y-45084710D01*
X127611081Y-45084710D02*
X127682509Y-44941853D01*
X127682509Y-44941853D02*
X127753938Y-44870425D01*
X127753938Y-44870425D02*
X127896795Y-44798996D01*
X127896795Y-44798996D02*
X128182509Y-44798996D01*
X128182509Y-44798996D02*
X128325367Y-44870425D01*
X129611081Y-45727568D02*
X129468224Y-45798996D01*
X129468224Y-45798996D02*
X129182510Y-45798996D01*
X129182510Y-45798996D02*
X129039652Y-45727568D01*
X129039652Y-45727568D02*
X128968224Y-45584710D01*
X128968224Y-45584710D02*
X128968224Y-45013282D01*
X128968224Y-45013282D02*
X129039652Y-44870425D01*
X129039652Y-44870425D02*
X129182510Y-44798996D01*
X129182510Y-44798996D02*
X129468224Y-44798996D01*
X129468224Y-44798996D02*
X129611081Y-44870425D01*
X129611081Y-44870425D02*
X129682510Y-45013282D01*
X129682510Y-45013282D02*
X129682510Y-45156139D01*
X129682510Y-45156139D02*
X128968224Y-45298996D01*
X130325366Y-45798996D02*
X130325366Y-44798996D01*
X130325366Y-45084710D02*
X130396795Y-44941853D01*
X130396795Y-44941853D02*
X130468224Y-44870425D01*
X130468224Y-44870425D02*
X130611081Y-44798996D01*
X130611081Y-44798996D02*
X130753938Y-44798996D01*
X131896795Y-45798996D02*
X131896795Y-45013282D01*
X131896795Y-45013282D02*
X131825366Y-44870425D01*
X131825366Y-44870425D02*
X131682509Y-44798996D01*
X131682509Y-44798996D02*
X131396795Y-44798996D01*
X131396795Y-44798996D02*
X131253937Y-44870425D01*
X131896795Y-45727568D02*
X131753937Y-45798996D01*
X131753937Y-45798996D02*
X131396795Y-45798996D01*
X131396795Y-45798996D02*
X131253937Y-45727568D01*
X131253937Y-45727568D02*
X131182509Y-45584710D01*
X131182509Y-45584710D02*
X131182509Y-45441853D01*
X131182509Y-45441853D02*
X131253937Y-45298996D01*
X131253937Y-45298996D02*
X131396795Y-45227568D01*
X131396795Y-45227568D02*
X131753937Y-45227568D01*
X131753937Y-45227568D02*
X131896795Y-45156139D01*
X131253937Y-44298996D02*
X131325366Y-44370425D01*
X131325366Y-44370425D02*
X131253937Y-44441853D01*
X131253937Y-44441853D02*
X131182509Y-44370425D01*
X131182509Y-44370425D02*
X131253937Y-44298996D01*
X131253937Y-44298996D02*
X131253937Y-44441853D01*
X131825366Y-44298996D02*
X131896795Y-44370425D01*
X131896795Y-44370425D02*
X131825366Y-44441853D01*
X131825366Y-44441853D02*
X131753937Y-44370425D01*
X131753937Y-44370425D02*
X131825366Y-44298996D01*
X131825366Y-44298996D02*
X131825366Y-44441853D01*
X132396795Y-44798996D02*
X132968223Y-44798996D01*
X132611080Y-44298996D02*
X132611080Y-45584710D01*
X132611080Y-45584710D02*
X132682509Y-45727568D01*
X132682509Y-45727568D02*
X132825366Y-45798996D01*
X132825366Y-45798996D02*
X132968223Y-45798996D01*
X101111082Y-48142484D02*
X101325368Y-48213912D01*
X101325368Y-48213912D02*
X101682510Y-48213912D01*
X101682510Y-48213912D02*
X101825368Y-48142484D01*
X101825368Y-48142484D02*
X101896796Y-48071055D01*
X101896796Y-48071055D02*
X101968225Y-47928198D01*
X101968225Y-47928198D02*
X101968225Y-47785341D01*
X101968225Y-47785341D02*
X101896796Y-47642484D01*
X101896796Y-47642484D02*
X101825368Y-47571055D01*
X101825368Y-47571055D02*
X101682510Y-47499626D01*
X101682510Y-47499626D02*
X101396796Y-47428198D01*
X101396796Y-47428198D02*
X101253939Y-47356769D01*
X101253939Y-47356769D02*
X101182510Y-47285341D01*
X101182510Y-47285341D02*
X101111082Y-47142484D01*
X101111082Y-47142484D02*
X101111082Y-46999626D01*
X101111082Y-46999626D02*
X101182510Y-46856769D01*
X101182510Y-46856769D02*
X101253939Y-46785341D01*
X101253939Y-46785341D02*
X101396796Y-46713912D01*
X101396796Y-46713912D02*
X101753939Y-46713912D01*
X101753939Y-46713912D02*
X101968225Y-46785341D01*
X102396796Y-47213912D02*
X102968224Y-47213912D01*
X102611081Y-46713912D02*
X102611081Y-47999626D01*
X102611081Y-47999626D02*
X102682510Y-48142484D01*
X102682510Y-48142484D02*
X102825367Y-48213912D01*
X102825367Y-48213912D02*
X102968224Y-48213912D01*
X104039653Y-48142484D02*
X103896796Y-48213912D01*
X103896796Y-48213912D02*
X103611082Y-48213912D01*
X103611082Y-48213912D02*
X103468224Y-48142484D01*
X103468224Y-48142484D02*
X103396796Y-47999626D01*
X103396796Y-47999626D02*
X103396796Y-47428198D01*
X103396796Y-47428198D02*
X103468224Y-47285341D01*
X103468224Y-47285341D02*
X103611082Y-47213912D01*
X103611082Y-47213912D02*
X103896796Y-47213912D01*
X103896796Y-47213912D02*
X104039653Y-47285341D01*
X104039653Y-47285341D02*
X104111082Y-47428198D01*
X104111082Y-47428198D02*
X104111082Y-47571055D01*
X104111082Y-47571055D02*
X103396796Y-47713912D01*
X104539653Y-47213912D02*
X105111081Y-47213912D01*
X104753938Y-48213912D02*
X104753938Y-46928198D01*
X104753938Y-46928198D02*
X104825367Y-46785341D01*
X104825367Y-46785341D02*
X104968224Y-46713912D01*
X104968224Y-46713912D02*
X105111081Y-46713912D01*
X106253939Y-48213912D02*
X106253939Y-47428198D01*
X106253939Y-47428198D02*
X106182510Y-47285341D01*
X106182510Y-47285341D02*
X106039653Y-47213912D01*
X106039653Y-47213912D02*
X105753939Y-47213912D01*
X105753939Y-47213912D02*
X105611081Y-47285341D01*
X106253939Y-48142484D02*
X106111081Y-48213912D01*
X106111081Y-48213912D02*
X105753939Y-48213912D01*
X105753939Y-48213912D02*
X105611081Y-48142484D01*
X105611081Y-48142484D02*
X105539653Y-47999626D01*
X105539653Y-47999626D02*
X105539653Y-47856769D01*
X105539653Y-47856769D02*
X105611081Y-47713912D01*
X105611081Y-47713912D02*
X105753939Y-47642484D01*
X105753939Y-47642484D02*
X106111081Y-47642484D01*
X106111081Y-47642484D02*
X106253939Y-47571055D01*
X106968224Y-47213912D02*
X106968224Y-48213912D01*
X106968224Y-47356769D02*
X107039653Y-47285341D01*
X107039653Y-47285341D02*
X107182510Y-47213912D01*
X107182510Y-47213912D02*
X107396796Y-47213912D01*
X107396796Y-47213912D02*
X107539653Y-47285341D01*
X107539653Y-47285341D02*
X107611082Y-47428198D01*
X107611082Y-47428198D02*
X107611082Y-48213912D01*
X108539653Y-48213912D02*
X108396796Y-48142484D01*
X108396796Y-48142484D02*
X108325367Y-48071055D01*
X108325367Y-48071055D02*
X108253939Y-47928198D01*
X108253939Y-47928198D02*
X108253939Y-47499626D01*
X108253939Y-47499626D02*
X108325367Y-47356769D01*
X108325367Y-47356769D02*
X108396796Y-47285341D01*
X108396796Y-47285341D02*
X108539653Y-47213912D01*
X108539653Y-47213912D02*
X108753939Y-47213912D01*
X108753939Y-47213912D02*
X108896796Y-47285341D01*
X108896796Y-47285341D02*
X108968225Y-47356769D01*
X108968225Y-47356769D02*
X109039653Y-47499626D01*
X109039653Y-47499626D02*
X109039653Y-47928198D01*
X109039653Y-47928198D02*
X108968225Y-48071055D01*
X108968225Y-48071055D02*
X108896796Y-48142484D01*
X108896796Y-48142484D02*
X108753939Y-48213912D01*
X108753939Y-48213912D02*
X108539653Y-48213912D01*
X110825367Y-48213912D02*
X110825367Y-46713912D01*
X110825367Y-46713912D02*
X111682510Y-48213912D01*
X111682510Y-48213912D02*
X111682510Y-46713912D01*
X112396796Y-48213912D02*
X112396796Y-47213912D01*
X112396796Y-46713912D02*
X112325368Y-46785341D01*
X112325368Y-46785341D02*
X112396796Y-46856769D01*
X112396796Y-46856769D02*
X112468225Y-46785341D01*
X112468225Y-46785341D02*
X112396796Y-46713912D01*
X112396796Y-46713912D02*
X112396796Y-46856769D01*
X113753940Y-48142484D02*
X113611082Y-48213912D01*
X113611082Y-48213912D02*
X113325368Y-48213912D01*
X113325368Y-48213912D02*
X113182511Y-48142484D01*
X113182511Y-48142484D02*
X113111082Y-48071055D01*
X113111082Y-48071055D02*
X113039654Y-47928198D01*
X113039654Y-47928198D02*
X113039654Y-47499626D01*
X113039654Y-47499626D02*
X113111082Y-47356769D01*
X113111082Y-47356769D02*
X113182511Y-47285341D01*
X113182511Y-47285341D02*
X113325368Y-47213912D01*
X113325368Y-47213912D02*
X113611082Y-47213912D01*
X113611082Y-47213912D02*
X113753940Y-47285341D01*
X114611082Y-48213912D02*
X114468225Y-48142484D01*
X114468225Y-48142484D02*
X114396796Y-48071055D01*
X114396796Y-48071055D02*
X114325368Y-47928198D01*
X114325368Y-47928198D02*
X114325368Y-47499626D01*
X114325368Y-47499626D02*
X114396796Y-47356769D01*
X114396796Y-47356769D02*
X114468225Y-47285341D01*
X114468225Y-47285341D02*
X114611082Y-47213912D01*
X114611082Y-47213912D02*
X114825368Y-47213912D01*
X114825368Y-47213912D02*
X114968225Y-47285341D01*
X114968225Y-47285341D02*
X115039654Y-47356769D01*
X115039654Y-47356769D02*
X115111082Y-47499626D01*
X115111082Y-47499626D02*
X115111082Y-47928198D01*
X115111082Y-47928198D02*
X115039654Y-48071055D01*
X115039654Y-48071055D02*
X114968225Y-48142484D01*
X114968225Y-48142484D02*
X114825368Y-48213912D01*
X114825368Y-48213912D02*
X114611082Y-48213912D01*
X115753939Y-48213912D02*
X115753939Y-47213912D01*
X115753939Y-47499626D02*
X115825368Y-47356769D01*
X115825368Y-47356769D02*
X115896797Y-47285341D01*
X115896797Y-47285341D02*
X116039654Y-47213912D01*
X116039654Y-47213912D02*
X116182511Y-47213912D01*
X117325368Y-48213912D02*
X117325368Y-47428198D01*
X117325368Y-47428198D02*
X117253939Y-47285341D01*
X117253939Y-47285341D02*
X117111082Y-47213912D01*
X117111082Y-47213912D02*
X116825368Y-47213912D01*
X116825368Y-47213912D02*
X116682510Y-47285341D01*
X117325368Y-48142484D02*
X117182510Y-48213912D01*
X117182510Y-48213912D02*
X116825368Y-48213912D01*
X116825368Y-48213912D02*
X116682510Y-48142484D01*
X116682510Y-48142484D02*
X116611082Y-47999626D01*
X116611082Y-47999626D02*
X116611082Y-47856769D01*
X116611082Y-47856769D02*
X116682510Y-47713912D01*
X116682510Y-47713912D02*
X116825368Y-47642484D01*
X116825368Y-47642484D02*
X117182510Y-47642484D01*
X117182510Y-47642484D02*
X117325368Y-47571055D01*
X101182510Y-50628828D02*
X101182510Y-49128828D01*
X101182510Y-49843114D02*
X102039653Y-49843114D01*
X102039653Y-50628828D02*
X102039653Y-49128828D01*
X102682511Y-50557400D02*
X102896797Y-50628828D01*
X102896797Y-50628828D02*
X103253939Y-50628828D01*
X103253939Y-50628828D02*
X103396797Y-50557400D01*
X103396797Y-50557400D02*
X103468225Y-50485971D01*
X103468225Y-50485971D02*
X103539654Y-50343114D01*
X103539654Y-50343114D02*
X103539654Y-50200257D01*
X103539654Y-50200257D02*
X103468225Y-50057400D01*
X103468225Y-50057400D02*
X103396797Y-49985971D01*
X103396797Y-49985971D02*
X103253939Y-49914542D01*
X103253939Y-49914542D02*
X102968225Y-49843114D01*
X102968225Y-49843114D02*
X102825368Y-49771685D01*
X102825368Y-49771685D02*
X102753939Y-49700257D01*
X102753939Y-49700257D02*
X102682511Y-49557400D01*
X102682511Y-49557400D02*
X102682511Y-49414542D01*
X102682511Y-49414542D02*
X102753939Y-49271685D01*
X102753939Y-49271685D02*
X102825368Y-49200257D01*
X102825368Y-49200257D02*
X102968225Y-49128828D01*
X102968225Y-49128828D02*
X103325368Y-49128828D01*
X103325368Y-49128828D02*
X103539654Y-49200257D01*
X104896796Y-50628828D02*
X104182510Y-50628828D01*
X104182510Y-50628828D02*
X104182510Y-49128828D01*
X105396796Y-49128828D02*
X105396796Y-50343114D01*
X105396796Y-50343114D02*
X105468225Y-50485971D01*
X105468225Y-50485971D02*
X105539654Y-50557400D01*
X105539654Y-50557400D02*
X105682511Y-50628828D01*
X105682511Y-50628828D02*
X105968225Y-50628828D01*
X105968225Y-50628828D02*
X106111082Y-50557400D01*
X106111082Y-50557400D02*
X106182511Y-50485971D01*
X106182511Y-50485971D02*
X106253939Y-50343114D01*
X106253939Y-50343114D02*
X106253939Y-49128828D01*
X107896797Y-49128828D02*
X108753940Y-49128828D01*
X108325368Y-50628828D02*
X108325368Y-49128828D01*
X110468225Y-50628828D02*
X110396797Y-50628828D01*
X110396797Y-50628828D02*
X110253939Y-50557400D01*
X110253939Y-50557400D02*
X110039654Y-50343114D01*
X110039654Y-50343114D02*
X109682511Y-49914542D01*
X109682511Y-49914542D02*
X109539654Y-49700257D01*
X109539654Y-49700257D02*
X109468225Y-49485971D01*
X109468225Y-49485971D02*
X109468225Y-49343114D01*
X109468225Y-49343114D02*
X109539654Y-49200257D01*
X109539654Y-49200257D02*
X109682511Y-49128828D01*
X109682511Y-49128828D02*
X109753939Y-49128828D01*
X109753939Y-49128828D02*
X109896797Y-49200257D01*
X109896797Y-49200257D02*
X109968225Y-49343114D01*
X109968225Y-49343114D02*
X109968225Y-49414542D01*
X109968225Y-49414542D02*
X109896797Y-49557400D01*
X109896797Y-49557400D02*
X109825368Y-49628828D01*
X109825368Y-49628828D02*
X109396797Y-49914542D01*
X109396797Y-49914542D02*
X109325368Y-49985971D01*
X109325368Y-49985971D02*
X109253939Y-50128828D01*
X109253939Y-50128828D02*
X109253939Y-50343114D01*
X109253939Y-50343114D02*
X109325368Y-50485971D01*
X109325368Y-50485971D02*
X109396797Y-50557400D01*
X109396797Y-50557400D02*
X109539654Y-50628828D01*
X109539654Y-50628828D02*
X109753939Y-50628828D01*
X109753939Y-50628828D02*
X109896797Y-50557400D01*
X109896797Y-50557400D02*
X109968225Y-50485971D01*
X109968225Y-50485971D02*
X110182511Y-50200257D01*
X110182511Y-50200257D02*
X110253939Y-49985971D01*
X110253939Y-49985971D02*
X110253939Y-49843114D01*
X111039654Y-50200257D02*
X111753940Y-50200257D01*
X110896797Y-50628828D02*
X111396797Y-49128828D01*
X111396797Y-49128828D02*
X111896797Y-50628828D01*
X113896796Y-51128828D02*
X113896796Y-48985971D01*
X115896796Y-49128828D02*
X116396796Y-50628828D01*
X116396796Y-50628828D02*
X116896796Y-49128828D01*
X118182510Y-50628828D02*
X117325367Y-50628828D01*
X117753938Y-50628828D02*
X117753938Y-49128828D01*
X117753938Y-49128828D02*
X117611081Y-49343114D01*
X117611081Y-49343114D02*
X117468224Y-49485971D01*
X117468224Y-49485971D02*
X117325367Y-49557400D01*
X118825366Y-50485971D02*
X118896795Y-50557400D01*
X118896795Y-50557400D02*
X118825366Y-50628828D01*
X118825366Y-50628828D02*
X118753938Y-50557400D01*
X118753938Y-50557400D02*
X118825366Y-50485971D01*
X118825366Y-50485971D02*
X118825366Y-50628828D01*
X119825367Y-49128828D02*
X119968224Y-49128828D01*
X119968224Y-49128828D02*
X120111081Y-49200257D01*
X120111081Y-49200257D02*
X120182510Y-49271685D01*
X120182510Y-49271685D02*
X120253938Y-49414542D01*
X120253938Y-49414542D02*
X120325367Y-49700257D01*
X120325367Y-49700257D02*
X120325367Y-50057400D01*
X120325367Y-50057400D02*
X120253938Y-50343114D01*
X120253938Y-50343114D02*
X120182510Y-50485971D01*
X120182510Y-50485971D02*
X120111081Y-50557400D01*
X120111081Y-50557400D02*
X119968224Y-50628828D01*
X119968224Y-50628828D02*
X119825367Y-50628828D01*
X119825367Y-50628828D02*
X119682510Y-50557400D01*
X119682510Y-50557400D02*
X119611081Y-50485971D01*
X119611081Y-50485971D02*
X119539652Y-50343114D01*
X119539652Y-50343114D02*
X119468224Y-50057400D01*
X119468224Y-50057400D02*
X119468224Y-49700257D01*
X119468224Y-49700257D02*
X119539652Y-49414542D01*
X119539652Y-49414542D02*
X119611081Y-49271685D01*
X119611081Y-49271685D02*
X119682510Y-49200257D01*
X119682510Y-49200257D02*
X119825367Y-49128828D01*
D11*
X102582680Y-31649129D02*
X102034580Y-31904713D01*
X102034580Y-31904713D02*
X101497855Y-30753702D01*
X102685208Y-30867311D02*
X103068879Y-30688402D01*
X103514451Y-31214638D02*
X102966350Y-31470221D01*
X102966350Y-31470221D02*
X102429625Y-30319210D01*
X102429625Y-30319210D02*
X102977725Y-30063627D01*
X104007741Y-30984612D02*
X103471016Y-29833602D01*
X103471016Y-29833602D02*
X103745066Y-29705810D01*
X103745066Y-29705810D02*
X103935055Y-29683945D01*
X103935055Y-29683945D02*
X104095792Y-29742448D01*
X104095792Y-29742448D02*
X104201718Y-29826510D01*
X104201718Y-29826510D02*
X104358762Y-30020192D01*
X104358762Y-30020192D02*
X104435437Y-30184622D01*
X104435437Y-30184622D02*
X104482860Y-30429421D01*
X104482860Y-30429421D02*
X104479167Y-30564599D01*
X104479167Y-30564599D02*
X104420663Y-30725336D01*
X104420663Y-30725336D02*
X104281792Y-30856821D01*
X104281792Y-30856821D02*
X104007741Y-30984612D01*
X104512407Y-29347993D02*
X105279748Y-28990176D01*
X105279748Y-28990176D02*
X105323182Y-30371212D01*
X103958753Y-83608111D02*
X104506853Y-83863695D01*
X104506853Y-83863695D02*
X103970128Y-85014706D01*
X103293941Y-84032114D02*
X102910270Y-83853205D01*
X103026982Y-83173620D02*
X103575082Y-83429203D01*
X103575082Y-83429203D02*
X103038357Y-84580214D01*
X103038357Y-84580214D02*
X102490257Y-84324631D01*
X102533691Y-82943594D02*
X101996966Y-84094605D01*
X101996966Y-84094605D02*
X101722916Y-83966814D01*
X101722916Y-83966814D02*
X101584044Y-83835329D01*
X101584044Y-83835329D02*
X101525541Y-83674592D01*
X101525541Y-83674592D02*
X101521847Y-83539413D01*
X101521847Y-83539413D02*
X101569271Y-83294615D01*
X101569271Y-83294615D02*
X101645946Y-83130185D01*
X101645946Y-83130185D02*
X101802989Y-82936503D01*
X101802989Y-82936503D02*
X101908916Y-82852441D01*
X101908916Y-82852441D02*
X102069653Y-82793938D01*
X102069653Y-82793938D02*
X102259641Y-82815803D01*
X102259641Y-82815803D02*
X102533691Y-82943594D01*
X100531573Y-82944185D02*
X100889390Y-82176844D01*
X100601157Y-83510457D02*
X101258582Y-82816098D01*
X101258582Y-82816098D02*
X100546052Y-82483839D01*
X140708111Y-67397246D02*
X140963695Y-66849146D01*
X140963695Y-66849146D02*
X142114706Y-67385871D01*
X141132114Y-68062058D02*
X140953205Y-68445729D01*
X140273620Y-68329017D02*
X140529203Y-67780917D01*
X140529203Y-67780917D02*
X141680214Y-68317642D01*
X141680214Y-68317642D02*
X141424631Y-68865742D01*
X140043594Y-68822308D02*
X141194605Y-69359033D01*
X141194605Y-69359033D02*
X141066814Y-69633083D01*
X141066814Y-69633083D02*
X140935329Y-69771955D01*
X140935329Y-69771955D02*
X140774592Y-69830458D01*
X140774592Y-69830458D02*
X140639413Y-69834152D01*
X140639413Y-69834152D02*
X140394615Y-69786728D01*
X140394615Y-69786728D02*
X140230185Y-69710053D01*
X140230185Y-69710053D02*
X140036503Y-69553010D01*
X140036503Y-69553010D02*
X139952441Y-69447083D01*
X139952441Y-69447083D02*
X139893938Y-69286346D01*
X139893938Y-69286346D02*
X139915803Y-69096358D01*
X139915803Y-69096358D02*
X140043594Y-68822308D01*
X140573818Y-70404117D02*
X140603070Y-70484485D01*
X140603070Y-70484485D02*
X140606763Y-70619664D01*
X140606763Y-70619664D02*
X140478972Y-70893714D01*
X140478972Y-70893714D02*
X140373045Y-70977776D01*
X140373045Y-70977776D02*
X140292677Y-71007028D01*
X140292677Y-71007028D02*
X140157498Y-71010721D01*
X140157498Y-71010721D02*
X140047878Y-70959604D01*
X140047878Y-70959604D02*
X139909006Y-70828119D01*
X139909006Y-70828119D02*
X139557986Y-69863698D01*
X139557986Y-69863698D02*
X139225727Y-70576229D01*
X140202241Y-45988946D02*
X139995401Y-45420656D01*
X139995401Y-45420656D02*
X141188810Y-44986290D01*
X140972149Y-46159224D02*
X141116938Y-46557027D01*
X140553870Y-46955039D02*
X140347030Y-46386749D01*
X140347030Y-46386749D02*
X141540439Y-45952383D01*
X141540439Y-45952383D02*
X141747280Y-46520674D01*
X140740027Y-47466501D02*
X141933437Y-47032135D01*
X141933437Y-47032135D02*
X142036857Y-47316280D01*
X142036857Y-47316280D02*
X142042080Y-47507452D01*
X142042080Y-47507452D02*
X141969791Y-47662478D01*
X141969791Y-47662478D02*
X141876817Y-47760675D01*
X141876817Y-47760675D02*
X141670185Y-47900240D01*
X141670185Y-47900240D02*
X141499697Y-47962293D01*
X141499697Y-47962293D02*
X141251697Y-47988200D01*
X141251697Y-47988200D02*
X141117355Y-47972739D01*
X141117355Y-47972739D02*
X140962329Y-47900449D01*
X140962329Y-47900449D02*
X140843448Y-47750646D01*
X140843448Y-47750646D02*
X140740027Y-47466501D01*
X141401918Y-49285030D02*
X141153709Y-48603082D01*
X141277813Y-48944056D02*
X142471223Y-48509690D01*
X142471223Y-48509690D02*
X142259368Y-48458084D01*
X142259368Y-48458084D02*
X142104341Y-48385794D01*
X142104341Y-48385794D02*
X142006144Y-48292820D01*
X87814779Y-47045945D02*
X87512398Y-47569685D01*
X87512398Y-47569685D02*
X86412545Y-46934685D01*
X87450332Y-46346709D02*
X87661999Y-45980092D01*
X88328826Y-46155589D02*
X88026445Y-46679328D01*
X88026445Y-46679328D02*
X86926593Y-46044328D01*
X86926593Y-46044328D02*
X87228974Y-45520589D01*
X88600969Y-45684223D02*
X87501117Y-45049223D01*
X87501117Y-45049223D02*
X87652307Y-44787354D01*
X87652307Y-44787354D02*
X87795396Y-44660470D01*
X87795396Y-44660470D02*
X87960620Y-44616199D01*
X87960620Y-44616199D02*
X88095605Y-44624301D01*
X88095605Y-44624301D02*
X88335339Y-44692879D01*
X88335339Y-44692879D02*
X88492461Y-44783594D01*
X88492461Y-44783594D02*
X88671719Y-44956920D01*
X88671719Y-44956920D02*
X88746228Y-45069770D01*
X88746228Y-45069770D02*
X88790500Y-45234994D01*
X88790500Y-45234994D02*
X88752160Y-45422354D01*
X88752160Y-45422354D02*
X88600969Y-45684223D01*
X88408260Y-43478006D02*
X88287307Y-43687502D01*
X88287307Y-43687502D02*
X88279205Y-43822487D01*
X88279205Y-43822487D02*
X88301341Y-43905099D01*
X88301341Y-43905099D02*
X88397986Y-44100562D01*
X88397986Y-44100562D02*
X88577244Y-44273888D01*
X88577244Y-44273888D02*
X88996235Y-44515793D01*
X88996235Y-44515793D02*
X89131221Y-44523895D01*
X89131221Y-44523895D02*
X89213833Y-44501759D01*
X89213833Y-44501759D02*
X89326683Y-44427249D01*
X89326683Y-44427249D02*
X89447636Y-44217754D01*
X89447636Y-44217754D02*
X89455738Y-44082768D01*
X89455738Y-44082768D02*
X89433602Y-44000156D01*
X89433602Y-44000156D02*
X89359092Y-43887306D01*
X89359092Y-43887306D02*
X89097223Y-43736115D01*
X89097223Y-43736115D02*
X88962237Y-43728013D01*
X88962237Y-43728013D02*
X88879625Y-43750149D01*
X88879625Y-43750149D02*
X88766775Y-43824658D01*
X88766775Y-43824658D02*
X88645822Y-44034154D01*
X88645822Y-44034154D02*
X88637720Y-44169140D01*
X88637720Y-44169140D02*
X88659856Y-44251752D01*
X88659856Y-44251752D02*
X88734366Y-44364602D01*
D12*
X93661333Y-42307818D02*
X93328000Y-41831627D01*
X93089905Y-42307818D02*
X93089905Y-41307818D01*
X93089905Y-41307818D02*
X93470857Y-41307818D01*
X93470857Y-41307818D02*
X93566095Y-41355437D01*
X93566095Y-41355437D02*
X93613714Y-41403056D01*
X93613714Y-41403056D02*
X93661333Y-41498294D01*
X93661333Y-41498294D02*
X93661333Y-41641151D01*
X93661333Y-41641151D02*
X93613714Y-41736389D01*
X93613714Y-41736389D02*
X93566095Y-41784008D01*
X93566095Y-41784008D02*
X93470857Y-41831627D01*
X93470857Y-41831627D02*
X93089905Y-41831627D01*
X94232762Y-41736389D02*
X94137524Y-41688770D01*
X94137524Y-41688770D02*
X94089905Y-41641151D01*
X94089905Y-41641151D02*
X94042286Y-41545913D01*
X94042286Y-41545913D02*
X94042286Y-41498294D01*
X94042286Y-41498294D02*
X94089905Y-41403056D01*
X94089905Y-41403056D02*
X94137524Y-41355437D01*
X94137524Y-41355437D02*
X94232762Y-41307818D01*
X94232762Y-41307818D02*
X94423238Y-41307818D01*
X94423238Y-41307818D02*
X94518476Y-41355437D01*
X94518476Y-41355437D02*
X94566095Y-41403056D01*
X94566095Y-41403056D02*
X94613714Y-41498294D01*
X94613714Y-41498294D02*
X94613714Y-41545913D01*
X94613714Y-41545913D02*
X94566095Y-41641151D01*
X94566095Y-41641151D02*
X94518476Y-41688770D01*
X94518476Y-41688770D02*
X94423238Y-41736389D01*
X94423238Y-41736389D02*
X94232762Y-41736389D01*
X94232762Y-41736389D02*
X94137524Y-41784008D01*
X94137524Y-41784008D02*
X94089905Y-41831627D01*
X94089905Y-41831627D02*
X94042286Y-41926865D01*
X94042286Y-41926865D02*
X94042286Y-42117341D01*
X94042286Y-42117341D02*
X94089905Y-42212579D01*
X94089905Y-42212579D02*
X94137524Y-42260199D01*
X94137524Y-42260199D02*
X94232762Y-42307818D01*
X94232762Y-42307818D02*
X94423238Y-42307818D01*
X94423238Y-42307818D02*
X94518476Y-42260199D01*
X94518476Y-42260199D02*
X94566095Y-42212579D01*
X94566095Y-42212579D02*
X94613714Y-42117341D01*
X94613714Y-42117341D02*
X94613714Y-41926865D01*
X94613714Y-41926865D02*
X94566095Y-41831627D01*
X94566095Y-41831627D02*
X94518476Y-41784008D01*
X94518476Y-41784008D02*
X94423238Y-41736389D01*
D11*
X88253758Y-68667053D02*
X88460598Y-69235343D01*
X88460598Y-69235343D02*
X87267189Y-69669709D01*
X87483850Y-68496775D02*
X87339061Y-68098972D01*
X87902129Y-67700960D02*
X88108969Y-68269250D01*
X88108969Y-68269250D02*
X86915560Y-68703616D01*
X86915560Y-68703616D02*
X86708719Y-68135325D01*
X87715972Y-67189498D02*
X86522562Y-67623864D01*
X86522562Y-67623864D02*
X86419142Y-67339719D01*
X86419142Y-67339719D02*
X86413919Y-67148547D01*
X86413919Y-67148547D02*
X86486208Y-66993521D01*
X86486208Y-66993521D02*
X86579182Y-66895324D01*
X86579182Y-66895324D02*
X86785814Y-66755759D01*
X86785814Y-66755759D02*
X86956302Y-66693706D01*
X86956302Y-66693706D02*
X87204302Y-66667799D01*
X87204302Y-66667799D02*
X87338644Y-66683260D01*
X87338644Y-66683260D02*
X87493670Y-66755550D01*
X87493670Y-66755550D02*
X87612551Y-66905353D01*
X87612551Y-66905353D02*
X87715972Y-67189498D01*
X85881356Y-65862164D02*
X86088197Y-66430454D01*
X86088197Y-66430454D02*
X86677171Y-66280442D01*
X86677171Y-66280442D02*
X86599658Y-66244297D01*
X86599658Y-66244297D02*
X86501461Y-66151323D01*
X86501461Y-66151323D02*
X86398040Y-65867178D01*
X86398040Y-65867178D02*
X86413501Y-65732836D01*
X86413501Y-65732836D02*
X86449646Y-65655323D01*
X86449646Y-65655323D02*
X86542620Y-65557126D01*
X86542620Y-65557126D02*
X86826765Y-65453705D01*
X86826765Y-65453705D02*
X86961107Y-65469166D01*
X86961107Y-65469166D02*
X87038620Y-65505311D01*
X87038620Y-65505311D02*
X87136818Y-65598285D01*
X87136818Y-65598285D02*
X87240238Y-65882430D01*
X87240238Y-65882430D02*
X87224777Y-66016773D01*
X87224777Y-66016773D02*
X87188632Y-66094286D01*
X88988237Y-50202318D02*
X88988237Y-48932318D01*
X90318714Y-50081365D02*
X90258238Y-50141842D01*
X90258238Y-50141842D02*
X90076809Y-50202318D01*
X90076809Y-50202318D02*
X89955857Y-50202318D01*
X89955857Y-50202318D02*
X89774428Y-50141842D01*
X89774428Y-50141842D02*
X89653476Y-50020889D01*
X89653476Y-50020889D02*
X89592999Y-49899937D01*
X89592999Y-49899937D02*
X89532523Y-49658032D01*
X89532523Y-49658032D02*
X89532523Y-49476603D01*
X89532523Y-49476603D02*
X89592999Y-49234699D01*
X89592999Y-49234699D02*
X89653476Y-49113746D01*
X89653476Y-49113746D02*
X89774428Y-48992794D01*
X89774428Y-48992794D02*
X89955857Y-48932318D01*
X89955857Y-48932318D02*
X90076809Y-48932318D01*
X90076809Y-48932318D02*
X90258238Y-48992794D01*
X90258238Y-48992794D02*
X90318714Y-49053270D01*
X90742047Y-48932318D02*
X91528238Y-48932318D01*
X91528238Y-48932318D02*
X91104904Y-49416127D01*
X91104904Y-49416127D02*
X91286333Y-49416127D01*
X91286333Y-49416127D02*
X91407285Y-49476603D01*
X91407285Y-49476603D02*
X91467761Y-49537080D01*
X91467761Y-49537080D02*
X91528238Y-49658032D01*
X91528238Y-49658032D02*
X91528238Y-49960413D01*
X91528238Y-49960413D02*
X91467761Y-50081365D01*
X91467761Y-50081365D02*
X91407285Y-50141842D01*
X91407285Y-50141842D02*
X91286333Y-50202318D01*
X91286333Y-50202318D02*
X90923476Y-50202318D01*
X90923476Y-50202318D02*
X90802523Y-50141842D01*
X90802523Y-50141842D02*
X90742047Y-50081365D01*
D12*
X98628834Y-55812579D02*
X98581215Y-55860199D01*
X98581215Y-55860199D02*
X98438358Y-55907818D01*
X98438358Y-55907818D02*
X98343120Y-55907818D01*
X98343120Y-55907818D02*
X98200263Y-55860199D01*
X98200263Y-55860199D02*
X98105025Y-55764960D01*
X98105025Y-55764960D02*
X98057406Y-55669722D01*
X98057406Y-55669722D02*
X98009787Y-55479246D01*
X98009787Y-55479246D02*
X98009787Y-55336389D01*
X98009787Y-55336389D02*
X98057406Y-55145913D01*
X98057406Y-55145913D02*
X98105025Y-55050675D01*
X98105025Y-55050675D02*
X98200263Y-54955437D01*
X98200263Y-54955437D02*
X98343120Y-54907818D01*
X98343120Y-54907818D02*
X98438358Y-54907818D01*
X98438358Y-54907818D02*
X98581215Y-54955437D01*
X98581215Y-54955437D02*
X98628834Y-55003056D01*
X98962168Y-54907818D02*
X99581215Y-54907818D01*
X99581215Y-54907818D02*
X99247882Y-55288770D01*
X99247882Y-55288770D02*
X99390739Y-55288770D01*
X99390739Y-55288770D02*
X99485977Y-55336389D01*
X99485977Y-55336389D02*
X99533596Y-55384008D01*
X99533596Y-55384008D02*
X99581215Y-55479246D01*
X99581215Y-55479246D02*
X99581215Y-55717341D01*
X99581215Y-55717341D02*
X99533596Y-55812579D01*
X99533596Y-55812579D02*
X99485977Y-55860199D01*
X99485977Y-55860199D02*
X99390739Y-55907818D01*
X99390739Y-55907818D02*
X99105025Y-55907818D01*
X99105025Y-55907818D02*
X99009787Y-55860199D01*
X99009787Y-55860199D02*
X98962168Y-55812579D01*
X112361333Y-86582819D02*
X112028000Y-86106628D01*
X111789905Y-86582819D02*
X111789905Y-85582819D01*
X111789905Y-85582819D02*
X112170857Y-85582819D01*
X112170857Y-85582819D02*
X112266095Y-85630438D01*
X112266095Y-85630438D02*
X112313714Y-85678057D01*
X112313714Y-85678057D02*
X112361333Y-85773295D01*
X112361333Y-85773295D02*
X112361333Y-85916152D01*
X112361333Y-85916152D02*
X112313714Y-86011390D01*
X112313714Y-86011390D02*
X112266095Y-86059009D01*
X112266095Y-86059009D02*
X112170857Y-86106628D01*
X112170857Y-86106628D02*
X111789905Y-86106628D01*
X112742286Y-85678057D02*
X112789905Y-85630438D01*
X112789905Y-85630438D02*
X112885143Y-85582819D01*
X112885143Y-85582819D02*
X113123238Y-85582819D01*
X113123238Y-85582819D02*
X113218476Y-85630438D01*
X113218476Y-85630438D02*
X113266095Y-85678057D01*
X113266095Y-85678057D02*
X113313714Y-85773295D01*
X113313714Y-85773295D02*
X113313714Y-85868533D01*
X113313714Y-85868533D02*
X113266095Y-86011390D01*
X113266095Y-86011390D02*
X112694667Y-86582819D01*
X112694667Y-86582819D02*
X113313714Y-86582819D01*
X95561333Y-42307818D02*
X95228000Y-41831627D01*
X94989905Y-42307818D02*
X94989905Y-41307818D01*
X94989905Y-41307818D02*
X95370857Y-41307818D01*
X95370857Y-41307818D02*
X95466095Y-41355437D01*
X95466095Y-41355437D02*
X95513714Y-41403056D01*
X95513714Y-41403056D02*
X95561333Y-41498294D01*
X95561333Y-41498294D02*
X95561333Y-41641151D01*
X95561333Y-41641151D02*
X95513714Y-41736389D01*
X95513714Y-41736389D02*
X95466095Y-41784008D01*
X95466095Y-41784008D02*
X95370857Y-41831627D01*
X95370857Y-41831627D02*
X94989905Y-41831627D01*
X95894667Y-41307818D02*
X96561333Y-41307818D01*
X96561333Y-41307818D02*
X96132762Y-42307818D01*
D11*
X125767053Y-83102241D02*
X126335343Y-82895401D01*
X126335343Y-82895401D02*
X126769709Y-84088810D01*
X125596775Y-83872149D02*
X125198972Y-84016938D01*
X124800960Y-83453870D02*
X125369250Y-83247030D01*
X125369250Y-83247030D02*
X125803616Y-84440439D01*
X125803616Y-84440439D02*
X125235325Y-84647280D01*
X124289498Y-83640027D02*
X124723864Y-84833437D01*
X124723864Y-84833437D02*
X124439719Y-84936857D01*
X124439719Y-84936857D02*
X124248547Y-84942080D01*
X124248547Y-84942080D02*
X124093521Y-84869791D01*
X124093521Y-84869791D02*
X123995324Y-84776817D01*
X123995324Y-84776817D02*
X123855759Y-84570185D01*
X123855759Y-84570185D02*
X123793706Y-84399697D01*
X123793706Y-84399697D02*
X123767799Y-84151697D01*
X123767799Y-84151697D02*
X123783260Y-84017355D01*
X123783260Y-84017355D02*
X123855550Y-83862329D01*
X123855550Y-83862329D02*
X124005353Y-83743448D01*
X124005353Y-83743448D02*
X124289498Y-83640027D01*
X123644112Y-85226434D02*
X122905335Y-85495327D01*
X122905335Y-85495327D02*
X123137665Y-84895907D01*
X123137665Y-84895907D02*
X122967178Y-84957959D01*
X122967178Y-84957959D02*
X122832836Y-84942498D01*
X122832836Y-84942498D02*
X122755323Y-84906353D01*
X122755323Y-84906353D02*
X122657126Y-84813379D01*
X122657126Y-84813379D02*
X122553705Y-84529234D01*
X122553705Y-84529234D02*
X122569166Y-84394892D01*
X122569166Y-84394892D02*
X122605311Y-84317379D01*
X122605311Y-84317379D02*
X122698285Y-84219181D01*
X122698285Y-84219181D02*
X123039259Y-84095077D01*
X123039259Y-84095077D02*
X123173602Y-84110538D01*
X123173602Y-84110538D02*
X123251115Y-84146683D01*
D12*
X93461333Y-58287580D02*
X93413714Y-58335200D01*
X93413714Y-58335200D02*
X93270857Y-58382819D01*
X93270857Y-58382819D02*
X93175619Y-58382819D01*
X93175619Y-58382819D02*
X93032762Y-58335200D01*
X93032762Y-58335200D02*
X92937524Y-58239961D01*
X92937524Y-58239961D02*
X92889905Y-58144723D01*
X92889905Y-58144723D02*
X92842286Y-57954247D01*
X92842286Y-57954247D02*
X92842286Y-57811390D01*
X92842286Y-57811390D02*
X92889905Y-57620914D01*
X92889905Y-57620914D02*
X92937524Y-57525676D01*
X92937524Y-57525676D02*
X93032762Y-57430438D01*
X93032762Y-57430438D02*
X93175619Y-57382819D01*
X93175619Y-57382819D02*
X93270857Y-57382819D01*
X93270857Y-57382819D02*
X93413714Y-57430438D01*
X93413714Y-57430438D02*
X93461333Y-57478057D01*
X93842286Y-57478057D02*
X93889905Y-57430438D01*
X93889905Y-57430438D02*
X93985143Y-57382819D01*
X93985143Y-57382819D02*
X94223238Y-57382819D01*
X94223238Y-57382819D02*
X94318476Y-57430438D01*
X94318476Y-57430438D02*
X94366095Y-57478057D01*
X94366095Y-57478057D02*
X94413714Y-57573295D01*
X94413714Y-57573295D02*
X94413714Y-57668533D01*
X94413714Y-57668533D02*
X94366095Y-57811390D01*
X94366095Y-57811390D02*
X93794667Y-58382819D01*
X93794667Y-58382819D02*
X94413714Y-58382819D01*
D11*
X124497246Y-31047888D02*
X123949146Y-30792304D01*
X123949146Y-30792304D02*
X124485871Y-29641293D01*
X125162058Y-30623885D02*
X125545729Y-30802794D01*
X125429017Y-31482379D02*
X124880917Y-31226796D01*
X124880917Y-31226796D02*
X125417642Y-30075785D01*
X125417642Y-30075785D02*
X125965742Y-30331368D01*
X125922308Y-31712405D02*
X126459033Y-30561394D01*
X126459033Y-30561394D02*
X126733083Y-30689185D01*
X126733083Y-30689185D02*
X126871955Y-30820670D01*
X126871955Y-30820670D02*
X126930458Y-30981407D01*
X126930458Y-30981407D02*
X126934152Y-31116586D01*
X126934152Y-31116586D02*
X126886728Y-31361384D01*
X126886728Y-31361384D02*
X126810053Y-31525814D01*
X126810053Y-31525814D02*
X126653010Y-31719496D01*
X126653010Y-31719496D02*
X126547083Y-31803558D01*
X126547083Y-31803558D02*
X126386346Y-31862061D01*
X126386346Y-31862061D02*
X126196358Y-31840196D01*
X126196358Y-31840196D02*
X125922308Y-31712405D01*
X127544449Y-31668084D02*
X127460387Y-31562158D01*
X127460387Y-31562158D02*
X127431135Y-31481789D01*
X127431135Y-31481789D02*
X127427442Y-31346611D01*
X127427442Y-31346611D02*
X127453000Y-31291801D01*
X127453000Y-31291801D02*
X127558927Y-31207739D01*
X127558927Y-31207739D02*
X127639295Y-31178487D01*
X127639295Y-31178487D02*
X127774474Y-31174794D01*
X127774474Y-31174794D02*
X127993714Y-31277027D01*
X127993714Y-31277027D02*
X128077776Y-31382954D01*
X128077776Y-31382954D02*
X128107028Y-31463322D01*
X128107028Y-31463322D02*
X128110721Y-31598501D01*
X128110721Y-31598501D02*
X128085163Y-31653311D01*
X128085163Y-31653311D02*
X127979236Y-31737373D01*
X127979236Y-31737373D02*
X127898867Y-31766624D01*
X127898867Y-31766624D02*
X127763689Y-31770318D01*
X127763689Y-31770318D02*
X127544449Y-31668084D01*
X127544449Y-31668084D02*
X127409270Y-31671778D01*
X127409270Y-31671778D02*
X127328902Y-31701029D01*
X127328902Y-31701029D02*
X127222975Y-31785091D01*
X127222975Y-31785091D02*
X127120742Y-32004331D01*
X127120742Y-32004331D02*
X127124435Y-32139510D01*
X127124435Y-32139510D02*
X127153687Y-32219878D01*
X127153687Y-32219878D02*
X127237749Y-32325805D01*
X127237749Y-32325805D02*
X127456989Y-32428038D01*
X127456989Y-32428038D02*
X127592167Y-32424345D01*
X127592167Y-32424345D02*
X127672536Y-32395093D01*
X127672536Y-32395093D02*
X127778462Y-32311031D01*
X127778462Y-32311031D02*
X127880696Y-32091791D01*
X127880696Y-32091791D02*
X127877002Y-31956613D01*
X127877002Y-31956613D02*
X127847751Y-31876244D01*
X127847751Y-31876244D02*
X127763689Y-31770318D01*
D12*
X115361333Y-86582819D02*
X115028000Y-86106628D01*
X114789905Y-86582819D02*
X114789905Y-85582819D01*
X114789905Y-85582819D02*
X115170857Y-85582819D01*
X115170857Y-85582819D02*
X115266095Y-85630438D01*
X115266095Y-85630438D02*
X115313714Y-85678057D01*
X115313714Y-85678057D02*
X115361333Y-85773295D01*
X115361333Y-85773295D02*
X115361333Y-85916152D01*
X115361333Y-85916152D02*
X115313714Y-86011390D01*
X115313714Y-86011390D02*
X115266095Y-86059009D01*
X115266095Y-86059009D02*
X115170857Y-86106628D01*
X115170857Y-86106628D02*
X114789905Y-86106628D01*
X116313714Y-86582819D02*
X115742286Y-86582819D01*
X116028000Y-86582819D02*
X116028000Y-85582819D01*
X116028000Y-85582819D02*
X115932762Y-85725676D01*
X115932762Y-85725676D02*
X115837524Y-85820914D01*
X115837524Y-85820914D02*
X115742286Y-85868533D01*
D11*
X112764904Y-55002318D02*
X112764904Y-53732318D01*
X112764904Y-53732318D02*
X113188238Y-54639461D01*
X113188238Y-54639461D02*
X113611571Y-53732318D01*
X113611571Y-53732318D02*
X113611571Y-55002318D01*
X114216333Y-55002318D02*
X114216333Y-53732318D01*
X114942048Y-55002318D02*
X114397762Y-54276603D01*
X114942048Y-53732318D02*
X114216333Y-54458032D01*
X116151572Y-55002318D02*
X115425857Y-55002318D01*
X115788714Y-55002318D02*
X115788714Y-53732318D01*
X115788714Y-53732318D02*
X115667762Y-53913746D01*
X115667762Y-53913746D02*
X115546810Y-54034699D01*
X115546810Y-54034699D02*
X115425857Y-54095175D01*
D12*
X96061333Y-56428580D02*
X96013714Y-56476200D01*
X96013714Y-56476200D02*
X95870857Y-56523819D01*
X95870857Y-56523819D02*
X95775619Y-56523819D01*
X95775619Y-56523819D02*
X95632762Y-56476200D01*
X95632762Y-56476200D02*
X95537524Y-56380961D01*
X95537524Y-56380961D02*
X95489905Y-56285723D01*
X95489905Y-56285723D02*
X95442286Y-56095247D01*
X95442286Y-56095247D02*
X95442286Y-55952390D01*
X95442286Y-55952390D02*
X95489905Y-55761914D01*
X95489905Y-55761914D02*
X95537524Y-55666676D01*
X95537524Y-55666676D02*
X95632762Y-55571438D01*
X95632762Y-55571438D02*
X95775619Y-55523819D01*
X95775619Y-55523819D02*
X95870857Y-55523819D01*
X95870857Y-55523819D02*
X96013714Y-55571438D01*
X96013714Y-55571438D02*
X96061333Y-55619057D01*
X96918476Y-55857152D02*
X96918476Y-56523819D01*
X96680381Y-55476200D02*
X96442286Y-56190485D01*
X96442286Y-56190485D02*
X97061333Y-56190485D01*
X114166334Y-62087580D02*
X114118715Y-62135200D01*
X114118715Y-62135200D02*
X113975858Y-62182819D01*
X113975858Y-62182819D02*
X113880620Y-62182819D01*
X113880620Y-62182819D02*
X113737763Y-62135200D01*
X113737763Y-62135200D02*
X113642525Y-62039961D01*
X113642525Y-62039961D02*
X113594906Y-61944723D01*
X113594906Y-61944723D02*
X113547287Y-61754247D01*
X113547287Y-61754247D02*
X113547287Y-61611390D01*
X113547287Y-61611390D02*
X113594906Y-61420914D01*
X113594906Y-61420914D02*
X113642525Y-61325676D01*
X113642525Y-61325676D02*
X113737763Y-61230438D01*
X113737763Y-61230438D02*
X113880620Y-61182819D01*
X113880620Y-61182819D02*
X113975858Y-61182819D01*
X113975858Y-61182819D02*
X114118715Y-61230438D01*
X114118715Y-61230438D02*
X114166334Y-61278057D01*
X114642525Y-62182819D02*
X114833001Y-62182819D01*
X114833001Y-62182819D02*
X114928239Y-62135200D01*
X114928239Y-62135200D02*
X114975858Y-62087580D01*
X114975858Y-62087580D02*
X115071096Y-61944723D01*
X115071096Y-61944723D02*
X115118715Y-61754247D01*
X115118715Y-61754247D02*
X115118715Y-61373295D01*
X115118715Y-61373295D02*
X115071096Y-61278057D01*
X115071096Y-61278057D02*
X115023477Y-61230438D01*
X115023477Y-61230438D02*
X114928239Y-61182819D01*
X114928239Y-61182819D02*
X114737763Y-61182819D01*
X114737763Y-61182819D02*
X114642525Y-61230438D01*
X114642525Y-61230438D02*
X114594906Y-61278057D01*
X114594906Y-61278057D02*
X114547287Y-61373295D01*
X114547287Y-61373295D02*
X114547287Y-61611390D01*
X114547287Y-61611390D02*
X114594906Y-61706628D01*
X114594906Y-61706628D02*
X114642525Y-61754247D01*
X114642525Y-61754247D02*
X114737763Y-61801866D01*
X114737763Y-61801866D02*
X114928239Y-61801866D01*
X114928239Y-61801866D02*
X115023477Y-61754247D01*
X115023477Y-61754247D02*
X115071096Y-61706628D01*
X115071096Y-61706628D02*
X115118715Y-61611390D01*
X98628833Y-46412580D02*
X98581214Y-46460200D01*
X98581214Y-46460200D02*
X98438357Y-46507819D01*
X98438357Y-46507819D02*
X98343119Y-46507819D01*
X98343119Y-46507819D02*
X98200262Y-46460200D01*
X98200262Y-46460200D02*
X98105024Y-46364961D01*
X98105024Y-46364961D02*
X98057405Y-46269723D01*
X98057405Y-46269723D02*
X98009786Y-46079247D01*
X98009786Y-46079247D02*
X98009786Y-45936390D01*
X98009786Y-45936390D02*
X98057405Y-45745914D01*
X98057405Y-45745914D02*
X98105024Y-45650676D01*
X98105024Y-45650676D02*
X98200262Y-45555438D01*
X98200262Y-45555438D02*
X98343119Y-45507819D01*
X98343119Y-45507819D02*
X98438357Y-45507819D01*
X98438357Y-45507819D02*
X98581214Y-45555438D01*
X98581214Y-45555438D02*
X98628833Y-45603057D01*
X99581214Y-46507819D02*
X99009786Y-46507819D01*
X99295500Y-46507819D02*
X99295500Y-45507819D01*
X99295500Y-45507819D02*
X99200262Y-45650676D01*
X99200262Y-45650676D02*
X99105024Y-45745914D01*
X99105024Y-45745914D02*
X99009786Y-45793533D01*
D13*
%TO.C,LED7*%
X103741763Y-31714354D02*
X104738701Y-31249474D01*
X104019762Y-31364045D02*
X104376178Y-31418521D01*
X104062024Y-31454676D02*
X104240232Y-31481914D01*
X104104286Y-31545306D02*
X104282494Y-31572544D01*
X104188810Y-31726568D02*
X104019762Y-31364045D01*
X104291655Y-31237259D02*
X104460702Y-31599782D01*
X104318649Y-31886698D02*
X104626696Y-32074067D01*
X104360911Y-31977329D02*
X104536065Y-32116329D01*
X104376178Y-31418521D02*
X104188810Y-31726568D01*
X104536065Y-32116329D02*
X104487696Y-32249222D01*
X104572220Y-32430483D02*
X104318649Y-31886698D01*
X104626696Y-32074067D02*
X104572220Y-32430483D01*
%TO.C,LED4*%
X102713808Y-82741010D02*
X102882856Y-82378487D01*
X102798332Y-82559749D02*
X103154748Y-82505273D01*
X102985701Y-82867796D02*
X102798332Y-82559749D01*
X103027963Y-82777165D02*
X102934278Y-82623141D01*
X103070224Y-82686534D02*
X102976540Y-82532511D01*
X103139480Y-81946464D02*
X103447527Y-81759095D01*
X103154748Y-82505273D02*
X102985701Y-82867796D01*
X103193956Y-82302880D02*
X103139480Y-81946464D01*
X103230111Y-81988726D02*
X103363004Y-81940357D01*
X103236218Y-82212249D02*
X103230111Y-81988726D01*
X103432747Y-82855581D02*
X102435809Y-82390701D01*
X103447527Y-81759095D02*
X103193956Y-82302880D01*
%TO.C,LED2*%
X138648096Y-68087472D02*
X139191881Y-68341043D01*
X138835465Y-68395519D02*
X138648096Y-68087472D01*
X138877727Y-68304888D02*
X138829358Y-68171995D01*
X139101250Y-68298781D02*
X138877727Y-68304888D01*
X139191881Y-68341043D02*
X138835465Y-68395519D01*
X139394274Y-68380251D02*
X139756797Y-68549298D01*
X139448750Y-68736667D02*
X139394274Y-68380251D01*
X139575535Y-68464775D02*
X139421512Y-68558459D01*
X139630011Y-68821191D02*
X139267488Y-68652143D01*
X139666166Y-68507036D02*
X139512142Y-68600721D01*
X139744582Y-68102252D02*
X139279702Y-69099190D01*
X139756797Y-68549298D02*
X139448750Y-68736667D01*
%TO.C,LED1*%
X139102564Y-47655702D02*
X139666380Y-47450490D01*
X139418674Y-47647065D02*
X139290503Y-47587298D01*
X139452876Y-47741034D02*
X139102564Y-47655702D01*
X139572411Y-47484692D02*
X139418674Y-47647065D01*
X139666380Y-47450490D02*
X139452876Y-47741034D01*
X139837217Y-47335101D02*
X140213094Y-47198293D01*
X139888348Y-46890820D02*
X140264570Y-47924482D01*
X140025156Y-47266697D02*
X139982490Y-47441853D01*
X140119125Y-47232495D02*
X140076459Y-47407651D01*
X140127762Y-47548605D02*
X139837217Y-47335101D01*
X140213094Y-47198293D02*
X140127762Y-47548605D01*
X140315700Y-47480201D02*
X139939823Y-47617009D01*
%TO.C,LED6*%
X88665057Y-46467424D02*
X89215057Y-45514796D01*
X88691852Y-46021014D02*
X89015057Y-45861206D01*
X88778455Y-46071014D02*
X88940057Y-45991110D01*
X88841852Y-45761206D02*
X89188262Y-45961206D01*
X88865057Y-46121014D02*
X89026660Y-46041110D01*
X89015057Y-45861206D02*
X89038262Y-46221014D01*
X89038262Y-46221014D02*
X88691852Y-46021014D01*
X89236467Y-46277713D02*
X89596275Y-46254507D01*
X89323070Y-46327713D02*
X89546275Y-46341110D01*
X89546275Y-46341110D02*
X89582878Y-46477713D01*
X89596275Y-46254507D02*
X89756083Y-46577713D01*
X89756083Y-46577713D02*
X89236467Y-46277713D01*
%TO.C,R8*%
X93455500Y-44398276D02*
X93455500Y-44907724D01*
X94500500Y-44398276D02*
X94500500Y-44907724D01*
%TO.C,LED5*%
X88108305Y-67165798D02*
X88484182Y-67028990D01*
X88210911Y-67447706D02*
X88296243Y-67097394D01*
X88296243Y-67097394D02*
X88586788Y-67310898D01*
X88304880Y-67413504D02*
X88347546Y-67238348D01*
X88398849Y-67379302D02*
X88441515Y-67204146D01*
X88535657Y-67755179D02*
X88159435Y-66721517D01*
X88586788Y-67310898D02*
X88210911Y-67447706D01*
X88757625Y-67195509D02*
X88971129Y-66904965D01*
X88851594Y-67161307D02*
X89005331Y-66998934D01*
X88971129Y-66904965D02*
X89321441Y-66990297D01*
X89005331Y-66998934D02*
X89133502Y-67058701D01*
X89321441Y-66990297D02*
X88757625Y-67195509D01*
D14*
%TO.C,IC3*%
X96878000Y-51653000D02*
G75*
G02*
X96628000Y-51653000I-125000J0D01*
G01*
X96628000Y-51653000D02*
G75*
G02*
X96878000Y-51653000I125000J0D01*
G01*
D13*
%TO.C,C3*%
X98285500Y-52506733D02*
X98285500Y-52799267D01*
X99305500Y-52506733D02*
X99305500Y-52799267D01*
%TO.C,R2*%
X111939500Y-84070224D02*
X111939500Y-83560776D01*
X112984500Y-84070224D02*
X112984500Y-83560776D01*
%TO.C,R7*%
X95055500Y-44398276D02*
X95055500Y-44907724D01*
X96100500Y-44398276D02*
X96100500Y-44907724D01*
%TO.C,LED3*%
X123793966Y-82563872D02*
X123879298Y-82213560D01*
X123879298Y-82213560D02*
X124084510Y-82777376D01*
X123887935Y-82529670D02*
X123947702Y-82401499D01*
X123986395Y-83238758D02*
X124199899Y-82948213D01*
X124050308Y-82683407D02*
X123887935Y-82529670D01*
X124054799Y-83426696D02*
X123917991Y-83050819D01*
X124084510Y-82777376D02*
X123793966Y-82563872D01*
X124199899Y-82948213D02*
X124336707Y-83324090D01*
X124268303Y-83136152D02*
X124093147Y-83093486D01*
X124302505Y-83230121D02*
X124127349Y-83187455D01*
X124336707Y-83324090D02*
X123986395Y-83238758D01*
X124644180Y-82999344D02*
X123610518Y-83375566D01*
%TO.C,C2*%
X93118000Y-55044233D02*
X93118000Y-55336767D01*
X94138000Y-55044233D02*
X94138000Y-55336767D01*
%TO.C,LED8*%
X124976474Y-32886904D02*
X125230045Y-32343119D01*
X124991254Y-31790418D02*
X125988192Y-32255298D01*
X125187783Y-32433750D02*
X125193890Y-32657273D01*
X125193890Y-32657273D02*
X125060997Y-32705642D01*
X125230045Y-32343119D02*
X125284521Y-32699535D01*
X125269253Y-32140726D02*
X125438300Y-31778203D01*
X125284521Y-32699535D02*
X124976474Y-32886904D01*
X125353777Y-31959465D02*
X125447461Y-32113488D01*
X125396038Y-31868834D02*
X125489723Y-32022858D01*
X125438300Y-31778203D02*
X125625669Y-32086250D01*
X125625669Y-32086250D02*
X125269253Y-32140726D01*
X125710193Y-31904989D02*
X125541145Y-32267512D01*
%TO.C,R1*%
X114939500Y-84070224D02*
X114939500Y-83560776D01*
X115984500Y-84070224D02*
X115984500Y-83560776D01*
D15*
%TO.C,MK1*%
X116633000Y-57596000D02*
X116633000Y-57596000D01*
X116733000Y-57596000D02*
X116733000Y-57596000D01*
X116733000Y-57596000D02*
X116733000Y-57596000D01*
X116633000Y-57596000D02*
G75*
G02*
X116733000Y-57596000I50000J0D01*
G01*
X116633000Y-57596000D02*
G75*
G02*
X116733000Y-57596000I50000J0D01*
G01*
X116733000Y-57596000D02*
G75*
G02*
X116633000Y-57596000I-50000J0D01*
G01*
D13*
%TO.C,C4*%
X96374267Y-53759000D02*
X96081733Y-53759000D01*
X96374267Y-54779000D02*
X96081733Y-54779000D01*
%TO.C,C9*%
X114479267Y-59418000D02*
X114186733Y-59418000D01*
X114479267Y-60438000D02*
X114186733Y-60438000D01*
%TO.C,C1*%
X98285500Y-48999267D02*
X98285500Y-48706733D01*
X99305500Y-48999267D02*
X99305500Y-48706733D01*
%TD*%
M02*
