M48
; DRILL file {KiCad 8.0.0} date 2024-03-12T16:20:23+0100
; FORMAT={-:-/ absolute / inch / decimal}
; #@! TF.CreationDate,2024-03-12T16:20:23+01:00
; #@! TF.GenerationSoftware,Kicad,Pcbnew,8.0.0
; #@! TF.FileFunction,Plated,1,2,PTH
FMAT,2
INCH
; #@! TA.AperFunction,Plated,PTH,ViaDrill
T1C0.0118
; #@! TA.AperFunction,Plated,PTH,ComponentDrill
T2C0.0236
; #@! TA.AperFunction,Plated,PTH,ComponentDrill
T3C0.0598
%
G90
G05
T1
X3.3948Y-2.0995
X3.3948Y-2.1783
X3.3948Y-2.4145
X3.3948Y-2.4932
X3.442Y-2.5956
X3.4735Y-2.0208
X3.4735Y-2.0995
X3.4735Y-2.4145
X3.4735Y-2.4932
X3.5129Y-1.7688
X3.631Y-2.9657
X3.6389Y-2.0995
X3.7019Y-1.6832
X3.7155Y-1.8374
X3.7548Y-1.8374
X3.7649Y-1.6822
X3.7688Y-2.0657
X3.7885Y-2.1783
X3.7885Y-2.257
X3.7885Y-2.3357
X3.7885Y-2.7294
X3.7885Y-3.1231
X3.8336Y-1.8374
X3.8341Y-2.0652
X3.8375Y-1.9411
X3.8672Y-1.6271
X3.8672Y-2.1783
X3.8672Y-2.257
X3.8672Y-2.4145
X3.8672Y-2.4932
X3.8672Y-2.572
X3.8672Y-2.6507
X3.8672Y-2.7294
X3.8672Y-2.8082
X3.8672Y-3.1231
X3.8672Y-3.2019
X3.886Y-1.4696
X3.9302Y-1.791
X3.9302Y-1.9578
X3.9302Y-2.9106
X3.946Y-2.0995
X3.946Y-2.1783
X3.946Y-2.257
X3.946Y-2.4145
X3.946Y-2.4932
X3.946Y-2.572
X3.946Y-2.6507
X3.946Y-2.7294
X3.946Y-2.8082
X3.946Y-3.1231
X3.9775Y-3.1861
X3.9854Y-1.6074
X3.9932Y-2.942
X4.0247Y-2.0208
X4.0247Y-2.1783
X4.0247Y-2.257
X4.0247Y-2.3357
X4.0247Y-2.4145
X4.0247Y-2.4932
X4.0247Y-2.572
X4.0247Y-2.6507
X4.0247Y-2.7294
X4.0247Y-2.8082
X4.0641Y-1.505
X4.1035Y-2.0208
X4.1035Y-2.0995
X4.1035Y-2.257
X4.1035Y-2.3357
X4.1035Y-2.4145
X4.1035Y-2.4932
X4.1035Y-2.572
X4.1035Y-2.6507
X4.1035Y-2.7294
X4.1035Y-2.8082
X4.1822Y-2.0208
X4.1822Y-2.0995
X4.1822Y-2.1783
X4.1822Y-2.3357
X4.1822Y-2.4145
X4.1822Y-2.4932
X4.1822Y-2.572
X4.1822Y-2.6507
X4.1822Y-2.7294
X4.1822Y-2.8082
X4.1822Y-3.3594
X4.1901Y-1.1625
X4.198Y-1.6507
X4.2098Y-1.509
X4.2609Y-2.0208
X4.2609Y-2.0995
X4.2609Y-2.1783
X4.2609Y-2.257
X4.2609Y-2.4145
X4.2609Y-2.4932
X4.2609Y-2.572
X4.2609Y-2.6507
X4.2609Y-2.7294
X4.2609Y-2.8082
X4.2609Y-3.3594
X4.2747Y-1.7019
X4.3397Y-2.0208
X4.3397Y-2.0995
X4.3397Y-2.1783
X4.3397Y-2.257
X4.3397Y-2.3357
X4.3397Y-2.4932
X4.3397Y-2.572
X4.3397Y-2.6507
X4.3397Y-2.7294
X4.3397Y-2.8082
X4.3397Y-2.8869
X4.3476Y-1.2629
X4.3476Y-1.2964
X4.3712Y-3.068
X4.3791Y-3.2649
X4.4106Y-2.3515
X4.4184Y-1.4696
X4.4184Y-1.5483
X4.4184Y-2.0208
X4.4184Y-2.0995
X4.4184Y-2.4932
X4.4184Y-2.572
X4.4184Y-2.6507
X4.4184Y-2.7294
X4.4184Y-2.8082
X4.4184Y-2.8869
X4.4499Y-3.072
X4.4814Y-3.0641
X4.4854Y-3.3357
X4.4972Y-1.4696
X4.4972Y-1.5483
X4.4972Y-2.0208
X4.4972Y-2.0995
X4.5129Y-1.5877
X4.5139Y-3.0642
X4.5444Y-3.072
X4.5759Y-2.572
X4.5759Y-2.6507
X4.5759Y-2.7294
X4.5759Y-2.8082
X4.5759Y-2.8869
X4.5917Y-3.2649
X4.6231Y-3.068
X4.6389Y-1.3279
X4.6389Y-1.3672
X4.6389Y-1.4145
X4.6389Y-1.4617
X4.6389Y-1.509
X4.6389Y-1.5562
X4.6546Y-2.4145
X4.6546Y-2.4932
X4.6546Y-2.572
X4.6546Y-2.6507
X4.6546Y-2.7294
X4.6546Y-2.8082
X4.6546Y-2.8869
X4.6546Y-2.9657
X4.6546Y-3.0444
X4.6635Y-1.7294
X4.7334Y-1.8633
X4.7334Y-2.0208
X4.7334Y-2.0995
X4.7334Y-2.1783
X4.7334Y-2.257
X4.7334Y-2.4145
X4.7334Y-2.4932
X4.7334Y-2.572
X4.7334Y-2.6507
X4.7334Y-2.7294
X4.7334Y-2.8082
X4.7334Y-2.8869
X4.7334Y-2.9657
X4.7334Y-3.0444
X4.7334Y-3.2806
X4.7334Y-3.3594
X4.7846Y-1.5129
X4.7924Y-3.2806
X4.7964Y-1.1625
X4.8121Y-1.8633
X4.8121Y-1.942
X4.8121Y-2.0208
X4.8121Y-2.0995
X4.8121Y-2.1783
X4.8121Y-2.257
X4.8121Y-2.3357
X4.8121Y-2.4145
X4.8121Y-2.4932
X4.8121Y-2.572
X4.8121Y-2.6507
X4.8121Y-2.7294
X4.8121Y-2.8082
X4.8121Y-2.8869
X4.8121Y-2.9657
X4.8121Y-3.0444
X4.8279Y-1.6035
X4.8909Y-1.8633
X4.8909Y-1.942
X4.8909Y-2.0208
X4.8909Y-2.0995
X4.8909Y-2.1783
X4.8909Y-2.257
X4.8909Y-2.3357
X4.8909Y-2.4145
X4.8909Y-2.4932
X4.8909Y-2.572
X4.8909Y-2.6507
X4.8909Y-2.7294
X4.8909Y-2.8082
X4.8909Y-2.8869
X4.8909Y-2.9657
X4.8909Y-3.0444
X4.9224Y-1.5483
X4.9696Y-1.7058
X4.9696Y-1.8633
X4.9696Y-1.942
X4.9696Y-2.0208
X4.9696Y-2.0995
X4.9696Y-2.1783
X4.9696Y-2.257
X4.9696Y-2.3357
X4.9696Y-2.4145
X4.9696Y-2.4932
X4.9696Y-2.572
X4.9696Y-2.6507
X4.9696Y-2.7294
X4.9696Y-2.8082
X4.9696Y-2.8869
X4.9696Y-2.9657
X4.9696Y-3.0444
X4.9696Y-3.2019
X4.9854Y-1.3436
X5.0011Y-1.6035
X5.0483Y-1.6271
X5.0483Y-1.7058
X5.0483Y-1.8633
X5.0483Y-1.942
X5.0483Y-2.0208
X5.0483Y-2.0995
X5.0483Y-2.1783
X5.0483Y-2.257
X5.0483Y-2.3357
X5.0483Y-2.4145
X5.0483Y-2.4932
X5.0483Y-2.572
X5.0483Y-2.6507
X5.0483Y-2.7294
X5.0483Y-2.8082
X5.0483Y-2.8869
X5.0483Y-2.9657
X5.0483Y-3.1231
X5.0483Y-3.2019
X5.0562Y-1.5247
X5.1271Y-1.5483
X5.1271Y-1.6271
X5.1271Y-1.7058
X5.1271Y-1.8633
X5.1271Y-1.942
X5.1271Y-2.0208
X5.1271Y-2.0995
X5.1271Y-2.1783
X5.1271Y-2.257
X5.1271Y-2.3357
X5.1271Y-2.4145
X5.1271Y-2.4932
X5.1271Y-2.572
X5.1271Y-2.6507
X5.1271Y-2.7294
X5.1271Y-2.8082
X5.1271Y-2.8869
X5.1271Y-3.0444
X5.1271Y-3.1231
X5.1271Y-3.2019
X5.2058Y-1.7058
X5.2058Y-1.8633
X5.2058Y-1.942
X5.2058Y-2.0208
X5.2058Y-2.0995
X5.2058Y-2.1783
X5.2058Y-2.257
X5.2058Y-2.3357
X5.2058Y-2.4145
X5.2058Y-2.4932
X5.2058Y-2.572
X5.2058Y-2.6507
X5.2058Y-2.7294
X5.2058Y-3.1231
X5.2846Y-1.7846
X5.2846Y-1.8633
X5.2846Y-1.942
X5.2846Y-2.0208
X5.2846Y-2.0995
X5.2846Y-2.1783
X5.2846Y-2.257
X5.2846Y-2.3357
X5.2846Y-2.4145
X5.2846Y-2.4932
X5.2846Y-2.572
X5.2846Y-2.6507
X5.3633Y-1.7058
X5.3633Y-1.7846
X5.3633Y-1.8633
X5.3633Y-1.942
X5.3633Y-2.0208
X5.3633Y-2.0995
X5.3633Y-2.1783
X5.3633Y-2.257
X5.3633Y-2.3357
X5.3633Y-2.4145
X5.3633Y-2.4932
X5.3633Y-2.572
X5.4263Y-2.7649
X5.442Y-1.7058
X5.5208Y-1.9578
X5.5208Y-2.0208
X5.5208Y-2.0995
X5.5208Y-2.1783
X5.5208Y-2.257
X5.5208Y-2.3357
X5.5208Y-2.4145
X5.5208Y-2.4932
X5.5208Y-2.572
X5.5995Y-2.0208
X5.5995Y-2.0995
X5.5995Y-2.1783
X5.5995Y-2.257
X5.5995Y-2.3357
X5.5995Y-2.4145
X5.5995Y-2.4932
X5.5995Y-2.572
T3
X3.8987Y-2.3357
X4.7054Y-2.3357
T2
G00X4.3271Y-3.1613
M15
G01X4.3271Y-3.118
M16
G05
G00X4.3271Y-3.32
M15
G01X4.3271Y-3.2885
M16
G05
G00X4.6672Y-3.1613
M15
G01X4.6672Y-3.118
M16
G05
G00X4.6672Y-3.32
M15
G01X4.6672Y-3.2885
M16
G05
M30
