%TF.GenerationSoftware,KiCad,Pcbnew,8.0.0*%
%TF.CreationDate,2024-03-12T16:19:55+01:00*%
%TF.ProjectId,BAT2024,42415432-3032-4342-9e6b-696361645f70,1.0*%
%TF.SameCoordinates,Original*%
%TF.FileFunction,Soldermask,Bot*%
%TF.FilePolarity,Negative*%
%FSLAX46Y46*%
G04 Gerber Fmt 4.6, Leading zero omitted, Abs format (unit mm)*
G04 Created by KiCad (PCBNEW 8.0.0) date 2024-03-12 16:19:55*
%MOMM*%
%LPD*%
G01*
G04 APERTURE LIST*
G04 Aperture macros list*
%AMRoundRect*
0 Rectangle with rounded corners*
0 $1 Rounding radius*
0 $2 $3 $4 $5 $6 $7 $8 $9 X,Y pos of 4 corners*
0 Add a 4 corners polygon primitive as box body*
4,1,4,$2,$3,$4,$5,$6,$7,$8,$9,$2,$3,0*
0 Add four circle primitives for the rounded corners*
1,1,$1+$1,$2,$3*
1,1,$1+$1,$4,$5*
1,1,$1+$1,$6,$7*
1,1,$1+$1,$8,$9*
0 Add four rect primitives between the rounded corners*
20,1,$1+$1,$2,$3,$4,$5,0*
20,1,$1+$1,$4,$5,$6,$7,0*
20,1,$1+$1,$6,$7,$8,$9,0*
20,1,$1+$1,$8,$9,$2,$3,0*%
%AMRotRect*
0 Rectangle, with rotation*
0 The origin of the aperture is its center*
0 $1 length*
0 $2 width*
0 $3 Rotation angle, in degrees counterclockwise*
0 Add horizontal line*
21,1,$1,$2,0,0,$3*%
G04 Aperture macros list end*
%ADD10RoundRect,0.150000X0.150000X-0.512500X0.150000X0.512500X-0.150000X0.512500X-0.150000X-0.512500X0*%
%ADD11RoundRect,0.237500X0.300000X0.237500X-0.300000X0.237500X-0.300000X-0.237500X0.300000X-0.237500X0*%
%ADD12R,1.500000X1.500000*%
%ADD13RoundRect,0.237500X0.237500X-0.300000X0.237500X0.300000X-0.237500X0.300000X-0.237500X-0.300000X0*%
%ADD14RoundRect,0.237500X0.237500X-0.287500X0.237500X0.287500X-0.237500X0.287500X-0.237500X-0.287500X0*%
%ADD15C,2.280000*%
%ADD16RoundRect,0.237500X-0.250000X-0.237500X0.250000X-0.237500X0.250000X0.237500X-0.250000X0.237500X0*%
%ADD17RotRect,1.500000X1.500000X201.000000*%
%ADD18O,2.400000X0.800000*%
%ADD19O,0.800000X2.400000*%
%ADD20C,3.200000*%
%ADD21RoundRect,0.237500X0.250000X0.237500X-0.250000X0.237500X-0.250000X-0.237500X0.250000X-0.237500X0*%
%ADD22RotRect,1.500000X1.500000X223.000000*%
%ADD23RotRect,1.500000X1.500000X218.000000*%
%ADD24RotRect,1.500000X1.500000X206.000000*%
%ADD25RoundRect,0.237500X-0.300000X-0.237500X0.300000X-0.237500X0.300000X0.237500X-0.300000X0.237500X0*%
%ADD26RotRect,1.500000X1.500000X147.000000*%
%ADD27RoundRect,0.237500X-0.237500X0.250000X-0.237500X-0.250000X0.237500X-0.250000X0.237500X0.250000X0*%
%ADD28RotRect,1.500000X1.500000X156.000000*%
%ADD29RoundRect,0.054880X0.652120X0.337120X-0.652120X0.337120X-0.652120X-0.337120X0.652120X-0.337120X0*%
%ADD30RotRect,1.500000X1.500000X211.000000*%
%ADD31C,1.000000*%
%ADD32RoundRect,0.102000X0.897890X-1.056548X1.385974X0.039706X-0.897890X1.056548X-1.385974X-0.039706X0*%
%ADD33C,0.990600*%
%ADD34C,0.787400*%
%ADD35RoundRect,0.237500X0.237500X-0.250000X0.237500X0.250000X-0.237500X0.250000X-0.237500X-0.250000X0*%
%ADD36R,0.600000X1.325000*%
%ADD37R,1.180000X2.810000*%
%ADD38RotRect,1.500000X1.500000X228.000000*%
%ADD39RotRect,1.500000X1.500000X151.000000*%
%ADD40RotRect,1.500000X1.500000X232.000000*%
%ADD41C,0.650000*%
%ADD42RoundRect,0.102000X0.300000X0.575000X-0.300000X0.575000X-0.300000X-0.575000X0.300000X-0.575000X0*%
%ADD43RoundRect,0.102000X0.150000X0.575000X-0.150000X0.575000X-0.150000X-0.575000X0.150000X-0.575000X0*%
%ADD44O,1.204000X2.304000*%
%ADD45RoundRect,0.301000X0.301000X0.701000X-0.301000X0.701000X-0.301000X-0.701000X0.301000X-0.701000X0*%
%ADD46C,0.600000*%
G04 APERTURE END LIST*
D10*
%TO.C,U1*%
X94778000Y-68328000D03*
X93828000Y-68328000D03*
X92878000Y-68328000D03*
X92878000Y-66053000D03*
X94778000Y-66053000D03*
%TD*%
D11*
%TO.C,C8*%
X94690500Y-64328000D03*
X92965500Y-64328000D03*
%TD*%
%TO.C,C10*%
X101690500Y-43628000D03*
X99965500Y-43628000D03*
%TD*%
D12*
%TO.C,TP6*%
X91628000Y-62328000D03*
%TD*%
D13*
%TO.C,C7*%
X91228000Y-68390500D03*
X91228000Y-66665500D03*
%TD*%
D12*
%TO.C,TP2*%
X94228000Y-70728000D03*
%TD*%
D14*
%TO.C,D1*%
X105628000Y-83558000D03*
X105628000Y-81808000D03*
%TD*%
D15*
%TO.C,H1*%
X119518000Y-59328000D03*
X99028000Y-59328000D03*
%TD*%
D16*
%TO.C,R4*%
X105015500Y-74978000D03*
X106840500Y-74978000D03*
%TD*%
D17*
%TO.C,TP8*%
X104696504Y-31104761D03*
%TD*%
D18*
%TO.C,IC1*%
X119878000Y-28928000D03*
X119878000Y-30128000D03*
X119878000Y-31328000D03*
X119878000Y-32528000D03*
X119878000Y-33728000D03*
X119878000Y-34928000D03*
X119878000Y-36128000D03*
X119878000Y-37328000D03*
X119878000Y-38528000D03*
X119878000Y-39728000D03*
X119878000Y-40928000D03*
X119878000Y-42128000D03*
D19*
X117828000Y-42228000D03*
X116628000Y-42228000D03*
X115428000Y-42228000D03*
X114228000Y-42228000D03*
X113028000Y-42228000D03*
X111828000Y-42228000D03*
X110628000Y-42228000D03*
D18*
X108578000Y-42128000D03*
X108578000Y-40928000D03*
X108578000Y-39728000D03*
X108578000Y-38528000D03*
X108578000Y-37328000D03*
X108578000Y-36128000D03*
X108578000Y-34928000D03*
X108578000Y-33728000D03*
X108578000Y-32528000D03*
X108578000Y-31328000D03*
X108578000Y-30128000D03*
X108578000Y-28928000D03*
%TD*%
D20*
%TO.C,H4*%
X134028000Y-74728000D03*
%TD*%
D21*
%TO.C,R5*%
X98133000Y-77740500D03*
X96308000Y-77740500D03*
%TD*%
D22*
%TO.C,TP10*%
X95495654Y-36866216D03*
%TD*%
D23*
%TO.C,TP12*%
X97465681Y-35131569D03*
%TD*%
D24*
%TO.C,TP7*%
X102116098Y-32249969D03*
%TD*%
D25*
%TO.C,C6*%
X105065500Y-76590500D03*
X106790500Y-76590500D03*
%TD*%
D26*
%TO.C,TP4*%
X130703615Y-34041567D03*
%TD*%
D27*
%TO.C,R6*%
X105428000Y-38315500D03*
X105428000Y-40140500D03*
%TD*%
D20*
%TO.C,H2*%
X134028000Y-39928000D03*
%TD*%
%TO.C,H3*%
X87828000Y-57328000D03*
%TD*%
D28*
%TO.C,TP14*%
X124924104Y-30898760D03*
%TD*%
D29*
%TO.C,U2*%
X102683000Y-75628000D03*
X102683000Y-76578000D03*
X102683000Y-77528000D03*
X100173000Y-77528000D03*
X100173000Y-76578000D03*
X100173000Y-75628000D03*
%TD*%
D30*
%TO.C,TP5*%
X99739151Y-33591657D03*
%TD*%
D31*
%TO.C,S1*%
X87545095Y-49234055D03*
X90310905Y-43021945D03*
D32*
X90423407Y-49530389D03*
X91440250Y-47246526D03*
X92457092Y-44962662D03*
%TD*%
D33*
%TO.C,J1*%
X128024051Y-39924051D03*
X123713528Y-37050369D03*
X125150369Y-35613528D03*
D34*
X126677013Y-39475038D03*
X127575038Y-38577013D03*
X125778987Y-38577013D03*
X126677013Y-37678987D03*
X124880962Y-37678987D03*
X125778987Y-36780962D03*
%TD*%
D12*
%TO.C,TP3*%
X94228000Y-62328000D03*
%TD*%
D35*
%TO.C,R3*%
X105628000Y-80240500D03*
X105628000Y-78415500D03*
%TD*%
D36*
%TO.C,IC2*%
X103733000Y-41840000D03*
X102463000Y-41840000D03*
X101193000Y-41840000D03*
X99923000Y-41840000D03*
X99923000Y-36616000D03*
X101193000Y-36616000D03*
X102463000Y-36616000D03*
X103733000Y-36616000D03*
%TD*%
D37*
%TO.C,F1*%
X111913000Y-75928000D03*
X108943000Y-75928000D03*
%TD*%
D38*
%TO.C,TP9*%
X93629103Y-38799085D03*
%TD*%
D39*
%TO.C,TP13*%
X127928272Y-32387038D03*
%TD*%
D11*
%TO.C,C5*%
X98083000Y-75540500D03*
X96358000Y-75540500D03*
%TD*%
D12*
%TO.C,TP1*%
X94228000Y-73328000D03*
%TD*%
D40*
%TO.C,TP11*%
X91864282Y-40830195D03*
%TD*%
D41*
%TO.C,J2*%
X117118000Y-80248000D03*
X111338000Y-80248000D03*
D42*
X117428000Y-79173000D03*
X116628000Y-79173000D03*
D43*
X115478000Y-79173000D03*
X114478000Y-79173000D03*
X113978000Y-79173000D03*
X112978000Y-79173000D03*
D42*
X111028000Y-79173000D03*
X111828000Y-79173000D03*
D43*
X112478000Y-79173000D03*
X113478000Y-79173000D03*
X114978000Y-79173000D03*
X115978000Y-79173000D03*
D44*
X118548000Y-79748000D03*
X109908000Y-79748000D03*
D45*
X118548000Y-83928000D03*
X109908000Y-83928000D03*
%TD*%
D46*
X87428000Y-65928000D03*
X120228000Y-53328000D03*
X88228000Y-53328000D03*
X124228000Y-53328000D03*
X121728000Y-83328000D03*
X110228000Y-73328000D03*
X136228000Y-51328000D03*
X128228000Y-59328000D03*
X136228000Y-59328000D03*
X116228000Y-65328000D03*
X124228000Y-59328000D03*
X106228000Y-63328000D03*
X120228000Y-75328000D03*
X110228000Y-51328000D03*
X97373000Y-46669000D03*
X122228000Y-61328000D03*
X98228000Y-67328000D03*
X86228000Y-63328000D03*
X114228000Y-53328000D03*
X126228000Y-61328000D03*
X130228000Y-51328000D03*
X136228000Y-61328000D03*
X142228000Y-57328000D03*
X128228000Y-75328000D03*
X122228000Y-71328000D03*
X98228000Y-63328000D03*
X136228000Y-47328000D03*
X96228000Y-69328000D03*
X128228000Y-41328000D03*
X108228000Y-63328000D03*
X118228000Y-75328000D03*
X112228000Y-69328000D03*
X140228000Y-49728000D03*
X132228000Y-57328000D03*
X132228000Y-49328000D03*
X142228000Y-51328000D03*
X113928000Y-84728000D03*
X124228000Y-57328000D03*
X126228000Y-47328000D03*
X126228000Y-57328000D03*
X118228000Y-61328000D03*
X130228000Y-63328000D03*
X106228000Y-67328000D03*
X122228000Y-75328000D03*
X117428000Y-77928000D03*
X110228000Y-53328000D03*
X124228000Y-75328000D03*
X130228000Y-53328000D03*
X98228000Y-69328000D03*
X140228000Y-63328000D03*
X96228000Y-59328000D03*
X88228000Y-51328000D03*
X134228000Y-49328000D03*
X106228000Y-65328000D03*
X110228000Y-67328000D03*
X130228000Y-79328000D03*
X122628000Y-40728000D03*
X108228000Y-57328000D03*
X136228000Y-43328000D03*
X102228000Y-63328000D03*
X118228000Y-63328000D03*
X120228000Y-67328000D03*
X120228000Y-61328000D03*
X124228000Y-73328000D03*
X101028000Y-80928000D03*
X102228000Y-69328000D03*
X126228000Y-53328000D03*
X120228000Y-71328000D03*
X102228000Y-71328000D03*
X126228000Y-59328000D03*
X142228000Y-65328000D03*
X100228000Y-67328000D03*
X126228000Y-65328000D03*
X124228000Y-65328000D03*
X100228000Y-69328000D03*
X104228000Y-59328000D03*
X126228000Y-77328000D03*
X112228000Y-37328000D03*
X128228000Y-67328000D03*
X124228000Y-69328000D03*
X108228000Y-85328000D03*
X92428000Y-53328000D03*
X130228000Y-57328000D03*
X118228000Y-77328000D03*
X102228000Y-65328000D03*
X110228000Y-71328000D03*
X122228000Y-57328000D03*
X118228000Y-65328000D03*
X102228000Y-51328000D03*
X132228000Y-79328000D03*
X98228000Y-55328000D03*
X96228000Y-57328000D03*
X126228000Y-81328000D03*
X128228000Y-51328000D03*
X112228000Y-73328000D03*
X100228000Y-61328000D03*
X128228000Y-69328000D03*
X124228000Y-49328000D03*
X142228000Y-59328000D03*
X130228000Y-67328000D03*
X132228000Y-67328000D03*
X106228000Y-61328000D03*
X122228000Y-63328000D03*
X120228000Y-83328000D03*
X100228000Y-55328000D03*
X132228000Y-55328000D03*
X126228000Y-71328000D03*
X142228000Y-53328000D03*
X140228000Y-53328000D03*
X126228000Y-55328000D03*
X128228000Y-49328000D03*
X126228000Y-69328000D03*
X116228000Y-73328000D03*
X114228000Y-51328000D03*
X132228000Y-47328000D03*
X108228000Y-51328000D03*
X132228000Y-51328000D03*
X104228000Y-67328000D03*
X112028000Y-59728000D03*
X122228000Y-47328000D03*
X140228000Y-59328000D03*
X122228000Y-65328000D03*
X130228000Y-69328000D03*
X100228000Y-57328000D03*
X122228000Y-77328000D03*
X130228000Y-61328000D03*
X124228000Y-55328000D03*
X128228000Y-71328000D03*
X132228000Y-61328000D03*
X98228000Y-65328000D03*
X134228000Y-63328000D03*
X136228000Y-65328000D03*
X114228000Y-39328000D03*
X128228000Y-73328000D03*
X98228000Y-61328000D03*
X134228000Y-67328000D03*
X124228000Y-71328000D03*
X137828000Y-70228000D03*
X92228000Y-75328000D03*
X104228000Y-61328000D03*
X98228000Y-41328000D03*
X126228000Y-49328000D03*
X122228000Y-49328000D03*
X136228000Y-45328000D03*
X130228000Y-47328000D03*
X128228000Y-47328000D03*
X112228000Y-39328000D03*
X98228000Y-79328000D03*
X134228000Y-57328000D03*
X120228000Y-57328000D03*
X106228000Y-71328000D03*
X106228000Y-53328000D03*
X102228000Y-55328000D03*
X120228000Y-63328000D03*
X130228000Y-41328000D03*
X136228000Y-63328000D03*
X132228000Y-65328000D03*
X124228000Y-77328000D03*
X140228000Y-65328000D03*
X96228000Y-79328000D03*
X120228000Y-51328000D03*
X122228000Y-59328000D03*
X128228000Y-79328000D03*
X98228000Y-81328000D03*
X104228000Y-69328000D03*
X102228000Y-67328000D03*
X130228000Y-55328000D03*
X126628000Y-34128000D03*
X122228000Y-55328000D03*
X124228000Y-51328000D03*
X132228000Y-63328000D03*
X120228000Y-73328000D03*
X118228000Y-69328000D03*
X128228000Y-81328000D03*
X108228000Y-53328000D03*
X128228000Y-53328000D03*
X140228000Y-61328000D03*
X134228000Y-51328000D03*
X128228000Y-65328000D03*
X102228000Y-61328000D03*
X96228000Y-55328000D03*
X132228000Y-53328000D03*
X104228000Y-57328000D03*
X130228000Y-39328000D03*
X120228000Y-65328000D03*
X98228000Y-57328000D03*
X108228000Y-67328000D03*
X112228000Y-63328000D03*
X122228000Y-69328000D03*
X88228000Y-61328000D03*
X86228000Y-55328000D03*
X126228000Y-73328000D03*
X128228000Y-55328000D03*
X134228000Y-59328000D03*
X104228000Y-53328000D03*
X136228000Y-55328000D03*
X118228000Y-67328000D03*
X128228000Y-61328000D03*
X130228000Y-77328000D03*
X118228000Y-73328000D03*
X126228000Y-51328000D03*
X106228000Y-69328000D03*
X121828000Y-29528000D03*
X110228000Y-65328000D03*
X126228000Y-43328000D03*
X140228000Y-57328000D03*
X140228000Y-55328000D03*
X106228000Y-55328000D03*
X98228000Y-71328000D03*
X132228000Y-69328000D03*
X124228000Y-47328000D03*
X100228000Y-63328000D03*
X120228000Y-85328000D03*
X134228000Y-47328000D03*
X108228000Y-55328000D03*
X100228000Y-71328000D03*
X104228000Y-63328000D03*
X112228000Y-71328000D03*
X108228000Y-61328000D03*
X106228000Y-85328000D03*
X130228000Y-59328000D03*
X89228000Y-44928000D03*
X106228000Y-59328000D03*
X104228000Y-71328000D03*
X140228000Y-51328000D03*
X124228000Y-61328000D03*
X120228000Y-55328000D03*
X122228000Y-53328000D03*
X128228000Y-43328000D03*
X134228000Y-53328000D03*
X110228000Y-63328000D03*
X136228000Y-49328000D03*
X130228000Y-73328000D03*
X100228000Y-79328000D03*
X128228000Y-63328000D03*
X132228000Y-59328000D03*
X126228000Y-63328000D03*
X102228000Y-59328000D03*
X142228000Y-55328000D03*
X100228000Y-65328000D03*
X110228000Y-55328000D03*
X116228000Y-67328000D03*
X122228000Y-51328000D03*
X126228000Y-75328000D03*
X112228000Y-65328000D03*
X136228000Y-53328000D03*
X110228000Y-69328000D03*
X120228000Y-77328000D03*
X86228000Y-61328000D03*
X114228000Y-37328000D03*
X124228000Y-67328000D03*
X132228000Y-43328000D03*
X116228000Y-69328000D03*
X126228000Y-67328000D03*
X130228000Y-43328000D03*
X88228000Y-63328000D03*
X108228000Y-65328000D03*
X104228000Y-51328000D03*
X108228000Y-71328000D03*
X138228000Y-43328000D03*
X124228000Y-63328000D03*
X122228000Y-67328000D03*
X112228000Y-67328000D03*
X116228000Y-71328000D03*
X122228000Y-73328000D03*
X106228000Y-51328000D03*
X106628000Y-41928000D03*
X130228000Y-71328000D03*
X100228000Y-53328000D03*
X86228000Y-53328000D03*
X106428000Y-29528000D03*
X120228000Y-47328000D03*
X111028000Y-77928000D03*
X134228000Y-45328000D03*
X110228000Y-59328000D03*
X130228000Y-81328000D03*
X130228000Y-65328000D03*
X112228000Y-53328000D03*
X108578000Y-43228000D03*
X104228000Y-65328000D03*
X134228000Y-65328000D03*
X102228000Y-57328000D03*
X128228000Y-57328000D03*
X108228000Y-69328000D03*
X134228000Y-55328000D03*
X142228000Y-61328000D03*
X136228000Y-57328000D03*
X110228000Y-57328000D03*
X118228000Y-71328000D03*
X120228000Y-69328000D03*
X130228000Y-49328000D03*
X134228000Y-61328000D03*
X142228000Y-63328000D03*
X112228000Y-51328000D03*
X99828000Y-45490500D03*
X103228000Y-38228000D03*
X101228000Y-40828000D03*
X127028000Y-40728000D03*
X118454000Y-43928000D03*
X97386542Y-52455460D03*
X95728000Y-52469000D03*
X99828000Y-73928000D03*
X101428000Y-74728000D03*
X117828000Y-39528000D03*
X114652458Y-77831688D03*
X113828000Y-77828000D03*
X128428000Y-38728000D03*
X117828000Y-38328000D03*
X121528000Y-38428000D03*
X117828000Y-35928000D03*
X117828000Y-33728000D03*
X115428000Y-78028000D03*
X125028000Y-39328000D03*
X117828000Y-34728000D03*
X110428000Y-32928000D03*
X95628000Y-42728000D03*
X95373000Y-46669000D03*
X113028000Y-78028000D03*
X117828000Y-37128000D03*
X98704000Y-37328000D03*
X106928000Y-38328000D03*
X97473000Y-49303000D03*
X99828000Y-49728000D03*
X114628000Y-40328000D03*
X94028000Y-42753000D03*
X110428000Y-32077997D03*
X94373000Y-46669000D03*
X111228000Y-82928000D03*
X116628000Y-82928000D03*
M02*
